<svg width="346" height="471" viewBox="0 0 346 471" fill="none" xmlns="http://www.w3.org/2000/svg">
<path d="M13.548 259.096H12.176V248.974H13.548L18.728 256.8V248.974H20.1V259.096H18.728L13.548 251.27V259.096ZM25.1873 259.264C23.1713 259.264 21.7853 257.808 21.7853 255.68C21.7853 253.538 23.1433 252.054 25.1313 252.054C27.0773 252.054 28.3512 253.398 28.3512 255.428V255.918L23.0593 255.932C23.1573 257.374 23.9133 258.172 25.2153 258.172C26.2373 258.172 26.9093 257.752 27.1333 256.968H28.3653C28.0293 258.438 26.8813 259.264 25.1873 259.264ZM25.1313 253.16C23.9833 253.16 23.2553 253.846 23.0873 255.05H27.0353C27.0353 253.916 26.2933 253.16 25.1313 253.16ZM29.3731 255.666C29.3731 253.552 30.8851 252.068 32.9431 252.068C34.9871 252.068 36.4991 253.552 36.4991 255.666C36.4991 257.78 34.9871 259.264 32.9431 259.264C30.8851 259.264 29.3731 257.78 29.3731 255.666ZM30.7031 255.666C30.7031 257.094 31.6131 258.088 32.9431 258.088C34.2591 258.088 35.1831 257.094 35.1831 255.666C35.1831 254.238 34.2591 253.244 32.9431 253.244C31.6131 253.244 30.7031 254.238 30.7031 255.666ZM37.9559 262.162V252.25H39.1459L39.2439 253.482C39.7059 252.544 40.6299 252.054 41.7219 252.054C43.6819 252.054 44.8999 253.524 44.8999 255.624C44.8999 257.71 43.7519 259.278 41.7219 259.278C40.6299 259.278 39.7199 258.816 39.2719 257.976V262.162H37.9559ZM39.2859 255.68C39.2859 257.08 40.0979 258.088 41.4419 258.088C42.7859 258.088 43.5839 257.08 43.5839 255.68C43.5839 254.266 42.7859 253.258 41.4419 253.258C40.0979 253.258 39.2859 254.252 39.2859 255.68ZM47.6944 259.096H46.3784V248.792H47.6944V259.096ZM51.6337 259.264C50.1637 259.264 49.2957 258.438 49.2957 257.192C49.2957 255.932 50.2337 255.148 51.8437 255.022L53.9997 254.854V254.658C53.9997 253.51 53.3137 253.104 52.3897 253.104C51.2837 253.104 50.6537 253.594 50.6537 254.42H49.5057C49.5057 252.992 50.6817 252.054 52.4457 252.054C54.1397 252.054 55.2877 252.95 55.2877 254.798V259.096H54.1677L54.0277 257.99C53.6777 258.774 52.7397 259.264 51.6337 259.264ZM52.0117 258.242C53.2577 258.242 54.0137 257.43 54.0137 256.142V255.778L52.2637 255.918C51.1017 256.03 50.6257 256.478 50.6257 257.15C50.6257 257.878 51.1577 258.242 52.0117 258.242ZM56.5502 257.108H57.8102C57.8102 257.808 58.3422 258.228 59.2102 258.228C60.1342 258.228 60.6662 257.85 60.6662 257.22C60.6662 256.758 60.4422 256.478 59.7282 256.296L58.5242 256.016C57.3062 255.722 56.7322 255.12 56.7322 254.112C56.7322 252.852 57.7962 252.054 59.3082 252.054C60.8062 252.054 61.7862 252.894 61.8142 254.196H60.5542C60.5262 253.51 60.0642 253.076 59.2662 253.076C58.4402 253.076 57.9782 253.44 57.9782 254.07C57.9782 254.532 58.3142 254.84 58.9862 255.008L60.1902 255.302C61.3522 255.582 61.9262 256.114 61.9262 257.136C61.9262 258.438 60.8062 259.264 59.1822 259.264C57.5722 259.264 56.5502 258.41 56.5502 257.108ZM64.7016 259.096H63.3856V252.25H64.5616L64.6876 253.146C65.0376 252.502 65.7656 252.054 66.7316 252.054C67.7956 252.054 68.5516 252.586 68.9016 253.44C69.2236 252.586 70.0496 252.054 71.1136 252.054C72.6816 252.054 73.6336 253.034 73.6336 254.616V259.096H72.3456V254.938C72.3456 253.86 71.7436 253.244 70.8196 253.244C69.8256 253.244 69.1676 253.944 69.1676 255.036V259.096H67.8656V254.924C67.8656 253.846 67.2776 253.258 66.3536 253.258C65.3596 253.258 64.7016 253.944 64.7016 255.036V259.096ZM74.8158 257.108H76.0758C76.0758 257.808 76.6078 258.228 77.4758 258.228C78.3998 258.228 78.9318 257.85 78.9318 257.22C78.9318 256.758 78.7078 256.478 77.9938 256.296L76.7898 256.016C75.5718 255.722 74.9978 255.12 74.9978 254.112C74.9978 252.852 76.0618 252.054 77.5738 252.054C79.0718 252.054 80.0518 252.894 80.0798 254.196H78.8198C78.7918 253.51 78.3298 253.076 77.5318 253.076C76.7058 253.076 76.2438 253.44 76.2438 254.07C76.2438 254.532 76.5798 254.84 77.2518 255.008L78.4558 255.302C79.6178 255.582 80.1918 256.114 80.1918 257.136C80.1918 258.438 79.0718 259.264 77.4478 259.264C75.8378 259.264 74.8158 258.41 74.8158 257.108Z" fill="white"/>
<path d="M58.154 1.13319V0.143191H64.017V1.13319H61.63V8.09619H60.552V1.13319H58.154ZM65.9588 8.08519H64.9248V0.000190735H65.9588V3.54219C66.2998 2.95919 66.9488 2.56319 67.7848 2.56319C69.1598 2.56319 69.8198 3.43219 69.8198 4.80719V8.09619H68.7858V5.03819C68.7858 3.94919 68.2688 3.50919 67.4988 3.50919C66.4978 3.50919 65.9588 4.23519 65.9588 5.15919V8.08519ZM73.5729 8.22819C71.9889 8.22819 70.8999 7.08419 70.8999 5.41219C70.8999 3.72919 71.9669 2.56319 73.5289 2.56319C75.0579 2.56319 76.0589 3.61919 76.0589 5.21419V5.59919L71.9009 5.61019C71.9779 6.74319 72.5719 7.37019 73.5949 7.37019C74.3979 7.37019 74.9259 7.04019 75.1019 6.42419H76.0699C75.8059 7.57919 74.9039 8.22819 73.5729 8.22819ZM73.5289 3.43219C72.6269 3.43219 72.0549 3.97119 71.9229 4.91719H75.0249C75.0249 4.02619 74.4419 3.43219 73.5289 3.43219ZM81.4756 8.09619H80.3976V0.143191H81.4756L85.5456 6.29219V0.143191H86.6236V8.09619H85.5456L81.4756 1.94719V8.09619ZM89.8728 8.22819C88.7178 8.22819 88.0358 7.57919 88.0358 6.60019C88.0358 5.61019 88.7728 4.99419 90.0378 4.89519L91.7318 4.76319V4.60919C91.7318 3.70719 91.1928 3.38819 90.4668 3.38819C89.5978 3.38819 89.1028 3.77319 89.1028 4.42219H88.2008C88.2008 3.30019 89.1248 2.56319 90.5108 2.56319C91.8418 2.56319 92.7438 3.26719 92.7438 4.71919V8.09619H91.8638L91.7538 7.22719C91.4788 7.84319 90.7418 8.22819 89.8728 8.22819ZM90.1698 7.42519C91.1488 7.42519 91.7428 6.78719 91.7428 5.77519V5.48919L90.3678 5.59919C89.4548 5.68719 89.0808 6.03919 89.0808 6.56719C89.0808 7.13919 89.4988 7.42519 90.1698 7.42519ZM95.2097 8.09619H94.1757V2.71719H95.0997L95.1987 3.42119C95.4737 2.91519 96.0457 2.56319 96.8047 2.56319C97.6407 2.56319 98.2347 2.98119 98.5097 3.65219C98.7627 2.98119 99.4117 2.56319 100.248 2.56319C101.48 2.56319 102.228 3.33319 102.228 4.57619V8.09619H101.216V4.82919C101.216 3.98219 100.743 3.49819 100.017 3.49819C99.2357 3.49819 98.7187 4.04819 98.7187 4.90619V8.09619H97.6957V4.81819C97.6957 3.97119 97.2337 3.50919 96.5077 3.50919C95.7267 3.50919 95.2097 4.04819 95.2097 4.90619V8.09619ZM105.982 8.22819C104.398 8.22819 103.309 7.08419 103.309 5.41219C103.309 3.72919 104.376 2.56319 105.938 2.56319C107.467 2.56319 108.468 3.61919 108.468 5.21419V5.59919L104.31 5.61019C104.387 6.74319 104.981 7.37019 106.004 7.37019C106.807 7.37019 107.335 7.04019 107.511 6.42419H108.479C108.215 7.57919 107.313 8.22819 105.982 8.22819ZM105.938 3.43219C105.036 3.43219 104.464 3.97119 104.332 4.91719H107.434C107.434 4.02619 106.851 3.43219 105.938 3.43219ZM112.279 5.40119C112.279 3.74019 113.467 2.57419 115.084 2.57419C116.69 2.57419 117.878 3.74019 117.878 5.40119C117.878 7.06219 116.69 8.22819 115.084 8.22819C113.467 8.22819 112.279 7.06219 112.279 5.40119ZM113.324 5.40119C113.324 6.52319 114.039 7.30419 115.084 7.30419C116.118 7.30419 116.844 6.52319 116.844 5.40119C116.844 4.27919 116.118 3.49819 115.084 3.49819C114.039 3.49819 113.324 4.27919 113.324 5.40119ZM118.418 2.71719H119.21V1.85919C119.21 0.539191 119.936 0.000190735 120.915 0.000190735C121.113 0.000190735 121.344 0.0111912 121.553 0.0441908V0.935191H121.091C120.42 0.935191 120.244 1.27619 120.244 1.85919V2.71719H121.52V3.58619H120.244V8.09619H119.21V3.58619H118.418V2.71719ZM126.743 8.09619H125.665V0.143191H126.743V3.56419H130.681V0.143191H131.759V8.09619H130.681V4.56519H126.743V8.09619ZM135.749 8.22819C134.165 8.22819 133.076 7.08419 133.076 5.41219C133.076 3.72919 134.143 2.56319 135.705 2.56319C137.234 2.56319 138.235 3.61919 138.235 5.21419V5.59919L134.077 5.61019C134.154 6.74319 134.748 7.37019 135.771 7.37019C136.574 7.37019 137.102 7.04019 137.278 6.42419H138.246C137.982 7.57919 137.08 8.22819 135.749 8.22819ZM135.705 3.43219C134.803 3.43219 134.231 3.97119 134.099 4.91719H137.201C137.201 4.02619 136.618 3.43219 135.705 3.43219ZM140.909 8.22819C139.754 8.22819 139.072 7.57919 139.072 6.60019C139.072 5.61019 139.809 4.99419 141.074 4.89519L142.768 4.76319V4.60919C142.768 3.70719 142.229 3.38819 141.503 3.38819C140.634 3.38819 140.139 3.77319 140.139 4.42219H139.237C139.237 3.30019 140.161 2.56319 141.547 2.56319C142.878 2.56319 143.78 3.26719 143.78 4.71919V8.09619H142.9L142.79 7.22719C142.515 7.84319 141.778 8.22819 140.909 8.22819ZM141.206 7.42519C142.185 7.42519 142.779 6.78719 142.779 5.77519V5.48919L141.404 5.59919C140.491 5.68719 140.117 6.03919 140.117 6.56719C140.117 7.13919 140.535 7.42519 141.206 7.42519ZM146.268 8.09619H145.234V0.000190735H146.268V8.09619ZM149.308 8.09619H148.274V3.58619H147.218V2.71719H148.274V1.03419H149.308V2.71719H150.364V3.58619H149.308V8.09619ZM152.326 8.08519H151.292V0.000190735H152.326V3.54219C152.667 2.95919 153.316 2.56319 154.152 2.56319C155.527 2.56319 156.187 3.43219 156.187 4.80719V8.09619H155.153V5.03819C155.153 3.94919 154.636 3.50919 153.866 3.50919C152.865 3.50919 152.326 4.23519 152.326 5.15919V8.08519ZM164.103 8.21719C161.837 8.21719 160.33 6.58919 160.33 4.12519C160.33 1.67219 161.881 0.0111912 164.158 0.0111912C165.951 0.0111912 167.326 1.07819 167.623 2.70619H166.468C166.171 1.67219 165.28 1.04519 164.125 1.04519C162.519 1.04519 161.463 2.25519 161.463 4.11419C161.463 5.97319 162.519 7.18319 164.125 7.18319C165.291 7.18319 166.215 6.55619 166.512 5.57719H167.656C167.315 7.16119 165.896 8.21719 164.103 8.21719ZM168.45 5.40119C168.45 3.74019 169.638 2.57419 171.255 2.57419C172.861 2.57419 174.049 3.74019 174.049 5.40119C174.049 7.06219 172.861 8.22819 171.255 8.22819C169.638 8.22819 168.45 7.06219 168.45 5.40119ZM169.495 5.40119C169.495 6.52319 170.21 7.30419 171.255 7.30419C172.289 7.30419 173.015 6.52319 173.015 5.40119C173.015 4.27919 172.289 3.49819 171.255 3.49819C170.21 3.49819 169.495 4.27919 169.495 5.40119ZM176.227 8.09619H175.193V2.71719H176.128L176.238 3.54219C176.579 2.92619 177.261 2.56319 178.02 2.56319C179.439 2.56319 180.088 3.43219 180.088 4.80719V8.09619H179.054V5.03819C179.054 3.94919 178.548 3.50919 177.756 3.50919C176.788 3.50919 176.227 4.20219 176.227 5.24719V8.09619ZM183.676 8.22819C182.114 8.22819 181.168 7.06219 181.168 5.42319C181.168 3.77319 182.125 2.56319 183.72 2.56319C184.545 2.56319 185.238 2.92619 185.601 3.58619V0.000190735H186.624V8.09619H185.7L185.612 7.11719C185.26 7.85419 184.534 8.22819 183.676 8.22819ZM183.885 7.29319C184.941 7.29319 185.59 6.51219 185.59 5.39019C185.59 4.29019 184.941 3.49819 183.885 3.49819C182.829 3.49819 182.213 4.29019 182.213 5.39019C182.213 6.50119 182.829 7.29319 183.885 7.29319ZM188.622 1.44119C188.248 1.44119 187.94 1.13319 187.94 0.759191C187.94 0.374191 188.248 0.0771911 188.622 0.0771911C188.996 0.0771911 189.304 0.374191 189.304 0.759191C189.304 1.13319 188.996 1.44119 188.622 1.44119ZM188.116 8.09619V2.71719H189.15V8.09619H188.116ZM192.169 8.09619H191.135V3.58619H190.079V2.71719H191.135V1.03419H192.169V2.71719H193.225V3.58619H192.169V8.09619ZM194.659 1.44119C194.285 1.44119 193.977 1.13319 193.977 0.759191C193.977 0.374191 194.285 0.0771911 194.659 0.0771911C195.033 0.0771911 195.341 0.374191 195.341 0.759191C195.341 1.13319 195.033 1.44119 194.659 1.44119ZM194.153 8.09619V2.71719H195.187V8.09619H194.153ZM196.336 5.40119C196.336 3.74019 197.524 2.57419 199.141 2.57419C200.747 2.57419 201.935 3.74019 201.935 5.40119C201.935 7.06219 200.747 8.22819 199.141 8.22819C197.524 8.22819 196.336 7.06219 196.336 5.40119ZM197.381 5.40119C197.381 6.52319 198.096 7.30419 199.141 7.30419C200.175 7.30419 200.901 6.52319 200.901 5.40119C200.901 4.27919 200.175 3.49819 199.141 3.49819C198.096 3.49819 197.381 4.27919 197.381 5.40119ZM204.114 8.09619H203.08V2.71719H204.015L204.125 3.54219C204.466 2.92619 205.148 2.56319 205.907 2.56319C207.326 2.56319 207.975 3.43219 207.975 4.80719V8.09619H206.941V5.03819C206.941 3.94919 206.435 3.50919 205.643 3.50919C204.675 3.50919 204.114 4.20219 204.114 5.24719V8.09619ZM208.903 6.53419H209.893C209.893 7.08419 210.311 7.41419 210.993 7.41419C211.719 7.41419 212.137 7.11719 212.137 6.62219C212.137 6.25919 211.961 6.03919 211.4 5.89619L210.454 5.67619C209.497 5.44519 209.046 4.97219 209.046 4.18019C209.046 3.19019 209.882 2.56319 211.07 2.56319C212.247 2.56319 213.017 3.22319 213.039 4.24619H212.049C212.027 3.70719 211.664 3.36619 211.037 3.36619C210.388 3.36619 210.025 3.65219 210.025 4.14719C210.025 4.51019 210.289 4.75219 210.817 4.88419L211.763 5.11519C212.676 5.33519 213.127 5.75319 213.127 6.55619C213.127 7.57919 212.247 8.22819 210.971 8.22819C209.706 8.22819 208.903 7.55719 208.903 6.53419ZM62.224 23.2172C59.958 23.2172 58.451 21.5892 58.451 19.1252C58.451 16.6722 60.002 15.0112 62.279 15.0112C64.072 15.0112 65.447 16.0782 65.744 17.7062H64.589C64.292 16.6722 63.401 16.0452 62.246 16.0452C60.64 16.0452 59.584 17.2552 59.584 19.1142C59.584 20.9732 60.64 22.1832 62.246 22.1832C63.412 22.1832 64.336 21.5562 64.633 20.5772H65.777C65.436 22.1612 64.017 23.2172 62.224 23.2172ZM68.3884 23.2282C67.2334 23.2282 66.5514 22.5792 66.5514 21.6002C66.5514 20.6102 67.2884 19.9942 68.5534 19.8952L70.2474 19.7632V19.6092C70.2474 18.7072 69.7084 18.3882 68.9824 18.3882C68.1134 18.3882 67.6184 18.7732 67.6184 19.4222H66.7164C66.7164 18.3002 67.6404 17.5632 69.0264 17.5632C70.3574 17.5632 71.2594 18.2672 71.2594 19.7192V23.0962H70.3794L70.2694 22.2272C69.9944 22.8432 69.2574 23.2282 68.3884 23.2282ZM68.6854 22.4252C69.6644 22.4252 70.2584 21.7872 70.2584 20.7752V20.4892L68.8834 20.5992C67.9704 20.6872 67.5964 21.0392 67.5964 21.5672C67.5964 22.1392 68.0144 22.4252 68.6854 22.4252ZM76.4094 17.7172H77.4324V23.0962H76.5084L76.3984 22.2822C76.0904 22.8432 75.3754 23.2282 74.5834 23.2282C73.3294 23.2282 72.6254 22.3812 72.6254 21.0612V17.7172H73.6594V20.7202C73.6594 21.8752 74.1544 22.3152 74.9464 22.3152C75.8924 22.3152 76.4094 21.7102 76.4094 20.5552V17.7172ZM78.3851 21.5342H79.3751C79.3751 22.0842 79.7931 22.4142 80.4751 22.4142C81.2011 22.4142 81.6191 22.1172 81.6191 21.6222C81.6191 21.2592 81.4431 21.0392 80.8821 20.8962L79.9361 20.6762C78.9791 20.4452 78.5281 19.9722 78.5281 19.1802C78.5281 18.1902 79.3641 17.5632 80.5521 17.5632C81.7291 17.5632 82.4991 18.2232 82.5211 19.2462H81.5311C81.5091 18.7072 81.1461 18.3662 80.5191 18.3662C79.8701 18.3662 79.5071 18.6522 79.5071 19.1472C79.5071 19.5102 79.7711 19.7522 80.2991 19.8842L81.2451 20.1152C82.1581 20.3352 82.6091 20.7532 82.6091 21.5562C82.6091 22.5792 81.7291 23.2282 80.4531 23.2282C79.1881 23.2282 78.3851 22.5572 78.3851 21.5342ZM84.2618 16.4412C83.8878 16.4412 83.5798 16.1332 83.5798 15.7592C83.5798 15.3742 83.8878 15.0772 84.2618 15.0772C84.6358 15.0772 84.9438 15.3742 84.9438 15.7592C84.9438 16.1332 84.6358 16.4412 84.2618 16.4412ZM83.7558 23.0962V17.7172H84.7898V23.0962H83.7558ZM87.325 23.0962H86.291V17.7172H87.226L87.336 18.5422C87.677 17.9262 88.359 17.5632 89.118 17.5632C90.537 17.5632 91.186 18.4322 91.186 19.8072V23.0962H90.152V20.0382C90.152 18.9492 89.646 18.5092 88.854 18.5092C87.886 18.5092 87.325 19.2022 87.325 20.2472V23.0962ZM92.2771 20.2692C92.2771 18.7512 93.2561 17.5632 94.8181 17.5632C95.6871 17.5632 96.3581 17.9592 96.6991 18.6302L96.7761 17.7172H97.7001V22.8762C97.7001 24.5702 96.6551 25.6482 95.0051 25.6482C93.5421 25.6482 92.5411 24.8232 92.3431 23.4592H93.3771C93.5091 24.2512 94.1031 24.7132 95.0051 24.7132C96.0171 24.7132 96.6771 24.0532 96.6771 23.0302V21.9522C96.3251 22.5792 95.6211 22.9532 94.7741 22.9532C93.2451 22.9532 92.2771 21.7762 92.2771 20.2692ZM93.3111 20.2472C93.3111 21.2592 93.9381 22.0512 94.9501 22.0512C95.9951 22.0512 96.6331 21.3032 96.6331 20.2472C96.6331 19.2132 96.0171 18.4652 94.9611 18.4652C93.9271 18.4652 93.3111 19.2572 93.3111 20.2472ZM105.005 23.0962H102.376V15.1432H104.961C107.337 15.1432 108.943 16.7492 108.943 19.1252C108.943 21.4902 107.359 23.0962 105.005 23.0962ZM104.884 16.1332H103.454V22.0952H104.928C106.699 22.0952 107.821 20.9512 107.821 19.1252C107.821 17.2772 106.699 16.1332 104.884 16.1332ZM110.645 16.4412C110.271 16.4412 109.963 16.1332 109.963 15.7592C109.963 15.3742 110.271 15.0772 110.645 15.0772C111.019 15.0772 111.327 15.3742 111.327 15.7592C111.327 16.1332 111.019 16.4412 110.645 16.4412ZM110.139 23.0962V17.7172H111.173V23.0962H110.139ZM112.234 21.5342H113.224C113.224 22.0842 113.642 22.4142 114.324 22.4142C115.05 22.4142 115.468 22.1172 115.468 21.6222C115.468 21.2592 115.292 21.0392 114.731 20.8962L113.785 20.6762C112.828 20.4452 112.377 19.9722 112.377 19.1802C112.377 18.1902 113.213 17.5632 114.401 17.5632C115.578 17.5632 116.348 18.2232 116.37 19.2462H115.38C115.358 18.7072 114.995 18.3662 114.368 18.3662C113.719 18.3662 113.356 18.6522 113.356 19.1472C113.356 19.5102 113.62 19.7522 114.148 19.8842L115.094 20.1152C116.007 20.3352 116.458 20.7532 116.458 21.5562C116.458 22.5792 115.578 23.2282 114.302 23.2282C113.037 23.2282 112.234 22.5572 112.234 21.5342ZM119.177 23.2282C118.022 23.2282 117.34 22.5792 117.34 21.6002C117.34 20.6102 118.077 19.9942 119.342 19.8952L121.036 19.7632V19.6092C121.036 18.7072 120.497 18.3882 119.771 18.3882C118.902 18.3882 118.407 18.7732 118.407 19.4222H117.505C117.505 18.3002 118.429 17.5632 119.815 17.5632C121.146 17.5632 122.048 18.2672 122.048 19.7192V23.0962H121.168L121.058 22.2272C120.783 22.8432 120.046 23.2282 119.177 23.2282ZM119.474 22.4252C120.453 22.4252 121.047 21.7872 121.047 20.7752V20.4892L119.672 20.5992C118.759 20.6872 118.385 21.0392 118.385 21.5672C118.385 22.1392 118.803 22.4252 119.474 22.4252ZM124.415 23.0962H123.48V15.0002H124.514V18.6412C124.866 17.9372 125.592 17.5632 126.472 17.5632C128.012 17.5632 128.936 18.7732 128.936 20.4342C128.936 22.0622 127.968 23.2282 126.406 23.2282C125.559 23.2282 124.844 22.8542 124.492 22.1172L124.415 23.0962ZM124.525 20.3902C124.525 21.5122 125.163 22.2932 126.219 22.2932C127.275 22.2932 127.902 21.5012 127.902 20.3902C127.902 19.2902 127.275 18.4982 126.219 18.4982C125.163 18.4982 124.525 19.2902 124.525 20.3902ZM130.582 16.4412C130.208 16.4412 129.9 16.1332 129.9 15.7592C129.9 15.3742 130.208 15.0772 130.582 15.0772C130.956 15.0772 131.264 15.3742 131.264 15.7592C131.264 16.1332 130.956 16.4412 130.582 16.4412ZM130.076 23.0962V17.7172H131.11V23.0962H130.076ZM133.667 23.0962H132.633V15.0002H133.667V23.0962ZM135.695 16.4412C135.321 16.4412 135.013 16.1332 135.013 15.7592C135.013 15.3742 135.321 15.0772 135.695 15.0772C136.069 15.0772 136.377 15.3742 136.377 15.7592C136.377 16.1332 136.069 16.4412 135.695 16.4412ZM135.189 23.0962V17.7172H136.223V23.0962H135.189ZM139.243 23.0962H138.209V18.5862H137.153V17.7172H138.209V16.0342H139.243V17.7172H140.299V18.5862H139.243V23.0962ZM140.71 25.5052V24.6582H141.403C141.898 24.6582 142.294 24.5812 142.547 23.8992L142.734 23.3822L140.567 17.7172H141.656L143.218 22.0512L144.813 17.7172H145.88L143.339 24.3062C142.976 25.2302 142.437 25.6152 141.612 25.6152C141.271 25.6152 140.985 25.5712 140.71 25.5052Z" fill="white"/>
<path d="M127.154 55.1332V54.1432H133.017V55.1332H130.63V62.0962H129.552V55.1332H127.154ZM134.959 62.0852H133.925V54.0002H134.959V57.5422C135.3 56.9592 135.949 56.5632 136.785 56.5632C138.16 56.5632 138.82 57.4322 138.82 58.8072V62.0962H137.786V59.0382C137.786 57.9492 137.269 57.5092 136.499 57.5092C135.498 57.5092 134.959 58.2352 134.959 59.1592V62.0852ZM142.573 62.2282C140.989 62.2282 139.9 61.0842 139.9 59.4122C139.9 57.7292 140.967 56.5632 142.529 56.5632C144.058 56.5632 145.059 57.6192 145.059 59.2142V59.5992L140.901 59.6102C140.978 60.7432 141.572 61.3702 142.595 61.3702C143.398 61.3702 143.926 61.0402 144.102 60.4242H145.07C144.806 61.5792 143.904 62.2282 142.573 62.2282ZM142.529 57.4322C141.627 57.4322 141.055 57.9712 140.923 58.9172H144.025C144.025 58.0262 143.442 57.4322 142.529 57.4322ZM150.476 62.0962H149.398V54.1432H152.401C154.106 54.1432 155.118 55.0452 155.118 56.5302C155.118 57.6302 154.568 58.4222 153.578 58.7412L155.195 62.0962H153.996L152.511 58.9502H150.476V62.0962ZM150.476 55.1112V57.9932H152.412C153.413 57.9932 153.985 57.4542 153.985 56.5412C153.985 55.6172 153.391 55.1112 152.401 55.1112H150.476ZM157.777 62.2282C156.622 62.2282 155.94 61.5792 155.94 60.6002C155.94 59.6102 156.677 58.9942 157.942 58.8952L159.636 58.7632V58.6092C159.636 57.7072 159.097 57.3882 158.371 57.3882C157.502 57.3882 157.007 57.7732 157.007 58.4222H156.105C156.105 57.3002 157.029 56.5632 158.415 56.5632C159.746 56.5632 160.648 57.2672 160.648 58.7192V62.0962H159.768L159.658 61.2272C159.383 61.8432 158.646 62.2282 157.777 62.2282ZM158.074 61.4252C159.053 61.4252 159.647 60.7872 159.647 59.7752V59.4892L158.272 59.5992C157.359 59.6872 156.985 60.0392 156.985 60.5672C156.985 61.1392 157.403 61.4252 158.074 61.4252ZM163.114 62.0962H162.08V56.7172H163.015L163.125 57.5422C163.466 56.9262 164.148 56.5632 164.907 56.5632C166.326 56.5632 166.975 57.4322 166.975 58.8072V62.0962H165.941V59.0382C165.941 57.9492 165.435 57.5092 164.643 57.5092C163.675 57.5092 163.114 58.2022 163.114 59.2472V62.0962ZM169.463 62.0962H168.429V54.0002H169.463V59.2472L171.85 56.7172H173.148L171.091 58.8622L173.137 62.0962H171.949L170.376 59.6102L169.463 60.5672V62.0962ZM176.649 59.4012C176.649 57.7402 177.837 56.5742 179.454 56.5742C181.06 56.5742 182.248 57.7402 182.248 59.4012C182.248 61.0622 181.06 62.2282 179.454 62.2282C177.837 62.2282 176.649 61.0622 176.649 59.4012ZM177.694 59.4012C177.694 60.5232 178.409 61.3042 179.454 61.3042C180.488 61.3042 181.214 60.5232 181.214 59.4012C181.214 58.2792 180.488 57.4982 179.454 57.4982C178.409 57.4982 177.694 58.2792 177.694 59.4012ZM182.788 56.7172H183.58V55.8592C183.58 54.5392 184.306 54.0002 185.285 54.0002C185.483 54.0002 185.714 54.0112 185.923 54.0442V54.9352H185.461C184.79 54.9352 184.614 55.2762 184.614 55.8592V56.7172H185.89V57.5862H184.614V62.0962H183.58V57.5862H182.788V56.7172ZM191.113 62.0962H190.035V54.1432H191.113V57.5642H195.051V54.1432H196.129V62.0962H195.051V58.5652H191.113V62.0962ZM200.119 62.2282C198.535 62.2282 197.446 61.0842 197.446 59.4122C197.446 57.7292 198.513 56.5632 200.075 56.5632C201.604 56.5632 202.605 57.6192 202.605 59.2142V59.5992L198.447 59.6102C198.524 60.7432 199.118 61.3702 200.141 61.3702C200.944 61.3702 201.472 61.0402 201.648 60.4242H202.616C202.352 61.5792 201.45 62.2282 200.119 62.2282ZM200.075 57.4322C199.173 57.4322 198.601 57.9712 198.469 58.9172H201.571C201.571 58.0262 200.988 57.4322 200.075 57.4322ZM205.279 62.2282C204.124 62.2282 203.442 61.5792 203.442 60.6002C203.442 59.6102 204.179 58.9942 205.444 58.8952L207.138 58.7632V58.6092C207.138 57.7072 206.599 57.3882 205.873 57.3882C205.004 57.3882 204.509 57.7732 204.509 58.4222H203.607C203.607 57.3002 204.531 56.5632 205.917 56.5632C207.248 56.5632 208.15 57.2672 208.15 58.7192V62.0962H207.27L207.16 61.2272C206.885 61.8432 206.148 62.2282 205.279 62.2282ZM205.576 61.4252C206.555 61.4252 207.149 60.7872 207.149 59.7752V59.4892L205.774 59.5992C204.861 59.6872 204.487 60.0392 204.487 60.5672C204.487 61.1392 204.905 61.4252 205.576 61.4252ZM210.638 62.0962H209.604V54.0002H210.638V62.0962ZM213.678 62.0962H212.644V57.5862H211.588V56.7172H212.644V55.0342H213.678V56.7172H214.734V57.5862H213.678V62.0962ZM216.696 62.0852H215.662V54.0002H216.696V57.5422C217.037 56.9592 217.686 56.5632 218.522 56.5632C219.897 56.5632 220.557 57.4322 220.557 58.8072V62.0962H219.523V59.0382C219.523 57.9492 219.006 57.5092 218.236 57.5092C217.235 57.5092 216.696 58.2352 216.696 59.1592V62.0852ZM228.473 62.2172C226.207 62.2172 224.7 60.5892 224.7 58.1252C224.7 55.6722 226.251 54.0112 228.528 54.0112C230.321 54.0112 231.696 55.0782 231.993 56.7062H230.838C230.541 55.6722 229.65 55.0452 228.495 55.0452C226.889 55.0452 225.833 56.2552 225.833 58.1142C225.833 59.9732 226.889 61.1832 228.495 61.1832C229.661 61.1832 230.585 60.5562 230.882 59.5772H232.026C231.685 61.1612 230.266 62.2172 228.473 62.2172ZM232.82 59.4012C232.82 57.7402 234.008 56.5742 235.625 56.5742C237.231 56.5742 238.419 57.7402 238.419 59.4012C238.419 61.0622 237.231 62.2282 235.625 62.2282C234.008 62.2282 232.82 61.0622 232.82 59.4012ZM233.865 59.4012C233.865 60.5232 234.58 61.3042 235.625 61.3042C236.659 61.3042 237.385 60.5232 237.385 59.4012C237.385 58.2792 236.659 57.4982 235.625 57.4982C234.58 57.4982 233.865 58.2792 233.865 59.4012ZM240.597 62.0962H239.563V56.7172H240.498L240.608 57.5422C240.949 56.9262 241.631 56.5632 242.39 56.5632C243.809 56.5632 244.458 57.4322 244.458 58.8072V62.0962H243.424V59.0382C243.424 57.9492 242.918 57.5092 242.126 57.5092C241.158 57.5092 240.597 58.2022 240.597 59.2472V62.0962ZM248.047 62.2282C246.485 62.2282 245.539 61.0622 245.539 59.4232C245.539 57.7732 246.496 56.5632 248.091 56.5632C248.916 56.5632 249.609 56.9262 249.972 57.5862V54.0002H250.995V62.0962H250.071L249.983 61.1172C249.631 61.8542 248.905 62.2282 248.047 62.2282ZM248.256 61.2932C249.312 61.2932 249.961 60.5122 249.961 59.3902C249.961 58.2902 249.312 57.4982 248.256 57.4982C247.2 57.4982 246.584 58.2902 246.584 59.3902C246.584 60.5012 247.2 61.2932 248.256 61.2932ZM252.992 55.4412C252.618 55.4412 252.31 55.1332 252.31 54.7592C252.31 54.3742 252.618 54.0772 252.992 54.0772C253.366 54.0772 253.674 54.3742 253.674 54.7592C253.674 55.1332 253.366 55.4412 252.992 55.4412ZM252.486 62.0962V56.7172H253.52V62.0962H252.486ZM256.539 62.0962H255.505V57.5862H254.449V56.7172H255.505V55.0342H256.539V56.7172H257.595V57.5862H256.539V62.0962ZM259.029 55.4412C258.655 55.4412 258.347 55.1332 258.347 54.7592C258.347 54.3742 258.655 54.0772 259.029 54.0772C259.403 54.0772 259.711 54.3742 259.711 54.7592C259.711 55.1332 259.403 55.4412 259.029 55.4412ZM258.523 62.0962V56.7172H259.557V62.0962H258.523ZM260.707 59.4012C260.707 57.7402 261.895 56.5742 263.512 56.5742C265.118 56.5742 266.306 57.7402 266.306 59.4012C266.306 61.0622 265.118 62.2282 263.512 62.2282C261.895 62.2282 260.707 61.0622 260.707 59.4012ZM261.752 59.4012C261.752 60.5232 262.467 61.3042 263.512 61.3042C264.546 61.3042 265.272 60.5232 265.272 59.4012C265.272 58.2792 264.546 57.4982 263.512 57.4982C262.467 57.4982 261.752 58.2792 261.752 59.4012ZM268.484 62.0962H267.45V56.7172H268.385L268.495 57.5422C268.836 56.9262 269.518 56.5632 270.277 56.5632C271.696 56.5632 272.345 57.4322 272.345 58.8072V62.0962H271.311V59.0382C271.311 57.9492 270.805 57.5092 270.013 57.5092C269.045 57.5092 268.484 58.2022 268.484 59.2472V62.0962ZM273.273 60.5342H274.263C274.263 61.0842 274.681 61.4142 275.363 61.4142C276.089 61.4142 276.507 61.1172 276.507 60.6222C276.507 60.2592 276.331 60.0392 275.77 59.8962L274.824 59.6762C273.867 59.4452 273.416 58.9722 273.416 58.1802C273.416 57.1902 274.252 56.5632 275.44 56.5632C276.617 56.5632 277.387 57.2232 277.409 58.2462H276.419C276.397 57.7072 276.034 57.3662 275.407 57.3662C274.758 57.3662 274.395 57.6522 274.395 58.1472C274.395 58.5102 274.659 58.7522 275.187 58.8842L276.133 59.1152C277.046 59.3352 277.497 59.7532 277.497 60.5562C277.497 61.5792 276.617 62.2282 275.341 62.2282C274.076 62.2282 273.273 61.5572 273.273 60.5342ZM131.224 77.2172C128.958 77.2172 127.451 75.5892 127.451 73.1252C127.451 70.6722 129.002 69.0112 131.279 69.0112C133.072 69.0112 134.447 70.0782 134.744 71.7062H133.589C133.292 70.6722 132.401 70.0452 131.246 70.0452C129.64 70.0452 128.584 71.2552 128.584 73.1142C128.584 74.9732 129.64 76.1832 131.246 76.1832C132.412 76.1832 133.336 75.5562 133.633 74.5772H134.777C134.436 76.1612 133.017 77.2172 131.224 77.2172ZM137.388 77.2282C136.233 77.2282 135.551 76.5792 135.551 75.6002C135.551 74.6102 136.288 73.9942 137.553 73.8952L139.247 73.7632V73.6092C139.247 72.7072 138.708 72.3882 137.982 72.3882C137.113 72.3882 136.618 72.7732 136.618 73.4222H135.716C135.716 72.3002 136.64 71.5632 138.026 71.5632C139.357 71.5632 140.259 72.2672 140.259 73.7192V77.0962H139.379L139.269 76.2272C138.994 76.8432 138.257 77.2282 137.388 77.2282ZM137.685 76.4252C138.664 76.4252 139.258 75.7872 139.258 74.7752V74.4892L137.883 74.5992C136.97 74.6872 136.596 75.0392 136.596 75.5672C136.596 76.1392 137.014 76.4252 137.685 76.4252ZM145.409 71.7172H146.432V77.0962H145.508L145.398 76.2822C145.09 76.8432 144.375 77.2282 143.583 77.2282C142.329 77.2282 141.625 76.3812 141.625 75.0612V71.7172H142.659V74.7202C142.659 75.8752 143.154 76.3152 143.946 76.3152C144.892 76.3152 145.409 75.7102 145.409 74.5552V71.7172ZM147.385 75.5342H148.375C148.375 76.0842 148.793 76.4142 149.475 76.4142C150.201 76.4142 150.619 76.1172 150.619 75.6222C150.619 75.2592 150.443 75.0392 149.882 74.8962L148.936 74.6762C147.979 74.4452 147.528 73.9722 147.528 73.1802C147.528 72.1902 148.364 71.5632 149.552 71.5632C150.729 71.5632 151.499 72.2232 151.521 73.2462H150.531C150.509 72.7072 150.146 72.3662 149.519 72.3662C148.87 72.3662 148.507 72.6522 148.507 73.1472C148.507 73.5102 148.771 73.7522 149.299 73.8842L150.245 74.1152C151.158 74.3352 151.609 74.7532 151.609 75.5562C151.609 76.5792 150.729 77.2282 149.453 77.2282C148.188 77.2282 147.385 76.5572 147.385 75.5342ZM153.262 70.4412C152.888 70.4412 152.58 70.1332 152.58 69.7592C152.58 69.3742 152.888 69.0772 153.262 69.0772C153.636 69.0772 153.944 69.3742 153.944 69.7592C153.944 70.1332 153.636 70.4412 153.262 70.4412ZM152.756 77.0962V71.7172H153.79V77.0962H152.756ZM156.325 77.0962H155.291V71.7172H156.226L156.336 72.5422C156.677 71.9262 157.359 71.5632 158.118 71.5632C159.537 71.5632 160.186 72.4322 160.186 73.8072V77.0962H159.152V74.0382C159.152 72.9492 158.646 72.5092 157.854 72.5092C156.886 72.5092 156.325 73.2022 156.325 74.2472V77.0962ZM161.277 74.2692C161.277 72.7512 162.256 71.5632 163.818 71.5632C164.687 71.5632 165.358 71.9592 165.699 72.6302L165.776 71.7172H166.7V76.8762C166.7 78.5702 165.655 79.6482 164.005 79.6482C162.542 79.6482 161.541 78.8232 161.343 77.4592H162.377C162.509 78.2512 163.103 78.7132 164.005 78.7132C165.017 78.7132 165.677 78.0532 165.677 77.0302V75.9522C165.325 76.5792 164.621 76.9532 163.774 76.9532C162.245 76.9532 161.277 75.7762 161.277 74.2692ZM162.311 74.2472C162.311 75.2592 162.938 76.0512 163.95 76.0512C164.995 76.0512 165.633 75.3032 165.633 74.2472C165.633 73.2132 165.017 72.4652 163.961 72.4652C162.927 72.4652 162.311 73.2572 162.311 74.2472ZM174.005 77.0962H171.376V69.1432H173.961C176.337 69.1432 177.943 70.7492 177.943 73.1252C177.943 75.4902 176.359 77.0962 174.005 77.0962ZM173.884 70.1332H172.454V76.0952H173.928C175.699 76.0952 176.821 74.9512 176.821 73.1252C176.821 71.2772 175.699 70.1332 173.884 70.1332ZM179.645 70.4412C179.271 70.4412 178.963 70.1332 178.963 69.7592C178.963 69.3742 179.271 69.0772 179.645 69.0772C180.019 69.0772 180.327 69.3742 180.327 69.7592C180.327 70.1332 180.019 70.4412 179.645 70.4412ZM179.139 77.0962V71.7172H180.173V77.0962H179.139ZM181.234 75.5342H182.224C182.224 76.0842 182.642 76.4142 183.324 76.4142C184.05 76.4142 184.468 76.1172 184.468 75.6222C184.468 75.2592 184.292 75.0392 183.731 74.8962L182.785 74.6762C181.828 74.4452 181.377 73.9722 181.377 73.1802C181.377 72.1902 182.213 71.5632 183.401 71.5632C184.578 71.5632 185.348 72.2232 185.37 73.2462H184.38C184.358 72.7072 183.995 72.3662 183.368 72.3662C182.719 72.3662 182.356 72.6522 182.356 73.1472C182.356 73.5102 182.62 73.7522 183.148 73.8842L184.094 74.1152C185.007 74.3352 185.458 74.7532 185.458 75.5562C185.458 76.5792 184.578 77.2282 183.302 77.2282C182.037 77.2282 181.234 76.5572 181.234 75.5342ZM188.177 77.2282C187.022 77.2282 186.34 76.5792 186.34 75.6002C186.34 74.6102 187.077 73.9942 188.342 73.8952L190.036 73.7632V73.6092C190.036 72.7072 189.497 72.3882 188.771 72.3882C187.902 72.3882 187.407 72.7732 187.407 73.4222H186.505C186.505 72.3002 187.429 71.5632 188.815 71.5632C190.146 71.5632 191.048 72.2672 191.048 73.7192V77.0962H190.168L190.058 76.2272C189.783 76.8432 189.046 77.2282 188.177 77.2282ZM188.474 76.4252C189.453 76.4252 190.047 75.7872 190.047 74.7752V74.4892L188.672 74.5992C187.759 74.6872 187.385 75.0392 187.385 75.5672C187.385 76.1392 187.803 76.4252 188.474 76.4252ZM193.415 77.0962H192.48V69.0002H193.514V72.6412C193.866 71.9372 194.592 71.5632 195.472 71.5632C197.012 71.5632 197.936 72.7732 197.936 74.4342C197.936 76.0622 196.968 77.2282 195.406 77.2282C194.559 77.2282 193.844 76.8542 193.492 76.1172L193.415 77.0962ZM193.525 74.3902C193.525 75.5122 194.163 76.2932 195.219 76.2932C196.275 76.2932 196.902 75.5012 196.902 74.3902C196.902 73.2902 196.275 72.4982 195.219 72.4982C194.163 72.4982 193.525 73.2902 193.525 74.3902ZM199.582 70.4412C199.208 70.4412 198.9 70.1332 198.9 69.7592C198.9 69.3742 199.208 69.0772 199.582 69.0772C199.956 69.0772 200.264 69.3742 200.264 69.7592C200.264 70.1332 199.956 70.4412 199.582 70.4412ZM199.076 77.0962V71.7172H200.11V77.0962H199.076ZM202.667 77.0962H201.633V69.0002H202.667V77.0962ZM204.695 70.4412C204.321 70.4412 204.013 70.1332 204.013 69.7592C204.013 69.3742 204.321 69.0772 204.695 69.0772C205.069 69.0772 205.377 69.3742 205.377 69.7592C205.377 70.1332 205.069 70.4412 204.695 70.4412ZM204.189 77.0962V71.7172H205.223V77.0962H204.189ZM208.243 77.0962H207.209V72.5862H206.153V71.7172H207.209V70.0342H208.243V71.7172H209.299V72.5862H208.243V77.0962ZM209.71 79.5052V78.6582H210.403C210.898 78.6582 211.294 78.5812 211.547 77.8992L211.734 77.3822L209.567 71.7172H210.656L212.218 76.0512L213.813 71.7172H214.88L212.339 78.3062C211.976 79.2302 211.437 79.6152 210.612 79.6152C210.271 79.6152 209.985 79.5712 209.71 79.5052Z" fill="white"/>
<path d="M188.224 218.217C185.958 218.217 184.451 216.589 184.451 214.125C184.451 211.672 186.002 210.011 188.279 210.011C190.072 210.011 191.447 211.078 191.744 212.706H190.589C190.292 211.672 189.401 211.045 188.246 211.045C186.64 211.045 185.584 212.255 185.584 214.114C185.584 215.973 186.64 217.183 188.246 217.183C189.412 217.183 190.336 216.556 190.633 215.577H191.777C191.436 217.161 190.017 218.217 188.224 218.217ZM193.429 211.441C193.055 211.441 192.747 211.133 192.747 210.759C192.747 210.374 193.055 210.077 193.429 210.077C193.803 210.077 194.111 210.374 194.111 210.759C194.111 211.133 193.803 211.441 193.429 211.441ZM192.923 218.096V212.717H193.957V218.096H192.923ZM198.538 212.673V213.619H198.076C197.097 213.619 196.492 214.213 196.492 215.247V218.096H195.458V212.728H196.426L196.492 213.542C196.712 212.981 197.251 212.607 197.988 212.607C198.175 212.607 198.329 212.629 198.538 212.673ZM198.962 215.412C198.962 213.729 200.029 212.563 201.602 212.563C202.955 212.563 203.901 213.333 204.088 214.532H203.054C202.878 213.85 202.328 213.487 201.635 213.487C200.656 213.487 199.985 214.235 199.985 215.401C199.985 216.556 200.612 217.304 201.591 217.304C202.328 217.304 202.878 216.919 203.065 216.281H204.099C203.89 217.447 202.889 218.228 201.591 218.228C200.007 218.228 198.962 217.106 198.962 215.412ZM206.246 218.096H205.212V210H206.246V218.096ZM210.09 218.228C208.506 218.228 207.417 217.084 207.417 215.412C207.417 213.729 208.484 212.563 210.046 212.563C211.575 212.563 212.576 213.619 212.576 215.214V215.599L208.418 215.61C208.495 216.743 209.089 217.37 210.112 217.37C210.915 217.37 211.443 217.04 211.619 216.424H212.587C212.323 217.579 211.421 218.228 210.09 218.228ZM210.046 213.432C209.144 213.432 208.572 213.971 208.44 214.917H211.542C211.542 214.026 210.959 213.432 210.046 213.432ZM216.452 212.288C216.452 210.924 217.552 210 219.191 210C220.709 210 221.688 210.847 221.776 212.222H220.687C220.632 211.43 220.071 210.968 219.18 210.968C218.179 210.968 217.53 211.474 217.53 212.255C217.53 212.893 217.893 213.278 218.641 213.454L219.95 213.762C221.248 214.059 221.908 214.763 221.908 215.885C221.908 217.315 220.797 218.228 219.103 218.228C217.486 218.228 216.408 217.381 216.342 216.017H217.442C217.464 216.776 218.102 217.26 219.103 217.26C220.159 217.26 220.83 216.765 220.83 215.973C220.83 215.346 220.489 214.95 219.73 214.774L218.421 214.477C217.123 214.18 216.452 213.432 216.452 212.288ZM223.593 211.441C223.219 211.441 222.911 211.133 222.911 210.759C222.911 210.374 223.219 210.077 223.593 210.077C223.967 210.077 224.275 210.374 224.275 210.759C224.275 211.133 223.967 211.441 223.593 211.441ZM223.087 218.096V212.717H224.121V218.096H223.087ZM229.483 218.096H225.292V217.26L228.196 213.586H225.292V212.717H229.483V213.564L226.557 217.227H229.483V218.096ZM232.852 218.228C231.268 218.228 230.179 217.084 230.179 215.412C230.179 213.729 231.246 212.563 232.808 212.563C234.337 212.563 235.338 213.619 235.338 215.214V215.599L231.18 215.61C231.257 216.743 231.851 217.37 232.874 217.37C233.677 217.37 234.205 217.04 234.381 216.424H235.349C235.085 217.579 234.183 218.228 232.852 218.228ZM232.808 213.432C231.906 213.432 231.334 213.971 231.202 214.917H234.304C234.304 214.026 233.721 213.432 232.808 213.432ZM240.755 218.096H239.677V210.143H242.68C244.385 210.143 245.397 211.045 245.397 212.53C245.397 213.63 244.847 214.422 243.857 214.741L245.474 218.096H244.275L242.79 214.95H240.755V218.096ZM240.755 211.111V213.993H242.691C243.692 213.993 244.264 213.454 244.264 212.541C244.264 211.617 243.67 211.111 242.68 211.111H240.755ZM248.632 218.228C247.048 218.228 245.959 217.084 245.959 215.412C245.959 213.729 247.026 212.563 248.588 212.563C250.117 212.563 251.118 213.619 251.118 215.214V215.599L246.96 215.61C247.037 216.743 247.631 217.37 248.654 217.37C249.457 217.37 249.985 217.04 250.161 216.424H251.129C250.865 217.579 249.963 218.228 248.632 218.228ZM248.588 213.432C247.686 213.432 247.114 213.971 246.982 214.917H250.084C250.084 214.026 249.501 213.432 248.588 213.432ZM251.701 212.717H252.493V211.859C252.493 210.539 253.219 210 254.198 210C254.396 210 254.627 210.011 254.836 210.044V210.935H254.374C253.703 210.935 253.527 211.276 253.527 211.859V212.717H254.803V213.586H253.527V218.096H252.493V213.586H251.701V212.717ZM257.924 218.228C256.34 218.228 255.251 217.084 255.251 215.412C255.251 213.729 256.318 212.563 257.88 212.563C259.409 212.563 260.41 213.619 260.41 215.214V215.599L256.252 215.61C256.329 216.743 256.923 217.37 257.946 217.37C258.749 217.37 259.277 217.04 259.453 216.424H260.421C260.157 217.579 259.255 218.228 257.924 218.228ZM257.88 213.432C256.978 213.432 256.406 213.971 256.274 214.917H259.376C259.376 214.026 258.793 213.432 257.88 213.432ZM264.645 212.673V213.619H264.183C263.204 213.619 262.599 214.213 262.599 215.247V218.096H261.565V212.728H262.533L262.599 213.542C262.819 212.981 263.358 212.607 264.095 212.607C264.282 212.607 264.436 212.629 264.645 212.673ZM267.743 218.228C266.159 218.228 265.07 217.084 265.07 215.412C265.07 213.729 266.137 212.563 267.699 212.563C269.228 212.563 270.229 213.619 270.229 215.214V215.599L266.071 215.61C266.148 216.743 266.742 217.37 267.765 217.37C268.568 217.37 269.096 217.04 269.272 216.424H270.24C269.976 217.579 269.074 218.228 267.743 218.228ZM267.699 213.432C266.797 213.432 266.225 213.971 266.093 214.917H269.195C269.195 214.026 268.612 213.432 267.699 213.432ZM272.418 218.096H271.384V212.717H272.319L272.429 213.542C272.77 212.926 273.452 212.563 274.211 212.563C275.63 212.563 276.279 213.432 276.279 214.807V218.096H275.245V215.038C275.245 213.949 274.739 213.509 273.947 213.509C272.979 213.509 272.418 214.202 272.418 215.247V218.096ZM277.359 215.412C277.359 213.729 278.426 212.563 279.999 212.563C281.352 212.563 282.298 213.333 282.485 214.532H281.451C281.275 213.85 280.725 213.487 280.032 213.487C279.053 213.487 278.382 214.235 278.382 215.401C278.382 216.556 279.009 217.304 279.988 217.304C280.725 217.304 281.275 216.919 281.462 216.281H282.496C282.287 217.447 281.286 218.228 279.988 218.228C278.404 218.228 277.359 217.106 277.359 215.412ZM285.908 218.228C284.324 218.228 283.235 217.084 283.235 215.412C283.235 213.729 284.302 212.563 285.864 212.563C287.393 212.563 288.394 213.619 288.394 215.214V215.599L284.236 215.61C284.313 216.743 284.907 217.37 285.93 217.37C286.733 217.37 287.261 217.04 287.437 216.424H288.405C288.141 217.579 287.239 218.228 285.908 218.228ZM285.864 213.432C284.962 213.432 284.39 213.971 284.258 214.917H287.36C287.36 214.026 286.777 213.432 285.864 213.432ZM290.429 214.103C290 214.103 289.637 213.751 289.637 213.344C289.637 212.915 290 212.563 290.429 212.563C290.847 212.563 291.21 212.915 291.21 213.344C291.21 213.751 290.847 214.103 290.429 214.103ZM290.429 218.228C290 218.228 289.637 217.876 289.637 217.458C289.637 217.029 290 216.677 290.429 216.677C290.847 216.677 291.21 217.029 291.21 217.458C291.21 217.876 290.847 218.228 290.429 218.228ZM297.879 213.982H297.087V213.267L299.342 211.1H295.767V210.143H300.706V211.012L298.528 213.091C299.881 213.256 300.904 214.169 300.904 215.599C300.904 217.205 299.694 218.228 298.077 218.228C296.515 218.228 295.393 217.271 295.393 215.621H296.46C296.46 216.655 297.098 217.26 298.099 217.26C299.133 217.26 299.804 216.6 299.804 215.577C299.804 214.62 299.144 213.982 297.879 213.982ZM305.792 212.024C305.792 213.201 304.956 214.048 303.779 214.048C302.613 214.048 301.777 213.201 301.777 212.024C301.777 210.836 302.613 209.989 303.779 209.989C304.956 209.989 305.792 210.836 305.792 212.024ZM309.983 210.154L303.944 218.096H302.888L308.927 210.154H309.983ZM304.945 212.024C304.945 211.309 304.472 210.814 303.779 210.814C303.097 210.814 302.624 211.309 302.624 212.024C302.624 212.728 303.097 213.223 303.779 213.223C304.461 213.223 304.945 212.728 304.945 212.024ZM311.116 216.215C311.116 217.392 310.269 218.239 309.103 218.239C307.937 218.239 307.09 217.392 307.09 216.215C307.09 215.027 307.937 214.191 309.103 214.191C310.269 214.191 311.116 215.027 311.116 216.215ZM310.258 216.215C310.258 215.5 309.796 215.005 309.103 215.005C308.421 215.005 307.948 215.5 307.948 216.215C307.948 216.919 308.421 217.414 309.103 217.414C309.785 217.414 310.258 216.919 310.258 216.215Z" fill="white"/>
<path d="M171.002 115.143V122.095H174.5V123.096H169.924V115.143H171.002ZM177.068 123.228C175.913 123.228 175.231 122.579 175.231 121.6C175.231 120.61 175.968 119.994 177.233 119.895L178.927 119.763V119.609C178.927 118.707 178.388 118.388 177.662 118.388C176.793 118.388 176.298 118.773 176.298 119.422H175.396C175.396 118.3 176.32 117.563 177.706 117.563C179.037 117.563 179.939 118.267 179.939 119.719V123.096H179.059L178.949 122.227C178.674 122.843 177.937 123.228 177.068 123.228ZM177.365 122.425C178.344 122.425 178.938 121.787 178.938 120.775V120.489L177.563 120.599C176.65 120.687 176.276 121.039 176.276 121.567C176.276 122.139 176.694 122.425 177.365 122.425ZM184.451 117.673V118.619H183.989C183.01 118.619 182.405 119.213 182.405 120.247V123.096H181.371V117.728H182.339L182.405 118.542C182.625 117.981 183.164 117.607 183.901 117.607C184.088 117.607 184.242 117.629 184.451 117.673ZM184.962 120.269C184.962 118.751 185.941 117.563 187.503 117.563C188.372 117.563 189.043 117.959 189.384 118.63L189.461 117.717H190.385V122.876C190.385 124.57 189.34 125.648 187.69 125.648C186.227 125.648 185.226 124.823 185.028 123.459H186.062C186.194 124.251 186.788 124.713 187.69 124.713C188.702 124.713 189.362 124.053 189.362 123.03V121.952C189.01 122.579 188.306 122.953 187.459 122.953C185.93 122.953 184.962 121.776 184.962 120.269ZM185.996 120.247C185.996 121.259 186.623 122.051 187.635 122.051C188.68 122.051 189.318 121.303 189.318 120.247C189.318 119.213 188.702 118.465 187.646 118.465C186.612 118.465 185.996 119.257 185.996 120.247ZM194.198 123.228C192.614 123.228 191.525 122.084 191.525 120.412C191.525 118.729 192.592 117.563 194.154 117.563C195.683 117.563 196.684 118.619 196.684 120.214V120.599L192.526 120.61C192.603 121.743 193.197 122.37 194.22 122.37C195.023 122.37 195.551 122.04 195.727 121.424H196.695C196.431 122.579 195.529 123.228 194.198 123.228ZM194.154 118.432C193.252 118.432 192.68 118.971 192.548 119.917H195.65C195.65 119.026 195.067 118.432 194.154 118.432ZM200.919 117.673V118.619H200.457C199.478 118.619 198.873 119.213 198.873 120.247V123.096H197.839V117.728H198.807L198.873 118.542C199.093 117.981 199.632 117.607 200.369 117.607C200.556 117.607 200.71 117.629 200.919 117.673ZM208.372 123.217C206.106 123.217 204.599 121.589 204.599 119.125C204.599 116.672 206.15 115.011 208.427 115.011C210.22 115.011 211.595 116.078 211.892 117.706H210.737C210.44 116.672 209.549 116.045 208.394 116.045C206.788 116.045 205.732 117.255 205.732 119.114C205.732 120.973 206.788 122.183 208.394 122.183C209.56 122.183 210.484 121.556 210.781 120.577H211.925C211.584 122.161 210.165 123.217 208.372 123.217ZM213.577 116.441C213.203 116.441 212.895 116.133 212.895 115.759C212.895 115.374 213.203 115.077 213.577 115.077C213.951 115.077 214.259 115.374 214.259 115.759C214.259 116.133 213.951 116.441 213.577 116.441ZM213.071 123.096V117.717H214.105V123.096H213.071ZM218.686 117.673V118.619H218.224C217.245 118.619 216.64 119.213 216.64 120.247V123.096H215.606V117.728H216.574L216.64 118.542C216.86 117.981 217.399 117.607 218.136 117.607C218.323 117.607 218.477 117.629 218.686 117.673ZM219.111 120.412C219.111 118.729 220.178 117.563 221.751 117.563C223.104 117.563 224.05 118.333 224.237 119.532H223.203C223.027 118.85 222.477 118.487 221.784 118.487C220.805 118.487 220.134 119.235 220.134 120.401C220.134 121.556 220.761 122.304 221.74 122.304C222.477 122.304 223.027 121.919 223.214 121.281H224.248C224.039 122.447 223.038 123.228 221.74 123.228C220.156 123.228 219.111 122.106 219.111 120.412ZM226.395 123.096H225.361V115H226.395V123.096ZM230.238 123.228C228.654 123.228 227.565 122.084 227.565 120.412C227.565 118.729 228.632 117.563 230.194 117.563C231.723 117.563 232.724 118.619 232.724 120.214V120.599L228.566 120.61C228.643 121.743 229.237 122.37 230.26 122.37C231.063 122.37 231.591 122.04 231.767 121.424H232.735C232.471 122.579 231.569 123.228 230.238 123.228ZM230.194 118.432C229.292 118.432 228.72 118.971 228.588 119.917H231.69C231.69 119.026 231.107 118.432 230.194 118.432ZM233.439 121.534H234.429C234.429 122.084 234.847 122.414 235.529 122.414C236.255 122.414 236.673 122.117 236.673 121.622C236.673 121.259 236.497 121.039 235.936 120.896L234.99 120.676C234.033 120.445 233.582 119.972 233.582 119.18C233.582 118.19 234.418 117.563 235.606 117.563C236.783 117.563 237.553 118.223 237.575 119.246H236.585C236.563 118.707 236.2 118.366 235.573 118.366C234.924 118.366 234.561 118.652 234.561 119.147C234.561 119.51 234.825 119.752 235.353 119.884L236.299 120.115C237.212 120.335 237.663 120.753 237.663 121.556C237.663 122.579 236.783 123.228 235.507 123.228C234.242 123.228 233.439 122.557 233.439 121.534ZM245.084 120.258H243.071V123.096H241.993V115.143H245.084C246.646 115.143 247.647 116.166 247.647 117.695C247.647 119.18 246.635 120.258 245.084 120.258ZM244.897 116.111H243.071V119.29H244.853C245.92 119.29 246.514 118.663 246.514 117.684C246.514 116.683 245.909 116.111 244.897 116.111ZM251.772 117.673V118.619H251.31C250.331 118.619 249.726 119.213 249.726 120.247V123.096H248.692V117.728H249.66L249.726 118.542C249.946 117.981 250.485 117.607 251.222 117.607C251.409 117.607 251.563 117.629 251.772 117.673ZM254.87 123.228C253.286 123.228 252.197 122.084 252.197 120.412C252.197 118.729 253.264 117.563 254.826 117.563C256.355 117.563 257.356 118.619 257.356 120.214V120.599L253.198 120.61C253.275 121.743 253.869 122.37 254.892 122.37C255.695 122.37 256.223 122.04 256.399 121.424H257.367C257.103 122.579 256.201 123.228 254.87 123.228ZM254.826 118.432C253.924 118.432 253.352 118.971 253.22 119.917H256.322C256.322 119.026 255.739 118.432 254.826 118.432ZM258.071 121.534H259.061C259.061 122.084 259.479 122.414 260.161 122.414C260.887 122.414 261.305 122.117 261.305 121.622C261.305 121.259 261.129 121.039 260.568 120.896L259.622 120.676C258.665 120.445 258.214 119.972 258.214 119.18C258.214 118.19 259.05 117.563 260.238 117.563C261.415 117.563 262.185 118.223 262.207 119.246H261.217C261.195 118.707 260.832 118.366 260.205 118.366C259.556 118.366 259.193 118.652 259.193 119.147C259.193 119.51 259.457 119.752 259.985 119.884L260.931 120.115C261.844 120.335 262.295 120.753 262.295 121.556C262.295 122.579 261.415 123.228 260.139 123.228C258.874 123.228 258.071 122.557 258.071 121.534ZM265.762 123.228C264.178 123.228 263.089 122.084 263.089 120.412C263.089 118.729 264.156 117.563 265.718 117.563C267.247 117.563 268.248 118.619 268.248 120.214V120.599L264.09 120.61C264.167 121.743 264.761 122.37 265.784 122.37C266.587 122.37 267.115 122.04 267.291 121.424H268.259C267.995 122.579 267.093 123.228 265.762 123.228ZM265.718 118.432C264.816 118.432 264.244 118.971 264.112 119.917H267.214C267.214 119.026 266.631 118.432 265.718 118.432ZM270.437 123.096H269.403V117.717H270.338L270.448 118.542C270.789 117.926 271.471 117.563 272.23 117.563C273.649 117.563 274.298 118.432 274.298 119.807V123.096H273.264V120.038C273.264 118.949 272.758 118.509 271.966 118.509C270.998 118.509 270.437 119.202 270.437 120.247V123.096ZM277.248 123.096H276.214V118.586H275.158V117.717H276.214V116.034H277.248V117.717H278.304V118.586H277.248V123.096ZM283.274 123.085H282.24V115H283.274V118.542C283.615 117.959 284.264 117.563 285.1 117.563C286.475 117.563 287.135 118.432 287.135 119.807V123.096H286.101V120.038C286.101 118.949 285.584 118.509 284.814 118.509C283.813 118.509 283.274 119.235 283.274 120.159V123.085ZM289.073 116.441C288.699 116.441 288.391 116.133 288.391 115.759C288.391 115.374 288.699 115.077 289.073 115.077C289.447 115.077 289.755 115.374 289.755 115.759C289.755 116.133 289.447 116.441 289.073 116.441ZM288.567 123.096V117.717H289.601V123.096H288.567ZM290.761 120.269C290.761 118.751 291.74 117.563 293.302 117.563C294.171 117.563 294.842 117.959 295.183 118.63L295.26 117.717H296.184V122.876C296.184 124.57 295.139 125.648 293.489 125.648C292.026 125.648 291.025 124.823 290.827 123.459H291.861C291.993 124.251 292.587 124.713 293.489 124.713C294.501 124.713 295.161 124.053 295.161 123.03V121.952C294.809 122.579 294.105 122.953 293.258 122.953C291.729 122.953 290.761 121.776 290.761 120.269ZM291.795 120.247C291.795 121.259 292.422 122.051 293.434 122.051C294.479 122.051 295.117 121.303 295.117 120.247C295.117 119.213 294.501 118.465 293.445 118.465C292.411 118.465 291.795 119.257 291.795 120.247ZM298.711 123.085H297.677V115H298.711V118.542C299.052 117.959 299.701 117.563 300.537 117.563C301.912 117.563 302.572 118.432 302.572 119.807V123.096H301.538V120.038C301.538 118.949 301.021 118.509 300.251 118.509C299.25 118.509 298.711 119.235 298.711 120.159V123.085ZM306.325 123.228C304.741 123.228 303.652 122.084 303.652 120.412C303.652 118.729 304.719 117.563 306.281 117.563C307.81 117.563 308.811 118.619 308.811 120.214V120.599L304.653 120.61C304.73 121.743 305.324 122.37 306.347 122.37C307.15 122.37 307.678 122.04 307.854 121.424H308.822C308.558 122.579 307.656 123.228 306.325 123.228ZM306.281 118.432C305.379 118.432 304.807 118.971 304.675 119.917H307.777C307.777 119.026 307.194 118.432 306.281 118.432ZM313.046 117.673V118.619H312.584C311.605 118.619 311 119.213 311 120.247V123.096H309.966V117.728H310.934L311 118.542C311.22 117.981 311.759 117.607 312.496 117.607C312.683 117.607 312.837 117.629 313.046 117.673ZM173.015 135.258H171.002V138.096H169.924V130.143H173.015C174.577 130.143 175.578 131.166 175.578 132.695C175.578 134.18 174.566 135.258 173.015 135.258ZM172.828 131.111H171.002V134.29H172.784C173.851 134.29 174.445 133.663 174.445 132.684C174.445 131.683 173.84 131.111 172.828 131.111ZM179.703 132.673V133.619H179.241C178.262 133.619 177.657 134.213 177.657 135.247V138.096H176.623V132.728H177.591L177.657 133.542C177.877 132.981 178.416 132.607 179.153 132.607C179.34 132.607 179.494 132.629 179.703 132.673ZM182.8 138.228C181.216 138.228 180.127 137.084 180.127 135.412C180.127 133.729 181.194 132.563 182.756 132.563C184.285 132.563 185.286 133.619 185.286 135.214V135.599L181.128 135.61C181.205 136.743 181.799 137.37 182.822 137.37C183.625 137.37 184.153 137.04 184.329 136.424H185.297C185.033 137.579 184.131 138.228 182.8 138.228ZM182.756 133.432C181.854 133.432 181.282 133.971 181.15 134.917H184.252C184.252 134.026 183.669 133.432 182.756 133.432ZM187.766 138.096L185.599 132.717H186.699L187.876 135.72C188.063 136.226 188.217 136.677 188.305 137.007C188.393 136.655 188.569 136.193 188.756 135.72L189.955 132.717H191.033L188.789 138.096H187.766ZM193.181 138.228C192.026 138.228 191.344 137.579 191.344 136.6C191.344 135.61 192.081 134.994 193.346 134.895L195.04 134.763V134.609C195.04 133.707 194.501 133.388 193.775 133.388C192.906 133.388 192.411 133.773 192.411 134.422H191.509C191.509 133.3 192.433 132.563 193.819 132.563C195.15 132.563 196.052 133.267 196.052 134.719V138.096H195.172L195.062 137.227C194.787 137.843 194.05 138.228 193.181 138.228ZM193.478 137.425C194.457 137.425 195.051 136.787 195.051 135.775V135.489L193.676 135.599C192.763 135.687 192.389 136.039 192.389 136.567C192.389 137.139 192.807 137.425 193.478 137.425ZM198.54 138.096H197.506V130H198.54V138.096ZM202.383 138.228C200.799 138.228 199.71 137.084 199.71 135.412C199.71 133.729 200.777 132.563 202.339 132.563C203.868 132.563 204.869 133.619 204.869 135.214V135.599L200.711 135.61C200.788 136.743 201.382 137.37 202.405 137.37C203.208 137.37 203.736 137.04 203.912 136.424H204.88C204.616 137.579 203.714 138.228 202.383 138.228ZM202.339 133.432C201.437 133.432 200.865 133.971 200.733 134.917H203.835C203.835 134.026 203.252 133.432 202.339 133.432ZM207.058 138.096H206.024V132.717H206.959L207.069 133.542C207.41 132.926 208.092 132.563 208.851 132.563C210.27 132.563 210.919 133.432 210.919 134.807V138.096H209.885V135.038C209.885 133.949 209.379 133.509 208.587 133.509C207.619 133.509 207.058 134.202 207.058 135.247V138.096ZM212 135.412C212 133.729 213.067 132.563 214.64 132.563C215.993 132.563 216.939 133.333 217.126 134.532H216.092C215.916 133.85 215.366 133.487 214.673 133.487C213.694 133.487 213.023 134.235 213.023 135.401C213.023 136.556 213.65 137.304 214.629 137.304C215.366 137.304 215.916 136.919 216.103 136.281H217.137C216.928 137.447 215.927 138.228 214.629 138.228C213.045 138.228 212 137.106 212 135.412ZM220.548 138.228C218.964 138.228 217.875 137.084 217.875 135.412C217.875 133.729 218.942 132.563 220.504 132.563C222.033 132.563 223.034 133.619 223.034 135.214V135.599L218.876 135.61C218.953 136.743 219.547 137.37 220.57 137.37C221.373 137.37 221.901 137.04 222.077 136.424H223.045C222.781 137.579 221.879 138.228 220.548 138.228ZM220.504 133.432C219.602 133.432 219.03 133.971 218.898 134.917H222C222 134.026 221.417 133.432 220.504 133.432ZM226.845 135.401C226.845 133.74 228.033 132.574 229.65 132.574C231.256 132.574 232.444 133.74 232.444 135.401C232.444 137.062 231.256 138.228 229.65 138.228C228.033 138.228 226.845 137.062 226.845 135.401ZM227.89 135.401C227.89 136.523 228.605 137.304 229.65 137.304C230.684 137.304 231.41 136.523 231.41 135.401C231.41 134.279 230.684 133.498 229.65 133.498C228.605 133.498 227.89 134.279 227.89 135.401ZM232.985 132.717H233.777V131.859C233.777 130.539 234.503 130 235.482 130C235.68 130 235.911 130.011 236.12 130.044V130.935H235.658C234.987 130.935 234.811 131.276 234.811 131.859V132.717H236.087V133.586H234.811V138.096H233.777V133.586H232.985V132.717ZM241.31 138.096H240.232V130.143H241.31V133.564H245.248V130.143H246.326V138.096H245.248V134.565H241.31V138.096ZM250.315 138.228C248.731 138.228 247.642 137.084 247.642 135.412C247.642 133.729 248.709 132.563 250.271 132.563C251.8 132.563 252.801 133.619 252.801 135.214V135.599L248.643 135.61C248.72 136.743 249.314 137.37 250.337 137.37C251.14 137.37 251.668 137.04 251.844 136.424H252.812C252.548 137.579 251.646 138.228 250.315 138.228ZM250.271 133.432C249.369 133.432 248.797 133.971 248.665 134.917H251.767C251.767 134.026 251.184 133.432 250.271 133.432ZM255.475 138.228C254.32 138.228 253.638 137.579 253.638 136.6C253.638 135.61 254.375 134.994 255.64 134.895L257.334 134.763V134.609C257.334 133.707 256.795 133.388 256.069 133.388C255.2 133.388 254.705 133.773 254.705 134.422H253.803C253.803 133.3 254.727 132.563 256.113 132.563C257.444 132.563 258.346 133.267 258.346 134.719V138.096H257.466L257.356 137.227C257.081 137.843 256.344 138.228 255.475 138.228ZM255.772 137.425C256.751 137.425 257.345 136.787 257.345 135.775V135.489L255.97 135.599C255.057 135.687 254.683 136.039 254.683 136.567C254.683 137.139 255.101 137.425 255.772 137.425ZM260.834 138.096H259.8V130H260.834V138.096ZM263.874 138.096H262.84V133.586H261.784V132.717H262.84V131.034H263.874V132.717H264.93V133.586H263.874V138.096ZM266.892 138.085H265.858V130H266.892V133.542C267.233 132.959 267.882 132.563 268.718 132.563C270.093 132.563 270.753 133.432 270.753 134.807V138.096H269.719V135.038C269.719 133.949 269.202 133.509 268.432 133.509C267.431 133.509 266.892 134.235 266.892 135.159V138.085ZM278.669 138.217C276.403 138.217 274.896 136.589 274.896 134.125C274.896 131.672 276.447 130.011 278.724 130.011C280.517 130.011 281.892 131.078 282.189 132.706H281.034C280.737 131.672 279.846 131.045 278.691 131.045C277.085 131.045 276.029 132.255 276.029 134.114C276.029 135.973 277.085 137.183 278.691 137.183C279.857 137.183 280.781 136.556 281.078 135.577H282.222C281.881 137.161 280.462 138.217 278.669 138.217ZM283.016 135.401C283.016 133.74 284.204 132.574 285.821 132.574C287.427 132.574 288.615 133.74 288.615 135.401C288.615 137.062 287.427 138.228 285.821 138.228C284.204 138.228 283.016 137.062 283.016 135.401ZM284.061 135.401C284.061 136.523 284.776 137.304 285.821 137.304C286.855 137.304 287.581 136.523 287.581 135.401C287.581 134.279 286.855 133.498 285.821 133.498C284.776 133.498 284.061 134.279 284.061 135.401ZM290.794 138.096H289.76V132.717H290.695L290.805 133.542C291.146 132.926 291.828 132.563 292.587 132.563C294.006 132.563 294.655 133.432 294.655 134.807V138.096H293.621V135.038C293.621 133.949 293.115 133.509 292.323 133.509C291.355 133.509 290.794 134.202 290.794 135.247V138.096ZM298.243 138.228C296.681 138.228 295.735 137.062 295.735 135.423C295.735 133.773 296.692 132.563 298.287 132.563C299.112 132.563 299.805 132.926 300.168 133.586V130H301.191V138.096H300.267L300.179 137.117C299.827 137.854 299.101 138.228 298.243 138.228ZM298.452 137.293C299.508 137.293 300.157 136.512 300.157 135.39C300.157 134.29 299.508 133.498 298.452 133.498C297.396 133.498 296.78 134.29 296.78 135.39C296.78 136.501 297.396 137.293 298.452 137.293ZM303.189 131.441C302.815 131.441 302.507 131.133 302.507 130.759C302.507 130.374 302.815 130.077 303.189 130.077C303.563 130.077 303.871 130.374 303.871 130.759C303.871 131.133 303.563 131.441 303.189 131.441ZM302.683 138.096V132.717H303.717V138.096H302.683ZM306.736 138.096H305.702V133.586H304.646V132.717H305.702V131.034H306.736V132.717H307.792V133.586H306.736V138.096ZM309.226 131.441C308.852 131.441 308.544 131.133 308.544 130.759C308.544 130.374 308.852 130.077 309.226 130.077C309.6 130.077 309.908 130.374 309.908 130.759C309.908 131.133 309.6 131.441 309.226 131.441ZM308.72 138.096V132.717H309.754V138.096H308.72ZM310.903 135.401C310.903 133.74 312.091 132.574 313.708 132.574C315.314 132.574 316.502 133.74 316.502 135.401C316.502 137.062 315.314 138.228 313.708 138.228C312.091 138.228 310.903 137.062 310.903 135.401ZM311.948 135.401C311.948 136.523 312.663 137.304 313.708 137.304C314.742 137.304 315.468 136.523 315.468 135.401C315.468 134.279 314.742 133.498 313.708 133.498C312.663 133.498 311.948 134.279 311.948 135.401ZM318.68 138.096H317.646V132.717H318.581L318.691 133.542C319.032 132.926 319.714 132.563 320.473 132.563C321.892 132.563 322.541 133.432 322.541 134.807V138.096H321.507V135.038C321.507 133.949 321.001 133.509 320.209 133.509C319.241 133.509 318.68 134.202 318.68 135.247V138.096ZM323.469 136.534H324.459C324.459 137.084 324.877 137.414 325.559 137.414C326.285 137.414 326.703 137.117 326.703 136.622C326.703 136.259 326.527 136.039 325.966 135.896L325.02 135.676C324.063 135.445 323.612 134.972 323.612 134.18C323.612 133.19 324.448 132.563 325.636 132.563C326.813 132.563 327.583 133.223 327.605 134.246H326.615C326.593 133.707 326.23 133.366 325.603 133.366C324.954 133.366 324.591 133.652 324.591 134.147C324.591 134.51 324.855 134.752 325.383 134.884L326.329 135.115C327.242 135.335 327.693 135.753 327.693 136.556C327.693 137.579 326.813 138.228 325.537 138.228C324.272 138.228 323.469 137.557 323.469 136.534ZM173.224 153.217C170.958 153.217 169.451 151.589 169.451 149.125C169.451 146.672 171.002 145.011 173.279 145.011C175.072 145.011 176.447 146.078 176.744 147.706H175.589C175.292 146.672 174.401 146.045 173.246 146.045C171.64 146.045 170.584 147.255 170.584 149.114C170.584 150.973 171.64 152.183 173.246 152.183C174.412 152.183 175.336 151.556 175.633 150.577H176.777C176.436 152.161 175.017 153.217 173.224 153.217ZM179.388 153.228C178.233 153.228 177.551 152.579 177.551 151.6C177.551 150.61 178.288 149.994 179.553 149.895L181.247 149.763V149.609C181.247 148.707 180.708 148.388 179.982 148.388C179.113 148.388 178.618 148.773 178.618 149.422H177.716C177.716 148.3 178.64 147.563 180.026 147.563C181.357 147.563 182.259 148.267 182.259 149.719V153.096H181.379L181.269 152.227C180.994 152.843 180.257 153.228 179.388 153.228ZM179.685 152.425C180.664 152.425 181.258 151.787 181.258 150.775V150.489L179.883 150.599C178.97 150.687 178.596 151.039 178.596 151.567C178.596 152.139 179.014 152.425 179.685 152.425ZM187.409 147.717H188.432V153.096H187.508L187.398 152.282C187.09 152.843 186.375 153.228 185.583 153.228C184.329 153.228 183.625 152.381 183.625 151.061V147.717H184.659V150.72C184.659 151.875 185.154 152.315 185.946 152.315C186.892 152.315 187.409 151.71 187.409 150.555V147.717ZM189.385 151.534H190.375C190.375 152.084 190.793 152.414 191.475 152.414C192.201 152.414 192.619 152.117 192.619 151.622C192.619 151.259 192.443 151.039 191.882 150.896L190.936 150.676C189.979 150.445 189.528 149.972 189.528 149.18C189.528 148.19 190.364 147.563 191.552 147.563C192.729 147.563 193.499 148.223 193.521 149.246H192.531C192.509 148.707 192.146 148.366 191.519 148.366C190.87 148.366 190.507 148.652 190.507 149.147C190.507 149.51 190.771 149.752 191.299 149.884L192.245 150.115C193.158 150.335 193.609 150.753 193.609 151.556C193.609 152.579 192.729 153.228 191.453 153.228C190.188 153.228 189.385 152.557 189.385 151.534ZM195.262 146.441C194.888 146.441 194.58 146.133 194.58 145.759C194.58 145.374 194.888 145.077 195.262 145.077C195.636 145.077 195.944 145.374 195.944 145.759C195.944 146.133 195.636 146.441 195.262 146.441ZM194.756 153.096V147.717H195.79V153.096H194.756ZM198.325 153.096H197.291V147.717H198.226L198.336 148.542C198.677 147.926 199.359 147.563 200.118 147.563C201.537 147.563 202.186 148.432 202.186 149.807V153.096H201.152V150.038C201.152 148.949 200.646 148.509 199.854 148.509C198.886 148.509 198.325 149.202 198.325 150.247V153.096ZM203.277 150.269C203.277 148.751 204.256 147.563 205.818 147.563C206.687 147.563 207.358 147.959 207.699 148.63L207.776 147.717H208.7V152.876C208.7 154.57 207.655 155.648 206.005 155.648C204.542 155.648 203.541 154.823 203.343 153.459H204.377C204.509 154.251 205.103 154.713 206.005 154.713C207.017 154.713 207.677 154.053 207.677 153.03V151.952C207.325 152.579 206.621 152.953 205.774 152.953C204.245 152.953 203.277 151.776 203.277 150.269ZM204.311 150.247C204.311 151.259 204.938 152.051 205.95 152.051C206.995 152.051 207.633 151.303 207.633 150.247C207.633 149.213 207.017 148.465 205.961 148.465C204.927 148.465 204.311 149.257 204.311 150.247ZM216.005 153.096H213.376V145.143H215.961C218.337 145.143 219.943 146.749 219.943 149.125C219.943 151.49 218.359 153.096 216.005 153.096ZM215.884 146.133H214.454V152.095H215.928C217.699 152.095 218.821 150.951 218.821 149.125C218.821 147.277 217.699 146.133 215.884 146.133ZM221.645 146.441C221.271 146.441 220.963 146.133 220.963 145.759C220.963 145.374 221.271 145.077 221.645 145.077C222.019 145.077 222.327 145.374 222.327 145.759C222.327 146.133 222.019 146.441 221.645 146.441ZM221.139 153.096V147.717H222.173V153.096H221.139ZM223.234 151.534H224.224C224.224 152.084 224.642 152.414 225.324 152.414C226.05 152.414 226.468 152.117 226.468 151.622C226.468 151.259 226.292 151.039 225.731 150.896L224.785 150.676C223.828 150.445 223.377 149.972 223.377 149.18C223.377 148.19 224.213 147.563 225.401 147.563C226.578 147.563 227.348 148.223 227.37 149.246H226.38C226.358 148.707 225.995 148.366 225.368 148.366C224.719 148.366 224.356 148.652 224.356 149.147C224.356 149.51 224.62 149.752 225.148 149.884L226.094 150.115C227.007 150.335 227.458 150.753 227.458 151.556C227.458 152.579 226.578 153.228 225.302 153.228C224.037 153.228 223.234 152.557 223.234 151.534ZM230.177 153.228C229.022 153.228 228.34 152.579 228.34 151.6C228.34 150.61 229.077 149.994 230.342 149.895L232.036 149.763V149.609C232.036 148.707 231.497 148.388 230.771 148.388C229.902 148.388 229.407 148.773 229.407 149.422H228.505C228.505 148.3 229.429 147.563 230.815 147.563C232.146 147.563 233.048 148.267 233.048 149.719V153.096H232.168L232.058 152.227C231.783 152.843 231.046 153.228 230.177 153.228ZM230.474 152.425C231.453 152.425 232.047 151.787 232.047 150.775V150.489L230.672 150.599C229.759 150.687 229.385 151.039 229.385 151.567C229.385 152.139 229.803 152.425 230.474 152.425ZM235.415 153.096H234.48V145H235.514V148.641C235.866 147.937 236.592 147.563 237.472 147.563C239.012 147.563 239.936 148.773 239.936 150.434C239.936 152.062 238.968 153.228 237.406 153.228C236.559 153.228 235.844 152.854 235.492 152.117L235.415 153.096ZM235.525 150.39C235.525 151.512 236.163 152.293 237.219 152.293C238.275 152.293 238.902 151.501 238.902 150.39C238.902 149.29 238.275 148.498 237.219 148.498C236.163 148.498 235.525 149.29 235.525 150.39ZM241.582 146.441C241.208 146.441 240.9 146.133 240.9 145.759C240.9 145.374 241.208 145.077 241.582 145.077C241.956 145.077 242.264 145.374 242.264 145.759C242.264 146.133 241.956 146.441 241.582 146.441ZM241.076 153.096V147.717H242.11V153.096H241.076ZM244.667 153.096H243.633V145H244.667V153.096ZM246.695 146.441C246.321 146.441 246.013 146.133 246.013 145.759C246.013 145.374 246.321 145.077 246.695 145.077C247.069 145.077 247.377 145.374 247.377 145.759C247.377 146.133 247.069 146.441 246.695 146.441ZM246.189 153.096V147.717H247.223V153.096H246.189ZM250.243 153.096H249.209V148.586H248.153V147.717H249.209V146.034H250.243V147.717H251.299V148.586H250.243V153.096ZM251.71 155.505V154.658H252.403C252.898 154.658 253.294 154.581 253.547 153.899L253.734 153.382L251.567 147.717H252.656L254.218 152.051L255.813 147.717H256.88L254.339 154.306C253.976 155.23 253.437 155.615 252.612 155.615C252.271 155.615 251.985 155.571 251.71 155.505ZM258.211 146.441C257.837 146.441 257.529 146.133 257.529 145.759C257.529 145.374 257.837 145.077 258.211 145.077C258.585 145.077 258.893 145.374 258.893 145.759C258.893 146.133 258.585 146.441 258.211 146.441ZM257.705 153.096V147.717H258.739V153.096H257.705ZM261.274 153.096H260.24V147.717H261.175L261.285 148.542C261.626 147.926 262.308 147.563 263.067 147.563C264.486 147.563 265.135 148.432 265.135 149.807V153.096H264.101V150.038C264.101 148.949 263.595 148.509 262.803 148.509C261.835 148.509 261.274 149.202 261.274 150.247V153.096ZM269.289 147.288C269.289 145.924 270.389 145 272.028 145C273.546 145 274.525 145.847 274.613 147.222H273.524C273.469 146.43 272.908 145.968 272.017 145.968C271.016 145.968 270.367 146.474 270.367 147.255C270.367 147.893 270.73 148.278 271.478 148.454L272.787 148.762C274.085 149.059 274.745 149.763 274.745 150.885C274.745 152.315 273.634 153.228 271.94 153.228C270.323 153.228 269.245 152.381 269.179 151.017H270.279C270.301 151.776 270.939 152.26 271.94 152.26C272.996 152.26 273.667 151.765 273.667 150.973C273.667 150.346 273.326 149.95 272.567 149.774L271.258 149.477C269.96 149.18 269.289 148.432 269.289 147.288ZM275.924 155.505V147.717H276.859L276.936 148.685C277.299 147.948 278.025 147.563 278.883 147.563C280.423 147.563 281.38 148.718 281.38 150.368C281.38 152.007 280.478 153.239 278.883 153.239C278.025 153.239 277.31 152.876 276.958 152.216V155.505H275.924ZM276.969 150.412C276.969 151.512 277.607 152.304 278.663 152.304C279.719 152.304 280.346 151.512 280.346 150.412C280.346 149.301 279.719 148.509 278.663 148.509C277.607 148.509 276.969 149.29 276.969 150.412ZM284.84 153.228C283.256 153.228 282.167 152.084 282.167 150.412C282.167 148.729 283.234 147.563 284.796 147.563C286.325 147.563 287.326 148.619 287.326 150.214V150.599L283.168 150.61C283.245 151.743 283.839 152.37 284.862 152.37C285.665 152.37 286.193 152.04 286.369 151.424H287.337C287.073 152.579 286.171 153.228 284.84 153.228ZM284.796 148.432C283.894 148.432 283.322 148.971 283.19 149.917H286.292C286.292 149.026 285.709 148.432 284.796 148.432ZM288.129 150.412C288.129 148.729 289.196 147.563 290.769 147.563C292.122 147.563 293.068 148.333 293.255 149.532H292.221C292.045 148.85 291.495 148.487 290.802 148.487C289.823 148.487 289.152 149.235 289.152 150.401C289.152 151.556 289.779 152.304 290.758 152.304C291.495 152.304 292.045 151.919 292.232 151.281H293.266C293.057 152.447 292.056 153.228 290.758 153.228C289.174 153.228 288.129 152.106 288.129 150.412ZM294.863 146.441C294.489 146.441 294.181 146.133 294.181 145.759C294.181 145.374 294.489 145.077 294.863 145.077C295.237 145.077 295.545 145.374 295.545 145.759C295.545 146.133 295.237 146.441 294.863 146.441ZM294.357 153.096V147.717H295.391V153.096H294.357ZM300.534 153.096V148.586H298.147V153.096H297.113V148.586H296.321V147.717H297.113V146.859C297.113 145.539 297.828 145 298.763 145C298.961 145 299.203 145.011 299.401 145.044V145.935H298.939C298.312 145.935 298.147 146.276 298.147 146.859V147.717H301.568V153.096H300.534ZM301.051 146.397C300.677 146.397 300.391 146.111 300.391 145.737C300.391 145.363 300.677 145.077 301.051 145.077C301.414 145.077 301.7 145.363 301.7 145.737C301.7 146.111 301.414 146.397 301.051 146.397ZM302.685 150.412C302.685 148.729 303.752 147.563 305.325 147.563C306.678 147.563 307.624 148.333 307.811 149.532H306.777C306.601 148.85 306.051 148.487 305.358 148.487C304.379 148.487 303.708 149.235 303.708 150.401C303.708 151.556 304.335 152.304 305.314 152.304C306.051 152.304 306.601 151.919 306.788 151.281H307.822C307.613 152.447 306.612 153.228 305.314 153.228C303.73 153.228 302.685 152.106 302.685 150.412ZM313.175 153.096H312.097V145.143H315.1C316.805 145.143 317.817 146.045 317.817 147.53C317.817 148.63 317.267 149.422 316.277 149.741L317.894 153.096H316.695L315.21 149.95H313.175V153.096ZM313.175 146.111V148.993H315.111C316.112 148.993 316.684 148.454 316.684 147.541C316.684 146.617 316.09 146.111 315.1 146.111H313.175ZM321.052 153.228C319.468 153.228 318.379 152.084 318.379 150.412C318.379 148.729 319.446 147.563 321.008 147.563C322.537 147.563 323.538 148.619 323.538 150.214V150.599L319.38 150.61C319.457 151.743 320.051 152.37 321.074 152.37C321.877 152.37 322.405 152.04 322.581 151.424H323.549C323.285 152.579 322.383 153.228 321.052 153.228ZM321.008 148.432C320.106 148.432 319.534 148.971 319.402 149.917H322.504C322.504 149.026 321.921 148.432 321.008 148.432ZM324.352 150.269C324.352 148.751 325.331 147.563 326.893 147.563C327.762 147.563 328.433 147.959 328.774 148.63L328.851 147.717H329.775V152.876C329.775 154.57 328.73 155.648 327.08 155.648C325.617 155.648 324.616 154.823 324.418 153.459H325.452C325.584 154.251 326.178 154.713 327.08 154.713C328.092 154.713 328.752 154.053 328.752 153.03V151.952C328.4 152.579 327.696 152.953 326.849 152.953C325.32 152.953 324.352 151.776 324.352 150.269ZM325.386 150.247C325.386 151.259 326.013 152.051 327.025 152.051C328.07 152.051 328.708 151.303 328.708 150.247C328.708 149.213 328.092 148.465 327.036 148.465C326.002 148.465 325.386 149.257 325.386 150.247ZM331.774 146.441C331.4 146.441 331.092 146.133 331.092 145.759C331.092 145.374 331.4 145.077 331.774 145.077C332.148 145.077 332.456 145.374 332.456 145.759C332.456 146.133 332.148 146.441 331.774 146.441ZM331.268 153.096V147.717H332.302V153.096H331.268ZM333.451 150.401C333.451 148.74 334.639 147.574 336.256 147.574C337.862 147.574 339.05 148.74 339.05 150.401C339.05 152.062 337.862 153.228 336.256 153.228C334.639 153.228 333.451 152.062 333.451 150.401ZM334.496 150.401C334.496 151.523 335.211 152.304 336.256 152.304C337.29 152.304 338.016 151.523 338.016 150.401C338.016 149.279 337.29 148.498 336.256 148.498C335.211 148.498 334.496 149.279 334.496 150.401ZM341.228 153.096H340.194V147.717H341.129L341.239 148.542C341.58 147.926 342.262 147.563 343.021 147.563C344.44 147.563 345.089 148.432 345.089 149.807V153.096H344.055V150.038C344.055 148.949 343.549 148.509 342.757 148.509C341.789 148.509 341.228 149.202 341.228 150.247V153.096Z" fill="white"/>
<path d="M91.6667 255.096C91.6667 255.833 92.2636 256.43 93 256.43C93.7364 256.43 94.3333 255.833 94.3333 255.096C94.3333 254.36 93.7364 253.763 93 253.763C92.2636 253.763 91.6667 254.36 91.6667 255.096ZM159.667 255.096C159.667 255.833 160.264 256.43 161 256.43C161.736 256.43 162.333 255.833 162.333 255.096C162.333 254.36 161.736 253.763 161 253.763C160.264 253.763 159.667 254.36 159.667 255.096ZM93 255.346H161V254.846H93V255.346Z" fill="white" fill-opacity="0.3"/>
<path d="M144.25 255.296C144.25 245.935 151.839 238.346 161.2 238.346C170.561 238.346 178.15 245.935 178.15 255.296C178.15 264.657 170.561 272.246 161.2 272.246C151.839 272.246 144.25 264.657 144.25 255.296Z" stroke="white" stroke-opacity="0.5" stroke-width="0.5"/>
<path d="M149.5 255.596C149.5 248.969 154.873 243.596 161.5 243.596C168.127 243.596 173.5 248.969 173.5 255.596C173.5 262.224 168.127 267.596 161.5 267.596C154.873 267.596 149.5 262.224 149.5 255.596Z" fill="#24ACA4" stroke="white"/>
<path d="M119.952 260.264C117.88 260.264 116.536 258.948 116.536 256.932H117.894C117.894 258.234 118.692 259.032 119.98 259.032C121.352 259.032 122.234 258.122 122.234 256.75C122.234 255.448 121.408 254.482 119.994 254.482C119.14 254.482 118.356 254.888 117.894 255.462L116.732 255.168L117.964 249.974H123.032V251.234H118.958L118.286 253.922C118.818 253.516 119.49 253.306 120.246 253.306C122.304 253.306 123.634 254.748 123.634 256.694C123.634 258.794 122.136 260.264 119.952 260.264Z" fill="#24ACA4"/>
<path d="M52 6.42952C52.7364 6.42952 53.3333 5.83258 53.3333 5.09619C53.3333 4.35982 52.7364 3.76286 52 3.76286C51.2636 3.76286 50.6667 4.35982 50.6667 5.09619C50.6667 5.83258 51.2636 6.42952 52 6.42952ZM52.25 238.096L52.25 5.09619L51.75 5.09619L51.75 238.096L52.25 238.096Z" fill="white"/>
<path d="M120 55.9295C120.736 55.9295 121.333 55.3326 121.333 54.5962C121.333 53.8598 120.736 53.2629 120 53.2629C119.264 53.2629 118.667 53.8598 118.667 54.5962C118.667 55.3326 119.264 55.9295 120 55.9295ZM120.25 235.096L120.25 54.5962L119.75 54.5962L119.75 235.096H120.25Z" fill="white"/>
<path d="M161 116.43C161.736 116.43 162.333 115.833 162.333 115.096C162.333 114.36 161.736 113.763 161 113.763C160.264 113.763 159.667 114.36 159.667 115.096C159.667 115.833 160.264 116.43 161 116.43ZM161.25 256.096L161.25 115.096L160.75 115.096L160.75 256.096L161.25 256.096Z" fill="white"/>
<path d="M177 211.43C177.736 211.43 178.333 210.833 178.333 210.096C178.333 209.36 177.736 208.763 177 208.763C176.264 208.763 175.667 209.36 175.667 210.096C175.667 210.833 176.264 211.43 177 211.43ZM177.25 248.096L177.25 210.096L176.75 210.096L176.75 248.096L177.25 248.096Z" fill="white"/>
<path d="M269.18 422.596C282.258 422.596 292.86 433.198 292.86 446.276C292.86 459.354 282.258 469.957 269.18 469.957C256.102 469.956 245.5 459.354 245.5 446.276C245.5 433.198 256.102 422.596 269.18 422.596Z" fill="#24ACA4" fill-opacity="0.8" stroke="white"/>
<path d="M35 448.846C39.5563 448.846 43.25 452.54 43.25 457.096C43.25 461.653 39.5563 465.346 35 465.346C30.4437 465.346 26.75 461.653 26.75 457.096C26.75 452.54 30.4437 448.846 35 448.846Z" fill="#24ACA4" fill-opacity="0.8" stroke="white" stroke-width="1.5"/>
<path d="M100.87 436.411C109.46 436.411 116.425 443.375 116.425 451.966C116.425 460.557 109.46 467.521 100.87 467.521C92.279 467.521 85.315 460.557 85.315 451.966C85.3152 443.375 92.2791 436.411 100.87 436.411Z" fill="#24ACA4" fill-opacity="0.8" stroke="white" stroke-width="1.5"/>
<path d="M177.87 428.911C188.946 428.911 197.925 437.89 197.925 448.966C197.925 460.042 188.946 469.021 177.87 469.021C166.794 469.021 157.815 460.042 157.815 448.966C157.815 437.89 166.794 428.911 177.87 428.911Z" fill="#24ACA4" fill-opacity="0.8" stroke="white" stroke-width="1.5"/>
<line x1="34.75" y1="457.096" x2="34.75" y2="398.096" stroke="white" stroke-width="0.5"/>
<path d="M101 452.43C101.736 452.43 102.333 451.833 102.333 451.096C102.333 450.36 101.736 449.763 101 449.763C100.264 449.763 99.6667 450.36 99.6667 451.096C99.6667 451.833 100.264 452.43 101 452.43ZM101.25 451.096L101.25 398.096L100.75 398.096L100.75 451.096L101.25 451.096Z" fill="white"/>
<path d="M178 450.43C178.736 450.43 179.333 449.833 179.333 449.096C179.333 448.36 178.736 447.763 178 447.763C177.264 447.763 176.667 448.36 176.667 449.096C176.667 449.833 177.264 450.43 178 450.43ZM178.25 449.096L178.25 398.096L177.75 398.096L177.75 449.096L178.25 449.096Z" fill="white"/>
<path d="M171.234 384.24C169.458 384.24 168.306 383.112 168.306 381.384H169.47C169.47 382.5 170.154 383.184 171.258 383.184C172.434 383.184 173.19 382.404 173.19 381.228C173.19 380.112 172.482 379.284 171.27 379.284C170.538 379.284 169.866 379.632 169.47 380.124L168.474 379.872L169.53 375.42H173.874V376.5H170.382L169.806 378.804C170.262 378.456 170.838 378.276 171.486 378.276C173.25 378.276 174.39 379.512 174.39 381.18C174.39 382.98 173.106 384.24 171.234 384.24ZM179.704 377.472C179.704 378.756 178.792 379.68 177.508 379.68C176.236 379.68 175.324 378.756 175.324 377.472C175.324 376.176 176.236 375.252 177.508 375.252C178.792 375.252 179.704 376.176 179.704 377.472ZM184.276 375.432L177.688 384.096H176.536L183.124 375.432H184.276ZM178.78 377.472C178.78 376.692 178.264 376.152 177.508 376.152C176.764 376.152 176.248 376.692 176.248 377.472C176.248 378.24 176.764 378.78 177.508 378.78C178.252 378.78 178.78 378.24 178.78 377.472ZM185.512 382.044C185.512 383.328 184.588 384.252 183.316 384.252C182.044 384.252 181.12 383.328 181.12 382.044C181.12 380.748 182.044 379.836 183.316 379.836C184.588 379.836 185.512 380.748 185.512 382.044ZM184.576 382.044C184.576 381.264 184.072 380.724 183.316 380.724C182.572 380.724 182.056 381.264 182.056 382.044C182.056 382.812 182.572 383.352 183.316 383.352C184.06 383.352 184.576 382.812 184.576 382.044Z" fill="white"/>
<path d="M95.072 379.608H94.208V378.828L96.668 376.464H92.768V375.42H98.156V376.368L95.78 378.636C97.256 378.816 98.372 379.812 98.372 381.372C98.372 383.124 97.052 384.24 95.288 384.24C93.584 384.24 92.36 383.196 92.36 381.396H93.524C93.524 382.524 94.22 383.184 95.312 383.184C96.44 383.184 97.172 382.464 97.172 381.348C97.172 380.304 96.452 379.608 95.072 379.608ZM103.704 377.472C103.704 378.756 102.792 379.68 101.508 379.68C100.236 379.68 99.3243 378.756 99.3243 377.472C99.3243 376.176 100.236 375.252 101.508 375.252C102.792 375.252 103.704 376.176 103.704 377.472ZM108.276 375.432L101.688 384.096H100.536L107.124 375.432H108.276ZM102.78 377.472C102.78 376.692 102.264 376.152 101.508 376.152C100.764 376.152 100.248 376.692 100.248 377.472C100.248 378.24 100.764 378.78 101.508 378.78C102.252 378.78 102.78 378.24 102.78 377.472ZM109.512 382.044C109.512 383.328 108.588 384.252 107.316 384.252C106.044 384.252 105.12 383.328 105.12 382.044C105.12 380.748 106.044 379.836 107.316 379.836C108.588 379.836 109.512 380.748 109.512 382.044ZM108.576 382.044C108.576 381.264 108.072 380.724 107.316 380.724C106.572 380.724 106.056 381.264 106.056 382.044C106.056 382.812 106.572 383.352 107.316 383.352C108.06 383.352 108.576 382.812 108.576 382.044Z" fill="white"/>
<path d="M27.6932 376.476H25.8692V375.42H28.8212V384.096H27.6932V376.476ZM34.7043 377.472C34.7043 378.756 33.7923 379.68 32.5083 379.68C31.2363 379.68 30.3243 378.756 30.3243 377.472C30.3243 376.176 31.2363 375.252 32.5083 375.252C33.7923 375.252 34.7043 376.176 34.7043 377.472ZM39.2763 375.432L32.6883 384.096H31.5363L38.1243 375.432H39.2763ZM33.7803 377.472C33.7803 376.692 33.2643 376.152 32.5083 376.152C31.7643 376.152 31.2483 376.692 31.2483 377.472C31.2483 378.24 31.7643 378.78 32.5083 378.78C33.2523 378.78 33.7803 378.24 33.7803 377.472ZM40.5123 382.044C40.5123 383.328 39.5883 384.252 38.3163 384.252C37.0443 384.252 36.1203 383.328 36.1203 382.044C36.1203 380.748 37.0443 379.836 38.3163 379.836C39.5883 379.836 40.5123 380.748 40.5123 382.044ZM39.5763 382.044C39.5763 381.264 39.0723 380.724 38.3163 380.724C37.5723 380.724 37.0563 381.264 37.0563 382.044C37.0563 382.812 37.5723 383.352 38.3163 383.352C39.0603 383.352 39.5763 382.812 39.5763 382.044Z" fill="white"/>
<path d="M256.286 378.168L258.314 375.42H259.682L257.51 378.3C257.81 378.18 258.122 378.12 258.422 378.12C260.222 378.12 261.434 379.416 261.434 381.132C261.434 382.944 260.066 384.24 258.278 384.24C256.478 384.24 255.086 382.884 255.086 381.132C255.086 380.1 255.398 379.38 256.286 378.168ZM256.286 381.144C256.286 382.332 257.102 383.184 258.278 383.184C259.43 383.184 260.246 382.332 260.246 381.144C260.246 379.956 259.43 379.116 258.278 379.116C257.102 379.116 256.286 379.956 256.286 381.144ZM263.328 384.24C262.86 384.24 262.464 383.856 262.464 383.4C262.464 382.932 262.86 382.548 263.328 382.548C263.784 382.548 264.18 382.932 264.18 383.4C264.18 383.856 263.784 384.24 263.328 384.24ZM268.234 384.24C266.458 384.24 265.306 383.112 265.306 381.384H266.47C266.47 382.5 267.154 383.184 268.258 383.184C269.434 383.184 270.19 382.404 270.19 381.228C270.19 380.112 269.482 379.284 268.27 379.284C267.538 379.284 266.866 379.632 266.47 380.124L265.474 379.872L266.53 375.42H270.874V376.5H267.382L266.806 378.804C267.262 378.456 267.838 378.276 268.486 378.276C270.25 378.276 271.39 379.512 271.39 381.18C271.39 382.98 270.106 384.24 268.234 384.24ZM276.704 377.472C276.704 378.756 275.792 379.68 274.508 379.68C273.236 379.68 272.324 378.756 272.324 377.472C272.324 376.176 273.236 375.252 274.508 375.252C275.792 375.252 276.704 376.176 276.704 377.472ZM281.276 375.432L274.688 384.096H273.536L280.124 375.432H281.276ZM275.78 377.472C275.78 376.692 275.264 376.152 274.508 376.152C273.764 376.152 273.248 376.692 273.248 377.472C273.248 378.24 273.764 378.78 274.508 378.78C275.252 378.78 275.78 378.24 275.78 377.472ZM282.512 382.044C282.512 383.328 281.588 384.252 280.316 384.252C279.044 384.252 278.12 383.328 278.12 382.044C278.12 380.748 279.044 379.836 280.316 379.836C281.588 379.836 282.512 380.748 282.512 382.044ZM281.576 382.044C281.576 381.264 281.072 380.724 280.316 380.724C279.572 380.724 279.056 381.264 279.056 382.044C279.056 382.812 279.572 383.352 280.316 383.352C281.06 383.352 281.576 382.812 281.576 382.044Z" fill="white"/>
<path d="M269 450.43C269.736 450.43 270.333 449.833 270.333 449.096C270.333 448.36 269.736 447.763 269 447.763C268.264 447.763 267.667 448.36 267.667 449.096C267.667 449.833 268.264 450.43 269 450.43ZM269.25 449.096L269.25 398.096L268.75 398.096L268.75 449.096L269.25 449.096Z" fill="white"/>
</svg>
