<?xml version="1.0" encoding="utf-8"?>
<!-- Generator: Adobe Illustrator 25.0.1, SVG Export Plug-In . SVG Version: 6.00 Build 0)  -->
<svg version="1.0" id="katman_1" xmlns="http://www.w3.org/2000/svg" xmlns:xlink="http://www.w3.org/1999/xlink" x="0px" y="0px"
	 viewBox="0 0 560 400" style="enable-background:new 0 0 560 400;" xml:space="preserve">
<style type="text/css">
	.st0{fill:#009CDE;}
</style>
<path class="st0" d="M154,181.2l0.2-0.5l-0.6-1l0.3-0.8l0.5-0.8l1.4-0.7l0.6,0.8l-0.6,0.3l0.3,0.6l0.3,0.2l-0.2,0.2l-1.5-1l-0.5,0.8
	l1.1,1.4l-0.5,0.9l-1.5,0.5l-0.1-0.7L154,181.2z M200.2,191.9c-1.2-6.1-4.6-11.6-9.4-15.4c-3.2-2.7-4.1-3.4-5.3-5.1
	c4.6,15.6,11.8,15.7,14.9,27.5c0.5-6.1,13.1-16.2,1.2-33.2C204.6,173.6,200,184.4,200.2,191.9L200.2,191.9z M178.2,157.5
	c4.2,13.9,14.2,10.8,20.9,25.3c-0.7-4.9,4.9-20.5-8.2-30.1c4.4,5.3,3.1,15.3,5.6,21.8C191.5,163.6,180.6,161.8,178.2,157.5z
	 M106.2,171.9c0.1-0.3,0.2-0.7,0.2-1c-0.4,0.1-0.7,0.2-1.1,0.1L106.2,171.9z M181,156c3,3.6,8.3,5.7,11.3,9.3
	c-2.2-10.6-10.4-19.4-20.1-21.5C177,147.4,178,152.3,181,156z M141,148.2l1.3,0.1l0.5-0.5l-1-0.5l-2.7-0.1l-0.7,0.5l-1.5-0.2v0.4
	c1,0.1,2,0.2,2.8,0.3L141,148.2z M398.8,181.6c0-8.6,4.6-15.4,12-15.4c6.3,0,11.6,3.6,11.6,15.5v1.4h-16.7c0,4.9,2,7.9,7.4,7.9
	c4.2,0,6.3-1.3,7.6-2.2l0.2,5.4c-2.7,1.2-5.7,1.9-8.6,1.9C402.9,196.1,398.8,189.4,398.8,181.6z M405.5,178.7h10
	c0-5.1-1.7-7.7-4.9-7.7C407,170.9,405.5,174.8,405.5,178.7z M144.3,165.5c-2.5-1.1-5.2-1.8-7.9-2.2v1.8c2.5,0.4,5,1.1,7.3,2
	C144,166.5,144.2,166,144.3,165.5z M266,181.1c0.1-11.8,6.9-14.9,12.8-14.9c5.9,0,12.7,3.1,12.7,14.9c0,12.2-6.8,15-12.7,15
	C272.9,196,266,193.2,266,181.1z M273.2,181.1c0,4.9,1.1,10,5.6,10c4.5,0,5.6-5.2,5.6-10c0-4.9-1-10-5.6-10
	C274.3,171.2,273.2,176.3,273.2,181.1z M460.5,153.4h-6.9v42.2h6.9V153.4z M320,153.4h-7v42.2h7V153.4z M190.4,187.2
	c-0.7,14.1,7.3,16.6,6.7,28.9c3.3-8.6,16.4-11,11.5-31.6c0.1,7.9-6.9,12.4-9.9,24.8C199.3,195.4,193.9,193.9,190.4,187.2z
	 M129.1,173c1.1-0.3,2.1-0.5,3.2-0.8l2.1-0.5c0.1-5.2,0.6-27.3,0.6-27.5c0.5-3.6,4.1-13.7-3.1-13.7c-6.9,0-4,10.3-3.5,13.7
	C128.4,144.4,128.9,167.6,129.1,173z M135.7,204.5h-0.2c0,0.4-0.1,2.2-0.1,3.1c1-0.5,1.7-1,1.7-1.8
	C137.2,205.4,136.6,204.9,135.7,204.5z M127.5,188.5c-0.1-1.8-0.1-3.7-0.1-4h-0.1c-1.5,0.9-2.3,2-2.4,3.5c0,1.5,0.9,2.5,2.5,3.5
	v-0.7l-1-1.1l0.5-1L127.5,188.5z M121.3,153c1.8-0.9,3.6-1.6,5.5-2.2c0,1.9,0.1,4,0.1,6.3c-1.9,0.7-3.6,2-4.8,3.6
	c-1.2,1.6-5.2,4.2-7.9,5.7c-2.4,1.4-3.7,1.5-4.3,1.3c-0.5,0.4-1.8,1.5-3.2,4.9c0.2-0.8,0.4-1.7,0.7-2.5c0,0-1.8,0.8-3.1,0.2
	c1.4,0.2,2.8-0.3,3.7-1.4c0.5-0.5,0.8-1.2,1-1.9c0,0-0.2-0.9,0.7-2.5c0.6-1,0.7-3,1.5-4.2c0.8-1.2,1.7-2.3,2.6-3.4
	C116.6,153.7,119.4,153.6,121.3,153L121.3,153z M117.6,158.6l-1.9-0.1l-1.7,2.8l1.4-0.3L117.6,158.6z M132,208.8
	c0.5-0.2,1-0.3,1.5-0.5c0-1.5,0.5-22.1,0.5-25.9c-1.6,0.4-3.2,0.8-4.8,1.4c0.1,2.8,0.5,23.4,0.5,25.6
	C130.6,209.2,131.3,208.9,132,208.8z M115.8,187.8c0,7.6,6.1,10.4,12,12.3c0-2.2-0.1-4.4-0.2-6.6c-2.7-1.2-4.5-2.9-4.5-5.6
	c0-2.7,1.7-4.2,4.2-5.4c0.5-0.2,1.2-0.5,1.9-0.7c1.5-0.5,3.2-0.9,4.9-1.4l1.9-0.5c8.3-2,17.7-4.6,17.7-15.8c0-5.6-4.1-11.8-14-14
	c-1-0.2-2-0.3-3-0.4c0,0.8-0.1,2.8-0.1,2.8c0,0.6-0.1,2.9-0.1,3.3c0.6,0.1,1.3,0.2,1.9,0.2c5.8,1.4,7.9,4.7,7.9,7.9
	c0,5.3-4.6,7.3-10.1,8.9l-1.9,0.5c-1.7,0.4-3.5,0.8-5.2,1.3c-0.6,0.2-1.2,0.3-1.9,0.5C121.1,177.2,115.8,180.2,115.8,187.8
	L115.8,187.8z M131,217.9c-0.5,0.2-1,0.4-1,0.5c0,0,0.5,23.8,0.5,24.2c0,4.9,2.5,4.9,2.5,0c0-0.3,0.5-25.7,0.5-25.7
	s-0.7,0.2-1.1,0.4C132.2,217.4,131.5,217.7,131,217.9z M145.1,205.9c0-5.6-4.5-7.8-9.4-9.5c-0.1,1.8-0.1,4.3-0.2,6.1
	c2.1,0.8,3.5,1.8,3.5,3.4c0,2-2.1,3.1-3.6,3.7c-0.6,0.2-1.5,0.5-1.9,0.6c-1.2,0.4-2.5,0.8-3.7,1.2c-0.6,0.2-1.2,0.5-1.9,0.8
	c-2,1.1-4.2,2.7-4.2,5.5c0,3.1,2.2,4.7,4.5,6c0-0.5-0.1-5.2-0.1-5.3c0.1-0.9,0.9-1.5,1.7-1.9c1.2-0.5,2.4-1,3.6-1.4
	c0.7-0.2,1.2-0.5,1.9-0.6C139.8,213.2,145.1,211.5,145.1,205.9z M141.5,233.9c0.5-6.2-3-8.8-6.4-10.6l-0.1,3.6
	C137.8,228.2,140.4,230.2,141.5,233.9L141.5,233.9z M325.6,240.9c0,1.7,0.2,3.4,0.4,5.1h-6.3c-0.3-1.3-0.5-2.6-0.4-3.9h-0.1
	c-1.8,2.4-3.9,4.4-8.1,4.4c-4.5,0-8.6-3.1-8.6-8.5c0-7.9,6.4-9.9,15.3-9.9h1.4V227c0-2.9-1.4-5.6-5.4-5.6c-2.9,0.1-5.6,1.1-7.9,2.9
	l-0.5-5.6c2.9-1.5,6-2.2,9.2-2.2c9,0,11.1,4.4,11.1,11.7L325.6,240.9z M319.2,233.5l-0.1-1.7h-0.6c-5.9,0-9.5,1.2-9.5,5.5
	c-0.2,2.3,1.6,4.3,3.9,4.5h0.5C317.6,241.8,319.2,238.7,319.2,233.5L319.2,233.5z M376.5,178.3h11.7v17.4h7.2v-39.4h-7.2v16h-11.7
	v-16h-7.3v39.3h7.3V178.3z M359.5,211.5h7.3v-6.9h-7.3V211.5z M293.1,217.1h6.3c-0.1,1.5-0.2,3-0.2,4.6V243
	c0,9.1-2.8,15.5-13.4,15.5c-3.4,0-6.8-0.6-10-1.8l0.3-6.2c2.6,1.5,5.6,2.4,8.6,2.5c6.6,0,7.6-4.6,7.6-9.1v-2.8h-0.1
	c-1.2,2.2-3.1,4.9-7.6,4.9c-4,0-10.1-2.7-10.1-14.4c0-8,2.9-15,10.5-15c4.2,0,6.2,2.4,7.6,4.9h0.2C292.8,220,293,218.6,293.1,217.1
	L293.1,217.1z M292.4,231.2c0-6.1-2.3-9.3-5.6-9.3c-3.7,0.1-5.1,3.5-5.1,9.3c0,6.8,2.2,9.6,4.6,9.6
	C290.6,240.9,292.4,237.8,292.4,231.2L292.4,231.2z M359.7,246h6.9v-29h-6.9V246z M334.1,196.1c-7.2,0-10.2-6.9-10.2-14.9
	c0-9.5,3.8-15,10-15c3.2-0.2,6.2,1.7,7.5,4.6h0.1v-17.4h7v37.3c0,1.6,0.1,3.3,0.2,4.9h-6.6c-0.2-1.5-0.2-3-0.2-4.5h-0.2
	C340.6,193.6,338.5,196.1,334.1,196.1L334.1,196.1z M335.9,190.9c4.1,0,5.5-4.5,5.5-9.9c0-5.6-1.5-9.7-5.4-9.7
	c-3.9,0-5.2,3.8-5.2,9.6C330.8,187.6,331.9,190.9,335.9,190.9L335.9,190.9z M308.1,172.6c0.6,0,1.3,0.2,1.9,0.3v-6.6
	c-0.4-0.1-0.8-0.2-1.2-0.2c-4.4,0-6.6,3.5-7.4,5.7h-0.1c0-1.8-0.2-3.6-0.2-5.3h-6.3c0.2,1.6,0.2,3.2,0.2,4.8l0.1,24.3h6.9v-15.9
	C302,174.4,305.2,172.6,308.1,172.6L308.1,172.6z M417.5,240.9c0,1.7,0.2,3.4,0.4,5.1h-6.3c-0.3-1.3-0.5-2.6-0.4-3.9h-0.1
	c-1.8,2.4-3.9,4.4-8.1,4.4c-4.5,0-8.6-3.1-8.6-8.5c0-7.9,6.4-9.9,15.3-9.9h1.4V227c0-2.9-1.4-5.6-5.4-5.6c-2.9,0.1-5.6,1.1-7.9,2.9
	l-0.5-5.6c2.9-1.5,6-2.2,9.2-2.2c9,0,11.1,4.4,11.1,11.7V240.9z M411,231.8L411,231.8h-0.7c-5.9,0-9.5,1.2-9.5,5.5
	c-0.2,2.3,1.6,4.3,3.9,4.5h0.5c4.2,0,5.7-3.1,5.7-8.3V231.8z M345.6,216.6c-4.7,0-6.7,3.1-7.7,4.9h-0.1c0-1.5-0.2-3-0.2-4.5H331
	c0.2,1.6,0.2,3.2,0.2,4.8V246h6.9v-16.9c0-3.7,1.3-6.8,4.9-6.8c2.9,0,4,1.9,4,6.3V246h7v-18.7C354.2,221.5,352.2,216.6,345.6,216.6z
	 M391.5,223V217h-19v5.3h12L372.1,240H372v6h19.8v-5.3h-12.6L391.5,223z M490.4,178.7c0-3.7,1.3-6.8,4.9-6.8c2.9,0,4,1.9,4,6.3v17.4
	h6.9V177c0-5.9-2-10.7-8.6-10.7c-4.3,0-5.9,2.4-7.2,4.2h-0.2v-17h-6.9v42.2h6.9V178.7z M475.4,158.5l-6.9,2.2h-0.1v6h-4.6v5.1h4.6
	v15.8c0,6.1,2.9,8.5,8.1,8.5c1.6,0,3.2-0.3,4.7-0.9v-4.9c-0.8,0.4-1.7,0.6-2.6,0.6c-2,0-3.2-0.9-3.2-4v-15.1h5.8v-5.1h-5.8V158.5z
	 M498.4,216.6c-4.7,0-6.7,3.1-7.7,4.9h-0.1c0-1.5-0.2-3-0.2-4.5h-6.6c0.2,1.6,0.2,3.2,0.2,4.8l0.1,24.2h6.9v-16.9
	c0-3.7,1.3-6.8,4.9-6.8c2.9,0,4,1.9,4,6.3V246h6.9v-18.7C507,221.5,505,216.6,498.4,216.6L498.4,216.6z M478.5,231.4
	c0,12.2-6.8,15-12.7,15c-5.9,0-12.8-2.8-12.8-15c0.1-11.7,6.9-14.9,12.8-14.9C471.7,216.6,478.5,219.6,478.5,231.4z M471.3,231.5
	c0-4.9-1-10-5.6-10c-4.6,0-5.6,5.1-5.6,10c0,4.9,1.1,10,5.6,10C470.3,241.6,471.3,236.4,471.3,231.5L471.3,231.5z M447.5,195.6h-6.3
	c-0.3-1.3-0.5-2.6-0.4-3.9h-0.1c-1.8,2.4-3.9,4.4-8.1,4.4c-4.5,0-8.6-3.1-8.6-8.5c0-7.9,6.4-9.9,15.3-9.9h1.4v-1.1
	c0-2.9-1.4-5.6-5.4-5.6c-2.9,0.1-5.6,1.1-7.9,2.9l-0.5-5.6c2.9-1.4,6-2.2,9.2-2.2c9,0,11.1,4.4,11.1,11.7v12.7
	C447.1,192.2,447.3,193.9,447.5,195.6L447.5,195.6z M440.6,181.4L440.6,181.4h-0.7c-5.9,0-9.5,1.2-9.5,5.5c-0.2,2.3,1.6,4.3,3.9,4.5
	h0.5c4.2,0,5.7-3.1,5.7-8.3L440.6,181.4z M442,211.5h7.2v-6.9H442V211.5z M86.9,219.1l1.6,2.5l0.1-0.4l-0.8-1.8L86.9,219.1z
	 M442.3,246h6.9v-29h-7L442.3,246z M432,208.9l-6.9,2.2L425,217h-4.6v5.1h4.6V238c0,6,2.9,8.4,8.1,8.4c1.6,0.1,3.2-0.2,4.7-0.9v-4.9
	c-0.8,0.5-1.7,0.6-2.6,0.6c-2,0-3.2-0.9-3.2-4v-15h5.8V217H432V208.9z M77.9,171.4c-1.2,1.7-2.1,2.5-5.3,5.1
	c-4.9,3.9-8.3,9.3-9.4,15.4c0.3-7.6-4.3-18.4-1.2-26.2c-12,16.9,0.7,27,1.2,33.2C66.1,187.1,73.3,187,77.9,171.4z M73.1,187.2
	c-3.5,6.7-9,8.3-8.3,22.1c-2.9-12.3-10-16.9-9.9-24.7c-4.9,20.5,8.1,22.9,11.5,31.6C65.8,203.8,73.7,201.3,73.1,187.2L73.1,187.2z
	 M74.5,233.1c-3.6-13.5,2.8-18.2-2.1-31.2c-0.5,7.3-5.4,10.9-2.1,24.2c-5.8-11.3-14.7-15.6-17.4-23.3
	C53.2,224,70.2,227.2,74.5,233.1z M76.4,217.9c1.2,5.6-2.3,13.9,3.3,21.7c-5.8-6.5-18.1-8.2-23.2-18.1c6.3,24.2,22.6,19.2,29.9,24.5
	C80.5,237.2,85.4,231.4,76.4,217.9z M64.3,183c6.7-14.6,16.7-11.5,20.9-25.3c-2.5,4.2-13.4,5.9-18.4,16.8c2.6-6.5,1.3-16.4,5.6-21.8
	C59.5,162.5,65,178,64.3,183z M126.2,141.9c0.1,0.5,0.2,0.9,0.2,1.4c0,0,0.1,0.2,0.1,0.4c-11.9,1.2-22.9,6.4-31.4,14.7l6.3,6.3
	c2.8-2.7,5.9-5,9.3-6.9c-0.5,0.6-1,1.2-1.4,1.9c-0.2,0.4-0.3,0.8-0.5,1.3c-2.2,1.5-4.3,3.2-6.3,5l3.6,3.6c-0.5,0.2-1.1,0.4-1.6,0.5
	h-0.4l-2.9-2.9c-7.3,7.7-11.4,17.8-11.6,28.4h9c0.2-8.2,3.3-16.1,9-22l-0.7-0.7c0.3-0.7,0.6-1.2,0.8-1.6l1.1,1.1
	c4.9-4.8,11.3-7.9,18.1-8.9v1.8c-6.3,1-12.3,3.9-16.9,8.3l6.3,6.3c-1.8,2.3-2.6,5.2-2.5,8.2c-0.1,4.4,2.2,8.5,5.9,10.7
	c1,0.7,2.1,1.2,3.2,1.7c0.4,0.8,0.9,1.5,1.5,2.2l1.2-1.2c0.6,0.2,1.2,0.5,1.9,0.6l-1.8,1.8c0.6,0.5,1.3,0.9,2.1,1.2v1.9
	c-1.2-0.4-2.3-1.1-3.3-1.9l-6.3,6.3c1.3,1.2,2.9,2.2,4.5,3c-0.3,0.5-0.5,1.1-0.6,1.7c-1.9-0.9-3.6-2.1-5.2-3.5l-6.3,6.3
	c4.9,4.6,11.1,7.3,17.8,8.1v1.8c-6-0.6-11.7-2.9-16.5-6.6l0.2,0.5l-0.5,1.2l-3.2-0.2l-1.2,1.3l-2.3-0.2l-1.6,1.7
	c6.9,6.6,15.9,10.6,25.5,11.3v1.8c-10-0.8-19.5-4.9-26.9-11.8l-6.3,6.3c20.4,19.4,52.6,19.4,72.8-0.2l-6.3-6.3
	c-7.4,7-17,11.3-27.2,12v-1.8c2.3-0.2,4.7-0.5,7-1.1c0.6-0.2,1.4-0.7,1.5-2.7c0.5-8-4.2-10.9-8.2-12.8l0.1-4.9
	c2.5-0.8,5.3-1.5,7.5-3l0.2-0.2l0.2-0.1c2.5-1.6,4-4.4,3.9-7.3c0-6.9-5.8-9.6-11.2-11.4c0-3.1,0.2-9.3,0.2-9.3l2.3,1.2l0.9-0.2
	l0.9,0.2l-0.1-0.8l-0.5-0.2v-0.8l-0.5,0.1l1.5-2l0.6,0.3l-1.6,1.5l0.5-0.1l0.6-0.6l2.6-0.5l0.2,0.2l2.5-2.5l-0.4-0.3H145l-0.9,0.2
	l-0.2,0.2l-0.5,0.2l-0.1,0.3l-0.6-0.1l-0.9,0.2l-0.4-0.6l1.3-0.5l0.5,0.5l0.3-0.8l0.8-0.4l0.3-0.3l-0.5-0.4c0.6-0.2,1.2-0.5,1.9-0.8
	c0.4,0.4,0.8,0.7,1.2,1.1l6.4-6.3l-0.5-0.4c0.6-0.9,1.2-2,1.5-3.1l0.8,1.5l2.1-2.1l-0.7-1.1l1.1-0.2l-2.3-2.9v-1.1
	c0-2.8-0.8-5.6-2.5-7.9l0.8-0.2l0.4-0.5l4.7,2.5l1.5,1.6l0.7,2.5l-0.2,0.7l1-0.1l0.8,0.4l-0.2,1.1l6-6c-8.6-8.4-19.8-13.7-31.7-14.8
	c0.1-0.5,0.2-0.9,0.3-1.5l0.1-0.3c27.8,2.9,48.9,26.2,48.9,54.2c0.1,30.1-24.3,54.6-54.4,54.6c-27.9,0.1-51.2-21-54.1-48.7
	C74.5,171.8,96.2,145,126.2,141.9L126.2,141.9z M163.6,166c0.8,0.9,1.6,1.9,2.4,2.8l2.2,1.9l1.9,2.6l1.6,2.8l-0.2,0.5l-0.6-0.3
	l-0.1,0.2c3,5.9,4.6,12.5,4.6,19.1h9c-0.2-13.4-5.3-26.2-14.6-35.8L163.6,166z M155.9,173.5c1.2,1.3,2.2,2.7,3.2,4.2l0.5-1.1
	l0.5,0.3l-0.3,1.4l0.8-0.3l0.2,0.3l-0.6,0.3l0.2,0.5l-0.2,0.2L160,179c0.3,0.4,0.5,0.8,0.8,1.3l0.7-0.1l0.5,0.7v1l0.8,1.1l-0.4,0.6
	c0.3,0.7,1.2,2.3,1.2,2.3l0.8-0.1l-0.4-2.6l-0.2-1.5l-0.8-2.3l-1.2-2.3l-2-2.9l0.2-0.5l2,1.4l-0.3,0.3l-0.6-0.3l2.5,3.6l1.1,3.5
	l0.4,3l-0.5,2.9l-0.4,0.5c0.5,2.2,0.8,4.5,0.8,6.8h9c-0.1-5.9-1.4-11.7-3.9-17.1l-1.5,0.5l-3.8-4.4l-0.6,0.1l-3-1.9l0.2-0.9
	l-0.5-0.6l-2.2-0.1L155.9,173.5z M157.6,192.6l-0.1,0.5l-1.1,0.2l-0.4,0.3l-0.2,0.5l-0.9,0.7l0.2,0.7h7.9c-0.1-1.5-0.2-3.2-0.5-4.7
	l-1.1,1.8v-0.8l0.8-2.5c-0.2-0.5-0.2-0.9-0.4-1.4l-0.3,1.3l-0.4,0.8l-0.9,0.5l-0.4,0.8l-1.6,0.2l-1.6,0.8L157.6,192.6z M147,186.3
	l0.2,0.4l0.4-0.9h-0.3l-0.3-0.6l0.7-0.2l0.8,0.6l0.3-1c-0.5-0.8-1.1-1.5-1.7-2.2l-0.9,1l-0.2,1.7l0.8,0.5v0.2L146,186L147,186.3z
	 M149.7,215.4l-0.6-0.6l-1.2-0.6l-1.6-1.2c-0.5,0.4-0.9,0.8-1.5,1.2l1,0.4l1.1,0.8l0.6-0.2l1.9,0.5L149.7,215.4z M150.4,183.8h1
	l-0.4-0.5c0.1,0,0.8-0.2,0.8-0.2l0.6,0.2l-0.6,0.2l-0.2,0.2l0.7,0.5l1.9,2.3l0.4-0.1v-0.3h0.5l0.2,0.8l-0.4,0.2l-0.2-0.5l-0.5,0.3
	l0.3,0.8l0.8,0.7l0.8-0.8l0.3-1.2l1.2-0.5l1.7,1.6l-0.6,0.4l-0.4,1.8l-0.5,0.7h0.8l0.5,0.2l0.5-0.6l0.6-0.3l0.2-1.3l0.8-0.6l0.4-0.6
	c-0.4-1.4-0.8-2.7-1.5-4l-2.3-1.5l-0.1-1.4l0.8-0.2c-1.2-1.9-2.5-3.6-3.9-5.2l-6.3,6.3C149.2,182,149.8,182.8,150.4,183.8
	L150.4,183.8z M151.6,214.9l1.4-2.1l0.7,2.8l-0.4,1.2l0.9,0.9c5.2-5.5,8.3-12.7,8.6-20.4H156l1.2,2.5l1.5,0.3l1.5-0.5l0.2,0.9
	l-0.5,0.2l-1.2-0.5l0.2,0.8l0.4,0.7l-2.2,0.6l-0.8,0.5H155l-0.7-0.3l-0.4,0.1l0.5,0.5l-0.5,0.6l-0.2-0.2l-0.5,0.6l-0.8,0.3
	c-0.5,1.1-1.2,2.2-1.9,3.2l0.5,0.2l0.3-0.6l0.8,0.2l0.3,1.2l0.1,1.2l-0.5,1.2l0.3,0.5l-0.8,1.7l-0.6,0.8L151.6,214.9z M160.7,226.4
	l-6.3-6.3c-0.5,0.5-1,0.9-1.5,1.4l0.6,1h1l1.3,1.4l-1.3,1.7l-0.8,1.8l1.1,0.7v0.6l-1.2,1.1l0.3,0.8l-0.8,1.8
	C155.7,230.7,158.3,228.7,160.7,226.4L160.7,226.4z M173.8,197.2h-9c-0.3,8.1-3.5,15.7-9.2,21.6l2.7,2.7l0.3-0.3l0.2-1.5l0.3-1.2
	l1.5,0.5l-0.3,0.6l0.5,0.2l0.7,3.5l-0.7,0.8l1.2,1.2C169.3,217.6,173.5,207.7,173.8,197.2L173.8,197.2z M169.5,232.7
	c9.3-9.5,14.7-22.2,15-35.5h-9c-0.2,10.9-4.6,21.3-12.3,29.2L169.5,232.7z M115.7,211.5c-3.7-3.9-5.9-8.9-6.2-14.2H108l0.5,0.7
	l-0.5,2.6l0.1,1.5v0.7l0.3,0.4l-0.2,1.1h-0.3l-0.6-1.2l-0.4-1l0.2-0.2l0.4,0.5l0.5-0.3l-0.8-1.7l0.2-0.4l0.5-2.1l-0.3-0.6h-2.1
	l-0.5,0.7h-1.2l-0.5,1.2l0.5,1l-0.5,1.3l1.1,0.5l1.3,2.5l-0.2,1.3l1.1,2.1l0.2,3.4l0.9,2.2l-0.3,2.2c0.5,0.7,1.2,1.4,1.9,2.1
	L115.7,211.5z M107.3,195.4h2.2c0.1-1,0.2-2.1,0.3-3.1l-0.3-0.3l-1.9-0.3l-1.1,0.6l-0.2,1.8L107.3,195.4z M113.8,199.7h-1.2
	l-1.3-1.4c0.5,4.5,2.5,8.6,5.6,11.9l6.3-6.3c-0.8-0.9-1.5-2-2.1-3.2l-0.4,1.9l-0.7,0.5l0.2,0.4l-0.9,0.5l-0.6-1.2l1.4-0.4l-0.8-1.1
	l-0.8-0.8l-0.7,1.2l0.1,0.9l-1.3-0.8l0.5-0.4l-1.2-0.8l-0.5,0.2L113.8,199.7z M100.5,195.5h4l0.2-1.5l1.1-1.2l-0.4-0.7l1.9-3.6
	l1.3,0.2l1.4-1.1h0.5l0.9-0.6l0.2-0.3l-1.1,0.2l-1.2,0.2l0.9-0.8h0.3l0.9-0.2h0.5c0.8-1.8,2-3.4,3.3-4.9l-6.3-6.3
	C103.6,180.3,100.6,187.7,100.5,195.5L100.5,195.5z M100.5,197.3c0.1,1.4,0.2,2.9,0.5,4.2l0.1,0.1h1.5l0.8-1.3l-0.8-0.8l0.6-2.2
	H100.5z M99.8,223.2c0.6,0.8,1.2,1.5,1.9,2.2l1.5-1.5l-0.4-0.3l-2-1.2L99.8,223.2z M89.8,197.2c0.2,4,0.8,7.9,2,11.7h1.3l2.3-0.8
	l-0.1-4l2.3-2.9l0.2-1.1l1.1-0.2c-0.2-0.9-0.2-1.8-0.2-2.6L89.8,197.2z M79.1,195.5h9c0.2-11,4.5-21.7,12.1-29.6l-6.3-6.3
	C84.5,169.2,79.2,182,79.1,195.5z M79.1,197.3c0.3,13.4,5.7,26.1,15.1,35.6l6.3-6.3c-2.4-2.4-4.4-5.1-6.2-7.9l-0.3,1.3l-1-0.3
	l-1.7-2.8l-0.8-0.2l-0.6-0.8v-1.1l-0.2-0.2l-0.6,0.5l-1.4-0.4l-0.2-0.8l-0.5-0.3v1.5l-0.3-0.2l-1.4-2l-0.8-0.2l0.2,0.8l-0.3,0.3
	l0.3,1.4l1.5,2.8l-0.5-0.2l-0.9-1.5l-1.9-4.6l-0.2-2.5l0.6-1.1l1.7-0.7l0.5,0.5l-0.6,0.5l2.3,0.5l-0.8-1.1l2.5,0.2l0.5,0.5l0.5,0.1
	c-1.2-3.7-1.9-7.6-1.9-11.5L79.1,197.3z M158.6,156.2l-0.5-0.8l-1.2-0.6l-0.9,0.7l1.2,0.6l1.3,0.9L158.6,156.2z M82.4,156
	c3-3.6,4-8.6,8.8-12.1c-9.8,2.1-18,10.7-20.2,21.4C74.1,161.6,79.4,159.5,82.4,156z M183.7,239.6c5.6-7.8,2.1-16,3.2-21.7
	c-9,13.6-4.1,19.4-10.1,28.1c7.4-5.2,23.7-0.3,29.9-24.5C201.8,231.4,189.5,233.1,183.7,239.6z M239.7,195.7l6.2-32.3h0.1l5.9,32.3
	h8.6l8.1-39.4h-6.6l-5.8,30.3h-0.1l-5.9-30.3h-8.8l-5.9,30.3h-0.1l-5.6-30.3h-6.8l8,39.4H239.7z M254.8,226.4
	c0,14.1-7.5,20.2-15.7,20.2c-8.2,0-15.7-6.1-15.7-20.2c0-14.1,7.5-20.2,15.7-20.2C247.3,206.1,254.8,212.2,254.8,226.4z
	 M247.4,226.4c0-10.9-3.7-14.7-8.3-14.7c-4.6,0-8.3,3.9-8.3,14.7c0,10.8,3.7,14.7,8.3,14.7C243.7,241.1,247.4,237.2,247.4,226.4z
	 M191,201.9c-4.9,13,1.5,17.7-2.1,31.2c4.3-5.9,21.4-9,21.5-30.3c-2.6,7.8-11.6,12-17.4,23.3C196.4,212.8,191.4,209.2,191,201.9z
	 M100.7,255.7c-5-6.9-1.6-10.9-15.7-23.5c3,4.6-0.1,10.4,9.4,19.4c-9.3-5.5-22.1-3.2-28.3-10.5C76.8,261.5,95.4,253.1,100.7,255.7z
	 M264.1,222.3L264.1,222.3c-0.1-1.8-0.2-3.6-0.3-5.3h-6.3c0.2,1.6,0.2,3.2,0.2,4.8v24.3h6.9v-15.9c0-5.4,3.2-7.2,6-7.2
	c0.7,0,1.4,0.2,2,0.3v-6.6c-0.4-0.1-0.8-0.2-1.2-0.2C267.2,216.6,265,220.1,264.1,222.3L264.1,222.3z M161.2,256.7
	c-5-1.3-10.2-2.2-15.4-2.3c-4.8-0.1-9.6,0.7-14,2.4c-4.5-1.7-9.3-2.5-14-2.4c-5.2,0.2-10.4,1-15.4,2.3c-8.5,2.2-15.8,4-22.2,0.8
	c6.1,5.4,13.3,7.4,23.6,6.3c8.6-0.9,15.5-5.2,23.6-5.2h0.3c-5.1,2.5-9.6,6.1-13.4,10.4l3.9,0.5c0,0,4.1-8.3,13.6-10.4
	c9.5,2.2,13.6,10.4,13.6,10.4l3.9-0.5c-3.7-4.3-8.3-7.9-13.4-10.4h0.3c8.1-0.1,15,4.2,23.6,5.2c10.3,1.1,17.4-0.8,23.6-6.3
	C177,260.7,169.7,258.9,161.2,256.7z M169,251.6c9.5-9,6.4-14.8,9.4-19.4c-14.1,12.6-10.6,16.5-15.7,23.5c5.3-2.5,24,5.8,34.6-14.6
	C191.1,248.5,178.2,246.1,169,251.6z"/>
</svg>
