<?xml version="1.0" encoding="utf-8" ?><svg xmlns="http://www.w3.org/2000/svg" xmlns:xlink="http://www.w3.org/1999/xlink" width="1024" height="1024" viewBox="0 0 1024 1024"><path fill="#080717" d="M477.65 70.4557C479.064 69.6646 490.351 69.4838 492.722 69.3944C532.094 67.9099 577.205 71.6612 615.173 82.3965C644.8 90.7736 681.364 105.45 707.69 121.725C710.93 123.728 715.948 126.168 718.657 128.357C709.351 139.898 623.133 236.231 622.892 238.661C623.665 239.696 623.583 240.244 624.806 240.269C654.719 240.9 685.149 239.526 715.015 240.509L715.101 339.904C715.097 345.564 714.368 391.184 715.957 393.56L717.922 394.654C716.713 398.988 717.555 422.181 717.405 427.9C717.004 443.174 717.173 458.722 717.478 473.988C715.356 475.071 703.797 480.758 702.018 481.014C677.343 494.392 655.902 518.815 646.389 545.207C649.098 547.127 652.212 549.449 655.022 551.125C667.572 518.423 691.177 490.494 726.742 483.303C726.92 524.177 726.882 565.051 726.628 605.925C717.132 605.736 707.204 605.391 697.738 605.434L697.776 615.423C707.377 615.863 716.983 616.18 726.592 616.375L726.807 677.67C726.81 689.134 727.067 701.803 726.609 713.189C706.248 713.157 685.888 713.245 665.528 713.456L665.522 723.207C685.903 723.431 706.285 723.505 726.668 723.43L726.891 819.353C706.391 819.705 685.91 820.774 665.485 822.56L665.512 833.07C687.947 831.145 704.285 830.005 726.968 830.095L726.932 910.893C726.931 923.652 727.38 939.402 726.893 951.968C722.956 952.98 713.447 949.027 709.439 947.493C708.179 948.887 708.055 949.717 707.53 951.456C705.56 952.583 689.321 951.757 685.549 951.797L611.185 952.524L276.07 951.944L175.768 951.983C170.331 951.982 136.362 952.877 134.22 950.567C134.153 949.432 133.986 947.669 134.041 946.59L134.552 946.118L134.538 945.826L135.204 948.972L135.895 949.373C143.718 949.453 151.861 949.177 159.708 949.015C169.782 949.278 187.479 949.558 197.285 948.959C207.095 948.979 217.569 949.169 227.333 949.016L226.747 948.414C229.743 947.763 240.25 947.819 243.762 947.765L282.982 947.377C363.775 945.756 444.593 945.787 525.385 947.469C532.394 947.575 570.311 947.412 574.281 948.979C569.771 949.064 565.26 949.121 560.749 949.151C591.063 950.225 622.118 948.704 652.483 949.366C657.242 949.47 662.575 949.505 667.332 949.343L691.986 949.538C695.994 949.563 702.732 949.421 706.527 949.854C706.652 938.712 706.451 927.131 706.405 915.956C694.678 915.287 678.794 915.661 667.008 916.055C647.05 915.826 626.766 916.02 606.779 916.011C594.367 916.006 579.422 915.604 567.171 916.106C514.693 915.243 461.323 916.555 408.794 916.017C390.402 915.829 371.616 916.361 353.279 915.913C350.426 915.184 335.387 915.464 331.656 915.477L289.501 915.502L191.634 915.495C172.144 915.428 154.809 914.74 134.941 915.25L134.522 914.797C135.682 914.004 138.423 914.202 139.976 914.172C142.853 912.184 148.688 913.002 152.292 913.005L177.248 913C177.161 902.304 177.196 888.705 177.145 877.716C177.136 875.924 180.457 876.511 181.87 873.746C181.675 872.396 181.708 871.854 181.055 870.663C180.388 849.005 181.637 827.815 180.274 805.845C179.425 804.413 179.474 804.28 178.039 803.347L177.21 803.542C176.523 804.751 176.258 805.506 175.068 806.219C174.907 806.17 174.746 806.121 174.585 806.072C146.079 775.45 123.624 739.414 106.479 701.326C102.51 692.509 99.2248 687.675 101.402 681.647C88.7881 680.98 75.1196 681.719 62.4237 681.476C57.1382 681.375 51.5859 681.726 46.3422 681.217L46.2562 386.744L46.1513 304.314C46.1377 297.428 45.3589 255.767 47.3935 252.148C54.1149 251.347 75.2243 251.888 82.9828 251.902L153.828 251.85C155.912 251.684 156.276 251.703 158.361 251.97C168.222 251.045 182.142 252.385 193.992 251.345C194.642 250.698 195.004 250.324 195.581 249.614C194.896 248.889 193.134 247.085 193.215 246.201C193.866 239.059 205.711 226.763 210.024 221.555C228.067 199.77 248.019 181.002 269.393 162.588C275.648 157.2 284.59 151.568 291.368 146.759C313.265 131.249 336.787 118.084 361.082 106.741C373.589 100.901 386.304 95.5408 398.619 89.285C401.417 87.8635 409.368 86.2034 410.651 84.5207L410.447 83.7623C416.726 81.8304 430.904 79.494 437.666 78.2389C440.751 77.7391 443.479 77.2853 446.598 77.0189C450.974 78.0906 455.834 79.1125 459.046 75.4545C464.561 74.6868 469.824 75.0544 474.998 73.7392C476.778 73.2869 477.071 71.9006 477.65 70.4557ZM669.914 905.459C670.208 900.26 670.107 893.817 669.905 888.667C670.11 885.299 670.118 881.496 670.198 878.088C664.559 877.928 660.141 877.897 654.475 878.129C652.041 877.99 649.463 878.046 647.015 878.05C598.97 877.407 549.529 877.959 501.367 877.943L197.374 877.986L194.366 878.005C189.097 877.81 184.738 877.686 179.444 877.862C179.317 889.332 179.327 900.803 179.473 912.272C188.922 912.789 210.715 912.581 220.252 912.183L598.17 912.379C603.448 912.895 617.921 912.484 623.555 912.467C638.947 912.488 654.34 912.393 669.731 912.184C670.232 909.89 670.002 907.815 669.914 905.459ZM258.278 573.391C257.93 572.709 257.745 572.519 257.29 571.902C254.546 571.381 252.505 572.131 249.183 571.931L248.627 571.893C247.039 569.36 247.708 569.561 245.471 568.806L244.279 569.08C242.728 571.945 244.959 574.59 247.61 575.416C250.492 576.315 255.808 574.953 258.278 573.391Z"/><path fill="#F8F7FE" d="M477.65 70.4557C479.064 69.6646 490.351 69.4838 492.722 69.3944C532.094 67.9099 577.205 71.6612 615.173 82.3965C644.8 90.7736 681.364 105.45 707.69 121.725C710.93 123.728 715.948 126.168 718.657 128.357C709.351 139.898 623.133 236.231 622.892 238.661C623.665 239.696 623.583 240.244 624.806 240.269C654.719 240.9 685.149 239.526 715.015 240.509L715.101 339.904C715.097 345.564 714.368 391.184 715.957 393.56L717.922 394.654C716.713 398.988 717.555 422.181 717.405 427.9C717.004 443.174 717.173 458.722 717.478 473.988C715.356 475.071 703.797 480.758 702.018 481.014C672.275 480.951 634.443 496.449 608.28 509.426C605.233 510.937 600.313 514.542 597.904 512.439C590.412 507.665 581.011 500.706 573.512 495.562C553.04 481.556 532.644 467.44 512.323 453.215C490.637 439.095 469.841 424.119 448.861 408.997C441.687 403.826 433.908 398.094 426.372 393.532C423.404 395.236 419.479 398.072 416.561 400.059C415.634 351.004 417.009 300.993 416.26 251.707C397.242 251.203 376.689 251.529 357.574 251.531L258.662 251.583L217.338 251.781C211.127 251.801 199.795 252.119 193.992 251.345C194.642 250.698 195.004 250.324 195.581 249.614C194.896 248.889 193.134 247.085 193.215 246.201C193.866 239.059 205.711 226.763 210.024 221.555C228.067 199.77 248.019 181.002 269.393 162.588C275.648 157.2 284.59 151.568 291.368 146.759C313.265 131.249 336.787 118.084 361.082 106.741C373.589 100.901 386.304 95.5408 398.619 89.285C401.417 87.8635 409.368 86.2034 410.651 84.5207L410.447 83.7623C416.726 81.8304 430.904 79.494 437.666 78.2389C440.751 77.7391 443.479 77.2853 446.598 77.0189C450.974 78.0906 455.834 79.1125 459.046 75.4545C464.561 74.6868 469.824 75.0544 474.998 73.7392C476.778 73.2869 477.071 71.9006 477.65 70.4557Z"/><path fill="#FEFEFF" d="M554.698 194.989C560.964 201.388 568.028 210.276 573.992 217.249L608.3 257.119L637.893 291.038C641.65 295.384 650.557 305.538 653.589 310.132C641.108 310.165 628.627 310.116 616.147 309.986C611.628 309.959 601.445 309.657 597.337 310.313C595.92 314.919 596.55 337.571 596.549 344.215L596.635 375.434C596.659 379.63 596.119 392.799 597.937 395.724C598.451 405.908 598.745 510.39 597.904 512.439C590.412 507.665 581.011 500.706 573.512 495.562C553.04 481.556 532.644 467.44 512.323 453.215C513.645 435.206 512.758 414.446 513.085 396.107C513.941 392.855 513.556 370.947 513.568 366.144C513.606 349.957 513.57 333.17 513.483 316.928C513.472 314.912 513.149 312.352 512.602 310.412C507.513 308.776 462.268 309.688 453.764 309.587C456.417 305.518 463.972 297.32 467.532 293.287L498.13 259.186C516.048 239.062 536.4 213.636 554.698 194.989Z"/><path d="M509.547 313.934C495.894 313.659 482.131 314.06 468.473 313.854C464.661 313.797 449.393 314.665 447.734 311.778C449.16 307.726 459.358 296.948 462.712 293.106L493.168 258.733L533.88 212.394C539.793 205.701 545.719 198.88 551.674 192.222C553.196 190.521 553.342 190.411 555.169 190.102C560.659 195.142 570.541 207.059 575.842 213.252C586.993 226.366 598.215 239.419 609.508 252.411C625.456 270.785 641.628 288.986 657.41 307.503C659.231 309.64 660.394 310.799 659.311 313.633C657.187 314.511 606.681 314.059 600.586 314.058C600.134 340.225 600.9 366.641 600.23 392.815C600.19 394.38 599.038 394.897 597.937 395.724C596.119 392.799 596.659 379.63 596.635 375.434L596.549 344.215C596.55 337.571 595.92 314.919 597.337 310.313C601.445 309.657 611.628 309.959 616.147 309.986C628.627 310.116 641.108 310.165 653.589 310.132C650.557 305.538 641.65 295.384 637.893 291.038L608.3 257.119L573.992 217.249C568.028 210.276 560.964 201.388 554.698 194.989C536.4 213.636 516.048 239.062 498.13 259.186L467.532 293.287C463.972 297.32 456.417 305.518 453.764 309.587C462.268 309.688 507.513 308.776 512.602 310.412C513.149 312.352 513.472 314.912 513.483 316.928C513.57 333.17 513.606 349.957 513.568 366.144C513.556 370.947 513.941 392.855 513.085 396.107L510.78 395.205C508.727 393.007 509.527 369.907 509.536 365.16L509.547 313.934Z"/><path fill="#F8F7FE" d="M101.402 681.647C107.403 681.305 114.142 681.338 120.17 681.447C140.157 681.807 160.576 680.908 180.516 681.678L180.465 769.607C180.467 774.621 180.964 802.022 180.274 805.845C179.425 804.413 179.474 804.28 178.039 803.347L177.21 803.542C176.523 804.751 176.258 805.506 175.068 806.219C174.907 806.17 174.746 806.121 174.585 806.072C146.079 775.45 123.624 739.414 106.479 701.326C102.51 692.509 99.2248 687.675 101.402 681.647Z"/><path fill="#FEFEFF" d="M227.333 949.016L226.747 948.414C229.743 947.763 240.25 947.819 243.762 947.765L282.982 947.377C363.775 945.756 444.593 945.787 525.385 947.469C532.394 947.575 570.311 947.412 574.281 948.979C569.771 949.064 565.26 949.121 560.749 949.151L227.333 949.016Z"/><path fill="#FEFEFF" d="M426.286 397.941C428.075 398.363 495.483 446.615 503.547 452.228C547.9 483.098 592.853 513.023 637.512 543.43C656.387 556.281 674.618 570.213 693.732 582.692L693.77 614.084C652.463 613.588 611.153 613.457 569.843 613.69L418.75 613.624L262.823 613.797C228.706 613.547 194.588 613.612 160.472 613.992C160.107 602.577 160.059 591.153 160.33 579.735C164.082 579.645 180.399 581.362 180.925 577.271L179.897 575.967C177.272 575.224 173.58 575.555 170.746 575.625C203.946 553.208 236.866 530.378 269.498 507.141L361.004 443.572C371.3 436.432 381.615 429.129 391.881 421.934C403.178 414.016 414.633 405.247 426.286 397.941ZM248.627 571.893C247.039 569.36 247.708 569.561 245.471 568.806L244.279 569.08C242.728 571.945 244.959 574.59 247.61 575.416C250.492 576.315 255.808 574.953 258.278 573.391C257.93 572.709 257.745 572.519 257.29 571.902C254.546 571.381 252.505 572.131 249.183 571.931L248.627 571.893Z"/><path d="M425.172 437.402C425.345 437.411 425.519 437.405 425.691 437.429C428.274 437.791 455.923 457.822 460.684 461.155L593.448 552.763C598.404 556.244 622.984 572.533 625.896 575.902C626.051 577.499 626.086 576.859 625.404 578.455C623.883 579.591 624.03 579.509 621.747 579.598C613.609 579.916 605.368 579.846 597.225 579.856L555.18 579.879L427.25 579.919L289.558 579.88L249.171 579.798C242.658 579.771 231.836 580.022 225.756 579.111C224.871 576.415 226.4 575.18 228.406 573.739C236.416 567.987 244.808 562.77 252.897 557.126L310.796 516.817L425.172 437.402ZM248.627 571.893C247.039 569.36 247.708 569.561 245.471 568.806L244.279 569.08C242.728 571.945 244.959 574.59 247.61 575.416C250.492 576.315 255.808 574.953 258.278 573.391C257.93 572.709 257.745 572.519 257.29 571.902C254.546 571.381 252.505 572.131 249.183 571.931L248.627 571.893Z"/><path fill="#FEFEFF" d="M245.025 567.241C305.55 525.657 365.852 483.75 425.929 441.521L619.845 575.696C609.929 576.621 590.395 576.025 579.596 576.01L506.41 576.114L255.811 576.053L232.66 575.98C236.263 573.2 241.114 569.474 245.025 567.241ZM248.627 571.893C247.039 569.36 247.708 569.561 245.471 568.806L244.279 569.08C242.728 571.945 244.959 574.59 247.61 575.416C250.492 576.315 255.808 574.953 258.278 573.391C257.93 572.709 257.745 572.519 257.29 571.902C254.546 571.381 252.505 572.131 249.183 571.931L248.627 571.893Z"/><path fill="#F8F7FE" fill-opacity="0.83529413" d="M258.278 573.391C255.808 574.953 250.492 576.315 247.61 575.416C244.959 574.59 242.728 571.945 244.279 569.08L245.471 568.806C247.708 569.561 247.039 569.36 248.627 571.893L249.183 571.931C252.505 572.131 254.546 571.381 257.29 571.902C257.745 572.519 257.93 572.709 258.278 573.391Z"/><path fill="#F8F7FE" d="M245.025 567.241C247.407 567.186 246.741 566.85 248.313 568.049C248.875 569.94 248.775 569.995 248.627 571.893C247.039 569.36 247.708 569.561 245.471 568.806L244.279 569.08C242.728 571.945 244.959 574.59 247.61 575.416C250.492 576.315 255.808 574.953 258.278 573.391L258.995 573.816C258.001 575.071 256.925 575.084 255.811 576.053L232.66 575.98C236.263 573.2 241.114 569.474 245.025 567.241Z"/><path fill="#4690cd" d="M421.97 482.176C443.094 479.956 462.033 495.246 464.315 516.364C466.597 537.482 451.362 556.466 430.251 558.809C409.052 561.163 389.973 545.851 387.682 524.645C385.39 503.44 400.758 484.406 421.97 482.176Z"/><path fill="#FEFEFF" d="M424.578 507.616C431.819 506.841 438.339 512.03 439.209 519.261C440.079 526.492 434.976 533.079 427.757 534.044C423.002 534.68 418.273 532.708 415.379 528.882C412.485 525.057 411.873 519.969 413.777 515.567C415.682 511.164 419.808 508.126 424.578 507.616Z"/><defs><linearGradient id="gradient_0" gradientUnits="userSpaceOnUse" x1="478.71179" y1="796.85919" x2="376.49289" y2="1000.7407"><stop offset="0" stop-color="white" stop-opacity="0.87843138"/><stop offset="1" stop-color="white" stop-opacity="0.97647059"/></linearGradient></defs><path fill="url(#gradient_0)" d="M197.374 877.986L501.367 877.943C549.529 877.959 598.97 877.407 647.015 878.05C644.125 878.319 639.847 879.497 639.692 882.956C642.464 886.22 655.345 885.905 659.63 888.021C660.231 888.897 660.745 893.782 661.134 894.42C662.656 896.915 664.254 903.977 661.032 906.101C657.548 908.397 644.591 907.744 640.004 908.173C634.935 908.648 629.695 909.808 625.329 909.776C627.349 910.041 633.585 909.948 634.375 910.396C631.409 911.012 630.186 911.063 627.247 911.179L631.617 911.686C624.249 912.518 614.319 911.826 606.764 912.151C605.132 912.221 599.34 912.11 598.17 912.379L220.252 912.183C216.404 912.132 197.695 912.729 196.403 910.326L197.133 908.841C191.249 906.93 192.397 907.266 191.981 902.157C191.352 894.438 195.322 893.194 198.242 887.228C200.031 883.572 198.512 880.995 197.374 877.986Z"/><path fill="#FEFEFF" d="M194.132 617.489C215.584 617.177 238.023 617.559 259.544 617.591L373.42 617.588L659.912 617.618C659.994 628.66 659.927 639.703 659.713 650.743L522.099 650.989L194.007 650.827C193.971 639.715 194.013 628.602 194.132 617.489Z"/><path fill="#4690cd" d="M100.804 314.242C115.485 313.984 209.456 312.648 217.165 315.217C217.767 317.107 217.962 319.334 217.962 321.324C217.965 354.942 217.977 388.575 217.947 422.194C217.943 425.925 218.847 430.945 215.046 432.471L138.678 432.608C131.409 432.62 103.884 433.241 98.7196 431.724C97.1877 428.818 97.6352 392.316 97.6216 386.597C97.5489 369.641 97.5833 352.685 97.7248 335.729C97.7896 329.926 97.7444 323.977 97.7126 318.161C97.6974 315.382 98.2956 314.725 100.804 314.242Z"/><path fill="#FEFEFF" d="M142.631 336.214C152.493 335.944 164.488 336.036 174.33 336.312C174.262 343.877 174.254 351.443 174.304 359.009L194.924 359.003L194.915 389.771C188.141 389.808 181.169 389.653 174.379 389.581L174.41 412.479L142.662 412.48C142.603 404.935 142.72 397.216 142.75 389.657C136.183 389.797 129.613 389.821 123.045 389.73L122.914 359.027L142.505 358.962L142.631 336.214Z"/><path fill="#FEFEFF" d="M565.501 654.935L625.285 654.876C625.554 694.16 625.493 733.445 625.103 772.728L625.318 874.15C622.88 874.468 609.79 874.228 606.769 874.225L565.919 874.209L565.501 654.935Z"/><path fill="#FEFEFF" d="M397.291 654.899L456.196 654.938L456.191 874.168L397.383 874.172C397.011 830.406 396.894 786.637 397.031 742.869C397.008 715.064 396.233 682.431 397.291 654.899Z"/><path fill="#FEFEFF" d="M280.577 654.747L285.929 654.818L285.949 874.041L234.625 874.189L227.888 874.234C227.381 801.116 227.312 727.994 227.681 654.874L280.577 654.747Z"/><path fill="#FEFEFF" d="M155.069 490.754L226.014 490.592L246.995 490.525C251.201 490.475 260.42 488.791 261.744 494.058L261.031 494.958C257.243 496.684 210.37 495.919 202.75 495.905L131.088 495.938L110.605 495.912C107.838 495.926 98.8407 496.619 97.0792 495.009C96.5324 493.357 96.4427 493.452 96.9049 491.805C98.6355 490.19 114.166 490.812 117.459 490.807L155.069 490.754Z"/><path fill="#FEFEFF" d="M272.811 315.545C301.554 314.654 331.402 315.648 360.225 315.595C361.386 315.592 361.849 316.489 362.371 317.293C362.412 319.127 362.286 319.098 361.349 320.609C354.842 321.132 346.017 320.878 339.365 320.873L305.156 320.898C295.278 320.908 283.699 321.094 273.689 320.677C272.393 320.623 272.066 319.833 271.526 318.981C271.582 317.076 271.753 317.08 272.811 315.545Z"/><path fill="#FEFEFF" d="M273.094 339.235C300.103 338.216 327.929 339.587 355.032 338.99C357.707 338.931 361.363 339.101 362.142 341.973C361.464 343.327 361.309 343.254 360.023 344.138C333.089 345.217 305.114 343.654 278.079 344.483C275.37 344.566 271.434 344.366 270.863 341.331C271.667 340.016 271.769 340.096 273.094 339.235Z"/><path fill="#F8F7FE" fill-opacity="0.58431375" d="M647.015 878.05C649.463 878.046 652.041 877.99 654.475 878.129C656.299 882.352 658.354 882.396 662.543 883.687C665.226 886.943 665.573 887.848 669.905 888.667C670.107 893.817 670.208 900.26 669.914 905.459C667.691 906.437 664.616 907.786 663.374 909.864L663.475 911.089C665.408 912.63 667.059 912.222 669.731 912.184C654.34 912.393 638.947 912.488 623.555 912.467C617.921 912.484 603.448 912.895 598.17 912.379C599.34 912.11 605.132 912.221 606.764 912.151C614.319 911.826 624.249 912.518 631.617 911.686L627.247 911.179C630.186 911.063 631.409 911.012 634.375 910.396C633.585 909.948 627.349 910.041 625.329 909.776C629.695 909.808 634.935 908.648 640.004 908.173C644.591 907.744 657.548 908.397 661.032 906.101C664.254 903.977 662.656 896.915 661.134 894.42C660.745 893.782 660.231 888.897 659.63 888.021C655.345 885.905 642.464 886.22 639.692 882.956C639.847 879.497 644.125 878.319 647.015 878.05Z"/><path fill="#FEFEFF" d="M272.268 362.552C288.822 361.785 310.716 362.507 327.686 362.496L349.116 362.447C352.56 362.439 360.247 361.572 362.32 364.052C362.282 366.27 362.435 365.439 361.216 367.461C335.006 368.411 307.908 366.966 281.624 367.706C278.897 367.783 272.88 368.318 271.177 366.234C271.065 364.261 271.275 364.226 272.268 362.552Z"/><path fill="#F8F7FE" fill-opacity="0.41176471" d="M194.366 878.005L197.374 877.986C198.512 880.995 200.031 883.572 198.242 887.228C195.322 893.194 191.352 894.438 191.981 902.157C192.397 907.266 191.249 906.93 197.133 908.841L196.403 910.326C197.695 912.729 216.404 912.132 220.252 912.183C210.715 912.581 188.922 912.789 179.473 912.272C181.604 912.198 187.681 912.21 189.227 911.194L188.653 909.897C187.967 909.405 185.393 907.612 185.151 906.957C181.778 897.857 183.912 893.033 185.194 884.804C186.053 884.677 186.911 884.544 187.768 884.404C192.822 883.623 193.225 882.932 194.366 878.005Z"/><path fill="#FEFEFF" d="M162.306 519.209C168.715 518.975 200.889 518.551 205.348 519.786C207.017 522.048 206.703 523.311 204.376 524.761C192.071 525.333 177.662 524.354 165.123 524.643C162.948 524.694 162.034 524.599 160.831 523.283C160.356 520.733 159.98 520.37 162.306 519.209Z"/><path fill="#FEFEFF" d="M96.8689 549.002C109.036 548.911 130.332 548.673 143.227 549.126C143.655 549.415 144.082 549.704 144.51 549.992C145.119 551.863 144.884 551.374 144.229 553.647C140.348 554.423 98.869 554.525 97.212 553.483C96.4082 552.02 96.7376 550.723 96.8689 549.002Z"/><path fill="#FEFEFF" d="M98.2975 519.153C108.51 518.809 118.953 519.136 129.19 518.963C132.185 518.912 136.899 518.748 138.455 521.594C138.055 523.695 138.469 522.708 136.806 524.479C126.84 524.516 116.795 524.57 106.823 524.553C103.504 524.547 97.8231 525.095 96.5271 521.67C97.0268 520.102 97.0196 520.222 98.2975 519.153Z"/><path fill="#FEFEFF" d="M162.606 548.727C167.933 548.706 196.397 546.921 197.541 551.216C196.514 553.593 195.369 553.77 193.125 554.068C187.554 554.088 159.684 555.711 157.502 551.337L158.101 550.151C159.67 548.888 160.505 548.998 162.606 548.727Z"/><defs><linearGradient id="gradient_1" gradientUnits="userSpaceOnUse" x1="941.75262" y1="508.24228" x2="624.12885" y2="555.8219"><stop offset="0" stop-color="#FEFEFD" stop-opacity="0.78823531"/><stop offset="1" stop-color="#FFFEFF"/></linearGradient></defs><path fill="url(#gradient_1)" d="M724.181 128.101L724.029 129.006C723.82 130.22 723.599 130.993 723.262 132.174C724.074 134.211 725.006 133.671 727.164 133.554C730.187 135.245 729.845 136.887 733.612 135.832C737.065 134.857 740.395 132.573 743.947 132.117C747.339 131.681 751.276 134.209 754.333 134.51C766.177 135.661 778.328 134.819 789.85 138.161C791.033 138.504 799.008 140.474 799.442 140.468C816.821 140.22 809.636 154.67 813.689 158.622L813.994 158.934C821.483 166.705 829.722 178.125 837.68 186.094C838.859 187.275 841.867 188.18 843.205 189.275C843.729 189.704 843.219 190.913 844.725 191.375C845.853 188.455 844.629 184.483 844.754 181.08C848.062 184.176 861.963 199.054 863.719 202.854C868.091 206.578 882.433 221.46 876.586 227.574C873.059 231.263 856.404 229.857 853.298 235.729C854.566 236.214 854.812 236.211 856.175 236.414L849.358 236.459L820.333 236.385C818 236.385 816.057 236.167 813.924 237.02C812.758 238.285 812.833 238.888 812.823 240.977C812.786 248.492 812.846 256.098 812.853 263.612L812.939 311.656L812.98 362.843C812.975 372.343 812.926 381.895 813.059 391.395C813.086 393.365 813.579 394.002 814.666 395.514C815.856 399.578 815.518 418.31 815.533 423.575C815.612 446.144 815.567 468.713 815.4 491.281C814.739 491.995 814.955 491.915 814.139 492.345C795.454 486.081 779.87 483.143 760.342 480.903C762.688 482.08 765.182 483.192 767.269 484.749C765.625 486.17 765.689 486.087 764.686 488.013C763.299 488.917 763.195 489.116 761.541 489.433C761.586 490.51 761.686 491.888 761.677 492.936C759.81 492.542 753.023 489.133 750.957 488.132C745.952 485.707 742.797 484.439 737.45 482.896L737.414 605.694C756.28 605.35 772.618 603.437 791.111 602.283L792.213 602.766C788.894 604.688 780.487 606.646 776.51 607.766C778.842 608.443 781.033 607.026 783.695 607.158C786.961 607.144 789.019 606.764 791.926 605.393C800.015 601.577 809.608 604.033 818.129 604.024C821.376 604.02 823.055 599.959 827.168 602.966L827.385 603.879C826.844 604.377 813.276 608.069 811.831 608.116C804.876 608.343 785.004 608.165 778.93 611.977C785.812 611.892 806.037 607.868 810.87 610.3C790.494 612.933 758.283 615.913 737.479 616.029L737.448 713.294L844.88 713.276C844.643 701.946 844.13 690.623 843.345 679.318L843.777 678.552C845.507 683.094 844.905 693.763 845.731 698.941C846.039 700.872 845 704.52 845.685 706.734C846.467 709.259 848.265 712.156 851.184 711.696C855.541 707.868 852.939 697.843 854.416 692.337C854.589 699.345 854.826 706.351 855.128 713.355L932.319 713.311C943.406 713.304 962.606 712.775 972.919 713.523C971.459 717.648 968.35 718.301 970.031 723.335C960.179 724.205 941.141 723.586 930.547 723.57L855.466 723.484C855.232 730.503 854.585 737.676 854.405 744.553C851.916 735.159 857.66 736.937 850.007 726.496L849.924 725.711L849.683 726.071L849.535 725.822L850.29 725.565L850.446 724.845C848.959 724.616 848.935 724.74 847.445 725.137C846.184 727.339 848.406 728.007 847.617 730.949C844.008 734.827 845.884 737.582 844.411 742.592L844.643 723.526L737.365 723.456C737.166 755.403 737.528 787.177 736.984 819.131C758.381 819.905 781.488 821.133 802.577 824.622C798.918 826.1 791.914 824.643 789.493 826.482L789.068 827.355C790.921 828.948 792.872 827.749 794.3 829.346L793.784 830.002C791.589 830.174 788.619 829.613 787.63 830.074C792.548 832.584 796.287 832.541 800.497 834.031C800.456 834.232 800.414 834.433 800.373 834.634C780.163 832.375 757.784 830.355 737.425 830.442L737.411 911.409C737.407 922.587 737.986 941.54 737.259 951.965C732.75 950.966 730.757 949.817 726.893 951.968C727.38 939.402 726.931 923.652 726.932 910.893L726.968 830.095C704.285 830.005 687.947 831.145 665.512 833.07L665.485 822.56C685.91 820.774 706.391 819.705 726.891 819.353L726.668 723.43C706.285 723.505 685.903 723.431 665.522 723.207L665.528 713.456C685.888 713.245 706.248 713.157 726.609 713.189C727.067 701.803 726.81 689.134 726.807 677.67L726.592 616.375C716.983 616.18 707.377 615.863 697.776 615.423L697.738 605.434C707.204 605.391 717.132 605.736 726.628 605.925C726.882 565.051 726.92 524.177 726.742 483.303C691.177 490.494 667.572 518.423 655.022 551.125C652.212 549.449 649.098 547.127 646.389 545.207C655.902 518.815 677.343 494.392 702.018 481.014C703.797 480.758 715.356 475.071 717.478 473.988C717.173 458.722 717.004 443.174 717.405 427.9C717.555 422.181 716.713 398.988 717.922 394.654C718.965 392.836 719.229 391.934 719.245 389.775C719.329 378.45 719.257 367.044 719.247 355.725L719.235 290.258L719.246 256.138C719.246 251.926 719.499 241.04 718.773 237.589C717.623 236.483 717.278 236.41 715.246 236.376C705.786 236.217 696.121 236.317 686.667 236.336L629.722 236.385C644.782 217.943 662.931 198.502 678.638 180.354C693.149 163.586 709.258 144.109 724.181 128.101Z"/><path fill="#F8F7FE" d="M817.012 240.782C819.555 240.706 822.99 240.442 825.408 240.895C838.201 250.19 865.452 299.059 873.63 315.203C898.366 363.035 915.304 414.51 923.805 467.684C928.594 497.825 929.706 524.162 929.216 554.652C929.176 557.11 929.556 565.037 929.088 566.74L928.609 566.678L927.726 565.294L927.046 565.299L926.381 566.082L924.309 565.463C912.71 571.196 900.339 577.257 888.128 581.577C872.383 587.147 855.541 590.931 839.316 595.111C838.108 589.967 836.991 586.028 835.447 581.018L834.969 580.243C834.673 578.323 832.761 573.121 832.037 571.008C830.405 566.655 828.701 562.329 826.925 558.032C825.205 554.085 823.969 551.123 821.769 547.452C821.097 545.712 818.95 542.173 817.947 540.409L816.689 538.418C806.757 518.074 787.496 495.118 767.269 484.749C765.182 483.192 762.688 482.08 760.342 480.903C779.87 483.143 795.454 486.081 814.139 492.345C814.955 491.915 814.739 491.995 815.4 491.281C815.567 468.713 815.612 446.144 815.533 423.575C815.518 418.31 815.856 399.578 814.666 395.514C816.945 393.809 817.115 393.76 817.139 390.769C817.257 376.018 817.07 361.23 817.105 346.478L817.012 240.782Z"/><path fill="#080717" d="M760.342 480.903C779.87 483.143 795.454 486.081 814.139 492.345C851.404 506.392 876.845 520.121 906.279 547.824C911.347 552.595 920.482 560.088 924.309 565.463C912.71 571.196 900.339 577.257 888.128 581.577C872.383 587.147 855.541 590.931 839.316 595.111C838.108 589.967 836.991 586.028 835.447 581.018L834.969 580.243C834.673 578.323 832.761 573.121 832.037 571.008C830.405 566.655 828.701 562.329 826.925 558.032C825.205 554.085 823.969 551.123 821.769 547.452C821.097 545.712 818.95 542.173 817.947 540.409L816.689 538.418C806.757 518.074 787.496 495.118 767.269 484.749C765.182 483.192 762.688 482.08 760.342 480.903Z"/><path fill="#080717" d="M970.031 723.335L979.549 723.637C979.763 768.423 957.216 831.454 927.923 865.263C902.043 851.097 882.237 841.837 852.852 835.215C849.383 834.098 845.164 833.05 841.603 832.068C845.913 812.425 848.758 799.514 851.101 779.329C852.4 776.529 854.416 748.413 854.405 744.553C854.585 737.676 855.232 730.503 855.466 723.484L930.547 723.57C941.141 723.586 960.179 724.205 970.031 723.335Z"/><path fill="#080717" d="M930.579 574.08C933.015 577.569 948.757 602.194 949.413 602.613L949.53 602.554C950.617 603.092 951.599 603.52 952.607 604.193C951.986 610.734 958.23 619.553 960.938 625.778C963.667 632.052 965.997 637.813 968.209 644.308C975.73 666.526 979.622 689.812 979.735 713.269L972.919 713.523C962.606 712.775 943.406 713.304 932.319 713.311L855.128 713.355C854.826 706.351 854.589 699.345 854.416 692.337C854.607 689.91 853.612 678.279 853.417 675.326L853.25 673.618L852.52 666.114C852.364 663.522 851.843 659.955 851.527 657.299C851.514 655.301 851.237 653.916 850.92 651.935C850.957 646.917 848.29 633.073 847.377 627.97L846.277 623.124C845.364 619.096 844.364 615.087 843.278 611.101L841.507 604.889C866.585 601.041 908.769 586.974 930.579 574.08Z"/><path fill="#F8F7FE" fill-opacity="0.89411765" d="M353.279 915.913C371.616 916.361 390.402 915.829 408.794 916.017C461.323 916.555 514.693 915.243 567.171 916.106C580.185 918.426 600.228 916.06 613.963 917.254C620.153 917.792 625.332 916.695 631.878 918.126L631.763 918.369C622.965 918.941 595.772 916.83 589.466 919.705C596.621 920.544 614.965 920.266 620.696 921.996C622.221 922.359 623.287 922.634 624.773 923.126L624.625 923.625C620.953 924.843 616.189 925.578 613.122 927.17C611.823 929.966 615.963 929.577 617.026 932.639C616.416 934.078 615.133 934.737 613.816 935.691L613.778 936.535C616.978 939.395 624.812 939.656 629.61 941.18C622.743 942.748 617.94 943.462 610.907 943.951C605.779 944.307 598.134 944.224 593.426 945.73C594.369 946.195 594.089 946.074 595.133 946.275L594.669 946.48C597.048 947.178 598.843 947.93 601.289 947.735C599.729 948.893 577.413 949.392 574.281 948.979C570.311 947.412 532.394 947.575 525.385 947.469C444.593 945.787 363.775 945.756 282.982 947.377L243.762 947.765C240.25 947.819 229.743 947.763 226.747 948.414L227.333 949.016C217.569 949.169 207.095 948.979 197.285 948.959C191.155 947.197 182.398 949.566 177.401 947.424C180.161 947.685 182.242 946.971 184.786 947.378C186.394 947.635 186.939 947.689 188.576 947.661L188.517 947.198C183.798 944.746 177.571 944.801 172.118 943.849C166.774 942.914 161.459 941.826 156.177 940.588C154.063 928.129 157.805 931.616 166.518 930.785C167.156 930.724 174.156 926.858 175.568 926.161C173.76 924.962 169.915 926.406 167.867 925.066L167.981 924.5C171.139 923.339 174.731 924.399 177.567 923.606C184.629 921.631 191.946 919.861 198.994 918.005C196.781 918.055 195.735 918.051 193.548 917.779L193.425 917.473C197.05 917.331 200.006 917.121 203.614 916.745C200.116 916.648 197.71 916.494 194.238 916.085L299.823 916.014C316.62 916.01 336.69 916.53 353.279 915.913Z"/><path fill="#080717" d="M810.87 610.3C816.898 609.684 824.555 607.863 830.63 607.709C831.548 607.685 831.548 608.204 832.323 609.294C832.42 612.01 835.045 621.892 835.784 625.107C835.905 625.729 836.043 626.863 836.345 627.401C837.367 635.961 839.042 644.613 840.158 653.223L841.196 660.28C841.461 663.278 841.839 665.979 842.267 668.953L842.384 669.267C842.526 671.242 842.857 677.832 843.345 679.318C844.13 690.623 844.643 701.946 844.88 713.276L737.448 713.294L737.479 616.029C758.283 615.913 790.494 612.933 810.87 610.3Z"/><path fill="#080717" d="M737.365 723.456L844.643 723.526L844.411 742.592C843.786 745.356 842.943 761.023 842.576 765.022C841.292 778.218 839.513 791.36 837.243 804.422C835.4 812.863 833.378 821.264 831.181 829.62C825.771 828.548 820.343 827.572 814.898 826.694L809.9 825.703L806.404 825.281C805.131 825.047 803.855 824.827 802.577 824.622C781.488 821.133 758.381 819.905 736.984 819.131C737.528 787.177 737.166 755.403 737.365 723.456Z"/><path fill="#080717" d="M737.425 830.442C757.784 830.355 780.163 832.375 800.373 834.634C802.354 835.141 802.817 835.205 804.866 835.341C811.963 836.474 822.393 837.925 829.103 840.129C823.817 856.59 817.983 872.763 810.692 888.464C808.012 894.235 804.807 899.067 802.131 904.43C801.12 905.351 798.221 909.971 797.594 911.251C795.334 914.423 791.656 919.25 789.711 922.433L789.314 923.077C779.28 933.088 781.958 933.069 768.787 942.032C762.101 946.011 744.868 954.366 737.259 951.965C737.986 941.54 737.407 922.587 737.411 911.409L737.425 830.442Z"/><path fill="#080717" d="M737.45 482.896C742.797 484.439 745.952 485.707 750.957 488.132C753.023 489.133 759.81 492.542 761.677 492.936C778.373 504.188 786.328 511.783 798.437 528.419C802.135 534.406 806.122 539.726 809.406 545.977L813.38 553.519C815.631 558.225 817.742 562.997 819.709 567.828L821.244 571.516C822.809 576.163 824.403 580.799 826.026 585.425L826.845 587.544L827.543 587.469C828.46 589.135 829.54 591.378 830.968 592.572C831.755 594.827 831.801 595.109 831.498 597.474L830.787 598.305C829.713 597.758 830.103 598.127 829.523 597.309C818.692 598.578 801.597 600.536 791.111 602.283C772.618 603.437 756.28 605.35 737.414 605.694L737.45 482.896Z"/><path fill="#FEFEFF" d="M826.845 587.544L827.543 587.469C828.46 589.135 829.54 591.378 830.968 592.572C831.755 594.827 831.801 595.109 831.498 597.474L830.787 598.305C829.713 597.758 830.103 598.127 829.523 597.309C828.806 594.219 827.713 590.643 826.845 587.544Z"/><path fill="#080717" d="M838.898 842.336C842.017 843.101 845.145 843.823 848.284 844.502C875.09 852.26 896.4 858.771 920.366 873.8C893.845 907.323 841.648 939.105 800.56 949.755C787.903 953.035 778.298 954.122 765.877 956.096C770.713 953.479 775.933 950.654 779.952 946.834C782.037 945.562 782.877 944.7 784.671 943.061C785.721 942.129 786.649 941.156 787.637 940.161C791.817 936.159 796.818 929.644 800.405 925.026L803.278 921.161C806.112 917.06 809.984 911.534 812.151 907.112C823 889.369 832.708 862.11 838.898 842.336Z"/><path d="M718.657 128.357L748.435 93.9006C751.869 89.9527 762.124 77.5952 765.91 75.2286C778.4 89.7656 903.048 232.15 904.923 238.253L904.639 239.2C900.153 241.455 865.829 240.33 857.718 240.622C901.06 300.019 940.307 390.69 949.363 465.727C949.415 466.16 948.681 466.79 948.378 467.108L948.95 466.699L947.74 467.092L946.316 466.291C945.039 460.462 944.436 454.068 943.292 448.057C940.786 435.366 937.87 422.759 934.549 410.256C919.786 354.988 887.452 286.013 852.963 240.519C846.764 240.468 830.732 240.071 825.408 240.895C822.99 240.442 819.555 240.706 817.012 240.782L817.105 346.478C817.07 361.23 817.257 376.018 817.139 390.769C817.115 393.76 816.945 393.809 814.666 395.514C813.579 394.002 813.086 393.365 813.059 391.395C812.926 381.895 812.975 372.343 812.98 362.843L812.939 311.656L812.853 263.612C812.846 256.098 812.786 248.492 812.823 240.977C812.833 238.888 812.758 238.285 813.924 237.02C816.057 236.167 818 236.385 820.333 236.385L849.358 236.459L856.175 236.414C864.854 236.576 873.534 236.69 882.215 236.757C886.799 236.763 894.457 236.458 898.68 237.053C895.412 230.797 878.488 212.09 872.825 205.394C850.553 178.634 827.918 152.177 804.926 126.033L779.705 96.4612C775.594 91.6719 769.531 84.2926 765.027 80.2538C752.701 94.9224 740.149 109.001 727.817 123.88C726.547 125.248 725.237 126.564 724.181 128.101C709.258 144.109 693.149 163.586 678.638 180.354C662.931 198.502 644.782 217.943 629.722 236.385L686.667 236.336C696.121 236.317 705.786 236.217 715.246 236.376C717.278 236.41 717.623 236.483 718.773 237.589C719.499 241.04 719.246 251.926 719.246 256.138L719.235 290.258L719.247 355.725C719.257 367.044 719.329 378.45 719.245 389.775C719.229 391.934 718.965 392.836 717.922 394.654L715.957 393.56C714.368 391.184 715.097 345.564 715.101 339.904L715.015 240.509C685.149 239.526 654.719 240.9 624.806 240.269C623.583 240.244 623.665 239.696 622.892 238.661C623.133 236.231 709.351 139.898 718.657 128.357Z"/><path fill="#F8F7FE" fill-opacity="0.57254905" d="M620.696 921.996C629.109 921.369 645.406 923.025 651.239 922.039L641.706 920.326C643.185 919.117 650.889 918.902 652.396 919.37C661.77 922.282 670.657 929.22 680.914 929C684.616 928.921 695.353 929.167 697.447 932.416C697.777 934.107 697.392 934.641 696.762 936.243C695.519 936.158 695.881 936.231 694.753 935.866C694.331 937.198 694.413 937.145 694.663 938.546C690.754 945.266 673.458 940.295 667.657 941.494C649.959 945.154 632.708 945.033 614.73 945.355C610.665 945.428 605.646 947.575 601.289 947.735C598.843 947.93 597.048 947.178 594.669 946.48L595.133 946.275C594.089 946.074 594.369 946.195 593.426 945.73C598.134 944.224 605.779 944.307 610.907 943.951C617.94 943.462 622.743 942.748 629.61 941.18C624.812 939.656 616.978 939.395 613.778 936.535L613.816 935.691C615.133 934.737 616.416 934.078 617.026 932.639C615.963 929.577 611.823 929.966 613.122 927.17C616.189 925.578 620.953 924.843 624.625 923.625L624.773 923.126C623.287 922.634 622.221 922.359 620.696 921.996Z"/><path fill="#F8F7FE" fill-opacity="0.55686277" d="M727.817 123.88C729.347 125.75 728.424 125.248 730.47 125.78C734.821 125.08 736.994 119.144 739.933 123.92C743.698 125.108 748.72 120.167 751.302 120.276C758.425 120.579 770.636 121.439 777.189 123.42C778.326 123.764 799.631 129.658 798.001 128.583C811.762 137.65 822.833 153.948 833.212 166.706C837.22 171.651 840.519 177.644 844.754 181.08C844.629 184.483 845.853 188.455 844.725 191.375C843.219 190.913 843.729 189.704 843.205 189.275C841.867 188.18 838.859 187.275 837.68 186.094C829.722 178.125 821.483 166.705 813.994 158.934L813.689 158.622C809.636 154.67 816.821 140.22 799.442 140.468C799.008 140.474 791.033 138.504 789.85 138.161C778.328 134.819 766.177 135.661 754.333 134.51C751.276 134.209 747.339 131.681 743.947 132.117C740.395 132.573 737.065 134.857 733.612 135.832C729.845 136.887 730.187 135.245 727.164 133.554C725.006 133.671 724.074 134.211 723.262 132.174C723.599 130.993 723.82 130.22 724.029 129.006L724.181 128.101C725.237 126.564 726.547 125.248 727.817 123.88Z"/><defs><linearGradient id="gradient_2" gradientUnits="userSpaceOnUse" x1="864.07489" y1="569.69427" x2="892.21289" y2="603.65302"><stop offset="0" stop-color="#FFFFFE" stop-opacity="0.93333334"/><stop offset="1" stop-color="white"/></linearGradient></defs><path fill="url(#gradient_2)" d="M924.309 565.463L926.381 566.082C927.418 568.259 929.201 572.372 930.579 574.08C908.769 586.974 866.585 601.041 841.507 604.889L843.278 611.101C840.91 609.218 837.12 607.344 834.012 607.739C833.055 607.861 833.155 608.213 832.323 609.294C831.548 608.204 831.548 607.685 830.63 607.709C824.555 607.863 816.898 609.684 810.87 610.3C806.037 607.868 785.812 611.892 778.93 611.977C785.004 608.165 804.876 608.343 811.831 608.116C813.276 608.069 826.844 604.377 827.385 603.879L827.168 602.966C823.055 599.959 821.376 604.02 818.129 604.024C809.608 604.033 800.015 601.577 791.926 605.393C789.019 606.764 786.961 607.144 783.695 607.158C781.033 607.026 778.842 608.443 776.51 607.766C780.487 606.646 788.894 604.688 792.213 602.766L791.111 602.283C801.597 600.536 818.692 598.578 829.523 597.309C830.103 598.127 829.713 597.758 830.787 598.305L831.498 597.474C831.801 595.109 831.755 594.827 830.968 592.572C832.686 592.696 833.115 592.796 834.844 592.414C836.963 589.994 833.368 586.605 835.447 581.018C836.991 586.028 838.108 589.967 839.316 595.111C855.541 590.931 872.383 587.147 888.128 581.577C900.339 577.257 912.71 571.196 924.309 565.463Z"/><path fill="#F8F7FE" fill-opacity="0.93725491" d="M837.243 804.422C837.86 807.348 837.825 812.607 841.735 812.834C847.186 808.963 845.539 785.536 851.101 779.329C848.758 799.514 845.913 812.425 841.603 832.068C845.164 833.05 849.383 834.098 852.852 835.215C851.324 840.603 847.647 838.158 848.284 844.502C845.145 843.823 842.017 843.101 838.898 842.336C832.708 862.11 823 889.369 812.151 907.112C811.843 905.939 812.306 903.855 812.053 902.057C811.124 900.213 808.872 899.396 806.952 898.383C805.453 901.645 805.282 903.043 802.131 904.43C804.807 899.067 808.012 894.235 810.692 888.464C817.983 872.763 823.817 856.59 829.103 840.129C822.393 837.925 811.963 836.474 804.866 835.341C812.871 833.23 823.878 838.851 826.867 836.96L827.137 835.324C825.518 833.214 825.316 833.118 822.93 831.806C819.717 830.942 817.46 832.348 814.857 829.886C814.59 828.369 814.424 828.173 814.898 826.694C820.343 827.572 825.771 828.548 831.181 829.62C833.378 821.264 835.4 812.863 837.243 804.422Z"/><defs><linearGradient id="gradient_3" gradientUnits="userSpaceOnUse" x1="265.19275" y1="134.0538" x2="320.67514" y2="189.797"><stop offset="0" stop-color="#000001" stop-opacity="0.95294118"/><stop offset="1" stop-color="black"/></linearGradient></defs><path fill="url(#gradient_3)" d="M153.828 251.85C157.301 246.679 170.125 230.766 174.495 225.826C187.003 211.685 203.442 193.643 217.49 180.911C261.227 141.781 312.164 111.54 367.458 91.8766C383.4 86.1567 398.338 81.8701 414.991 78.8078C419.715 77.9391 426.172 76.3173 430.853 75.9645C433.406 77.2124 434.836 78.1978 437.666 78.2389C430.904 79.494 416.726 81.8304 410.447 83.7623C394.062 86.686 376.756 92.0809 361.123 97.8169C301.144 120.08 246.777 155.226 201.854 200.778C191.463 211.355 181.57 222.41 172.205 233.905C167.968 239.176 162.366 247.379 158.361 251.97C156.276 251.703 155.912 251.684 153.828 251.85Z"/><path fill="#F8F7FE" fill-opacity="0.42352942" d="M567.171 916.106C579.422 915.604 594.367 916.006 606.779 916.011C626.766 916.02 647.05 915.826 667.008 916.055L663.857 916.486C663.63 917.343 664.228 918.167 664.667 919.214C671.552 925.22 692.518 921.504 698.126 928.107C699.114 930.71 699.48 934.912 698.246 937.505C696.951 940.225 693.988 941.704 691.245 942.569C688.107 943.558 643.785 948.294 642.793 948.023L642.34 948.524C645.484 949.687 662.951 948.76 667.332 949.343C662.575 949.505 657.242 949.47 652.483 949.366C622.118 948.704 591.063 950.225 560.749 949.151C565.26 949.121 569.771 949.064 574.281 948.979C577.413 949.392 599.729 948.893 601.289 947.735C605.646 947.575 610.665 945.428 614.73 945.355C632.708 945.033 649.959 945.154 667.657 941.494C673.458 940.295 690.754 945.266 694.663 938.546C694.413 937.145 694.331 937.198 694.753 935.866C695.881 936.231 695.519 936.158 696.762 936.243C697.392 934.641 697.777 934.107 697.447 932.416C695.353 929.167 684.616 928.921 680.914 929C670.657 929.22 661.77 922.282 652.396 919.37C650.889 918.902 643.185 919.117 641.706 920.326L651.239 922.039C645.406 923.025 629.109 921.369 620.696 921.996C614.965 920.266 596.621 920.544 589.466 919.705C595.772 916.83 622.965 918.941 631.763 918.369L631.878 918.126C625.332 916.695 620.153 917.792 613.963 917.254C600.228 916.06 580.185 918.426 567.171 916.106Z"/><defs><linearGradient id="gradient_4" gradientUnits="userSpaceOnUse" x1="707.68011" y1="923.96405" x2="642.41589" y2="949.08075"><stop offset="0" stop-color="white" stop-opacity="0"/><stop offset="1" stop-color="white" stop-opacity="0.11372549"/></linearGradient></defs><path fill="url(#gradient_4)" d="M667.008 916.055C678.794 915.661 694.678 915.287 706.405 915.956C706.451 927.131 706.652 938.712 706.527 949.854C702.732 949.421 695.994 949.563 691.986 949.538L667.332 949.343C662.951 948.76 645.484 949.687 642.34 948.524L642.793 948.023C643.785 948.294 688.107 943.558 691.245 942.569C693.988 941.704 696.951 940.225 698.246 937.505C699.48 934.912 699.114 930.71 698.126 928.107C692.518 921.504 671.552 925.22 664.667 919.214C664.228 918.167 663.63 917.343 663.857 916.486L667.008 916.055Z"/><path d="M181.055 870.663C181.708 871.854 181.675 872.396 181.87 873.746C180.457 876.511 177.136 875.924 177.145 877.716C177.196 888.705 177.161 902.304 177.248 913L152.292 913.005C148.688 913.002 142.853 912.184 139.976 914.172C138.423 914.202 135.682 914.004 134.522 914.797L134.941 915.25C154.809 914.74 172.144 915.428 191.634 915.495L289.501 915.502L331.656 915.477C335.387 915.464 350.426 915.184 353.279 915.913C336.69 916.53 316.62 916.01 299.823 916.014L194.238 916.085C192.309 915.883 187.719 916.047 185.574 916.073C169.188 915.848 152.8 915.818 136.413 915.984C136.3 921.998 136.281 928.014 136.357 934.029C135.639 938.654 136.506 946.467 135.895 949.373L135.204 948.972L134.538 945.826L134.552 946.118L134.041 946.59C133.986 947.669 134.153 949.432 134.22 950.567C136.362 952.877 170.331 951.982 175.768 951.983L276.07 951.944L611.185 952.524L685.549 951.797C689.321 951.757 705.56 952.583 707.53 951.456C708.055 949.717 708.179 948.887 709.439 947.493C709.54 949.604 709.766 950.542 709.028 952.453C707.385 953.369 687.914 953.009 684.083 953.012L616.141 953.037L291.357 952.986L189.39 952.981C174.009 952.979 147.793 953.677 133.072 952.286C132.449 943.845 132.25 920.509 133.168 912.665C145.818 911.961 162.602 912.34 175.486 912.427C175.795 906.16 174.845 878.16 176.471 875.169C177.506 874.78 177.835 874.707 178.897 874.524L179.897 874.357C181.298 873.117 180.833 873.227 181.055 870.663Z"/><defs><linearGradient id="gradient_5" gradientUnits="userSpaceOnUse" x1="852.36255" y1="768.2771" x2="838.62756" y2="768.22284"><stop offset="0" stop-color="#F8F9F7" stop-opacity="0.71372551"/><stop offset="1" stop-color="#FCFBFB" stop-opacity="0.89411765"/></linearGradient></defs><path fill="url(#gradient_5)" d="M844.411 742.592C845.884 737.582 844.008 734.827 847.617 730.949C848.406 728.007 846.184 727.339 847.445 725.137C848.935 724.74 848.959 724.616 850.446 724.845L850.29 725.565L849.535 725.822L849.683 726.071L849.924 725.711L850.007 726.496C857.66 736.937 851.916 735.159 854.405 744.553C854.416 748.413 852.4 776.529 851.101 779.329C845.539 785.536 847.186 808.963 841.735 812.834C837.825 812.607 837.86 807.348 837.243 804.422C839.513 791.36 841.292 778.218 842.576 765.022C842.943 761.023 843.786 745.356 844.411 742.592Z"/><path fill="#F8F7FE" fill-opacity="0.46666667" d="M185.574 916.073C187.719 916.047 192.309 915.883 194.238 916.085C197.71 916.494 200.116 916.648 203.614 916.745C200.006 917.121 197.05 917.331 193.425 917.473L193.548 917.779C195.735 918.051 196.781 918.055 198.994 918.005C191.946 919.861 184.629 921.631 177.567 923.606C174.731 924.399 171.139 923.339 167.981 924.5L167.867 925.066C169.915 926.406 173.76 924.962 175.568 926.161C174.156 926.858 167.156 930.724 166.518 930.785C157.805 931.616 154.063 928.129 156.177 940.588C161.459 941.826 166.774 942.914 172.118 943.849C177.571 944.801 183.798 944.746 188.517 947.198L188.576 947.661C186.939 947.689 186.394 947.635 184.786 947.378C182.242 946.971 180.161 947.685 177.401 947.424C182.398 949.566 191.155 947.197 197.285 948.959C187.479 949.558 169.782 949.278 159.708 949.015L153.976 947.569C155.781 947.565 156.836 947.532 158.627 947.34C158.343 945.992 146.536 944.647 149.182 939.198C150.312 936.87 149.379 934.944 149.634 932.237C151.687 928.318 155.361 928.733 159.122 925.738L157.698 925.026C157.682 922.729 158.483 924.988 159.918 920.814C160.902 921.038 167.053 920.733 168.247 920.527C172.568 919.781 185.336 921.242 187.024 916.821L185.574 916.073Z"/><defs><linearGradient id="gradient_6" gradientUnits="userSpaceOnUse" x1="160.18201" y1="915.23279" x2="161.5247" y2="932.08594"><stop offset="0" stop-color="white" stop-opacity="0"/><stop offset="1" stop-color="white" stop-opacity="0.06666667"/></linearGradient></defs><path fill="url(#gradient_6)" d="M136.413 915.984C152.8 915.818 169.188 915.848 185.574 916.073L187.024 916.821C185.336 921.242 172.568 919.781 168.247 920.527C167.053 920.733 160.902 921.038 159.918 920.814C151.355 920.757 150.093 920.892 147.666 926.904C147.129 928.235 137.477 927.897 139.265 934.205C140.712 940.354 142.841 943.374 148.507 945.286C136.08 944.221 142.861 936.196 136.357 934.029C136.281 928.014 136.3 921.998 136.413 915.984Z"/><defs><linearGradient id="gradient_7" gradientUnits="userSpaceOnUse" x1="949.78235" y1="539.49152" x2="954.4353" y2="539.5116"><stop offset="0" stop-color="black" stop-opacity="0.92156863"/><stop offset="1" stop-color="#010002"/></linearGradient></defs><path fill="url(#gradient_7)" d="M948.952 485.451C949.494 486.125 949.786 486.794 950.205 487.572L950.889 487.52C951.203 485.515 951.43 484.503 952.001 482.556C952.92 487.189 955.801 519.622 955.441 524.006C953.613 527.285 955.668 572.711 954.213 580.378C953.719 582.98 952.651 589.5 952.634 592.143C951.407 591.876 951.964 592.105 950.95 591.488C951.106 580.702 952.182 568.736 952.418 557.581C953.01 533.486 951.852 509.379 948.952 485.451Z"/><path fill="#F8F7FE" fill-opacity="0.19215687" d="M148.507 945.286C142.841 943.374 140.712 940.354 139.265 934.205C137.477 927.897 147.129 928.235 147.666 926.904C150.093 920.892 151.355 920.757 159.918 920.814C158.483 924.988 157.682 922.729 157.698 925.026L159.122 925.738C155.361 928.733 151.687 928.318 149.634 932.237C149.379 934.944 150.312 936.87 149.182 939.198C146.536 944.647 158.343 945.992 158.627 947.34C156.836 947.532 155.781 947.565 153.976 947.569C152.125 947.318 150.213 946.154 148.507 945.286Z"/><path fill="#F8F7FE" fill-opacity="0.72549021" d="M842.384 669.267C846.513 672.913 844.27 689.623 847.585 693.258C850.615 692.703 852.661 678.712 853.417 675.326C853.612 678.279 854.607 689.91 854.416 692.337C852.939 697.843 855.541 707.868 851.184 711.696C848.265 712.156 846.467 709.259 845.685 706.734C845 704.52 846.039 700.872 845.731 698.941C844.905 693.763 845.507 683.094 843.777 678.552L843.345 679.318C842.857 677.832 842.526 671.242 842.384 669.267Z"/><defs><linearGradient id="gradient_8" gradientUnits="userSpaceOnUse" x1="842.8465" y1="645.61487" x2="849.30786" y2="646.37183"><stop offset="0" stop-color="#FEFDFC" stop-opacity="0.53333336"/><stop offset="1" stop-color="#FBFCFB" stop-opacity="0.60000002"/></linearGradient></defs><path fill="url(#gradient_8)" d="M841.196 660.28C841.463 658.791 841.339 656.824 841.78 655.206C842.798 651.473 844.258 647.031 844.679 643.216C845.053 639.819 842.975 630.365 844.8 627.52L847.377 627.97C848.29 633.073 850.957 646.917 850.92 651.935L850.088 651.946C847.571 654.993 846.868 658.235 846.648 662.125C844.68 663.563 842.606 664.341 842.374 666.886C842.318 667.574 842.282 668.263 842.267 668.953C841.839 665.979 841.461 663.278 841.196 660.28Z"/><path fill="#F8F7FE" fill-opacity="0.59607846" d="M835.784 625.107C835.986 624.213 836.476 621.89 836.967 621.237C839.447 617.936 837.04 614.157 841.675 612.601C843.774 614.792 841.032 620.284 846.277 623.124L847.377 627.97L844.8 627.52C842.975 630.365 845.053 639.819 844.679 643.216C844.258 647.031 842.798 651.473 841.78 655.206C841.339 656.824 841.463 658.791 841.196 660.28L840.158 653.223C843.762 646.625 842.62 636.875 842.341 629.304C840.833 630.153 839.67 631.087 838.043 631.833C837.503 629.77 837.324 629.294 836.345 627.401C836.043 626.863 835.905 625.729 835.784 625.107ZM839.472 628.707C840.901 626.983 841.211 626.771 841.92 624.713C841.517 622.598 841.27 622.468 839.099 621.647C836.965 623.638 836.704 625.88 838.258 628.414L838.955 628.853L839.472 628.707Z"/><path fill="#F8F7FE" fill-opacity="0.43137255" d="M839.099 621.647C841.27 622.468 841.517 622.598 841.92 624.713C841.211 626.771 840.901 626.983 839.472 628.707L838.955 628.853L838.258 628.414C836.704 625.88 836.965 623.638 839.099 621.647Z"/><path fill="#F8F7FE" fill-opacity="0.78039217" d="M802.577 824.622C803.855 824.827 805.131 825.047 806.404 825.281C804.033 825.37 801.132 825.935 799.312 827.538C798.831 828.55 798.299 829.295 798.952 830.511C800.434 833.268 804.365 834.585 807.121 832.951C809.505 831.539 809.566 828.26 809.9 825.703L814.898 826.694C814.424 828.173 814.59 828.369 814.857 829.886C817.46 832.348 819.717 830.942 822.93 831.806C820.694 832.449 820.901 832.038 819.481 833.478C820.051 836.091 823.159 836.466 825.493 836.571C826.308 836.038 826.477 836.018 827.137 835.324L826.867 836.96C823.878 838.851 812.871 833.23 804.866 835.341C802.817 835.205 802.354 835.141 800.373 834.634C800.414 834.433 800.456 834.232 800.497 834.031C796.287 832.541 792.548 832.584 787.63 830.074C788.619 829.613 791.589 830.174 793.784 830.002L794.3 829.346C792.872 827.749 790.921 828.948 789.068 827.355L789.493 826.482C791.914 824.643 798.918 826.1 802.577 824.622Z"/><path fill="#F8F7FE" fill-opacity="0.56862748" d="M806.952 898.383C808.872 899.396 811.124 900.213 812.053 902.057C812.306 903.855 811.843 905.939 812.151 907.112C809.984 911.534 806.112 917.06 803.278 921.161C802.028 917.725 802.011 914.487 800.36 911.662C800.015 911.072 798.542 911.275 797.594 911.251C798.221 909.971 801.12 905.351 802.131 904.43C805.282 903.043 805.453 901.645 806.952 898.383Z"/><defs><linearGradient id="gradient_9" gradientUnits="userSpaceOnUse" x1="455.6243" y1="75.256844" x2="455.3418" y2="72.400337"><stop offset="0" stop-color="black" stop-opacity="0.94509804"/><stop offset="1" stop-color="#010001"/></linearGradient></defs><path fill="url(#gradient_9)" d="M430.853 75.9645C438.952 74.1348 471.039 69.2991 477.65 70.4557C477.071 71.9006 476.778 73.2869 474.998 73.7392C469.824 75.0544 464.561 74.6868 459.046 75.4545C455.959 75.7009 449.483 76.2852 446.598 77.0189C443.479 77.2853 440.751 77.7391 437.666 78.2389C434.836 78.1978 433.406 77.2124 430.853 75.9645Z"/><defs><linearGradient id="gradient_10" gradientUnits="userSpaceOnUse" x1="776.58051" y1="936.78418" x2="778.75854" y2="944.89337"><stop offset="0" stop-color="white" stop-opacity="0.43921569"/><stop offset="1" stop-color="white" stop-opacity="0.50980395"/></linearGradient></defs><path fill="url(#gradient_10)" d="M768.787 942.032C781.958 933.069 779.28 933.088 789.314 923.077C788.14 933.143 776.903 927.437 784.671 943.061C782.877 944.7 782.037 945.562 779.952 946.834C777.582 947.649 775.768 949.038 773.102 947.731C770.742 946.575 769.688 944.386 768.787 942.032Z"/><path fill="#F8F7FE" fill-opacity="0.21176471" d="M798.437 528.419L799.428 526.48C801.237 525.94 802.473 525.537 804.229 526.644C807.475 528.69 812.1 534.786 814.035 537.983C814.872 538.411 815.683 538.932 816.689 538.418L817.947 540.409L817.189 541.454C812.221 541.712 812.343 543.586 809.406 545.977C806.122 539.726 802.135 534.406 798.437 528.419Z"/><defs><linearGradient id="gradient_11" gradientUnits="userSpaceOnUse" x1="786.59656" y1="925.48743" x2="791.24939" y2="931.62921"><stop offset="0" stop-color="white" stop-opacity="0.30980393"/><stop offset="1" stop-color="white" stop-opacity="0.34117648"/></linearGradient></defs><path fill="url(#gradient_11)" d="M789.711 922.433C791.515 921.472 793.649 919.315 795.209 919.579C796.463 921.203 796.448 922.173 797.979 923.517C795.861 927.447 789.32 932.669 786.005 937.163C786.441 938.419 786.591 939.42 787.637 940.161C786.649 941.156 785.721 942.129 784.671 943.061C776.903 927.437 788.14 933.143 789.314 923.077L789.711 922.433Z"/><path fill="#F8F7FE" fill-opacity="0.41176471" d="M821.244 571.516C821.497 571.15 821.761 570.43 821.949 569.988C824.603 568.85 824.53 568.227 826.749 566.969C826.691 570.182 826.366 571.559 829.483 573.024C831.103 572.653 830.692 572.609 832.037 571.008C832.761 573.121 834.673 578.323 834.969 580.243C834.449 581.159 833.909 582.063 833.35 582.955C830.641 583.473 831.686 582.745 829.119 582.201C827.827 582.831 826.78 584.206 826.026 585.425C824.403 580.799 822.809 576.163 821.244 571.516Z"/><path fill="#F8F7FE" fill-opacity="0.47450981" d="M821.769 547.452C823.969 551.123 825.205 554.085 826.925 558.032C822.884 559.438 821.812 563.957 819.709 567.828C817.742 562.997 815.631 558.225 813.38 553.519C815.596 551.567 814.869 549.262 819.81 549.923C820.527 550.541 820.677 550.837 821.486 551.127C821.634 549.804 821.701 548.77 821.769 547.452Z"/><path fill="#F8F7FE" fill-opacity="0.54901963" d="M842.267 668.953C842.282 668.263 842.318 667.574 842.374 666.886C842.606 664.341 844.68 663.563 846.648 662.125C846.027 663.665 845.416 665.209 844.815 666.757C845.907 670.987 845.609 676.592 850.446 676.801C851.856 676.084 852.939 675.252 853.25 673.618L853.417 675.326C852.661 678.712 850.615 692.703 847.585 693.258C844.27 689.623 846.513 672.913 842.384 669.267L842.267 668.953Z"/><defs><linearGradient id="gradient_12" gradientUnits="userSpaceOnUse" x1="136.98276" y1="946.37469" x2="151.65321" y2="939.63129"><stop offset="0" stop-color="white" stop-opacity="0"/><stop offset="1" stop-color="white" stop-opacity="0.16078432"/></linearGradient></defs><path fill="url(#gradient_12)" d="M136.357 934.029C142.861 936.196 136.08 944.221 148.507 945.286C150.213 946.154 152.125 947.318 153.976 947.569L159.708 949.015C151.861 949.177 143.718 949.453 135.895 949.373C136.506 946.467 135.639 938.654 136.357 934.029Z"/><path d="M955.441 524.006C956.645 546.599 956.146 569.249 953.948 591.767C953.691 594.243 953.073 601.954 952.607 604.193C951.599 603.52 950.617 603.092 949.53 602.554C950.05 598.872 950.524 595.183 950.95 591.488C951.964 592.105 951.407 591.876 952.634 592.143C952.651 589.5 953.719 582.98 954.213 580.378C955.668 572.711 953.613 527.285 955.441 524.006Z"/><path fill="#F8F7FE" fill-opacity="0.29019609" d="M846.648 662.125C846.868 658.235 847.571 654.993 850.088 651.946L850.92 651.935C851.237 653.916 851.514 655.301 851.527 657.299C851.253 656.435 851.054 655.698 850.996 654.792L850.548 654.833C850.006 658.366 848.748 664.59 849.643 667.962L850.269 668.489C851.596 667.903 851.723 667.366 852.52 666.114L853.25 673.618C852.939 675.252 851.856 676.084 850.446 676.801C845.609 676.592 845.907 670.987 844.815 666.757C845.416 665.209 846.027 663.665 846.648 662.125Z"/><path fill="#F8F7FE" fill-opacity="0.82352942" d="M832.323 609.294C833.155 608.213 833.055 607.861 834.012 607.739C837.12 607.344 840.91 609.218 843.278 611.101C844.364 615.087 845.364 619.096 846.277 623.124C841.032 620.284 843.774 614.792 841.675 612.601C837.04 614.157 839.447 617.936 836.967 621.237C836.476 621.89 835.986 624.213 835.784 625.107C835.045 621.892 832.42 612.01 832.323 609.294Z"/><path fill="#F8F7FE" fill-opacity="0.29411766" d="M819.709 567.828C821.812 563.957 822.884 559.438 826.925 558.032C828.701 562.329 830.405 566.655 832.037 571.008C830.692 572.609 831.103 572.653 829.483 573.024C826.366 571.559 826.691 570.182 826.749 566.969C824.53 568.227 824.603 568.85 821.949 569.988C821.761 570.43 821.497 571.15 821.244 571.516L819.709 567.828Z"/><path fill="#F8F7FE" fill-opacity="0.42745098" d="M817.947 540.409C818.95 542.173 821.097 545.712 821.769 547.452C821.701 548.77 821.634 549.804 821.486 551.127C820.677 550.837 820.527 550.541 819.81 549.923C814.869 549.262 815.596 551.567 813.38 553.519L809.406 545.977C812.343 543.586 812.221 541.712 817.189 541.454L817.947 540.409Z"/><path fill="#F8F7FE" fill-opacity="0.45490196" d="M797.594 911.251C798.542 911.275 800.015 911.072 800.36 911.662C802.011 914.487 802.028 917.725 803.278 921.161L800.405 925.026C800.253 924.896 798.432 923.824 797.979 923.517C796.448 922.173 796.463 921.203 795.209 919.579C793.649 919.315 791.515 921.472 789.711 922.433C791.656 919.25 795.334 914.423 797.594 911.251Z"/><path fill="#F8F7FE" fill-opacity="0.72156864" d="M836.345 627.401C837.324 629.294 837.503 629.77 838.043 631.833C839.67 631.087 840.833 630.153 842.341 629.304C842.62 636.875 843.762 646.625 840.158 653.223C839.042 644.613 837.367 635.961 836.345 627.401Z"/><path fill="#F8F7FE" fill-opacity="0.44705883" d="M806.404 825.281L809.9 825.703C809.566 828.26 809.505 831.539 807.121 832.951C804.365 834.585 800.434 833.268 798.952 830.511C798.299 829.295 798.831 828.55 799.312 827.538C801.132 825.935 804.033 825.37 806.404 825.281Z"/><path fill="#F8F7FE" fill-opacity="0.67843139" d="M834.969 580.243L835.447 581.018C833.368 586.605 836.963 589.994 834.844 592.414C833.115 592.796 832.686 592.696 830.968 592.572C829.54 591.378 828.46 589.135 827.543 587.469L826.845 587.544L826.026 585.425C826.78 584.206 827.827 582.831 829.119 582.201C831.686 582.745 830.641 583.473 833.35 582.955C833.909 582.063 834.449 581.159 834.969 580.243Z"/><path fill="#F8F7FE" fill-opacity="0.17647059" d="M797.979 923.517C798.432 923.824 800.253 924.896 800.405 925.026C796.818 929.644 791.817 936.159 787.637 940.161C786.591 939.42 786.441 938.419 786.005 937.163C789.32 932.669 795.861 927.447 797.979 923.517Z"/><path fill="#F8F7FE" fill-opacity="0.082352944" d="M852.52 666.114C851.723 667.366 851.596 667.903 850.269 668.489L849.643 667.962C848.748 664.59 850.006 658.366 850.548 654.833L850.996 654.792C851.054 655.698 851.253 656.435 851.527 657.299C851.843 659.955 852.364 663.522 852.52 666.114Z"/><path fill="#F8F7FE" fill-opacity="0.52156866" d="M822.93 831.806C825.316 833.118 825.518 833.214 827.137 835.324C826.477 836.018 826.308 836.038 825.493 836.571C823.159 836.466 820.051 836.091 819.481 833.478C820.901 832.038 820.694 832.449 822.93 831.806Z"/><path d="M948.952 485.451C948.636 483.79 948.6 483.097 948.53 481.395C949.372 479.681 948.767 480.29 950.248 479.359L951.178 479.625C952.307 481.121 951.864 480.269 952.001 482.556C951.43 484.503 951.203 485.515 950.889 487.52L950.205 487.572C949.786 486.794 949.494 486.125 948.952 485.451Z"/><path fill="#F8F7FE" fill-opacity="0.69803923" d="M446.598 77.0189C449.483 76.2852 455.959 75.7009 459.046 75.4545C455.834 79.1125 450.974 78.0906 446.598 77.0189Z"/></svg>