<?xml version="1.0" encoding="utf-8" ?><svg xmlns="http://www.w3.org/2000/svg" xmlns:xlink="http://www.w3.org/1999/xlink" width="1024" height="1024" viewBox="0 0 1024 1024"><path fill="#F8F7FE" d="M135.268 263.771L135.415 262.834C135.615 261.492 135.551 261.056 135.577 259.893C135.702 254.317 142.07 245.322 144.958 240.172C164.999 204.435 191.425 171.359 221.024 142.995C239.751 125.05 262.489 108.602 284.432 94.5917C358.805 47.1044 437.78 27.7284 525.519 29.4419C611.806 31.9436 695.354 60.2949 765.343 110.824C787.028 126.77 806.761 145.192 825.368 164.589C852.507 193.019 875.496 225.138 893.657 259.995C896.951 266.367 899.283 273.45 902.514 279.791C926.709 327.264 936.335 374.876 940.778 427.655C941.995 429.405 941.908 429.609 942.025 431.83C961.643 433.771 978.876 445.688 987.617 463.358C996.358 481.028 995.374 501.957 985.012 518.728C983.716 520.828 982.284 522.841 980.727 524.755C978.336 527.694 975.659 530.388 972.735 532.797C970.731 534.448 968.616 535.961 966.406 537.325C966.214 539.113 965.975 539.204 966.579 540.761C967.717 539.249 968.78 537.434 970.445 536.691C972.893 537.158 973.3 539.338 975.543 539.845C975.621 539.07 975.68 539.083 975.567 538.326C976.517 538.738 977.471 539.141 978.429 539.535C977.887 541.623 977.252 543.277 977.512 545.389L978.125 545.468C978.805 544.492 979.142 544.039 979.728 543.01C980.437 541.012 980.421 540.657 981.963 539.344L982.312 531.227C982.327 530.154 982.165 529.39 982.014 528.332C983.194 526.287 984.231 525.697 986.103 524.227L987.07 524.492C986.777 528.981 986.663 532.731 986.66 537.231C986.494 546.999 985.99 566.631 986.681 575.764L985.956 576.827L982.964 577.075L982.701 577.538C984.054 578.566 984.524 578.562 985.082 579.906L986.266 580.226C993.947 580.791 1003.8 580.483 1011.58 580.379C1013.25 581.01 1012.64 580.469 1013.46 582.072C1013.44 584.297 1010.36 587.093 1008.77 588.574C1000.22 596.514 992.106 605.05 983.699 613.107C975.759 620.717 968.454 632.302 956.561 633.009C935.419 634.265 913.292 632.277 892.177 633.695C847.296 632.695 799.61 633.551 754.596 633.562C706.68 633.574 657.027 632.847 609.245 633.611C598.044 633.504 586.841 633.509 575.639 633.627L576.486 634.115L595.568 634.346C591.383 634.517 566.119 635.107 564.253 634.467C563.401 629.805 573.278 619.172 566.71 618.549C566.037 622.924 562.242 632.062 559.492 635.368C560.263 636.29 564.78 636.071 567.437 636.966C566.919 637.57 565.944 637.751 565.225 637.702C555.956 636.92 559.987 635.807 554.493 641.895C544.757 652.685 532.299 658.404 518.066 660.077C505.79 661.519 484.262 656.422 475.932 646.893L476.356 646.327C473.949 644.152 471.649 641.862 469.464 639.464C459.691 628.648 455.226 615.121 455.91 600.635L455.237 598.288L454.456 597.306C453.235 597.57 453.325 597.574 452.16 597.122C451.628 600.72 451.072 604.56 451.813 608.17C452.81 618.589 454.579 624.623 459.596 633.763C416.792 634.578 372.655 633.82 329.75 633.858C324.063 633.446 313.931 633.718 308.033 633.71L266.081 633.695L136.377 633.658C120.893 633.499 105.409 633.456 89.9243 633.53C72.8467 633.537 59.8342 636.438 47.6579 621.546C36.9136 608.405 21.2838 596.17 10.9076 582.829C10.6915 581.192 10.627 582.012 11.3752 580.325C15.3487 579.75 22.0568 580.09 26.2416 580.056C35.9971 579.978 45.732 580.178 55.4943 579.799C57.418 579.515 57.6239 579.463 59.4577 578.813L59.6678 578.209C58.3164 577.287 57.5557 576.963 56.1029 576.283L48.9016 576.052C48.306 568.084 48.6824 554.801 48.7182 546.608C48.8997 526.997 48.9485 507.384 48.8646 487.772L48.9431 362.103C52.4502 362.329 54.139 362.364 57.6338 362.123C68.4569 362.166 81.7574 362.482 92.3476 361.812C94.961 358.665 99.711 360.943 104.164 358.099C87.7957 357.141 67.9957 357.575 51.3517 357.562L44.3884 357.568C44.2982 359.765 44.143 362.189 44.1202 364.365C44.3458 384.912 44.428 405.46 44.3668 426.008C44.3796 434.518 44.1417 444.416 44.5061 452.821C44.2189 459.215 44.1381 467.413 44.3776 473.823C44.0262 481.932 44.1618 490.897 44.1966 499.072C44.2234 505.361 43.9898 513.537 44.3592 519.75L44.3745 558.015C44.3789 561.399 44.2185 573.368 44.6488 576.037C42.4434 576.116 41.9052 576.191 39.7831 575.769C38.8413 570.977 39.4877 558.138 39.4934 552.581L39.5395 504.664L39.5146 411.39C39.5074 395.211 39.2246 378.973 39.5386 362.8C39.5714 361.113 39.5726 355.846 40.7157 354.813C43.5905 352.214 92.6119 353.291 100.177 353.059C109.488 353.461 122.168 353.089 131.726 353.061L131.848 310.545C131.835 302.32 131.993 291.548 131.423 283.466C131.691 277.875 130.586 271.993 131.943 266.798C132.372 265.154 133.838 264.48 135.268 263.771ZM567.203 612.529C567.996 613.992 567.982 615.483 568.716 617.227L569.191 617.017C570.919 610.447 569.672 605.19 569.703 598.251C568.798 599.283 569.374 601.577 568.347 603.811L567.618 603.533C567.527 606.373 567.516 609.745 567.203 612.529ZM940.743 541.269C969.748 538.937 991.369 513.531 989.034 484.527C986.7 455.522 961.293 433.902 932.288 436.239C903.287 438.575 881.669 463.979 884.004 492.981C886.338 521.983 911.741 543.602 940.743 541.269ZM155.504 270.571C159.207 270.574 163.205 270.727 166.812 270.012C164.988 269.442 162.532 269.489 160.57 269.413C157.17 268.936 139.813 268.805 137.883 270.797C138.747 271.358 152.847 270.472 155.504 270.571Z"/><path fill="#FEFEFF" fill-opacity="0.83529413" d="M567.618 603.533L568.347 603.811C569.374 601.577 568.798 599.283 569.703 598.251C569.672 605.19 570.919 610.447 569.191 617.017L568.716 617.227C567.982 615.483 567.996 613.992 567.203 612.529C567.516 609.745 567.527 606.373 567.618 603.533Z"/><path fill="#080717" d="M457.694 579.951L458.468 579.405C458.904 580.371 456.784 586.237 456.328 587.939C457.365 587.485 458.035 586.28 458.592 585.233C458.913 585.391 459.608 585.7 459.867 585.893C457.891 591.377 456.75 594.849 455.91 600.635L455.237 598.288L454.456 597.306C453.235 597.57 453.325 597.574 452.16 597.122C451.628 600.72 451.072 604.56 451.813 608.17C452.81 618.589 454.579 624.623 459.596 633.763C416.792 634.578 372.655 633.82 329.75 633.858C324.063 633.446 313.931 633.718 308.033 633.71L266.081 633.695L136.377 633.658C120.893 633.499 105.409 633.456 89.9243 633.53C72.8467 633.537 59.8342 636.438 47.6579 621.546C36.9136 608.405 21.2838 596.17 10.9076 582.829C10.6915 581.192 10.627 582.012 11.3752 580.325C15.3487 579.75 22.0568 580.09 26.2416 580.056C35.9971 579.978 45.732 580.178 55.4943 579.799C73.9073 580.804 98.3604 580.119 117.113 580.112L229.731 580.073L360.187 580.196C381.679 580.281 403.171 580.25 424.663 580.103C435.208 580.056 447.248 580.281 457.694 579.951Z"/><path fill="#F8F7FE" d="M457.694 579.951L458.468 579.405C458.904 580.371 456.784 586.237 456.328 587.939C457.365 587.485 458.035 586.28 458.592 585.233C458.913 585.391 459.608 585.7 459.867 585.893C457.891 591.377 456.75 594.849 455.91 600.635L455.237 598.288L454.456 597.306C453.235 597.57 453.325 597.574 452.16 597.122C453.567 590.725 455.416 586.067 457.694 579.951Z"/><path fill="#080717" d="M986.266 580.226C993.947 580.791 1003.8 580.483 1011.58 580.379C1013.25 581.01 1012.64 580.469 1013.46 582.072C1013.44 584.297 1010.36 587.093 1008.77 588.574C1000.22 596.514 992.106 605.05 983.699 613.107C975.759 620.717 968.454 632.302 956.561 633.009C935.419 634.265 913.292 632.277 892.177 633.695C847.296 632.695 799.61 633.551 754.596 633.562C706.68 633.574 657.027 632.847 609.245 633.611C598.044 633.504 586.841 633.509 575.639 633.627L564.533 633.511C565.21 632.382 565.838 631.224 566.414 630.04C574.91 612.418 572.53 598.188 566.354 580.609L844.855 580.212L936.257 580.491C951.563 580.521 971.286 581.079 986.266 580.226Z"/><path fill="#080717" d="M92.3476 361.812C106.088 362.87 122.336 361.72 136.369 362.238L136.544 498.946C136.603 523.912 137.463 551.346 136.674 576.086L81.0915 576.037C77.7187 576.027 58.7524 575.75 56.1029 576.283L48.9016 576.052C48.306 568.084 48.6824 554.801 48.7182 546.608C48.8997 526.997 48.9485 507.384 48.8646 487.772L48.9431 362.103C52.4502 362.329 54.139 362.364 57.6338 362.123C68.4569 362.166 81.7574 362.482 92.3476 361.812Z"/><path fill="#FEFEFF" d="M89.6994 385.911C100.038 384.592 109.503 391.866 110.889 402.196C112.274 412.526 105.061 422.037 94.7398 423.488C84.3255 424.953 74.7094 417.66 73.3112 407.236C71.9131 396.813 79.2672 387.243 89.6994 385.911Z"/><path fill="#080717" d="M88.3322 390.731C93.4135 389.377 98.8303 390.86 102.512 394.615C106.194 398.369 107.573 403.814 106.12 408.868C104.668 413.922 100.609 417.804 95.4954 419.03C87.7251 420.894 79.9005 416.164 77.9398 408.417C75.979 400.671 80.611 392.788 88.3322 390.731Z"/><path fill="#FEFEFF" d="M87.7451 444.761C97.7173 442.513 107.637 448.724 109.97 458.677C112.303 468.629 106.177 478.602 96.2444 481.02C86.1914 483.467 76.071 477.25 73.7097 467.177C71.3484 457.103 77.6518 447.036 87.7451 444.761Z"/><path fill="#080717" d="M90.0503 448.676C97.9152 447.704 105.087 453.271 106.097 461.131C107.107 468.991 101.576 476.19 93.721 477.238C85.8114 478.294 78.5515 472.716 77.5343 464.802C76.5171 456.887 82.1306 449.654 90.0503 448.676Z"/><path fill="#FEFEFF" d="M89.2777 503.297C99.3923 501.894 108.748 508.905 110.241 519.007C111.734 529.109 104.806 538.526 94.7185 540.109C84.5027 541.712 74.9399 534.677 73.428 524.448C71.916 514.218 79.0351 504.718 89.2777 503.297Z"/><path fill="#080717" d="M92.1395 507.292C99.9775 507.425 106.27 513.801 106.3 521.64C106.33 529.48 100.085 535.903 92.2487 536.095C87.0327 536.223 82.1553 533.521 79.4984 529.031C76.8414 524.54 76.8203 518.964 79.4431 514.454C82.066 509.943 86.9228 507.204 92.1395 507.292Z"/><path fill="#080717" d="M824.618 345.619C812.355 345.348 800.457 341.393 790.473 334.268C777.92 325.272 770.127 311.083 767.771 295.953C765.344 280.56 769.223 264.839 778.532 252.342C787.9 239.44 802.102 230.891 817.888 228.653C833.082 226.423 849.698 230.213 862.063 239.444C874.547 248.938 882.777 262.979 884.962 278.51C887.076 294.105 882.858 309.896 873.248 322.358C861.826 337.221 847.102 343.297 829.099 345.608C829.041 353.536 829.088 361.464 829.238 369.391C834.27 371.624 839.207 374.052 844.038 376.692C871.739 391.832 900.191 405.578 927.895 420.672C932.232 423.035 936.307 425.494 940.778 427.655C941.995 429.405 941.908 429.609 942.025 431.83C940.192 431.649 938.353 431.556 936.512 431.553C920.942 422.036 903.016 413.412 886.653 404.812C867.052 394.51 846.585 382.606 826.856 372.894C822.565 375.523 817.313 377.966 812.796 380.38L778.317 398.654C760.024 408.438 742.055 419.035 723.381 428.122C721.731 428.925 720.07 429.727 718.219 429.854C716.49 428.999 717.166 429.603 716.126 427.966L716.504 426.764C719.258 424.006 723.115 422.902 726.572 421.122L762.102 402.695C783.109 391.533 803.058 379.789 824.616 369.063L824.618 345.619Z"/><path fill="#FEFEFF" d="M825.073 232.567C855.001 231.927 879.807 255.616 880.546 285.542C881.285 315.467 857.678 340.352 827.755 341.19C797.692 342.032 772.665 318.29 771.922 288.224C771.18 258.158 795.005 233.21 825.073 232.567Z"/><path fill="#080717" d="M816.968 252.498C823.259 252.405 829.706 252.467 836.011 252.456L835.921 277.448L859.49 277.505C859.531 284.025 859.513 290.546 859.437 297.066L835.857 297.084C835.71 305.317 835.741 313.712 835.688 321.96L816.545 321.921C816.491 313.679 816.338 305.439 816.086 297.201C808.608 296.898 800.097 297.07 792.541 297.058L792.548 277.566L816.676 277.521C816.704 269.179 816.801 260.838 816.968 252.498Z"/><path fill="#080717" d="M936.512 431.553C938.353 431.556 940.192 431.649 942.025 431.83C961.643 433.771 978.876 445.688 987.617 463.358C996.358 481.028 995.374 501.957 985.012 518.728C983.716 520.828 982.284 522.841 980.727 524.755C978.336 527.694 975.659 530.388 972.735 532.797C970.731 534.448 968.616 535.961 966.406 537.325C945.777 550.055 919.36 548.383 900.5 533.154C881.64 517.925 874.441 492.453 882.539 469.605C890.638 446.757 912.271 431.505 936.512 431.553ZM940.743 541.269C969.748 538.937 991.369 513.531 989.034 484.527C986.7 455.522 961.293 433.902 932.288 436.239C903.287 438.575 881.669 463.979 884.004 492.981C886.338 521.983 911.741 543.602 940.743 541.269Z"/><defs><linearGradient id="gradient_0" gradientUnits="userSpaceOnUse" x1="986.90619" y1="500.91098" x2="885.85632" y2="476.02313"><stop offset="0" stop-color="white" stop-opacity="0.96862745"/><stop offset="1" stop-color="white"/></linearGradient></defs><path fill="url(#gradient_0)" d="M932.288 436.239C961.293 433.902 986.7 455.522 989.034 484.527C991.369 513.531 969.748 538.937 940.743 541.269C911.741 543.602 886.338 521.983 884.004 492.981C881.669 463.979 903.287 438.575 932.288 436.239Z"/><path fill="#080717" d="M926.996 453.162C933.337 453.089 939.778 453.158 946.128 453.172C946.093 461.376 946.103 469.58 946.16 477.784C954.094 477.8 962.029 477.775 969.963 477.706L969.967 497.468L946.238 497.578C946.076 505.084 946.275 513.296 946.306 520.856C944.003 521.551 929.924 521.25 926.714 521.221L926.731 497.549L903.69 497.515L903.831 477.978L926.819 477.933C926.822 469.676 926.881 461.419 926.996 453.162Z"/><path fill="#080717" d="M459.867 585.893C466.657 571.49 476.48 560.5 491.835 554.969C505.969 549.82 521.571 550.505 535.199 556.873C553.421 565.55 566.636 583.091 567.618 603.533C567.527 606.373 567.516 609.745 567.203 612.529C563.852 629.278 556.966 641.066 542.427 650.659C530.113 658.635 515.109 661.326 500.791 658.125C490.973 656.01 484.294 652.489 476.356 646.327C473.949 644.152 471.649 641.862 469.464 639.464C459.691 628.648 455.226 615.121 455.91 600.635C456.75 594.849 457.891 591.377 459.867 585.893Z"/><path fill="#FEFEFF" d="M508.715 590.814C516.82 589.209 524.692 594.48 526.293 602.586C527.895 610.692 522.62 618.56 514.513 620.158C506.412 621.755 498.549 616.485 496.949 608.384C495.348 600.283 500.615 592.418 508.715 590.814Z"/><defs><linearGradient id="gradient_1" gradientUnits="userSpaceOnUse" x1="325.36682" y1="334.26266" x2="61.881992" y2="596.48492"><stop offset="0" stop-color="black"/><stop offset="1" stop-color="#02011E"/></linearGradient></defs><path fill="url(#gradient_1)" d="M135.268 263.771C160.423 263.555 185.58 263.498 210.736 263.601C223.177 263.606 235.63 263.602 248.072 263.667C251.136 263.683 255.325 264.044 257.902 265.728C259.059 266.506 258.982 273.273 258.989 274.68L258.996 352.474L314.616 352.46C323.891 352.443 333.403 352.193 342.67 352.645C344.079 352.714 346.105 353.13 346.964 354.294C348.432 355.757 348.505 358.186 348.516 360.258C348.595 374.504 348.542 388.815 348.536 403.062L348.397 493.112L348.391 548.603C348.392 554.382 349.144 570.773 348.146 575.641C346.274 576.266 346.154 576.157 344.237 576.087L343.545 575.467L343.623 424.592C343.613 403.166 344.223 378.715 343.48 357.574C315.261 356.164 282.652 357.838 254.004 357.315C254.028 327.915 254.367 297.864 254.038 268.523L174.94 268.212C164.184 268.21 146.939 267.666 136.558 268.309C135.742 297.03 136.471 328.68 136.437 357.719C132.077 357.734 107.004 357.429 104.164 358.099C87.7957 357.141 67.9957 357.575 51.3517 357.562L44.3884 357.568C44.2982 359.765 44.143 362.189 44.1202 364.365C44.3458 384.912 44.428 405.46 44.3668 426.008C44.3796 434.518 44.1417 444.416 44.5061 452.821C44.2189 459.215 44.1381 467.413 44.3776 473.823C44.0262 481.932 44.1618 490.897 44.1966 499.072C44.2234 505.361 43.9898 513.537 44.3592 519.75L44.3745 558.015C44.3789 561.399 44.2185 573.368 44.6488 576.037C42.4434 576.116 41.9052 576.191 39.7831 575.769C38.8413 570.977 39.4877 558.138 39.4934 552.581L39.5395 504.664L39.5146 411.39C39.5074 395.211 39.2246 378.973 39.5386 362.8C39.5714 361.113 39.5726 355.846 40.7157 354.813C43.5905 352.214 92.6119 353.291 100.177 353.059C109.488 353.461 122.168 353.089 131.726 353.061L131.848 310.545C131.835 302.32 131.993 291.548 131.423 283.466C131.691 277.875 130.586 271.993 131.943 266.798C132.372 265.154 133.838 264.48 135.268 263.771Z"/><defs><linearGradient id="gradient_2" gradientUnits="userSpaceOnUse" x1="978.93909" y1="551.29791" x2="989.07196" y2="549.77557"><stop offset="0" stop-color="#00002B"/><stop offset="1" stop-color="#040105"/></linearGradient></defs><path fill="url(#gradient_2)" d="M986.103 524.227L987.07 524.492C986.777 528.981 986.663 532.731 986.66 537.231C986.494 546.999 985.99 566.631 986.681 575.764L985.956 576.827L982.964 577.075L982.701 577.538C984.054 578.566 984.524 578.562 985.082 579.906C983.359 579.323 983.337 579.231 981.907 578.227L981.741 577.2C981.279 576.8 981.029 576.609 980.637 576.199C978.591 574.063 979.722 548.025 979.728 543.01C980.437 541.012 980.421 540.657 981.963 539.344L982.312 531.227C982.327 530.154 982.165 529.39 982.014 528.332C983.194 526.287 984.231 525.697 986.103 524.227Z"/><path fill="#F8F7FE" d="M979.728 543.01C980.437 541.012 980.421 540.657 981.963 539.344C981.942 549.635 982.419 567.526 981.741 577.2C981.279 576.8 981.029 576.609 980.637 576.199C978.591 574.063 979.722 548.025 979.728 543.01Z"/><path fill="#080717" d="M141.125 272.523L249.406 272.565L249.015 575.969L235.479 575.998C235.463 554.446 236.06 529.468 235.379 508.198C234.444 511.867 235.252 515.772 234.464 518.706C234.241 515.577 234.164 512.202 233.356 509.207L232.807 509.466C231.294 515.008 231.634 519.589 231.073 525.009C230.845 518.634 230.966 511.436 230.932 504.996L215.86 504.897C214.767 503.944 201.285 504.294 198.916 504.257C200.571 503.371 225.799 504.651 231.155 503.562C231.867 502.571 231.824 502.693 232.864 502.072C219.382 501.336 205.13 501.595 191.57 501.534C180.87 501.486 168.828 501.201 158.248 501.919L158.834 502.114C156.467 502.46 156.365 502.927 154.926 501.939C154.265 505.788 154.814 507.196 154.879 510.599C154.986 516.191 154.543 522.249 154.52 527.985L154.548 575.998L140.954 576.039L141.125 272.523Z"/><path fill="#FEFEFF" d="M154.926 501.939C156.107 500.645 156.18 500.652 158.127 500.641C182.825 500.502 207.548 500.689 232.242 500.964C233.863 500.982 233.804 501.099 234.891 502.005C235.803 504.026 235.47 505.921 235.379 508.198C234.444 511.867 235.252 515.772 234.464 518.706C234.241 515.577 234.164 512.202 233.356 509.207L232.807 509.466C231.294 515.008 231.634 519.589 231.073 525.009C230.845 518.634 230.966 511.436 230.932 504.996L215.86 504.897C214.767 503.944 201.285 504.294 198.916 504.257C200.571 503.371 225.799 504.651 231.155 503.562C231.867 502.571 231.824 502.693 232.864 502.072C219.382 501.336 205.13 501.595 191.57 501.534C180.87 501.486 168.828 501.201 158.248 501.919L158.834 502.114C156.467 502.46 156.365 502.927 154.926 501.939Z"/><path fill="#FEFEFF" d="M191.002 324.692C201.192 322.635 211.111 329.258 213.117 339.458C215.123 349.657 208.451 359.543 198.241 361.498C188.104 363.44 178.303 356.825 176.311 346.697C174.319 336.569 180.884 326.735 191.002 324.692Z"/><path fill="#080717" d="M193.338 328.82C201.249 328.145 208.224 333.976 208.963 341.881C209.702 349.786 203.929 356.808 196.031 357.612C188.04 358.426 180.917 352.571 180.17 344.574C179.422 336.576 185.335 329.502 193.338 328.82Z"/><path fill="#FEFEFF" d="M190.473 443.693C200.568 441.305 210.674 447.603 212.977 457.718C215.28 467.832 208.898 477.885 198.765 480.104C188.751 482.296 178.841 476.005 176.565 466.01C174.289 456.014 180.497 446.053 190.473 443.693Z"/><path fill="#080717" d="M193.617 447.668C201.351 446.988 208.211 452.616 209.055 460.334C209.899 468.053 204.417 475.03 196.717 476.036C191.591 476.706 186.502 474.551 183.416 470.402C180.331 466.254 179.73 460.76 181.847 456.043C183.963 451.325 188.466 448.122 193.617 447.668Z"/><path fill="#FEFEFF" d="M192.508 384.782C202.658 383.519 211.925 390.683 213.26 400.824C214.595 410.964 207.497 420.282 197.366 421.688C187.133 423.109 177.701 415.924 176.353 405.682C175.005 395.439 182.256 386.058 192.508 384.782Z"/><path fill="#080717" d="M191.715 389.274C199.399 387.568 207.006 392.437 208.674 400.13C210.342 407.823 205.436 415.405 197.734 417.035C190.087 418.654 182.569 413.789 180.912 406.149C179.256 398.51 184.084 390.968 191.715 389.274Z"/><path fill="#b297c7" d="M508.248 253.31C558.222 251.083 600.604 289.654 603.079 339.617C605.554 389.58 567.193 432.152 517.243 434.876C466.942 437.618 424.004 398.928 421.511 348.613C419.018 298.299 457.921 255.553 508.248 253.31Z"/><path fill="#FEFEFF" d="M505.607 282.208C506.19 282.177 506.774 282.155 507.357 282.142C521.732 281.772 531.032 283.311 531.078 300.561C531.1 308.47 531.091 316.684 531.124 324.609C540.702 324.975 550.415 324.105 559.97 324.906C570.257 326.318 572.014 331.151 573.17 340.217C576.984 370.151 553.599 363.839 531.046 363.526C531.098 371.594 531.162 379.664 531.207 387.733C531.234 392.62 531.409 397.766 528.168 401.809C524.917 405.865 521.204 405.978 516.46 406.392C502.747 406.402 491.592 407.122 492.11 389.362C492.355 380.989 492.255 371.708 492.343 363.248C482.064 363.224 471.161 364.28 461.028 363.275C453.938 362.572 450.316 355.917 450.095 349.505C449.51 332.502 451.495 323.691 471.168 324.662C476.935 324.946 485.963 324.829 492.11 324.914C492.156 310.571 487.385 284.744 505.607 282.208Z"/><path fill="#080717" d="M253.928 362C281.992 361.709 310.962 361.914 339.033 362.042L339.185 504.947L339.25 551.905C339.255 557.852 339.587 570.62 339.005 576.179C310.526 576.443 282.046 576.431 253.568 576.143L253.928 362Z"/><path fill="#FEFEFF" d="M293.009 502.768C302.955 500.331 313.008 506.362 315.54 516.284C318.072 526.206 312.139 536.316 302.242 538.944C292.209 541.608 281.929 535.576 279.362 525.517C276.795 515.459 282.926 505.238 293.009 502.768Z"/><path fill="#080717" d="M294.854 506.778C302.535 505.217 310.031 510.166 311.613 517.842C313.196 525.518 308.269 533.028 300.597 534.632C292.894 536.243 285.348 531.292 283.759 523.585C282.17 515.877 287.142 508.345 294.854 506.778Z"/><path fill="#FEFEFF" d="M294.005 386.462C304.031 384.285 313.918 390.666 316.062 400.699C318.207 410.731 311.794 420.597 301.755 422.71C291.761 424.813 281.95 418.435 279.814 408.448C277.679 398.461 284.026 388.629 294.005 386.462Z"/><path fill="#080717" d="M294.118 390.887C299.066 389.538 304.357 390.957 307.968 394.599C311.578 398.242 312.949 403.546 311.556 408.482C310.163 413.419 306.222 417.223 301.24 418.441C293.676 420.291 286.03 415.718 284.082 408.179C282.133 400.64 286.605 392.935 294.118 390.887Z"/><path fill="#FEFEFF" d="M293.615 444.516C303.56 442.256 313.45 448.497 315.689 458.446C317.929 468.395 311.666 478.272 301.713 480.49C291.789 482.702 281.948 476.462 279.715 466.543C277.483 456.624 283.701 446.77 293.615 444.516Z"/><path fill="#080717" d="M295.604 448.457C303.289 447.241 310.515 452.454 311.784 460.13C313.052 467.806 307.888 475.068 300.22 476.388C292.479 477.721 285.133 472.496 283.853 464.746C282.572 456.996 287.846 449.686 295.604 448.457Z"/><path fill="#080717" d="M714.613 431.174C746.427 430.074 773.122 454.944 774.274 486.756C775.425 518.568 750.597 545.303 718.787 546.506C686.905 547.711 660.096 522.815 658.942 490.93C657.788 459.046 682.727 432.277 714.613 431.174Z"/><path fill="#FEFEFF" d="M712.248 435.884C741.711 433.386 767.559 455.388 769.799 484.871C772.039 514.354 749.812 540.009 720.31 541.991C691.171 543.948 665.901 522.053 663.689 492.933C661.476 463.813 683.148 438.352 712.248 435.884Z"/><path fill="#080717" d="M707.755 453.168C713.618 453.01 719.944 453.098 725.843 453.076L725.883 477.248L749.439 477.29L749.457 497.727C741.62 497.684 733.782 497.688 725.945 497.74C725.91 501.301 726.27 519.899 724.976 521.547C718.937 521.656 712.742 521.612 706.688 521.637L706.827 497.556L683.058 497.467L683.055 477.805C690.715 477.523 699.149 477.613 706.871 477.535C706.879 474.317 706.463 455.059 707.755 453.168Z"/><path fill="#080717" d="M215.86 504.897L230.932 504.996C230.966 511.436 230.845 518.634 231.073 525.009C230.594 541.195 231.094 559.662 231.154 576.021L197.289 576.016C197.101 552.333 197.067 528.65 197.189 504.967C203.413 505.03 209.637 505.006 215.86 504.897Z"/><path fill="#080717" d="M159.096 504.985L192.676 504.961C192.784 528.638 192.758 552.316 192.6 575.994L158.961 575.994L159.096 504.985Z"/><path fill="#080717" d="M511.095 437.235C513.281 437.754 514.53 437.705 514.531 440.241C514.544 475.726 514.755 511.225 514.65 546.705C514.403 546.982 514.155 547.258 513.908 547.535C511.729 547.429 510.819 547.78 509.655 545.887L509.487 472.948C509.481 462.208 509.357 451.002 509.62 440.239C509.665 438.381 509.96 438.499 511.095 437.235Z"/><path fill="#080717" d="M668.246 528.741C669.791 529.077 670.087 528.991 671.259 530.052C672.37 535.124 671.312 569.039 671.531 576.25C671.266 576.689 671.001 577.128 670.735 577.567C668.768 577.061 668.659 577.385 667.56 576.145C667.379 574.331 667.063 569.253 667.232 567.52C667.939 560.305 665.518 533.935 668.246 528.741Z"/><path fill="#FEFEFF" fill-opacity="0.65098041" d="M155.504 270.571C152.847 270.472 138.747 271.358 137.883 270.797C139.813 268.805 157.17 268.936 160.57 269.413C158.488 269.451 154.704 269.307 152.926 269.913C154.098 270.327 154.28 270.384 155.504 270.571Z"/><path fill="#FEFEFF" fill-opacity="0.48627451" d="M160.57 269.413C162.532 269.489 164.988 269.442 166.812 270.012C163.205 270.727 159.207 270.574 155.504 270.571C154.28 270.384 154.098 270.327 152.926 269.913C154.704 269.307 158.488 269.451 160.57 269.413Z"/><defs><linearGradient id="gradient_3" gradientUnits="userSpaceOnUse" x1="591.04144" y1="844.05872" x2="467.70938" y2="516.63281"><stop offset="0" stop-color="#EAEAF2" stop-opacity="0.88235295"/><stop offset="1" stop-color="#EFEEF5" stop-opacity="0.98823529"/></linearGradient></defs><path fill="url(#gradient_3)" d="M455.237 598.288L455.91 600.635C455.226 615.121 459.691 628.648 469.464 639.464C471.649 641.862 473.949 644.152 476.356 646.327L475.932 646.893C484.262 656.422 505.79 661.519 518.066 660.077C532.299 658.404 544.757 652.685 554.493 641.895C559.987 635.807 555.956 636.92 565.225 637.702C565.944 637.751 566.919 637.57 567.437 636.966C564.78 636.071 560.263 636.29 559.492 635.368C562.242 632.062 566.037 622.924 566.71 618.549C573.278 619.172 563.401 629.805 564.253 634.467C566.119 635.107 591.383 634.517 595.568 634.346L576.486 634.115L575.639 633.627C586.841 633.509 598.044 633.504 609.245 633.611C616.285 634.105 625.579 633.914 632.798 633.922L671.528 633.95L794.544 633.919C820.844 633.912 852.286 633.366 878.286 635.238C876.818 636.834 877.261 635.924 876.915 638.072C878.393 642.747 884.761 642.632 888.555 640.896L889.039 641.197C888.522 643.305 887.282 644.001 886.957 646.13L887.474 646.597C890.802 644.889 891.811 638.039 895.291 638.478C893.73 644.786 886.932 654.191 883.569 659.978C863.939 693.765 839.643 724.049 811.167 750.802C803.719 758.061 795.806 765.251 787.342 771.3C786.193 772.122 782.378 772.986 780.999 772.961C756.531 772.526 731.855 773.906 707.443 773.916L675.122 773.931C667.955 773.87 659.949 773.513 652.87 773.708L632.325 773.474C629.764 773.288 625.57 773.455 622.88 773.482L617.515 773.548C608.924 772.771 607.122 777.7 602.642 775.39L602.292 774.532C600.584 772.795 595.414 772.78 593.013 772.644C592.156 770.129 591.089 767.887 590.125 765.442C580.697 741.536 570.065 718.217 559.971 694.6C558.115 690.258 556.214 685.077 553.956 680.987L553.283 681.07C551.874 679.115 543.54 660.109 541.422 655.983C540.049 655.779 535.64 658.359 534.012 659.178C533.729 661.121 534.495 661.344 535.153 663.746C533.987 664.567 534.638 664.294 533.05 664.246C532.39 662.483 532.342 662.35 531.331 660.776C530.358 660.355 520.76 661.738 519.691 662.263C514.164 664.977 495.676 659.135 493.196 659.688C491.081 662.362 487.3 674.054 485.92 677.977L471.552 718.283C469.783 723.321 454.761 764.389 454.179 764.898L453.147 764.485C452.237 761.658 455.537 757.094 456.381 754.342C456.949 752.49 457.329 750.603 457.988 748.79L482.324 680.773C483.758 676.708 488.948 663.089 489.476 659.54C488.803 658.344 479.997 653.755 477.516 651.612C478.267 653.36 479.878 654.695 481.257 656.065L482.029 655.99C479.612 659.703 476.26 668.055 474.413 672.418L463.137 699.336L427.77 783.56C426.216 780.645 428.844 776.189 430.194 773.525C425.905 773.225 421.216 773.037 416.941 773.4C402.632 773.53 388.211 772.934 373.928 773.523C363.205 773.621 353.087 773.143 342.536 773.108C323.145 773.044 304.089 772.93 284.691 772.474C280.431 771.573 271.996 770.681 266.955 770.004C260.433 769.443 248.94 770.156 243.055 767.782C239.36 766.291 224.047 752.547 223.557 749.528C224.79 750.003 224.96 750.233 226.173 750.231C223.674 743.844 206.632 730.374 202.303 724.538C200.496 722.103 199.955 722.539 197.798 720.479L197.393 720.086L197.021 720.284C197.419 721.996 197.64 722.922 197.809 724.659C193.16 721.199 186.013 715.678 181.884 711.544C178.608 708.264 168.776 695.605 165.089 695.092C161.807 692.673 149.7 672.978 147.218 668.577C148.483 667.206 139.1 655.689 138.679 652.39C141.506 653.265 146.829 655.297 149.301 654.128C154.984 648.088 144.763 643.959 144.638 639.238C146.683 636.536 150.427 637.872 153.501 636.976C156.908 635.981 159.782 634.787 163.281 634.018L274.84 633.945C292.181 633.941 312.652 634.499 329.75 633.858C372.655 633.82 416.792 634.578 459.596 633.763C454.579 624.623 452.81 618.589 451.813 608.17L452.51 608.7L453.273 608.35C454.777 605.515 454.958 601.512 455.237 598.288Z"/><path fill="#080717" d="M482.029 655.99L481.257 656.065C479.878 654.695 478.267 653.36 477.516 651.612C479.997 653.755 488.803 658.344 489.476 659.54C488.948 663.089 483.758 676.708 482.324 680.773L457.988 748.79C457.329 750.603 456.949 752.49 456.381 754.342C455.537 757.094 452.237 761.658 453.147 764.485L454.179 764.898C454.761 764.389 469.783 723.321 471.552 718.283L485.92 677.977C487.3 674.054 491.081 662.362 493.196 659.688C495.676 659.135 514.164 664.977 519.691 662.263C520.76 661.738 530.358 660.355 531.331 660.776C532.342 662.35 532.39 662.483 533.05 664.246C534.638 664.294 533.987 664.567 535.153 663.746C534.495 661.344 533.729 661.121 534.012 659.178C535.64 658.359 540.049 655.779 541.422 655.983C543.54 660.109 551.874 679.115 553.283 681.07C560.503 699.555 569.083 717.222 576.712 735.385C584.328 753.516 591.514 771.446 599.357 789.548C600.775 793.263 602.281 796.944 603.874 800.588L604.244 801.923L604.863 803.12L606.702 807.413L607.246 808.685L607.719 809.624L643.975 897.161C647.149 904.867 650.363 912.557 653.616 920.231C655.081 923.653 658.512 931.046 659.474 934.187C658.886 935.053 659.194 934.831 658.351 935.315C657.411 936.292 656.532 937.068 655.813 938.199L656.541 938.308C663.728 939.353 673.488 938.698 680.974 938.941C697.136 939.465 710.623 946.77 720.379 959.61C726.193 967.263 728.184 973.934 730.038 983.143C711.026 983.659 690.926 983.423 671.86 983.435L575.37 983.471L294.602 983.48C297.941 968.022 305.228 956.194 318.655 947.402C335.134 936.61 348.888 940.203 366.043 938.73C367.02 937.533 367.668 936.15 368.401 934.78C366.889 934.658 366.536 934.659 365.03 934.261C364.617 932.172 379.057 899.095 380.794 894.979L417.383 807.043C417.91 806.341 419.708 802.042 420.181 800.966C421.41 798.618 422.892 795.046 424.018 792.55C425.332 789.58 426.582 786.583 427.77 783.56L463.137 699.336L474.413 672.418C476.26 668.055 479.612 659.703 482.029 655.99ZM583.328 794.486L579.62 783.759C578.256 784.226 576.976 784.43 576.089 785.366L579.787 795.83C583.283 805.148 586.348 815.266 589.696 824.76L611.571 885.744C613.528 891.201 620.346 913.003 623.264 916.317L624.099 916.296C624.589 914.949 624.9 913.718 624.494 912.284C620.919 899.654 615.895 886.279 611.522 873.961L583.328 794.486ZM394.356 925.821C394.062 926.393 393.487 927.38 393.33 928C394.962 931.467 392.806 932.631 393.707 935.761C395.111 935.694 394.51 935.897 395.512 935.05C396.418 931.996 397.392 928.963 398.433 925.952L415.36 876.22C416.587 872.629 420.642 865.063 418.447 862.099L417.45 862.396C414.201 866.225 396.936 917.962 394.356 925.821Z"/><path fill="#FEFEFF" fill-opacity="0.24705882" d="M579.62 783.759L583.328 794.486C581.985 794.987 581.158 795.64 579.787 795.83L576.089 785.366C576.976 784.43 578.256 784.226 579.62 783.759Z"/><path fill="#FEFEFF" fill-opacity="0.89019608" d="M393.33 928C393.487 927.38 394.062 926.393 394.356 925.821C396.183 926.597 396.516 926.382 398.433 925.952C397.392 928.963 396.418 931.996 395.512 935.05C394.51 935.897 395.111 935.694 393.707 935.761C392.806 932.631 394.962 931.467 393.33 928Z"/><path fill="#080717" d="M655.813 938.199L656.541 938.308C663.728 939.353 673.488 938.698 680.974 938.941C697.136 939.465 710.623 946.77 720.379 959.61C726.193 967.263 728.184 973.934 730.038 983.143C711.026 983.659 690.926 983.423 671.86 983.435L575.37 983.471L294.602 983.48C297.941 968.022 305.228 956.194 318.655 947.402C335.134 936.61 348.888 940.203 366.043 938.73C369.734 939.252 384.682 938.955 389.227 938.945L438.068 938.854L608.15 938.806C613.977 938.816 654.093 939.341 655.813 938.199Z"/><path fill="#FEFEFF" d="M626.084 927.726L628.043 922.895C629.29 923.592 631.833 932.871 632.381 934.778C637.051 934.895 655.6 934.402 658.351 935.315C657.411 936.292 656.532 937.068 655.813 938.199C654.093 939.341 613.977 938.816 608.15 938.806L438.068 938.854L389.227 938.945C384.682 938.955 369.734 939.252 366.043 938.73C367.02 937.533 367.668 936.15 368.401 934.78C374.252 934.275 384.84 934.613 391.04 934.626C391.667 932.372 392.521 930.197 393.33 928C394.962 931.467 392.806 932.631 393.707 935.761C395.111 935.694 394.51 935.897 395.512 935.05C414.044 934.394 435.878 934.926 454.626 934.932L565.01 934.852C585.61 934.858 607.868 935.313 628.364 934.805L626.084 927.726Z"/><path fill="#FEFEFF" d="M482.029 655.99L481.257 656.065C479.878 654.695 478.267 653.36 477.516 651.612C479.997 653.755 488.803 658.344 489.476 659.54C488.948 663.089 483.758 676.708 482.324 680.773L457.988 748.79C457.329 750.603 456.949 752.49 456.381 754.342C455.537 757.094 452.237 761.658 453.147 764.485L454.179 764.898C454.761 764.389 469.783 723.321 471.552 718.283L485.92 677.977C487.3 674.054 491.081 662.362 493.196 659.688C495.676 659.135 514.164 664.977 519.691 662.263C520.76 661.738 530.358 660.355 531.331 660.776C532.342 662.35 532.39 662.483 533.05 664.246C534.638 664.294 533.987 664.567 535.153 663.746C534.495 661.344 533.729 661.121 534.012 659.178C535.64 658.359 540.049 655.779 541.422 655.983C539.443 657.767 537.174 658.725 534.782 659.941C550.229 700.657 564.733 742.68 579.62 783.759C578.256 784.226 576.976 784.43 576.089 785.366C575.141 782.964 573.867 780.271 573.631 777.764L574.726 778.319L574.407 775.246L573.802 774.909L572.847 775.962C570.601 771.327 567.106 761.26 565.53 756.195C566.04 755.198 565.937 755.456 566.256 754.322C562.962 752.086 563.06 749.691 561.782 746.091L555.322 728.34C547.15 705.768 539.531 683.549 530.85 661.105C514.546 664.503 509.188 664.376 493.506 660.059C486.135 679.283 479.322 699.495 472.337 718.925L438.737 811.001C437.235 815.099 429.213 839.658 427.68 841.68C426.056 841.27 425.265 841.576 424.404 840.809C425.888 834.629 429.923 824.252 432.154 817.985C437.211 803.488 442.433 789.049 447.821 774.671C461.827 736.325 475.552 697.877 488.996 659.33L482.029 655.99Z"/><path fill="#FEFEFF" fill-opacity="0.29411766" d="M994.633 519.955C998.664 520.27 1018.63 520.761 1020.65 521.191C1021.07 522.699 1020.54 523.962 1020.14 525.528C1020.64 527.1 1020.67 526.973 1022.01 527.982C1022.32 529.891 1022.22 532.469 1023.17 533.467C1023.66 532.367 1023.72 532.178 1024 531.008L1024 575.924C1021.09 576.695 1020 576.796 1017.1 576.222C1014.33 575.363 1014.05 575.969 1011.66 577.535C1007.01 580.581 998.965 575.951 993.99 574.899C992.307 574.544 991.609 571.322 991.217 569.802C989.405 568.212 989.873 568.697 987.22 568.103C989.379 566.356 991.04 565.162 993.626 566.666C995.081 569.036 994.519 569.74 995.118 572.451C996.584 568.695 992.607 556.491 992.789 554.384C993.653 545.393 996.777 536.355 994.604 527.285C993.912 524.399 992.447 524.709 990.62 523.313L990.508 520.894C991.998 520.661 993.178 520.324 994.633 519.955Z"/><path fill="#F8F7FE" fill-opacity="0.98039216" d="M100.177 353.059C100.548 352.095 100.835 351.262 100.964 350.23C102.252 339.891 118.76 292.847 123.928 285.089C124.77 283.825 125.443 282.942 126.961 282.666C128.067 283.533 128.185 283.634 129.436 284.254L131.423 283.466C131.993 291.548 131.835 302.32 131.848 310.545L131.726 353.061C122.168 353.089 109.488 353.461 100.177 353.059Z"/><path fill="#FEFEFF" fill-opacity="0.43529412" d="M373.928 773.523C388.211 772.934 402.632 773.53 416.941 773.4C419.752 773.659 420.63 773.54 423.265 774.368L421.266 774.856C420.137 776.757 419.266 777.246 417.499 778.603C417.335 779.913 417.294 779.438 417.641 780.732C416.622 782.089 415.996 782.147 414.403 782.728L414.022 783.731C414.783 784.932 415.362 785.237 416.491 786.071C417.041 788.845 414.94 788.279 415.224 790.758L416.005 791.63L416.824 791.653C418.989 789.405 418.41 787.753 420.057 786.747C422.831 788.076 420.703 790.655 424.018 792.55C422.892 795.046 421.41 798.618 420.181 800.966L418.662 800.406C414.328 803.326 409.447 811.832 407.095 813.021C403.56 811.808 403.84 808.375 401.746 805.958C396.304 799.678 390.995 791.618 386.162 785.309C383.975 782.454 374.556 781.693 370.115 776.098L370.234 775.296C371.992 774.262 373.873 774.33 375.963 774.147L373.928 773.523Z"/><path fill="#F8F7FE" fill-opacity="0.70980394" d="M165.089 695.092C168.776 695.605 178.608 708.264 181.884 711.544C186.013 715.678 193.16 721.199 197.809 724.659C197.64 722.922 197.419 721.996 197.021 720.284L197.393 720.086L197.798 720.479C199.955 722.539 200.496 722.103 202.303 724.538C206.632 730.374 223.674 743.844 226.173 750.231C224.96 750.233 224.79 750.003 223.557 749.528C224.047 752.547 239.36 766.291 243.055 767.782C248.94 770.156 260.433 769.443 266.955 770.004C271.996 770.681 280.431 771.573 284.691 772.474C272.148 773.072 253.179 773.148 240.989 771.245C231.329 769.738 215.195 749.381 208.185 742.327C193.861 727.912 176.09 712.344 165.089 695.092Z"/><path fill="#FEFEFF" fill-opacity="0.64313728" d="M44.1202 364.365C48.1635 363.995 44.6812 363.185 48.9431 362.103L48.8646 487.772C46.9371 475.688 46.8381 464.648 47.0835 452.416C47.1654 448.335 47.0479 442.978 45.5379 439.157L44.8399 439.12L44.9832 440.479C44.7697 443.102 44.8843 451.711 44.5061 452.821C44.1417 444.416 44.3796 434.518 44.3668 426.008C44.428 405.46 44.3458 384.912 44.1202 364.365Z"/><path fill="#FEFEFF" fill-opacity="0.43137255" d="M44.9832 440.479L44.8399 439.12L45.5379 439.157C47.0479 442.978 47.1654 448.335 47.0835 452.416C46.8381 464.648 46.9371 475.688 48.8646 487.772C48.9485 507.384 48.8997 526.997 48.7182 546.608C48.6824 554.801 48.306 568.084 48.9016 576.052L48.5203 576.061C47.8026 574.955 46.5687 571.504 46.5455 570.224C46.343 559.055 46.8479 547.771 46.8559 536.599C46.8633 526.428 47.6822 516.369 46.065 506.278C45.7129 504.081 46.5862 502.692 45.8843 500.671C45.6323 499.932 45.438 498.815 45.2623 498.041C45.018 505.403 44.4992 512.194 44.3592 519.75C43.9898 513.537 44.2234 505.361 44.1966 499.072C44.1618 490.897 44.0262 481.932 44.3776 473.823C44.5529 476.331 44.541 478.108 45.3187 480.513L45.7071 480.406C48.0157 470.091 45.8406 451.036 44.9832 440.479Z"/><path fill="#FEFEFF" fill-opacity="0.35294119" d="M622.88 773.482C625.57 773.455 629.764 773.288 632.325 773.474L632.621 774.067C634.365 774.34 634.89 774.287 636.306 775.374C637.441 779.208 630.271 781.494 628.738 784.142C625.001 790.596 622.293 797.67 619.625 804.609C619.178 805.798 622.838 809.087 615.194 810.828L615.148 811.371C616.529 812.138 617.677 815.47 617.497 816.884C615.28 814.155 613.587 814.425 612.078 811.234C611.32 809.628 610.856 808.982 609.353 808.17C607.966 808.716 608.514 808.272 607.719 809.624L607.246 808.685C607.266 807.12 607.705 806.765 608.787 805.879C610.689 805.47 612.494 806.519 614.505 807.223L615.483 806.487C616.82 803.494 619.085 794.762 618.856 791.75C617.889 792.826 618.435 792.595 617.263 792.98C618.109 791.223 616.495 788.006 617.738 786.694C620.183 784.114 625.837 781.264 627.407 777.659L625.804 777.357L627.848 776.679L627.972 776.101L626.141 775.022C624.54 774.766 624.066 774.728 622.506 774.19L622.88 773.482Z"/><path fill="#F8F7FE" fill-opacity="0.6901961" d="M609.245 633.611C657.027 632.847 706.68 633.574 754.596 633.562C799.61 633.551 847.296 632.695 892.177 633.695C893.121 635.869 895.519 635.615 895.291 638.478C891.811 638.039 890.802 644.889 887.474 646.597L886.957 646.13C887.282 644.001 888.522 643.305 889.039 641.197L888.555 640.896C884.761 642.632 878.393 642.747 876.915 638.072C877.261 635.924 876.818 636.834 878.286 635.238C852.286 633.366 820.844 633.912 794.544 633.919L671.528 633.95L632.798 633.922C625.579 633.914 616.285 634.105 609.245 633.611Z"/><path fill="#FEFEFF" fill-opacity="0.78039217" d="M602.292 774.532L602.642 775.39C607.122 777.7 608.924 772.771 617.515 773.548C618.613 774.179 618.327 773.913 619.181 774.811C618.057 776.585 617.111 777.114 615.46 778.421C610.103 782.661 609.715 786.048 608.63 792.165C604.416 795.302 603.956 795.124 603.874 800.588C602.281 796.944 600.775 793.263 599.357 789.548C600.488 784.208 592.181 777.005 602.292 774.532Z"/><path fill="#FEFEFF" fill-opacity="0.27450982" d="M986.103 524.227C987.877 522.803 988.398 521.635 990.508 520.894L990.62 523.313C992.447 524.709 993.912 524.399 994.604 527.285C996.777 536.355 993.653 545.393 992.789 554.384C992.607 556.491 996.584 568.695 995.118 572.451C994.519 569.74 995.081 569.036 993.626 566.666C991.04 565.162 989.379 566.356 987.22 568.103C987.04 570.266 986.94 573.778 986.681 575.764C985.99 566.631 986.494 546.999 986.66 537.231C987.029 538.931 987.113 544.647 987.367 547.09L988 546.958C989.924 542.609 992.994 541.472 992.978 535.44C992.968 531.635 993.233 531.331 991.837 527.58C990.211 525.673 989.039 527.013 987.07 524.492L986.103 524.227Z"/><path fill="#FEFEFF" fill-opacity="0.55686277" d="M617.515 773.548L622.88 773.482L622.506 774.19C624.066 774.728 624.54 774.766 626.141 775.022C623.546 777.768 618.328 782.537 616.904 785.598C614.809 790.1 614.518 796.177 612.605 800.987C609.761 803.323 608.256 804.099 606.702 807.413L604.863 803.12L606.182 803.259C607.874 802.154 607.227 802.871 608.107 800.954C608.016 799.258 608.152 799.277 607.148 797.954L606.112 797.826C604.674 798.932 604.663 800.106 604.244 801.923L603.874 800.588C603.956 795.124 604.416 795.302 608.63 792.165C609.715 786.048 610.103 782.661 615.46 778.421C617.111 777.114 618.057 776.585 619.181 774.811C618.327 773.913 618.613 774.179 617.515 773.548Z"/><defs><linearGradient id="gradient_4" gradientUnits="userSpaceOnUse" x1="73.694794" y1="364.49435" x2="75.669662" y2="354.2114"><stop offset="0" stop-color="white" stop-opacity="0"/><stop offset="1" stop-color="#FFFFFE" stop-opacity="0.039215688"/></linearGradient></defs><path fill="url(#gradient_4)" d="M51.3517 357.562C67.9957 357.575 87.7957 357.141 104.164 358.099C99.711 360.943 94.961 358.665 92.3476 361.812C81.7574 362.482 68.4569 362.166 57.6338 362.123C54.8121 362.117 51.1773 361.053 49.9448 358.241L51.3517 357.562Z"/><path fill="#F8F7FE" fill-opacity="0.67058825" d="M136.553 650.532C137.963 648.691 139.144 648.163 141.4 647.746L140.283 646.909L140.206 645.893L140.875 645.293L142.202 645.636L142.283 644.956C138.279 636.079 143.726 636.022 150.965 634.547C155.049 633.714 159.145 633.796 163.281 634.018C159.782 634.787 156.908 635.981 153.501 636.976C150.427 637.872 146.683 636.536 144.638 639.238C144.763 643.959 154.984 648.088 149.301 654.128C146.829 655.297 141.506 653.265 138.679 652.39C139.1 655.689 148.483 667.206 147.218 668.577C145.249 667.074 137.861 653.271 136.553 650.532Z"/><defs><linearGradient id="gradient_5" gradientUnits="userSpaceOnUse" x1="414.50342" y1="781.10571" x2="424.65369" y2="783.80316"><stop offset="0" stop-color="#FFFFFE" stop-opacity="0.59607846"/><stop offset="1" stop-color="#FFFFFE" stop-opacity="0.67058825"/></linearGradient></defs><path fill="url(#gradient_5)" d="M416.941 773.4C421.216 773.037 425.905 773.225 430.194 773.525C428.844 776.189 426.216 780.645 427.77 783.56C426.582 786.583 425.332 789.58 424.018 792.55C420.703 790.655 422.831 788.076 420.057 786.747C418.41 787.753 418.989 789.405 416.824 791.653L416.005 791.63L415.224 790.758C414.94 788.279 417.041 788.845 416.491 786.071C415.362 785.237 414.783 784.932 414.022 783.731L414.403 782.728C415.996 782.147 416.622 782.089 417.641 780.732C417.294 779.438 417.335 779.913 417.499 778.603C419.266 777.246 420.137 776.757 421.266 774.856L423.265 774.368C420.63 773.54 419.752 773.659 416.941 773.4Z"/><path fill="#FEFEFF" fill-opacity="0.13725491" d="M44.3592 519.75C44.4992 512.194 45.018 505.403 45.2623 498.041C45.438 498.815 45.6323 499.932 45.8843 500.671C46.5862 502.692 45.7129 504.081 46.065 506.278C47.6822 516.369 46.8633 526.428 46.8559 536.599C46.8479 547.771 46.343 559.055 46.5455 570.224C46.5687 571.504 47.8026 574.955 48.5203 576.061C47.3914 576.248 47.4571 576.222 46.3326 575.963L45.4946 573.251L45.006 573.577L44.6488 576.037C44.2185 573.368 44.3789 561.399 44.3745 558.015L44.3592 519.75Z"/><path fill="#FEFEFF" fill-opacity="0.50196081" d="M136.377 633.658L266.081 633.695L308.033 633.71C313.931 633.718 324.063 633.446 329.75 633.858C312.652 634.499 292.181 633.941 274.84 633.945L163.281 634.018C159.145 633.796 155.049 633.714 150.965 634.547C143.726 636.022 138.279 636.079 142.283 644.956L142.202 645.636L140.875 645.293L140.206 645.893L140.283 646.909L141.4 647.746C139.144 648.163 137.963 648.691 136.553 650.532C133.97 645.905 132.227 640.001 136.978 636.244C137.761 635.625 138.294 635.099 138.619 634.16L136.377 633.658Z"/><path fill="#FEFEFF" fill-opacity="0.96470588" d="M553.283 681.07L553.956 680.987C556.214 685.077 558.115 690.258 559.971 694.6C570.065 718.217 580.697 741.536 590.125 765.442C591.089 767.887 592.156 770.129 593.013 772.644C595.414 772.78 600.584 772.795 602.292 774.532C592.181 777.005 600.488 784.208 599.357 789.548C591.514 771.446 584.328 753.516 576.712 735.385C569.083 717.222 560.503 699.555 553.283 681.07Z"/><defs><linearGradient id="gradient_6" gradientUnits="userSpaceOnUse" x1="990.10187" y1="581.96515" x2="1002.8995" y2="570.50934"><stop offset="0" stop-color="white" stop-opacity="0"/><stop offset="1" stop-color="white" stop-opacity="0.20392157"/></linearGradient></defs><path fill="url(#gradient_6)" d="M987.22 568.103C989.873 568.697 989.405 568.212 991.217 569.802C991.609 571.322 992.307 574.544 993.99 574.899C998.965 575.951 1007.01 580.581 1011.66 577.535C1014.05 575.969 1014.33 575.363 1017.1 576.222C1014.6 577.458 1013.11 578.06 1010.92 579.834L1011.58 580.379C1003.8 580.483 993.947 580.791 986.266 580.226L985.082 579.906C984.524 578.562 984.054 578.566 982.701 577.538L982.964 577.075L985.956 576.827L986.681 575.764C986.94 573.778 987.04 570.266 987.22 568.103Z"/><path fill="#FEFEFF" fill-opacity="0.41176471" d="M626.141 775.022L627.972 776.101L627.848 776.679L625.804 777.357L627.407 777.659C625.837 781.264 620.183 784.114 617.738 786.694C616.495 788.006 618.109 791.223 617.263 792.98C618.435 792.595 617.889 792.826 618.856 791.75C619.085 794.762 616.82 803.494 615.483 806.487L614.505 807.223C612.494 806.519 610.689 805.47 608.787 805.879C607.705 806.765 607.266 807.12 607.246 808.685L606.702 807.413C608.256 804.099 609.761 803.323 612.605 800.987C614.518 796.177 614.809 790.1 616.904 785.598C618.328 782.537 623.546 777.768 626.141 775.022Z"/><defs><linearGradient id="gradient_7" gradientUnits="userSpaceOnUse" x1="989.58405" y1="527.18787" x2="986.35785" y2="545.80206"><stop offset="0" stop-color="white" stop-opacity="0"/><stop offset="1" stop-color="white" stop-opacity="0.031372551"/></linearGradient></defs><path fill="url(#gradient_7)" d="M987.07 524.492C989.039 527.013 990.211 525.673 991.837 527.58C993.233 531.331 992.968 531.635 992.978 535.44C992.994 541.472 989.924 542.609 988 546.958L987.367 547.09C987.113 544.647 987.029 538.931 986.66 537.231C986.663 532.731 986.777 528.981 987.07 524.492Z"/><path fill="#FEFEFF" fill-opacity="0.23921569" d="M407.095 813.021C409.447 811.832 414.328 803.326 418.662 800.406L420.181 800.966C419.708 802.042 417.91 806.341 417.383 807.043L416.057 806.839C412.8 810.349 404.92 824.423 401.69 824.936C401.068 821.079 405.216 819.084 407.095 813.021Z"/><path fill="#FEFEFF" fill-opacity="0.68235296" d="M972.735 532.797C972.755 534.827 972.82 535.021 974.277 536.257L975.581 536.108C978.745 533.661 978.631 531.192 982.312 531.227L981.963 539.344C980.421 540.657 980.437 541.012 979.728 543.01C979.142 544.039 978.805 544.492 978.125 545.468L977.512 545.389C977.252 543.277 977.887 541.623 978.429 539.535C977.471 539.141 976.517 538.738 975.567 538.326C975.68 539.083 975.621 539.07 975.543 539.845C973.3 539.338 972.893 537.158 970.445 536.691C968.78 537.434 967.717 539.249 966.579 540.761C965.975 539.204 966.214 539.113 966.406 537.325C968.616 535.961 970.731 534.448 972.735 532.797Z"/><path fill="#FEFEFF" fill-opacity="0.33333334" d="M44.9832 440.479C45.8406 451.036 48.0157 470.091 45.7071 480.406L45.3187 480.513C44.541 478.108 44.5529 476.331 44.3776 473.823C44.1381 467.413 44.2189 459.215 44.5061 452.821C44.8843 451.711 44.7697 443.102 44.9832 440.479Z"/><path fill="#FEFEFF" fill-opacity="0.098039217" d="M632.325 773.474L652.87 773.708C651.006 774.874 645.181 773.824 642.708 774.313C644.372 774.527 646.004 774.754 647.678 774.886L647.922 775.748C649.912 777.141 654.57 778.135 657.297 779C654.664 778.976 651.925 779.024 649.305 778.821C644.489 778.446 642.716 779.501 639.992 775.085L638.608 774.377L639.717 774.745C637.855 773.576 636.809 773.921 634.499 774.001L632.621 774.067L632.325 773.474Z"/><path fill="#FEFEFF" fill-opacity="0.57647061" d="M980.727 524.755C980.87 526.376 980.483 527.563 982.014 528.332C982.165 529.39 982.327 530.154 982.312 531.227C978.631 531.192 978.745 533.661 975.581 536.108L974.277 536.257C972.82 535.021 972.755 534.827 972.735 532.797C975.659 530.388 978.336 527.694 980.727 524.755Z"/><path fill="#FEFEFF" fill-opacity="0.32549021" d="M44.3884 357.568L51.3517 357.562L49.9448 358.241C51.1773 361.053 54.8121 362.117 57.6338 362.123C54.139 362.364 52.4502 362.329 48.9431 362.103C44.6812 363.185 48.1635 363.995 44.1202 364.365C44.143 362.189 44.2982 359.765 44.3884 357.568Z"/><path fill="#FEFEFF" fill-opacity="0.15686275" d="M985.012 518.728C989.98 520.582 990.063 517.652 994.633 519.955C993.178 520.324 991.998 520.661 990.508 520.894C988.398 521.635 987.877 522.803 986.103 524.227C984.231 525.697 983.194 526.287 982.014 528.332C980.483 527.563 980.87 526.376 980.727 524.755C982.284 522.841 983.716 520.828 985.012 518.728Z"/><path fill="#FEFEFF" fill-opacity="0.58431375" d="M452.16 597.122C453.325 597.574 453.235 597.57 454.456 597.306L455.237 598.288C454.958 601.512 454.777 605.515 453.273 608.35L452.51 608.7L451.813 608.17C451.072 604.56 451.628 600.72 452.16 597.122Z"/><path fill="#FEFEFF" fill-opacity="0.47058824" d="M604.244 801.923C604.663 800.106 604.674 798.932 606.112 797.826L607.148 797.954C608.152 799.277 608.016 799.258 608.107 800.954C607.227 802.871 607.874 802.154 606.182 803.259L604.863 803.12L604.244 801.923Z"/></svg>