<?xml version="1.0" encoding="utf-8" ?><svg xmlns="http://www.w3.org/2000/svg" xmlns:xlink="http://www.w3.org/1999/xlink" width="1024" height="1024" viewBox="0 0 1024 1024"><path fill="#010101" d="M202.572 146.33C203.729 138.568 204.117 134.434 207.764 127.224C221.566 99.9352 255.205 81.3859 283.268 72.1128C305.867 64.6453 341.375 59.744 363.164 70.8823C372.948 75.8838 377.581 81.466 380.825 91.7682C395.229 82.8896 411.096 76.2028 428.262 77.3707C445.5 78.5435 454.414 85.0066 465.399 97.3091C484.016 86.2672 511.234 78.3585 531.739 89.0201C539.957 93.293 545.533 99.6049 551.827 106.213C556.38 103.024 560.938 98.7491 565.434 95.6215C575.106 88.8921 593.389 80.7328 605.064 78.759C621.737 75.94 645.913 76.4204 661.214 83.3515C666.76 82.2653 672.876 79.5467 678.418 77.8939C706.572 69.4972 738.064 65.2076 767.405 69.5233C802.527 74.6892 855.411 99.8783 848.94 142.862C871.621 143.667 901.403 152.438 918.265 167.925C932.43 180.934 944.465 197.265 945.613 217.102C946.903 239.415 933.73 256.594 919.667 272.165C925.189 275.422 930.238 279.421 934.674 284.05C950.969 300.799 958.65 325.017 958.549 348.135C958.428 375.97 946.766 403.76 929.3 425.149C924.29 431.285 918.03 436.991 912.3 442.584C920.403 445.947 928.417 449.642 934.803 455.808C943.947 464.638 948.564 476.109 948.646 488.784C948.788 510.649 937.302 529.428 922.283 544.496C870.992 595.952 760.6 611.804 690.927 619.552C663.703 622.58 635.734 625.656 608.329 625.682C611.062 644.877 615.263 665.501 618.646 684.79L632.031 764.067C632.688 767.87 633.26 772.104 634.096 775.843C639.568 800.319 640.753 824.177 642.745 849.077C644.645 850.377 647.312 851.934 647.839 854.196C647.378 855.429 647.757 854.958 646.565 855.535L640.505 857.947C631.204 861.048 622.182 865.227 613.227 868.089L604.06 871.685C601.97 872.524 599.438 873.24 597.258 873.99C582.856 878.942 568.867 884.914 554.639 890.32C545.711 893.713 536.677 896.597 527.87 900.336C492.616 891.252 457.497 881.651 422.525 871.537C416.358 869.724 403.122 866.854 398.438 864.125C396.964 859.442 407.806 780.849 409.638 772.148C404.28 777.755 401.442 780.896 393.446 782.143C393.676 799.903 390.191 809.019 373.902 817.839C374.293 824.076 375.312 830.424 375.451 836.753C376.142 868.209 375.162 900.352 375.785 931.757C385.017 932.307 399.912 934.163 387.199 945.554L387.598 945.896C389.55 947.545 391.115 948.06 390.171 950.61C386.705 952.478 383.412 950.389 380.569 948.524C374.779 952.107 368.293 954.416 361.541 955.298C350.423 956.708 341.899 955.45 340.55 942.777C328.852 944.356 311.971 947.443 312.16 930.311C312.526 897.223 312.017 864.103 312.207 831.017C312.244 824.744 313.469 817.281 314.596 811.098C296.35 786.353 295.357 741.871 327.754 728.261C329.53 727.515 334.105 726.969 336.355 726.359L336.766 725.261C336.056 720.566 332.596 717.921 330.187 714.086C323.224 702.66 320.899 689.208 326.789 676.647C334.811 659.539 361.597 657.068 372.379 672.635C377.225 679.632 373.462 688.759 366.035 692.915C365.907 698.649 365.487 705.23 363.562 710.67C361.044 717.786 358.742 719.02 358.107 726.91C373.016 732.702 378.864 739.703 386.77 753.696C397.294 746.642 405.107 747.561 410.997 759.406C412.512 753.503 413.583 747.646 414.432 741.62C419.886 702.924 427.724 664.431 433.103 625.748C382.746 632.523 331.604 630.688 281.861 620.324C217.507 607.169 153.604 579.044 103.259 536.12C79.8793 516.186 60.3044 496.564 67.3719 462.626C71.7414 441.644 85.0056 428.939 102.441 417.58C94.2515 409.016 85.8086 402.433 79.3117 391.905C64.9804 368.683 64.2373 336.59 77.6681 312.813C84.6911 300.38 98.1591 288.263 110.136 280.801C92.7455 266.259 81.2564 242.514 85.825 219.725C94.8052 174.929 146.318 145.365 189.37 144.615C193.273 144.547 198.692 145.652 202.572 146.33ZM115.07 285.041L114.723 285.317C110.708 288.45 105.923 291.369 101.765 294.513C70.0434 318.496 64.6041 366.122 89.9992 396.168C113.088 423.485 146.199 439.745 180.074 448.191C181.28 448.491 180.403 451.422 179.571 452.528C176.353 454.273 172.153 452.743 168.803 451.873C146.935 446.19 125.75 435.086 107.652 421.824C90.5873 433.082 76.9704 445.073 72.7292 466.177C70.2046 479.165 72.9788 492.625 80.434 503.556C87.4863 514.025 99.3861 524.038 108.943 532.29C159.78 576.186 228.128 604.297 293.731 616.658C327.494 622.822 361.857 625.066 396.135 623.346C403.565 622.908 410.918 622.315 418.324 621.591C423.384 621.097 429.228 620.027 434.186 619.768C438.01 594.629 442.918 568.981 447.018 543.81C449.562 528.14 452.22 512.489 454.991 496.858C456.167 490.218 457.442 481.369 458.94 475.065C451.822 473.679 433.205 464.366 424.902 460.999L314.388 415.05C304.814 411.093 295.277 407.048 285.779 402.913C280.244 400.449 274.713 397.391 268.969 395.477C261.462 392.976 208.65 395.527 196.851 395.732C192.096 395.815 186.045 396.652 181.448 395.663C179.156 395.17 176.932 393.604 175.655 391.641C174.633 390.07 174.36 388.429 174.279 386.588C173.872 377.259 174.351 367.738 174.367 358.391L174.431 300.535L174.452 257.83C174.45 252.065 174.107 241.558 174.543 236.202C177.926 230.823 179.148 230.033 185.281 228.277L301.834 256.224C309.343 258.079 316.877 259.834 324.434 261.489C331.086 262.981 339.095 263.284 342.873 269.269C343.256 269.884 343.622 270.508 343.974 271.141C344.087 277.513 343.074 307.452 344.33 310.715L345.628 310.916C372.896 308.334 400.188 306.015 427.5 303.959C434.672 303.351 469.609 299.54 473.703 300.594C475.629 302.513 475.961 304.595 474.576 306.894C469.312 309.852 456.345 313.884 449.935 316.086C436.283 320.903 422.584 325.588 408.84 330.138C387.43 337.269 364.729 345.982 343.489 352.656C343.425 364.318 343.448 375.98 343.556 387.641C348.51 391.276 353.216 394.01 358.217 397.441L403.772 428.798L441.008 455.143C446.78 459.212 453.895 464.584 459.762 468.164C462.972 445.806 467.294 422.716 471.496 400.523C478.111 365.583 483.708 330.504 489.963 295.502C492.935 279.644 495.691 263.747 498.228 247.813C498.873 243.769 500.856 232.874 500.731 229.218L499.795 228.817C497.86 227.977 496.628 227.611 495.484 225.865C495.088 223.979 495.241 223.969 495.941 222.227C499.001 219.023 506.855 219.966 511.2 219.812C517.381 219.594 533.584 216.638 538.296 220.056C540.281 224.459 536.621 226.89 532.73 227.725C532.61 230.397 537.97 252.213 538.942 257.218C541.836 272.366 544.625 287.535 547.309 302.722C549.05 312.629 551.187 326.39 553.945 335.774C569.48 322.479 586.024 310.576 602.106 298.126C619.554 284.618 636.901 270.678 654.492 257.317L654.448 211.138C654.443 202.958 654.333 194.413 654.655 186.203C654.899 179.97 657.607 178.665 663.58 177.258C683.993 172.453 704.58 168.343 725.072 163.761C739.74 160.457 754.424 157.227 769.124 154.071C777.14 152.291 800.23 146.618 806.684 146.947C810.111 147.098 813.333 148.625 815.62 151.182C819.97 155.95 819.524 163.469 819.512 169.506C840.003 157.29 850.989 136.674 837.2 114.989C823.994 94.2203 797.937 83.2451 774.85 77.2205C742.36 69.6518 701.233 75.9783 669.932 87.1783C677.421 93.6166 694.195 108.728 690.539 120.208L689.548 121.209L688.455 121.109C685.626 117.482 682.556 110.192 679.782 105.905C670.794 91.6846 656.7 86.46 640.511 84.4913C613.823 81.2459 585.778 87.5525 564.305 104.126C555.729 110.744 550.752 118.039 544.788 126.722C543.278 128.921 541.146 129.321 539.219 127.161C538.248 122.64 544.73 115.733 547.325 111.87C541.519 102.061 530.956 94.2494 519.889 91.5395C504.444 87.7576 487.068 93.2277 473.162 99.8678C471.25 100.801 465.052 106.277 462.904 105.268C459.715 103.77 457.909 98.7237 455.132 95.9275C424.132 64.7064 368.408 96.8221 357.507 132.736C356.706 135.375 355.69 137.714 352.639 137.077C351.376 134.721 352.165 132.094 352.972 129.519C357.388 115.427 363.024 106.313 374.674 97.2106C374.481 95.0552 374.269 92.0593 373.511 90.0748C366.983 72.9875 341.663 69.7881 325.749 70.6976C289.632 73.3362 246.788 88.6448 222.539 116.475C212.981 127.444 209.584 136.164 208.944 150.196C208.877 151.653 207.84 154.397 206.137 153.811C200.709 153.113 197.538 151.504 191.849 151.353C166.236 150.927 141.319 159.701 121.625 176.083C71.9283 216.621 86.492 264.804 138.175 293.461C141.917 295.536 154.55 301.328 155.381 304.933C154.845 306.066 154.662 306.273 153.361 306.667C148.129 308.252 127.722 294.561 123.142 291.251C120.393 289.259 117.701 287.188 115.07 285.041ZM599.288 612.335C594.461 618.21 591.079 624.707 587.03 631.12C582.47 638.343 577.689 645.424 573.1 652.624C577.501 658.211 582.462 663.48 587.071 668.955C592.601 675.524 598.151 683.055 603.934 689.346C607.893 694.229 612.495 700.325 616.905 704.577C613.809 694.498 601.548 614.44 599.288 612.335ZM530.127 833.333C532.842 827.006 544.635 811.484 549.282 804.754L576.107 767.288C566.917 759.548 557.835 751.37 548.81 743.421C542.434 737.805 535.844 731.05 529.165 725.853L529.824 798.719C529.895 809.813 528.742 822.54 530.127 833.333ZM511.891 575.78C514.783 580.816 520.252 589.736 522.505 594.716L521.97 532.918C521.954 527.141 522.205 503.769 521.419 499.515C511.205 512.872 501.09 526.305 491.076 539.813C496.132 549.869 505.864 565.233 511.891 575.78ZM520.536 719.313C518.243 714.049 505.038 697.993 501.467 691.698C499.674 688.538 479.248 658.123 478.136 657.381C467.611 669.519 456.994 681.577 446.285 693.553C442.024 698.398 432.665 709.509 428.183 713.353C439.312 728.163 451.721 742.39 463.496 756.715C464.949 758.482 467.061 761.775 468.514 763.105L469.818 762.661L505.654 732.171C510.827 727.747 515.681 724.124 520.536 719.313ZM267.43 387.843C272.579 388.268 284.713 388.201 289.785 387.747L292.586 387.808C296.915 387.889 335.331 388.012 336.331 386.754C338.09 384.542 337.343 379.452 337.281 376.755C337.979 359.383 337.282 341.329 337.508 323.885C337.719 307.651 338.17 291.319 338.046 275.102C337.964 273.877 338.135 272.113 336.914 271.534C326.453 266.574 311.236 264.808 300.259 262.04C270.743 254.567 241.138 247.448 211.451 240.687C204.194 239.078 189.131 235.052 182.609 235.266C179.193 237.791 180.018 254.753 180.005 259.602L179.988 292.862C179.933 312.464 179.997 332.066 180.18 351.667C180.24 359.684 179.683 383.492 181.714 389.483C185.359 390.614 260.063 388.591 267.43 387.843ZM460.538 501.275C458.55 508.465 455.534 527.863 454.182 536.19C451.511 552.642 447.181 573.161 445.445 589.552C448.575 585.083 452.044 580.892 455.464 576.64C463.626 565.602 474.987 550.28 483.66 539.66C479.254 532.24 474.89 524.795 470.57 517.324C468.16 513.155 463.422 504.508 460.538 501.275ZM530.8 719.552C536.21 723.428 544.346 731.248 549.448 735.854L579.004 762.13L579.992 762.377C592.83 747.188 602.885 728.558 616.333 713.323C614.721 710.697 570.377 657.654 569.962 657.35C557.108 678.835 543.346 696.743 530.8 719.552ZM570.558 328.923C577.812 325.78 585.021 322.536 592.183 319.19C612.567 308.818 633.109 298.761 653.803 289.022C663.039 284.654 674.899 278.776 684.275 275.105C678.263 274.785 661.721 275.355 657.514 271.869C655.969 270.589 655.188 266.553 654.092 265.448C626.572 287.03 598.724 308.191 570.558 328.923ZM613.34 473.015C619.374 475.157 629.063 477.094 635.636 478.677C655.295 483.878 679.084 487.328 699.41 492.249C698.827 486.016 699.197 477.531 698.944 471.072C697.432 471.108 694.59 471.083 693.196 471.221C676.512 472.157 658.14 471.058 641.299 471.51C632.77 471.739 621.568 471.31 613.34 473.015ZM546.575 389.156C550.178 389.195 553.994 389.299 557.576 389.16C553.326 379.647 549.551 369.507 545.106 360.011C543.317 356.188 541.083 350.359 538.858 346.927C535.002 361.634 529.784 373.807 526.968 389.364C533.696 389.594 540.011 389.072 546.575 389.156ZM563.149 540.476C571.926 550.778 580.26 566.739 588.232 577.741C590.534 581.099 593.117 584.346 595.338 587.663C594.173 582.096 593.521 576.203 592.524 570.538L586.097 535.568C584.405 526.417 582.98 517.747 580.168 508.832C576.191 515.229 566.317 533.472 563.149 540.476ZM471.504 466.799C478.308 455.902 485.172 445.042 492.096 434.221C486.382 426.17 481.52 414.88 477.057 405.846C474.27 414.553 471.815 430.815 470.186 440.432C468.38 451.093 464.927 466.934 464.922 477.21C467.036 473.69 469.23 470.218 471.504 466.799ZM525.155 405.865C525.429 408.262 525.568 410.759 525.552 413.172C525.403 435.138 527.383 457.557 526.947 479.462C528.587 474.892 530.049 471.267 532.006 466.82C535.795 457.698 539.683 448.617 543.669 439.579C541.229 435.075 527.328 407.93 525.155 405.865ZM503.016 348.541C497.748 357.363 486.491 379.632 483.121 389.17C489.518 389.519 495.722 389.488 502.125 389.499L520.353 389.431C517.57 381.729 513.722 373.173 510.499 365.559C508.499 360.834 505.285 352.792 503.016 348.541ZM802.855 157.618C802.815 156.147 802.723 154.41 802.781 152.968C794.59 154.377 785.919 156.503 777.692 158.213C757.701 162.309 737.758 166.638 717.868 171.199C710.387 172.889 662.847 182.928 661.015 184.974C659.621 190.725 660.539 218.613 660.781 226.33C661.123 237.247 660.494 257.483 661.708 267.484C665.241 268.224 685.124 268.876 689.861 268.852L691.604 267.675C685.214 267.073 674.57 266.3 668.288 266.685C667.052 266.405 664.813 266.2 664.346 265.006C662.373 259.963 663.651 251.326 663.564 245.968C663.376 233.666 663.31 221.363 663.364 209.061C663.375 203.966 663.149 193.816 663.782 189.076C665.613 186.362 694 181.571 699.115 180.406L802.855 157.618ZM556.504 539.888C550.083 530.817 543.719 521.705 537.414 512.554C535.641 509.955 529.824 500.798 528.032 498.831C527.405 517.793 527.553 537.863 527.672 556.829C527.746 568.715 527.564 583.016 528.383 594.596L537.531 576.399C543.407 564.869 551.124 551.242 556.504 539.888ZM838.106 403.165L759.727 416.491C751.573 417.863 710.831 424.222 706.367 426.747C705.467 428.466 705.08 430.955 705.079 432.904C705.058 464.882 704.605 496.932 705.252 528.905C705.436 537.983 703.51 546.502 714.965 544.342C729.189 541.732 743.195 538.03 757.385 535.233C776.214 531.521 794.893 527.5 813.643 523.404C822.047 521.568 830.802 520.18 839.086 517.922C840.841 517.444 844.565 516.522 845.654 515.097C846.781 513.622 846.766 509.973 846.832 508.113C847.134 499.544 846.475 410.009 845.406 407.018C844.805 405.335 843.775 403.972 842.068 403.312C840.843 402.837 839.37 403.009 838.106 403.165ZM514.289 464.151L520.914 476.541C521.769 463.824 520.563 447.547 520.589 434.555C520.601 428.504 520.504 410.732 519.183 405.348C512.607 414.18 504.819 426.251 499.248 435.765C502.236 442.808 510.397 456.884 514.289 464.151ZM550.158 422.349C552.075 416.941 559.523 400.086 559.084 396.46C558.26 395.466 557.99 394.977 556.347 394.919C548.335 394.633 534.282 395.982 526.797 395.242C532.786 407.507 540.522 420.198 546.295 432.63C547.567 429.286 549.002 425.708 550.158 422.349ZM619.126 536.731C639.257 530.645 659.962 522.742 679.818 515.603C684.31 513.988 695.441 510.306 699.224 508.56C699.483 504.617 699.522 501.621 699.466 497.661C697.093 497.351 693.706 497.007 691.427 496.59C687.365 499.34 680.558 502.394 675.943 504.644C669.696 507.688 663.499 510.833 657.354 514.077C642.593 521.791 625.492 532.097 611.256 538.933C614.399 538.382 616.108 537.755 619.126 536.731ZM495.696 429.692C503.177 418.876 512.014 406.686 517.992 395.146C512.967 395.441 507.927 394.98 502.764 395.234C498.022 395.341 483.554 395.214 479.882 395.86C478.687 399.972 489.001 415.888 490.587 420.441C491.052 421.775 494.754 428.82 495.696 429.692ZM570.648 476.074C572.253 478.841 573.828 481.634 575.576 484.312C573.747 468.472 570.61 452.25 567.548 436.587C565.957 428.449 564.212 416.601 562.196 408.855C558.004 418.79 554.319 428.852 549.845 438.634C556.612 451.206 563.547 463.687 570.648 476.074ZM426.15 706.964C431.645 701.359 437.033 695.648 442.309 689.836C448.029 683.633 453.144 677.001 458.664 670.648C464.018 664.486 469.707 658.368 475.254 652.362C472.264 646.763 463.655 635.376 459.628 629.619C454.931 622.906 447.644 611.314 442.711 605.519C438.596 628.772 434.706 652.065 431.04 675.393C429.731 683.675 426.689 699.238 426.15 706.964ZM597.423 603.124C594.505 595.439 585.983 583.728 581.167 576.755C574.266 566.684 567.241 556.699 560.093 546.802C554.061 556.788 549.541 566.193 544.087 576.407C539.46 585.075 534.184 593.307 529.626 602.198C543.584 616.885 555.205 632.029 568.595 646.969C571.397 644.315 579.436 630.618 582.223 626.338C587.169 618.741 592.489 610.751 597.423 603.124ZM576.981 502.246C575.597 498.867 573.984 496.025 572.341 492.812C564.429 477.342 555.145 462.259 547.118 446.905C541.428 460.078 534.268 476.757 528.105 489.567C533.524 497.78 538.994 504.735 544.687 512.637C549.653 519.529 553.663 526.398 559.099 533.167L560.023 533.293C565.155 524.828 571.853 509.237 576.981 502.246ZM445.123 598.532C456.96 613.369 467.728 633.3 479.259 648.139C490.676 634.12 503.62 621.448 515.351 607.702C517.084 605.672 518.89 603.287 520.774 601.439C510.424 585.016 501.006 568.065 490.736 551.594C489.467 549.558 488.229 546.865 486.936 545.024L445.123 598.532ZM808.878 153.11C808.418 158.178 808.914 163.117 809 168.196C809.536 199.725 809.672 231.305 809.838 262.84C809.846 264.401 809.494 267.653 808.42 268.836C803.937 272.559 787.452 266.662 783.548 271.379C785.605 273.276 787.33 273.026 790.123 273.087C794.863 273.383 809.34 275.053 813.154 272.836C814.253 272.196 814.547 265.335 814.53 263.539C814.342 243.422 813.749 223.303 813.536 203.175L813.181 174.495C813.092 169.226 813.065 163.927 812.634 158.676C812.417 156.045 811.106 154.421 808.878 153.11ZM443.946 308.71C410.273 311.54 377.466 313.935 343.683 317.139L343.567 346.034L347.61 344.839C369.209 337.084 390.895 329.577 412.665 322.317C424.227 318.376 440.016 313.399 450.944 308.549C448.891 308.561 445.901 308.477 443.946 308.71ZM538.816 327.887C541.046 321.499 542.384 318.181 542.661 311.505C538.207 311.534 533.191 311.453 528.789 311.705C528.704 314.47 535.857 326.93 537.582 329.714L538.168 329.864L538.816 327.887ZM541.383 337.473C543.165 342.865 547.752 353.23 550.468 358.242L551.513 359.129C553.362 356.402 546.884 329.755 545.556 325.31C544.25 329.318 542.948 333.58 541.383 337.473ZM532.838 258.429C532.135 260.436 531.415 262.437 530.677 264.432C532.325 267.567 533.492 269.721 535.44 272.668L535.88 272.266C535.628 269.844 534.002 259.963 532.838 258.429ZM521.344 489.466C517.251 482.698 512.415 472.492 508.287 465.114C505.345 459.854 496.735 445.161 495.101 440.853C483.914 456.709 472.193 475.956 461.959 492.493C471.622 505.12 478.945 522.738 487.525 534.513C499.244 519.68 510.02 504.328 521.344 489.466ZM520.194 373.353C518.455 363.056 518.705 350.276 518.09 339.813C517.849 335.713 518.145 323.832 516.89 320.434C512.514 327.32 510.414 334.24 506.628 340.465C509.301 348.665 512.869 356.627 516.119 364.633L520.194 373.353ZM521.151 286.37C522.563 279.645 523.834 272.892 524.963 266.115C523.585 262.312 522.308 260.84 519.491 257.922C517.317 265.393 518.01 270.684 519.157 278.274C519.479 280.406 519.87 286.245 520.789 287.6L521.151 286.37ZM520.287 244.514C523.205 244.456 526.517 244.491 529.381 244.135C530.609 242.292 527.938 231.095 527.451 227.968C525.032 228.014 522.51 228.022 520.104 228.114C520.014 233.854 520.002 238.746 520.287 244.514ZM514.535 228.442C512.263 228.5 509.277 228.489 507.077 228.743C505.796 230.946 505.431 242.273 505.236 245.439L512.135 245.471L513.882 244.938C515.189 242.227 514.482 232.093 514.535 228.442ZM497.902 288.044L499.742 283.875C502.757 277.432 505.817 271.009 508.919 264.606C507.366 259.701 506.713 257.288 503.825 252.929C501.608 261.283 498.121 277.571 497.96 286.018L497.902 288.044ZM342.485 723.087C342.765 724.365 342.771 725.648 343.567 726.377C345.141 727.818 349.956 727.024 352.091 726.577L352.437 724.458C350.289 722.264 345.621 723.586 342.485 723.087ZM634.865 822.466C634.632 819.884 634.766 813.082 634.072 811.629L633.68 811.608C621.342 814.582 600.088 821.953 587.491 825.998C571.644 831.086 545.41 838.564 530.429 845.001C530.472 847.328 530.758 849.212 529.806 851.277C527.64 852.947 525.789 852.918 523.99 850.776C523.414 847.991 524.233 846.566 523.276 845.201C507.9 840.999 489.935 837.305 474.32 833.812L409.315 818.627C408.739 821.389 408.173 824.038 407.751 826.834C412.797 828.933 430.738 833.081 436.995 834.279C466.57 841.491 496.397 846.969 525.559 854.286C525.885 859.836 524.98 891.564 526.431 893.587C528.117 893.637 529.155 893.627 530.838 893.516C531.123 880.758 530.278 867.333 530.612 854.935C536.74 852.221 546.294 849.596 552.923 847.597L590.668 836.206C602.253 832.623 624.508 824.203 634.865 822.466ZM765.639 235.736C778.167 242.362 779.659 251.13 783.3 263.287C790.489 263.685 797.285 264.057 804.48 264.104C804.534 241.669 804.198 219.235 803.474 196.812L802.839 175.742C802.775 173.175 803.35 165.627 801.971 164.162L801.388 164.19C783.558 166.666 762.106 172.596 743.943 176.32C755.006 181.927 762.895 188.399 758.178 202.185C754.383 213.272 757.894 214.315 749.08 224.451C749.758 227.238 750.183 229.477 751.384 232.099C756.928 232.896 760.456 233.565 765.639 235.736ZM529.212 274.845C527.421 282.883 525.082 297.172 524.121 305.402C528.68 305.587 532.339 305.527 536.912 305.375C538.418 305.224 540.154 305.22 541.42 304.579C541.345 297.439 533.472 280.335 529.212 274.845ZM513.526 311.993C507.667 312.044 500.904 311.959 495.145 312.301C497.113 318.811 500.897 327.393 503.669 333.76C504.942 331.265 506.304 328.751 507.343 326.158C509.395 321.538 511.648 316.655 513.526 311.993ZM438.647 845.432C437.345 849.446 436.626 865.02 437.098 869.24C438.049 870.592 438.546 870.281 440.67 870.808L441.358 870.447C442.83 865.37 441.161 853.84 443.836 850.949C448.967 851.441 488.052 862.508 490.1 865.052C490.604 865.677 490.452 866.607 490.499 867.375C490.254 873.072 490.094 878.771 490.017 884.472L494.835 885.138C495.004 877.354 495.34 867.693 495.041 859.993C478.537 856.326 462.266 851.068 445.809 847.119C443.588 846.586 440.775 846.073 438.647 845.432ZM318.515 927.935C325.81 931.737 333.996 931.341 339.98 925.381L338.902 882.127C338.736 875.104 338.066 867.803 338.433 860.811C338.501 859.517 338.534 857.705 339.368 856.622C340.091 855.682 341.053 855.215 342.24 855.173C343.961 855.111 345.368 855.955 346.385 857.272C348.91 860.543 347.711 884.476 347.732 889.937L347.688 939.898C355.5 943.071 364.025 940.561 369.744 934.602C368.985 908.301 370.147 881.116 369.548 854.721C369.295 843.576 370.004 831.81 368.879 820.765C357.771 825.002 350.921 825.841 338.927 824.416C330.794 823.449 326.093 822.82 319.246 817.764C317.213 832.817 318.155 850.439 318.308 865.793L318.515 927.935ZM395.014 755.625C392.401 757.157 391.619 757.565 389.382 759.696C390.78 764.092 392.083 773.279 394.036 775.48C395.864 775.879 396.309 775.523 398.25 774.546C406.715 767.344 409.455 753.329 395.014 755.625ZM502.875 306.046C506.674 305.952 514.297 306.408 516.783 303.522C515.448 294.85 511.394 284.935 510.175 276.309L509.705 275.83C505.517 285.459 498.895 296.15 495.876 306.103C498.22 306.109 500.531 306.134 502.875 306.046ZM482.076 377.192L485.046 371.252C490.152 361.193 495.007 350.614 500.068 340.76C498.795 337.075 493.745 323.304 491.716 320.352C488.294 339.208 484.802 358.241 482.076 377.192ZM523.095 315.394C524.388 332.725 522.876 355.388 525.336 371.7L527.728 363.875C529.799 356.276 532.484 345.455 535.311 338.239C533.644 335.02 524.68 317.057 523.095 315.394ZM282.7 395.177C307.287 405.098 331.817 415.161 356.287 425.367C366.222 429.52 379.876 435.921 389.672 439.424L414.008 449.843C418.975 451.964 426.29 455.297 431.321 456.494C425.557 451.32 412.723 442.748 405.923 437.952C386.436 424.267 366.786 410.817 346.976 397.604C346.104 397.013 339.614 392.301 339.492 392.269C334.249 394.455 310.872 393.856 303.988 393.989C296.879 394.112 289.778 394.508 282.7 395.177ZM692.544 260.777L708.673 261.041C712.848 243.762 718.295 237.851 735.384 234.026C735.225 231.539 735.096 227.595 734.776 225.238C728.739 221.582 728.214 218.616 724.726 213.529C724.392 213.041 719.789 213.957 717.925 210.981C717.47 208.473 719.62 205.429 721.299 203.721C717.946 192.92 717.784 190.134 724.937 181.183C723.984 180.778 724.508 180.844 723.353 181.13C708.533 184.071 693.79 187.937 678.881 190.583C675.742 191.14 672.462 191.867 669.375 192.668L670.097 260.309C677.491 260.405 685.162 260.447 692.544 260.777ZM528.465 609.217C527.909 642.863 529.404 676.934 529.016 710.943C533.45 703.259 538.733 695.322 543.532 687.784C550.855 675.186 558.224 663.852 565.726 651.58C552.867 638.339 541.202 621.94 528.465 609.217ZM618.388 718.952C611.35 729.128 604.275 738.731 596.784 748.571C592.461 754.25 588.439 760.752 584.041 766.375C593.988 774.948 603.703 782.57 613.566 790.878C620.094 796.041 626.593 801.289 633.355 806.138C632.235 797.053 619.508 720.13 618.388 718.952ZM593.465 544.095C597.5 540.708 608.362 534.576 613.123 531.881C625.321 524.921 637.688 518.261 650.213 511.908C657.313 508.015 664.461 504.211 671.655 500.496C674.637 498.939 680.573 495.632 683.515 494.505C668.168 490.709 649.856 487.777 633.731 484.122L602.988 477.1C595.292 475.328 588.107 473.338 580.235 472.562C582.913 488.216 585.727 503.757 588.741 519.351C590.108 526.427 591.391 537.434 593.465 544.095ZM472.437 768.316C480.766 778.695 489.17 788.921 496.948 799.735C498.736 802.221 500.674 804.637 502.637 806.986C509.892 815.721 516.81 826.416 524.024 834.325C523.693 810.337 523.494 786.348 523.426 762.358C523.405 754.866 523.827 731.249 522.864 724.998C515.38 730.777 507.135 738.026 499.802 744.265C491.087 751.682 480.451 760.304 472.437 768.316ZM522.336 607.898C512.861 620.182 493.461 641.322 482.778 652.619C490.333 665.002 499.067 677.538 507.438 689.443C512.48 696.812 518.139 705.964 523.285 712.914C523.62 706.09 523.093 699.567 522.885 692.747C522.155 668.888 523.021 644.998 522.655 621.143C522.609 618.143 522.875 610.54 522.336 607.898ZM424.302 718.261C420.175 741.857 416.491 765.529 413.253 789.263C412.18 796.855 409.831 805.384 410.121 812.781C417.866 807.906 425.918 800.108 433.209 794.181C438.994 789.211 444.814 784.281 450.668 779.392C455.474 775.448 460.403 771.803 464.815 767.436C461.567 762.83 427.444 720.58 424.302 718.261ZM580.696 771.421C566.123 789.484 552.821 809.454 539.51 828.455C537.61 831.167 535.994 833.743 534.431 836.671C545.564 834.665 558.453 828.335 569.864 825.729C578.338 822.562 588.513 819.855 597.245 816.997C606.632 813.926 616.65 810.3 626.063 807.606C612.272 797.925 599.117 786.97 586.1 776.264C584.33 774.809 582.298 773.032 580.696 771.421ZM468.011 771.962C451.524 786.587 434.77 800.907 417.756 814.916C438.461 819.428 458.813 824.496 479.598 828.889C491.217 831.428 509.891 835.244 520.87 838.798C505.295 821.36 491.686 801.388 476.984 783.201C475.487 781.35 469.434 773.001 468.011 771.962ZM338.334 732.189C328.854 733.039 323.858 735.421 317.631 742.741C310.529 751.09 306.668 764.22 307.959 775.06C308.3 777.926 308.973 785.277 310.704 787.435C313.579 785.381 312.328 760.259 320.036 755.83L321.02 756.107C322.656 759.136 320.218 766.224 319.575 769.741C316.824 784.79 311.49 812.69 331.956 817.979C345.206 821.404 354.644 820.656 366.778 815.525C370.793 807.99 372.082 803.611 373.442 795.112C373.969 783.124 373.733 774.6 368.195 763.634C366.122 759.53 359.844 754.398 360.597 750.153L361.451 749.662C365.314 750.869 372.69 761.271 374.604 765.077C381.649 779.094 380.671 795.277 376.025 809.798C401.257 792.947 381.379 736.489 353.262 732.268C349.09 731.642 342.653 732.061 338.334 732.189ZM847.102 149.546C838.876 163.782 834.089 168.629 819.443 176.238C819.667 205.292 819.281 234.362 819.984 263.424C820.056 266.418 820.114 269.775 819.986 272.738C818.519 275.272 816.115 279.273 813.12 279.636C803.241 280.833 788.106 279.073 778.03 278.553C758.924 277.708 739.813 276.975 720.698 276.355C713.657 276.171 701.775 275.474 695.169 275.926C688.71 279.942 682.352 282.424 675.443 285.596C642.388 300.775 609.788 317.098 576.838 332.544C569.403 336.029 562.324 339.309 555.066 343.043C556.801 349.315 557.685 356.214 559.081 362.644C565.628 392.803 570.27 423.348 576.372 453.605C577.213 457.774 578.128 462.156 578.797 466.325C603.292 466.294 627.786 466.034 652.275 465.546C666.978 465.359 684.596 465.899 698.961 464.932C699.818 454.882 699.255 444.304 699.312 434.138C699.352 426.853 700.316 421.128 708.585 419.45C715.875 418.064 723.236 416.838 730.544 415.5C752.878 411.532 775.241 407.729 797.631 404.092C811.472 401.758 827 398.255 840.787 397.216C855.649 396.096 851.291 423.538 851.527 433.136L852.497 488.384C852.631 496.798 853.16 505.345 852.753 513.738C852.26 519.303 847.558 522.54 842.59 523.619C801.82 532.467 760.793 540.502 720.05 549.411C693.169 555.289 699.826 533.573 699.483 514.785C685.616 518.892 671.324 524.755 657.626 529.601C637.384 536.762 615.726 544.687 595.257 550.926L595.074 552.11L602.349 593.748C603.567 600.78 605.561 613.764 607.305 620.398C627.272 620.107 657.254 617.253 677.174 615.117C741.568 608.212 835.209 595.375 891.034 561.174C901.247 554.824 910.647 547.252 919.026 538.625C932.672 524.57 943.155 508.528 942.608 488.198C941.986 465.089 927.234 454.591 907.193 446.764C899.987 451.319 866.215 472.754 859.581 465.726C859.194 463.85 859.109 464.746 859.915 462.949C863.321 460.063 869.061 459.41 873.277 457.701C878.594 455.546 883.745 453.447 888.875 450.835C941.361 424.119 976.247 342.135 933.657 292.79C928.31 286.688 922.194 281.304 915.463 276.773C894.997 292.884 873.324 307.912 847.476 313.881C846.276 314.157 845.359 312.836 844.786 312.116C844.474 310.218 844.363 311.104 845.09 309.357C850.555 305.641 865.799 301.529 873.082 297.669C910.371 277.908 961.962 235.017 929.213 189.304C913.401 167.227 891.707 155.354 865.129 150.842C859.18 149.791 853.139 149.357 847.102 149.546Z"/><path fill="#010101" d="M512.999 166.1C524.306 164.79 534.532 172.899 535.833 184.206C537.134 195.514 529.017 205.734 517.709 207.026C506.412 208.317 496.206 200.211 494.907 188.916C493.607 177.62 501.705 167.408 512.999 166.1ZM518.323 201.851C523.408 199.369 527.508 196.312 529.546 190.708C530.897 187.073 530.624 183.033 528.796 179.612C525.583 173.566 519.731 171.731 513.302 172.126C503.963 174.5 498.766 181.572 501.714 191.206C502.991 195.284 505.898 198.652 509.745 200.511C512.679 201.906 515.154 202.164 518.323 201.851Z"/><path fill="#010101" d="M447.755 122.76C449.975 123.085 450.806 123.408 451.903 125.34C451.88 125.876 451.857 126.413 451.834 126.949C449.304 129.923 446.128 133.902 443.936 136.953C438.005 145.291 433.524 154.57 430.683 164.399C422.399 192.486 428.959 214.977 444.259 239.443C447.3 244.306 452.921 249.17 455.571 254.026C455.765 255.747 455.155 256.467 454.333 258.012C449.959 257.802 447.537 254.708 444.845 251.509C427.897 231.109 419.61 204.884 421.761 178.45C423.264 160.795 434.286 134.012 447.755 122.76Z"/><path fill="#010101" d="M579.481 120.654C583.221 122.002 584.925 123.923 587.632 126.672C620.39 159.945 620.527 225.875 584.824 257.73L582.771 257.428C581.126 256.065 581.584 256.892 581.153 254.979C581.698 252.772 584.186 250.506 585.704 248.76C612.975 217.397 612.199 163.597 584.729 132.5C583.23 130.804 577.779 125.627 577.441 124.052C577.584 122.458 578.392 121.866 579.481 120.654Z"/><path fill="#010101" d="M458.556 133.809C460.997 133.875 461.498 133.618 462.656 135.83C462.487 140.022 456.317 146.247 454.044 150.012C439.229 174.555 439.366 202.966 455.268 226.97C457.53 230.383 466.033 239.843 466.503 242.498C466.253 244.084 465.596 244.428 464.395 245.527C463.522 245.42 462.654 245.316 461.954 244.726C448.741 233.595 439.192 211.929 437.085 195.418C434.07 171.79 444.89 151.616 458.556 133.809Z"/><path fill="#010101" d="M595.117 200.254C593.915 210.463 590.636 220.318 585.48 229.212C583.122 233.284 575.04 248.125 569.15 244.099C567.662 240.55 571.329 237.925 573.429 235.557C595.39 210.788 594.342 169.616 573.356 144.523C571.141 141.875 568.16 139.046 568.122 135.433C571.013 131.032 578.563 141.199 580.213 143.315C589.161 154.79 592.74 166.931 595.131 180.948C595.793 184.932 595.92 196.401 595.117 200.254Z"/><path fill="#010101" d="M557.696 146.256C561.941 146.67 562.722 148.228 565.113 151.451C576.266 166.484 580.493 184.09 577.005 202.542C574.894 213.708 567.976 226.98 558.304 233.452C556.283 233.545 555.559 233.159 554.649 231.524C554.811 227.776 561.091 222.657 563.613 219.15C565.572 216.384 567.202 213.399 568.47 210.256C574.339 195.602 573.133 175.954 564.897 162.168C562.682 158.46 558.454 154.032 556.608 150.003C556.052 148.791 557.06 147.477 557.696 146.256Z"/><path fill="#010101" d="M469.85 146.388C472.158 146.224 472.713 146.269 473.977 148.056C474.153 152.378 467.086 158.706 465.472 163.02C464.068 166.775 462.587 170.197 461.473 174.12C457.083 189.153 460.395 205.385 470.324 217.496C472.635 220.338 477.566 224.568 479.052 227.215C479.14 229.398 479.14 228.685 477.846 230.87C474.002 230.394 472.677 229.279 469.943 226.465C455.15 211.243 449.306 189.194 456.833 169.04C459.672 161.439 464.155 152.276 469.85 146.388Z"/><path fill="#010101" d="M546.64 158.697C552.066 160.107 556.118 166.925 558.248 171.715C562.689 181.702 563.224 193.054 559.011 203.211C556.803 208.536 552.01 217.101 546.454 219.457C544.154 219.022 543.53 218.99 542.191 217.383C542.43 213.32 547.442 210.904 549.791 207.481C551.678 204.731 553.118 202.166 554.244 199.032C557.578 189.951 556.471 179.834 551.253 171.688C549.24 168.606 546.372 165.493 544.873 162.277C545.004 160.318 545.265 160.599 546.64 158.697Z"/><path fill="#010101" d="M483.652 158.318C483.324 158.182 485.486 159.063 485 158.967C485.658 159.096 486.666 160.967 486.408 161.489C480.782 172.875 477.883 170.639 476.71 183.568C474.961 202.84 490.614 208.972 491.328 213.901C490.701 215.615 490.505 215.573 489.058 216.64C483.164 214.128 479.141 208.983 475.45 203.961C466.314 191.531 470.063 166.606 483.652 158.318Z"/><path fill="#010101" d="M184.573 248.869C184.219 237.221 189.882 238.929 198.425 240.996C224.797 247.376 251.15 254.021 277.59 260.116L318.185 269.451C322.547 270.46 333.647 272.555 337.192 274.34L338.046 275.102C338.17 291.319 337.719 307.651 337.508 323.885C337.282 341.329 337.979 359.383 337.281 376.755L336.743 372.343L336.23 377.253C336.198 379.369 336.522 382.481 334.74 384.002C331.462 386.801 294.769 386.45 288.831 386.53L289.785 387.747C284.713 388.201 272.579 388.268 267.43 387.843L268.064 386.396L267.626 385.943C242.391 383.665 215.174 386.598 189.771 384.98C186.787 384.79 184.906 383.18 184.545 380.2C184.172 377.649 184.346 369.99 184.353 367.109L184.407 340.768L184.573 248.869ZM190.594 378.877C201.042 379.067 211.493 379.105 221.942 378.994C221.044 358.331 224.485 343.679 246.119 337.152L247.719 333.468L247.658 333.627C245.582 327.839 245.407 324.847 244.769 318.701C238.384 311.727 240.759 305.015 244.121 297.232C250.252 283.036 258.041 281.347 269.704 291.506C271.918 293.386 287.767 292.817 285.44 300.503C284.191 304.938 276.471 305.604 272.592 306.046C271.96 315.454 272.765 321.652 269.059 330.317C264.962 337.02 261.139 334.059 262.079 341.688C282.348 350.198 285.671 358.797 289.737 379.917C297.849 380.076 322.452 380.468 329.771 379.55C330.364 367.029 330.124 352.651 330.183 339.993L330.439 279.133C323.053 276.435 315.813 275.553 308.505 273.508C292.445 269.012 276.427 265.99 260.268 262.222L213.35 250.896C206.413 249.229 197.372 246.757 190.629 245.61C189.737 253.548 189.906 263.96 189.898 272.138L189.982 311.345L190.403 351.253C190.46 360.624 189.839 369.478 190.594 378.877Z"/><path fill="#828187" d="M337.192 274.34L338.046 275.102C338.17 291.319 337.719 307.651 337.508 323.885C337.282 341.329 337.979 359.383 337.281 376.755L336.743 372.343L336.23 377.253C335.756 365.623 336.368 352.332 336.409 340.437L336.928 301.389C337.024 292.418 336.836 283.281 337.192 274.34Z"/><path fill="#FEFEFE" d="M267.626 385.943C270.778 385.339 285.523 385.919 288.831 386.53L289.785 387.747C284.713 388.201 272.579 388.268 267.43 387.843L268.064 386.396L267.626 385.943Z"/><path fill="#010101" d="M836.229 406.167C838.796 405.682 840.905 405.378 842.653 407.393C843.483 411.354 842.842 430.693 842.885 436.178L843.171 481.398C843.255 489.104 844.351 507.283 842.763 513.94C839.359 516.76 807.114 521.523 800.191 522.713C772.336 527.501 744.946 532.58 717.233 538.37C715.507 538.598 712.892 538.555 711.888 536.87C710.88 535.178 710.509 531.894 710.498 529.944C710.444 519.503 710.752 509.067 710.708 498.623L710.567 458.659C710.534 452.31 709.981 434.594 711.271 429.752C715.414 427.608 748.997 422.147 755.743 420.901C773.306 417.545 790.893 414.319 808.503 411.225C817.517 409.567 827.225 407.5 836.229 406.167ZM716.125 433.821C715.365 462.916 716.241 492.316 715.912 521.44C715.887 523.688 715.676 530.679 716.95 532.173L719.148 531.89C743.353 527.259 767.11 522.463 791.424 518.106C803.757 515.896 825.9 512.805 836.975 509.621C837.655 501.9 837.682 415.741 835.995 412.892L833.822 413.178C794.278 419.236 755.312 427.719 716.125 433.821Z"/><path fill="#FEFEFE" fill-opacity="0.0078431377" d="M336.23 377.253L336.743 372.343L337.281 376.755C337.343 379.452 338.09 384.542 336.331 386.754C335.331 388.012 296.915 387.889 292.586 387.808L289.785 387.747L288.831 386.53C294.769 386.45 331.462 386.801 334.74 384.002C336.522 382.481 336.198 379.369 336.23 377.253Z"/><path fill="#FEFEFE" fill-opacity="0.086274512" d="M668.288 266.685C674.57 266.3 685.214 267.073 691.604 267.675L689.861 268.852C685.124 268.876 665.241 268.224 661.708 267.484C663.787 267.389 665.867 267.321 667.947 267.281L668.288 266.685Z"/><path fill="#FEFEFE" d="M691.604 267.675C695.486 267.425 704.455 267.369 707.945 268.762L708.366 269.245C703.189 269.841 695.233 269.232 689.861 268.852L691.604 267.675Z"/><path fill="#010101" d="M871.412 652.69C888.126 652.214 903.34 659.194 906.918 677.693C908.477 685.755 905.654 697.123 900.796 703.574C898.555 706.548 895.715 708.906 893.389 712.11L893.002 712.652C902.278 715.895 910.967 717.716 916.677 726.98C922.664 736.693 924.184 750.523 924.954 761.759C925.827 774.488 921.939 788.109 921.343 800.604C920.873 810.45 922.229 821.805 921.579 831.816C920.561 847.522 919.418 862.783 918.774 878.549C918.415 887.476 918.177 896.408 918.06 905.342C918.024 913.17 919.141 922.578 917.612 930.195C917.203 932.228 914.136 935.459 912.176 936.325C904.227 939.836 894.087 934.912 886.633 932.134C886.385 932.042 884.917 931.845 884.85 931.949C883.259 934.432 881.392 939.764 878.344 940.915C871.768 943.4 861.864 941.045 855.488 938.733C849.654 936.617 841.147 934.263 838.287 928.504C839.414 921.655 844.628 922.325 850.438 921.325C850.829 915.819 851.064 909.917 851.057 904.399C851.022 878.163 851.337 851.933 851.562 825.698C851.623 818.631 852.306 811.528 852.288 804.454C846.832 796.617 839.695 785.586 838.319 775.862C838.037 773.872 838.241 768.629 838.313 766.461C834.918 767.351 830.049 770.076 826.93 769.661C823.876 766.328 807.068 731.906 806.193 727.831C807.677 724.393 838.094 719.705 843.253 719.408C845.25 719.293 848.982 729.638 849.783 731.707C855.896 723.829 866.728 718.635 875.56 713.601C860.068 706.137 857.675 696.583 859.367 680.162C855.342 676.414 851.37 671.975 850.399 666.396C848.442 655.157 863.865 653.598 871.412 652.69ZM887.347 707.879C909.881 697.705 907.781 654.015 868.316 658.659C865.078 659.171 852.468 660.64 855.126 666.452C861.612 680.634 881.925 676.326 878.352 696.618C876.402 707.687 876.515 709.001 887.347 707.879ZM847.755 737.435C844.75 733.914 840.928 725.661 840.455 725.243C831.864 726.703 822.24 728.951 813.679 730.933C818.12 739.648 822.412 748.438 826.551 757.3L830.021 763.361C833.441 761.846 836.246 760.955 839.814 759.796C840.718 755.974 845.512 742.245 847.17 738.697L847.531 737.906L847.755 737.435ZM912.284 925.308C913.131 910.744 912.106 890.014 912.591 874.898C913.033 861.136 917.438 819.013 914.859 807.824C894.658 817.462 879.081 814.358 858.252 810.044C856.738 826.156 857.472 853.273 857.507 870.086L857.485 908.814C857.429 915.312 857.042 921.602 857.161 928.113C861.16 930.154 875.636 934.775 878.359 929.662C879.444 927.625 879.073 915.789 879.132 912.733L880.075 872.495C880.244 865.254 879.564 850.805 882.554 843.893C882.997 842.868 884.445 842.893 885.483 842.801C891.046 844.712 889.272 862.183 889.076 867.386C889.534 874.589 890.517 916.13 889.17 921.056C898.978 923.916 899.166 927.206 912.284 925.308Z"/><path fill="#010101" d="M749.46 734.205C755.555 733.466 761.384 734.437 767.223 735.117C792.381 738.203 796.232 752.388 797.148 774.971C797.838 791.978 793.732 805.562 791.642 822.104C791.808 830.861 792.252 839.11 792.174 847.91C792.044 862.666 790.51 877.75 789.95 892.385C789.557 904.714 789.434 917.05 789.581 929.385C789.589 932.311 789.439 936.243 789.607 939.062C791.479 970.627 777.938 963.043 756.363 955.955C754.118 962.226 752.716 965.193 745.621 966.192C736.559 966.141 731.548 964.103 723.249 960.883C712.076 956.548 698.556 947.191 720.331 945.231C720.764 931.703 720.374 917.947 720.626 904.366C721.111 878.311 721.939 852.385 722.033 826.325C711.08 815.64 705.863 802.62 703.449 787.531C702.767 782.278 704.849 776.836 707.219 772.269C719.779 748.07 720.124 736.723 749.46 734.205ZM726.385 946.725C730.522 950.503 737.812 953.816 743.546 953.493C744.989 953.411 747.16 952.873 747.998 951.559C748.416 950.903 749.767 893.137 749.908 888.558C750.09 882.613 749.355 875.093 750.913 869.412C751.384 867.698 752.256 866.356 753.911 865.602C755.385 865.687 756.12 865.726 757.252 867.069C758.163 868.167 758.78 869.48 759.044 870.883C759.677 874.191 759.118 889.272 759.175 893.512C759.448 904.256 759.514 915.004 759.372 925.75C759.313 931.005 758.976 938.125 759.164 943.184C767.179 947.164 769.655 948.058 778.36 949.65C780.269 949.052 781.66 948.849 783.025 947.426C785.503 942.419 783.628 888.701 784.606 877.97C785.579 867.288 787.405 841.364 785.905 830.726C780.892 832.677 775.405 834.658 769.992 834.974C757.872 835.681 743.283 836.83 731.994 831.929C730.53 831.28 729.08 830.599 727.645 829.889C727.061 846.661 726.25 863.447 727.19 880.215C727.785 890.81 727.334 901.812 726.994 912.439C726.65 923.213 728.061 936.212 726.385 946.725Z"/><path fill="#010101" d="M744.12 672.178C784.277 670.873 788.224 724.384 755.157 731.667C751.171 731.726 748.605 731.659 744.873 730.187C738.83 727.868 734.01 723.163 731.547 717.178C729.386 711.883 729.009 705.528 731.159 700.167C729.937 699.339 728.735 698.48 727.555 697.592C724.65 695.362 722.264 691.47 721.877 687.783C721.546 684.659 722.523 681.537 724.577 679.16C729.327 673.583 737.322 672.663 744.12 672.178ZM756.101 725.41C779.827 718.681 777.104 674.704 741.678 677.641C726.229 680.17 720.596 685.848 736.399 696.018C740.181 698.452 747.171 700.015 748.201 704.592C749.647 710.313 747.659 714.43 747.611 719.814C749.903 723.821 751.062 725.669 756.101 725.41Z"/><path fill="#FEFEFE" d="M613.227 868.089C622.182 865.227 631.204 861.048 640.505 857.947L640.905 860.17C642.726 861.406 642.652 861.366 643.975 863.147C643.761 863.506 642.122 866.23 642.047 866.44L641.304 868.769C637.842 868.537 635.083 867.787 632.379 870.334L632.608 871.11C635.506 871.356 635.934 869.72 638.918 869.503L640.211 870.869C638.458 871.77 638.842 871.131 638.381 872.498L641.015 872.902C641.503 874.677 641.718 874.82 641.114 876.569C638.761 879.076 636.056 878.319 632.933 877.716C631.44 878.326 629.851 879.013 628.326 879.512C626.839 879.332 625.408 879.056 623.933 878.798L624.565 877.577C626.075 876.743 628.83 875.363 629.509 873.845C619.413 872.766 624.522 875.655 616.731 876.848C617.371 874.856 617.814 874.426 616.354 873.072C614.203 872.524 611.486 873.243 609.193 873.628C612.895 870.425 615.217 873.033 617.709 869.925L617.474 869.179C615.475 869.048 614.99 869.017 613.227 868.089Z"/><path fill="#010101" d="M640.905 860.17C642.726 861.406 642.652 861.366 643.975 863.147C643.761 863.506 642.122 866.23 642.047 866.44C640.333 866.687 635.686 867.668 634.541 865.693C633.988 864.739 633.191 863.49 633.296 862.408C636.495 861.7 637.824 861.327 640.905 860.17Z"/><path fill="#010101" d="M638.381 872.498L641.015 872.902C641.503 874.677 641.718 874.82 641.114 876.569C638.761 879.076 636.056 878.319 632.933 877.716L632.038 876.463C631.885 874.573 631.633 875.378 632.696 873.932C634.665 872.822 636.151 872.802 638.381 872.498Z"/><path fill="#010101" d="M623 865.679L624.171 866.71L623.889 866.904C626.525 867.651 629.351 867.518 631.442 868.525L631.727 869.453C630.688 871.014 630.059 871.235 628.475 872.198C626.218 872.658 622.381 873.413 620.684 871.722C620.722 870.202 621.91 868.926 622.836 867.593L621.909 866.874L621.757 867.324L623 865.679Z"/><path fill="#010101" d="M647.556 856.68C652.353 853.522 652.938 854.283 658.651 853.624C659.358 853.543 658.919 851.419 661.393 851.162C662.549 854.163 659.946 858.386 660.818 860.781L661.555 860.188C664.513 857.853 667.586 857.178 670.963 859.077L671.641 860.255C670.494 864.187 665.393 864.504 661.882 863.663C660.676 863.375 659.536 860.393 658.802 859.363C655.223 859.132 653.929 861.024 649.761 860.459C648.433 858.778 648.272 858.652 647.556 856.68Z"/><path fill="#010101" d="M609.193 873.628C611.486 873.243 614.203 872.524 616.354 873.072C617.814 874.426 617.371 874.856 616.731 876.848C610.624 880.026 608.459 876.778 605.692 877.8C605.019 879.015 604.663 880.098 604.054 881.306C601.823 885.733 596.762 884.543 593.37 882.777L593.128 881.873C596.139 878.355 604.23 880.11 607.22 873.653L609.193 873.628Z"/><path fill="#010101" d="M406.382 937.124C409.263 937.302 412.53 937.299 413.515 940.572L412.956 941.433C410.479 942.548 406.203 942.615 403.349 942.812C402.159 944.517 402.25 944.541 400.522 945.596C397.591 945.623 396.204 945.819 393.843 944.198C393.089 942.518 393.279 943.402 393.462 941.414C396.36 938.932 400.945 941.914 402.261 940.715C403.857 939.261 402.054 938.521 406.382 937.124Z"/><path fill="#FEFEFE" fill-opacity="0.039215688" d="M646.565 855.535L647.556 856.68C648.272 858.652 648.433 858.778 649.761 860.459C650.448 862.747 650.612 862.968 652.513 864.4C654.47 864.916 657.244 862.946 659.757 863.641L660.141 864.382L659.868 863.68C659.689 865.618 659.308 865.681 657.233 865.957C654.273 864.608 651.027 865.55 648.043 866.598C646.613 867.081 646.296 867.07 644.828 867.242L644.166 866.671C644.197 865.589 644.206 865.034 644.079 863.976L643.975 863.147C642.652 861.366 642.726 861.406 640.905 860.17L640.505 857.947L646.565 855.535Z"/><path fill="#010101" d="M648.043 866.598C651.027 865.55 654.273 864.608 657.233 865.957C657.945 872.903 648.695 871.832 644.434 870.102C645.393 869.029 646.968 867.622 648.043 866.598Z"/><path fill="#010101" d="M402.437 950.199C404.443 950.248 405.611 950.169 407.14 951.452C407.751 954.727 403.529 955.062 401.146 955.501C398.228 955.624 397.146 956.139 395.168 953.96L395.312 952.825C397.549 950.176 398.92 950.507 402.437 950.199Z"/><path fill="#010101" d="M645.973 842.499C646.735 842.431 647.499 842.379 648.263 842.344C651.15 842.227 654.945 842.196 657.108 844.221C657.613 845.971 657.668 845.109 656.711 846.874C653.304 847.9 649.142 848.096 646.206 845.822C645.4 844.008 645.594 844.715 645.973 842.499Z"/><path fill="#010101" d="M590.48 883.079C592.132 883.715 592.548 884.213 592.851 885.797C591.471 888.891 587.096 889.009 584.236 889.047C582.444 888.598 581.744 888.534 581.494 886.744C583.209 884.488 587.716 883.722 590.48 883.079Z"/><path fill="#010101" d="M665.967 843.206C668.954 843.152 670.123 842.657 671.852 845.242L671.601 846.396C670.26 847.927 669.393 847.902 667.299 848.429C665.032 848.518 663.863 848.733 662.094 847.282C661.348 845.712 661.39 846.49 661.908 844.875C663.417 843.465 663.816 843.56 665.967 843.206Z"/><path fill="#010101" d="M608.311 886.014C610.666 886.202 613.768 886.272 613.499 889.376C612.519 890.827 611.735 890.917 610.082 891.535C606.986 891.644 605.401 892.403 603.526 889.776L603.771 888.629C604.988 886.97 606.266 886.786 608.311 886.014Z"/><path fill="#010101" d="M677.213 847.593C679.712 847.446 684.248 846.92 684.924 850.08C684.158 851.563 683.381 851.776 681.902 852.576C679.434 853.131 675.355 853.618 674.707 850.453C675.438 848.781 675.777 848.664 677.213 847.593Z"/><path fill="#010101" d="M417.073 943.136C419.718 942.912 424.94 942.121 426.077 945.094C425.41 946.45 424.728 946.647 423.403 947.394C420.567 947.75 415.904 948.512 414.828 945.037C415.562 943.758 415.725 943.853 417.073 943.136Z"/><path fill="#010101" d="M628.326 879.512C628.32 880.005 628.118 881.198 628.042 881.746C625.668 885.354 620.553 885.435 618.622 881.671L619.05 880.504C620.632 879.132 621.771 879.179 623.933 878.798C625.408 879.056 626.839 879.332 628.326 879.512Z"/><path fill="#010101" d="M576.153 889.055C578.02 888.869 578.743 889.19 579.901 890.478C579.539 894.229 576.302 893.978 573.379 893.904C571.456 893.967 571.079 894.057 569.727 893.157L569.735 892.337C571.924 889.849 572.909 889.769 576.153 889.055Z"/><path fill="#010101" d="M563.985 894.13C566.023 894.134 566.875 894.15 567.878 895.851C567.038 898.518 565.548 898.811 563.102 899.616C560.581 899.626 560.283 899.705 558.733 898.217C558.504 894.897 561.389 894.541 563.985 894.13Z"/><path fill="#FEFEFE" fill-opacity="0.3019608" d="M604.06 871.685L613.227 868.089C614.99 869.017 615.475 869.048 617.474 869.179L617.709 869.925C615.217 873.033 612.895 870.425 609.193 873.628L607.22 873.653C605.461 872.99 605.473 873.074 604.06 871.685Z"/><path fill="#010101" d="M394.439 930.405C396.697 930.482 402.451 931.089 402.194 934.067L400.685 935.043C398.067 935.121 394.529 935.628 392.602 934.135C392.633 932.184 393.016 932.366 394.439 930.405Z"/><path fill="#010101" d="M377.805 924.005C381.217 923.812 387.703 923.877 388.031 928.278C383.518 930.066 379.358 928.829 377.805 924.005Z"/><path fill="#FEFEFE" fill-opacity="0.81176472" d="M643.975 863.147L644.079 863.976C644.206 865.034 644.197 865.589 644.166 866.671L644.828 867.242C646.296 867.07 646.613 867.081 648.043 866.598C646.968 867.622 645.393 869.029 644.434 870.102C644.13 872.192 644.553 871.354 643.422 872.85C642.228 873.173 642.293 873.239 641.136 872.858L641.015 872.902L638.381 872.498C638.842 871.131 638.458 871.77 640.211 870.869L638.918 869.503C639.592 869.592 640.325 869.642 641.007 869.704L641.304 868.769L642.047 866.44C642.122 866.23 643.761 863.506 643.975 863.147Z"/><path fill="#010101" d="M554.643 899.567C556.216 900.01 556.667 900.287 557.137 901.634C555.816 904.101 553.011 904.427 550.499 904.859C548.648 904.243 548.629 904.113 547.894 902.898L548.474 901.797C550.762 900.225 551.985 900.124 554.643 899.567Z"/><path fill="#010101" d="M579.849 903.311C581.394 903.445 581.39 903.327 582.642 904.183L582.812 905.153C581.957 907.166 579.973 908.806 578.362 910.404C577.44 910.472 577.151 910.295 576.203 910.078C574.377 907.504 577.943 904.821 579.849 903.311Z"/><path fill="#FEFEFE" fill-opacity="0.45882353" d="M597.459 887.479C598.935 888.057 598.963 887.95 600.002 889.102C599.75 891.001 597.593 892.152 595.812 893.573C594.749 894.414 595.364 894.257 593.962 894.16C592.171 890.729 593.566 887.951 597.459 887.479Z"/><path fill="#010101" d="M589.6 895.457L592.012 895.59C593.517 896.664 593.112 895.967 593.4 897.667C592.677 899.397 592.15 899.525 590.552 900.501C588.263 900.482 588.152 900.727 586.644 899.578L586.531 898.366C587.395 896.634 587.965 896.469 589.6 895.457Z"/><path fill="#010101" d="M376.606 952.855C378.612 953.16 378.791 953.147 379.967 954.351L379.917 955.42C378.934 957.237 378.022 957.525 376.166 958.644C373.969 958.247 374.8 958.748 373.349 957.5L373.305 956.24C374.455 954.241 374.648 954.201 376.606 952.855Z"/><path fill="#FEFEFE" fill-opacity="0.53333336" d="M641.304 868.769L641.007 869.704C640.325 869.642 639.592 869.592 638.918 869.503C635.934 869.72 635.506 871.356 632.608 871.11L632.379 870.334C635.083 867.787 637.842 868.537 641.304 868.769Z"/></svg>