<?xml version="1.0" encoding="utf-8" ?><svg xmlns="http://www.w3.org/2000/svg" xmlns:xlink="http://www.w3.org/1999/xlink" width="1024" height="1024" viewBox="0 0 1024 1024"><path fill="#2B2B2B" d="M497.253 81.6981C498.46 81.6046 499.669 81.5504 500.879 81.5357C552.464 81.0735 625.483 101.191 663.018 138.305C675.419 150.566 679.333 157.371 688.551 170.842C713.115 206.743 719.798 226.133 720.318 268.861C759.093 313.445 795.273 366.147 819.265 420.272C826.37 436.302 831.746 452.838 836.784 469.602C849.898 453.215 858.169 432.638 867.319 414.09C868.314 412.073 872.197 413.311 873.624 414.958C875.231 422.686 842.406 480.905 833.426 483.413C832.366 483.089 831.419 482.68 831.129 481.391C815.15 410.332 775.004 349.75 730.259 293.197C726.34 288.563 724.174 285.045 719.695 280.322C718.669 284.063 717.958 290.685 717.265 294.792C715.94 302.491 714.318 310.137 712.403 317.712C702.083 357.92 680.45 397.889 653.111 429.082C624.131 462.147 587.547 478.622 543.95 481.368C524.151 482.615 504.925 481.083 485.334 478.084C438.185 470.868 399.662 455.87 363.551 423.928C324.405 389.301 309.536 352.534 306.513 301.052C304.299 263.356 310.05 224.061 324.144 188.95C326.77 182.406 329.494 175.701 333.119 169.644C336.244 164.422 340.044 159.713 344.087 155.18C382.266 112.365 440.041 85.0511 497.253 81.6981ZM527.645 470.126C587.287 469.289 623.196 451.673 658.048 402.712C688.334 360.165 708.008 312.9 708.006 259.792C707.855 227.555 695.721 202.348 678.017 176.394C671.83 166.844 666.028 157.96 657.763 149.958C623.565 116.846 575.619 100.903 529.158 95.5657C520.247 94.5421 508.037 93.004 499.158 93.7007C443.728 97.3467 388.712 122.898 351.782 164.79C342.1 175.773 339.638 183.51 334.416 196.446C318.088 236.892 316.771 274.939 319.961 317.806C322.955 358.041 343.536 390.512 373.427 416.634C416.046 453.878 471.725 470.189 527.645 470.126Z"/><path fill="#2B2B2B" d="M509.61 139.347C513.623 139.28 533.054 151.759 538.799 154.662C549.195 159.812 559.938 164.23 570.949 167.882C600.517 177.413 622.737 178.712 653.218 177.565C651.369 211.645 648.588 242.907 641.094 276.457C636.794 295.008 631.846 313.402 626.259 331.607C624.732 336.611 617.857 356.199 617.648 359.873C617.063 370.172 617.956 388.085 618.599 398.582C629.586 396.595 629.334 397.313 629.82 408.234C616.578 407.502 591.581 409.958 577.482 410.942L511.338 414.937C489.166 415.905 466.671 417.326 444.5 418.604C432.313 419.306 417.997 419.962 406.059 421.246C405.76 419.371 405.224 417.607 406.003 415.946C408.154 413.68 413.99 414.462 418.03 414.18C417.894 403.925 416.463 392.3 415.775 381.929C414.472 375.228 415.443 363.99 413.395 357.67C409.885 346.839 404.921 335.473 401.647 324.474C389.523 283.744 373.227 233.86 372.98 191.337C383.805 189.952 393.152 190.174 404.638 188.148C440.952 181.743 482.096 164.041 509.61 139.347ZM479.555 410.614C487.473 409.764 495.449 409.558 503.381 408.934C502.808 395.848 502.101 380.127 501.073 367.144C498.852 367.392 496.595 367.896 494.539 367.237C493.272 365.94 493.727 366.709 493.371 364.727C495.351 360.722 504.349 360.79 508.496 360.735C515.305 360.646 529.629 357.751 535.64 360.361C536.866 361.797 536.623 361.014 536.918 362.647C535.705 364.345 534.327 364.549 532.178 365.172C531.814 372.399 533.722 399.59 534.502 407.045C544.578 406.016 555.025 406.173 565.052 405.176C564.996 386.748 562.923 367.95 562.327 349.513C562.235 346.673 562.062 343.789 561.852 340.956C561.955 338.38 561.875 337.204 561.604 334.632L561.712 333.787C560.402 313.48 560.009 289.487 559.38 268.992C559.409 266.738 559.316 265.235 559.118 262.985C558.859 249.266 558.894 229.768 557.175 216.598C530.908 214.876 505.438 215.572 479.227 217.701C475.415 218.011 472.077 218.372 468.385 219.389C468.598 244.104 470.088 273.396 472.508 298.196C472.857 303.55 473.155 308.907 473.4 314.267C473.514 317.473 473.415 323.349 473.916 326.26C475.396 354.319 477.784 382.484 479.555 410.614ZM586.507 293.551C589.755 293.486 593.216 293.477 596.442 293.318C596.481 294.815 596.462 298.61 596.797 299.854C597.365 305.601 592.374 305.704 588.354 303.701C587.246 301.979 587.606 302.095 587.439 299.744L586.507 293.551ZM480.652 299.465L486.976 298.98C489.601 299.04 489.054 298.614 490.56 299.987C491.645 303.097 490.267 305.781 491.784 308.074C494.413 309.261 496.016 311.457 495.884 314.356C494.863 316.147 495.559 315.518 493.81 316.407L491.446 316.195L490.671 314.657C490.564 312.795 490.622 312.716 490.951 310.965C487.442 310.78 484.49 310.775 481.027 311.678C481.239 309.029 480.757 302.568 480.652 299.465ZM603.732 285.648C600.625 285.838 597.705 286.055 594.589 285.986C594.479 283.754 594.428 280.769 594.127 278.622L593.891 274.692C596.835 274.405 600.171 273.664 602.742 274.607C603.841 275.915 603.477 275.789 603.622 277.919C603.655 280.467 603.656 283.109 603.732 285.648ZM531.216 226.433C531.43 230.06 531.578 234.39 532.061 237.923C530.834 238.052 530.61 238.097 529.433 237.874L528.601 237.709L527.781 238.337L527.936 238.828C529.257 239.656 529.34 239.632 530.347 240.785C530.459 243.365 529.211 245.719 526.737 246.695C524.848 246.446 524.587 246.495 522.971 245.381C522.027 243.953 522.32 242.665 522.468 241.009C522.891 236.288 519.733 240.061 517.237 237.663L516.967 227.617C521.699 227.031 526.453 226.636 531.216 226.433ZM489.451 323.369C490.921 324.003 490.358 323.512 491.175 324.918L491.381 328.086L491.435 333.042L485.161 333.526C485.079 330.289 484.125 327.519 484.924 324.675C486.157 323.298 486.036 323.724 488.37 323.32L489.451 323.369ZM539.311 259.437L538.391 247.915C540.614 247.41 545.863 246.983 548.671 246.538C549.842 247.152 549.446 246.685 549.863 247.935C550.095 251.601 550.5 256.076 550.518 259.689C546.975 259.285 542.919 259.416 539.311 259.437ZM607.91 265.292C603.051 264.941 595.909 265.456 590.98 265.796L582.016 266.289L581.119 266.465C575.907 266.573 570.696 266.764 565.49 267.038L565.651 275.453C565.752 280.34 565.706 293.928 566.273 298.228C566.337 299.522 566.623 307.794 566.759 308.416C566.998 311.742 567.282 315.065 567.611 318.384C567.655 322.414 567.523 331.477 567.953 335.011C568.895 357.105 569.102 382.886 571.288 404.667L578.72 403.913C578.002 398.173 575.753 386.385 575.607 381.658L576.027 381.157L578.443 381.254C579.669 383.227 581.078 399.728 581.655 403.607L591.102 402.971C590.71 397.412 589.147 384.906 590.557 380.535L591.441 379.679C592.802 379.979 592.243 379.654 593.181 380.676C594.187 386.466 594.01 396.269 594.531 402.813C597.418 402.624 601.822 402.457 604.556 401.976C604.469 396.542 604.517 386.155 603.584 381.152C604.286 379.751 603.752 380.337 605.556 379.66C609.249 381.24 607.602 396.674 608.516 401.234C610.252 401.72 610.493 401.583 612.262 401.424C613.096 399.409 611.504 369.472 611.341 364.883C611.531 361.116 611.336 356.898 611.243 353.087L611.165 351.412L610.966 349.918C611.085 347.1 610.897 343.923 610.804 341.077L610.339 333.566C610.351 328.862 608.976 322.728 609.434 318.841L609.634 318.027L609.458 313.38L608.451 283.48C608.441 277.093 608.457 271.655 607.91 265.292ZM569.886 288.71C569.037 288.497 569.322 288.564 568.574 287.968C567.728 285.299 567.918 282.066 567.886 279.196C570.996 278.389 574.507 278.237 577.731 277.968L577.466 281.705C577.597 283.674 578.087 286.133 577.073 287.667C575.692 288.264 575.627 288.225 574.116 288.437L569.886 288.71ZM583.036 323.714L582.459 324.414C580.297 324.425 578.252 324.719 576.11 324.78C572.216 324.892 572.476 323.682 571.964 320.746C572.277 318.666 571.958 315.995 571.582 313.938L576.534 313.43C578.724 313.453 580.676 313.473 582.874 313.37C583.003 315.447 583.627 322.175 583.036 323.714ZM596.715 311.715C599.147 311.397 601.586 311.145 604.031 310.96L603.992 320.418C601.891 320.354 599.385 320.349 597.326 320.203L597.242 318.61L596.715 311.715ZM552.411 303.607C552.442 302.025 552.4 301.364 552.788 299.793C554.008 299.707 553.949 300.085 555.237 301.178L555.471 302.285C555.699 305.214 556.212 308.864 555.001 311.525C553.981 312.269 554.043 312.221 552.815 312.538C551.842 310.446 552.883 308.743 552.388 306.662C551.177 308.815 552.388 310.687 551.199 313.938C546.682 314.789 546.09 314.398 543.742 310.445C544.755 309.523 545.492 309.034 545.983 307.758C543.223 305.93 543.576 306.562 543.206 303.414C543.711 301.195 543.181 296.513 542.999 294.077L548.517 293.573L550.775 293.603C552.986 295.905 551.818 300.23 552.411 303.607ZM442.842 289.496C442.988 291.06 443.144 295.052 444.096 296.101C451.447 295.734 458.8 295.014 466.135 294.364C466.05 292.529 466.224 288.987 465.375 287.765L465.126 287.74C458.36 288.205 449.489 288.606 442.842 289.496ZM533.699 321.454C533.683 324.322 533.851 326.9 534.028 329.758C530.79 330.208 528.497 330.362 525.229 330.522C524.186 330.516 524.722 330.647 523.674 329.955C522.875 327.16 522.872 322.672 522.578 319.454C523.528 318.403 522.952 318.829 524.6 318.53C527.604 318.38 530.536 317.473 532.755 318.049C533.908 319.356 533.528 319.259 533.699 321.454ZM565.348 255.067C565.313 257.672 564.854 259.146 565.966 261.162C567.598 261.762 568.335 261.59 570.054 261.493C575.649 261.193 581.242 260.86 586.833 260.494C586.963 258.436 587.46 255.61 586.463 253.983C585.206 253.268 584.153 253.559 582.668 253.687L565.348 255.067ZM550.103 268.831C550.655 272.963 550.825 277.823 551.074 282.035L543.236 281.984C542.212 281.999 542.723 282.128 541.746 281.449C541.122 278.815 540.723 272.569 540.333 269.428L549.404 268.997L550.103 268.831ZM585.838 352.9L586.116 360.566L573.545 360.908C573.493 357.172 573.243 353.312 573.051 349.569C576.422 349.384 581.993 349.195 585.062 348.243C585.401 349.531 585.54 352.171 585.838 352.9ZM509.607 408.475L515.875 408.131C519.87 407.928 524.454 407.805 528.387 407.395L526.102 365.402C523.463 365.498 520.173 365.526 517.597 365.793L506.368 366.619C506.601 372.896 507.364 379.037 507.855 385.296C508.461 393.014 508.806 400.776 509.607 408.475ZM479.563 288.414C479.643 284.189 479.477 279.809 479.375 275.573C480.604 275.311 481.837 275.071 483.075 274.852C485.27 274.962 487.468 275.027 489.667 275.049C489.824 277.61 490.523 286.021 490.074 288.091C486.635 288.104 483.146 288.405 479.563 288.414ZM547.411 226.98C547.533 229.626 547.774 232.466 547.953 235.125C546.772 235.35 545.467 235.407 544.634 236.07L545.426 236.414C543.705 239.002 541.915 240.753 538.584 239.73C537.145 238.656 537.219 238.419 536.57 236.761L541.502 235.868L541.675 227.462L547.411 226.98ZM594.38 330.563C594.853 329.453 594.848 329.541 595.849 328.841C598.535 328.354 601.713 328.637 604.321 329.425L604.598 332.305C604.58 334.532 604.681 338.394 604.251 340.437C603.059 340.19 596.486 340.115 594.666 340.029C594.326 337.085 594.414 333.982 594.421 331.007L594.38 330.563ZM471.038 369.129C466.867 369.477 460.118 370.882 457.668 368.685C457.056 368.136 455.677 368.237 454.821 368.259C453.71 369.245 453.68 369.425 452.863 370.699C450.147 371.342 449.628 370.847 447.766 369.028C445.204 369.011 444.619 369.033 443.066 371.265C440.222 371.858 439.765 371.476 437.227 369.814C432.046 369.843 430.134 373.53 424.414 369.453C423.607 366.429 423.429 364.248 423.093 361.144L428.555 360.982C428.403 358.446 428.648 355.635 427.169 353.864C425.374 353.346 424.616 353.481 422.777 353.547C422.308 350.347 421.215 346.716 423.049 344.181C424.514 343.719 424.556 343.845 426.119 344.032C427.748 342.453 427.187 339.879 425.782 338.291C424.815 338.131 422.019 338.021 421.77 337.572C420.754 335.743 420.403 332.94 420.608 330.93C422.711 327.763 425.559 330.027 424.924 324.679C424.433 320.546 420.605 322.124 419.861 318.236C419.498 316.335 419.545 313.738 419.517 311.759C429.77 310.517 425.833 313.491 431.009 313.895C432.454 310.539 435.716 309.27 438.931 310.951C439.02 311.87 439.135 312.726 439.418 313.606C441.025 314.225 440.241 314.179 441.841 313.875C442.145 312.55 442.059 312.297 441.997 310.915C444.436 308.963 448.501 310.104 450.181 313.129L451.285 313.238C452.206 310.329 450.067 311.361 451.955 309.908C455.422 309.241 457.477 309.33 459.739 312.301C462.894 310.041 457.518 309.835 467.183 308.749C467.113 305.634 467.076 302.859 466.738 299.756L459.643 300.291C447.515 301.036 425.125 301.416 414.412 303.296C414.309 323.824 418.941 346.782 420.189 367.438C420.77 377.061 421.479 386.676 421.956 396.306C422.397 402.161 422.293 408.387 423.618 414.084C425.78 413.937 427.942 413.843 430.078 413.502C430.034 410.14 430.161 394.606 428.601 392.824C424.058 392.895 425.384 386.676 425.511 383.175C428.884 382.968 432.746 382.635 436.077 382.742C436.461 385.592 437.116 388.426 436.459 391.152C434.282 393.762 433.08 391.223 433.167 397.213C433.219 400.741 433.49 404.22 433.811 407.741C433.98 409.581 434.158 411.42 434.348 413.259C438.467 413.063 442.394 412.869 446.5 412.5C446.101 402.877 445.406 393.281 444.984 383.661C447.815 383.355 449.935 383.11 452.813 383.112C453.483 387.002 455.162 391.528 449.849 392.111C448.691 394.945 450.177 408.552 450.614 412.194C453.568 412.051 456.993 411.994 459.877 411.539C459.76 406.396 459.519 401.257 459.154 396.126C458.694 391.969 457.873 386.24 457.984 382.185C461.795 381.718 464.09 381.516 467.917 381.461C468.403 384.785 468.487 386.698 468.578 390.064L463.113 390.54C463.47 397.256 463.724 404.7 464.523 411.319C467.538 411.17 470.521 411.046 473.527 410.758C473.426 402.802 472.227 376.37 471.038 369.129ZM465.877 327.624L467.168 327.413C468.268 325.397 467.33 320.846 466.991 318.467C464.545 318.519 461.492 318.497 459.113 318.769L458.178 319.327C458.173 323.04 458.576 324.853 459.258 328.499L465.877 327.624ZM569.671 305.766C569.6 302.217 569.363 299.611 568.973 296.07L571.967 295.471C574.657 295.522 574.645 295.103 576.621 296.285C577.715 298.28 577.058 301.392 577.216 303.977L577.016 305.196C575.591 305.428 574.273 305.635 572.833 305.804C571.993 305.86 570.563 305.784 569.671 305.766ZM460.405 351.807C460.704 354.444 461.059 358.742 461.536 361.22C464.183 360.926 467.17 360.522 469.8 360.381C469.613 357.526 469.518 354.126 468.936 351.374C466.135 351.499 463.188 351.582 460.405 351.807ZM552.875 341.797C553.136 344.774 553.36 347.754 553.549 350.736L541.384 351.533C541.069 347.378 540.64 343.624 540.118 339.487C542.259 338.072 548.152 338.648 552.056 337.806C552.632 339.539 552.665 339.958 552.875 341.797ZM534.261 340.333L534.496 351.316L523.071 351.788L522.899 345.029L522.844 339.418C525.488 339.52 526.747 339.662 529.386 339.201C531.084 339.092 532.561 338.743 533.935 339.587L534.261 340.333ZM468.631 343.902C468.528 340.986 468.516 337.855 468.087 334.99C465.267 335.18 461.932 335.864 459.673 334.453C459.419 337.465 459.994 341.531 460.328 344.651L468.631 343.902ZM503.783 340.245L504.812 341.046C506.571 340.809 506.975 340.513 508.531 339.744C510.29 339.957 510.415 340.249 511.35 341.905C512.56 342.071 513.111 341.915 513.851 342.581C514.589 346.847 514.556 349.491 514.449 353.847L505.152 354.209L504.073 343.159C501.697 343.333 495.796 343.45 494.005 343.736C494.378 348.069 494.447 352.488 494.575 356.84C491.126 356.992 487.529 357.336 484.074 357.617C483.833 353.334 483.616 349.049 483.423 344.763L489.593 343.803C491.174 343.945 491.051 343.852 492.65 343.614C492.713 342.494 492.665 342.828 493.009 341.769C493.973 341.406 494.947 341.067 495.927 340.751C497.762 340.175 502.053 339.365 503.783 340.245ZM453.678 319.282C451.949 319.359 449.863 319.511 448.167 319.517C448.387 322.639 448.561 326.417 448.972 329.468C450.774 329.244 452.667 328.971 454.468 328.867C454.262 325.601 454.083 322.533 453.678 319.282ZM455.519 335.85L449.624 336.322C450.188 339.593 450.41 341.915 450.674 345.228L456.401 344.942C456.165 341.983 455.992 338.759 455.519 335.85ZM447.645 352.443L440.957 352.711C441.268 355.726 441.521 358.746 441.714 361.771L448.46 361.494C448.257 358.513 448.127 355.376 447.645 352.443ZM435.078 320.453L428.327 320.355C428.521 324.191 429.072 326.659 429.838 330.45C431.827 330.243 433.87 329.991 435.862 329.92C435.639 326.894 435.44 323.445 435.078 320.453ZM457.279 361.049C457.017 358.082 456.806 354.892 456.368 351.963L451.449 352.216L452.102 361.105L457.279 361.049ZM430.591 346.717L436.615 346.043C436.478 343.184 436.442 340.172 435.924 337.376L429.969 337.65L430.591 346.717ZM505.033 330.692C504.775 328.141 503.928 324.339 505.025 322.154C506.93 320.836 507.605 321.156 510.106 320.896L511.093 321.568C511.308 324.349 511.936 328.29 511.039 330.744C510.405 331.047 509.932 331.294 509.269 331.535C507.811 331.535 506.931 331.48 505.504 331.36L505.033 330.692ZM437.551 352.925L431.43 353.182C431.549 356.88 431.654 359.009 432.213 362.643C434.061 362.383 436.499 361.962 438.319 361.916C438.134 359.034 438.022 355.74 437.551 352.925ZM496.375 229.224C500.177 228.966 504.092 228.648 507.886 228.452C508.058 232.352 508.24 236.048 508.57 239.936C505.823 239.925 503.305 240.342 500.605 240.401C497.084 240.478 497.082 239.677 496.527 236.917C496.669 234.025 496.55 232.073 496.375 229.224ZM530.574 260.068L525.139 260.434C522.827 262.988 521.94 264.532 518.549 265.233C512.763 263.594 516.463 251.134 518.402 249.982C519.626 248.576 528.168 248.447 530.09 248.739C529.835 253.219 530.004 255.584 530.574 260.068ZM443.344 319.701C442.053 319.826 439.546 319.84 438.724 320.491C438.853 322.413 439.02 328.71 440.104 329.801L440.617 329.679C443.346 329.515 443.313 329.995 444.868 328.577C445.925 325.608 445.202 322.69 444.091 319.692L443.344 319.701ZM440.737 336.714L440.086 337.295C440.118 339.379 440.124 343.95 440.879 345.705C442.95 345.732 443.999 345.663 446.065 345.449L446.847 345.17C447.061 343.023 446.962 338.706 446.132 336.735C443.844 336.438 443.081 336.544 440.737 336.714ZM544.215 324.657C544.061 323.186 544.027 321.483 543.961 319.984C545.57 319.62 545.626 319.72 546.938 318.784C547.766 318.885 549.21 318.816 549.647 319.475C551.806 322.724 550.58 329.745 545.719 329.299C543.595 327.501 544.961 327.001 544.215 324.657ZM485.763 237.013L483.232 237.847C482.112 237.676 482.033 237.632 480.973 237.212C479.588 234.417 479.298 232.708 481.826 230.43C483.616 230.112 482.781 229.971 484.397 230.968C485.742 232.769 485.582 234.678 485.763 237.013ZM478.918 248.662C481.993 248.901 484.091 248.792 487.123 248.335L487.371 247.713C489.863 247.478 489.311 247.131 490.857 248.272C492.27 252.126 490.583 259.678 491.273 262.517C492.528 261.927 492.241 262.041 493.343 261.121C493.618 263.762 491.174 266.959 488.844 268.105C488.063 266.085 488.349 264.809 486.657 263.27C483.909 263.402 480.824 263.389 478.045 263.441C477.964 260.067 477.068 251.995 477.863 249.024L478.918 248.662Z"/><path fill="#FEFEFE" fill-opacity="0.80000001" d="M544.634 236.07C545.467 235.407 546.772 235.35 547.953 235.125L548.064 235.493C549.272 240.347 547.089 241.241 548.671 246.538C545.863 246.983 540.614 247.41 538.391 247.915C535.214 247.892 533.14 247.825 530.09 248.739C528.168 248.447 519.626 248.576 518.402 249.982C516.463 251.134 512.763 263.594 518.549 265.233C521.94 264.532 522.827 262.988 525.139 260.434L530.574 260.068L531.121 260.611C534.079 261.303 536.049 261.02 539.062 260.853C538.112 262.556 536.809 264.368 536.824 266.24C538.231 268.525 538.427 266.954 539.749 269.106L540.195 268.674C543.257 265.756 547.035 264.562 549.404 268.997L540.333 269.428C540.723 272.569 541.122 278.815 541.746 281.449C542.723 282.128 542.212 281.999 543.236 281.984L545.658 282.644C546.701 287.175 541.317 287.526 548.517 293.573L542.999 294.077C543.181 296.513 543.711 301.195 543.206 303.414C542.047 305.97 541.189 307.492 540.722 310.28L541.125 311.255C542.898 311.307 542.03 311.472 543.742 310.445C546.09 314.398 546.682 314.789 551.199 313.938C550.093 315.102 547.637 317.515 546.938 318.784C545.626 319.72 545.57 319.62 543.961 319.984C541.757 318.432 536.447 320.706 534.093 321.67L533.699 321.454C533.528 319.259 533.908 319.356 532.755 318.049C530.536 317.473 527.604 318.38 524.6 318.53C525.331 318.132 529.903 314.541 530.221 313.958C529.872 311.956 527.935 310.715 526.205 309.018C522.061 312.886 518.983 312.356 517.774 314.265C518.155 315.894 518.099 315.422 519.644 316.767L519.421 318.503C516.664 320.609 514.326 318.227 511.093 321.568L510.106 320.896C508.021 320.139 506.917 320.196 504.802 319.735C503.404 318.283 503.797 319.103 503.399 317.284C504.507 313.471 508.194 312.833 510.657 309.496C511.406 307.399 510.864 299.808 509.864 297.751L507.995 297.196C506.558 296.724 503.93 296.788 502.344 296.763L501.959 295.484C502.829 292.711 499.472 289.142 501.11 286.376L502.158 286.211C504.734 285.729 507.458 285.599 510.082 285.398C509.608 281.117 509.512 277.77 509.419 273.446C507.333 273.427 504.366 273.107 502.697 274.099C501.594 276.101 501.988 275.915 502.003 278.557L501.175 279.138C498.121 278.067 495.473 274.116 492.296 277.046C491.253 279.866 491.443 280.722 491.992 283.739C492.188 285.942 492.575 287.152 491.584 288.982C490.212 289.981 490.943 289.807 489.348 289.635L489.057 288.861L490.074 288.091C490.523 286.021 489.824 277.61 489.667 275.049C487.468 275.027 485.27 274.962 483.075 274.852C485.11 270.307 487.702 271.767 488.844 268.105C491.174 266.959 493.618 263.762 493.343 261.121C492.241 262.041 492.528 261.927 491.273 262.517C490.583 259.678 492.27 252.126 490.857 248.272C489.311 247.131 489.863 247.478 487.371 247.713L487.123 248.335C484.091 248.792 481.993 248.901 478.918 248.662C482.996 248.073 484.638 241.626 483.232 237.847L485.763 237.013C491.969 235.959 492.918 242.389 496.527 236.917C497.082 239.677 497.084 240.478 500.605 240.401C503.305 240.342 505.823 239.925 508.57 239.936C512.354 239.322 514.686 240.324 517.237 237.663C519.733 240.061 522.891 236.288 522.468 241.009C522.32 242.665 522.027 243.953 522.971 245.381C524.587 246.495 524.848 246.446 526.737 246.695C529.211 245.719 530.459 243.365 530.347 240.785C529.34 239.632 529.257 239.656 527.936 238.828L527.781 238.337L528.601 237.709L529.433 237.874C530.61 238.097 530.834 238.052 532.061 237.923L532.355 238.155L536.57 236.761C537.219 238.419 537.145 238.656 538.584 239.73C541.915 240.753 543.705 239.002 545.426 236.414L544.634 236.07ZM534.954 247.371C536.662 246.621 536.149 247.22 536.767 245.722C536.352 244.014 536.045 243.966 534.75 242.773L532.74 242.19C531.433 243.767 531.469 243.757 530.657 245.659L530.964 246.852C532.772 247.808 532.576 247.455 534.954 247.371Z"/><path fill="#1E1E1E" d="M522.76 297.527C525.364 297.503 525.724 297.109 527.501 298.331C528.574 300.532 528.238 304.545 528.322 307.157C525.697 307.361 525.626 307.787 523.607 306.816C522.101 304.334 522.679 300.623 522.76 297.527Z"/><path fill="#FEFEFE" fill-opacity="0.94117647" d="M532.74 242.19L534.75 242.773C536.045 243.966 536.352 244.014 536.767 245.722C536.149 247.22 536.662 246.621 534.954 247.371C532.576 247.455 532.772 247.808 530.964 246.852L530.657 245.659C531.469 243.757 531.433 243.767 532.74 242.19Z"/><path fill="#1E1E1E" d="M602.498 362.717C603.731 363.936 603.485 371.481 603.522 373.751C600.602 373.924 597.435 373.965 594.49 374.053L593.044 363.742L602.498 362.717Z"/><path fill="#2B2B2B" d="M580.966 373.971C582.298 373.912 582.693 373.969 584.029 374.129C585.104 374.931 585.953 377.866 587.041 379.49C585.286 379.738 583.065 380.307 581.578 379.599C580.618 378.195 580.94 375.795 580.966 373.971Z"/><path fill="#FEFEFE" fill-opacity="0.77254903" d="M550.103 268.831L550.833 267.915C552.261 267.88 551.621 267.68 552.788 268.622C553.678 273.029 553.357 276.266 555.512 280.731L556.11 281.104C558.412 279.103 559.227 272.064 559.38 268.992C560.009 289.487 560.402 313.48 561.712 333.787C554.037 334.357 558.383 325.977 556.002 321.81C554.483 320.755 555.219 320.824 553.789 321.019C552.702 323.139 552.633 327.479 552.42 330.099L551.751 330.571L550.766 329.519C547.102 330.645 545.809 331.214 542.001 331.145C540.619 330.237 541.127 330.846 540.569 329.143C543.034 327.967 543.264 327.077 544.215 324.657C544.961 327.001 543.595 327.501 545.719 329.299C550.58 329.745 551.806 322.724 549.647 319.475C549.21 318.816 547.766 318.885 546.938 318.784C547.637 317.515 550.093 315.102 551.199 313.938C552.388 310.687 551.177 308.815 552.388 306.662C552.883 308.743 551.842 310.446 552.815 312.538C554.043 312.221 553.981 312.269 555.001 311.525C556.212 308.864 555.699 305.214 555.471 302.285C556.505 303.722 555.846 303.253 557.48 303.791L558.146 303.013C558.359 300.429 558.469 294.721 556.916 292.691C555.656 297.335 553.321 296.972 555.237 301.178C553.949 300.085 554.008 299.707 552.788 299.793C552.4 301.364 552.442 302.025 552.411 303.607C551.818 300.23 552.986 295.905 550.775 293.603L548.517 293.573C541.317 287.526 546.701 287.175 545.658 282.644L543.236 281.984L551.074 282.035C550.825 277.823 550.655 272.963 550.103 268.831Z"/><defs><linearGradient id="gradient_0" gradientUnits="userSpaceOnUse" x1="491.22412" y1="317.06934" x2="503.29404" y2="317.73495"><stop offset="0" stop-color="#F4F4F4" stop-opacity="0.74509805"/><stop offset="1" stop-color="#F1F1F0" stop-opacity="0.82352942"/></linearGradient></defs><path fill="url(#gradient_0)" d="M486.976 298.98C486.847 296.756 486.64 296.307 488.282 294.959C491.1 294.874 492.168 296.4 495.89 296.359L497.4 297.366C499.169 297.498 500.365 296.451 501.959 295.484L502.344 296.763C503.93 296.788 506.558 296.724 507.995 297.196C505.948 297.666 504.496 297.958 502.417 298.235C502.525 301.94 502.548 306.098 503.012 309.734C505.504 309.624 508.178 309.445 510.657 309.496C508.194 312.833 504.507 313.471 503.399 317.284C503.797 319.103 503.404 318.283 504.802 319.735C506.917 320.196 508.021 320.139 510.106 320.896C507.605 321.156 506.93 320.836 505.025 322.154C503.928 324.339 504.775 328.141 505.033 330.692C504.568 329.986 504.136 329.292 503.783 328.522C502.605 332.553 501.136 334.247 500.199 338.507C496.394 340.003 492.897 338.19 491.324 341.17C491.725 342.486 491.626 342.79 492.65 343.614C491.051 343.852 491.174 343.945 489.593 343.803C490.174 343.025 491.246 334.57 491.435 333.042L491.381 328.086C492.422 328.245 493.466 328.379 494.513 328.488C496.564 327.568 495.796 328.242 497.031 326.546C496.667 324.985 497.077 325.627 495.593 324.672C493.929 324.503 493.665 324.486 492.019 325.124L491.175 324.918C490.358 323.512 490.921 324.003 489.451 323.369C489.51 320.02 490.028 319.209 491.446 316.195L493.81 316.407C495.559 315.518 494.863 316.147 495.884 314.356C496.016 311.457 494.413 309.261 491.784 308.074C490.267 305.781 491.645 303.097 490.56 299.987C489.054 298.614 489.601 299.04 486.976 298.98Z"/><path fill="#FEFEFE" fill-opacity="0.34117648" d="M604.589 310.901C604.337 314.43 604.338 316.401 604.495 319.943C606.057 319.056 607.843 317.941 609.634 318.027L609.434 318.841C607.674 319.794 605.998 320.401 605.146 322.157C605.672 325.237 606.2 325.089 605.759 328.199C604.421 328.748 604.812 328.278 604.321 329.425C601.713 328.637 598.535 328.354 595.849 328.841C594.848 329.541 594.853 329.453 594.38 330.563L593.083 329.735C588.615 331.483 586.29 343.704 591.796 344.427C593.815 344.692 596.465 344.746 598.562 344.94C599.972 347.375 600.261 347.514 602.378 349.336L603.147 350.004C602.228 351.578 601.201 352.806 601.331 354.535C603.29 356.097 606.402 353.965 609.021 353.884C607.017 355.259 597.795 358.805 596.119 356.989C596.555 354.777 598.905 352.693 600.253 350.113C597.456 343.769 590.489 346.485 585.716 347.512C584.406 346.627 583.054 343.916 582.177 342.427L583.574 335.51C582.6 334.113 581.05 332.492 579.887 331.195C580.474 329.02 581.367 326.377 582.459 324.414L583.036 323.714L583.836 325.705C583.993 327.406 583.985 327.32 584.686 328.885C587.343 330.099 587.52 326.572 589.532 325.279C593.096 322.989 595.295 325.373 596.879 320.62L597.326 320.203C599.385 320.349 601.891 320.354 603.992 320.418L604.031 310.96L604.589 310.901Z"/><path fill="#FEFEFE" fill-opacity="0.57254905" d="M519.644 316.767L520.752 316.883C521.315 317.842 521.532 318.287 521.975 319.308L522.578 319.454C522.872 322.672 522.875 327.16 523.674 329.955C524.722 330.647 524.186 330.516 525.229 330.522L525.396 331.716C527.682 333.251 530.948 331.233 533.105 333.102C532.753 335.162 532.503 334.942 531.004 336.797C530.036 337.671 528.921 338.101 527.743 338.618C528.798 339.162 528.249 338.971 529.386 339.201C526.747 339.662 525.488 339.52 522.844 339.418L522.503 339.176C519.724 339.306 518.078 342.563 515.857 341.051C516.117 335.583 514.507 336.968 510.713 333.522C509.981 332.858 508.809 333.128 507.811 333.122L509.269 331.535C509.932 331.294 510.405 331.047 511.039 330.744C511.936 328.29 511.308 324.349 511.093 321.568C514.326 318.227 516.664 320.609 519.421 318.503L519.644 316.767ZM516.054 327.723C517.841 325.792 519.571 324.242 519.515 321.526C518.386 320.262 517.406 320.343 515.761 320.671C513.468 321.192 513.747 320.786 512.212 322.156C511.745 324.799 513.816 326.538 516.054 327.723Z"/><path fill="#FEFEFE" fill-opacity="0.43529412" d="M515.761 320.671C517.406 320.343 518.386 320.262 519.515 321.526C519.571 324.242 517.841 325.792 516.054 327.723C513.816 326.538 511.745 324.799 512.212 322.156C513.747 320.786 513.468 321.192 515.761 320.671Z"/><path fill="#FEFEFE" fill-opacity="0.60392159" d="M533.699 321.454L534.093 321.67C536.447 320.706 541.757 318.432 543.961 319.984C544.027 321.483 544.061 323.186 544.215 324.657C543.264 327.077 543.034 327.967 540.569 329.143L540.049 330.526C540.549 331.409 540.432 331.528 541.148 331.577C550.955 332.245 549.843 329.072 559.176 335.535C560.795 335.489 559.986 335.642 561.604 334.632C561.875 337.204 561.955 338.38 561.852 340.956L561.142 340.763C559.03 343.407 555.915 342.431 552.875 341.797C552.665 339.958 552.632 339.539 552.056 337.806L551.818 336.859C548.955 335.826 546.431 336.231 543.417 335.979C537.79 335.51 536.096 334.284 531.004 336.797C532.503 334.942 532.753 335.162 533.105 333.102C530.948 331.233 527.682 333.251 525.396 331.716L525.229 330.522C528.497 330.362 530.79 330.208 534.028 329.758C533.851 326.9 533.683 324.322 533.699 321.454Z"/><path fill="#FEFEFE" fill-opacity="0.68627453" d="M577.466 281.705C578.297 282.534 578.971 283.2 579.756 284.085C581.08 284.938 580.977 284.915 582.524 285.172C584.202 284.335 583.433 284.914 584.535 282.909C585.268 282.422 585.804 281.728 586.549 282.01C588.656 282.808 591.454 283.545 592.197 285.89C590.31 287.156 589.491 287.642 587.898 289.212L587.69 290.392C589.432 292.115 598.203 292.682 600.952 292.672C601.469 292.67 601.985 292.665 602.502 292.656C603.449 294.05 601.969 302.038 602.392 304.323C602.802 306.543 604.542 307.542 604.23 309.779C602.419 305.851 601.055 307.553 600.164 301.438C599.562 300.235 598.46 298.87 597.164 298.499L596.797 299.854C596.462 298.61 596.481 294.815 596.442 293.318C593.216 293.477 589.755 293.486 586.507 293.551L587.439 299.744C587.128 301.198 586.96 302.525 586.248 303.819C586.205 302.365 586.327 301.068 586.419 299.619C584.439 298.294 579.618 296.528 577.459 297.71C577.746 299.441 577.412 298.662 578.622 300.072L577.687 300.491C577.495 301.698 577.351 302.762 577.216 303.977C577.058 301.392 577.715 298.28 576.621 296.285C574.645 295.103 574.657 295.522 571.967 295.471C573.086 292.638 573.579 291.517 574.116 288.437C575.627 288.225 575.692 288.264 577.073 287.667C578.087 286.133 577.597 283.674 577.466 281.705Z"/><path fill="#FEFEFE" fill-opacity="0.42352942" d="M603.622 277.919C603.891 281.329 603.766 284.962 604.555 288.088L605.3 288.562C606.857 287.545 607.464 285.395 608.451 283.48L609.458 313.38L608.767 311.902C606.481 311.91 606.593 311.962 604.589 310.901L604.23 309.779C604.542 307.542 602.802 306.543 602.392 304.323C601.969 302.038 603.449 294.05 602.502 292.656C601.985 292.665 601.469 292.67 600.952 292.672C598.203 292.682 589.432 292.115 587.69 290.392L587.898 289.212C589.491 287.642 590.31 287.156 592.197 285.89C591.454 283.545 588.656 282.808 586.549 282.01C585.804 281.728 585.268 282.422 584.535 282.909L584.761 280.932C587.634 280.011 590.782 281.441 592.974 283.29L593.418 283.67C594.089 282.467 593.902 280.925 593.91 279.477L594.127 278.622C594.428 280.769 594.479 283.754 594.589 285.986C597.705 286.055 600.625 285.838 603.732 285.648C603.656 283.109 603.655 280.467 603.622 277.919ZM606.294 307.324C607.003 304.672 606.742 304.45 605.451 301.819C605.074 303.466 604.408 305.316 604.982 306.801L606.294 307.324Z"/><path fill="#F2F2F2" fill-opacity="0.3764706" d="M605.451 301.819C606.742 304.45 607.003 304.672 606.294 307.324L604.982 306.801C604.408 305.316 605.074 303.466 605.451 301.819Z"/><path fill="#F2F2F2" fill-opacity="0.27058825" d="M472.508 298.196C472.794 299.09 473.057 299.815 473.382 300.691C476.522 300.001 474.301 292.033 479.478 288.743C479.689 291.597 479.945 296.809 480.652 299.465C480.757 302.568 481.239 309.029 481.027 311.678C482.371 315.925 482.458 316.264 485.596 319.496C486.534 318.644 490.201 315.469 490.671 314.657L491.446 316.195C490.028 319.209 489.51 320.02 489.451 323.369L488.37 323.32C483.858 318.847 483.624 318.208 476.992 320.3C476.144 320.567 475.877 318.907 474.227 320.016C473.949 322.374 473.935 323.904 473.916 326.26C473.415 323.349 473.514 317.473 473.4 314.267C473.155 308.907 472.857 303.55 472.508 298.196Z"/><path fill="#FEFEFE" fill-opacity="0.54509807" d="M539.311 259.437C542.919 259.416 546.975 259.285 550.518 259.689C551.941 260.832 555.96 260.753 559.118 262.985C559.316 265.235 559.409 266.738 559.38 268.992C559.227 272.064 558.412 279.103 556.11 281.104L555.512 280.731C553.357 276.266 553.678 273.029 552.788 268.622C551.621 267.68 552.261 267.88 550.833 267.915L550.103 268.831L549.404 268.997C547.035 264.562 543.257 265.756 540.195 268.674L539.749 269.106C538.427 266.954 538.231 268.525 536.824 266.24C536.809 264.368 538.112 262.556 539.062 260.853C536.049 261.02 534.079 261.303 531.121 260.611C534.12 260.481 536.437 260.345 539.311 259.437Z"/><path fill="#1E1E1E" d="M487.123 248.335L487.371 247.713C489.863 247.478 489.311 247.131 490.857 248.272C492.27 252.126 490.583 259.678 491.273 262.517C492.528 261.927 492.241 262.041 493.343 261.121C493.618 263.762 491.174 266.959 488.844 268.105C488.063 266.085 488.349 264.809 486.657 263.27C483.909 263.402 480.824 263.389 478.045 263.441C477.964 260.067 477.068 251.995 477.863 249.024L478.918 248.662C481.993 248.901 484.091 248.792 487.123 248.335Z"/><path fill="#F2F2F2" d="M487.123 248.335L487.371 247.713C489.863 247.478 489.311 247.131 490.857 248.272C492.27 252.126 490.583 259.678 491.273 262.517C492.528 261.927 492.241 262.041 493.343 261.121C493.618 263.762 491.174 266.959 488.844 268.105C488.063 266.085 488.349 264.809 486.657 263.27L487.928 262.902C489.309 260.847 488.833 250.219 487.123 248.335Z"/><path fill="#212121" d="M516.967 227.617C521.699 227.031 526.453 226.636 531.216 226.433C531.43 230.06 531.578 234.39 532.061 237.923C530.834 238.052 530.61 238.097 529.433 237.874L528.601 237.709L527.781 238.337L527.936 238.828C529.257 239.656 529.34 239.632 530.347 240.785C530.459 243.365 529.211 245.719 526.737 246.695C524.848 246.446 524.587 246.495 522.971 245.381C522.027 243.953 522.32 242.665 522.468 241.009C522.891 236.288 519.733 240.061 517.237 237.663L516.967 227.617Z"/><path fill="#1E1E1E" d="M518.402 249.982C519.626 248.576 528.168 248.447 530.09 248.739C529.835 253.219 530.004 255.584 530.574 260.068L525.139 260.434C522.827 262.988 521.94 264.532 518.549 265.233C512.763 263.594 516.463 251.134 518.402 249.982Z"/><path fill="#F2F2F2" d="M525.139 260.434C522.827 262.988 521.94 264.532 518.549 265.233C512.763 263.594 516.463 251.134 518.402 249.982L518.505 250.533C519.328 255.176 517.941 258.138 520.708 260.425C522.369 260.777 523.463 260.576 525.139 260.434Z"/><path fill="#FEFEFE" fill-opacity="0.78431374" d="M600.164 301.438C601.055 307.553 602.419 305.851 604.23 309.779L604.589 310.901L604.031 310.96C601.586 311.145 599.147 311.397 596.715 311.715L597.242 318.61L596.654 319.654C595.666 319.347 596.033 319.577 595.468 319.116L595.01 314.949L594.343 313.854C592.682 313.453 585.639 316.127 584.164 317.114C584.728 319.133 586.758 325.186 586.308 326.786L585.604 327.068C584.412 326.397 584.766 326.7 583.836 325.705L583.036 323.714C583.627 322.175 583.003 315.447 582.874 313.37C583.212 311.65 583.593 310.566 583.167 308.869C581.931 307.657 579.948 308.177 578.156 307.276C582.38 306.595 581.343 307.432 584.495 307.586C589.419 307.827 594.382 307.266 598.946 305.461C600.332 303.729 599.891 304.063 600.164 301.438Z"/><path fill="#FEFEFE" fill-opacity="0.67450982" d="M491.992 283.739C491.443 280.722 491.253 279.866 492.296 277.046C495.473 274.116 498.121 278.067 501.175 279.138L502.003 278.557L502.158 286.211L501.11 286.376C499.472 289.142 502.829 292.711 501.959 295.484C500.365 296.451 499.169 297.498 497.4 297.366L495.89 296.359C495.094 295.238 494.942 295.319 494.804 294.04C494.566 291.794 494.013 289.593 493.161 287.501C492.511 285.931 492.375 285.405 491.992 283.739ZM499.696 295.608C500.3 291.476 497.647 291.046 497.368 288.054C496.981 283.898 501.267 279.13 494.561 276.692C493.135 278.486 492.514 279.029 492.744 281.802C492.981 284.651 495.886 293.68 497.817 295.2L499.696 295.608Z"/><path fill="#FEFEFE" fill-opacity="0.61176473" d="M494.561 276.692C501.267 279.13 496.981 283.898 497.368 288.054C497.647 291.046 500.3 291.476 499.696 295.608L497.817 295.2C495.886 293.68 492.981 284.651 492.744 281.802C492.514 279.029 493.135 278.486 494.561 276.692Z"/><path fill="#1E1E1E" d="M548.517 293.573L550.775 293.603C552.986 295.905 551.818 300.23 552.411 303.607L552.388 306.662C551.177 308.815 552.388 310.687 551.199 313.938C546.682 314.789 546.09 314.398 543.742 310.445C544.755 309.523 545.492 309.034 545.983 307.758C543.223 305.93 543.576 306.562 543.206 303.414C543.711 301.195 543.181 296.513 542.999 294.077L548.517 293.573Z"/><path fill="#FEFEFE" fill-opacity="0.25490198" d="M582.016 266.289L590.98 265.796C591.587 269.028 591.763 271.423 593.308 274.296L593.891 274.692L594.127 278.622L593.91 279.477C593.439 278.255 593.411 277.39 593.311 276.099L592.83 275.742C591.601 276.603 584.95 280.684 584.761 280.932L584.535 282.909C583.433 284.914 584.202 284.335 582.524 285.172C580.977 284.915 581.08 284.938 579.756 284.085C581.809 283.899 584.92 283.482 584.777 280.848C583.621 279.025 581.144 277.972 579.139 276.285C579.242 273.579 581.055 269.998 581.879 266.83L582.016 266.289Z"/><path fill="#1E1E1E" d="M552.056 337.806C552.632 339.539 552.665 339.958 552.875 341.797C553.136 344.774 553.36 347.754 553.549 350.736L541.384 351.533C541.069 347.378 540.64 343.624 540.118 339.487C542.259 338.072 548.152 338.648 552.056 337.806Z"/><path fill="#1E1E1E" d="M585.062 348.243C585.401 349.531 585.54 352.171 585.838 352.9L586.116 360.566L573.545 360.908C573.493 357.172 573.243 353.312 573.051 349.569C576.422 349.384 581.993 349.195 585.062 348.243Z"/><path fill="#F2F2F2" fill-opacity="0.17254902" d="M585.716 347.512C590.489 346.485 597.456 343.769 600.253 350.113C598.905 352.693 596.555 354.777 596.119 356.989C597.795 358.805 607.017 355.259 609.021 353.884C609.666 353.769 610.187 353.22 610.703 352.836L611.243 353.087C611.336 356.898 611.531 361.116 611.341 364.883C610.623 363.752 610.877 356.459 610.884 354.613C608.67 357.338 598.588 362.332 595.05 360.994C591.401 359.614 593.118 352.88 591.705 349.626C589.903 348.774 587.786 348.817 585.877 349.239C585.961 350.553 585.98 351.576 585.838 352.9C585.54 352.171 585.401 349.531 585.062 348.243L585.716 347.512Z"/><path fill="#1E1E1E" d="M492.65 343.614L494.005 343.736C494.378 348.069 494.447 352.488 494.575 356.84C491.126 356.992 487.529 357.336 484.074 357.617C483.833 353.334 483.616 349.049 483.423 344.763L489.593 343.803C491.174 343.945 491.051 343.852 492.65 343.614Z"/><path fill="#1E1E1E" d="M529.386 339.201C531.084 339.092 532.561 338.743 533.935 339.587L534.261 340.333L534.496 351.316L523.071 351.788L522.899 345.029L522.844 339.418C525.488 339.52 526.747 339.662 529.386 339.201Z"/><path fill="#1E1E1E" d="M483.075 274.852C485.27 274.962 487.468 275.027 489.667 275.049C489.824 277.61 490.523 286.021 490.074 288.091C486.635 288.104 483.146 288.405 479.563 288.414C479.643 284.189 479.477 279.809 479.375 275.573C480.604 275.311 481.837 275.071 483.075 274.852Z"/><path fill="#1E1E1E" d="M548.671 246.538C549.842 247.152 549.446 246.685 549.863 247.935C550.095 251.601 550.5 256.076 550.518 259.689C546.975 259.285 542.919 259.416 539.311 259.437L538.391 247.915C540.614 247.41 545.863 246.983 548.671 246.538Z"/><path fill="#FEFEFE" fill-opacity="0.71372551" d="M491.992 283.739C492.375 285.405 492.511 285.931 493.161 287.501C494.013 289.593 494.566 291.794 494.804 294.04C494.942 295.319 495.094 295.238 495.89 296.359C492.168 296.4 491.1 294.874 488.282 294.959C486.64 296.307 486.847 296.756 486.976 298.98L480.652 299.465C479.945 296.809 479.689 291.597 479.478 288.743L479.563 288.414C483.146 288.405 486.635 288.104 490.074 288.091L489.057 288.861L489.348 289.635C490.943 289.807 490.212 289.981 491.584 288.982C492.575 287.152 492.188 285.942 491.992 283.739Z"/><path fill="#1E1E1E" d="M496.375 229.224C500.177 228.966 504.092 228.648 507.886 228.452C508.058 232.352 508.24 236.048 508.57 239.936C505.823 239.925 503.305 240.342 500.605 240.401C497.084 240.478 497.082 239.677 496.527 236.917C496.669 234.025 496.55 232.073 496.375 229.224Z"/><path fill="#1E1E1E" d="M524.6 318.53C527.604 318.38 530.536 317.473 532.755 318.049C533.908 319.356 533.528 319.259 533.699 321.454C533.683 324.322 533.851 326.9 534.028 329.758C530.79 330.208 528.497 330.362 525.229 330.522C524.186 330.516 524.722 330.647 523.674 329.955C522.875 327.16 522.872 322.672 522.578 319.454C523.528 318.403 522.952 318.829 524.6 318.53Z"/><path fill="#1E1E1E" d="M549.404 268.997L550.103 268.831C550.655 272.963 550.825 277.823 551.074 282.035L543.236 281.984C542.212 281.999 542.723 282.128 541.746 281.449C541.122 278.815 540.723 272.569 540.333 269.428L549.404 268.997Z"/><path fill="#1E1E1E" d="M486.976 298.98C489.601 299.04 489.054 298.614 490.56 299.987C491.645 303.097 490.267 305.781 491.784 308.074C491.566 308.849 491.218 310.269 490.951 310.965C487.442 310.78 484.49 310.775 481.027 311.678C481.239 309.029 480.757 302.568 480.652 299.465L486.976 298.98Z"/><path fill="#1E1E1E" d="M576.534 313.43C578.724 313.453 580.676 313.473 582.874 313.37C583.003 315.447 583.627 322.175 583.036 323.714L582.459 324.414C580.297 324.425 578.252 324.719 576.11 324.78C572.216 324.892 572.476 323.682 571.964 320.746C572.277 318.666 571.958 315.995 571.582 313.938L576.534 313.43Z"/><path fill="#1E1E1E" d="M511.35 341.905C512.56 342.071 513.111 341.915 513.851 342.581C514.589 346.847 514.556 349.491 514.449 353.847L505.152 354.209L504.073 343.159C505.549 342.467 509.539 342.132 511.35 341.905Z"/><path fill="#1E1E1E" d="M594.38 330.563C594.853 329.453 594.848 329.541 595.849 328.841C598.535 328.354 601.713 328.637 604.321 329.425L604.598 332.305C604.58 334.532 604.681 338.394 604.251 340.437C603.059 340.19 596.486 340.115 594.666 340.029C594.326 337.085 594.414 333.982 594.421 331.007L594.38 330.563Z"/><path fill="#1E1E1E" d="M593.891 274.692C596.835 274.405 600.171 273.664 602.742 274.607C603.841 275.915 603.477 275.789 603.622 277.919C603.655 280.467 603.656 283.109 603.732 285.648C600.625 285.838 597.705 286.055 594.589 285.986C594.479 283.754 594.428 280.769 594.127 278.622L593.891 274.692Z"/><path fill="#1E1E1E" d="M586.507 293.551C589.755 293.486 593.216 293.477 596.442 293.318C596.481 294.815 596.462 298.61 596.797 299.854C597.365 305.601 592.374 305.704 588.354 303.701C587.246 301.979 587.606 302.095 587.439 299.744L586.507 293.551Z"/><path fill="#FEFEFE" fill-opacity="0.58039218" d="M583.836 325.705C584.766 326.7 584.412 326.397 585.604 327.068L586.308 326.786C586.758 325.186 584.728 319.133 584.164 317.114C585.639 316.127 592.682 313.453 594.343 313.854L595.01 314.949C593.296 315.847 593.332 316.023 592.238 317.564C592.015 319.389 591.795 318.612 592.738 320.019L594.295 320.493L593.09 321.378L593.124 322.173C595.303 322.208 594.689 322.131 596.879 320.62C595.295 325.373 593.096 322.989 589.532 325.279C587.52 326.572 587.343 330.099 584.686 328.885C583.985 327.32 583.993 327.406 583.836 325.705Z"/><path fill="#1E1E1E" fill-opacity="0.98823529" d="M507.995 297.196L509.864 297.751C510.864 299.808 511.406 307.399 510.657 309.496C508.178 309.445 505.504 309.624 503.012 309.734C502.548 306.098 502.525 301.94 502.417 298.235C504.496 297.958 505.948 297.666 507.995 297.196Z"/><path fill="#1E1E1E" d="M567.886 279.196C570.996 278.389 574.507 278.237 577.731 277.968L577.466 281.705C577.597 283.674 578.087 286.133 577.073 287.667C575.692 288.264 575.627 288.225 574.116 288.437L569.886 288.71C569.037 288.497 569.322 288.564 568.574 287.968C567.728 285.299 567.918 282.066 567.886 279.196Z"/><path fill="#FEFEFE" fill-opacity="0.4509804" d="M598.562 344.94C596.465 344.746 593.815 344.692 591.796 344.427C586.29 343.704 588.615 331.483 593.083 329.735L594.38 330.563L594.421 331.007C592.804 333.799 592.121 332.154 590.775 336.489C588.983 342.257 589.626 344.677 596.462 343.603C598.047 342.966 598.629 342.525 600.246 343.009C603.112 346.287 602.005 347.567 605.98 348.09L607.156 347.607C607.164 349.404 606.893 350.884 607.947 352.218C609.415 352.342 609.513 352.394 611.165 351.412L611.243 353.087L610.703 352.836C610.187 353.22 609.666 353.769 609.021 353.884C606.402 353.965 603.29 356.097 601.331 354.535C601.201 352.806 602.228 351.578 603.147 350.004L602.378 349.336C600.261 347.514 599.972 347.375 598.562 344.94Z"/><path fill="#1E1E1E" fill-opacity="0.98823529" d="M502.003 278.557C501.988 275.915 501.594 276.101 502.697 274.099C504.366 273.107 507.333 273.427 509.419 273.446C509.512 277.77 509.608 281.117 510.082 285.398C507.458 285.599 504.734 285.729 502.158 286.211L502.003 278.557Z"/><path fill="#FEFEFE" fill-opacity="0.83529413" d="M596.797 299.854L597.164 298.499C598.46 298.87 599.562 300.235 600.164 301.438C599.891 304.063 600.332 303.729 598.946 305.461C594.382 307.266 589.419 307.827 584.495 307.586C581.343 307.432 582.38 306.595 578.156 307.276L577.016 305.196L577.216 303.977C577.351 302.762 577.495 301.698 577.687 300.491L578.622 300.072C579.447 302.114 579.511 302.88 581.246 304.015C583.192 304.601 584.171 304.206 586.248 303.819C586.96 302.525 587.128 301.198 587.439 299.744C587.606 302.095 587.246 301.979 588.354 303.701C592.374 305.704 597.365 305.601 596.797 299.854Z"/><path fill="#FEFEFE" fill-opacity="0.25882354" d="M548.064 235.493C554.843 235.92 562.211 238.047 553.612 246.587C552.948 247.246 551.096 246.691 550.174 246.312L549.863 247.935C549.446 246.685 549.842 247.152 548.671 246.538C547.089 241.241 549.272 240.347 548.064 235.493Z"/><path fill="#FEFEFE" fill-opacity="0.094117649" d="M604.321 329.425C604.812 328.278 604.421 328.748 605.759 328.199C606.2 325.089 605.672 325.237 605.146 322.157C605.998 320.401 607.674 319.794 609.434 318.841C608.976 322.728 610.351 328.862 610.339 333.566C610.085 334.727 609.824 336.079 608.683 336.601C604.82 338.369 604.801 333.641 604.598 332.305L604.321 329.425Z"/><path fill="#FEFEFE" fill-opacity="0.41568628" d="M507.811 333.122C508.809 333.128 509.981 332.858 510.713 333.522C514.507 336.968 516.117 335.583 515.857 341.051C518.078 342.563 519.724 339.306 522.503 339.176L522.844 339.418L522.899 345.029C522.755 343.711 522.792 343.053 522.219 341.866L520.851 341.586C518.867 342.313 515.832 343.39 513.851 342.581C513.111 341.915 512.56 342.071 511.35 341.905C510.415 340.249 510.29 339.957 508.531 339.744C506.975 340.513 506.571 340.809 504.812 341.046L503.783 340.245C503.905 336.21 503.58 336.127 506.848 333.803C506.372 335.683 506.165 335.308 506.684 336.859C508.839 337.644 510.55 336.906 510.693 334.489C509.352 333.33 509.561 333.71 507.344 333.552L507.811 333.122Z"/><path fill="#1E1E1E" d="M568.973 296.07L571.967 295.471C574.657 295.522 574.645 295.103 576.621 296.285C577.715 298.28 577.058 301.392 577.216 303.977L577.016 305.196C575.591 305.428 574.273 305.635 572.833 305.804C571.993 305.86 570.563 305.784 569.671 305.766C569.6 302.217 569.363 299.611 568.973 296.07Z"/><path fill="#FEFEFE" fill-opacity="0.56078434" d="M519.644 316.767C518.099 315.422 518.155 315.894 517.774 314.265C518.983 312.356 522.061 312.886 526.205 309.018C527.935 310.715 529.872 311.956 530.221 313.958C529.903 314.541 525.331 318.132 524.6 318.53C522.952 318.829 523.528 318.403 522.578 319.454L521.975 319.308C521.532 318.287 521.315 317.842 520.752 316.883L519.644 316.767Z"/><path fill="#FEFEFE" fill-opacity="0.72156864" d="M540.569 329.143C541.127 330.846 540.619 330.237 542.001 331.145C545.809 331.214 547.102 330.645 550.766 329.519L551.751 330.571L552.42 330.099C552.633 327.479 552.702 323.139 553.789 321.019C555.219 320.824 554.483 320.755 556.002 321.81C558.383 325.977 554.037 334.357 561.712 333.787L561.604 334.632C559.986 335.642 560.795 335.489 559.176 335.535C549.843 329.072 550.955 332.245 541.148 331.577C540.432 331.528 540.549 331.409 540.049 330.526L540.569 329.143Z"/><path fill="#1E1E1E" d="M510.106 320.896L511.093 321.568C511.308 324.349 511.936 328.29 511.039 330.744C510.405 331.047 509.932 331.294 509.269 331.535C507.811 331.535 506.931 331.48 505.504 331.36L505.033 330.692C504.775 328.141 503.928 324.339 505.025 322.154C506.93 320.836 507.605 321.156 510.106 320.896Z"/><path fill="#F2F2F2" fill-opacity="0.82352942" d="M531.004 336.797C536.096 334.284 537.79 335.51 543.417 335.979C546.431 336.231 548.955 335.826 551.818 336.859L552.056 337.806C548.152 338.648 542.259 338.072 540.118 339.487C538.015 339.57 536.098 339.422 534.261 340.333L533.935 339.587C532.561 338.743 531.084 339.092 529.386 339.201C528.249 338.971 528.798 339.162 527.743 338.618C528.921 338.101 530.036 337.671 531.004 336.797Z"/><path fill="#1E1E1E" d="M489.451 323.369C490.921 324.003 490.358 323.512 491.175 324.918L491.381 328.086L491.435 333.042L485.161 333.526C485.079 330.289 484.125 327.519 484.924 324.675C486.157 323.298 486.036 323.724 488.37 323.32L489.451 323.369Z"/><path fill="#F2F2F2" fill-opacity="0.56862748" d="M610.339 333.566L610.804 341.077L610.329 342.652C607.777 342.803 609.894 340.68 607.841 342.312C607.964 345.462 608.225 347.006 608.763 350.088C609.199 350.036 610.611 349.867 610.966 349.918L611.165 351.412C609.513 352.394 609.415 352.342 607.947 352.218C606.893 350.884 607.164 349.404 607.156 347.607C605.584 346.149 604.644 342.549 604.251 340.437C604.681 338.394 604.58 334.532 604.598 332.305C604.801 333.641 604.82 338.369 608.683 336.601C609.824 336.079 610.085 334.727 610.339 333.566Z"/><path fill="#1E1E1E" d="M596.715 311.715C599.147 311.397 601.586 311.145 604.031 310.96L603.992 320.418C601.891 320.354 599.385 320.349 597.326 320.203L597.242 318.61L596.715 311.715Z"/><path fill="#FEFEFE" fill-opacity="0.90196079" d="M492.65 343.614C491.626 342.79 491.725 342.486 491.324 341.17C492.897 338.19 496.394 340.003 500.199 338.507C501.136 334.247 502.605 332.553 503.783 328.522C504.136 329.292 504.568 329.986 505.033 330.692L505.504 331.36C506.931 331.48 507.811 331.535 509.269 331.535L507.811 333.122L507.344 333.552L506.848 333.803C503.58 336.127 503.905 336.21 503.783 340.245C502.053 339.365 497.762 340.175 495.927 340.751C494.947 341.067 493.973 341.406 493.009 341.769C492.665 342.828 492.713 342.494 492.65 343.614Z"/><path fill="#1E1E1E" d="M546.938 318.784C547.766 318.885 549.21 318.816 549.647 319.475C551.806 322.724 550.58 329.745 545.719 329.299C543.595 327.501 544.961 327.001 544.215 324.657C544.061 323.186 544.027 321.483 543.961 319.984C545.57 319.62 545.626 319.72 546.938 318.784Z"/><path fill="#F2F2F2" fill-opacity="0.05882353" d="M581.119 266.465L582.016 266.289L581.879 266.83C581.055 269.998 579.242 273.579 579.139 276.285C581.144 277.972 583.621 279.025 584.777 280.848C584.92 283.482 581.809 283.899 579.756 284.085C578.971 283.2 578.297 282.534 577.466 281.705L577.731 277.968C577.733 277.91 577.735 277.852 577.736 277.794C576.665 274.368 579.207 269.963 581.119 266.465Z"/><path fill="#FEFEFE" fill-opacity="0.54901963" d="M596.462 343.603C589.626 344.677 588.983 342.257 590.775 336.489C592.121 332.154 592.804 333.799 594.421 331.007C594.414 333.982 594.326 337.085 594.666 340.029L597.036 340.426C597.506 342.032 596.855 341.696 596.462 343.603Z"/><path fill="#212121" d="M541.675 227.462L547.411 226.98C547.533 229.626 547.774 232.466 547.953 235.125C546.772 235.35 545.467 235.407 544.634 236.07L541.502 235.868L541.675 227.462Z"/><path fill="#F2F2F2" d="M503.783 340.245L504.812 341.046C506.571 340.809 506.975 340.513 508.531 339.744C510.29 339.957 510.415 340.249 511.35 341.905C509.539 342.132 505.549 342.467 504.073 343.159C501.697 343.333 495.796 343.45 494.005 343.736L492.65 343.614C492.713 342.494 492.665 342.828 493.009 341.769C493.973 341.406 494.947 341.067 495.927 340.751C497.762 340.175 502.053 339.365 503.783 340.245Z"/><path fill="#FEFEFE" fill-opacity="0.0078431377" d="M569.886 288.71L574.116 288.437C573.579 291.517 573.086 292.638 571.967 295.471L568.973 296.07C567.672 296.656 568.32 296.429 566.509 296.062C566.363 292.184 565.784 290.074 569.886 288.71Z"/><path fill="#FEFEFE" fill-opacity="0.36862746" d="M578.622 300.072C577.412 298.662 577.746 299.441 577.459 297.71C579.618 296.528 584.439 298.294 586.419 299.619C586.327 301.068 586.205 302.365 586.248 303.819C584.171 304.206 583.192 304.601 581.246 304.015C579.511 302.88 579.447 302.114 578.622 300.072Z"/><path fill="#FEFEFE" fill-opacity="0.11372549" d="M567.611 318.384C567.851 317.821 568.108 317.265 568.383 316.718C569.241 315.053 569.833 314.53 571.582 313.938C571.958 315.995 572.277 318.666 571.964 320.746C571.469 322.599 571.479 324.13 570.207 324.872L568.544 323.761C567.914 324.8 568.233 332.799 567.953 335.011C567.523 331.477 567.655 322.414 567.611 318.384Z"/><path fill="#FEFEFE" fill-opacity="0.51372552" d="M604.251 340.437C604.644 342.549 605.584 346.149 607.156 347.607L605.98 348.09C602.005 347.567 603.112 346.287 600.246 343.009C598.629 342.525 598.047 342.966 596.462 343.603C596.855 341.696 597.506 342.032 597.036 340.426L594.666 340.029C596.486 340.115 603.059 340.19 604.251 340.437Z"/><path fill="#F2F2F2" fill-opacity="0.43529412" d="M572.833 305.804C574.273 305.635 575.591 305.428 577.016 305.196L578.156 307.276C579.948 308.177 581.931 307.657 583.167 308.869C583.593 310.566 583.212 311.65 582.874 313.37C580.676 313.473 578.724 313.453 576.534 313.43L576.691 312.943C577.436 310.554 577.861 309.367 576.667 307.102C574.712 305.601 575.539 306.036 572.833 305.804Z"/><path fill="#F2F2F2" d="M552.411 303.607C552.442 302.025 552.4 301.364 552.788 299.793C554.008 299.707 553.949 300.085 555.237 301.178L555.471 302.285C555.699 305.214 556.212 308.864 555.001 311.525C553.981 312.269 554.043 312.221 552.815 312.538C551.842 310.446 552.883 308.743 552.388 306.662L552.411 303.607Z"/><path fill="#212121" d="M483.232 237.847C482.112 237.676 482.033 237.632 480.973 237.212C479.588 234.417 479.298 232.708 481.826 230.43C483.616 230.112 482.781 229.971 484.397 230.968C485.742 232.769 485.582 234.678 485.763 237.013L483.232 237.847Z"/><path fill="#F2F2F2" d="M491.784 308.074C494.413 309.261 496.016 311.457 495.884 314.356C494.863 316.147 495.559 315.518 493.81 316.407L491.446 316.195L490.671 314.657C490.564 312.795 490.622 312.716 490.951 310.965C491.218 310.269 491.566 308.849 491.784 308.074Z"/><path fill="#FEFEFE" fill-opacity="0.31764707" d="M566.509 296.062C568.32 296.429 567.672 296.656 568.973 296.07C569.363 299.611 569.6 302.217 569.671 305.766C568.444 306.127 568.41 306.185 567.301 306.851L566.759 308.416C566.623 307.794 566.337 299.522 566.273 298.228L566.509 296.062Z"/><path fill="#FEFEFE" fill-opacity="0.58431375" d="M555.237 301.178C553.321 296.972 555.656 297.335 556.916 292.691C558.469 294.721 558.359 300.429 558.146 303.013L557.48 303.791C555.846 303.253 556.505 303.722 555.471 302.285L555.237 301.178Z"/><path fill="#F2F2F2" fill-opacity="0.31764707" d="M584.761 280.932C584.95 280.684 591.601 276.603 592.83 275.742L593.311 276.099C593.411 277.39 593.439 278.255 593.91 279.477C593.902 280.925 594.089 282.467 593.418 283.67L592.974 283.29C590.782 281.441 587.634 280.011 584.761 280.932Z"/><path fill="#FEFEFE" fill-opacity="0.51372552" d="M565.651 275.453C565.847 277.315 565.62 278.707 566.722 279.761L567.886 279.196C567.918 282.066 567.728 285.299 568.574 287.968C569.322 288.564 569.037 288.497 569.886 288.71C565.784 290.074 566.363 292.184 566.509 296.062L566.273 298.228C565.706 293.928 565.752 280.34 565.651 275.453Z"/><path fill="#F2F2F2" d="M541.502 235.868L544.634 236.07L545.426 236.414C543.705 239.002 541.915 240.753 538.584 239.73C537.145 238.656 537.219 238.419 536.57 236.761L541.502 235.868Z"/><path fill="#FEFEFE" fill-opacity="0.59215689" d="M610.804 341.077C610.897 343.923 611.085 347.1 610.966 349.918C610.611 349.867 609.199 350.036 608.763 350.088C608.225 347.006 607.964 345.462 607.841 342.312C609.894 340.68 607.777 342.803 610.329 342.652L610.804 341.077Z"/><path fill="#FEFEFE" fill-opacity="0.89019608" d="M543.742 310.445C542.03 311.472 542.898 311.307 541.125 311.255L540.722 310.28C541.189 307.492 542.047 305.97 543.206 303.414C543.576 306.562 543.223 305.93 545.983 307.758C545.492 309.034 544.755 309.523 543.742 310.445Z"/><path fill="#FEFEFE" fill-opacity="0.64313728" d="M491.175 324.918L492.019 325.124C493.665 324.486 493.929 324.503 495.593 324.672C497.077 325.627 496.667 324.985 497.031 326.546C495.796 328.242 496.564 327.568 494.513 328.488C493.466 328.379 492.422 328.245 491.381 328.086L491.175 324.918Z"/><path fill="#FEFEFE" fill-opacity="0.35686275" d="M507.344 333.552C509.561 333.71 509.352 333.33 510.693 334.489C510.55 336.906 508.839 337.644 506.684 336.859C506.165 335.308 506.372 335.683 506.848 333.803L507.344 333.552Z"/><path fill="#FEFEFE" fill-opacity="0.48627451" d="M594.295 320.493L592.738 320.019C591.795 318.612 592.015 319.389 592.238 317.564C593.332 316.023 593.296 315.847 595.01 314.949L595.468 319.116L594.295 320.493Z"/><path fill="#FEFEFE" fill-opacity="0.627451" d="M597.242 318.61L597.326 320.203L596.879 320.62C594.689 322.131 595.303 322.208 593.124 322.173L593.09 321.378L594.295 320.493L595.468 319.116C596.033 319.577 595.666 319.347 596.654 319.654L597.242 318.61Z"/><path fill="#2B2B2B" d="M249.57 273.224C259.375 272.934 270.264 272.971 280.05 274.027C284.702 274.529 286.11 275.691 288.655 279.207C285.863 285.033 280.185 290.582 276.044 295.694C256.424 319.915 240.231 346.294 225.228 373.612C204.412 411.052 186.816 450.195 172.63 490.616C169.223 500.258 164.151 514.014 161.878 523.699C166.482 521.495 170.895 518.573 175.315 516.002C182.065 512.075 188.986 508.277 196.029 504.898C237.034 485.221 277.587 483.349 321.806 491.119C377.714 500.943 423.793 523.268 456.997 570.811C485.033 610.954 501.982 666.117 493.066 715.005C484.054 764.419 427.681 829.922 386.788 858.116C341.026 888.492 297.843 895.539 244.021 890.029C223.259 887.903 202.976 875.101 185.732 864.041C163.756 849.74 144.902 832.46 129.1 811.273C92.4253 762.098 77.1085 689.854 82.4904 629.539C84.9519 601.953 110.755 569.38 128.73 549.609C133.854 543.972 143.886 535.982 150.13 531.168C152.725 524.187 154.92 516.129 157.403 508.922C164.158 489.422 171.27 470.047 178.736 450.808C200.963 394.645 231.933 339.216 268.657 291.232C271.118 288.018 273.697 284.623 276.456 281.674C258.228 280.811 240.522 280.085 222.593 283.686C219.627 284.282 215.561 285.244 212.656 284.75C210.408 283.281 209.739 280.954 211.109 278.6C215.582 274.957 242.732 273.619 249.57 273.224ZM309.893 877.057C371.605 866.265 415.212 824.424 450.593 775.143C478.728 737.909 488.756 701.02 479.914 654.454C471.652 610.944 444.408 562.266 407.486 536.604C370.551 510.934 310.506 494.702 265.589 499.201C253.413 500.107 234.024 502.332 222.941 506.808C192.875 518.951 154.545 538.912 132.765 563.319C101.119 598.783 89.8045 627.115 94.1831 674.489C101.211 750.526 130.361 816.702 197.807 857.264C221.961 871.857 238.898 881.026 269.025 879.019C281.859 878.417 296.912 879.86 309.893 877.057Z"/><path fill="#212121" d="M271.129 541.375C275.441 541.632 283.023 548.676 288.227 551.203C301.376 557.587 314.293 563.089 328.539 566.583C348.371 571.382 368.71 573.766 389.114 573.683C393.306 573.72 397.498 573.624 401.683 573.395C404.971 573.187 411.471 571.94 414.175 572.562C416.918 577.955 409.68 630.795 408.413 639.339C400.905 690.007 386.207 758.926 355.438 800.802C340.824 820.69 321.514 837.472 301.814 852.114C297.596 850.309 293.903 848.422 289.826 846.35C279.621 840.965 269.684 835.086 260.049 828.736C190.64 783.088 153.293 685.249 137.104 606.79C190.767 594.694 229.093 577.135 271.129 541.375ZM251.546 697.643C255.748 699.912 270.476 707.864 274.364 708.191L275.085 707.799C278.564 701.37 281.014 696.782 284.223 690.266C281.096 678.985 282.931 666.43 295.99 663.165C296.604 663.012 297.221 662.869 297.84 662.737L297.818 662.36L298.353 662.071L297.446 662.336C297.823 662.03 305.939 646.09 307.189 643.949C300.526 640.712 289.998 636.389 284.066 632.665C282.639 637.053 278.294 644.866 276.003 649.323C271.512 658.104 266.965 666.856 262.364 675.579C258.735 682.483 254.336 690.47 251.546 697.643ZM335.048 789.69C339.98 788.74 367.739 783.893 351.383 775.241C346.844 772.841 331.382 769.623 326.281 770.026L325.807 770.45L325.964 771.166C326.406 773.264 326.723 773.881 326.159 775.83C322.681 780.921 290.938 779.898 285.321 776.414C283.006 773.255 285.523 770.786 283.816 769.498L282.179 769.671C274.896 770.475 268.421 771.075 261.303 772.78C251.769 775.064 246.834 782.298 258.9 785.928C284.068 793.498 309.391 792.709 335.048 789.69ZM308.195 754.415C329.162 748.269 322.617 725.363 301.68 727.584C279.938 735.015 286.727 758.495 308.195 754.415ZM239.987 706.492C244.05 709.515 266.663 721.642 270.565 720.161C272.742 717.208 273.309 716.256 274.91 712.951C264.241 708.555 254.256 703.045 243.669 698.379C241.973 701.586 241.218 703.088 239.987 706.492ZM279.635 625.729C286.471 629.737 305.169 638.686 312.348 641.238C314.093 638.741 315.016 637.169 314.965 634.119C313.654 631.766 287.116 619.087 283.636 618.268C281.276 621.089 280.768 622.231 279.635 625.729ZM317.695 679.091C315.112 668.182 308.734 665.592 298 666.633C278.45 674.612 285.933 697.025 305.021 692.917C313.005 690.261 315.789 687.509 317.695 679.091ZM316.834 728.441C321.979 730.861 323.102 733.039 325.119 737.964C342.575 722.41 339.465 696.184 320.063 683.334C318.211 688.227 317.292 689.271 313.823 692.879C324.335 705.659 326.563 714.049 316.834 728.441ZM291.769 754.892C288.683 752.147 287.435 750.931 285.419 747.132C275.853 746.953 265.33 746.835 255.774 747.217C249.139 747.535 233.216 746.411 229.364 750.155C228.099 754.173 230.816 756.478 234.777 756.637C244.643 757.033 254.505 756.389 264.375 756.306C272.83 756.234 283.74 756.625 291.769 754.892ZM254.695 677.82C252.952 680.784 247.661 690.708 246.649 693.595C246.919 694.381 246.695 694.16 247.06 694.442C248.981 691.809 254.875 681.66 255.345 678.748L254.695 677.82ZM257.502 675.218C258.469 673.617 259.334 672.601 259.394 670.762L258.756 669.88C257.735 671.566 256.772 672.659 256.846 674.572L257.502 675.218ZM314.994 755.775C307.613 759.343 302.815 760.999 294.644 757.958C292.275 763.802 289.527 769.077 287.292 774.507C290.295 774.906 292.965 775.236 295.993 775.481C306.143 776.159 312.924 776.218 323.064 774.301C322.242 771.1 317.13 757.611 314.994 755.775ZM261.612 667.655C263.803 662.675 280.044 633.301 280.248 631.241L278.726 630.201C276.09 635.554 261.049 663.965 260.483 667.052L260.94 667.787L261.612 667.655Z"/><path fill="#1E1E1E" d="M303.9 733.17C307.058 732.698 310.226 733.962 312.192 736.479C314.157 738.997 314.615 742.377 313.39 745.326C312.165 748.276 309.448 750.338 306.277 750.722C301.469 751.306 297.084 747.919 296.434 743.119C295.783 738.319 299.109 733.887 303.9 733.17ZM307.051 745.261C308.822 742.851 309.06 740.957 306.661 738.834C305.871 738.626 304.953 738.355 304.167 738.194C302.639 740.882 301.811 742.988 304.488 745.168C305.686 745.279 305.85 745.316 307.051 745.261Z"/><path fill="#1E1E1E" d="M301.126 671.721C305.957 670.68 310.712 673.77 311.724 678.607C312.735 683.444 309.617 688.181 304.774 689.163C299.972 690.138 295.284 687.052 294.281 682.255C293.278 677.459 296.336 672.753 301.126 671.721ZM304.843 683.284C305.859 682.736 306.499 681.68 306.512 680.525C306.526 679.37 305.912 678.299 304.909 677.727C303.906 677.155 302.671 677.173 301.685 677.773C300.214 678.668 299.723 680.573 300.58 682.067C301.436 683.561 303.327 684.101 304.843 683.284Z"/><path fill="#F2F2F2" fill-opacity="0.015686275" d="M278.726 630.201L280.248 631.241C280.044 633.301 263.803 662.675 261.612 667.655L260.94 667.787L260.483 667.052C261.049 663.965 276.09 635.554 278.726 630.201Z"/><path fill="#FEFEFE" fill-opacity="0.035294119" d="M254.695 677.82L255.345 678.748C254.875 681.66 248.981 691.809 247.06 694.442C246.695 694.16 246.919 694.381 246.649 693.595C247.661 690.708 252.952 680.784 254.695 677.82Z"/><path fill="#FEFEFE" fill-opacity="0.035294119" d="M258.756 669.88L259.394 670.762C259.334 672.601 258.469 673.617 257.502 675.218L256.846 674.572C256.772 672.659 257.735 671.566 258.756 669.88Z"/><path fill="#2B2B2B" d="M734.821 485.205C768.025 482.59 817.927 490.651 848.126 504.458C891.172 524.139 915.024 553.013 930.701 597.423C947.79 645.832 950.949 697.704 928.526 745.061C903.479 797.958 860.79 844.838 804.831 864.849C793.788 868.854 782.365 871.72 770.739 873.403C750.294 876.396 709.851 876.576 690.254 869.714C679.455 865.933 666.417 856.838 655.603 851.737C644.746 855.239 633.659 859.239 622.743 862.415C559.371 880.857 501.521 890.832 435.364 883.915C431.699 883.355 427.366 882.811 423.846 881.852C434.836 901.491 455.794 919.824 468.91 938.262C470.26 940.16 467.543 942.953 465.314 943.438C457.388 941.685 417.476 888.433 410.225 878.855C409.077 877.338 408.209 875.509 408.661 873.545C410.78 870.94 417.465 872.756 420.789 873.369C498.306 887.674 572.608 869.026 646.445 847.025C643.898 844.719 636.623 840.048 633.486 837.895C627.521 833.822 621.793 829.412 616.331 824.686C593.049 804.584 575.014 771.338 565.893 742.218C562.691 731.995 559.447 717.205 557.216 706.543C554.208 692.163 551.408 675.875 550.342 661.191C547.089 616.399 557.913 589.681 586.719 556.576C619.519 518.878 664.746 494.187 714.194 486.984C720.413 486.039 728.415 485.644 734.821 485.205ZM756.971 863.302C834.681 855.801 892.564 799.979 922.24 730.414C931.134 709.568 933.765 676.68 931.516 654.318C927.032 609.733 909.812 561.194 873.596 532.783C836.594 503.754 781.798 493.476 735.978 496.258C681.64 499.598 630.914 524.603 595.173 565.668C570.226 594.225 559.858 618.174 562.431 657.061C563.551 673.982 566.362 690.477 569.866 707.049C578.71 748.883 593.052 788.798 626.23 817.667C639.46 829.179 685.238 856.991 701.315 860.983C717.548 865.014 738.576 864.761 755.104 863.535C755.735 863.488 756.348 863.415 756.971 863.302Z"/><path fill="#212121" d="M730.634 535.356C734.316 535.092 745.373 543.401 749.686 545.793C758.435 550.571 767.525 554.696 776.881 558.134C808.206 569.687 837.166 572.556 870.234 568.462C872.662 568.162 877.403 567.48 878.948 569.529C879.721 574.313 878.561 585.082 878.25 590.616C873.469 675.694 852.755 767.921 789.246 829.177C783.806 834.424 777.301 839.734 770.848 843.51C764.236 847.38 758.322 845.878 751.555 843.71C741.315 840.041 725.668 830.934 716.739 823.674C650.763 770.024 619.553 684.407 599.005 604.545C598.094 601.004 601.794 601.043 604.343 600.634C606.747 600.248 609.26 600.009 611.739 599.538C620.469 597.831 629.11 595.697 637.631 593.141C673.625 582.247 706.429 564.755 730.634 535.356ZM606.462 606.289C607.913 618.58 611.44 629.164 615.151 640.857C635.804 705.929 665.886 775.254 720.662 818.758C730.47 826.538 741.311 832.916 752.876 837.71C756.6 839.129 758.578 839.777 762.438 840.73C770.291 837.941 778.144 830.762 784.134 825.123C843.447 769.289 864.392 684.05 870.829 605.605C871.636 595.767 872.597 584.462 872.495 574.66C862.429 575.249 852.48 576.242 842.414 576.283C812.198 576.406 785.477 570.162 758.398 556.796C752.521 553.895 737.426 545.969 732.553 541.98C700.708 577.172 653.183 599.366 606.462 606.289Z"/><path fill="#212121" d="M734.464 553.432C778.879 579.828 810.756 589.394 862.835 583.602C860.838 632.053 851.247 689.394 833.674 734.504C823.146 761.53 801.842 796.018 780.796 815.867C776.67 819.758 770.704 825.131 765.383 827.308C759.177 829.847 755.788 828.36 750.209 826.026C747.402 824.857 742.698 822.489 740.183 820.951C672.424 779.516 636.212 684.548 616.744 611.801C624.876 610.024 634.352 608.886 642.419 606.706C665.616 600.437 689.754 590.321 709.28 576.168C717.894 569.924 727.091 560.741 734.464 553.432ZM746.476 624.587C746.48 630.533 746.548 634.748 747.08 640.714C742.075 641.045 739.103 641.32 734.196 642.244C738.267 647.016 745.542 653.416 737.879 659.09C735.767 660.653 733.082 661.228 730.515 660.666C727.389 659.981 725.176 657.824 723.566 655.165C722.955 654.135 722.37 653.089 721.81 652.03C714.804 656.841 710.563 662.598 706.674 670.059C701.466 667.891 695.1 664.161 689.983 661.423C689.879 648.697 678.984 641.795 670.489 651.534C667.979 654.435 666.78 658.243 667.175 662.059C668.363 673.273 678.376 675.874 686.492 668.013C691.172 671.225 696.833 673.36 701.613 676.347C700.231 681.26 699.394 684.856 698.441 689.872C693.628 690.557 689.151 690.877 684.318 691.244C678.393 682.15 670.993 686.772 668.255 695.485C669.238 699.654 670.009 703.166 674.028 705.439C679.126 708.321 683.734 704.799 685.48 700.01C689.888 699.642 694.521 699.179 698.922 698.978C700.387 708.024 701.059 710.145 704.597 718.527C700.139 720.909 697.462 722.633 693.28 725.503C675.923 717.063 671.267 743.258 685.305 748.457C688.499 749.606 692.025 749.399 695.062 747.882C701.907 744.402 701.041 737.799 699.74 731.427C702.755 729.709 713.162 724.582 714.135 721.966C713.404 719.259 711.547 716.204 711.504 714.219L712.15 713.513C717.625 713.553 723.225 719.747 718.194 724.272C716.793 725.531 714.292 726.537 713.63 728.221C714.301 730.675 718.027 732.804 720.233 734.058C723.213 735.737 726.266 737.286 729.381 738.699L723.8 757.359C720.597 756.706 718.621 756.624 715.807 758.54C711.536 761.448 710.803 768.087 714.047 772.101C720.777 780.426 736.775 780.891 736.907 767.433C736.947 763.391 735.079 760.877 731.066 759.874C733.425 753.991 735.355 748.55 737.423 742.557C745.463 744.54 750.454 745.887 758.75 746.481C759.56 749.301 761.546 754.345 761.753 756.562C760.999 756.66 760.336 756.75 759.576 756.812C757.504 761.914 756.01 769.699 762.267 772.572C770.125 776.18 783.584 767.793 778.293 758.688C775.878 754.532 774.617 754.11 770.012 754.16L769.027 754.165C768.405 750.932 767.93 748.45 767.001 745.283C774.16 743.842 781.252 740.196 787.614 736.713C790.018 739.927 793.737 744.477 796.507 747.481C787.185 761.993 807.432 771.624 814.568 756.678C816.06 753.545 816.237 749.946 815.061 746.682C812.908 740.868 807.829 739.83 802.859 743.05C799.512 738.449 797.317 735.96 792.96 732.288C800.129 725.51 802.792 720.049 806.208 710.715C803.24 710.659 798.741 711.186 798.679 707.155C799.825 705.746 799.143 706.018 800.57 705.818C805.398 709.461 811.385 709.789 817.273 710.678C821.629 730.301 843.345 711.67 837.838 700.645C832.985 690.928 823.3 691.812 818.529 702.59C814.773 701.829 806.729 700.692 804.15 698.321C803.546 695.477 806.912 693.026 807.689 689.893C808.797 685.426 808.69 675.673 804.373 672.999C800.319 670.487 800.765 671.477 798.217 666.971C800.361 665.849 806.728 662.151 808.62 661.894C814.596 667.438 826.661 662.963 824.655 653.454C823.352 647.28 819.332 638.685 811.155 639.655C803.923 641.48 801.927 648.044 804.588 654.231C800.4 656.887 796.327 659.425 791.859 661.618C788.211 657.12 785.279 654.036 780.089 651.205C782.962 647.183 786.298 642.874 788.356 638.431C792.273 639.754 795.207 640.331 799.168 638.383C802.001 636.985 804.148 634.499 805.119 631.493C808.592 620.929 793.343 611.36 784.746 616.277C777.709 620.302 779.575 628.2 783.374 634.21C779.522 638.766 777.007 642.11 773.566 646.959C765.542 643.204 764.171 642.579 755.525 640.812C754.763 635.088 754.308 629.177 753.788 623.413C762.01 617.691 760.285 608.749 749.541 609.104C739.029 610.955 733.255 620.483 746.476 624.587ZM704.406 619.984C705.953 626.982 707.271 629.413 715.087 629.857C718.617 637.204 724.011 650.994 730.478 655.142C732.295 655.436 732.638 655.625 734.31 654.811C734.875 653.836 735.347 653.237 734.796 651.894C732.47 646.221 723.654 633.099 722.709 627.305C725.968 624.833 728.489 623.165 728.849 618.821C729.467 611.365 723.692 607.996 717.35 607.631C709.374 609.296 706.447 612.027 704.406 619.984Z"/><path fill="#1E1E1E" d="M781.392 671.586C784.113 671.335 786.209 671.395 788.758 672.536C791.917 673.956 794.372 676.588 795.569 679.839C798.666 688.105 794.363 694.683 786.499 697.52C770.031 698.715 763.713 676.817 781.392 671.586ZM784.734 691.844C788.779 691.423 791.744 687.844 791.405 683.792C791.065 679.739 787.546 676.703 783.487 676.961C780.789 677.133 778.394 678.75 777.226 681.188C776.058 683.627 776.299 686.506 777.856 688.717C779.414 690.927 782.044 692.123 784.734 691.844Z"/><path fill="#1E1E1E" d="M715.997 676.4C723.042 675.253 729.688 680.021 730.858 687.063C732.029 694.104 727.283 700.766 720.246 701.96C713.175 703.16 706.474 698.387 705.298 691.312C704.122 684.237 708.918 677.552 715.997 676.4ZM720.286 696.26C722.803 695.433 724.681 693.316 725.202 690.718C725.724 688.12 724.807 685.443 722.804 683.709C720.8 681.975 718.019 681.452 715.523 682.341C711.729 683.691 709.726 687.842 711.03 691.652C712.334 695.463 716.459 697.516 720.286 696.26Z"/><path fill="#1E1E1E" d="M757.101 717.171C764.07 715.571 771.018 719.923 772.62 726.892C774.222 733.862 769.871 740.81 762.901 742.413C755.931 744.016 748.98 739.664 747.378 732.693C745.776 725.722 750.129 718.772 757.101 717.171ZM762.252 736.825C766.008 735.614 768.081 731.598 766.894 727.834C765.706 724.071 761.703 721.973 757.932 723.137C754.128 724.312 752.008 728.358 753.206 732.154C754.404 735.951 758.463 738.046 762.252 736.825Z"/><path fill="#1E1E1E" fill-opacity="0.88235295" d="M753.851 680.936C754.799 682.273 754.185 681.72 755.977 682.36C757.881 681.411 757.313 681.642 758.59 679.48C758.216 687.316 750.34 689.049 745.842 682.427C747.71 682.542 748.37 681.948 750.011 681.029C750.441 681.681 751.176 682.065 751.957 682.046C752.737 682.027 753.453 681.608 753.851 680.936Z"/><path fill="#212121" fill-opacity="0.94509804" d="M745.842 682.427C744.907 677.982 746.241 675.326 750.311 673.523C750.175 676.326 749.778 675.734 751.029 677.689C750.406 677.949 749.931 678.474 749.734 679.12C749.538 679.766 749.639 680.466 750.011 681.029C748.37 681.948 747.71 682.542 745.842 682.427Z"/><path fill="#212121" fill-opacity="0.90588236" d="M750.311 673.523C754.862 672.962 756.011 674.105 758.275 677.92C755.281 678.015 755.779 677.516 754.052 679.066C753.853 678.468 753.415 677.979 752.841 677.718C752.267 677.457 751.611 677.447 751.029 677.689C749.778 675.734 750.175 676.326 750.311 673.523Z"/><path fill="#1E1E1E" fill-opacity="0.96078432" d="M758.275 677.92L758.59 679.48C757.313 681.642 757.881 681.411 755.977 682.36C754.185 681.72 754.799 682.273 753.851 680.936C754.186 680.371 754.259 679.689 754.052 679.066C755.779 677.516 755.281 678.015 758.275 677.92Z"/><path fill="#2B2B2B" d="M468.373 834.402C470.514 834.791 470.437 834.724 472.254 835.877C472.884 836.958 473.271 837.449 472.916 838.77C471.261 844.929 429.277 866.133 421.376 869.887C418.813 869.212 417.143 867.373 417.082 864.679C417.706 863.214 417.677 862.922 419.149 862.115C431.436 855.376 443.746 848.884 455.708 841.554C459.615 839.16 464.273 836.337 468.373 834.402Z"/><path fill="#2B2B2B" d="M296.406 285.907C304.17 288.254 299.517 295.606 297.721 301.326C295.995 306.882 294.375 312.471 292.862 318.088C290.631 326.311 288.804 334.998 286.687 343.275C286.421 344.316 285.094 345.34 284.224 345.997C282.3 345.551 281.541 345.553 280.077 344.212C277.09 338.383 285.167 313.988 287.254 306.839C288.944 301.047 291.34 288.99 296.406 285.907Z"/><path fill="#212121" d="M783.951 442.184C789.074 443.344 799.514 454.903 804.225 459.111C807.933 462.423 825.237 477.068 825.81 480.759C825.232 482.457 824.706 482.707 823.348 483.86C821.362 484.037 820.942 484.199 819.453 482.801C807.448 471.526 794.922 460.758 783.016 449.396C780.503 446.999 781.98 444.271 783.951 442.184Z"/></svg>