<?xml version="1.0" encoding="utf-8" ?><svg xmlns="http://www.w3.org/2000/svg" xmlns:xlink="http://www.w3.org/1999/xlink" width="1024" height="1024" viewBox="0 0 1024 1024"><path d="M504.155 372.951C505.157 362.752 503.56 350.412 505.03 340.267C505.207 339.045 506.509 338.239 507.521 337.679C508.6 337.602 509.579 337.321 510.4 338.237C513.162 341.371 512.717 346.904 512.469 350.849C512.016 358.05 511.983 365.087 512.052 372.306C519.43 371.955 526.887 370.998 534.287 371.28C537.459 371.4 540.435 371.703 541.698 374.883C540.819 381.363 531.841 379.506 526.47 379.62C521.649 379.678 516.835 380.018 512.054 380.64C511.791 391.286 511.378 402.206 511.649 412.831L512.143 412.849C526.137 413.443 541.674 418.719 540.49 435.791C557.32 441.367 565.616 447.379 579.582 457.028C581.932 455.067 583.915 452.958 586.167 450.918C619.181 421.007 649.232 387.691 682.937 358.719C683.854 357.931 685.079 358.626 685.895 359.014C687.869 361.513 688.122 363.724 685.618 366.038C682.439 368.975 679.131 371.761 675.93 374.675C669.784 380.35 663.725 386.12 657.755 391.981L620.916 427.822C610.687 437.9 595.988 452.885 584.8 461.766C587.892 465.292 591.38 468.571 594.507 472.277C608.046 488.326 616.998 502.308 624.737 521.695C627.371 523.012 630.319 524.151 633.05 525.266C650.851 532.531 667.702 541.73 685.177 549.701L732.196 571.337C737.605 573.863 754.275 579.301 753.992 585.244C752.218 587.412 748.582 587.21 746.285 586.133C723.58 575.486 700.703 564.688 677.919 554.237C662.074 546.969 644.967 537.48 628.798 531.346C633.138 545.679 635.565 556.722 637.01 571.616C638.147 577.789 637.214 603.105 639.532 607.234C643.722 614.698 706.795 638.223 668.768 644.441C668.535 646.646 668.275 648.848 667.988 651.047C667.004 658.094 663.735 659.806 656.996 658.447C657.326 662.501 657.448 666.371 657.481 670.435C657.756 704.79 656.954 739.124 657.188 773.479C657.221 778.311 656.97 782.78 657.536 787.621C660.878 787.463 668.561 785.732 670.329 787.518C675.091 792.327 673.046 806.742 674.084 814.073L674.189 814.779C674.836 814.89 676.665 814.321 677.76 814.334C689.613 814.479 684.287 826.897 683.856 834.325L683.825 834.957C691.364 833.474 692.686 839.689 693.012 845.713C690.388 851.252 694.811 863.554 689.664 869.573C689.292 870.007 689.047 871.107 688.909 871.697C685.965 872.592 669.881 872.327 665.864 872.453C623.742 873.776 581.952 871.231 539.923 870.232C502.495 869.217 465.053 868.783 427.611 868.929C405.938 868.873 384.465 868.409 362.783 869.245C353.464 869.604 298.411 873.705 293.346 870.347C292.303 869.655 291.735 868.501 291.422 867.327C290.007 862.014 298.354 838.482 301.402 833.574C304.7 832.814 310.304 836.872 311.8 839.526L311.181 840.505L311.341 840.865C313.278 840.521 314.06 841.084 315.432 840.694C318.446 832.154 309.133 802.202 325.81 814.648C326.081 810.857 326.203 806.663 326.416 802.88C327.028 792.019 331.675 791.562 340.897 790.894C342.443 776.243 341.57 755.231 342.105 740.051L343.939 690.698C344.242 681.386 344.864 669.266 344.18 660.159C330.84 659.453 329.606 659.661 330.722 644.633C331.406 635.421 330.706 632.966 340.178 631.422C343.959 627.796 348.341 624.164 352.59 621.088C364.924 612.161 376.125 602.31 388.644 593.612C389.144 588.169 388.434 581.347 388.482 575.716C388.612 560.668 390.101 545.807 393.255 531.08C394.313 526.146 395.98 520.968 396.222 515.954C384.574 522.248 372.462 528.179 360.91 534.544C343.691 544.175 326.64 554.103 309.764 564.323C303.495 568.079 284.991 581.847 279.286 582.668C278.115 582.167 277.833 582.036 277.148 580.895C276.75 580.232 276.199 578.762 276.493 578.033C279.138 571.474 375.315 518.227 387.333 511.932C391.734 509.604 396.247 507.493 400.855 505.607C410.698 481.33 419.052 473.418 437.207 456.893C427.038 447.419 344.858 369.277 343.632 366.604C343.218 365.702 343.423 364.493 343.931 363.668C344.553 362.658 345.69 361.868 346.872 361.697C347.809 361.563 348.55 361.765 349.339 362.272C354.413 365.53 360.679 372.892 365.31 377.181C384.74 395.176 403.387 414.162 422.463 432.547C429.095 438.939 435.471 446.393 442.683 452.075C442.813 452.177 442.946 452.277 443.077 452.378C446.083 451.127 450.738 448.251 453.828 446.66C463.083 441.893 471.05 438.304 481.189 435.752C482.948 419.558 488.727 416.349 503.985 413.268C504.452 402.43 504.621 391.581 504.495 380.733C499.05 380.81 478.689 382.89 477.287 381.678C465.258 371.277 500.19 373.045 504.155 372.951ZM509.405 531.965L517.055 536.601C540.278 534.478 566.064 537.311 589.558 535.689C600.288 534.949 611.415 535.892 622.05 535.331L621.846 534.902C620.401 531.809 619.143 528.32 617.882 525.154C600.731 482.07 564.247 441.793 515.343 438.474C512.177 438.259 508.09 438.417 504.93 438.702C468.292 443.307 443.538 456.355 420.134 485.188C411.426 495.916 406.672 510.601 403.426 523.764C402.399 527.929 400.85 533.164 400.305 537.367C407.901 537.95 415.84 537.634 423.495 537.596C435.22 537.614 446.944 537.538 458.667 537.369C463.54 537.337 478.944 537.909 482.315 537.103C485.984 536.225 498.369 528.587 502.993 526.297C504.744 527.959 507.462 530.745 509.405 531.965ZM497.125 620.135L542.129 619.056C555.14 618.817 579.929 618.228 592.991 616.302C576.394 607.388 559.948 598.198 543.658 588.736C530.504 581.201 517.641 574.707 505.912 564.99C505.355 564.529 505.355 564.645 504.501 564.402C474.221 581.111 444.949 599.262 414.04 614.828C412.517 615.595 409.975 617.454 408.993 618.777L409.245 619.86C413.576 621.056 431.644 621.035 436.57 621.035C456.758 621.043 476.945 620.743 497.125 620.135ZM323.555 821.484L323.743 841.482C347.173 841.286 370.604 841.293 394.034 841.502C414.461 841.754 436.019 842.598 456.25 842.469C482.925 842.425 510.264 842.766 536.873 841.999C570.272 840.786 603.652 839.07 637 836.851C649.932 836.117 662.285 836.246 675.501 835.166C676.241 831.58 677.551 826.092 677.726 822.591C662.417 821.983 647.702 820.75 632.502 819.864C616.808 818.98 601.103 818.298 585.391 817.818C571.695 817.281 554.975 816.357 541.356 817.272C511.399 817.661 480.775 819.826 450.921 818.958C411.625 817.815 372.721 818.884 333.465 820.763C330.308 820.914 326.68 821.057 323.555 821.484ZM353.04 630.417C366.202 630.911 379.369 631.254 392.539 631.445L413.513 631.914C417.867 632.134 422.226 632.246 426.586 632.248C450.227 633.199 474.088 633.922 497.75 634.166C509.863 634.291 529.169 635.301 540.723 634.441C551.627 635.375 569.786 635.077 581.05 635.009C609.76 634.837 638.824 634.515 667.547 634.053C652.096 623.25 630.91 611.768 614.371 602.152L545.328 561.475C538.928 557.735 532.494 554.055 526.026 550.437C516.467 545.181 510.059 542.714 501.728 535.439C492.987 539.712 483.214 546.334 474.33 551.225C433.017 573.969 388.911 599.638 353.04 630.417ZM505.803 556.439C518.52 566.115 604.386 613.03 606.895 618.288C606.877 619.576 606.863 620.478 605.889 621.437C601.344 625.912 548.817 626.316 538.464 626.68C536.68 626.671 534.452 626.591 532.713 626.781L534.33 627.344C525.727 631.393 498.736 628.148 487.778 628.918L487.585 630.566C487.163 630.658 486.691 630.792 486.277 630.808L486.169 630.223C484.364 628.751 484.016 628.778 481.691 628.148C462.996 628.046 444.549 628.699 425.887 628.378C420.77 628.29 414.448 628.647 409.524 628.344C407.282 627.956 397.917 627.716 395.113 627.613C392.964 626.907 389.626 625.062 390.861 621.963C391.905 619.932 395.21 618.095 397.087 616.902C413.117 606.71 430.412 598.04 447.063 588.947L505.803 556.439ZM584.42 789.351C589.091 789.665 606.015 790.101 610.363 789.263C612.197 787.806 611.807 769.273 611.818 765.754C611.891 752.874 611.803 739.993 611.555 727.115C611.268 704.95 611.728 680.599 610.81 658.548C601.949 658.343 592.316 658.16 583.48 658.733C585.363 672.719 585.143 684.517 584.602 698.594C583.446 728.646 586.871 759.429 584.42 789.351ZM361.65 660.264C358.148 660.331 354.478 660.345 350.994 660.511C350.604 666.42 350.935 671.421 350.82 677.237L349.812 727.719C349.26 746.99 346.822 772.132 347.749 790.927C352.662 791.005 359.318 790.919 364.083 791.395C367.982 791.278 371.807 791.383 375.705 791.452C376.542 769.747 375.914 745.5 376.054 723.629C376.188 707.556 376.433 691.485 376.787 675.416C376.925 670.473 377.466 665.5 377.558 660.628C372.559 659.801 366.753 660.075 361.65 660.264ZM634.345 789.056L641.3 788.919C643.73 788.746 646.438 788.489 648.849 788.43C649.763 783.588 649.538 776.07 649.663 770.893C650.02 758.247 650.147 745.596 650.045 732.946C650.001 710.117 650.819 680.068 649.307 657.698C646.124 657.678 642.617 657.585 639.468 657.765L633.95 658.178C634.836 681.824 634.968 707.011 634.564 730.649C634.281 747.149 638.071 773.776 634.345 789.056ZM565.776 789.122C567.014 787.486 566.788 781.04 565.585 779.314C564.699 782.249 565.433 785.51 565.405 788.811L565.776 789.122ZM298.417 863.059C301.66 863.444 303.239 863.582 306.505 863.541C311.623 864.281 323.125 863.473 328.661 863.242L374.035 861.116C393.356 860.349 413.427 861.1 432.834 861.03C499.858 860.789 567 865.1 634.005 864.499C650.264 864.353 669.615 865.43 685.654 864.002C686.082 858.843 686.508 848.03 684.98 843.244L684.24 842.499L683.209 842.757C670.451 843.481 657.636 843.639 644.963 844.386C598.698 847.113 552.132 849.546 505.768 849.922C468.192 850.061 430.615 849.908 393.042 849.464C386.009 849.405 378.986 849.003 371.963 848.994C348.898 849.167 325.836 849.564 302.779 850.186C301.587 854.896 300.137 858.542 298.417 863.059ZM513.567 743.796C513.228 746.377 512.866 747.698 513.466 750.244L514.207 750.703C514.896 747.531 515.611 746.483 513.567 743.796ZM495.465 661.108C484.602 660.84 474.103 660.454 463.22 660.428C461.906 665.159 463.81 679.367 463.382 685.42C462.054 704.21 462.084 723.217 461.196 742.029C460.43 758.262 459.284 774.818 460.142 791.064C469.796 790.925 484.153 791.251 493.377 790.69L494.351 790.646C495.125 788.725 495.08 785.799 495.098 783.698C495.454 742.88 494.253 701.888 495.465 661.108ZM664.382 794.791C656.823 795.479 649.382 796.096 641.8 796.522C624.044 797.522 606.217 796.637 588.494 797.001C536.339 798.018 484.177 798.518 432.013 798.5C415.485 798.492 398.957 798.399 382.429 798.221C374.831 798.088 337.735 795.893 334.343 799.595C333.305 803.235 333.494 808.992 333.494 812.879C335.649 813.078 337.94 813.334 340.085 813.476C346.045 812.697 352.197 812.868 358.197 812.514C391.754 810.538 425.061 811.348 458.584 811.521C472.667 811.677 486.751 811.642 500.833 811.416C523.769 810.834 544.33 809.659 567.562 809.976C591.443 810.388 615.314 811.256 639.162 812.58C647.931 813.064 657.972 814.277 666.457 814.54C666.337 809.984 666.221 798.761 665.288 794.813C664.5 794.701 664.789 794.614 664.382 794.791ZM444.088 755.37C444.415 758.127 444.555 763.052 446.991 764.68C446.519 762.781 445.227 756.284 444.088 755.37ZM337.802 652.446C354.918 654.032 378.022 652.303 396.009 652.573C448.074 653.356 500.06 654.178 552.118 652.116C571.116 651.364 589.244 650.894 608.257 650.902C623.675 650.909 641.656 649.53 656.945 651.299C657.877 651.344 658.968 651.624 659.446 651.081C661.075 649.232 660.733 644.565 661.17 641.751C648.557 641.162 635.355 641.438 622.694 641.517C593.159 641.704 563.618 641.702 534.084 641.896C469.608 642.32 404.765 638.214 340.394 638.494C338.237 644.676 337.906 645.916 337.802 652.446ZM385.839 760.141C385.634 761.362 385.614 763.128 384.889 763.671C382.758 765.268 383.257 766.16 383.06 768.97C386.593 767.222 388.08 763.55 385.839 760.141ZM442.478 719.667C442.412 722.587 442.147 727.071 442.674 729.795L443.279 730.236L444.13 729.524C444.734 727.139 446.286 722.686 444.949 720.752C444.447 720.027 443.492 719.974 442.478 719.667ZM399.887 790.911C406.926 791.579 418.824 791.175 427.03 791.582L429.825 791.475C429.92 791.238 430.53 768.189 430.485 765.882C429.809 730.645 433.008 695.241 432.148 660.035C422.674 660.005 412.5 659.564 403.277 659.616C402.429 665.894 402.496 675.739 402.261 682.481C401.275 710.708 402.522 739.288 401.284 767.539C400.976 774.582 401.382 784.566 399.887 790.911ZM527.334 659.755C526.888 665.542 527.695 671.487 527.486 677.314C526.6 701.974 525.872 726.665 525.672 751.351C525.619 757.932 526.618 783.408 524.95 787.83C524.75 788.361 524.599 788.91 524.424 789.451L524.987 790.336C530.798 790.844 550.777 790.595 556.875 790.18L558.073 790.016C559.053 786.448 556.786 782.186 556.77 778.503C556.633 748.108 556.146 717.724 556.574 687.321C556.703 678.152 558.029 668.782 557.563 659.668C550.086 659.622 533.909 660.295 527.334 659.755Z"/><path d="M436.265 487.422C436.648 487.563 437.03 487.71 437.408 487.863C445.592 491.201 444.093 502.133 444.39 509.376C444.642 515.512 444.021 522.104 437.639 524.427C433.993 523.823 433.146 523.204 430.439 520.688C427.184 511.398 425.956 492.638 436.265 487.422Z"/><path d="M534.652 489.88C545.777 490.998 543.196 507.699 542.467 515.581C542.162 518.875 540.536 522.567 537.713 524.465C526.985 523.59 528.828 503.441 528.911 495.341C530.892 492.426 531.531 491.506 534.652 489.88Z"/><path d="M487.064 489.413C489.284 489.618 491.741 490.262 492.731 492.512C496.17 500.332 497.919 517.055 489.143 521.829C480.233 523.2 480.37 512.79 480.528 506.601C480.702 499.832 480.576 493.209 487.064 489.413Z"/><path d="M584.909 490.317C594.815 491.95 592.705 501.551 592.638 509.529C592.593 514.901 592.194 522.08 587.05 524.919C579.761 525.491 579.136 517.857 579.278 512.429C579.484 504.504 578.994 496.309 584.909 490.317Z"/><path d="M395.113 627.613C392.964 626.907 389.626 625.062 390.861 621.963C391.905 619.932 395.21 618.095 397.087 616.902C413.117 606.71 430.412 598.04 447.063 588.947L505.803 556.439C518.52 566.115 604.386 613.03 606.895 618.288C606.877 619.576 606.863 620.478 605.889 621.437C601.344 625.912 548.817 626.316 538.464 626.68C536.68 626.671 534.452 626.591 532.713 626.781L534.33 627.344C525.727 631.393 498.736 628.148 487.778 628.918L487.585 630.566C487.163 630.658 486.691 630.792 486.277 630.808L486.169 630.223C484.364 628.751 484.016 628.778 481.691 628.148C462.996 628.046 444.549 628.699 425.887 628.378C420.77 628.29 414.448 628.647 409.524 628.344C407.282 627.956 397.917 627.716 395.113 627.613ZM497.125 620.135L542.129 619.056C555.14 618.817 579.929 618.228 592.991 616.302C576.394 607.388 559.948 598.198 543.658 588.736C530.504 581.201 517.641 574.707 505.912 564.99C505.355 564.529 505.355 564.645 504.501 564.402C474.221 581.111 444.949 599.262 414.04 614.828C412.517 615.595 409.975 617.454 408.993 618.777L409.245 619.86C413.576 621.056 431.644 621.035 436.57 621.035C456.758 621.043 476.945 620.743 497.125 620.135Z"/><path fill="#FEFEFE" d="M481.691 628.148C497.591 627.221 516.497 627.264 532.713 626.781L534.33 627.344C525.727 631.393 498.736 628.148 487.778 628.918L487.585 630.566C487.163 630.658 486.691 630.792 486.277 630.808L486.169 630.223C484.364 628.751 484.016 628.778 481.691 628.148Z"/><defs><linearGradient id="gradient_0" gradientUnits="userSpaceOnUse" x1="513.59015" y1="623.74634" x2="507.80154" y2="639.39856"><stop offset="0" stop-color="white" stop-opacity="0.86666667"/><stop offset="1" stop-color="white"/></linearGradient></defs><path fill="url(#gradient_0)" d="M532.713 626.781C534.452 626.591 536.68 626.671 538.464 626.68C537.529 627.877 537.02 628.299 536.795 629.806C537.8 632.423 539.154 632.171 540.723 634.441C529.169 635.301 509.863 634.291 497.75 634.166C474.088 633.922 450.227 633.199 426.586 632.248C443.535 628.948 458.972 632.699 476.005 631.656C479.374 631.45 482.994 630.857 486.277 630.808C486.691 630.792 487.163 630.658 487.585 630.566L487.778 628.918C498.736 628.148 525.727 631.393 534.33 627.344L532.713 626.781Z"/><path fill="#FEFEFE" fill-opacity="0.098039217" d="M409.524 628.344C414.448 628.647 420.77 628.29 425.887 628.378C444.549 628.699 462.996 628.046 481.691 628.148C484.016 628.778 484.364 628.751 486.169 630.223L486.277 630.808C482.994 630.857 479.374 631.45 476.005 631.656C458.972 632.699 443.535 628.948 426.586 632.248C422.226 632.246 417.867 632.134 413.513 631.914C411.541 631.744 410.417 631.755 408.568 631.11L408.297 630.274L409.524 628.344Z"/><path fill="#FEFEFE" fill-opacity="0.47450981" d="M395.113 627.613C397.917 627.716 407.282 627.956 409.524 628.344L408.297 630.274L408.568 631.11C410.417 631.755 411.541 631.744 413.513 631.914L392.539 631.445C395.13 630.497 394.793 630.032 395.113 627.613Z"/><path fill="#131313" fill-opacity="0.98823529" d="M385.839 760.141C388.08 763.55 386.593 767.222 383.06 768.97C383.257 766.16 382.758 765.268 384.889 763.671C385.614 763.128 385.634 761.362 385.839 760.141Z"/><path fill="#707277" d="M512.09 762.821L512.636 763.571C512.874 767.769 512.512 771.473 511.69 775.568L511.389 775.274C511.07 772.6 511.596 765.429 512.09 762.821Z"/><path fill="#C0BBC5" fill-opacity="0.15294118" d="M565.585 779.314C566.788 781.04 567.014 787.486 565.776 789.122L565.405 788.811C565.433 785.51 564.699 782.249 565.585 779.314Z"/><path fill="#FEFEFE" fill-opacity="0.023529412" d="M513.567 743.796C515.611 746.483 514.896 747.531 514.207 750.703L513.466 750.244C512.866 747.698 513.228 746.377 513.567 743.796Z"/><path fill="#707277" fill-opacity="0.98823529" d="M444.088 755.37C445.227 756.284 446.519 762.781 446.991 764.68C444.555 763.052 444.415 758.127 444.088 755.37Z"/><path fill="#707277" d="M406.405 577.034C406.725 577.327 406.533 577.103 406.724 577.857C405.384 579.211 403.452 579.64 401.601 580.266C401.18 579.766 401.313 580.072 401.307 579.31C403.595 578.645 404.424 578.347 406.405 577.034Z"/><path fill="#131313" d="M408.11 551.872L408.698 552.167C408.475 553.518 407.039 554.528 405.885 555.689L405.418 555.525L405.246 554.965C406.466 553.783 407.017 553.178 408.11 551.872Z"/><path d="M252.904 559.248C256.474 559.221 260.045 559.22 263.616 559.244C266.988 559.28 272.719 559.319 274.98 562.213C277.94 566.001 273.645 567.518 272.423 570.503C271.866 571.862 272.413 599.174 272.498 602.741C273.214 636.177 274.454 669.599 276.216 702.996C277.112 721.031 279.078 739.207 278.797 757.309C278.766 759.273 275.938 760.909 274.564 761.875C271.599 762.102 268.529 762.51 265.553 762.81C235.5 766.176 204.076 763.401 174.177 767.469C142.168 771.825 111.369 772.155 79.1437 771.993C68.8927 771.941 55.9797 771.427 45.9125 772.876C40.1509 773.274 28.0593 776.018 27.0359 767.846C27.447 765.934 28.6533 765.571 29.7424 764.171C32.6982 760.371 27.397 655.24 26.995 640.816C26.411 619.86 27.1162 598.975 25.6972 578.015L25.1609 577.607C22.3442 575.434 19.3143 571.734 22.3939 568.707C24.8887 566.254 33.4398 568.427 37.1035 568.138C56.933 566.854 76.9301 565.035 96.7762 564.19C110.857 563.591 125.241 563.905 139.394 563.445L252.904 559.248ZM38.1752 765.534C46.6149 766.212 59.3019 764.533 68.7513 764.42C89.9919 764.165 111.364 764.388 132.561 763.597C150.453 762.93 168.86 759.653 186.503 758.681C206.908 757.557 227.97 757.916 248.418 756.901C255.705 756.54 263.971 756.374 271.125 755.386C272.202 745.126 269.394 718.774 268.798 707.496C267.547 679.132 265.664 650.542 265.344 622.134C265.155 605.393 263.495 583.889 265.121 567.515C248.208 568.565 230.145 568.314 212.999 568.877C152.503 570.865 93.8357 571.201 33.4115 575.722C33.6682 602.393 35.0349 629.769 35.0968 656.61C33.3913 659.21 33.9498 703.944 36.9063 707.268C38.9705 725.047 37.1872 747.465 38.1752 765.534Z"/><path d="M149.794 611.198C156.199 610.56 169.481 608.97 170.703 617.862C172.044 627.62 171.625 637.755 172.245 647.683C177.81 646.459 192.246 644.734 197.247 647.314C201.359 652.428 201.481 679.122 198.329 685.243C196.787 688.237 178.174 688.309 173.796 688.613C171.72 727.38 181.84 716.86 143.121 720.89C138.177 721.407 125.512 723.414 124.841 715.417C124.151 707.192 124.908 698.952 124.14 690.568C117.299 690.247 102.094 693.004 97.4518 690.415C92.9663 687.914 92.9464 655.728 96.2744 651.758C99.8636 647.476 116.74 647.642 122.312 647.133C123.96 614.214 110.646 614.043 149.794 611.198Z"/><path fill="#131313" fill-opacity="0.95294118" d="M35.0968 656.61C35.7323 658.465 35.5693 669.922 35.593 672.737C35.6558 680.913 35.8765 689.087 36.2549 697.254C36.3659 699.775 36.97 705.293 36.9063 707.268C33.9498 703.944 33.3913 659.21 35.0968 656.61Z"/><path d="M997.596 557.757C1007.06 556.594 1005.85 564.166 1002.2 569.8C1001.99 587.109 1002.8 604.214 1003.36 621.502C1003.61 629.208 1003.56 636.912 1003.85 644.621C1004.36 657.729 1011.3 756.047 1007.66 760.651C1006.29 762.383 1004.58 762.841 1002.46 763.116C996.448 763.897 990.099 763.877 984.024 764.195C964.408 765.221 944.793 765.191 925.176 765.941C903.004 766.789 880.958 769.748 858.735 770.38C850.059 770.626 841.349 770.988 832.669 770.877C815.979 770.663 798.931 769.753 782.274 770.7C778.205 770.931 774.248 771.757 770.196 772.126C764.161 769.043 762.212 765.394 767.468 760.287C766.946 728.139 765.627 693.378 764.354 661.308C763.91 650.127 763.848 581.336 761.464 575.651C758.849 574.846 755.636 574.213 756.185 570.591C756.771 566.719 759.766 565.509 763.375 566.211C769.224 567.358 775.468 566.546 781.376 566.058C804.533 564.143 827.815 563.227 851.028 562.212C857.275 561.939 863.583 562.107 869.843 561.848L954.047 558.204C967.225 557.67 985.172 558.694 997.025 557.804L997.596 557.757ZM769.638 575.423L773.424 702.546L774.171 741.352C774.296 746.775 774.363 757.286 775.176 762.336C786.628 763.779 798.015 763.328 809.545 763.512C832.238 763.524 854.559 763.828 877.225 762.242C892.153 761.197 906.849 759.168 921.796 758.573L971.503 757.051C980.752 756.697 991.357 756.675 1000.47 755.307C1001.55 747.425 1000.85 735.655 1000.71 727.502C1000.3 704.194 997.823 680.994 996.818 657.676C996.063 639.892 995.487 622.101 995.093 604.306C994.92 591.874 995.322 578.553 994.442 566.247C986.88 566.013 979.315 565.882 971.75 565.854C968.779 565.835 963.296 566.014 960.533 565.773C938.539 566.367 916.548 567.119 894.564 568.029C876.439 568.645 779.674 570.737 769.638 575.423Z"/><path d="M870.014 585.681C912.621 580.771 951.115 611.398 955.905 654.019C960.695 696.64 929.959 735.047 887.325 739.717C844.86 744.368 806.639 713.781 801.868 671.33C797.097 628.879 827.576 590.571 870.014 585.681ZM918.361 689.317C923.814 692.6 931.498 698.149 936.313 700.775C937.757 698.9 939.43 696.93 940.475 694.84C944.614 686.446 949.367 672.353 948.784 662.899C942.048 662.093 928.472 662.47 921.161 662.47C919.795 671.05 919.843 679.885 918.361 689.317ZM808.072 665.524C807.6 673.257 810.483 693.413 818.204 696.864C821.235 696.138 834.205 690.032 838.741 688.245C836.718 677.962 836.742 674.502 835.898 664.575C833.565 664.583 831.09 664.534 828.777 664.715C821.211 665.3 815.714 665.51 808.072 665.524ZM882.522 663.516C882.165 668.196 882.137 672.577 882.081 677.259C890.029 678.753 893.775 678.663 902.121 680.837C906.081 682.221 907.964 683.499 911.497 684.976C913.476 678.388 913.673 669.885 913.394 663.043C907.463 662.793 901.5 663.082 895.563 663.273C891.218 663.418 886.87 663.498 882.522 663.516ZM848.395 663.148L843.528 664.177C843.168 671.372 843.786 678.474 845.853 685.396C852.266 683.015 858.256 680.513 864.865 678.731C868.683 678.145 871.093 678.005 874.999 677.96L874.958 663.492C868.705 663.525 854.213 663.948 848.395 663.148ZM821.421 704.342C828.52 713.838 837.715 719.91 848.268 725.033C853.172 727.072 855.918 728.103 861.167 729.078C854.452 724.583 844.094 704.631 840.957 697.006C840.611 696.164 840.012 696.078 839.303 696.002C834.603 698.039 825.662 701.755 821.421 704.342ZM931.175 707.648C926.245 703.463 920.635 700.583 915.453 696.816C911.562 708.119 905.428 718.52 897.419 727.394C901.874 726.071 904.802 724.976 909.125 723.22C917.171 719.653 925.318 714.27 931.175 707.648ZM825.761 619.1C828.836 621.574 830.234 622.531 833.634 624.541C836.512 626.22 839.356 627.956 842.164 629.75C846.888 618.744 852.359 605.941 860.953 597.304C859.932 597.019 860.218 597.04 859.85 597.057C846.335 599.627 834.028 608.251 825.761 619.1ZM912.985 654.957C912.722 650.595 912.978 646.011 910.648 642.452C908.98 641.648 909.265 641.953 907.096 642.168C898.52 643.593 891.24 644.253 882.55 644.899C882.177 648.762 881.833 651.591 882.415 655.487L888.185 655.525C897.729 654.726 903.859 655.128 912.985 654.957ZM857.374 634.173C863.601 636.341 868.218 637.279 874.909 636.675C874.915 631.328 876.545 600.478 874.595 598.246C873.231 597.848 873.314 597.851 871.899 597.952C860.622 606.064 854.64 619.353 849.123 631.646C851.943 632.631 854.439 633.579 857.374 634.173ZM909.225 693.098C898.366 687.928 895.465 686.745 883.278 684.981C881.934 690.869 881.394 723.859 883.426 728.775C887.086 728.891 893.58 721.264 895.892 718.434C902.127 709.466 904.866 702.963 909.225 693.098ZM905.018 635.177L907.447 634.598C907.826 633.901 907.888 633.949 907.448 632.755C903.492 622.029 894.956 606.14 887.119 598.343L881.498 596.825C881.998 604.822 882.346 612.856 882.58 620.866C882.736 626.226 882.306 632.13 882.611 637.412C889.104 637.419 898.46 636.071 905.018 635.177ZM874.894 644.929C868.637 643.983 853.136 641.69 847.378 639.506C846.263 643 843.302 651.805 844.447 655.114C846.404 655.615 869.002 655.471 873.124 655.572L874.441 655.319C875.481 653.264 874.999 647.445 874.894 644.929ZM933.222 617.435C924.996 607.445 909.106 597.226 896.414 595.236C897.834 599.249 903.873 607.52 906.246 611.818C907.943 614.892 914.143 628.546 915.687 630.199C919.597 631.253 924.088 626.544 926.856 624.164C928.93 622.125 931.556 619.748 933.222 617.435ZM835.78 656.373C837.118 649.329 838.084 644.009 840.321 637.132C832.296 632.977 828.421 630.443 821.25 625.24C817.75 629.822 804.638 652.108 809.186 656.909C813.372 658.24 821.672 656.865 826.8 657.026C830.34 656.978 832.291 656.999 835.78 656.373ZM863.621 719.24C867.78 723.916 868.762 725.033 874.25 728.088C875.429 722.507 875.186 691.689 874.612 685.441L869.798 685.671C861.127 686.932 855.575 689.423 847.778 693.13C852.816 704.26 854.856 709.39 863.621 719.24ZM937.958 622.992L937.571 623.484C933.544 628.533 924.189 636.387 918.45 638.554C917.563 640.467 919.951 652.04 920.256 655.571C923.167 655.492 926.603 655.309 929.469 655.34C935.341 655.491 942.917 655.926 948.638 655.801C947.085 644.833 944.832 632.054 937.958 622.992Z"/><path d="M95.3166 168.655C85.8592 162.368 91.2454 155.421 100.801 158.423C101.954 158.785 106.982 158.496 108.395 158.428L266.175 151.919L306.242 150.358C310.9 150.182 329.313 147.792 330.797 153.625C331.739 157.328 329.793 165.838 329.67 169.99C329.572 173.335 329.619 177.256 329.572 180.63C329.481 192.089 329.691 203.549 330.201 214.997C330.481 221.568 331.121 228.371 331.055 234.896C332.345 242.259 331.411 258.8 332.506 268.173C332.587 268.38 332.693 268.578 332.75 268.792C334.296 274.625 333.673 282.308 334.071 288.463C334.707 298.297 339.193 339.583 333.211 346.144C331.847 347.64 328.327 347.9 326.446 348.019C317.183 348.603 307.894 348.35 298.62 348.463C286.514 348.611 274.306 349.09 262.217 349.762C237.522 351.135 212.95 354.322 188.19 354.979C177.292 355.268 166.381 354.559 155.478 354.57C143.851 354.581 132.137 355.38 120.535 356.133C116.087 356.421 111.149 355.879 106.84 356.686C106.401 356.769 105.967 356.878 105.523 356.932C103.883 357.142 102.231 356.654 100.967 355.587C99.3091 354.212 98.5443 351.947 98.4295 349.845C99.5171 345.78 102.352 349.065 101.964 341.044C101.514 331.773 101.11 322.345 100.693 313.062C99.6771 293.218 98.912 273.362 98.398 253.499C97.7329 228.387 99.008 192.294 95.3166 168.655ZM110.445 347.896C116.151 348.164 121.189 347.953 126.875 347.713C145.482 346.219 163.415 347.49 181.9 347.394C207.984 347.259 234.295 343.586 260.301 342.232C274.682 341.521 289.07 340.957 303.463 340.54C310.462 340.358 319.762 340.533 326.517 339.999C328.763 334.839 328.981 325.522 328.746 319.716C326.571 265.957 320.865 212.474 322.522 158.56C317.957 158.387 311.867 158.351 307.237 158.708C274.715 160.41 241.872 160.825 209.314 161.594C174.198 162.424 137.738 162.172 102.894 166.752C107.036 186.217 105.881 211.257 105.979 231.291C106.051 245.849 106.724 258.707 107.39 273.253C108.132 289.462 107.574 305.617 109.162 321.982C109.952 330.119 109.118 339.571 110.445 347.896Z"/><path d="M272.332 196.662C275.635 196.166 280.366 197.133 280.313 201.211C280.106 217.064 281.026 232.994 281.002 248.814C284.705 249.529 289.346 249.76 289.681 254.561C287.764 258.184 284.811 257.265 281.416 256.675C281.158 271.785 283.273 288.34 281.838 303.612C281.55 304.775 281.453 307.021 279.987 307.367C271.942 309.268 261.843 308.361 253.575 308.575C230.492 309.189 207.204 309.788 184.163 311.218C176.102 311.719 149.759 311.478 144.245 315.54C135.491 319.089 124.178 308.12 136.443 305.488C138.607 288.058 137.475 270.689 136.831 253.217C136.526 244.943 136.709 236.608 136.264 228.349C135.914 221.854 132.391 213.998 133.541 207.674C133.723 206.674 134.16 205.703 135.073 205.199C136.994 204.139 139.272 204.97 141.216 205.592C149.739 208.319 189.634 203.513 201.751 202.658C225.258 200.999 249.088 201.144 272.332 196.662ZM143.138 213.809C144.445 228.739 142.965 241.128 145.818 256.635C152.289 253.473 157.322 250.98 164.249 248.821C166.425 249.489 168.687 250.11 170.768 251.012C181.203 255.12 192.886 259.835 203.947 262.238C206.072 262.7 210.088 262.592 212.395 262.814L234.09 233.952C233.968 231.199 233.691 227.947 235.889 225.961C241.257 221.111 247.801 230.233 251.75 232.623C258.858 236.924 266.113 242.821 273.418 246.162C273.644 238.724 273.284 230.403 273.157 222.934C273.106 219.918 273.607 207.066 273.174 205.179C272.551 205.157 272.366 205.073 271.812 205.246C253.019 206.46 234.366 208.324 215.521 208.956C207.831 209.214 199.766 210.905 192.036 211.205C175.562 211.997 159.626 212.53 143.138 213.809ZM227.731 255.641C241.593 263.148 255.065 271.25 269.59 277.302C272.483 278.508 273.838 283.662 270.221 285.173C257.972 283.483 233.783 264.585 222.293 263.313C220.429 271.547 217.782 276.116 208.134 273.791L207.591 273.655C202.283 278.357 198.864 283.39 194.773 289.12C192.948 291.676 187.661 299.775 184.711 300.088C180.288 298.377 171.137 289.23 167.306 285.59C165.193 283.548 163.128 281.441 160.816 279.635C156.807 284.56 149.721 294.643 145.984 300.152C146.074 302.077 146.176 304.001 146.291 305.924C173.435 304.249 200.607 303.048 227.793 302.323C237.262 302.024 266.91 301.643 274.741 299.814C275.884 295.288 274.261 261.477 273.828 255.437C263.888 249.122 253.834 242.986 243.672 237.034C238.58 241.811 231.46 249.576 227.731 255.641ZM201.312 269.482C194.138 267.233 187.009 264.843 179.929 262.313C176.292 260.974 166.713 257.014 163.35 256.464C157.833 259.239 151.328 262.435 145.58 264.683C145.524 271.587 145.198 280.986 145.817 287.655C160.977 267.035 157.247 266.321 175.686 282.301C178.353 284.809 181.824 287.339 184.769 289.6C189.834 282.71 194.808 274.867 201.312 269.482Z"/><path d="M175.668 228.43C179.239 230.047 188.638 236.401 189.224 240.445C185.981 239.577 176.138 232.061 175.668 228.43Z"/><path fill="#131313" fill-opacity="0.95294118" d="M162.514 231.769C165.741 232.243 173.1 237.785 174.543 240.582C169.618 240.094 164.344 236.428 162.514 231.769Z"/><path d="M219.886 287.179C223.787 287.72 225.768 290.555 226.346 294.263C222.912 293.629 220.937 290.254 219.886 287.179Z"/><path fill="#131313" fill-opacity="0.94117647" d="M230.837 285.833C233.588 287.361 236.09 290.462 235.705 293.717C233.374 291.919 231.294 290.007 230.162 287.268L230.837 285.833Z"/><path fill="#131313" fill-opacity="0.89411765" d="M242.258 286.73C245.741 288.018 245.969 290.178 245.93 293.548C243.546 292.089 242.125 289.485 242.258 286.73Z"/><path d="M704.189 149.371C706.732 149.715 708.568 151.394 710.994 151.414C726.553 151.544 742.177 150.252 757.76 150.49L879.745 153.552C894.455 153.885 920.349 152.06 933.437 156.185C935.168 156.73 936.967 157.632 937.633 159.46C938.116 160.784 934.04 184.391 933.848 188.37C933.294 199.829 933.497 211.288 933.118 222.744C932.889 229.687 932.223 236.577 932.13 243.534C931.922 259.179 933.589 340.337 928.476 349.339C927.49 351.075 926.279 351.448 924.483 351.909C911.559 352.557 898.573 350.985 885.649 350.789C877.469 350.56 869.248 350.518 861.072 350.136C844.428 349.36 827.835 350.314 811.185 350.725C774.095 351.64 737.538 345.554 700.374 347.145C699.161 347.197 696.402 346.043 695.644 344.97C693.116 341.019 696.168 338.535 698.972 336.611C700.651 290.002 697.507 243.706 702.544 197.204C703.74 186.163 702.869 171.346 702.729 160.065C697.955 155.725 698.428 152.362 704.189 149.371ZM711.956 159.135C712.464 182.947 709.672 209.781 708.354 231.696C707.666 243.13 706.91 338.392 707.739 339.788C713.312 340.687 720.14 340.345 725.862 340.337C758.913 340.292 791.914 345.299 825.031 343.016C852.041 341.155 878.752 344.075 905.625 344.22C911.254 344.407 916.872 344.728 922.481 344.17C926.583 299.2 922.768 253.572 925.261 208.395C926.169 191.937 925.487 182.964 928.64 166.541C919.496 165.018 909.893 164.99 900.652 164.062C871.188 161.104 841.563 161.308 811.984 159.914C800.51 159.373 788.994 158.531 777.536 158.114C767.538 157.841 757.536 157.783 747.535 157.94C742.076 157.973 733.048 157.776 727.741 158.25C723.187 158.533 716.093 158.482 711.956 159.135Z"/><path d="M798.728 247.531C805.982 240.017 857.976 202.577 859.493 198.856C856.404 196.748 841.502 200.373 845.502 191.497C849.676 187.488 860.465 190.619 865.837 190.544C869.073 190.53 876.611 192.823 875.278 197.363C872.987 205.164 868.64 212.625 865.576 220.316C863.698 225.031 862.165 234.169 856.218 233.267C851.153 229.121 859.887 215.164 861.719 208.796C845.675 219.421 830.995 232.591 815.146 243.608C810.318 247.227 806.063 251.675 801.066 255.052C797.894 257.195 795.713 256.677 793.766 253.428C787.437 242.87 781.515 232.048 775.12 221.52C773.317 218.551 770.341 214.432 768.944 211.409C758.691 211.658 749.293 213.439 739.052 213.867C738.938 221.809 739.463 229.483 739.504 237.387C739.603 256.691 739.004 279.39 740.096 298.424C744.764 298.964 748.625 298.976 753.3 299.037L753.343 298.29C753.836 288.895 749.916 247.727 753.609 243.681C757.182 242.75 759.973 247.516 759.99 250.162C760.092 266.182 760.333 283.481 760.622 299.412C762.489 299.709 764.005 300.183 765.74 299.571C766.638 290.59 768.139 283.358 768.025 274.317C768.903 271.13 769.229 271.184 769.404 267.671L769.43 267.054C769.597 268.9 769.658 272.048 770.395 273.541L771.033 273.003L771.137 270.825L771.44 271.219L771.449 272.145L772.27 272.398C773.694 280.895 772.408 291.772 773.514 300.402C777.994 300.667 783.169 301.146 787.579 300.997C787.139 295.488 784.201 269.791 786.779 266.753C788.386 266.233 788.294 266.185 789.952 266.34C792.648 268.066 792.801 272.036 792.963 274.951C793.456 283.782 793.889 292.597 794.047 301.442C799.084 301.479 805.547 301.689 810.459 301.474C810.373 295.689 808.233 272.449 810.165 268.588C811.961 267.169 815.455 267.168 815.679 269.437C816.709 279.867 817.529 291.229 817.556 301.734C822.479 302.208 827.433 302.267 832.365 301.912C832.919 292.545 831.752 282.185 831.399 272.753C831.185 267.048 829.84 260.392 831.196 254.931C832.133 254.119 832.672 253.699 834.014 253.698C835.273 253.698 836.085 254.357 836.75 255.352C838.257 257.609 839.868 296.031 840.113 302.03L847.024 302.069C847.413 288.435 847.541 274.653 847.657 261.012C847.675 258.874 848.732 257.383 850.925 256.962C857.221 259.702 854.638 294.558 854.544 301.843C858.069 301.873 860.972 301.84 864.486 301.63C864.533 292.643 864.951 283.736 864.883 274.76C864.852 270.614 863.535 261.347 870.079 262.284C877.144 266.681 869.319 294.663 872.757 301.411C877.703 302.106 885.661 300.578 888.881 303.959C891.067 310.518 881.676 309.887 877.773 309.891C835.187 309.934 793.006 310.239 750.498 306.821C728.564 305.057 733.306 310.478 732.202 286.979C730.834 257.889 731.849 228.914 730.495 199.833C730.352 196.775 731.015 192.064 734.189 190.821C740.778 191.786 738.626 201.49 739.076 206.647C747.839 205.291 764.112 203.655 772.849 204.011C778.177 211.925 783.198 220.041 787.9 228.342C791.051 233.971 795.303 242.454 798.728 247.531Z"/><defs><linearGradient id="gradient_1" gradientUnits="userSpaceOnUse" x1="770.20294" y1="244.95946" x2="763.13074" y2="241.79491"><stop offset="0" stop-color="black" stop-opacity="0.89411765"/><stop offset="1" stop-color="black" stop-opacity="0.98431373"/></linearGradient></defs><path fill="url(#gradient_1)" d="M767.189 251.856C766.222 251.356 765.116 251.114 764.968 249.904C764.421 245.426 762.451 236.556 767.205 233.924C773.685 234.203 770.706 242.458 771.326 246.434C771.644 248.474 771.381 251.327 770.596 253.223C769.884 252.45 769.288 251.521 768.675 250.653C767.71 251.521 768.206 251.121 767.189 251.856Z"/><path fill="#131313" fill-opacity="0.84705883" d="M767.189 251.856C768.206 251.121 767.71 251.521 768.675 250.653C769.288 251.521 769.884 252.45 770.596 253.223C766.477 258.42 772.919 265.775 772.27 272.398L771.449 272.145L771.44 271.219L771.137 270.825L771.033 273.003L770.395 273.541C769.658 272.048 769.597 268.9 769.43 267.054L769.404 267.671C769.229 271.184 768.903 271.13 768.025 274.317C768.052 269.51 766.646 254.876 767.189 251.856Z"/><path fill="#131313" fill-opacity="0.94901961" d="M688.909 871.697C689.047 871.107 689.292 870.007 689.664 869.573C694.811 863.554 690.388 851.252 693.012 845.713C693.373 851.36 695.075 865.026 691.727 869.808C691.071 870.745 689.94 871.213 688.909 871.697Z"/></svg>