<?xml version="1.0" encoding="utf-8" ?><svg xmlns="http://www.w3.org/2000/svg" xmlns:xlink="http://www.w3.org/1999/xlink" width="1024" height="1024" viewBox="0 0 1024 1024"><path fill="#2B2B2B" d="M497.253 81.6981C498.46 81.6046 499.669 81.5504 500.879 81.5357C552.464 81.0735 625.483 101.191 663.018 138.305C675.419 150.566 679.333 157.371 688.551 170.842C713.115 206.743 719.798 226.133 720.318 268.861C759.093 313.445 795.273 366.147 819.265 420.272C826.37 436.302 831.746 452.838 836.784 469.602C849.898 453.215 858.169 432.638 867.319 414.09C868.314 412.073 872.197 413.311 873.624 414.958C875.231 422.686 842.406 480.905 833.426 483.413C832.366 483.089 831.419 482.68 831.129 481.391C815.15 410.332 775.004 349.75 730.259 293.197C726.34 288.563 724.174 285.045 719.695 280.322C718.669 284.063 717.958 290.685 717.265 294.792C715.94 302.491 714.318 310.137 712.403 317.712C702.083 357.92 680.45 397.889 653.111 429.082C624.131 462.147 587.547 478.622 543.95 481.368C524.151 482.615 504.925 481.083 485.334 478.084C438.185 470.868 399.662 455.87 363.551 423.928C324.405 389.301 309.536 352.534 306.513 301.052C304.299 263.356 310.05 224.061 324.144 188.95C326.77 182.406 329.494 175.701 333.119 169.644C336.244 164.422 340.044 159.713 344.087 155.18C382.266 112.365 440.041 85.0511 497.253 81.6981ZM527.645 470.126C587.287 469.289 623.196 451.673 658.048 402.712C688.334 360.165 708.008 312.9 708.006 259.792C707.855 227.555 695.721 202.348 678.017 176.394C671.83 166.844 666.028 157.96 657.763 149.958C623.565 116.846 575.619 100.903 529.158 95.5657C520.247 94.5421 508.037 93.004 499.158 93.7007C443.728 97.3467 388.712 122.898 351.782 164.79C342.1 175.773 339.638 183.51 334.416 196.446C318.088 236.892 316.771 274.939 319.961 317.806C322.955 358.041 343.536 390.512 373.427 416.634C416.046 453.878 471.725 470.189 527.645 470.126Z"/><path fill="#2B2B2B" d="M509.61 139.347C513.623 139.28 533.054 151.759 538.799 154.662C549.195 159.812 559.938 164.23 570.949 167.882C600.517 177.413 622.737 178.712 653.218 177.565C651.369 211.645 648.588 242.907 641.094 276.457C636.794 295.008 631.846 313.402 626.259 331.607C624.732 336.611 617.857 356.199 617.648 359.873C617.063 370.172 617.956 388.085 618.599 398.582C629.586 396.595 629.334 397.313 629.82 408.234C616.578 407.502 591.581 409.958 577.482 410.942L511.338 414.937C489.166 415.905 466.671 417.326 444.5 418.604C432.313 419.306 417.997 419.962 406.059 421.246C405.76 419.371 405.224 417.607 406.003 415.946C408.154 413.68 413.99 414.462 418.03 414.18C417.894 403.925 416.463 392.3 415.775 381.929C414.472 375.228 415.443 363.99 413.395 357.67C409.885 346.839 404.921 335.473 401.647 324.474C389.523 283.744 373.227 233.86 372.98 191.337C383.805 189.952 393.152 190.174 404.638 188.148C440.952 181.743 482.096 164.041 509.61 139.347ZM479.555 410.614C487.473 409.764 495.449 409.558 503.381 408.934C502.808 395.848 502.101 380.127 501.073 367.144C498.852 367.392 496.595 367.896 494.539 367.237C493.272 365.94 493.727 366.709 493.371 364.727C495.351 360.722 504.349 360.79 508.496 360.735C515.305 360.646 529.629 357.751 535.64 360.361C536.866 361.797 536.623 361.014 536.918 362.647C535.705 364.345 534.327 364.549 532.178 365.172C531.814 372.399 533.722 399.59 534.502 407.045C544.578 406.016 555.025 406.173 565.052 405.176C564.996 386.748 562.923 367.95 562.327 349.513C562.235 346.673 562.062 343.789 561.852 340.956C561.955 338.38 561.875 337.204 561.604 334.632L561.712 333.787C560.402 313.48 560.009 289.487 559.38 268.992C559.409 266.738 559.316 265.235 559.118 262.985C558.859 249.266 558.894 229.768 557.175 216.598C530.908 214.876 505.438 215.572 479.227 217.701C475.415 218.011 472.077 218.372 468.385 219.389C468.598 244.104 470.088 273.396 472.508 298.196C472.857 303.55 473.155 308.907 473.4 314.267C473.514 317.473 473.415 323.349 473.916 326.26C475.396 354.319 477.784 382.484 479.555 410.614ZM586.507 293.551C589.755 293.486 593.216 293.477 596.442 293.318C596.481 294.815 596.462 298.61 596.797 299.854C597.365 305.601 592.374 305.704 588.354 303.701C587.246 301.979 587.606 302.095 587.439 299.744L586.507 293.551ZM480.652 299.465L486.976 298.98C489.601 299.04 489.054 298.614 490.56 299.987C491.645 303.097 490.267 305.781 491.784 308.074C494.413 309.261 496.016 311.457 495.884 314.356C494.863 316.147 495.559 315.518 493.81 316.407L491.446 316.195L490.671 314.657C490.564 312.795 490.622 312.716 490.951 310.965C487.442 310.78 484.49 310.775 481.027 311.678C481.239 309.029 480.757 302.568 480.652 299.465ZM603.732 285.648C600.625 285.838 597.705 286.055 594.589 285.986C594.479 283.754 594.428 280.769 594.127 278.622L593.891 274.692C596.835 274.405 600.171 273.664 602.742 274.607C603.841 275.915 603.477 275.789 603.622 277.919C603.655 280.467 603.656 283.109 603.732 285.648ZM531.216 226.433C531.43 230.06 531.578 234.39 532.061 237.923C530.834 238.052 530.61 238.097 529.433 237.874L528.601 237.709L527.781 238.337L527.936 238.828C529.257 239.656 529.34 239.632 530.347 240.785C530.459 243.365 529.211 245.719 526.737 246.695C524.848 246.446 524.587 246.495 522.971 245.381C522.027 243.953 522.32 242.665 522.468 241.009C522.891 236.288 519.733 240.061 517.237 237.663L516.967 227.617C521.699 227.031 526.453 226.636 531.216 226.433ZM489.451 323.369C490.921 324.003 490.358 323.512 491.175 324.918L491.381 328.086L491.435 333.042L485.161 333.526C485.079 330.289 484.125 327.519 484.924 324.675C486.157 323.298 486.036 323.724 488.37 323.32L489.451 323.369ZM539.311 259.437L538.391 247.915C540.614 247.41 545.863 246.983 548.671 246.538C549.842 247.152 549.446 246.685 549.863 247.935C550.095 251.601 550.5 256.076 550.518 259.689C546.975 259.285 542.919 259.416 539.311 259.437ZM607.91 265.292C603.051 264.941 595.909 265.456 590.98 265.796L582.016 266.289L581.119 266.465C575.907 266.573 570.696 266.764 565.49 267.038L565.651 275.453C565.752 280.34 565.706 293.928 566.273 298.228C566.337 299.522 566.623 307.794 566.759 308.416C566.998 311.742 567.282 315.065 567.611 318.384C567.655 322.414 567.523 331.477 567.953 335.011C568.895 357.105 569.102 382.886 571.288 404.667L578.72 403.913C578.002 398.173 575.753 386.385 575.607 381.658L576.027 381.157L578.443 381.254C579.669 383.227 581.078 399.728 581.655 403.607L591.102 402.971C590.71 397.412 589.147 384.906 590.557 380.535L591.441 379.679C592.802 379.979 592.243 379.654 593.181 380.676C594.187 386.466 594.01 396.269 594.531 402.813C597.418 402.624 601.822 402.457 604.556 401.976C604.469 396.542 604.517 386.155 603.584 381.152C604.286 379.751 603.752 380.337 605.556 379.66C609.249 381.24 607.602 396.674 608.516 401.234C610.252 401.72 610.493 401.583 612.262 401.424C613.096 399.409 611.504 369.472 611.341 364.883C611.531 361.116 611.336 356.898 611.243 353.087L611.165 351.412L610.966 349.918C611.085 347.1 610.897 343.923 610.804 341.077L610.339 333.566C610.351 328.862 608.976 322.728 609.434 318.841L609.634 318.027L609.458 313.38L608.451 283.48C608.441 277.093 608.457 271.655 607.91 265.292ZM569.886 288.71C569.037 288.497 569.322 288.564 568.574 287.968C567.728 285.299 567.918 282.066 567.886 279.196C570.996 278.389 574.507 278.237 577.731 277.968L577.466 281.705C577.597 283.674 578.087 286.133 577.073 287.667C575.692 288.264 575.627 288.225 574.116 288.437L569.886 288.71ZM583.036 323.714L582.459 324.414C580.297 324.425 578.252 324.719 576.11 324.78C572.216 324.892 572.476 323.682 571.964 320.746C572.277 318.666 571.958 315.995 571.582 313.938L576.534 313.43C578.724 313.453 580.676 313.473 582.874 313.37C583.003 315.447 583.627 322.175 583.036 323.714ZM596.715 311.715C599.147 311.397 601.586 311.145 604.031 310.96L603.992 320.418C601.891 320.354 599.385 320.349 597.326 320.203L597.242 318.61L596.715 311.715ZM552.411 303.607C552.442 302.025 552.4 301.364 552.788 299.793C554.008 299.707 553.949 300.085 555.237 301.178L555.471 302.285C555.699 305.214 556.212 308.864 555.001 311.525C553.981 312.269 554.043 312.221 552.815 312.538C551.842 310.446 552.883 308.743 552.388 306.662C551.177 308.815 552.388 310.687 551.199 313.938C546.682 314.789 546.09 314.398 543.742 310.445C544.755 309.523 545.492 309.034 545.983 307.758C543.223 305.93 543.576 306.562 543.206 303.414C543.711 301.195 543.181 296.513 542.999 294.077L548.517 293.573L550.775 293.603C552.986 295.905 551.818 300.23 552.411 303.607ZM442.842 289.496C442.988 291.06 443.144 295.052 444.096 296.101C451.447 295.734 458.8 295.014 466.135 294.364C466.05 292.529 466.224 288.987 465.375 287.765L465.126 287.74C458.36 288.205 449.489 288.606 442.842 289.496ZM533.699 321.454C533.683 324.322 533.851 326.9 534.028 329.758C530.79 330.208 528.497 330.362 525.229 330.522C524.186 330.516 524.722 330.647 523.674 329.955C522.875 327.16 522.872 322.672 522.578 319.454C523.528 318.403 522.952 318.829 524.6 318.53C527.604 318.38 530.536 317.473 532.755 318.049C533.908 319.356 533.528 319.259 533.699 321.454ZM565.348 255.067C565.313 257.672 564.854 259.146 565.966 261.162C567.598 261.762 568.335 261.59 570.054 261.493C575.649 261.193 581.242 260.86 586.833 260.494C586.963 258.436 587.46 255.61 586.463 253.983C585.206 253.268 584.153 253.559 582.668 253.687L565.348 255.067ZM550.103 268.831C550.655 272.963 550.825 277.823 551.074 282.035L543.236 281.984C542.212 281.999 542.723 282.128 541.746 281.449C541.122 278.815 540.723 272.569 540.333 269.428L549.404 268.997L550.103 268.831ZM585.838 352.9L586.116 360.566L573.545 360.908C573.493 357.172 573.243 353.312 573.051 349.569C576.422 349.384 581.993 349.195 585.062 348.243C585.401 349.531 585.54 352.171 585.838 352.9ZM509.607 408.475L515.875 408.131C519.87 407.928 524.454 407.805 528.387 407.395L526.102 365.402C523.463 365.498 520.173 365.526 517.597 365.793L506.368 366.619C506.601 372.896 507.364 379.037 507.855 385.296C508.461 393.014 508.806 400.776 509.607 408.475ZM479.563 288.414C479.643 284.189 479.477 279.809 479.375 275.573C480.604 275.311 481.837 275.071 483.075 274.852C485.27 274.962 487.468 275.027 489.667 275.049C489.824 277.61 490.523 286.021 490.074 288.091C486.635 288.104 483.146 288.405 479.563 288.414ZM547.411 226.98C547.533 229.626 547.774 232.466 547.953 235.125C546.772 235.35 545.467 235.407 544.634 236.07L545.426 236.414C543.705 239.002 541.915 240.753 538.584 239.73C537.145 238.656 537.219 238.419 536.57 236.761L541.502 235.868L541.675 227.462L547.411 226.98ZM594.38 330.563C594.853 329.453 594.848 329.541 595.849 328.841C598.535 328.354 601.713 328.637 604.321 329.425L604.598 332.305C604.58 334.532 604.681 338.394 604.251 340.437C603.059 340.19 596.486 340.115 594.666 340.029C594.326 337.085 594.414 333.982 594.421 331.007L594.38 330.563ZM471.038 369.129C466.867 369.477 460.118 370.882 457.668 368.685C457.056 368.136 455.677 368.237 454.821 368.259C453.71 369.245 453.68 369.425 452.863 370.699C450.147 371.342 449.628 370.847 447.766 369.028C445.204 369.011 444.619 369.033 443.066 371.265C440.222 371.858 439.765 371.476 437.227 369.814C432.046 369.843 430.134 373.53 424.414 369.453C423.607 366.429 423.429 364.248 423.093 361.144L428.555 360.982C428.403 358.446 428.648 355.635 427.169 353.864C425.374 353.346 424.616 353.481 422.777 353.547C422.308 350.347 421.215 346.716 423.049 344.181C424.514 343.719 424.556 343.845 426.119 344.032C427.748 342.453 427.187 339.879 425.782 338.291C424.815 338.131 422.019 338.021 421.77 337.572C420.754 335.743 420.403 332.94 420.608 330.93C422.711 327.763 425.559 330.027 424.924 324.679C424.433 320.546 420.605 322.124 419.861 318.236C419.498 316.335 419.545 313.738 419.517 311.759C429.77 310.517 425.833 313.491 431.009 313.895C432.454 310.539 435.716 309.27 438.931 310.951C439.02 311.87 439.135 312.726 439.418 313.606C441.025 314.225 440.241 314.179 441.841 313.875C442.145 312.55 442.059 312.297 441.997 310.915C444.436 308.963 448.501 310.104 450.181 313.129L451.285 313.238C452.206 310.329 450.067 311.361 451.955 309.908C455.422 309.241 457.477 309.33 459.739 312.301C462.894 310.041 457.518 309.835 467.183 308.749C467.113 305.634 467.076 302.859 466.738 299.756L459.643 300.291C447.515 301.036 425.125 301.416 414.412 303.296C414.309 323.824 418.941 346.782 420.189 367.438C420.77 377.061 421.479 386.676 421.956 396.306C422.397 402.161 422.293 408.387 423.618 414.084C425.78 413.937 427.942 413.843 430.078 413.502C430.034 410.14 430.161 394.606 428.601 392.824C424.058 392.895 425.384 386.676 425.511 383.175C428.884 382.968 432.746 382.635 436.077 382.742C436.461 385.592 437.116 388.426 436.459 391.152C434.282 393.762 433.08 391.223 433.167 397.213C433.219 400.741 433.49 404.22 433.811 407.741C433.98 409.581 434.158 411.42 434.348 413.259C438.467 413.063 442.394 412.869 446.5 412.5C446.101 402.877 445.406 393.281 444.984 383.661C447.815 383.355 449.935 383.11 452.813 383.112C453.483 387.002 455.162 391.528 449.849 392.111C448.691 394.945 450.177 408.552 450.614 412.194C453.568 412.051 456.993 411.994 459.877 411.539C459.76 406.396 459.519 401.257 459.154 396.126C458.694 391.969 457.873 386.24 457.984 382.185C461.795 381.718 464.09 381.516 467.917 381.461C468.403 384.785 468.487 386.698 468.578 390.064L463.113 390.54C463.47 397.256 463.724 404.7 464.523 411.319C467.538 411.17 470.521 411.046 473.527 410.758C473.426 402.802 472.227 376.37 471.038 369.129ZM465.877 327.624L467.168 327.413C468.268 325.397 467.33 320.846 466.991 318.467C464.545 318.519 461.492 318.497 459.113 318.769L458.178 319.327C458.173 323.04 458.576 324.853 459.258 328.499L465.877 327.624ZM569.671 305.766C569.6 302.217 569.363 299.611 568.973 296.07L571.967 295.471C574.657 295.522 574.645 295.103 576.621 296.285C577.715 298.28 577.058 301.392 577.216 303.977L577.016 305.196C575.591 305.428 574.273 305.635 572.833 305.804C571.993 305.86 570.563 305.784 569.671 305.766ZM460.405 351.807C460.704 354.444 461.059 358.742 461.536 361.22C464.183 360.926 467.17 360.522 469.8 360.381C469.613 357.526 469.518 354.126 468.936 351.374C466.135 351.499 463.188 351.582 460.405 351.807ZM552.875 341.797C553.136 344.774 553.36 347.754 553.549 350.736L541.384 351.533C541.069 347.378 540.64 343.624 540.118 339.487C542.259 338.072 548.152 338.648 552.056 337.806C552.632 339.539 552.665 339.958 552.875 341.797ZM534.261 340.333L534.496 351.316L523.071 351.788L522.899 345.029L522.844 339.418C525.488 339.52 526.747 339.662 529.386 339.201C531.084 339.092 532.561 338.743 533.935 339.587L534.261 340.333ZM468.631 343.902C468.528 340.986 468.516 337.855 468.087 334.99C465.267 335.18 461.932 335.864 459.673 334.453C459.419 337.465 459.994 341.531 460.328 344.651L468.631 343.902ZM503.783 340.245L504.812 341.046C506.571 340.809 506.975 340.513 508.531 339.744C510.29 339.957 510.415 340.249 511.35 341.905C512.56 342.071 513.111 341.915 513.851 342.581C514.589 346.847 514.556 349.491 514.449 353.847L505.152 354.209L504.073 343.159C501.697 343.333 495.796 343.45 494.005 343.736C494.378 348.069 494.447 352.488 494.575 356.84C491.126 356.992 487.529 357.336 484.074 357.617C483.833 353.334 483.616 349.049 483.423 344.763L489.593 343.803C491.174 343.945 491.051 343.852 492.65 343.614C492.713 342.494 492.665 342.828 493.009 341.769C493.973 341.406 494.947 341.067 495.927 340.751C497.762 340.175 502.053 339.365 503.783 340.245ZM453.678 319.282C451.949 319.359 449.863 319.511 448.167 319.517C448.387 322.639 448.561 326.417 448.972 329.468C450.774 329.244 452.667 328.971 454.468 328.867C454.262 325.601 454.083 322.533 453.678 319.282ZM455.519 335.85L449.624 336.322C450.188 339.593 450.41 341.915 450.674 345.228L456.401 344.942C456.165 341.983 455.992 338.759 455.519 335.85ZM447.645 352.443L440.957 352.711C441.268 355.726 441.521 358.746 441.714 361.771L448.46 361.494C448.257 358.513 448.127 355.376 447.645 352.443ZM435.078 320.453L428.327 320.355C428.521 324.191 429.072 326.659 429.838 330.45C431.827 330.243 433.87 329.991 435.862 329.92C435.639 326.894 435.44 323.445 435.078 320.453ZM457.279 361.049C457.017 358.082 456.806 354.892 456.368 351.963L451.449 352.216L452.102 361.105L457.279 361.049ZM430.591 346.717L436.615 346.043C436.478 343.184 436.442 340.172 435.924 337.376L429.969 337.65L430.591 346.717ZM505.033 330.692C504.775 328.141 503.928 324.339 505.025 322.154C506.93 320.836 507.605 321.156 510.106 320.896L511.093 321.568C511.308 324.349 511.936 328.29 511.039 330.744C510.405 331.047 509.932 331.294 509.269 331.535C507.811 331.535 506.931 331.48 505.504 331.36L505.033 330.692ZM437.551 352.925L431.43 353.182C431.549 356.88 431.654 359.009 432.213 362.643C434.061 362.383 436.499 361.962 438.319 361.916C438.134 359.034 438.022 355.74 437.551 352.925ZM496.375 229.224C500.177 228.966 504.092 228.648 507.886 228.452C508.058 232.352 508.24 236.048 508.57 239.936C505.823 239.925 503.305 240.342 500.605 240.401C497.084 240.478 497.082 239.677 496.527 236.917C496.669 234.025 496.55 232.073 496.375 229.224ZM530.574 260.068L525.139 260.434C522.827 262.988 521.94 264.532 518.549 265.233C512.763 263.594 516.463 251.134 518.402 249.982C519.626 248.576 528.168 248.447 530.09 248.739C529.835 253.219 530.004 255.584 530.574 260.068ZM443.344 319.701C442.053 319.826 439.546 319.84 438.724 320.491C438.853 322.413 439.02 328.71 440.104 329.801L440.617 329.679C443.346 329.515 443.313 329.995 444.868 328.577C445.925 325.608 445.202 322.69 444.091 319.692L443.344 319.701ZM440.737 336.714L440.086 337.295C440.118 339.379 440.124 343.95 440.879 345.705C442.95 345.732 443.999 345.663 446.065 345.449L446.847 345.17C447.061 343.023 446.962 338.706 446.132 336.735C443.844 336.438 443.081 336.544 440.737 336.714ZM544.215 324.657C544.061 323.186 544.027 321.483 543.961 319.984C545.57 319.62 545.626 319.72 546.938 318.784C547.766 318.885 549.21 318.816 549.647 319.475C551.806 322.724 550.58 329.745 545.719 329.299C543.595 327.501 544.961 327.001 544.215 324.657ZM485.763 237.013L483.232 237.847C482.112 237.676 482.033 237.632 480.973 237.212C479.588 234.417 479.298 232.708 481.826 230.43C483.616 230.112 482.781 229.971 484.397 230.968C485.742 232.769 485.582 234.678 485.763 237.013ZM478.918 248.662C481.993 248.901 484.091 248.792 487.123 248.335L487.371 247.713C489.863 247.478 489.311 247.131 490.857 248.272C492.27 252.126 490.583 259.678 491.273 262.517C492.528 261.927 492.241 262.041 493.343 261.121C493.618 263.762 491.174 266.959 488.844 268.105C488.063 266.085 488.349 264.809 486.657 263.27C483.909 263.402 480.824 263.389 478.045 263.441C477.964 260.067 477.068 251.995 477.863 249.024L478.918 248.662Z"/><path fill="#1E1E1E" d="M522.76 297.527C525.364 297.503 525.724 297.109 527.501 298.331C528.574 300.532 528.238 304.545 528.322 307.157C525.697 307.361 525.626 307.787 523.607 306.816C522.101 304.334 522.679 300.623 522.76 297.527Z"/><path fill="#1E1E1E" d="M602.498 362.717C603.731 363.936 603.485 371.481 603.522 373.751C600.602 373.924 597.435 373.965 594.49 374.053L593.044 363.742L602.498 362.717Z"/><path fill="#2B2B2B" d="M580.966 373.971C582.298 373.912 582.693 373.969 584.029 374.129C585.104 374.931 585.953 377.866 587.041 379.49C585.286 379.738 583.065 380.307 581.578 379.599C580.618 378.195 580.94 375.795 580.966 373.971Z"/><defs><linearGradient id="gradient_0" gradientUnits="userSpaceOnUse" x1="491.22412" y1="317.06934" x2="503.29404" y2="317.73495"><stop offset="0" stop-color="#F4F4F4" stop-opacity="0.74509805"/><stop offset="1" stop-color="#F1F1F0" stop-opacity="0.82352942"/></linearGradient></defs><path fill="#1E1E1E" d="M487.123 248.335L487.371 247.713C489.863 247.478 489.311 247.131 490.857 248.272C492.27 252.126 490.583 259.678 491.273 262.517C492.528 261.927 492.241 262.041 493.343 261.121C493.618 263.762 491.174 266.959 488.844 268.105C488.063 266.085 488.349 264.809 486.657 263.27C483.909 263.402 480.824 263.389 478.045 263.441C477.964 260.067 477.068 251.995 477.863 249.024L478.918 248.662C481.993 248.901 484.091 248.792 487.123 248.335Z"/><path fill="#212121" d="M516.967 227.617C521.699 227.031 526.453 226.636 531.216 226.433C531.43 230.06 531.578 234.39 532.061 237.923C530.834 238.052 530.61 238.097 529.433 237.874L528.601 237.709L527.781 238.337L527.936 238.828C529.257 239.656 529.34 239.632 530.347 240.785C530.459 243.365 529.211 245.719 526.737 246.695C524.848 246.446 524.587 246.495 522.971 245.381C522.027 243.953 522.32 242.665 522.468 241.009C522.891 236.288 519.733 240.061 517.237 237.663L516.967 227.617Z"/><path fill="#1E1E1E" d="M518.402 249.982C519.626 248.576 528.168 248.447 530.09 248.739C529.835 253.219 530.004 255.584 530.574 260.068L525.139 260.434C522.827 262.988 521.94 264.532 518.549 265.233C512.763 263.594 516.463 251.134 518.402 249.982Z"/><path fill="#1E1E1E" d="M548.517 293.573L550.775 293.603C552.986 295.905 551.818 300.23 552.411 303.607L552.388 306.662C551.177 308.815 552.388 310.687 551.199 313.938C546.682 314.789 546.09 314.398 543.742 310.445C544.755 309.523 545.492 309.034 545.983 307.758C543.223 305.93 543.576 306.562 543.206 303.414C543.711 301.195 543.181 296.513 542.999 294.077L548.517 293.573Z"/><path fill="#1E1E1E" d="M552.056 337.806C552.632 339.539 552.665 339.958 552.875 341.797C553.136 344.774 553.36 347.754 553.549 350.736L541.384 351.533C541.069 347.378 540.64 343.624 540.118 339.487C542.259 338.072 548.152 338.648 552.056 337.806Z"/><path fill="#1E1E1E" d="M585.062 348.243C585.401 349.531 585.54 352.171 585.838 352.9L586.116 360.566L573.545 360.908C573.493 357.172 573.243 353.312 573.051 349.569C576.422 349.384 581.993 349.195 585.062 348.243Z"/><path fill="#1E1E1E" d="M492.65 343.614L494.005 343.736C494.378 348.069 494.447 352.488 494.575 356.84C491.126 356.992 487.529 357.336 484.074 357.617C483.833 353.334 483.616 349.049 483.423 344.763L489.593 343.803C491.174 343.945 491.051 343.852 492.65 343.614Z"/><path fill="#1E1E1E" d="M529.386 339.201C531.084 339.092 532.561 338.743 533.935 339.587L534.261 340.333L534.496 351.316L523.071 351.788L522.899 345.029L522.844 339.418C525.488 339.52 526.747 339.662 529.386 339.201Z"/><path fill="#1E1E1E" d="M483.075 274.852C485.27 274.962 487.468 275.027 489.667 275.049C489.824 277.61 490.523 286.021 490.074 288.091C486.635 288.104 483.146 288.405 479.563 288.414C479.643 284.189 479.477 279.809 479.375 275.573C480.604 275.311 481.837 275.071 483.075 274.852Z"/><path fill="#1E1E1E" d="M548.671 246.538C549.842 247.152 549.446 246.685 549.863 247.935C550.095 251.601 550.5 256.076 550.518 259.689C546.975 259.285 542.919 259.416 539.311 259.437L538.391 247.915C540.614 247.41 545.863 246.983 548.671 246.538Z"/><path fill="#1E1E1E" d="M496.375 229.224C500.177 228.966 504.092 228.648 507.886 228.452C508.058 232.352 508.24 236.048 508.57 239.936C505.823 239.925 503.305 240.342 500.605 240.401C497.084 240.478 497.082 239.677 496.527 236.917C496.669 234.025 496.55 232.073 496.375 229.224Z"/><path fill="#1E1E1E" d="M524.6 318.53C527.604 318.38 530.536 317.473 532.755 318.049C533.908 319.356 533.528 319.259 533.699 321.454C533.683 324.322 533.851 326.9 534.028 329.758C530.79 330.208 528.497 330.362 525.229 330.522C524.186 330.516 524.722 330.647 523.674 329.955C522.875 327.16 522.872 322.672 522.578 319.454C523.528 318.403 522.952 318.829 524.6 318.53Z"/><path fill="#1E1E1E" d="M549.404 268.997L550.103 268.831C550.655 272.963 550.825 277.823 551.074 282.035L543.236 281.984C542.212 281.999 542.723 282.128 541.746 281.449C541.122 278.815 540.723 272.569 540.333 269.428L549.404 268.997Z"/><path fill="#1E1E1E" d="M486.976 298.98C489.601 299.04 489.054 298.614 490.56 299.987C491.645 303.097 490.267 305.781 491.784 308.074C491.566 308.849 491.218 310.269 490.951 310.965C487.442 310.78 484.49 310.775 481.027 311.678C481.239 309.029 480.757 302.568 480.652 299.465L486.976 298.98Z"/><path fill="#1E1E1E" d="M576.534 313.43C578.724 313.453 580.676 313.473 582.874 313.37C583.003 315.447 583.627 322.175 583.036 323.714L582.459 324.414C580.297 324.425 578.252 324.719 576.11 324.78C572.216 324.892 572.476 323.682 571.964 320.746C572.277 318.666 571.958 315.995 571.582 313.938L576.534 313.43Z"/><path fill="#1E1E1E" d="M511.35 341.905C512.56 342.071 513.111 341.915 513.851 342.581C514.589 346.847 514.556 349.491 514.449 353.847L505.152 354.209L504.073 343.159C505.549 342.467 509.539 342.132 511.35 341.905Z"/><path fill="#1E1E1E" d="M594.38 330.563C594.853 329.453 594.848 329.541 595.849 328.841C598.535 328.354 601.713 328.637 604.321 329.425L604.598 332.305C604.58 334.532 604.681 338.394 604.251 340.437C603.059 340.19 596.486 340.115 594.666 340.029C594.326 337.085 594.414 333.982 594.421 331.007L594.38 330.563Z"/><path fill="#1E1E1E" d="M593.891 274.692C596.835 274.405 600.171 273.664 602.742 274.607C603.841 275.915 603.477 275.789 603.622 277.919C603.655 280.467 603.656 283.109 603.732 285.648C600.625 285.838 597.705 286.055 594.589 285.986C594.479 283.754 594.428 280.769 594.127 278.622L593.891 274.692Z"/><path fill="#1E1E1E" d="M586.507 293.551C589.755 293.486 593.216 293.477 596.442 293.318C596.481 294.815 596.462 298.61 596.797 299.854C597.365 305.601 592.374 305.704 588.354 303.701C587.246 301.979 587.606 302.095 587.439 299.744L586.507 293.551Z"/><path fill="#1E1E1E" d="M507.995 297.196L509.864 297.751C510.864 299.808 511.406 307.399 510.657 309.496C508.178 309.445 505.504 309.624 503.012 309.734C502.548 306.098 502.525 301.94 502.417 298.235C504.496 297.958 505.948 297.666 507.995 297.196Z"/><path fill="#1E1E1E" d="M567.886 279.196C570.996 278.389 574.507 278.237 577.731 277.968L577.466 281.705C577.597 283.674 578.087 286.133 577.073 287.667C575.692 288.264 575.627 288.225 574.116 288.437L569.886 288.71C569.037 288.497 569.322 288.564 568.574 287.968C567.728 285.299 567.918 282.066 567.886 279.196Z"/><path fill="#1E1E1E" d="M502.003 278.557C501.988 275.915 501.594 276.101 502.697 274.099C504.366 273.107 507.333 273.427 509.419 273.446C509.512 277.77 509.608 281.117 510.082 285.398C507.458 285.599 504.734 285.729 502.158 286.211L502.003 278.557Z"/><path fill="#1E1E1E" d="M568.973 296.07L571.967 295.471C574.657 295.522 574.645 295.103 576.621 296.285C577.715 298.28 577.058 301.392 577.216 303.977L577.016 305.196C575.591 305.428 574.273 305.635 572.833 305.804C571.993 305.86 570.563 305.784 569.671 305.766C569.6 302.217 569.363 299.611 568.973 296.07Z"/><path fill="#1E1E1E" d="M510.106 320.896L511.093 321.568C511.308 324.349 511.936 328.29 511.039 330.744C510.405 331.047 509.932 331.294 509.269 331.535C507.811 331.535 506.931 331.48 505.504 331.36L505.033 330.692C504.775 328.141 503.928 324.339 505.025 322.154C506.93 320.836 507.605 321.156 510.106 320.896Z"/><path fill="#1E1E1E" d="M489.451 323.369C490.921 324.003 490.358 323.512 491.175 324.918L491.381 328.086L491.435 333.042L485.161 333.526C485.079 330.289 484.125 327.519 484.924 324.675C486.157 323.298 486.036 323.724 488.37 323.32L489.451 323.369Z"/><path fill="#1E1E1E" d="M596.715 311.715C599.147 311.397 601.586 311.145 604.031 310.96L603.992 320.418C601.891 320.354 599.385 320.349 597.326 320.203L597.242 318.61L596.715 311.715Z"/><path fill="#1E1E1E" d="M546.938 318.784C547.766 318.885 549.21 318.816 549.647 319.475C551.806 322.724 550.58 329.745 545.719 329.299C543.595 327.501 544.961 327.001 544.215 324.657C544.061 323.186 544.027 321.483 543.961 319.984C545.57 319.62 545.626 319.72 546.938 318.784Z"/><path fill="#212121" d="M541.675 227.462L547.411 226.98C547.533 229.626 547.774 232.466 547.953 235.125C546.772 235.35 545.467 235.407 544.634 236.07L541.502 235.868L541.675 227.462Z"/><path fill="#212121" d="M483.232 237.847C482.112 237.676 482.033 237.632 480.973 237.212C479.588 234.417 479.298 232.708 481.826 230.43C483.616 230.112 482.781 229.971 484.397 230.968C485.742 232.769 485.582 234.678 485.763 237.013L483.232 237.847Z"/><path fill="#2B2B2B" d="M249.57 273.224C259.375 272.934 270.264 272.971 280.05 274.027C284.702 274.529 286.11 275.691 288.655 279.207C285.863 285.033 280.185 290.582 276.044 295.694C256.424 319.915 240.231 346.294 225.228 373.612C204.412 411.052 186.816 450.195 172.63 490.616C169.223 500.258 164.151 514.014 161.878 523.699C166.482 521.495 170.895 518.573 175.315 516.002C182.065 512.075 188.986 508.277 196.029 504.898C237.034 485.221 277.587 483.349 321.806 491.119C377.714 500.943 423.793 523.268 456.997 570.811C485.033 610.954 501.982 666.117 493.066 715.005C484.054 764.419 427.681 829.922 386.788 858.116C341.026 888.492 297.843 895.539 244.021 890.029C223.259 887.903 202.976 875.101 185.732 864.041C163.756 849.74 144.902 832.46 129.1 811.273C92.4253 762.098 77.1085 689.854 82.4904 629.539C84.9519 601.953 110.755 569.38 128.73 549.609C133.854 543.972 143.886 535.982 150.13 531.168C152.725 524.187 154.92 516.129 157.403 508.922C164.158 489.422 171.27 470.047 178.736 450.808C200.963 394.645 231.933 339.216 268.657 291.232C271.118 288.018 273.697 284.623 276.456 281.674C258.228 280.811 240.522 280.085 222.593 283.686C219.627 284.282 215.561 285.244 212.656 284.75C210.408 283.281 209.739 280.954 211.109 278.6C215.582 274.957 242.732 273.619 249.57 273.224ZM309.893 877.057C371.605 866.265 415.212 824.424 450.593 775.143C478.728 737.909 488.756 701.02 479.914 654.454C471.652 610.944 444.408 562.266 407.486 536.604C370.551 510.934 310.506 494.702 265.589 499.201C253.413 500.107 234.024 502.332 222.941 506.808C192.875 518.951 154.545 538.912 132.765 563.319C101.119 598.783 89.8045 627.115 94.1831 674.489C101.211 750.526 130.361 816.702 197.807 857.264C221.961 871.857 238.898 881.026 269.025 879.019C281.859 878.417 296.912 879.86 309.893 877.057Z"/><path fill="#212121" d="M271.129 541.375C275.441 541.632 283.023 548.676 288.227 551.203C301.376 557.587 314.293 563.089 328.539 566.583C348.371 571.382 368.71 573.766 389.114 573.683C393.306 573.72 397.498 573.624 401.683 573.395C404.971 573.187 411.471 571.94 414.175 572.562C416.918 577.955 409.68 630.795 408.413 639.339C400.905 690.007 386.207 758.926 355.438 800.802C340.824 820.69 321.514 837.472 301.814 852.114C297.596 850.309 293.903 848.422 289.826 846.35C279.621 840.965 269.684 835.086 260.049 828.736C190.64 783.088 153.293 685.249 137.104 606.79C190.767 594.694 229.093 577.135 271.129 541.375ZM251.546 697.643C255.748 699.912 270.476 707.864 274.364 708.191L275.085 707.799C278.564 701.37 281.014 696.782 284.223 690.266C281.096 678.985 282.931 666.43 295.99 663.165C296.604 663.012 297.221 662.869 297.84 662.737L297.818 662.36L298.353 662.071L297.446 662.336C297.823 662.03 305.939 646.09 307.189 643.949C300.526 640.712 289.998 636.389 284.066 632.665C282.639 637.053 278.294 644.866 276.003 649.323C271.512 658.104 266.965 666.856 262.364 675.579C258.735 682.483 254.336 690.47 251.546 697.643ZM335.048 789.69C339.98 788.74 367.739 783.893 351.383 775.241C346.844 772.841 331.382 769.623 326.281 770.026L325.807 770.45L325.964 771.166C326.406 773.264 326.723 773.881 326.159 775.83C322.681 780.921 290.938 779.898 285.321 776.414C283.006 773.255 285.523 770.786 283.816 769.498L282.179 769.671C274.896 770.475 268.421 771.075 261.303 772.78C251.769 775.064 246.834 782.298 258.9 785.928C284.068 793.498 309.391 792.709 335.048 789.69ZM308.195 754.415C329.162 748.269 322.617 725.363 301.68 727.584C279.938 735.015 286.727 758.495 308.195 754.415ZM239.987 706.492C244.05 709.515 266.663 721.642 270.565 720.161C272.742 717.208 273.309 716.256 274.91 712.951C264.241 708.555 254.256 703.045 243.669 698.379C241.973 701.586 241.218 703.088 239.987 706.492ZM279.635 625.729C286.471 629.737 305.169 638.686 312.348 641.238C314.093 638.741 315.016 637.169 314.965 634.119C313.654 631.766 287.116 619.087 283.636 618.268C281.276 621.089 280.768 622.231 279.635 625.729ZM317.695 679.091C315.112 668.182 308.734 665.592 298 666.633C278.45 674.612 285.933 697.025 305.021 692.917C313.005 690.261 315.789 687.509 317.695 679.091ZM316.834 728.441C321.979 730.861 323.102 733.039 325.119 737.964C342.575 722.41 339.465 696.184 320.063 683.334C318.211 688.227 317.292 689.271 313.823 692.879C324.335 705.659 326.563 714.049 316.834 728.441ZM291.769 754.892C288.683 752.147 287.435 750.931 285.419 747.132C275.853 746.953 265.33 746.835 255.774 747.217C249.139 747.535 233.216 746.411 229.364 750.155C228.099 754.173 230.816 756.478 234.777 756.637C244.643 757.033 254.505 756.389 264.375 756.306C272.83 756.234 283.74 756.625 291.769 754.892ZM254.695 677.82C252.952 680.784 247.661 690.708 246.649 693.595C246.919 694.381 246.695 694.16 247.06 694.442C248.981 691.809 254.875 681.66 255.345 678.748L254.695 677.82ZM257.502 675.218C258.469 673.617 259.334 672.601 259.394 670.762L258.756 669.88C257.735 671.566 256.772 672.659 256.846 674.572L257.502 675.218ZM314.994 755.775C307.613 759.343 302.815 760.999 294.644 757.958C292.275 763.802 289.527 769.077 287.292 774.507C290.295 774.906 292.965 775.236 295.993 775.481C306.143 776.159 312.924 776.218 323.064 774.301C322.242 771.1 317.13 757.611 314.994 755.775ZM261.612 667.655C263.803 662.675 280.044 633.301 280.248 631.241L278.726 630.201C276.09 635.554 261.049 663.965 260.483 667.052L260.94 667.787L261.612 667.655Z"/><path fill="#1E1E1E" d="M303.9 733.17C307.058 732.698 310.226 733.962 312.192 736.479C314.157 738.997 314.615 742.377 313.39 745.326C312.165 748.276 309.448 750.338 306.277 750.722C301.469 751.306 297.084 747.919 296.434 743.119C295.783 738.319 299.109 733.887 303.9 733.17ZM307.051 745.261C308.822 742.851 309.06 740.957 306.661 738.834C305.871 738.626 304.953 738.355 304.167 738.194C302.639 740.882 301.811 742.988 304.488 745.168C305.686 745.279 305.85 745.316 307.051 745.261Z"/><path fill="#1E1E1E" d="M301.126 671.721C305.957 670.68 310.712 673.77 311.724 678.607C312.735 683.444 309.617 688.181 304.774 689.163C299.972 690.138 295.284 687.052 294.281 682.255C293.278 677.459 296.336 672.753 301.126 671.721ZM304.843 683.284C305.859 682.736 306.499 681.68 306.512 680.525C306.526 679.37 305.912 678.299 304.909 677.727C303.906 677.155 302.671 677.173 301.685 677.773C300.214 678.668 299.723 680.573 300.58 682.067C301.436 683.561 303.327 684.101 304.843 683.284Z"/><path fill="#2B2B2B" d="M734.821 485.205C768.025 482.59 817.927 490.651 848.126 504.458C891.172 524.139 915.024 553.013 930.701 597.423C947.79 645.832 950.949 697.704 928.526 745.061C903.479 797.958 860.79 844.838 804.831 864.849C793.788 868.854 782.365 871.72 770.739 873.403C750.294 876.396 709.851 876.576 690.254 869.714C679.455 865.933 666.417 856.838 655.603 851.737C644.746 855.239 633.659 859.239 622.743 862.415C559.371 880.857 501.521 890.832 435.364 883.915C431.699 883.355 427.366 882.811 423.846 881.852C434.836 901.491 455.794 919.824 468.91 938.262C470.26 940.16 467.543 942.953 465.314 943.438C457.388 941.685 417.476 888.433 410.225 878.855C409.077 877.338 408.209 875.509 408.661 873.545C410.78 870.94 417.465 872.756 420.789 873.369C498.306 887.674 572.608 869.026 646.445 847.025C643.898 844.719 636.623 840.048 633.486 837.895C627.521 833.822 621.793 829.412 616.331 824.686C593.049 804.584 575.014 771.338 565.893 742.218C562.691 731.995 559.447 717.205 557.216 706.543C554.208 692.163 551.408 675.875 550.342 661.191C547.089 616.399 557.913 589.681 586.719 556.576C619.519 518.878 664.746 494.187 714.194 486.984C720.413 486.039 728.415 485.644 734.821 485.205ZM756.971 863.302C834.681 855.801 892.564 799.979 922.24 730.414C931.134 709.568 933.765 676.68 931.516 654.318C927.032 609.733 909.812 561.194 873.596 532.783C836.594 503.754 781.798 493.476 735.978 496.258C681.64 499.598 630.914 524.603 595.173 565.668C570.226 594.225 559.858 618.174 562.431 657.061C563.551 673.982 566.362 690.477 569.866 707.049C578.71 748.883 593.052 788.798 626.23 817.667C639.46 829.179 685.238 856.991 701.315 860.983C717.548 865.014 738.576 864.761 755.104 863.535C755.735 863.488 756.348 863.415 756.971 863.302Z"/><path fill="#212121" d="M730.634 535.356C734.316 535.092 745.373 543.401 749.686 545.793C758.435 550.571 767.525 554.696 776.881 558.134C808.206 569.687 837.166 572.556 870.234 568.462C872.662 568.162 877.403 567.48 878.948 569.529C879.721 574.313 878.561 585.082 878.25 590.616C873.469 675.694 852.755 767.921 789.246 829.177C783.806 834.424 777.301 839.734 770.848 843.51C764.236 847.38 758.322 845.878 751.555 843.71C741.315 840.041 725.668 830.934 716.739 823.674C650.763 770.024 619.553 684.407 599.005 604.545C598.094 601.004 601.794 601.043 604.343 600.634C606.747 600.248 609.26 600.009 611.739 599.538C620.469 597.831 629.11 595.697 637.631 593.141C673.625 582.247 706.429 564.755 730.634 535.356ZM606.462 606.289C607.913 618.58 611.44 629.164 615.151 640.857C635.804 705.929 665.886 775.254 720.662 818.758C730.47 826.538 741.311 832.916 752.876 837.71C756.6 839.129 758.578 839.777 762.438 840.73C770.291 837.941 778.144 830.762 784.134 825.123C843.447 769.289 864.392 684.05 870.829 605.605C871.636 595.767 872.597 584.462 872.495 574.66C862.429 575.249 852.48 576.242 842.414 576.283C812.198 576.406 785.477 570.162 758.398 556.796C752.521 553.895 737.426 545.969 732.553 541.98C700.708 577.172 653.183 599.366 606.462 606.289Z"/><path fill="#212121" d="M734.464 553.432C778.879 579.828 810.756 589.394 862.835 583.602C860.838 632.053 851.247 689.394 833.674 734.504C823.146 761.53 801.842 796.018 780.796 815.867C776.67 819.758 770.704 825.131 765.383 827.308C759.177 829.847 755.788 828.36 750.209 826.026C747.402 824.857 742.698 822.489 740.183 820.951C672.424 779.516 636.212 684.548 616.744 611.801C624.876 610.024 634.352 608.886 642.419 606.706C665.616 600.437 689.754 590.321 709.28 576.168C717.894 569.924 727.091 560.741 734.464 553.432ZM746.476 624.587C746.48 630.533 746.548 634.748 747.08 640.714C742.075 641.045 739.103 641.32 734.196 642.244C738.267 647.016 745.542 653.416 737.879 659.09C735.767 660.653 733.082 661.228 730.515 660.666C727.389 659.981 725.176 657.824 723.566 655.165C722.955 654.135 722.37 653.089 721.81 652.03C714.804 656.841 710.563 662.598 706.674 670.059C701.466 667.891 695.1 664.161 689.983 661.423C689.879 648.697 678.984 641.795 670.489 651.534C667.979 654.435 666.78 658.243 667.175 662.059C668.363 673.273 678.376 675.874 686.492 668.013C691.172 671.225 696.833 673.36 701.613 676.347C700.231 681.26 699.394 684.856 698.441 689.872C693.628 690.557 689.151 690.877 684.318 691.244C678.393 682.15 670.993 686.772 668.255 695.485C669.238 699.654 670.009 703.166 674.028 705.439C679.126 708.321 683.734 704.799 685.48 700.01C689.888 699.642 694.521 699.179 698.922 698.978C700.387 708.024 701.059 710.145 704.597 718.527C700.139 720.909 697.462 722.633 693.28 725.503C675.923 717.063 671.267 743.258 685.305 748.457C688.499 749.606 692.025 749.399 695.062 747.882C701.907 744.402 701.041 737.799 699.74 731.427C702.755 729.709 713.162 724.582 714.135 721.966C713.404 719.259 711.547 716.204 711.504 714.219L712.15 713.513C717.625 713.553 723.225 719.747 718.194 724.272C716.793 725.531 714.292 726.537 713.63 728.221C714.301 730.675 718.027 732.804 720.233 734.058C723.213 735.737 726.266 737.286 729.381 738.699L723.8 757.359C720.597 756.706 718.621 756.624 715.807 758.54C711.536 761.448 710.803 768.087 714.047 772.101C720.777 780.426 736.775 780.891 736.907 767.433C736.947 763.391 735.079 760.877 731.066 759.874C733.425 753.991 735.355 748.55 737.423 742.557C745.463 744.54 750.454 745.887 758.75 746.481C759.56 749.301 761.546 754.345 761.753 756.562C760.999 756.66 760.336 756.75 759.576 756.812C757.504 761.914 756.01 769.699 762.267 772.572C770.125 776.18 783.584 767.793 778.293 758.688C775.878 754.532 774.617 754.11 770.012 754.16L769.027 754.165C768.405 750.932 767.93 748.45 767.001 745.283C774.16 743.842 781.252 740.196 787.614 736.713C790.018 739.927 793.737 744.477 796.507 747.481C787.185 761.993 807.432 771.624 814.568 756.678C816.06 753.545 816.237 749.946 815.061 746.682C812.908 740.868 807.829 739.83 802.859 743.05C799.512 738.449 797.317 735.96 792.96 732.288C800.129 725.51 802.792 720.049 806.208 710.715C803.24 710.659 798.741 711.186 798.679 707.155C799.825 705.746 799.143 706.018 800.57 705.818C805.398 709.461 811.385 709.789 817.273 710.678C821.629 730.301 843.345 711.67 837.838 700.645C832.985 690.928 823.3 691.812 818.529 702.59C814.773 701.829 806.729 700.692 804.15 698.321C803.546 695.477 806.912 693.026 807.689 689.893C808.797 685.426 808.69 675.673 804.373 672.999C800.319 670.487 800.765 671.477 798.217 666.971C800.361 665.849 806.728 662.151 808.62 661.894C814.596 667.438 826.661 662.963 824.655 653.454C823.352 647.28 819.332 638.685 811.155 639.655C803.923 641.48 801.927 648.044 804.588 654.231C800.4 656.887 796.327 659.425 791.859 661.618C788.211 657.12 785.279 654.036 780.089 651.205C782.962 647.183 786.298 642.874 788.356 638.431C792.273 639.754 795.207 640.331 799.168 638.383C802.001 636.985 804.148 634.499 805.119 631.493C808.592 620.929 793.343 611.36 784.746 616.277C777.709 620.302 779.575 628.2 783.374 634.21C779.522 638.766 777.007 642.11 773.566 646.959C765.542 643.204 764.171 642.579 755.525 640.812C754.763 635.088 754.308 629.177 753.788 623.413C762.01 617.691 760.285 608.749 749.541 609.104C739.029 610.955 733.255 620.483 746.476 624.587ZM704.406 619.984C705.953 626.982 707.271 629.413 715.087 629.857C718.617 637.204 724.011 650.994 730.478 655.142C732.295 655.436 732.638 655.625 734.31 654.811C734.875 653.836 735.347 653.237 734.796 651.894C732.47 646.221 723.654 633.099 722.709 627.305C725.968 624.833 728.489 623.165 728.849 618.821C729.467 611.365 723.692 607.996 717.35 607.631C709.374 609.296 706.447 612.027 704.406 619.984Z"/><path fill="#1E1E1E" d="M781.392 671.586C784.113 671.335 786.209 671.395 788.758 672.536C791.917 673.956 794.372 676.588 795.569 679.839C798.666 688.105 794.363 694.683 786.499 697.52C770.031 698.715 763.713 676.817 781.392 671.586ZM784.734 691.844C788.779 691.423 791.744 687.844 791.405 683.792C791.065 679.739 787.546 676.703 783.487 676.961C780.789 677.133 778.394 678.75 777.226 681.188C776.058 683.627 776.299 686.506 777.856 688.717C779.414 690.927 782.044 692.123 784.734 691.844Z"/><path fill="#1E1E1E" d="M715.997 676.4C723.042 675.253 729.688 680.021 730.858 687.063C732.029 694.104 727.283 700.766 720.246 701.96C713.175 703.16 706.474 698.387 705.298 691.312C704.122 684.237 708.918 677.552 715.997 676.4ZM720.286 696.26C722.803 695.433 724.681 693.316 725.202 690.718C725.724 688.12 724.807 685.443 722.804 683.709C720.8 681.975 718.019 681.452 715.523 682.341C711.729 683.691 709.726 687.842 711.03 691.652C712.334 695.463 716.459 697.516 720.286 696.26Z"/><path fill="#1E1E1E" d="M757.101 717.171C764.07 715.571 771.018 719.923 772.62 726.892C774.222 733.862 769.871 740.81 762.901 742.413C755.931 744.016 748.98 739.664 747.378 732.693C745.776 725.722 750.129 718.772 757.101 717.171ZM762.252 736.825C766.008 735.614 768.081 731.598 766.894 727.834C765.706 724.071 761.703 721.973 757.932 723.137C754.128 724.312 752.008 728.358 753.206 732.154C754.404 735.951 758.463 738.046 762.252 736.825Z"/><path fill="#1E1E1E" d="M753.851 680.936C754.799 682.273 754.185 681.72 755.977 682.36C757.881 681.411 757.313 681.642 758.59 679.48C758.216 687.316 750.34 689.049 745.842 682.427C747.71 682.542 748.37 681.948 750.011 681.029C750.441 681.681 751.176 682.065 751.957 682.046C752.737 682.027 753.453 681.608 753.851 680.936Z"/><path fill="#212121" d="M745.842 682.427C744.907 677.982 746.241 675.326 750.311 673.523C750.175 676.326 749.778 675.734 751.029 677.689C750.406 677.949 749.931 678.474 749.734 679.12C749.538 679.766 749.639 680.466 750.011 681.029C748.37 681.948 747.71 682.542 745.842 682.427Z"/><path fill="#212121" d="M750.311 673.523C754.862 672.962 756.011 674.105 758.275 677.92C755.281 678.015 755.779 677.516 754.052 679.066C753.853 678.468 753.415 677.979 752.841 677.718C752.267 677.457 751.611 677.447 751.029 677.689C749.778 675.734 750.175 676.326 750.311 673.523Z"/><path fill="#1E1E1E" d="M758.275 677.92L758.59 679.48C757.313 681.642 757.881 681.411 755.977 682.36C754.185 681.72 754.799 682.273 753.851 680.936C754.186 680.371 754.259 679.689 754.052 679.066C755.779 677.516 755.281 678.015 758.275 677.92Z"/><path fill="#2B2B2B" d="M468.373 834.402C470.514 834.791 470.437 834.724 472.254 835.877C472.884 836.958 473.271 837.449 472.916 838.77C471.261 844.929 429.277 866.133 421.376 869.887C418.813 869.212 417.143 867.373 417.082 864.679C417.706 863.214 417.677 862.922 419.149 862.115C431.436 855.376 443.746 848.884 455.708 841.554C459.615 839.16 464.273 836.337 468.373 834.402Z"/><path fill="#2B2B2B" d="M296.406 285.907C304.17 288.254 299.517 295.606 297.721 301.326C295.995 306.882 294.375 312.471 292.862 318.088C290.631 326.311 288.804 334.998 286.687 343.275C286.421 344.316 285.094 345.34 284.224 345.997C282.3 345.551 281.541 345.553 280.077 344.212C277.09 338.383 285.167 313.988 287.254 306.839C288.944 301.047 291.34 288.99 296.406 285.907Z"/><path fill="#212121" d="M783.951 442.184C789.074 443.344 799.514 454.903 804.225 459.111C807.933 462.423 825.237 477.068 825.81 480.759C825.232 482.457 824.706 482.707 823.348 483.86C821.362 484.037 820.942 484.199 819.453 482.801C807.448 471.526 794.922 460.758 783.016 449.396C780.503 446.999 781.98 444.271 783.951 442.184Z"/></svg>