<?xml version="1.0" encoding="utf-8" ?><svg xmlns="http://www.w3.org/2000/svg" xmlns:xlink="http://www.w3.org/1999/xlink" width="1024" height="1024" viewBox="0 0 1024 1024"><path d="M507.878 124.073C508.918 123.951 509.962 123.87 511.008 123.827C532.853 123.158 531.493 142.642 531.704 157.873C542.941 162.224 547.444 165.97 553.446 176.676C573.169 179.015 594.306 180.596 614.268 182.685C678.416 189.256 742.502 196.428 806.516 204.199C817.172 198.478 824.259 197.43 833.672 206.449C841.387 208.012 849.341 208.932 857.044 210.24C860.653 210.853 868.853 211.54 870.733 214.617C871.996 216.552 872.023 219.103 871.534 221.325C867.963 237.57 853.531 244.961 837.868 241.98C840.492 248.441 844.825 256.422 847.839 263.012L874.996 322.527C892.703 361.57 910.044 400.778 927.016 440.145L956.244 510.597C959.352 517.915 962.87 525.086 965.988 532.375C973.692 550.669 981.225 569.034 988.585 587.469C993.099 598.764 998.161 610.335 1001.64 621.988C1002.66 625.393 1004.08 630.557 1002.91 633.998C998.516 646.906 986.042 655.586 974.273 661.124C957.188 669.164 937.411 672.32 918.912 675.147C850.341 685.627 721.212 687.454 656.734 664.128C644.332 659.641 629.455 652.652 623.736 639.86C622.253 636.542 620.408 629.62 621.283 626.032C623.751 615.918 633.655 596.65 638.26 586.098C646.182 567.704 654.289 549.391 662.58 531.161C672.312 510.03 683.571 486.57 692.129 465.016C683.163 460.845 679.581 458.177 690.813 452.309C693.11 451.109 695.2 449.875 697.307 448.372L697.951 447.908C700.061 442.437 703.56 435.432 706.102 429.962L720.883 398.09C733.979 369.792 747.085 340.41 760.548 312.509L781.852 268.297C786.282 259.198 791.708 248.748 795.669 239.63C783.139 238.948 769.903 237.784 757.286 236.96L634.141 228.216C616.968 226.754 599.786 225.412 582.595 224.191C574.286 223.579 564.089 222.576 555.902 222.474C555.409 223.345 554.909 224.213 554.404 225.077C547.446 236.951 541.413 242.919 528.037 246.379C527.917 252.9 529.042 261.566 529.357 268.476L533.192 338.374L543.72 531.937L547.501 612.83C547.675 616.329 547.645 633.596 548.321 635.649C553.411 649.914 564.065 663.121 574.012 674.32C580.858 682.027 586.496 685.591 589.26 695.843C583.451 710.129 557.325 718.27 552.581 732.246C551.989 733.942 551.832 735.759 552.123 737.532C552.708 741.106 562.714 767.642 564.643 771.298C571.763 772.033 578.914 772.336 586.025 773.143C615.567 776.499 664.36 784.31 686.677 805.203C693.465 811.558 692.801 818.066 696.965 825.338C701.392 833.069 709.516 836.836 709.561 847.028C709.587 853.037 706.68 858.102 702.504 862.24C672.378 892.091 562.246 899.879 519.125 900.03C466.679 900.057 412.505 897.296 361.884 882.521C348.464 878.304 334 873.959 323.015 864.821C306.027 850.689 314.732 838.035 325.767 825.034C326.665 818.951 327.906 812.846 332.381 808.211C359.24 780.398 422.997 774.077 458 770.886C462.46 759.14 466.735 747.324 470.824 735.443C466.812 721.43 448.679 712.744 438.6 703.137C435.739 700.411 433.219 696.035 434.822 692.107C438.379 683.389 449.665 674.612 455.733 667.182C461.306 660.359 471.342 646.163 474.389 638.275C476.467 632.897 476.882 610.533 477.194 603.862L488.56 382.502C490.688 346.572 492.817 310.37 494.37 274.419C494.742 265.824 495.602 255.185 495.551 246.982C484.287 243.69 471.925 233.651 467.783 222.469C458.523 222.356 442.548 223.865 433.041 224.632C416.438 225.983 399.829 227.243 383.213 228.412C330.9 231.846 278.607 235.56 226.335 239.556C230.39 248.695 235.463 258.561 239.762 267.757L270.427 332.973C282.166 358.021 293.778 383.128 305.264 408.294L364.008 536.981C371.03 552.649 377.749 568.479 384.935 584.066C390.924 597.057 398.23 610.508 402.28 624.266C403.851 629.601 403.257 634.862 401.393 640.034C397.221 651.619 386.53 658.512 375.802 663.399C314.414 691.363 122.99 695.061 59.7882 671.022C46.6317 666.018 30.7522 656.842 25.0742 643.231C23.6247 639.756 23.3827 636.802 24.4455 633.205C28.1647 620.621 34.2869 608.058 39.2298 595.861C50.8908 567.18 62.7921 538.598 74.9326 510.117L187.401 242.465C180.355 242.572 171.052 243.28 164.81 239.251C158.588 235.235 152.174 227.865 150.747 220.413C150.416 218.688 150.519 216.872 151.726 215.478C155.281 211.372 185.583 208.173 192.113 207.325C199.234 198.757 208.763 198.197 217.369 204.963C230.883 203.696 245.17 201.245 258.715 199.419C286.755 195.639 314.746 192.915 342.843 189.778C384.982 184.717 427.243 180.738 469.586 177.843C474.755 167.178 481.934 161.665 492.826 157.445C492.945 142.936 490.768 129.061 507.878 124.073ZM474.386 182.836C402.625 190.411 330.594 195.896 259.019 205.698C246.65 207.392 234.179 209.103 221.787 210.562C222.812 218.542 223.511 220.717 220.042 227.919C221.232 229.955 222.41 231.997 223.577 234.046L415 219.973C433.833 218.561 453.077 217.512 471.848 215.836C473.285 223.37 480.01 231.558 486.277 235.806C495.257 241.893 502.985 242.475 513.381 242.661C532.528 242.169 545.672 234.665 552.004 215.908C582.981 218.354 613.97 220.631 644.972 222.74C687.052 226.077 729.155 229.128 771.277 231.894C780.506 232.529 789.7 232.766 798.918 233.439L803.404 226.57C801.021 219.64 800.829 216.883 802.998 209.64C780.095 207.615 757.234 205.141 734.429 202.219C708.308 199.063 682.164 196.103 655.998 193.34L587.835 186.202C575.646 184.997 560.674 184.149 548.827 182.198C545.482 170.573 536.167 165.588 525.371 162.201C524.856 147.773 529.69 128.958 509.13 130.091C505.818 131.123 502.836 132.374 500.896 136.033C496.95 143.479 501.343 154.496 498.429 162.162C498.433 162.15 494.899 163.426 494.476 163.589C484.544 167.4 477.535 172.195 474.386 182.836ZM234.303 456.75C234.935 451.764 233.975 434.67 233.66 429.035C227.141 428.418 215.891 428.013 209.15 428.061C209.457 435.529 209.173 450.068 209.986 456.487C216.758 456.562 228.01 457.06 234.303 456.75ZM210.12 500.417C213.648 500.697 232.496 501.84 235.24 501.285C235.33 493.127 235.574 482.623 235.245 474.56C226.313 473.949 217.82 474.381 209.158 473.994C209.063 482.458 210.016 491.714 210.12 500.417ZM198.018 241.647C196.653 241.826 194.641 241.761 194.096 242.837C189.706 251.51 185.17 262.767 181.378 271.61C165.918 308.079 150.682 344.643 135.67 381.3C129.334 396.404 122.649 411.194 116.86 426.547C113.536 435.362 108.175 444.363 105.376 453.399C108.792 453.46 112.208 453.497 115.625 453.512C124.048 453.681 132.469 453.927 140.887 454.252C138.965 434.516 140.674 412.322 139.234 392.342C138.976 388.768 138.771 383.579 138.942 380.018C145.602 378.706 153.008 379.387 159.825 379.473C171.688 379.621 183.947 380.498 195.799 380.513L198.708 309.502C199.048 301.749 202.965 244.782 201.547 241.749C200.154 241.297 199.463 241.491 198.018 241.647ZM182.178 455.897C189.331 456.018 196.946 456.009 204.057 456.284C204.031 448.687 204.337 434.521 203.587 427.53C199.814 427.427 183.07 427.133 180.521 426.538C180.742 435.641 181.478 446.767 182.178 455.897ZM166.49 506.158C158.835 505.298 146.16 504.17 138.568 504.124C138.525 513.602 138.959 522.968 138.961 532.434C146.109 532.778 160.117 533.51 167.043 534.542C166.955 525.126 166.533 515.418 166.49 506.158ZM204.433 500.269C204.188 491.542 203.999 482.283 203.503 473.587C197.538 473.441 186.183 473.399 180.369 472.535C179.608 481.367 180.312 490.721 181.075 499.569C187.538 499.847 198.84 499.672 204.433 500.269ZM167.4 233.045C176.081 237.524 180.108 237.181 189.543 236.336C190.764 233.724 191.738 232.134 193.225 229.716C190.717 226.553 188.638 223.627 188.438 219.396C188.379 218.158 188.887 215.201 188.46 214.852C181.049 215.423 165.076 217.812 157.675 219.508C159.29 225.271 162.53 229.599 167.4 233.045ZM261.41 425.566C262.06 417.3 262.307 406.386 261.97 398.109C253.725 397.36 246 397.982 238.334 397.446C237.984 402.866 239.049 418.164 239.589 424.094C246.83 424.65 254.226 424.924 261.41 425.566ZM132.713 503.763C126.037 503.266 119.265 502.818 112.604 502.235C112.114 510.733 113.432 522.243 114.154 530.861C116.784 531 131.492 531.504 133.038 531.827C133.107 523.286 133.13 512.278 132.713 503.763ZM905.012 649.385L914.021 648.528C910.506 647.951 908.662 647.65 905.121 647.563C905.23 648.782 905.467 648.687 905.012 649.385ZM233.072 423.621C232.771 414.822 232.561 406.02 232.442 397.217C226.401 396.957 213.362 397.191 208.197 396.632L209.152 422.428C216.309 422.901 226.028 423.701 233.072 423.621ZM580.9 699.924C583.305 698.655 584.658 696.046 583.395 693.507C581.725 690.148 572.886 690.926 569.72 690.951C550.256 691.106 530.702 690.588 511.247 691.09C508.682 692.811 507.379 694.578 508.566 697.852C510.3 699.786 511.33 699.963 513.907 699.988C530.65 700.15 547.385 699.922 564.131 700.269C569.188 700.373 576.061 700.741 580.9 699.924ZM793.027 441.019L793.121 438.945C794.292 434.878 795.695 431.834 799.522 429.539C802.104 427.975 805.235 427.597 808.116 428.502C812.299 429.809 814.375 432.719 816.345 436.338C817.955 443.289 817.003 448.397 812.002 453.79L809.368 455.683C805.336 456.532 804.445 456.318 800.653 454.673C795.296 450.418 793.771 447.573 793.027 441.019ZM155.073 455.378C162.324 455.772 169.522 455.768 176.778 455.915C176.247 445.999 175.595 436.091 174.822 426.192C168.322 426.138 161.652 425.697 155.121 425.496C154.497 431.379 154.771 448.961 155.073 455.378ZM826.715 653.59C820.881 653.074 809.678 653.548 802.965 653.393L805.244 652.325L805.378 651.357C803.364 648.892 798.235 649.879 794.969 648.139L794.999 646.88C791.741 645.704 753.462 646.417 747.638 646.494L744.772 646.194C737.595 646.119 730.418 646.097 723.241 646.128C719.423 646.002 712.409 646.299 709.449 644.316C707.422 639.847 708.201 622.548 707.796 616.4C689.395 616.025 642.228 621.395 626.707 631.637C648.085 642.082 697.537 649.068 721.807 650.361C746.681 652.561 771.634 653.737 796.605 653.885C803.575 653.98 820.251 654.424 826.715 653.59ZM203.028 422.376L202.792 396.529C195.243 395.814 186.383 396.01 178.689 395.963C178.492 402.517 179.705 414.408 180.267 421.369C183.288 421.485 201.376 421.948 203.028 422.376ZM239.515 429.516C239.382 438.677 239.574 447.839 240.091 456.986C246.741 457.136 255.007 457.598 261.491 457.378C261.581 450.043 262.072 438.099 261.534 431.133C254.946 430.353 244.922 430.486 239.515 429.516ZM132.588 498.288C132.52 491.649 132.722 477.145 131.872 470.961C124.973 470.185 117.322 470.974 111.244 470.23L112.08 497.276C118.911 497.717 125.747 498.054 132.588 498.288ZM202.492 207.16C199.34 208.491 197.119 209.875 195.708 213.196C194.519 216.057 194.523 219.275 195.721 222.132C198.201 228.18 202.922 229.212 208.777 228.196C212.227 226.546 214.588 225.082 216.019 221.249C217.074 218.371 216.871 215.182 215.458 212.461C212.631 207.047 207.913 206.566 202.492 207.16ZM855.881 233.316C859.694 230.597 867.153 223.66 864.539 218.539C860.33 215.786 843.39 215.563 836.68 213.31C837.103 219.572 837.273 222.644 832.912 227.677C832.307 228.373 831.693 229.061 831.072 229.743C832.305 232.306 832.89 233.514 834.538 235.924C842.024 236.387 848.902 237.021 855.881 233.316ZM165.479 472.596C156.776 471.55 146.635 471.491 137.844 471.373C137.842 479.238 137.936 490.674 138.582 498.408C145.219 499.073 160.654 499.766 166.366 501.08C165.595 495.624 165.47 478.385 165.479 472.596ZM637.906 602.09C635.28 607.998 631.744 615.845 629.961 621.981C648.248 615.858 670.274 613.121 689.39 610.876C691.493 610.81 693.422 610.606 695.51 610.403C698.156 610.173 700.807 610.017 703.462 609.938C705.721 609.507 705.338 609.917 706.813 608.589C707.752 606.56 707.216 604.337 706.984 602C707.28 597.612 706.553 585.671 706.402 580.713C706.651 559.326 705.332 534.712 704.816 513.15C704.587 502.05 704.211 490.954 703.689 479.865C703.509 475.464 703.533 468.154 702.869 464.089C701.495 464.795 700.111 465.54 698.696 466.153C696.299 470.846 694.815 475.318 692.668 480.044L677.194 513.922C664.978 541.028 652.987 566.696 641.398 594.26L639.915 597.577L637.906 602.09ZM116.043 595.932C118.964 596.022 132.737 596.289 134.79 596.957C134.95 591.473 134.732 575.073 134.036 569.641C127.938 568.975 121.201 568.137 115.108 567.955C115.134 577.399 115.88 586.56 116.043 595.932ZM181.216 504.832C180.919 512.823 181.496 527.889 182.073 536.057C186.753 536.048 202.558 535.354 205.53 535.699C205.432 526.902 205.325 514.235 204.689 505.552C197.626 505.378 188.125 505.408 181.216 504.832ZM806.555 449.678C812.978 445.884 813.21 434.784 803.911 434.015C801.78 435.058 800.56 435.733 799.689 438.08C798.79 440.524 798.965 443.235 800.17 445.543C801.704 448.505 803.36 449.312 806.555 449.678ZM213.11 563.351C216.248 563.417 233.522 563.643 235.818 564.343C235.301 557.145 235.435 548.391 235.44 541.097C227.718 541.05 219.769 540.905 212.065 541.008C211.982 546.743 212.367 557.643 213.11 563.351ZM181.991 541.535C181.965 548.428 182.03 555.322 182.188 562.214L189.25 562.512C195.063 562.704 201.204 563.009 206.994 562.984C206.712 555.985 206.572 548.144 206.079 541.207L202.079 541.247C195.384 541.387 188.688 541.482 181.991 541.535ZM909.853 631.412C909.185 629.477 908.823 613.404 908.641 610.083L908.33 604.384C908.562 598.833 907.692 587.797 907.412 581.77C907.505 578.898 907.309 576.938 907.054 574.111C906.54 557.317 905.897 535.706 904.509 519.34L904.511 517.507C904.303 504.042 903.121 478.374 901.535 465.415C890.322 459.435 880.09 453.485 869.13 447.094C867.285 445.169 850.325 435.308 847.372 433.706C834.613 425.648 817.19 415.005 803.766 408.4C799.978 411.08 794.201 414.011 790.003 416.314C781.64 420.871 773.308 425.486 765.01 430.161C759.73 432.644 754.24 435.794 749.091 438.613C735.489 445.578 721.956 452.676 708.492 459.904C709.667 466.652 709.289 484.673 709.727 492.44C711.517 524.175 711.331 556.359 713.08 588.08C713.059 603.764 714.696 620.644 714.47 635.847L714.611 639.337C716.852 639.453 718.934 639.592 721.183 639.533C722.616 639.59 724.952 639.766 726.268 639.548C747.223 640.123 773.636 640.782 794.461 639.961C793.997 626.759 793.615 613.553 793.317 600.346C793.115 594.104 791.927 580.387 793.143 575.225C794.427 574.171 795.465 573.827 797.117 573.619C799.679 573.297 817.59 574.209 820.89 574.562C822.207 574.704 824.916 574.973 825.689 576.19C828.768 581.04 828.683 630.025 829.331 640.109C851.778 640.316 877.417 641.432 899.509 640.949L900.629 640.935C903.75 641.226 907.011 641.253 910.155 641.342C910.069 638.076 909.849 636.08 909.418 632.839L909.853 631.412ZM706.832 443.411L715.249 439.055C742.75 424.359 771.534 410.269 798.521 394.872C801.903 367.395 804.204 338.697 807.208 311.003C809.633 288.649 813.149 263.334 814.874 241.126C810.695 240.996 806.944 240.821 802.78 240.483C800.274 244.673 798.24 248.973 796.1 253.356C788.187 269.559 780.151 285.651 772.405 301.936L706.832 443.411ZM201.565 380.555C207.749 381.391 216.362 381.028 222.793 381.144L255.764 381.944C259.975 382.016 274.94 381.545 277.499 384.176C279.132 389.335 277.895 401.703 277.67 407.704C277.308 418.012 277.001 428.321 276.748 438.632C276.567 444.689 276.044 451.442 276.436 457.41C283.365 458.458 300.319 458.084 308.375 458.338L321.549 458.58C316.398 446.271 309.774 432.869 304.125 420.638L263.092 332.262C253.508 311.31 244.245 290.052 234.089 269.372C230.443 261.948 223.897 246.803 219.527 240.446L212.361 240.71L207.998 241.202C206.418 243.307 205.894 289.461 205.566 296.229C204.209 324.225 202.362 352.577 201.565 380.555ZM108.066 615.739C108.524 617.485 109.397 639.152 109.586 642.383C129.394 642.784 149.209 642.562 169.003 641.717C169.02 634.777 168.568 627.083 168.286 620.089C161.254 620.129 115.211 622.869 112.353 620.856C111.261 616.255 111.271 609.067 111.091 604.108L110.189 579.708L106.197 465.139C113.602 464.271 123.848 464.896 131.486 465.155L170.911 466.61C171.859 475.943 171.851 495.072 172.1 505.103L173.775 594.301C173.833 597.999 172.983 612.772 174.125 615.195L174.895 614.999C175.52 612.332 175.25 597.75 175.452 593.857C175.691 586.628 176.286 579.381 176.374 572.149C176.677 547.302 175.114 522.529 175.46 497.67C175.602 487.479 174.456 477.052 174.797 466.864C181.84 466.798 191.352 467.687 198.691 467.964C212.996 468.433 227.305 468.792 241.615 469.042C240.784 475.701 241.154 482.875 241.194 489.609L241.225 516.343C241.331 530.041 240.864 543.554 241.082 557.414C241.388 576.808 242.445 595.402 243.283 614.683C267.456 615.88 294.06 613.897 318.364 613.272C318.808 603.523 318.322 592.525 318.166 582.749L317.402 539.244C317.202 531.085 316.662 522.737 316.931 514.576C316.414 510.798 316.397 496.42 316.459 492.137C316.561 485.121 315.929 470.98 316.752 464.617C260.748 462.517 204.415 463.163 148.367 460.683C133.128 460.009 117.266 459.434 102.037 459.528C101.005 461.935 100.98 466.384 100.756 469.077C100.67 470.112 99.1249 469.024 99.1713 470.827C99.2633 474.401 99.3868 478.182 99.6781 481.721C100.101 486.858 101.449 491.952 102.057 497.081C102.954 504.658 101.078 516.173 104.072 523.186C105.161 526.64 105.998 550.648 105.566 554.774C103.913 570.071 102.184 578.28 105.263 593.565L105.348 593.278C106.93 601.873 105.238 609.403 108.066 615.739ZM133.927 564.086L133.277 537.153C127.885 536.767 119.658 535.944 114.461 536.034C114.548 544.979 115.053 554.02 115.067 562.859C121.118 563.66 127.792 563.806 133.927 564.086ZM807.975 231.488L806.233 234.063L806.503 234.805C808.068 235.372 811.196 234.995 813.101 235.056L813.759 234.719C812.31 233.9 808.967 232.315 807.975 231.488ZM32.7651 628.517L38.8859 626.775C56.6359 621.573 83.8741 619.17 102.512 616.744C102.412 609.787 101.606 602.089 101.277 594.957L98.6682 533.596L97.071 488.033C96.9998 485.784 97.0142 474.076 96.7007 472.839C85.3321 501.911 73.4778 530.792 61.1428 559.467L45.9046 595.766C41.8092 605.475 36.0992 618.687 32.7651 628.517ZM140.539 602.574C140.407 606.961 140.315 610.628 140.519 614.999C149.656 614.92 158.791 614.672 167.919 614.254C167.87 611.538 167.892 607.858 167.661 605.223C162.653 604.762 144.599 603.485 140.539 602.574ZM804.558 391.341C818.444 397.64 830.145 404.881 843.322 412.479C855.375 419.275 867.36 426.191 879.275 433.225C892.867 441.328 906.538 449.951 920.301 457.716C922.302 459.125 926.634 462.588 928.728 462.698C929.901 460.148 921.803 443.892 920.224 439.854C913.883 423.634 906.268 407.988 899.066 392.155L855.681 295.084C848.185 278.465 838.28 258.829 831.486 242.266C828.16 242.106 823.896 242.031 820.71 241.433C819.364 260.249 816.369 282.638 814.308 301.539L804.558 391.341ZM149.087 455.113C149.92 446.103 147.511 393.51 149.123 390.683C152.192 389.045 170.164 389.889 175.111 389.947L223.56 390.826C232.053 391.021 259.471 391.075 266.386 392.619C269.941 397.214 264.813 452.597 267.455 456.775C268.831 457.671 268.764 457.566 270.432 457.502C271.684 455.533 271.557 421.177 271.828 415.966C272.215 408.523 272.502 396.188 272.452 388.698C261.765 387.791 146.767 384.737 145.183 385.44C141.927 390.446 143.56 416.259 143.696 423.609C143.867 432.9 141.964 445.445 143.27 454.276C144.468 455.617 147.59 456.156 149.087 455.113ZM116.189 600.693C116.054 605.79 115.986 610.41 116.578 615.492C122.939 615.501 129.108 615.529 135.467 615.263C135.323 610.902 135.003 606.499 134.92 602.168C128.34 601.285 122.562 601.367 116.189 600.693ZM954.845 522.882L953.7 519.855C948.144 505.459 937.89 485.189 933.979 471.109C929.304 472.082 924.646 473.133 920.006 474.261C915.244 472.937 912.766 471.656 908.464 469.128C908.134 480.181 909.273 491.673 909.941 502.758C910.274 508.276 910.329 516.573 911.04 521.847C911.308 536.837 912.432 552.789 913.13 567.812C913.456 574.831 913.586 586.937 914.347 593.548C914.495 598.325 914.606 603.103 914.681 607.882C930.832 608.978 980.839 614.476 994.533 621.15C993.035 614.705 988.783 604.502 986.199 597.95C983.201 590.35 979.8 580.892 976.405 573.654L954.845 522.882ZM916.498 648.082C932.673 646.687 969.533 640.979 984.841 635.826C987.766 634.9 994.88 632.981 996.681 630.954C992.728 621.283 927.412 614.278 915.472 614.056C915.485 625.497 916.534 636.572 916.498 648.082ZM174.742 421.206C174.121 413.47 173.908 403.483 172.946 396.05C166.661 395.469 160.445 395.53 154.137 395.488C153.825 403.809 153.994 412.141 154.643 420.443C161.622 420.954 168.031 420.806 174.742 421.206ZM383.109 881.952C466.102 900.35 572.613 897.532 655.106 878.144C654.944 875.469 654.951 870.744 653.552 868.611L653.11 868.585C630.166 874.721 615.569 876.741 591.832 879.585C542.354 885.664 492.348 886.125 442.767 880.959C431.136 879.772 419.543 878.236 408.004 876.352C400.495 875.089 389.851 872.843 382.538 872.212C382.154 874.833 381.542 878.965 381.976 881.475C382.261 881.607 382.837 881.911 383.109 881.952ZM804.422 402.407C807.731 404.178 811.007 406.007 814.25 407.895C844.973 424.195 873.809 444.011 904.436 460.494C909.365 463.146 915.314 467.501 920.97 467.619L921.814 467.116C921.418 465.536 919.649 464.52 918.284 463.695C893.82 449.081 869.242 434.659 844.552 420.429C831.263 412.698 819.104 405.015 805.581 397.615L736.123 434.409C722.952 441.312 709.782 448.289 696.737 455.441C695.323 456.216 694.074 457.616 693.162 458.933L693.308 459.571C699.649 460.005 739.232 437.337 747.98 432.757C761.402 425.837 774.742 418.762 788 411.533C793.577 408.493 799.11 405.903 804.422 402.407ZM319.036 639.09C319.035 635.682 319.317 621.068 318.35 618.904L318.071 618.779C295.396 619.795 272.709 620.535 250.016 620.999C249.938 623.982 249.344 638.688 250.746 640.458L251.375 640.529C272.261 640.392 298.26 640.205 319.036 639.09ZM815.893 206.645C809.859 208.395 806.393 214.712 808.159 220.741C809.925 226.771 816.252 230.22 822.276 228.437C828.277 226.661 831.71 220.364 829.951 214.359C828.191 208.353 821.904 204.903 815.893 206.645ZM324.342 644.467C304.107 645.355 283.863 646.005 263.612 646.418C253.058 646.602 242.444 646.463 231.888 646.65C229.879 646.685 229.915 646.584 228.638 647.595C228.601 649.051 228.729 648.976 228.196 650.299C224.4 650.722 196.109 651.842 193.222 651.254C192.399 650.082 192.509 649.035 192.413 647.576C191.174 647.003 181.496 647.467 179.502 647.511C161.947 648.068 144.385 648.408 126.82 648.531C123.89 648.532 105.901 649.01 104.882 646.793C102.591 641.803 102.969 629.369 102.876 623.431C92.5134 623.721 37.2502 629.928 30.7366 636.728C30.8779 644.353 74.3919 650.394 81.1752 651.329C119.336 655.863 157.72 658.258 196.149 658.504C250.538 659.059 310.735 654.512 364.193 644.267C371.664 642.836 391.588 637.102 397.165 632.317C394.661 628.625 379.133 625.981 374.269 625.048C363.1 622.919 351.841 621.292 340.526 620.173C335.55 619.655 328.851 619.335 324.191 618.679C324.367 625.547 324.924 637.967 324.342 644.467ZM324.162 612.317C350.133 616.03 368.622 615.81 395.131 624.08L395.599 623.774C392.968 615.991 387.689 604.897 384.212 597.071L365.142 554.394L339.392 498.219C337.264 493.523 325.335 465.542 323.03 463.391C320.568 469.494 322.593 505.132 322.946 514.278C324.209 546.972 323.332 579.661 324.162 612.317ZM210.622 505.957C210.473 514.485 211.563 526.279 211.765 535.476C219.621 535.57 227.689 535.411 235.494 535.677C235.45 526.287 235.636 515.831 235.303 506.532C227.134 506.329 218.777 506.029 210.622 505.957ZM139.576 570.399C139.893 579.393 139.931 588.355 140.163 597.348C148.698 598.277 159.292 599.651 167.697 600.103C168.051 592.267 168.164 581.164 167.94 573.246C161.069 572.369 146.248 570.539 139.576 570.399ZM139.092 537.911C139.175 546.784 139.624 555.563 139.651 564.447C142.713 565.06 165.297 568.007 167.924 567.839C167.898 559.69 168.235 547.647 167.652 539.806C158.369 539.125 148.339 538.206 139.092 537.911ZM182.12 568.375C181.929 582.356 182.456 606.193 180.011 619.314C178.122 619.592 175.969 619.97 174.084 620.065C174.571 627.278 174.565 634.284 174.718 641.5C180.978 641.5 187.243 641.562 193.496 641.266C193.675 628.773 192.505 613.993 192.163 601.457C191.61 581.189 191.737 575.5 214.399 576.31C220.386 576.524 224.533 580.591 225.965 586.198C226.24 600.409 227.368 614.419 227.81 628.61C227.937 632.678 228.046 636.71 228.286 640.773C234.111 640.929 238.655 640.753 244.458 640.461C244.457 634.026 244.649 626.365 244.385 620.03C242.291 619.771 240.671 619.804 238.968 618.635C236.402 614.777 236.133 576.658 235.841 569.203C218.423 568.974 199.34 568.177 182.12 568.375Z"/><path d="M509.743 187.798C517.749 186.402 525.411 191.632 527.027 199.597C528.644 207.561 523.626 215.365 515.709 217.2C510.39 218.432 504.822 216.679 501.169 212.621C497.516 208.564 496.355 202.842 498.137 197.682C499.92 192.521 504.365 188.736 509.743 187.798Z"/><path d="M244.145 469.262L271.264 469.998C281.41 470.273 291.562 470.299 301.709 470.076C304.094 470.019 309.589 469.284 311.508 470.766C312.315 471.389 312.389 519.516 312.298 524.165C312.049 536.868 313.584 551.354 311.988 563.653C311.966 571.085 313.763 601.083 311.844 606.225C309.647 608.11 291.347 607.946 287.194 608.105L248.596 609.691C247.901 605.967 247.705 598.275 247.505 594.211C246.912 583.651 246.546 573.079 246.407 562.503L244.6 494.351C244.345 486.059 244.64 477.486 244.145 469.262ZM281.061 539.371C281.061 543.928 280.783 566.685 281.435 569.72C282.134 569.961 282.175 570.064 282.878 570.074C290.128 569.64 299.514 568.454 306.337 568.388C306.391 564.526 306.84 539.514 305.961 537.732L305.033 537.731C297.175 538.21 288.883 538.664 281.061 539.371ZM289.385 533.121C293.845 532.853 301.897 532.572 306.027 531.791C306.788 525.681 306.552 509.659 306.366 502.981C303.471 502.995 299.527 502.909 296.736 503.213C291.341 503.501 285.365 503.928 279.999 504.064C279.935 511.633 280.006 526.132 281.103 533.569C283.829 533.486 286.695 533.48 289.385 533.121ZM275.759 602.887C275.796 599.38 276.108 578.395 275.446 576.462L275.055 576.205C267.452 576.659 259.842 576.982 252.228 577.174C251.981 582.938 252.827 597.642 253.594 603.532C261.113 603.485 268.376 602.968 275.759 602.887ZM251.59 541.136C251.426 546.104 251.703 566.712 252.425 571.54L260.349 571.308C265.267 571.067 270.614 570.88 275.494 570.432C275.402 560.284 275.384 550.135 275.439 539.987C272.234 540.041 268.525 540.018 265.374 540.282C261.15 540.478 255.718 540.611 251.59 541.136ZM306.004 497.297C306.605 491.07 306.592 482.353 306.297 476.038C297.463 475.749 288.3 475.951 279.438 476.03C279.424 482.273 279.243 492.729 280.196 498.582C288.832 498.32 297.415 497.556 306.004 497.297ZM251.001 505.165C251.312 515.283 251.511 525.403 251.597 535.526L257.119 535.442C262.424 534.865 269.693 534.397 275 534.42L274.692 504.059L269.83 504.22C263.555 504.575 257.279 504.89 251.001 505.165ZM251.046 499.509C258.931 499.491 266.562 499.121 274.441 498.758C274.15 491.191 273.983 483.619 273.938 476.047C266.259 475.842 258.101 475.492 250.461 475.609C250.082 483.505 251.118 491.598 251.046 499.509ZM306.006 574.288C297.697 574.394 289.518 575.217 281.24 575.709C281.282 583.263 281.142 595.241 281.633 602.523C289.311 602.494 299.261 602.238 306.892 601.369C306.878 597.345 307.135 576.673 306.303 574.408L306.006 574.288Z"/><defs><linearGradient id="gradient_0" gradientUnits="userSpaceOnUse" x1="766.28503" y1="663.12018" x2="851.39032" y2="537.3808"><stop offset="0" stop-color="#FCFCFB" stop-opacity="0.71764708"/><stop offset="1" stop-color="#FAFAFA" stop-opacity="0.90588236"/></linearGradient></defs><path fill="url(#gradient_0)" d="M766.654 480.143L767.209 479.406L768.313 480.918C769.052 483.062 769.112 483.751 770.619 485.337L771.754 485.506C775.501 482.554 774.202 479.953 778.535 480.065C777.653 485.222 778.846 513.779 781.002 517.188C782.555 518.071 782.488 518.029 784.246 518.392L786.03 520.026C784.772 520.069 780.909 520.039 780.036 520.479C777.162 526.619 779.893 536.586 780.325 543.292C780.572 547.119 779.892 556.825 782.41 559.235C783.914 559.126 783.284 559.391 784.407 558.52C793.236 558.874 801.619 557.801 809.756 557.977C817.979 558.154 821.845 561.608 828.566 556.508L829.337 556.586C829.906 558.364 829.793 558.423 831.339 559.579C831.891 557.793 829.49 554.857 831.445 551.193C833.636 549.931 834.829 551.153 836.983 552.31L837.846 551.594C838.174 553.945 838.044 555.78 839.268 557.686C840.526 558.165 840.195 558.327 841.063 558.031C844.793 558.381 847.871 558.54 851.62 558.642L851.982 559.459C848.657 563.723 849.496 566.014 854.613 567.682C850.343 568.003 844.021 567.333 841.105 569.659C839.336 573.905 841.762 598.239 842.801 603.621C850.448 605.029 861.747 605.093 869.691 605.05L865.54 605.752L866.235 605.84C870.699 606.439 871.432 608.657 877.318 608.523C882.308 608.41 885.47 609.168 889.31 612.367C892.34 612.887 894.072 612.933 897.133 613.04L896.842 613.159C899.947 614.201 902.536 615.078 905.796 615.48C906.628 613.828 907.665 611.6 908.641 610.083C908.823 613.404 909.185 629.477 909.853 631.412C903.542 630.75 904.839 634.058 902.561 634.255C898.474 634.609 884.838 633.97 881.942 637.256C882.765 637.674 882.34 637.483 883.217 637.829L881.547 638.141L881.42 638.479C887.691 639.181 893.583 640.266 899.509 640.949C877.417 641.432 851.778 640.316 829.331 640.109C828.683 630.025 828.768 581.04 825.689 576.19C824.916 574.973 822.207 574.704 820.89 574.562C817.59 574.209 799.679 573.297 797.117 573.619C795.465 573.827 794.427 574.171 793.143 575.225C791.927 580.387 793.115 594.104 793.317 600.346C793.615 613.553 793.997 626.759 794.461 639.961C773.636 640.782 747.223 640.123 726.268 639.548C728.533 638.96 735.042 637.956 736.04 637.566C733.835 637.552 731.596 637.645 729.44 637.247C730.731 636.409 732.262 636.555 733.868 636.48L734.12 636.147C730.643 635.153 728.036 635.688 724.512 634.964L724.483 634.408C726.252 633.328 727.381 634.712 729.951 634.057L729.753 633.593C726.44 632.488 722.755 630.833 719.497 629.458C717.198 629.896 716.779 633.624 714.47 635.847C714.696 620.644 713.059 603.764 713.08 588.08C713.642 590.284 713.55 590.203 715.179 591.75C716.52 592.071 717.337 592.193 718.423 590.978C718.967 596.839 719.367 599.149 726.364 599.064C728.449 599.039 730.763 599.037 732.87 599.021L733.313 599.173C734.867 599.72 736.536 600.509 737.907 601.436C740.605 603.259 743.217 601.66 746.046 602.396C744.224 602.594 740.46 602.822 738.971 603.535L739.267 604.149C742.694 605.246 747.397 605.52 749.319 601.85C749.102 600.558 749.18 600.585 748.451 599.522C752.662 599.637 761.872 600.466 765.01 598.44C766.69 594.481 768.434 569.15 767.803 564.905C765.51 562.391 763.02 562.595 759.573 562.175C761.242 560.909 761.96 558.478 763.641 556.227C765.668 556.745 766.531 556.997 767.527 555.105C767.592 553.307 767.077 552.597 766.313 550.96L766.011 550.324C765.977 550.392 766.615 549.174 766.551 549.26C769.729 545.013 768.436 519.68 766.042 516.907L765.335 517.116C763.416 512.169 755.418 513.163 750.617 512.869C751.349 509.116 754.643 509.6 754.705 505.827C752.471 505.463 745.231 505.002 743.752 504.314L748.026 503.988C771.828 503.867 766.181 503.27 766.654 480.143Z"/><defs><linearGradient id="gradient_1" gradientUnits="userSpaceOnUse" x1="1006.4402" y1="587.0011" x2="901.51672" y2="548.0365"><stop offset="0" stop-color="white" stop-opacity="0"/><stop offset="1" stop-color="#FDFCFB" stop-opacity="0.51764709"/></linearGradient></defs><path fill="url(#gradient_1)" d="M911.04 521.847C911.426 524.043 912.727 527.068 915.057 527.506C919.115 525.448 920.195 516.94 921.54 515.637C923.395 513.839 936.247 507.487 939.249 507.788C941.011 508.992 941.621 510.528 942.69 512.415L946.488 514.164C946.891 516.144 946.842 518.186 948.336 519.601C950.071 520.349 951.791 520.005 953.7 519.855L954.845 522.882C952.054 526.267 953.396 528.141 955.415 531.484C954.861 534.995 954.33 537.796 954.9 541.386C961.087 544.522 954.832 548.239 961.484 554.149C962.195 557.249 970.323 574.957 971.904 576.792L972.321 576.647C972.008 574.263 971.744 569.828 970.018 568.245C966.701 565.204 968.699 563.377 967.539 560.386C964.962 553.742 958.251 541.331 957.672 534.63L958.174 533.821L958.877 534.363C958.906 534.998 959.053 536.47 959.335 536.983C965.854 548.85 969.652 562.017 975.646 574.175C976.272 573.975 976.023 574.155 976.405 573.654C979.8 580.892 983.201 590.35 986.199 597.95C988.783 604.502 993.035 614.705 994.533 621.15C980.839 614.476 930.832 608.978 914.681 607.882C914.606 603.103 914.495 598.325 914.347 593.548C913.586 586.937 913.456 574.831 913.13 567.812C912.432 552.789 911.308 536.837 911.04 521.847Z"/><path fill="white" fill-opacity="0.19607843" d="M698.696 466.153C700.111 465.54 701.495 464.795 702.869 464.089C703.533 468.154 703.509 475.464 703.689 479.865C704.211 490.954 704.587 502.05 704.816 513.15C705.332 534.712 706.651 559.326 706.402 580.713C704.864 589.797 703.063 591.284 703.255 601.005C704.08 599.002 703.903 598.512 705.354 597.344C706.693 599.652 703.327 602.513 700.477 602.673C695.15 602.972 689.901 601.805 684.663 600.906C685.58 601.064 682.874 602.445 682.875 602.445L682.221 601.391L682.443 602.562C684.709 604.023 690.931 607.347 691.968 609.006C693.586 609.29 694.936 609.472 696.567 609.66L695.51 610.403C693.422 610.606 691.493 610.81 689.39 610.876L689.334 610.539C688.702 609.562 688.863 609.881 687.884 609.413C671.495 601.577 669.168 609.252 654.844 612.929C652.413 613.553 650.215 613.302 648.067 611.771C645.538 608.058 651.253 605.147 641.71 605.28C641.082 605.288 638.611 602.784 637.906 602.09L639.915 597.577C641.056 599.166 640.74 599.329 642.185 599.651L642.698 598.923C642.841 596.555 642.671 596.285 641.398 594.26C652.987 566.696 664.978 541.028 677.194 513.922L692.668 480.044C694.815 475.318 696.299 470.846 698.696 466.153ZM668.392 543.887C667.697 548.72 663.127 551.29 662.709 556.12C663.788 556.998 664.199 557.31 665.381 558.034L665.772 560.343L666.352 560.475L668.232 558.614L668.857 558.963C669.37 561.027 669.209 561.517 669.003 563.694C669.341 562.07 669.605 559.955 670.319 558.57C672.904 556.055 677.734 542.985 676.424 539.748L675.867 539.855C675.869 538.324 675.909 538.159 675.565 536.69L674.413 537.048L674.546 534.938L673.964 534.554C672.327 536.413 670.45 541.128 668.392 543.887Z"/><defs><linearGradient id="gradient_2" gradientUnits="userSpaceOnUse" x1="670.52338" y1="542.04309" x2="675.55493" y2="545.56012"><stop offset="0" stop-color="white" stop-opacity="0.043137256"/><stop offset="1" stop-color="#FFFEFD" stop-opacity="0.16470589"/></linearGradient></defs><path fill="url(#gradient_2)" d="M668.392 543.887C670.45 541.128 672.327 536.413 673.964 534.554L674.546 534.938L674.413 537.048L675.565 536.69C675.909 538.159 675.869 538.324 675.867 539.855L676.424 539.748C677.734 542.985 672.904 556.055 670.319 558.57C669.144 554.44 673.883 553.364 668.392 543.887Z"/><defs><linearGradient id="gradient_3" gradientUnits="userSpaceOnUse" x1="666.93866" y1="552.1261" x2="670.53265" y2="555.34821"><stop offset="0" stop-color="#FFFFFE" stop-opacity="0.098039217"/><stop offset="1" stop-color="#FFFEFE" stop-opacity="0.19215687"/></linearGradient></defs><path fill="url(#gradient_3)" d="M670.319 558.57C669.605 559.955 669.341 562.07 669.003 563.694C669.209 561.517 669.37 561.027 668.857 558.963L668.232 558.614L666.352 560.475L665.772 560.343L665.381 558.034C664.199 557.31 663.788 556.998 662.709 556.12C663.127 551.29 667.697 548.72 668.392 543.887C673.883 553.364 669.144 554.44 670.319 558.57Z"/><path fill="white" fill-opacity="0.56078434" d="M786.524 437.919C788.091 439.504 790.635 441.703 793.027 441.019C793.771 447.573 795.296 450.418 800.653 454.673C798.043 463.284 805.587 460.187 810.253 458.299L810.53 457.357C810.122 456.673 809.926 456.149 809.368 455.683L812.002 453.79C812.653 455.535 812.892 455.816 814.512 456.33C815.612 455.904 816.431 455.605 817.558 455.263L818.261 455.928C818.858 458.733 816.229 460.627 817.732 462.868C819.629 462.702 819.391 462.247 820.845 461.233C833.149 452.654 848.973 442.732 863.761 451.865C865.145 452.719 865.04 452.768 866.727 452.985C870.436 453.279 871.57 457.192 877.181 458.716C878.689 460.259 880.443 461.602 880.319 463.987C880.011 469.869 864.131 474.227 859.934 472.53C853.931 470.103 850.491 467.73 843.435 466.36C842.359 467.851 839.601 471.203 839.311 472.625L839.74 473.526C836.629 476.136 835.657 474.945 832.391 475.781C831.949 475.894 827.154 479.002 826.185 479.58C825.296 478.305 825.448 478.206 825.095 476.636C823.835 476.408 822.994 476.859 821.764 477.284L821.071 476.132L820.53 477.148C818.956 477.289 816.743 477.038 816.053 477.759C817.965 478.629 819.906 477.924 822.197 478.401C809.929 478.867 797.666 479.484 785.388 479.575C782.997 479.592 780.903 479.656 778.535 480.065C774.202 479.953 775.501 482.554 771.754 485.506L770.619 485.337C769.112 483.751 769.052 483.062 768.313 480.918C768.075 476.832 768.385 476.223 770.046 472.451C771.373 469.438 770.263 467.68 768.952 464.966C766.765 460.437 768.518 456.272 770.132 451.863C779.272 445.876 776.462 449.537 783.323 450.627C782.154 448.081 781.08 447.926 781.091 445.812C783.882 444.641 781.115 446.453 783.922 446.015C784.438 444.584 784.27 444.807 784.136 443.179C783.994 443.098 782.425 442.546 782.233 442.477C782.199 442.094 782.306 441.704 782.436 441.342C783.033 439.683 785.111 438.743 786.524 437.919Z"/><path d="M838.071 539.091C830.371 537.377 836.831 511.567 838.372 506.221C839.004 512.482 838.053 515.975 845.218 516.724C848.198 522.817 851.638 519.036 854.942 522.315C863.532 522.748 888.316 520.029 893.2 523.533C894.121 531.696 893.218 541.592 893.358 549.893C893.427 553.998 891.386 555.315 887.627 555.749C875.554 556.612 863.653 557.341 851.62 558.642C847.871 558.54 844.793 558.381 841.063 558.031C836.939 553.638 839.249 546.071 838.071 539.091ZM868.153 551.102C874.57 550.828 880.979 550.387 887.373 549.779C888.418 545.137 887.948 532.722 887.865 527.544C881.299 527.45 874.732 527.48 868.168 527.633C868.144 535.23 867.948 543.564 868.153 551.102ZM843.404 528.485C843.715 535.892 844.189 545.061 844.779 552.485C848.731 552.38 852.68 552.19 856.624 551.914L863.035 551.437C863.035 543.62 862.849 535.805 862.476 527.998C858.267 528.062 853.89 528.065 849.7 528.269L843.404 528.485Z"/><path fill="white" d="M838.071 539.091C830.371 537.377 836.831 511.567 838.372 506.221C839.004 512.482 838.053 515.975 845.218 516.724C848.198 522.817 851.638 519.036 854.942 522.315C850.621 522.535 840.916 521.871 838.271 523.951C836.461 527.132 837.784 534.894 838.071 539.091Z"/><path d="M737.951 553.928C736.45 555.114 735.311 556.264 733.275 555.982C731.434 554.141 732.975 553.649 731.232 550.865C727.419 549.002 718.094 552.1 714.176 547.665C713.312 542.671 714.64 518.514 716.431 513.523C719.28 511.521 744.836 513.011 750.617 512.869C755.418 513.163 763.416 512.169 765.335 517.116L766.042 516.907C768.436 519.68 769.729 545.013 766.551 549.26C766.615 549.174 765.977 550.392 766.011 550.324L766.313 550.96C767.077 552.597 767.592 553.307 767.527 555.105C766.531 556.997 765.668 556.745 763.641 556.227C761.774 554.295 761.406 554.17 760.607 551.69C756.527 551.164 743.781 550.32 740.26 551.392C739.15 553.48 739.758 553.068 737.951 553.928ZM757.451 544.987C759.31 542.725 758.602 523.788 758.494 520.007C753.354 519.453 749.272 519.443 744.129 519.402C743.641 527.408 743.315 536.585 742.256 544.427C747.379 544.735 752.309 545.097 757.451 544.987ZM720.614 543.712C725.421 543.596 730.552 543.786 735.383 543.881C737.539 535.925 737.372 527.214 737.848 519.052C735.194 518.954 732.538 518.889 729.882 518.857C727.396 518.838 722.594 518.45 721.014 520.002L720.739 521.342C720.321 526.747 720.221 532.304 720.05 537.732C720.104 539.606 720.41 541.817 720.614 543.712Z"/><path fill="white" d="M765.335 517.116L766.042 516.907C768.436 519.68 769.729 545.013 766.551 549.26C766.615 549.174 765.977 550.392 766.011 550.324L766.313 550.96C767.077 552.597 767.592 553.307 767.527 555.105C766.531 556.997 765.668 556.745 763.641 556.227C761.774 554.295 761.406 554.17 760.607 551.69C767.353 548.583 765.275 524.5 765.335 517.116Z"/><defs><linearGradient id="gradient_4" gradientUnits="userSpaceOnUse" x1="729.2572" y1="530.85333" x2="722.71112" y2="529.27808"><stop offset="0" stop-color="#FCFCFA" stop-opacity="0.27843139"/><stop offset="1" stop-color="#FEFDFD" stop-opacity="0.36470589"/></linearGradient></defs><path fill="url(#gradient_4)" d="M720.739 521.342L721.179 523.231C726.578 522.922 726.622 522.723 731.515 524.883C731.72 532.067 732.907 542.101 722.664 535.262L721.203 535.306L720.647 536.014L720.05 537.732C720.221 532.304 720.321 526.747 720.739 521.342Z"/><path fill="white" fill-opacity="0.13725491" d="M721.014 520.002C723.256 519.977 730.974 521.81 732.503 523.308C737.951 528.646 731.996 547.18 723.367 537.878C722.349 536.781 721.993 536.646 720.647 536.014L721.203 535.306L722.664 535.262C732.907 542.101 731.72 532.067 731.515 524.883C726.622 522.723 726.578 522.922 721.179 523.231L720.739 521.342L721.014 520.002Z"/><path d="M836.875 483.111C837.152 481.047 837.094 480.816 838.173 479.111C841.094 477.416 879.242 478.369 885.753 478.364C887.771 478.431 891.541 478.357 892.16 480.024C894.089 485.22 893.631 506.557 893.344 511.539C889.812 515.061 879.49 514.553 874.459 514.886C864.698 515.532 854.987 515.879 845.218 516.724C838.053 515.975 839.004 512.482 838.372 506.221C838.499 504.569 837.908 500.031 837.678 498.365C837.537 493.274 837.27 488.188 836.875 483.111ZM886.118 507.873L887.769 507.674C889.091 505.521 888.355 487.959 888.116 484.299C882.147 483.957 876.506 484.115 870.538 484.218L868.308 484.533C867.416 486.568 868.181 505.529 868.258 509.047C874.138 508.763 880.294 508.588 886.118 507.873ZM844.436 510.442C850.246 510.078 856.635 509.546 862.412 509.477C863.381 508.09 862.141 486.901 861.895 484.071L842.652 483.787C843.2 492.675 843.794 501.56 844.436 510.442Z"/><path d="M854.613 567.682C866.43 568.228 880.591 568.141 892.492 567.904C893.956 568.314 895.282 568.328 895.774 569.667C897.769 575.093 895.597 592.455 896.826 596.896C896.958 599.642 897.459 601.008 895.334 602.976C889.942 603.952 883.649 603.995 878.08 604.605C875.964 604.594 874.03 604.567 871.911 604.703L869.691 605.05C861.747 605.093 850.448 605.029 842.801 603.621C841.762 598.239 839.336 573.905 841.105 569.659C844.021 567.333 850.343 568.003 854.613 567.682ZM889.964 597.706L890.774 597.372C891.402 593.744 890.962 578.525 890.882 574.057C884.379 573.63 876.61 573.262 870.101 573.693C870.375 582.39 871.147 590.618 871.568 599.189C877.651 598.86 883.943 598.577 889.964 597.706ZM847.073 588.208C847.155 590.901 847.422 596.077 847.884 598.69C851.795 599.879 861.8 599.473 866.294 599.432C865.669 590.933 865.813 581.504 865.011 573.511C858.921 573.401 852.455 573.529 846.336 573.55C846.414 578.769 846.434 582.998 847.073 588.208Z"/><path fill="white" fill-opacity="0.21176471" d="M853.488 580.632C857.88 582.111 863.71 582.864 861.899 590.106C861.082 593.375 858.043 597.431 854.231 597.201C853.875 596.942 853.202 596.532 853.009 596.215C852.825 594.847 852.659 594.176 852.119 592.922L851.709 591.99C853.415 585.365 855.953 588.709 853.488 580.632Z"/><path fill="white" fill-opacity="0.19607843" d="M853.488 580.632C855.953 588.709 853.415 585.365 851.709 591.99L852.119 592.922C852.659 594.176 852.825 594.847 853.009 596.215C851.528 595.02 851.183 594.578 849.308 594.115C847.455 595.191 847.906 596.606 847.884 598.69C847.422 596.077 847.155 590.901 847.073 588.208L847.363 588.393C852.426 587.282 852.404 585.295 853.488 580.632Z"/><path d="M748.026 503.988C739.058 501.984 725.748 505.353 716.621 502.689C714.64 502.111 713.21 498.096 713.691 496.488C715.869 489.21 713.784 474.349 716.999 468.133C719.016 466.161 748.051 466.996 752.957 466.913C766.325 467.11 766.995 466.233 766.654 480.143C766.181 503.27 771.828 503.867 748.026 503.988ZM719.87 497.107C725.663 497.171 730.546 497.174 736.346 496.869C737.576 489.916 738.099 480.296 737.843 473.181C732.303 473.005 726.759 472.953 721.216 473.026C720.535 481.315 719.924 488.776 719.87 497.107ZM742.964 497.331C748.523 497.457 754.084 497.408 759.64 497.185C760.877 488.832 760.758 481.983 760.493 473.607C754.908 473.429 749.321 473.373 743.734 473.441C743.876 482.04 743.583 488.717 742.964 497.331Z"/><path d="M778.535 480.065C780.903 479.656 782.997 479.592 785.388 479.575C797.666 479.484 809.929 478.867 822.197 478.401C824.269 479.228 824.887 479.302 825.791 481.383C826.061 485.928 826.379 494.805 827.06 498.917C826.827 504.073 829.177 511.808 826.289 515.908C825.875 516.496 823.389 516.927 822.54 517.077C820.951 517.089 818.303 516.973 816.872 517.417L784.246 518.392C782.488 518.029 782.555 518.071 781.002 517.188C778.846 513.779 777.653 485.222 778.535 480.065ZM805.135 492.056C805.595 496.453 805.648 500.384 805.734 504.781L806.267 511.512C811.38 511.53 816.765 511.232 821.868 510.883C821.452 502.064 821.185 493.052 820.362 484.284C815.441 484.977 809.475 485.195 804.442 485.505C804.523 488.004 804.775 489.61 805.135 492.056ZM784.331 492.633L784.394 493.518C784.526 497.111 784.783 500.699 785.164 504.275L785.371 507.626C785.397 509.096 785.241 510.87 786.011 511.858C790.224 512.295 796.655 511.968 801.046 511.874C800.183 503.059 799.649 494.215 799.442 485.36C794.114 485.418 789.357 485.504 784.022 485.851C784.047 488.096 784.207 490.388 784.331 492.633Z"/><path fill="white" fill-opacity="0.26274511" d="M784.394 493.518C787.551 492.565 793.15 489.807 794.843 494.643C795.611 496.835 795.07 501.205 794.928 503.655C792.036 503.871 787.977 504.281 785.164 504.275C784.783 500.699 784.526 497.111 784.394 493.518Z"/><path fill="white" fill-opacity="0.086274512" d="M784.331 492.633C795.692 482.682 797.68 494.431 797.498 503.762L797.027 504.351L795.757 504.324C795.304 505.651 794.877 506.93 794.353 508.234C789.797 507.28 789.411 507.848 785.371 507.626L785.164 504.275C787.977 504.281 792.036 503.871 794.928 503.655C795.07 501.205 795.611 496.835 794.843 494.643C793.15 489.807 787.551 492.565 784.394 493.518L784.331 492.633Z"/><path fill="white" fill-opacity="0.14117648" d="M805.135 492.056C807.286 491.498 808.096 491.165 810.133 490.253C812.347 492.082 814.418 493.339 814.945 496.212C813.764 499.341 809.522 499.185 806.474 499.534C806.141 501.335 806.026 503.265 805.734 504.781C805.648 500.384 805.595 496.453 805.135 492.056Z"/><defs><linearGradient id="gradient_5" gradientUnits="userSpaceOnUse" x1="634.27301" y1="650.48907" x2="720.20392" y2="626.62726"><stop offset="0" stop-color="white" stop-opacity="0"/><stop offset="1" stop-color="#FFFFFE" stop-opacity="0.14901961"/></linearGradient></defs><path fill="url(#gradient_5)" d="M626.707 631.637C642.228 621.395 689.395 616.025 707.796 616.4C708.201 622.548 707.422 639.847 709.449 644.316C712.409 646.299 719.423 646.002 723.241 646.128C725.419 646.32 727.599 646.485 729.782 646.621L729.609 647.081L730.846 646.696C730.002 646.637 726.185 648.159 725.207 648.598C723.6 649.127 723.192 649.465 721.807 650.361C697.537 649.068 648.085 642.082 626.707 631.637ZM693.406 632.49C691.032 633.258 685.637 634.681 684.301 636.635L684.797 638.676C681.538 640.514 676.505 636.876 672.814 638.387C676.033 639.183 679.324 639.966 683.61 641.134C692.37 643.521 707.422 647.132 701.437 631.493C701.276 631.26 701.116 631.028 700.956 630.795C701.09 632.586 701.225 633.654 701.03 635.467C700.106 635.749 700.291 635.534 699.001 635.099L699.178 635.141C696.836 633.769 695.971 633.423 693.406 632.49Z"/><path fill="white" fill-opacity="0.32549021" d="M700.956 630.795C701.116 631.028 701.276 631.26 701.437 631.493C707.422 647.132 692.37 643.521 683.61 641.134C679.324 639.966 676.033 639.183 672.814 638.387C676.505 636.876 681.538 640.514 684.797 638.676L684.301 636.635C685.637 634.681 691.032 633.258 693.406 632.49C695.971 633.423 696.836 633.769 699.178 635.141L699.001 635.099C700.291 635.534 700.106 635.749 701.03 635.467C701.225 633.654 701.09 632.586 700.956 630.795Z"/><path d="M736.44 559.939C739.827 561.917 754.63 561.971 759.573 562.175C763.02 562.595 765.51 562.391 767.803 564.905C768.434 569.15 766.69 594.481 765.01 598.44C761.872 600.466 752.662 599.637 748.451 599.522C743.444 599.535 737.916 599.208 732.87 599.021C730.763 599.037 728.449 599.039 726.364 599.064C719.367 599.149 718.967 596.839 718.423 590.978C718.498 585.943 718.748 580.184 718.787 575.243C718.935 556.898 720.961 561.123 736.44 559.939ZM745.42 593.211C748.062 593.322 759.01 593.845 760.646 593.175C761.243 585.195 761.581 577.199 761.658 569.197C756.491 568.31 750.816 568.013 745.564 567.874C745.655 575.342 744.909 586.631 745.42 593.211ZM738.953 571.841C739.007 569.689 739.336 569.741 738.468 568.105C737.113 567.348 737.069 567.311 735.514 567.352C733.788 567.394 732.062 567.421 730.336 567.432C728.555 567.285 727.408 567.003 725.778 567.703C724.346 570.871 724.439 588.846 724.756 592.88C729.706 592.997 734.593 592.663 739.607 592.867C739.433 590.135 739.151 587.286 738.917 584.548L738.953 571.841Z"/><path fill="white" fill-opacity="0.011764706" d="M745.564 567.874C750.816 568.013 756.491 568.31 761.658 569.197C761.581 577.199 761.243 585.195 760.646 593.175C759.01 593.845 748.062 593.322 745.42 593.211C744.909 586.631 745.655 575.342 745.564 567.874Z"/><path fill="white" fill-opacity="0.34117648" d="M724.756 592.88C724.439 588.846 724.346 570.871 725.778 567.703C727.408 567.003 728.555 567.285 730.336 567.432C735.693 568.647 736.77 571.614 738.953 571.841L738.917 584.548C738.453 581.995 738.18 580.25 737.379 577.757C736.825 594.25 725.242 581.265 724.756 592.88Z"/><path fill="white" fill-opacity="0.023529412" d="M724.756 592.88C725.242 581.265 736.825 594.25 737.379 577.757C738.18 580.25 738.453 581.995 738.917 584.548C739.151 587.286 739.433 590.135 739.607 592.867C734.593 592.663 729.706 592.997 724.756 592.88Z"/><path fill="white" fill-opacity="0.17254902" d="M730.336 567.432C732.062 567.421 733.788 567.394 735.514 567.352C737.069 567.311 737.113 567.348 738.468 568.105C739.336 569.741 739.007 569.689 738.953 571.841C736.77 571.614 735.693 568.647 730.336 567.432Z"/><path d="M786.03 520.026L787.841 520.164C788.425 521.317 788.238 520.711 788.406 521.983L788.862 522.316C795.357 522.56 807.621 522.602 813.662 521.475L814.605 521.455C818.466 521.535 825.487 520.814 827.994 522.913C829.673 527.004 828.735 530.708 829.433 534.756C829.552 532.95 829.639 531.142 829.696 529.333L830.091 529.159C832.046 533.209 831.811 540.132 830.145 544.241L829.719 544.272C830.012 548.236 830.855 553.116 829.337 556.586L828.566 556.508C824.485 556.909 812.691 557.39 809.756 557.977C801.619 557.801 793.236 558.874 784.407 558.52C783.284 559.391 783.914 559.126 782.41 559.235C779.892 556.825 780.572 547.119 780.325 543.292C779.893 536.586 777.162 526.619 780.036 520.479C780.909 520.039 784.772 520.069 786.03 520.026ZM799.234 552.281C800.673 552.145 802.931 552.169 803.943 551.474C803.953 544.038 802.929 536.05 802.713 528.413C798.125 528.182 794.7 528.105 790.117 528.262C788.74 528.399 787.608 528.222 786.848 528.971C787.666 535.088 788.595 547.31 789.661 552.48C792.514 552.437 796.478 552.496 799.234 552.281ZM808.005 529.167C808.198 535.959 808.732 544.786 809.42 551.579L815.125 551.535L824.408 551.285C824.321 543.457 823.602 535.783 823.413 528.022C821.816 528.06 818.967 528.038 817.482 528.212C814.343 528.5 811.122 528.746 808.005 529.167Z"/><path fill="white" d="M786.03 520.026L787.841 520.164C788.425 521.317 788.238 520.711 788.406 521.983L788.862 522.316C786.442 522.465 784.366 522.311 782.344 523.513C779.411 527.466 783.596 550.388 783.751 556.263C783.767 556.853 784.174 557.941 784.407 558.52C783.284 559.391 783.914 559.126 782.41 559.235C779.892 556.825 780.572 547.119 780.325 543.292C779.893 536.586 777.162 526.619 780.036 520.479C780.909 520.039 784.772 520.069 786.03 520.026Z"/><path fill="white" d="M829.433 534.756C829.552 532.95 829.639 531.142 829.696 529.333L830.091 529.159C832.046 533.209 831.811 540.132 830.145 544.241L829.719 544.272C829.511 540.985 829.46 538.049 829.433 534.756Z"/><defs><linearGradient id="gradient_6" gradientUnits="userSpaceOnUse" x1="704.02844" y1="511.41333" x2="749.39429" y2="516.28876"><stop offset="0" stop-color="white" stop-opacity="0"/><stop offset="1" stop-color="#FFFEFF" stop-opacity="0.039215688"/></linearGradient></defs><path fill="url(#gradient_6)" d="M708.492 459.904C721.956 452.676 735.489 445.578 749.091 438.613C749.538 441.138 749.716 440.199 748.753 442.4C746.716 444.059 744.89 443.834 743.059 445.307C737.069 451.633 739.104 451.82 741.347 459.861L741.943 460.162C746.25 462.298 751.694 462.24 752.957 466.913C748.051 466.996 719.016 466.161 716.999 468.133C713.784 474.349 715.869 489.21 713.691 496.488C713.21 498.096 714.64 502.111 716.621 502.689C725.748 505.353 739.058 501.984 748.026 503.988L743.752 504.314C745.231 505.002 752.471 505.463 754.705 505.827C754.643 509.6 751.349 509.116 750.617 512.869C744.836 513.011 719.28 511.521 716.431 513.523C714.64 518.514 713.312 542.671 714.176 547.665C718.094 552.1 727.419 549.002 731.232 550.865C732.975 553.649 731.434 554.141 733.275 555.982C735.311 556.264 736.45 555.114 737.951 553.928C737.764 554.857 736.767 559.259 736.44 559.939C720.961 561.123 718.935 556.898 718.787 575.243C718.748 580.184 718.498 585.943 718.423 590.978C717.337 592.193 716.52 592.071 715.179 591.75C713.55 590.203 713.642 590.284 713.08 588.08C711.331 556.359 711.517 524.175 709.727 492.44C709.289 484.673 709.667 466.652 708.492 459.904Z"/><defs><linearGradient id="gradient_7" gradientUnits="userSpaceOnUse" x1="913.23822" y1="469.62244" x2="933.12469" y2="523.58722"><stop offset="0" stop-color="white" stop-opacity="0"/><stop offset="1" stop-color="white" stop-opacity="0.05882353"/></linearGradient></defs><path fill="url(#gradient_7)" d="M908.464 469.128C912.766 471.656 915.244 472.937 920.006 474.261C924.646 473.133 929.304 472.082 933.979 471.109C937.89 485.189 948.144 505.459 953.7 519.855C951.791 520.005 950.071 520.349 948.336 519.601C946.842 518.186 946.891 516.144 946.488 514.164L942.69 512.415C941.621 510.528 941.011 508.992 939.249 507.788C936.247 507.487 923.395 513.839 921.54 515.637C920.195 516.94 919.115 525.448 915.057 527.506C912.727 527.068 911.426 524.043 911.04 521.847C910.329 516.573 910.274 508.276 909.941 502.758C909.273 491.673 908.134 480.181 908.464 469.128Z"/><defs><linearGradient id="gradient_8" gradientUnits="userSpaceOnUse" x1="755.46716" y1="439.05807" x2="772.62323" y2="460.09982"><stop offset="0" stop-color="#FDFCFB" stop-opacity="0.26666668"/><stop offset="1" stop-color="#F8F8F8" stop-opacity="0.70588237"/></linearGradient></defs><path fill="url(#gradient_8)" d="M743.059 445.307C750.598 445.218 763.649 430.384 773.151 431.196C776.831 431.51 776.742 430.778 777.675 434.075C780.063 435.866 783.286 436.182 786.524 437.919C785.111 438.743 783.033 439.683 782.436 441.342C782.306 441.704 782.199 442.094 782.233 442.477C782.425 442.546 783.994 443.098 784.136 443.179C784.27 444.807 784.438 444.584 783.922 446.015C781.115 446.453 783.882 444.641 781.091 445.812C781.08 447.926 782.154 448.081 783.323 450.627C776.462 449.537 779.272 445.876 770.132 451.863C768.518 456.272 766.765 460.437 768.952 464.966C770.263 467.68 771.373 469.438 770.046 472.451C768.385 476.223 768.075 476.832 768.313 480.918L767.209 479.406L766.654 480.143C766.995 466.233 766.325 467.11 752.957 466.913C751.694 462.24 746.25 462.298 741.943 460.162L741.347 459.861C739.104 451.82 737.069 451.633 743.059 445.307Z"/><path fill="white" fill-opacity="0.58039218" d="M893.555 523.471C896.116 522.233 895.196 520.954 897.629 520.378C898.785 521.248 898.904 521.326 900.211 521.943C902.717 521.559 902.371 521.232 904.509 519.34C905.897 535.706 906.54 557.317 907.054 574.111L905.938 572.997C904.6 573.307 904.279 573.404 902.943 573.09C897.257 575.315 898.377 591.284 896.826 596.896C895.597 592.455 897.769 575.093 895.774 569.667C895.282 568.328 893.956 568.314 892.492 567.904L893.384 566.99C894.001 564.953 892.361 562.251 891.607 560.21C890.649 557.62 890.367 556.526 887.627 555.749C891.386 555.315 893.427 553.998 893.358 549.893C893.218 541.592 894.121 531.696 893.2 523.533L893.555 523.471Z"/><defs><linearGradient id="gradient_9" gradientUnits="userSpaceOnUse" x1="829.34064" y1="435.97321" x2="834.63654" y2="458.60742"><stop offset="0" stop-color="#FEFDFC" stop-opacity="0.20784314"/><stop offset="1" stop-color="#FAF9F9" stop-opacity="0.52941179"/></linearGradient></defs><path fill="url(#gradient_9)" d="M816.345 436.338C821.04 435.685 820.535 430.337 827.137 434.349C827.677 434.681 828.211 435.024 828.737 435.377L834.597 433.322C836.82 434.296 840.127 435.337 842.047 436.316C843.629 437.074 845.04 436.726 846.708 436.411C847.307 437.835 846.944 437.896 846.511 439.759C850.681 441.297 850.982 440.5 852.466 444.566C856.725 446.079 864.46 448.997 866.727 452.985C865.04 452.768 865.145 452.719 863.761 451.865C848.973 442.732 833.149 452.654 820.845 461.233C819.391 462.247 819.629 462.702 817.732 462.868C816.229 460.627 818.858 458.733 818.261 455.928L817.558 455.263C816.431 455.605 815.612 455.904 814.512 456.33C812.892 455.816 812.653 455.535 812.002 453.79C817.003 448.397 817.955 443.289 816.345 436.338Z"/><path fill="white" d="M794.999 646.88C811.859 648.912 822.014 646.748 837.483 646.648C860.032 646.712 882.579 647.017 905.121 647.563C905.23 648.782 905.467 648.687 905.012 649.385C879.256 651.636 852.572 653.699 826.715 653.59C820.881 653.074 809.678 653.548 802.965 653.393L805.244 652.325L805.378 651.357C803.364 648.892 798.235 649.879 794.969 648.139L794.999 646.88Z"/><path d="M793.121 438.945C794.292 434.878 795.695 431.834 799.522 429.539C802.104 427.975 805.235 427.597 808.116 428.502C812.299 429.809 814.375 432.719 816.345 436.338C817.955 443.289 817.003 448.397 812.002 453.79L809.368 455.683C805.336 456.532 804.445 456.318 800.653 454.673C795.296 450.418 793.771 447.573 793.027 441.019L793.121 438.945ZM806.555 449.678C812.978 445.884 813.21 434.784 803.911 434.015C801.78 435.058 800.56 435.733 799.689 438.08C798.79 440.524 798.965 443.235 800.17 445.543C801.704 448.505 803.36 449.312 806.555 449.678Z"/><path fill="white" fill-opacity="0.38039216" d="M852.466 444.566C861.113 443.46 856.674 445.519 862.267 447.783C863.481 447.592 864.563 447.425 865.789 447.289C867.14 448.344 867.249 449.229 867.814 450.86C871.995 453.455 882.053 458.962 884.752 462.832C891.899 473.079 872.957 471.428 871.683 477.113C872.831 478.12 873.115 477.777 875.055 477.89C878.054 478.001 882.914 478.037 885.753 478.364C879.242 478.369 841.094 477.416 838.173 479.111C837.094 480.816 837.152 481.047 836.875 483.111C834.658 480.537 828.811 480.804 825.791 481.383C824.887 479.302 824.269 479.228 822.197 478.401C819.906 477.924 817.965 478.629 816.053 477.759C816.743 477.038 818.956 477.289 820.53 477.148L821.071 476.132L821.764 477.284C822.994 476.859 823.835 476.408 825.095 476.636C825.448 478.206 825.296 478.305 826.185 479.58C827.154 479.002 831.949 475.894 832.391 475.781C835.657 474.945 836.629 476.136 839.74 473.526L839.311 472.625C839.601 471.203 842.359 467.851 843.435 466.36C850.491 467.73 853.931 470.103 859.934 472.53C864.131 474.227 880.011 469.869 880.319 463.987C880.443 461.602 878.689 460.259 877.181 458.716C871.57 457.192 870.436 453.279 866.727 452.985C864.46 448.997 856.725 446.079 852.466 444.566Z"/><path fill="white" fill-opacity="0.90196079" d="M837.678 498.365C837.908 500.031 838.499 504.569 838.372 506.221C836.831 511.567 830.371 537.377 838.071 539.091C839.249 546.071 836.939 553.638 841.063 558.031C840.195 558.327 840.526 558.165 839.268 557.686C838.044 555.78 838.174 553.945 837.846 551.594L836.983 552.31C834.829 551.153 833.636 549.931 831.445 551.193C829.49 554.857 831.891 557.793 831.339 559.579C829.793 558.423 829.906 558.364 829.337 556.586C830.855 553.116 830.012 548.236 829.719 544.272L830.145 544.241C831.811 540.132 832.046 533.209 830.091 529.159L829.696 529.333C829.639 531.142 829.552 532.95 829.433 534.756C828.735 530.708 829.673 527.004 827.994 522.913C825.487 520.814 818.466 521.535 814.605 521.455C816.85 518.65 819.523 520.939 822.54 517.077C823.389 516.927 825.875 516.496 826.289 515.908C829.177 511.808 826.827 504.073 827.06 498.917L827.52 499.402L828.189 500.083C832.45 504.461 833.276 500.671 837.678 498.365Z"/><defs><linearGradient id="gradient_10" gradientUnits="userSpaceOnUse" x1="766.04907" y1="661.00964" x2="760.534" y2="640.30237"><stop offset="0" stop-color="white" stop-opacity="0.79607844"/><stop offset="1" stop-color="white"/></linearGradient></defs><path fill="url(#gradient_10)" d="M747.638 646.494C753.462 646.417 791.741 645.704 794.999 646.88L794.969 648.139C791.807 647.863 788.445 648.918 785.597 650.225L785.273 650.766C791.114 652.214 800.105 648.678 802.794 651.441C802.539 652.738 802.758 652.132 802.154 653.264L802.965 653.393C809.678 653.548 820.881 653.074 826.715 653.59C820.251 654.424 803.575 653.98 796.605 653.885C771.634 653.737 746.681 652.561 721.807 650.361C723.192 649.465 723.6 649.127 725.207 648.598L730.213 648.054C734.767 648.188 744.08 648.916 747.638 646.494Z"/><path fill="white" fill-opacity="0.011764706" d="M637.906 602.09C638.611 602.784 641.082 605.288 641.71 605.28C651.253 605.147 645.538 608.058 648.067 611.771C650.215 613.302 652.413 613.553 654.844 612.929C669.168 609.252 671.495 601.577 687.884 609.413C688.863 609.881 688.702 609.562 689.334 610.539L689.39 610.876C670.274 613.121 648.248 615.858 629.961 621.981C631.744 615.845 635.28 607.998 637.906 602.09Z"/><path fill="white" fill-opacity="0.019607844" d="M893.344 511.539L895.535 511.799C893.064 514.63 892.036 520.157 893.555 523.471L893.2 523.533C888.316 520.029 863.532 522.748 854.942 522.315C851.638 519.036 848.198 522.817 845.218 516.724C854.987 515.879 864.698 515.532 874.459 514.886C879.49 514.553 889.812 515.061 893.344 511.539Z"/><path fill="white" fill-opacity="0.41568628" d="M896.826 596.896C898.377 591.284 897.257 575.315 902.943 573.09C904.279 573.404 904.6 573.307 905.938 572.997L907.054 574.111C907.309 576.938 907.505 578.898 907.412 581.77L906.747 577.294L906.19 577.219C902.055 586.358 900.511 598.28 906.294 607.025L908.033 607.68C908.142 609.555 907.178 611.246 905.523 612.041C901.411 611.301 903.446 608.984 900.697 606.378C897.752 606.09 896.317 608.094 894.733 608.378C889.626 609.297 880.625 608.187 875.818 606.169C874.257 605.513 874.138 605.38 872.386 604.845L871.911 604.703C874.03 604.567 875.964 604.594 878.08 604.605L878.149 604.928C880.706 608.078 892.391 608.177 895.113 606.327C895.176 605.209 895.25 604.092 895.334 602.976C897.459 601.008 896.958 599.642 896.826 596.896Z"/><path fill="white" fill-opacity="0.05882353" d="M847.372 433.706C850.325 435.308 867.285 445.169 869.13 447.094C869.358 448.962 868.953 448.901 870.336 450.097C875.578 454.629 888.124 459.691 890.338 466.49C892.052 471.751 877.054 475.186 874.858 477.5L875.055 477.89C873.115 477.777 872.831 478.12 871.683 477.113C872.957 471.428 891.899 473.079 884.752 462.832C882.053 458.962 871.995 453.455 867.814 450.86C867.249 449.229 867.14 448.344 865.789 447.289C864.563 447.425 863.481 447.592 862.267 447.783C856.674 445.519 861.113 443.46 852.466 444.566C850.982 440.5 850.681 441.297 846.511 439.759C846.944 437.896 847.307 437.835 846.708 436.411C845.04 436.726 843.629 437.074 842.047 436.316C843.362 435.139 845.703 434.362 847.372 433.706Z"/><path fill="white" fill-opacity="0.12156863" d="M955.415 531.484C953.396 528.141 952.054 526.267 954.845 522.882L976.405 573.654C976.023 574.155 976.272 573.975 975.646 574.175C969.652 562.017 965.854 548.85 959.335 536.983C959.053 536.47 958.906 534.998 958.877 534.363L958.174 533.821L957.672 534.63C958.251 541.331 964.962 553.742 967.539 560.386C968.699 563.377 966.701 565.204 970.018 568.245C971.744 569.828 972.008 574.263 972.321 576.647L971.904 576.792C970.323 574.957 962.195 557.249 961.484 554.149C954.832 548.239 961.087 544.522 954.9 541.386C954.33 537.796 954.861 534.995 955.415 531.484Z"/><path fill="white" fill-opacity="0.05882353" d="M765.01 430.161L765.865 430.209C772.87 430.567 779.024 426.496 782.514 427.915C785.73 432.332 785.316 430.884 789.99 433.018C790.395 433.202 791.369 438.624 793.121 438.945L793.027 441.019C790.635 441.703 788.091 439.504 786.524 437.919C783.286 436.182 780.063 435.866 777.675 434.075C776.742 430.778 776.831 431.51 773.151 431.196C763.649 430.384 750.598 445.218 743.059 445.307C744.89 443.834 746.716 444.059 748.753 442.4C749.716 440.199 749.538 441.138 749.091 438.613C754.24 435.794 759.73 432.644 765.01 430.161Z"/><path fill="white" fill-opacity="0.32941177" d="M703.255 601.005C703.063 591.284 704.864 589.797 706.402 580.713C706.553 585.671 707.28 597.612 706.984 602L706.224 601.915C705.442 603.662 702.136 608.135 702.261 609.298L703.462 609.938C700.807 610.017 698.156 610.173 695.51 610.403L696.567 609.66C694.936 609.472 693.586 609.29 691.968 609.006C690.931 607.347 684.709 604.023 682.443 602.562L682.221 601.391L682.875 602.445C682.874 602.445 685.58 601.064 684.663 600.906C689.901 601.805 695.15 602.972 700.477 602.673C703.327 602.513 706.693 599.652 705.354 597.344C703.903 598.512 704.08 599.002 703.255 601.005Z"/><path d="M145.183 385.44C145.171 394.357 145.19 448.917 147.28 454.391L149.087 455.113C147.59 456.156 144.468 455.617 143.27 454.276C141.964 445.445 143.867 432.9 143.696 423.609C143.56 416.259 141.927 390.446 145.183 385.44Z"/><path fill="white" fill-opacity="0.5529412" d="M869.691 605.05L871.911 604.703L872.386 604.845C874.138 605.38 874.257 605.513 875.818 606.169C880.625 608.187 889.626 609.297 894.733 608.378C896.317 608.094 897.752 606.09 900.697 606.378C903.446 608.984 901.411 611.301 905.523 612.041C907.178 611.246 908.142 609.555 908.033 607.68L908.33 604.384L908.641 610.083C907.665 611.6 906.628 613.828 905.796 615.48C902.536 615.078 899.947 614.201 896.842 613.159L897.133 613.04C894.072 612.933 892.34 612.887 889.31 612.367C885.47 609.168 882.308 608.41 877.318 608.523C871.432 608.657 870.699 606.439 866.235 605.84L865.54 605.752L869.691 605.05Z"/><defs><linearGradient id="gradient_11" gradientUnits="userSpaceOnUse" x1="902.7442" y1="592.36658" x2="909.93298" y2="590.22937"><stop offset="0" stop-color="white" stop-opacity="0"/><stop offset="1" stop-color="#FCFBFD" stop-opacity="0.12941177"/></linearGradient></defs><path fill="url(#gradient_11)" d="M908.033 607.68L906.294 607.025C900.511 598.28 902.055 586.358 906.19 577.219L906.747 577.294L907.412 581.77C907.692 587.797 908.562 598.833 908.33 604.384L908.033 607.68Z"/><path d="M104.072 523.186C101.078 516.173 102.954 504.658 102.057 497.081C101.449 491.952 100.101 486.858 99.6781 481.721C99.3868 478.182 99.2633 474.401 99.1713 470.827C99.1249 469.024 100.67 470.112 100.756 469.077C100.98 466.384 101.005 461.935 102.037 459.528C102.734 462.734 102.578 467.343 102.596 470.71C102.692 488.062 104.244 505.874 104.072 523.186Z"/><path d="M105.566 554.774C106.222 559.46 106.153 564.981 106.213 569.796C106.403 584.973 108.255 600.61 108.066 615.739C105.238 609.403 106.93 601.873 105.348 593.278L105.263 593.565C102.184 578.28 103.913 570.071 105.566 554.774Z"/><path fill="white" fill-opacity="0.48235294" d="M714.47 635.847C716.779 633.624 717.198 629.896 719.497 629.458C722.755 630.833 726.44 632.488 729.753 633.593L729.951 634.057C727.381 634.712 726.252 633.328 724.483 634.408L724.512 634.964C728.036 635.688 730.643 635.153 734.12 636.147L733.868 636.48C732.262 636.555 730.731 636.409 729.44 637.247C731.596 637.645 733.835 637.552 736.04 637.566C735.042 637.956 728.533 638.96 726.268 639.548C724.952 639.766 722.616 639.59 721.183 639.533C720.772 637.48 720.764 636.822 719.2 635.416C716.023 634.632 715.162 636.538 714.611 639.337L714.47 635.847Z"/><path fill="white" fill-opacity="0.64313728" d="M899.509 640.949C893.583 640.266 887.691 639.181 881.42 638.479L881.547 638.141L883.217 637.829C882.34 637.483 882.765 637.674 881.942 637.256C884.838 633.97 898.474 634.609 902.561 634.255C904.839 634.058 903.542 630.75 909.853 631.412L909.418 632.839C905.653 633.397 901.49 635.178 898.709 637.789L898.381 638.888C899.199 640.215 899.26 640.114 900.629 640.935L899.509 640.949Z"/><path fill="white" fill-opacity="0.40392157" d="M895.535 511.799C901.743 514.179 899.251 519.819 903.131 519.473C904.104 518.406 903.858 518.795 904.511 517.507L904.509 519.34C902.371 521.232 902.717 521.559 900.211 521.943C898.904 521.326 898.785 521.248 897.629 520.378C895.196 520.954 896.116 522.233 893.555 523.471C892.036 520.157 893.064 514.63 895.535 511.799Z"/><path fill="white" fill-opacity="0.21960784" d="M895.334 602.976C895.25 604.092 895.176 605.209 895.113 606.327C892.391 608.177 880.706 608.078 878.149 604.928L878.08 604.605C883.649 603.995 889.942 603.952 895.334 602.976Z"/><path fill="white" fill-opacity="0.59607846" d="M732.87 599.021C737.916 599.208 743.444 599.535 748.451 599.522C749.18 600.585 749.102 600.558 749.319 601.85C747.397 605.52 742.694 605.246 739.267 604.149L738.971 603.535C740.46 602.822 744.224 602.594 746.046 602.396C743.217 601.66 740.605 603.259 737.907 601.436C736.536 600.509 734.867 599.72 733.313 599.173L732.87 599.021Z"/><path fill="white" fill-opacity="0.82745099" d="M802.965 653.393L802.154 653.264C802.758 652.132 802.539 652.738 802.794 651.441C800.105 648.678 791.114 652.214 785.273 650.766L785.597 650.225C788.445 648.918 791.807 647.863 794.969 648.139C798.235 649.879 803.364 648.892 805.378 651.357L805.244 652.325L802.965 653.393Z"/><path fill="white" fill-opacity="0.39607844" d="M800.653 454.673C804.445 456.318 805.336 456.532 809.368 455.683C809.926 456.149 810.122 456.673 810.53 457.357L810.253 458.299C805.587 460.187 798.043 463.284 800.653 454.673Z"/><path fill="white" fill-opacity="0.60000002" d="M809.756 557.977C812.691 557.39 824.485 556.909 828.566 556.508C821.845 561.608 817.979 558.154 809.756 557.977Z"/><path fill="white" fill-opacity="0.098039217" d="M703.462 609.938L702.261 609.298C702.136 608.135 705.442 603.662 706.224 601.915L706.984 602C707.216 604.337 707.752 606.56 706.813 608.589C705.338 609.917 705.721 609.507 703.462 609.938Z"/><path fill="white" fill-opacity="0.035294119" d="M714.611 639.337C715.162 636.538 716.023 634.632 719.2 635.416C720.764 636.822 720.772 637.48 721.183 639.533C718.934 639.592 716.852 639.453 714.611 639.337Z"/><path fill="white" fill-opacity="0.39607844" d="M723.241 646.128C730.418 646.097 737.595 646.119 744.772 646.194C740.02 647.218 732.848 647.221 730.213 648.054L725.207 648.598C726.185 648.159 730.002 646.637 730.846 646.696L729.609 647.081L729.782 646.621C727.599 646.485 725.419 646.32 723.241 646.128Z"/><path fill="white" fill-opacity="0.14901961" d="M816.872 517.417C818.303 516.973 820.951 517.089 822.54 517.077C819.523 520.939 816.85 518.65 814.605 521.455L813.662 521.475C814.317 520.112 815.539 518.482 816.895 517.929L816.872 517.417Z"/><path fill="white" fill-opacity="0.65098041" d="M744.772 646.194L747.638 646.494C744.08 648.916 734.767 648.188 730.213 648.054C732.848 647.221 740.02 647.218 744.772 646.194Z"/><path fill="white" fill-opacity="0.13725491" d="M641.398 594.26C642.671 596.285 642.841 596.555 642.698 598.923L642.185 599.651C640.74 599.329 641.056 599.166 639.915 597.577L641.398 594.26Z"/><path fill="white" fill-opacity="0.73333335" d="M905.121 647.563C908.662 647.65 910.506 647.951 914.021 648.528L905.012 649.385C905.467 648.687 905.23 648.782 905.121 647.563Z"/></svg>