<?xml version="1.0" encoding="utf-8" ?><svg xmlns="http://www.w3.org/2000/svg" xmlns:xlink="http://www.w3.org/1999/xlink" width="1024" height="1024" viewBox="0 0 1024 1024"><path fill="#F4F4F4" fill-opacity="0.98823529" d="M317.314 85.303C317.628 97.2775 317.393 109.364 317.593 121.36C320.035 267.666 364.099 404.432 513.009 460.076C583.152 431.945 639.161 376.975 668.601 307.371C681.308 276.95 686.482 258.398 694.143 226.071C706.245 231.624 713.699 235.083 725.055 242.896C749.047 259.215 767.012 282.964 776.186 310.492C778.648 318.109 780.114 325.851 781.569 333.702C770.484 332.512 755.725 331.249 745.116 329.158C747.87 334.705 751.67 340.995 754.724 346.523L774.546 382.119C781.418 394.46 791.835 414.898 799.451 425.664C807.999 417.375 821.349 406.74 830.814 398.628C849.842 382.094 869.007 365.717 888.306 349.5C874.737 347.945 861.156 346.497 847.564 345.159C848.077 331.956 846.893 318.741 844.042 305.84C832.178 252.096 791.005 209.29 742.855 185.106C735.461 181.398 727.898 178.033 720.193 175.023C716.374 173.538 705.497 170.011 702.79 168.118C704.858 146.358 705.644 124.065 706.493 102.207C706.673 97.5591 706.506 91.5623 707.272 87.0545L712.646 86.3269C719.285 90.2403 725.682 92.5936 731.923 96.1693C747.591 105.147 763.151 114.995 777.813 125.522C874.224 195.607 943.621 296.696 974.378 411.853C987.575 462.86 993.055 514.409 991.15 567.042C990.945 572.709 991.99 587.566 988.593 591.911C985.401 591.413 978.527 591.467 975.005 591.321C968.039 590.998 961.091 590.363 954.181 589.418C908.858 582.96 875.114 567.202 836.043 544.935C838.769 536.125 842.324 527.353 844.735 518.516C839.651 514.764 804.673 503.181 797.129 501.074C793.947 507.154 792.123 513.914 789.263 520.312C785.818 519.321 778.323 516.558 775.808 519.8C774.123 521.972 771.29 535.328 771.352 537.797C768.603 536.554 766.954 536.611 764.033 537.871C757.728 540.591 750.946 545.034 745.048 548.596C738.806 552.369 732.405 555.873 725.863 559.096C692.506 575.724 658.211 586.824 621.134 591.76C611.326 593.066 602.57 593.189 592.86 593.725C592.287 605.152 592.879 618.536 593.318 630.002C594.887 678.134 602.236 725.902 615.207 772.28C613.248 771.828 613.9 772.029 612.265 770.49L612.01 771.105C614.645 776.217 611.283 781.934 609.905 786.964C609.487 788.492 607.862 792.169 606.53 792.197C593.213 792.477 590.331 807.405 581.316 815.143C576.665 819.136 569.957 819.273 567.459 825.704C566.873 829.24 558.195 832.404 554.943 832.853C546.49 829.356 543.239 834.735 544.124 821.431C541.3 825.831 544.061 826.217 543.621 832.101L542.817 832.638L541.877 832.059C541.099 826.618 541.68 811.66 541.507 805.489C540.881 783.268 542.2 759.346 541.384 737.247C541.367 728.886 541.93 666.244 540.539 663.006C534.483 660.518 474.712 661.682 463.486 661.651C463.509 656.357 464.297 632.934 462.523 629.997C456.881 627.111 411.899 628.556 402.469 628.579L402.49 591.763C402.515 586.884 402.881 575.133 402.294 570.709C399.232 568.366 324.902 569.731 312.946 569.105L313.405 467.358L194.859 467.504C195.389 590.55 195.271 713.599 194.505 836.644C188.745 836.823 182.982 836.923 177.219 836.943L176.981 835.239C178.305 831.382 177.545 765.998 177.569 757.739C173.069 753.561 168.619 749.817 164.342 745.375C143.331 723.226 127.36 696.794 117.525 667.892C109.946 646.082 107.541 629.286 106.369 606.304C103.714 554.258 119.418 512.585 141.835 466.406C153.892 470.386 165.894 474.531 177.837 478.841C174.869 472.644 172.693 465.057 170.587 458.462L162.099 432.177C154.55 408.887 146.277 385.502 138.529 362.189C118.629 374.927 98.477 387.269 78.086 399.207L78.5813 397.863C81.1246 396.134 81.7698 395.276 83.7363 393.024C81.6984 395.006 80.3577 395.207 78.3154 396.893L77.5972 396.265L75.752 397.395C72.4497 396.938 70.5538 390.723 68.286 388.433C67.2231 387.359 64.5036 386.103 63.0973 385.406C60.3225 375.937 65.2013 374.377 63.6796 369.789C65.152 366.246 66.3677 361.597 67.7491 357.815C107.063 250.161 184.579 160.122 282.753 101.68C292.331 95.9785 306.301 86.5274 317.314 85.303Z"/><path fill="#24aca4" d="M516.575 23.659C530.54 31.7464 551.141 43.5375 566.09 49.3086C568.437 50.3798 571.083 51.6655 573.465 52.5776C581.157 55.8459 589.585 59.5573 597.448 62.372L603.278 64.5035C624.286 71.8786 668.746 82.9274 691.148 81.9497C695.057 82.2973 704.194 81.4644 706.514 83.7033C707.099 84.2682 707.183 86.1147 707.272 87.0545C706.506 91.5623 706.673 97.5591 706.493 102.207C705.644 124.065 704.858 146.358 702.79 168.118C700.882 187.568 697.996 206.91 694.143 226.071C686.482 258.398 681.308 276.95 668.601 307.371C639.161 376.975 583.152 431.945 513.009 460.076C364.099 404.432 320.035 267.666 317.593 121.36C317.393 109.364 317.628 97.2775 317.314 85.303C317.452 83.7493 317.449 81.1311 319.44 81.1531C359.804 81.5998 399.708 71.9769 437.353 58.0035C442.902 55.9439 448.621 53.3194 454.32 51.2041C455.506 51.3083 456.592 51.3946 457.786 51.4558C458.298 53.2843 457.624 51.6853 457.999 53.378C463.373 51.2432 470.407 47.9584 475.47 45.2748C478.655 43.908 482.775 41.5678 485.924 39.8895L491.072 37.2265L494.218 35.4501L500.046 32.1012C501.211 31.3635 502.369 30.6161 503.521 29.8591C504.58 29.3458 505.782 28.5599 506.809 27.9385C508.797 26.8767 509.96 26.3193 511.727 24.9579L511.842 24.376L512.976 23.8133C514.741 24.0711 514.826 24.2 516.575 23.659ZM512.086 455.857C516.954 455.063 526.229 449.723 530.936 447.321C558.355 433.089 585.921 415.047 607.689 392.937C669.275 330.381 691.773 243.594 699.616 158.874C701.764 136.376 702.911 113.794 703.054 91.1952L703.008 89.958L703.251 87.5249L702.532 86.7109C698.851 85.5862 694.919 86.0572 690.942 86.1076L675.859 84.8761C674.881 84.6767 673.56 84.6233 672.536 84.5411C620.67 77.8217 573.628 59.3013 528.369 33.7816C523.344 30.9481 518.2 28.2184 513.093 25.5322C511.628 32.7878 513.102 45.2549 512.853 53.0071C516.207 55.5756 521.173 58.4848 524.856 60.7942C550.034 76.5832 579.524 88.2043 608.071 96.3773C612.944 97.8077 616.695 98.7456 621.638 99.8327L623.861 100.404C627.022 101.018 630.179 101.657 633.33 102.32C638.742 103.25 644.277 104.302 649.731 104.827C654.548 105.326 659.781 105.975 664.583 106.268L667.68 106.402C669.787 106.468 673.634 106.413 675.48 107.032L675.784 107.423C674.928 123.949 674.939 139.616 673.545 156.327C664.792 261.254 628.383 372.432 526.492 420.864C521.912 423.04 516.716 426.171 512.007 427.993C511.817 433.085 511.466 451.339 512.086 455.857ZM590.308 69.7379C590.972 71.2124 591.583 71.7413 592.699 72.8511C591.948 75.3226 588.525 74.3749 589.306 76.6733L590.789 77.8562C588.927 78.307 577.713 73.5198 575.412 72.4394C580.259 70.2047 580.094 71.6029 585.149 71.616L584.247 70.7527L584.648 70.2413C586.53 70.0302 588.417 69.8623 590.308 69.7379ZM507.096 214.814C504.383 216.151 503.237 219.413 504.519 222.153C505.801 224.893 509.039 226.104 511.804 224.877C513.642 224.061 514.896 222.315 515.083 220.313C515.269 218.31 514.358 216.363 512.701 215.222C511.044 214.082 508.901 213.926 507.096 214.814Z"/><defs><linearGradient id="gradient_0" gradientUnits="userSpaceOnUse" x1="567.37073" y1="245.6123" x2="665.39099" y2="314.95245"><stop offset="0" stop-color="white" stop-opacity="0.93725491"/><stop offset="1" stop-color="white"/></linearGradient></defs><path fill="url(#gradient_0)" d="M695.05 95.6798C697.777 93.805 699.867 91.8167 703.054 91.1952C702.911 113.794 701.764 136.376 699.616 158.874C691.773 243.594 669.275 330.381 607.689 392.937C585.921 415.047 558.355 433.089 530.936 447.321C526.229 449.723 516.954 455.063 512.086 455.857C511.466 451.339 511.817 433.085 512.007 427.993C516.716 426.171 521.912 423.04 526.492 420.864C628.383 372.432 664.792 261.254 673.545 156.327C674.939 139.616 674.928 123.949 675.784 107.423L675.809 106.522C677.336 104.262 680.607 103.073 683.066 102.098L680.01 101.816C678.868 100.395 675.401 99.7314 672.981 98.0454L672.86 97.1041C674.792 95.3997 691.374 95.897 695.05 95.6798Z"/><defs><linearGradient id="gradient_1" gradientUnits="userSpaceOnUse" x1="595.04077" y1="43.252682" x2="585.59674" y2="90.634247"><stop offset="0" stop-color="white" stop-opacity="0"/><stop offset="1" stop-color="white" stop-opacity="0.062745102"/></linearGradient></defs><path fill="url(#gradient_1)" d="M513.093 25.5322C518.2 28.2184 523.344 30.9481 528.369 33.7816C573.628 59.3013 620.67 77.8217 672.536 84.5411C668.229 88.8652 657.293 90.6825 651.461 88.107C650.067 87.4912 649.961 84.4138 647.765 84.0589C640.112 82.8217 635.517 87.9974 630.819 79.6918C623.842 80.41 622.066 81.9913 616.787 76.6751C613.661 76.6386 610.537 76.5363 607.415 76.3681C606.119 75.4683 604.646 74.299 603.361 73.3354C594.068 72.989 595.804 69.9467 590.308 69.7379C588.417 69.8623 586.53 70.0302 584.648 70.2413L584.247 70.7527L585.149 71.616C580.094 71.6029 580.259 70.2047 575.412 72.4394C572.407 71.4001 571.707 70.8443 568.749 71.5833C570.759 74.434 581.198 76.3404 584.447 77.5754C584.992 77.7828 585.589 79.4278 587.137 80.0489C585.632 82.6398 586.328 79.5496 584.824 82.739C582.042 81.6922 575.016 78.1306 572.895 78.7529C574.258 79.4215 574.857 79.699 576.31 80.1311C580.86 81.485 585.324 85.9595 589.543 87.7726C594.181 89.7664 599.776 88.8813 604.214 92.3437C605.429 93.2913 607.293 93.1079 609.201 94.9129L609.054 95.7922L608.071 96.3773C579.524 88.2043 550.034 76.5832 524.856 60.7942C521.173 58.4848 516.207 55.5756 512.853 53.0071C513.102 45.2549 511.628 32.7878 513.093 25.5322Z"/><defs><linearGradient id="gradient_2" gradientUnits="userSpaceOnUse" x1="625.91144" y1="76.366165" x2="624.15356" y2="96.244965"><stop offset="0" stop-color="#FFFFFE" stop-opacity="0.17254902"/><stop offset="1" stop-color="#FFFFFE" stop-opacity="0.52156866"/></linearGradient></defs><path fill="url(#gradient_2)" d="M590.308 69.7379C595.804 69.9467 594.068 72.989 603.361 73.3354C604.646 74.299 606.119 75.4683 607.415 76.3681C610.537 76.5363 613.661 76.6386 616.787 76.6751C622.066 81.9913 623.842 80.41 630.819 79.6918C635.517 87.9974 640.112 82.8217 647.765 84.0589C649.961 84.4138 650.067 87.4912 651.461 88.107C657.293 90.6825 668.229 88.8652 672.536 84.5411C673.56 84.6233 674.881 84.6767 675.859 84.8761C675.197 85.5197 674.629 86.2038 674.142 86.7053C672.3 88.6003 668.467 89.2279 666.363 91.1001C667.238 95.287 666.406 94.9606 663.333 97.8914L663.764 97.4659L664.2 98.6191C666.439 99.002 670.479 99.5717 672.521 100.188C664.565 100.132 652.279 98.4286 643.901 98.3506C643.397 98.3459 640.72 96.8797 640.158 96.453C636.306 93.5299 630.854 96.6254 626.547 96.4208C623.148 96.2593 621.505 94.6151 619.25 92.245C611.36 92.3219 612.008 93.0386 605.762 88.5275C604.84 87.8611 595.636 86.4618 593.72 85.7498C591.183 84.8071 587.46 83.5403 584.824 82.739C586.328 79.5496 585.632 82.6398 587.137 80.0489C585.589 79.4278 584.992 77.7828 584.447 77.5754C581.198 76.3404 570.759 74.434 568.749 71.5833C571.707 70.8443 572.407 71.4001 575.412 72.4394C577.713 73.5198 588.927 78.307 590.789 77.8562L589.306 76.6733C588.525 74.3749 591.948 75.3226 592.699 72.8511C591.583 71.7413 590.972 71.2124 590.308 69.7379Z"/><path fill="#FEFEFF" fill-opacity="0.60000002" d="M675.859 84.8761L690.942 86.1076L690.716 86.7789C692.778 89.1635 694.522 90.3996 697.492 91.4586C700.482 91.4104 700.791 90.0823 703.008 89.958L703.054 91.1952C699.867 91.8167 697.777 93.805 695.05 95.6798C691.374 95.897 674.792 95.3997 672.86 97.1041L672.981 98.0454C675.401 99.7314 678.868 100.395 680.01 101.816L683.066 102.098C680.607 103.073 677.336 104.262 675.809 106.522L675.784 107.423L675.48 107.032C673.634 106.413 669.787 106.468 667.68 106.402C670.37 105.77 673.057 105.232 674.205 102.468C673.796 100.568 674.285 101.339 672.521 100.188C670.479 99.5717 666.439 99.002 664.2 98.6191L663.764 97.4659L663.333 97.8914C666.406 94.9606 667.238 95.287 666.363 91.1001C668.467 89.2279 672.3 88.6003 674.142 86.7053C674.629 86.2038 675.197 85.5197 675.859 84.8761Z"/><path fill="#FEFEFF" fill-opacity="0.35294119" d="M608.071 96.3773L609.054 95.7922L609.201 94.9129C607.293 93.1079 605.429 93.2913 604.214 92.3437C599.776 88.8813 594.181 89.7664 589.543 87.7726C585.324 85.9595 580.86 81.485 576.31 80.1311C574.857 79.699 574.258 79.4215 572.895 78.7529C575.016 78.1306 582.042 81.6922 584.824 82.739C587.46 83.5403 591.183 84.8071 593.72 85.7498C595.636 86.4618 604.84 87.8611 605.762 88.5275C612.008 93.0386 611.36 92.3219 619.25 92.245C621.505 94.6151 623.148 96.2593 626.547 96.4208C630.854 96.6254 636.306 93.5299 640.158 96.453C640.72 96.8797 643.397 98.3459 643.901 98.3506C652.279 98.4286 664.565 100.132 672.521 100.188C674.285 101.339 673.796 100.568 674.205 102.468C673.057 105.232 670.37 105.77 667.68 106.402L664.583 106.268C666.829 105.597 668.824 102.771 670.76 100.745C663.919 100.789 656.898 100.859 650.07 100.56C645.348 100.353 642.238 99.2674 637.441 99.2119C635.825 98.5478 636.647 98.6089 634.885 99.1469C633.597 100.57 633.687 100.536 633.33 102.32C630.179 101.657 627.022 101.018 623.861 100.404C625.36 100.113 626.243 99.8363 626.572 98.3112L625.606 97.4841C623.601 97.3253 624.538 97.1453 622.71 98.1223L622.42 99.2607L621.638 99.8327C616.695 98.7456 612.944 97.8077 608.071 96.3773Z"/><path fill="#FEFEFF" fill-opacity="0.06666667" d="M637.441 99.2119C642.238 99.2674 645.348 100.353 650.07 100.56C656.898 100.859 663.919 100.789 670.76 100.745C668.824 102.771 666.829 105.597 664.583 106.268C659.781 105.975 654.548 105.326 649.731 104.827L649.794 104.372C653.548 103.231 658.663 103.5 660.543 102.512C659.59 101.212 647.654 102.8 646.14 102.368C644.117 101.79 638.727 100.293 637.441 99.2119Z"/><path fill="#FEFEFF" fill-opacity="0.17254902" d="M633.33 102.32C633.687 100.536 633.597 100.57 634.885 99.1469C636.647 98.6089 635.825 98.5478 637.441 99.2119C638.727 100.293 644.117 101.79 646.14 102.368C647.654 102.8 659.59 101.212 660.543 102.512C658.663 103.5 653.548 103.231 649.794 104.372L649.731 104.827C644.277 104.302 638.742 103.25 633.33 102.32Z"/><path fill="#FEFEFF" fill-opacity="0.082352944" d="M690.942 86.1076C694.919 86.0572 698.851 85.5862 702.532 86.7109L703.251 87.5249L703.008 89.958C700.791 90.0823 700.482 91.4104 697.492 91.4586C694.522 90.3996 692.778 89.1635 690.716 86.7789L690.942 86.1076Z"/><defs><linearGradient id="gradient_3" gradientUnits="userSpaceOnUse" x1="626.4364" y1="97.981636" x2="622.92786" y2="98.412285"><stop offset="0" stop-color="white" stop-opacity="0.36470589"/><stop offset="1" stop-color="white" stop-opacity="0.40392157"/></linearGradient></defs><path fill="url(#gradient_3)" d="M621.638 99.8327L622.42 99.2607L622.71 98.1223C624.538 97.1453 623.601 97.3253 625.606 97.4841L626.572 98.3112C626.243 99.8363 625.36 100.113 623.861 100.404L621.638 99.8327Z"/><path fill="#080717" d="M512.853 53.0071C516.207 55.5756 521.173 58.4848 524.856 60.7942C550.034 76.5832 579.524 88.2043 608.071 96.3773C612.944 97.8077 616.695 98.7456 621.638 99.8327L623.861 100.404C627.022 101.018 630.179 101.657 633.33 102.32C638.742 103.25 644.277 104.302 649.731 104.827C654.548 105.326 659.781 105.975 664.583 106.268L667.68 106.402C669.787 106.468 673.634 106.413 675.48 107.032L675.784 107.423C674.928 123.949 674.939 139.616 673.545 156.327C664.792 261.254 628.383 372.432 526.492 420.864C521.912 423.04 516.716 426.171 512.007 427.993C482.804 414.528 457.317 400.425 433.791 378.056C360.895 308.747 348.091 198.796 345.821 103.332C395.394 100.349 429.843 92.0819 475.598 71.6384C481.799 68.8679 508.943 53.7195 512.853 53.0071ZM511.804 224.877C513.642 224.061 514.896 222.315 515.083 220.313C515.269 218.31 514.358 216.363 512.701 215.222C511.044 214.082 508.901 213.926 507.096 214.814C504.383 216.151 503.237 219.413 504.519 222.153C505.801 224.893 509.039 226.104 511.804 224.877Z"/><path fill="#24aca4" d="M505.591 108.589L506.324 108.548C511.865 108.268 520.685 109.898 523.679 113.98C531.912 125.203 540.31 141.653 547.322 153.592L566.747 186.697C570.784 193.531 579.883 206.792 579.968 214.184C580.071 219.703 577.963 225.034 574.114 228.99C566.554 236.649 552.737 235.078 542.731 235.039L514.159 234.991C502.386 235.014 459.722 236.57 451.585 233.166C446.721 231.13 442.55 227.16 440.628 222.213C438.853 217.643 438.688 212.326 440.745 207.836C444.186 200.328 449.298 193.066 453.471 185.893L479.88 140.469C482.88 135.43 485.85 130.373 488.789 125.298C494.454 115.348 494.129 112.838 505.591 108.589ZM511.804 224.877C513.642 224.061 514.896 222.315 515.083 220.313C515.269 218.31 514.358 216.363 512.701 215.222C511.044 214.082 508.901 213.926 507.096 214.814C504.383 216.151 503.237 219.413 504.519 222.153C505.801 224.893 509.039 226.104 511.804 224.877Z"/><path fill="#080717" d="M507.416 112.091C511.981 111.867 517.047 112.689 520.177 116.185C527.03 123.841 533.111 135.792 538.263 144.798L558.019 179.219C563.444 188.628 569.314 197.99 574.471 207.532C575.585 209.638 576.235 211.846 576.287 214.202C576.478 222.837 570.888 230.63 561.893 231.335C556.095 231.789 549.925 231.648 544.005 231.645L512.25 231.62C501.421 231.762 459.921 233.509 452.538 229.837C448.458 227.808 445.053 224.064 443.81 219.64C442.976 216.674 442.683 212.931 443.764 209.989C446.369 202.9 456.167 188.102 460.369 180.944L492.63 125.285C496.907 117.982 498.933 114.332 507.416 112.091ZM511.804 224.877C513.642 224.061 514.896 222.315 515.083 220.313C515.269 218.31 514.358 216.363 512.701 215.222C511.044 214.082 508.901 213.926 507.096 214.814C504.383 216.151 503.237 219.413 504.519 222.153C505.801 224.893 509.039 226.104 511.804 224.877Z"/><path fill="#24aca4" d="M509.61 128.109L511.125 128.915C511.718 131.37 511.387 139.258 511.385 142.085L511.36 166.281C511.343 176.497 511.493 187.854 511.001 198.113C510.96 198.956 510.46 199.571 509.925 200.172C508.001 199.25 508.545 199.912 507.603 198.466C506.482 176.819 507.875 153.233 507.944 131.442C507.949 129.852 508.684 129.248 509.61 128.109Z"/><path fill="#FEFEFF" d="M507.096 214.814C508.901 213.926 511.044 214.082 512.701 215.222C514.358 216.363 515.269 218.31 515.083 220.313C514.896 222.315 513.642 224.061 511.804 224.877C509.039 226.104 505.801 224.893 504.519 222.153C503.237 219.413 504.383 216.151 507.096 214.814ZM507.777 222.175C510.102 221.608 510.99 221.573 512.872 220.213L513.29 219.184C512.822 218.57 512.677 218.195 512.087 217.862C509.788 217.994 508.209 217.85 506.241 218.986L505.785 219.889C506.67 221.716 506.056 220.961 507.777 222.175Z"/><path fill="#FEFEFF" fill-opacity="0.88627452" d="M512.087 217.862C512.677 218.195 512.822 218.57 513.29 219.184L512.872 220.213C510.99 221.573 510.102 221.608 507.777 222.175C506.056 220.961 506.67 221.716 505.785 219.889L506.241 218.986C508.209 217.85 509.788 217.994 512.087 217.862Z"/><path fill="#080717" d="M516.575 23.659C530.54 31.7464 551.141 43.5375 566.09 49.3086C568.437 50.3798 571.083 51.6655 573.465 52.5776C581.157 55.8459 589.585 59.5573 597.448 62.372L603.278 64.5035C624.286 71.8786 668.746 82.9274 691.148 81.9497C695.057 82.2973 704.194 81.4644 706.514 83.7033C707.099 84.2682 707.183 86.1147 707.272 87.0545C706.506 91.5623 706.673 97.5591 706.493 102.207C705.644 124.065 704.858 146.358 702.79 168.118C700.882 187.568 697.996 206.91 694.143 226.071C686.482 258.398 681.308 276.95 668.601 307.371C639.161 376.975 583.152 431.945 513.009 460.076C364.099 404.432 320.035 267.666 317.593 121.36C317.393 109.364 317.628 97.2775 317.314 85.303C317.452 83.7493 317.449 81.1311 319.44 81.1531C359.804 81.5998 399.708 71.9769 437.353 58.0035C442.902 55.9439 448.621 53.3194 454.32 51.2041C455.506 51.3083 456.592 51.3946 457.786 51.4558C458.298 53.2843 457.624 51.6853 457.999 53.378C451.413 56.7124 441.876 60.2418 434.921 62.7778C397.381 76.4649 360.87 84.8693 320.92 85.0548C320.268 193.134 333.289 311.787 413.166 392.826C442.377 422.462 474.042 439.56 512.086 455.857C516.954 455.063 526.229 449.723 530.936 447.321C558.355 433.089 585.921 415.047 607.689 392.937C669.275 330.381 691.773 243.594 699.616 158.874C701.764 136.376 702.911 113.794 703.054 91.1952L703.008 89.958L703.251 87.5249L702.532 86.7109C698.851 85.5862 694.919 86.0572 690.942 86.1076L675.859 84.8761C674.881 84.6767 673.56 84.6233 672.536 84.5411C620.67 77.8217 573.628 59.3013 528.369 33.7816C523.344 30.9481 518.2 28.2184 513.093 25.5322L511.727 24.9579L511.842 24.376L512.976 23.8133C514.741 24.0711 514.826 24.2 516.575 23.659Z"/><defs><linearGradient id="gradient_4" gradientUnits="userSpaceOnUse" x1="794.62061" y1="937.77167" x2="788.8642" y2="502.12073"><stop offset="0" stop-color="black" stop-opacity="0.90588236"/><stop offset="1" stop-color="black"/></linearGradient></defs><path fill="url(#gradient_4)" d="M797.129 501.074C804.673 503.181 839.651 514.764 844.735 518.516C842.324 527.353 838.769 536.125 836.043 544.935C875.114 567.202 908.858 582.96 954.181 589.418C961.091 590.363 968.039 590.998 975.005 591.321C978.527 591.467 985.401 591.413 988.593 591.911C987.403 596.03 987.769 619.746 987.441 626.097C986.908 636.429 986.677 647.712 985.332 658.124L984.398 658.393C984.178 659.749 983.986 660.968 983.836 662.342C982.797 662.637 983.251 662.721 982.452 662.284L983.154 660.768C982.661 659.578 982.505 659.127 982.402 657.847C982.802 642.351 984.465 626.769 984.556 610.918L984.465 607.037C984.59 603.127 984.693 599.216 984.774 595.306C976.85 595.003 968.933 594.533 961.028 593.898L958.582 593.603C925.179 591.113 877.473 572.543 848.583 556.262C844.033 553.439 839.297 550.925 834.409 548.737L830.931 558.535C833.696 559.573 843.408 563.401 845.732 563.376C846.685 568.542 841.966 577.813 840.512 583.896C873.977 601.648 911.015 612.061 948.733 614.404C951.947 614.604 955.134 614.693 958.354 614.946C958.361 643.199 957.288 670.496 953.168 698.499C951.081 712.681 948.272 725.095 945.241 738.974C942.595 747.184 940.693 756.13 938.034 764.547C934.063 777.119 929.649 788.593 924.651 800.774L921.897 806.946L921.212 808.813C915.516 820.282 909.957 831.578 902.915 842.294C901.455 844.515 899.889 846.907 898.542 849.189C904.983 859.882 905.864 861.888 908.204 873.956C898.587 874.12 888.523 873.841 878.922 874.369C878.116 874.413 876.545 876.683 876.046 877.394L871.178 882.833C869.101 884.9 866.936 887.005 864.914 889.112C843.041 908.773 823.482 921.502 797.065 934.671L796.705 934.904C792.369 928.953 790.066 934.636 785.853 933.665C784.598 932.41 785.145 932.601 783.643 932.123L783.566 932.307C784.274 933.286 784.759 933.773 785.579 934.65C764.762 927.163 733.32 903.745 717.413 888.319C674.202 846.188 648.841 793.534 635.841 735.174C626.474 693.123 623.975 658.802 622.47 616.055C662.166 614.071 696.879 602.975 732.691 585.625C739.162 582.49 747.508 578.185 753.503 574.337C756.876 565.921 761.099 551.724 764.205 542.518C753.982 546.318 737.896 557.499 726.897 562.916C683.566 584.259 644.631 594.538 596.577 597.446C596.366 659.479 603.607 727.288 623.63 786.219C628.948 801.868 635.928 815.671 642.802 830.496C642.349 831.926 642.364 831.457 643.36 833.3C659.506 863.134 683.484 895.312 709.833 916.715C715.04 920.938 720.347 925.036 725.75 929.004C727.91 930.566 738.583 937.772 739.597 938.951C737.569 938.684 732.753 934.781 730.741 933.439C710.757 920.11 693.126 903.461 677.625 885.168C677.315 884.801 676.996 884.219 676.746 883.783L676.001 883.943L675.578 885.052C652.162 856.625 636.305 828.561 622.572 794.291L622.397 793.229L621.313 790.434L620.026 786.773L619.153 784.159C617.765 780.82 616.761 776.155 615.207 772.28C602.236 725.902 594.887 678.134 593.318 630.002C592.879 618.536 592.287 605.152 592.86 593.725C602.57 593.189 611.326 593.066 621.134 591.76C658.211 586.824 692.506 575.724 725.863 559.096C732.405 555.873 738.806 552.369 745.048 548.596C750.946 545.034 757.728 540.591 764.033 537.871C766.954 536.611 768.603 536.554 771.352 537.797C772.953 538.549 774.548 538.897 776.298 538.782C779.186 536.997 778.651 533.884 780.146 529.697L780.371 529.08C784.365 530.186 781.866 531.117 784.402 532.339C785.611 531.333 785.54 531.409 786.275 530.014L785.658 529.296C783.125 528.354 782.566 527.893 780.077 528.465C779.615 527.514 779.657 527.355 779.842 526.319C774.33 525.253 775.668 535.83 771.352 537.797C771.29 535.328 774.123 521.972 775.808 519.8C778.323 516.558 785.818 519.321 789.263 520.312C792.123 513.914 793.947 507.154 797.129 501.074ZM778.781 757.85C784.762 741.936 789.629 725.787 794.852 709.627C796.277 705.548 798.039 700.889 799.045 696.743C787.356 699.333 778.215 699.905 767.849 693.157C741.932 676.285 748.301 636.151 779.213 630.003C795.78 626.708 806.464 633.766 816.318 646.484C822.07 628.295 827.992 610.16 834.083 592.081C836.248 585.542 841.051 572.379 842.394 566.309C821.178 559.505 800.188 551.805 779.003 544.869C775.448 543.705 772.537 542.188 768.742 541.875C754.228 583.64 740.941 626.002 726.794 667.858L712.082 711.305C709.825 717.92 705.321 729.89 703.949 736.327C720.948 740.617 738.097 746.16 754.999 750.923C762.847 753.135 770.864 756.268 778.781 757.85ZM711.443 871.542C729.886 871.667 748.288 871.217 766.723 871.117L863.979 871.308C877.818 871.098 891.804 871.605 905.321 871.358C901.748 856.462 896.132 845.886 882.785 837.597C869.391 829.279 860.443 829.965 845.4 830.065L819.502 830.099L776.325 829.893C770.276 829.896 760.278 829.661 754.437 830.17C733.43 833.317 715.481 850.727 711.443 871.542ZM816.552 722.318C816.758 724.043 817.023 726.652 817.592 728.244C818.99 732.154 821.4 734.344 821.388 738.577C821.365 747.388 821.077 756.391 821.182 765.188C821.246 770.561 823.855 773.851 822.744 780.224C822.084 780.054 822.407 780.198 821.794 779.75C819.732 783.184 819.463 789.057 817.818 792.496C815.836 796.64 812.455 805.728 809.159 808.322C806.327 814.337 803.15 820.157 800.302 826.238C805.717 826.631 813.488 826.439 819.067 826.463L851.537 826.714C875.011 777.789 862.353 709.233 819.465 674.781C814.962 684.028 813.413 685.461 806.283 692.714C805.535 694.655 804.121 696 802.735 697.598C805.871 705.013 812.182 709.076 813.18 718.676L816.552 722.318ZM718.052 791.796L719.703 792.205C726.628 794.714 735.546 797.278 742.699 799.391L745.855 800.2C756.714 803.401 768.865 806.746 779.523 810.276C782.579 811.056 785.624 811.876 788.659 812.737L790.023 813.252C791.401 813.661 792.193 813.851 793.494 814.519L794.038 814.448C795.626 814.903 797.55 815.516 799.139 815.846L801.187 816.183C803.487 814.75 805.128 809.211 804.419 806.616L802.775 805.799L801.677 805.53L794.98 803.671L793.562 802.812L791.592 802.62C788.302 801.654 784.984 800.602 781.701 799.594C770.956 796.33 759.677 793.302 748.83 790.119L745.603 789.037C744.737 788.938 739.681 787.307 738.529 786.954C734.926 786.045 730.168 784.177 726.649 783.706C710.102 777.844 692.841 773.251 675.989 768.344C672.754 767.402 669.313 766.549 666.001 765.927L663.274 775.621C678.843 780.946 702.189 787.956 718.052 791.796ZM744.87 766.683C747.595 767.795 748.778 768.089 751.587 768.767L760.208 771.465L762.303 764.367C762.63 762.775 763.891 758.859 764.396 757.147L758.89 755.696L756.597 755.039C752.901 753.849 748.926 752.78 745.177 751.703C740.513 750.297 735.825 748.974 731.114 747.735C727.842 748.079 720.849 747.139 718.688 748.655C717.314 751.291 714.505 755.42 718.568 757.314C723.934 759.816 740.341 762.792 744.586 765.814L744.87 766.683ZM754.671 760.255C756.17 759.666 758.119 759.281 759.726 758.907C760.079 760.559 760.743 762.505 760.143 763.966C757.479 764.25 755.413 764.437 752.7 764.512C750.778 763.936 749.949 763.877 749.496 761.949C751.263 760.351 752.399 760.601 754.671 760.255Z"/><defs><linearGradient id="gradient_5" gradientUnits="userSpaceOnUse" x1="826.90631" y1="697.41858" x2="717.45062" y2="602.3515"><stop offset="0" stop-color="white" stop-opacity="0.96470588"/><stop offset="1" stop-color="white"/></linearGradient></defs><path fill="url(#gradient_5)" d="M768.742 541.875C772.537 542.188 775.448 543.705 779.003 544.869C800.188 551.805 821.178 559.505 842.394 566.309C841.051 572.379 836.248 585.542 834.083 592.081C827.992 610.16 822.07 628.295 816.318 646.484C806.464 633.766 795.78 626.708 779.213 630.003C748.301 636.151 741.932 676.285 767.849 693.157C778.215 699.905 787.356 699.333 799.045 696.743C798.039 700.889 796.277 705.548 794.852 709.627C789.629 725.787 784.762 741.936 778.781 757.85C770.864 756.268 762.847 753.135 754.999 750.923C738.097 746.16 720.948 740.617 703.949 736.327C705.321 729.89 709.825 717.92 712.082 711.305L726.794 667.858C740.941 626.002 754.228 583.64 768.742 541.875Z"/><path fill="#FEFEFF" fill-opacity="0.043137256" d="M754.437 830.17C760.278 829.661 770.276 829.896 776.325 829.893L819.502 830.099L845.4 830.065C860.443 829.965 869.391 829.279 882.785 837.597C896.132 845.886 901.748 856.462 905.321 871.358C891.804 871.605 877.818 871.098 863.979 871.308L766.723 871.117C748.288 871.217 729.886 871.667 711.443 871.542C715.481 850.727 733.43 833.317 754.437 830.17Z"/><path fill="#FEFEFF" fill-opacity="0.84313726" d="M819.465 674.781C862.353 709.233 875.011 777.789 851.537 826.714L819.067 826.463C813.488 826.439 805.717 826.631 800.302 826.238C803.15 820.157 806.327 814.337 809.159 808.322C812.455 805.728 815.836 796.64 817.818 792.496C819.463 789.057 819.732 783.184 821.794 779.75C822.407 780.198 822.084 780.054 822.744 780.224C823.855 773.851 821.246 770.561 821.182 765.188C821.077 756.391 821.365 747.388 821.388 738.577C821.4 734.344 818.99 732.154 817.592 728.244C817.023 726.652 816.758 724.043 816.552 722.318L813.18 718.676C812.182 709.076 805.871 705.013 802.735 697.598C804.121 696 805.535 694.655 806.283 692.714C813.413 685.461 814.962 684.028 819.465 674.781ZM857.818 747.441C859.445 745.35 858.856 740.541 856.274 739.216C855.273 742.173 854.912 743.416 855.889 746.314C856.873 747.003 856.766 746.931 857.818 747.441ZM854.05 733.433C855.497 731.111 854.908 727.742 852.584 726.264C850.95 730.269 850.427 730.831 854.05 733.433Z"/><path fill="#FEFEFF" fill-opacity="0.68627453" d="M856.274 739.216C858.856 740.541 859.445 745.35 857.818 747.441C856.766 746.931 856.873 747.003 855.889 746.314C854.912 743.416 855.273 742.173 856.274 739.216Z"/><path fill="#FEFEFF" fill-opacity="0.67843139" d="M852.584 726.264C854.908 727.742 855.497 731.111 854.05 733.433C850.427 730.831 850.95 730.269 852.584 726.264Z"/><path fill="#FEFEFF" d="M781.663 633.238C798.646 630.691 814.473 642.409 816.992 659.397C819.511 676.384 807.766 692.191 790.775 694.682C773.823 697.168 758.06 685.456 755.547 668.509C753.034 651.561 764.719 635.779 781.663 633.238Z"/><path fill="#FEFEFF" d="M799.057 505.299C801.503 506.551 809.306 509.016 812.092 510.002C821.531 513.342 831.067 516.394 840.437 519.97C836.152 532.475 831.758 544.942 827.255 557.37C813.47 552.833 799.068 547.317 785.192 543.439C790.454 530.313 793.958 518.098 799.057 505.299Z"/><defs><linearGradient id="gradient_6" gradientUnits="userSpaceOnUse" x1="743.67206" y1="751.64801" x2="720.27722" y2="760.96991"><stop offset="0" stop-color="white" stop-opacity="0.75686276"/><stop offset="1" stop-color="white" stop-opacity="0.86666667"/></linearGradient></defs><path fill="url(#gradient_6)" d="M731.114 747.735C735.825 748.974 740.513 750.297 745.177 751.703C742.7 753.32 739.168 753.492 737.968 754.576L738.37 755.303C740.215 755.789 751.282 759.722 750.443 759.614L754.671 760.255C752.399 760.601 751.263 760.351 749.496 761.949C749.949 763.877 750.778 763.936 752.7 764.512C750.911 766.073 751.17 766.247 751.587 768.767C748.778 768.089 747.595 767.795 744.87 766.683L744.586 765.814C740.341 762.792 723.934 759.816 718.568 757.314C714.505 755.42 717.314 751.291 718.688 748.655C720.849 747.139 727.842 748.079 731.114 747.735Z"/><path fill="#FEFEFF" fill-opacity="0.64313728" d="M748.83 790.119C759.677 793.302 770.956 796.33 781.701 799.594C779.511 802.771 778.525 805.039 779.212 808.755C779.308 809.263 779.412 809.77 779.523 810.276C768.865 806.746 756.714 803.401 745.855 800.2C747.446 798.878 748.225 797.288 749.872 796.639C752.335 798.702 757.29 802.581 760.239 800.065C761.928 792.447 754.552 795.214 750.531 793.47C749.209 792.174 749.245 791.837 748.83 790.119ZM775.332 804.996C774.099 800.768 771.751 799.994 767.703 800.365C768.078 804.643 771.626 805.553 775.332 804.996Z"/><path fill="#FEFEFF" fill-opacity="0.52156866" d="M767.703 800.365C771.751 799.994 774.099 800.768 775.332 804.996C771.626 805.553 768.078 804.643 767.703 800.365Z"/><path fill="#F8F7FE" d="M806.283 692.714C805.535 694.655 804.121 696 802.735 697.598C805.871 705.013 812.182 709.076 813.18 718.676L816.552 722.318C816.758 724.043 817.023 726.652 817.592 728.244C818.99 732.154 821.4 734.344 821.388 738.577C821.365 747.388 821.077 756.391 821.182 765.188C821.246 770.561 823.855 773.851 822.744 780.224C822.084 780.054 822.407 780.198 821.794 779.75C819.732 783.184 819.463 789.057 817.818 792.496C815.836 796.64 812.455 805.728 809.159 808.322C811.371 802.698 813.929 796.093 815.689 790.313C821.984 769.64 821.761 743.747 814.1 723.474C810.659 714.368 805.084 704.665 800.456 696.007C802.308 695.096 804.463 693.766 806.283 692.714Z"/><defs><linearGradient id="gradient_7" gradientUnits="userSpaceOnUse" x1="743.8147" y1="790.59967" x2="736.84546" y2="793.82617"><stop offset="0" stop-color="white" stop-opacity="0.34901962"/><stop offset="1" stop-color="white" stop-opacity="0.42745098"/></linearGradient></defs><path fill="url(#gradient_7)" d="M738.529 786.954C739.681 787.307 744.737 788.938 745.603 789.037C745.442 793.945 750.111 796.382 742.699 799.391C735.546 797.278 726.628 794.714 719.703 792.205C720.226 792.149 720.501 792.199 720.922 791.91C725.151 789.012 729.466 794.581 733.711 790.955C735.184 787.376 734.942 787.883 738.529 786.954Z"/><defs><linearGradient id="gradient_8" gradientUnits="userSpaceOnUse" x1="735.28424" y1="788.57135" x2="722.69421" y2="786.03558"><stop offset="0" stop-color="white" stop-opacity="0.3019608"/><stop offset="1" stop-color="white" stop-opacity="0.38431373"/></linearGradient></defs><path fill="url(#gradient_8)" d="M726.649 783.706C730.168 784.177 734.926 786.045 738.529 786.954C734.942 787.883 735.184 787.376 733.711 790.955C729.466 794.581 725.151 789.012 720.922 791.91C720.501 792.199 720.226 792.149 719.703 792.205L718.052 791.796C719.733 785.95 719.621 783.702 726.649 783.706Z"/><path fill="#F8F7FE" d="M717.751 744.156C722.445 744.909 726.611 746.306 731.114 747.735C727.842 748.079 720.849 747.139 718.688 748.655C717.314 751.291 714.505 755.42 718.568 757.314C723.934 759.816 740.341 762.792 744.586 765.814L744.87 766.683C736.812 764.927 722.564 759.99 713.426 757.622C715.51 752.798 716.419 749.254 717.751 744.156Z"/><path fill="#FEFEFF" fill-opacity="0.49411765" d="M745.603 789.037L748.83 790.119C749.245 791.837 749.209 792.174 750.531 793.47C754.552 795.214 761.928 792.447 760.239 800.065C757.29 802.581 752.335 798.702 749.872 796.639C748.225 797.288 747.446 798.878 745.855 800.2L742.699 799.391C750.111 796.382 745.442 793.945 745.603 789.037Z"/><path fill="#FEFEFF" fill-opacity="0.49803922" d="M781.701 799.594C784.984 800.602 788.302 801.654 791.592 802.62C791.323 804.63 790.66 806.585 788.421 807.108C787.872 805.951 787.878 805.305 787.7 804.032C786.102 802.233 782.267 802.336 782.06 805.323C783.479 808.112 784.996 809.349 787.721 810.824L788.659 812.737C785.624 811.876 782.579 811.056 779.523 810.276C779.412 809.77 779.308 809.263 779.212 808.755C778.525 805.039 779.511 802.771 781.701 799.594Z"/><path fill="#FEFEFF" fill-opacity="0.66274512" d="M745.177 751.703C748.926 752.78 752.901 753.849 756.597 755.039L755.923 755.443C753.083 757.111 752.209 756.088 750.443 759.614C751.282 759.722 740.215 755.789 738.37 755.303L737.968 754.576C739.168 753.492 742.7 753.32 745.177 751.703Z"/><path fill="#FEFEFF" fill-opacity="0.41960785" d="M788.659 812.737L787.721 810.824C784.996 809.349 783.479 808.112 782.06 805.323C782.267 802.336 786.102 802.233 787.7 804.032C787.878 805.305 787.872 805.951 788.421 807.108C790.66 806.585 791.323 804.63 791.592 802.62L793.562 802.812L793.067 803.51C792.517 806.689 790.913 808.227 790.023 813.252L788.659 812.737Z"/><path fill="#FEFEFF" fill-opacity="0.15294118" d="M794.725 804.123C795.722 806.363 794.963 805.589 796.816 806.759C798.716 806.941 799.885 806.249 801.677 805.53L802.775 805.799C801.264 806.582 800.922 806.604 799.874 807.954C799.378 811.08 800.496 811.932 799.783 815.507L799.139 815.846C797.55 815.516 795.626 814.903 794.038 814.448C795.279 814.098 795.27 814.134 796.343 813.442C796.836 809.997 793.82 811.232 794.725 804.123Z"/><path fill="#F8F7FE" d="M754.671 760.255C756.17 759.666 758.119 759.281 759.726 758.907C760.079 760.559 760.743 762.505 760.143 763.966C757.479 764.25 755.413 764.437 752.7 764.512C750.778 763.936 749.949 763.877 749.496 761.949C751.263 760.351 752.399 760.601 754.671 760.255Z"/><path fill="#FEFEFF" fill-opacity="0.28235295" d="M802.775 805.799L804.419 806.616C805.128 809.211 803.487 814.75 801.187 816.183L799.139 815.846L799.783 815.507C800.496 811.932 799.378 811.08 799.874 807.954C800.922 806.604 801.264 806.582 802.775 805.799Z"/><path fill="#FEFEFF" fill-opacity="0.23921569" d="M756.597 755.039L758.89 755.696L758.007 756.123L759.571 757.285L759.726 758.907C758.119 759.281 756.17 759.666 754.671 760.255L750.443 759.614C752.209 756.088 753.083 757.111 755.923 755.443L756.597 755.039Z"/><path fill="#FEFEFF" fill-opacity="0.098039217" d="M758.89 755.696L764.396 757.147C763.891 758.859 762.63 762.775 762.303 764.367L760.143 763.966C760.743 762.505 760.079 760.559 759.726 758.907L759.571 757.285L758.007 756.123L758.89 755.696Z"/><path fill="#FEFEFF" fill-opacity="0.21568628" d="M793.067 803.51C794.288 805.215 793.488 808.395 794.506 812.305L793.494 814.519C792.193 813.851 791.401 813.661 790.023 813.252C790.913 808.227 792.517 806.689 793.067 803.51Z"/><path fill="#FEFEFF" fill-opacity="0.18431373" d="M793.562 802.812L794.98 803.671L794.725 804.123C793.82 811.232 796.836 809.997 796.343 813.442C795.27 814.134 795.279 814.098 794.038 814.448L793.494 814.519L794.506 812.305C793.488 808.395 794.288 805.215 793.067 803.51L793.562 802.812Z"/><path fill="#FEFEFF" fill-opacity="0.082352944" d="M794.98 803.671L801.677 805.53C799.885 806.249 798.716 806.941 796.816 806.759C794.963 805.589 795.722 806.363 794.725 804.123L794.98 803.671Z"/><path fill="#F4F4F4" d="M778.545 522.053C781.009 522.034 785.137 523.016 787.279 524.343L787.448 525.475L787.292 525.511C784.296 524.343 780.849 523.949 778.545 522.053Z"/><path fill="#F8F7FE" d="M782.593 534.845C783.454 538.516 783.233 537.834 781.41 541.72C781.008 541.092 780.866 540.665 780.567 539.979C780.877 537.63 781.421 536.986 782.593 534.845Z"/><path fill="#080717" d="M194.859 467.504L313.405 467.358L312.946 569.105C324.902 569.731 399.232 568.366 402.294 570.709C402.881 575.133 402.515 586.884 402.49 591.763L402.469 628.579C411.899 628.556 456.881 627.111 462.523 629.997C464.297 632.934 463.509 656.357 463.486 661.651C474.712 661.682 534.483 660.518 540.539 663.006C541.93 666.244 541.367 728.886 541.384 737.247C540.492 752.52 541.048 772.884 541.076 788.551C541.103 803.131 540.585 821.769 541.278 835.989C546.549 835.986 552.444 835.854 557.662 836.125L559.431 836.91C559.184 838.052 559.007 838.407 558.556 839.497C556.843 840.409 502.258 839.819 496.034 839.818L262.434 840.308L198.698 840.524C193.675 840.567 169.048 842.122 166.729 839.235L166.971 838.546C170.28 836.298 173.132 836.872 177.219 836.943C182.982 836.923 188.745 836.823 194.505 836.644C195.271 713.599 195.389 590.55 194.859 467.504ZM402.227 667.941C412.479 667.943 432.618 667.634 443.371 668.438C443.726 668.76 444.081 669.081 444.437 669.403L444.517 670.258C442.203 672.564 435.272 672.11 431.921 672.104C422.057 672.004 412.192 672.005 402.328 672.105L404.293 672.689L404.55 675.262C404.961 679.49 402.435 685.83 405.712 687.758L402.809 688.189C410.808 688.41 438.785 687.441 444.034 688.868L444.753 690.323C440.742 693.569 433.138 692.346 428.095 692.343L402.006 692.487L402.006 707.619C407.093 707.609 442.304 707.2 443.971 708.104C444.608 709.468 444.53 708.748 443.973 710.352C443.401 710.869 442.527 711.688 441.715 711.669C429.352 711.395 414.331 713.005 402.183 711.853C402.057 715.957 401.686 723.217 402.295 727.042C403.636 727.821 404.832 727.651 406.416 727.674C411.659 727.61 440.463 727.075 443.652 728.175L444.377 728.973C444.125 730.786 444.486 729.995 443.149 731.376C439.071 732.185 410.046 732.031 405.062 731.714C404.088 731.86 403.28 731.735 402.981 732.352C401.758 734.878 402.183 745.817 402.914 748.199C407.415 747.281 416.871 748.053 421.777 747.616C423.898 747.427 425.679 748.177 427.311 749.517L427.61 750.549C425.07 752.992 407.037 751.906 402.334 752.056L404.56 752.564C406.057 759.027 402.61 763.777 405.43 767.249C408.37 768.228 436.593 768.358 440.685 767.812L440.95 768.578C442.738 768.805 442.781 768.74 444.48 769.548C445.192 770.846 445.093 770.167 444.702 771.663C442.199 773.775 431.845 773.073 428.282 773.066L402.264 772.997C402.129 778.143 402.185 783.651 402.157 788.824C409.577 788.869 438.088 788.331 443.61 789.304C444.99 790.708 444.601 789.902 444.924 791.753L444.267 792.589C441.773 793.581 407.359 793.136 402.299 793.149L402.267 809.032L429.187 808.996C432.661 808.993 442.644 808.03 444.447 810.498L444.237 811.567C441.475 814.065 431.995 813.218 427.86 813.212C419.329 813.152 410.797 813.199 402.267 813.351C402.163 820.907 402.11 828.463 402.109 836.019L459.209 836.001L459.297 633.008C447.778 632.903 434.608 632.631 423.167 633.038C419.266 633.88 407.53 633.539 403.025 633.487C403.011 635.891 402.548 644.163 403.065 645.792C404.662 647.298 405.316 647.279 407.764 647.175C413.407 646.935 420.341 646.671 425.972 647.042L425.886 647.329L424.278 647.657C426.747 648.094 426.429 647.668 428.092 649.066L428.536 650.319C426.369 653.442 406.914 652.212 402.248 652.293C402.215 657.448 402.103 662.804 402.227 667.941ZM256.21 716.573C258.173 715.926 259.632 714.265 260.021 712.234C260.409 710.203 259.667 708.122 258.081 706.795C256.495 705.468 254.315 705.105 252.385 705.846C249.498 706.954 248.023 710.164 249.061 713.076C250.1 715.989 253.273 717.541 256.21 716.573ZM227.686 668.217C229.589 667.43 230.915 665.671 231.147 663.625C231.379 661.578 230.481 659.567 228.803 658.374C227.124 657.181 224.929 656.993 223.073 657.885C220.311 659.212 219.106 662.496 220.355 665.294C221.605 668.093 224.854 669.388 227.686 668.217ZM256.05 598.1C262.412 594.292 261.305 586.121 252.844 586.39C247.363 591.041 248.027 598.145 256.05 598.1ZM255.969 692.654C258.937 691.89 260.731 688.872 259.985 685.9C259.238 682.927 256.232 681.115 253.255 681.844C250.253 682.578 248.422 685.616 249.174 688.614C249.927 691.612 252.976 693.425 255.969 692.654ZM226.377 573.182C229.414 572.693 231.473 569.827 230.966 566.793C230.46 563.759 227.582 561.717 224.551 562.241C221.545 562.761 219.523 565.61 220.025 568.619C220.528 571.628 223.365 573.666 226.377 573.182ZM227.179 621.048C230.084 620.101 231.679 616.985 230.746 614.075C229.813 611.165 226.704 609.556 223.79 610.475C220.856 611.4 219.234 614.534 220.173 617.464C221.112 620.393 224.254 622.001 227.179 621.048ZM281.47 680.945C275.227 684.161 274.793 691.549 282.167 692.909C288.917 690.789 287.925 682.434 281.47 680.945ZM280.243 705.897C277.461 706.778 275.903 709.73 276.744 712.524C277.586 715.318 280.516 716.917 283.322 716.114C285.171 715.585 286.593 714.101 287.042 712.23C287.491 710.359 286.898 708.391 285.49 707.08C284.082 705.769 282.078 705.317 280.243 705.897ZM283.245 644.506C286.039 643.64 287.614 640.684 286.774 637.882C285.934 635.08 282.994 633.477 280.184 634.29C277.335 635.114 275.706 638.103 276.557 640.943C277.408 643.784 280.413 645.385 283.245 644.506ZM255.757 525.448C262.204 521.838 261.058 514.025 253.783 513.837C250.923 518.354 245.874 525.715 255.757 525.448ZM283.522 525.121C289.046 520.968 288.444 514.099 280.457 513.949C274.912 517.909 276.026 524.601 283.522 525.121ZM280.845 657.854C277.977 658.365 276.071 661.111 276.595 663.977C277.118 666.843 279.872 668.738 282.736 668.202C285.583 667.669 287.463 664.936 286.943 662.087C286.422 659.238 283.697 657.346 280.845 657.854ZM281.693 762.326C283.636 760.791 283.491 761.352 284.298 759.345C283.437 757.655 283.985 758.438 282.112 757.193C279.74 757.434 279.897 757.013 278.577 758.31C278.935 760.256 279.994 760.995 281.693 762.326ZM253.163 657.862C250.244 658.712 248.564 661.765 249.408 664.686C250.253 667.606 253.302 669.292 256.225 668.454C259.155 667.613 260.847 664.553 260 661.624C259.153 658.695 256.09 657.01 253.163 657.862ZM252.8 609.973C250.905 611.451 249.757 612.696 249.443 615.219C249.232 616.824 249.739 618.441 250.828 619.638C252.249 621.217 253.911 621.594 255.977 621.691C262.026 617.272 260.566 610.324 252.8 609.973ZM224.649 538.648C222.688 538.968 221.056 540.33 220.39 542.203C219.724 544.076 220.13 546.162 221.45 547.649C222.769 549.135 224.793 549.786 226.732 549.347C229.606 548.696 231.442 545.88 230.879 542.987C230.316 540.095 227.558 538.173 224.649 538.648ZM256.727 549.048C259.523 547.8 260.775 544.519 259.521 541.724C258.268 538.93 254.984 537.684 252.193 538.943C249.408 540.198 248.166 543.471 249.416 546.258C250.666 549.045 253.937 550.294 256.727 549.048ZM227.715 692.354C230.486 691.238 231.823 688.083 230.698 685.315C229.573 682.548 226.413 681.221 223.65 682.356C220.899 683.485 219.581 686.626 220.701 689.381C221.82 692.135 224.957 693.464 227.715 692.354ZM283.308 491.52C280.328 492.986 277.832 494.74 278.755 498.654C280.026 500.169 280.184 500.21 282.411 500.707C287.621 498.192 288.375 491.469 283.308 491.52ZM227.196 644.75C230.06 643.932 231.729 640.958 230.934 638.087C230.14 635.217 227.179 633.524 224.302 634.295C221.392 635.075 219.675 638.078 220.479 640.982C221.283 643.885 224.299 645.578 227.196 644.75ZM283.239 740.04C285.09 739.51 286.494 737.996 286.882 736.11C287.271 734.223 286.579 732.278 285.087 731.059C283.596 729.841 281.551 729.552 279.781 730.31C277.269 731.384 276.025 734.225 276.94 736.799C277.855 739.373 280.613 740.792 283.239 740.04ZM281.907 562.968C277.271 566.678 274.27 571.563 282.453 573.494C287.804 570.423 289.574 564.402 281.907 562.968ZM256.52 764.232C259.285 763.103 260.657 759.985 259.622 757.183C258.588 754.382 255.519 752.904 252.683 753.842C250.761 754.478 249.339 756.113 248.974 758.104C248.609 760.096 249.359 762.128 250.931 763.405C252.503 764.681 254.646 764.998 256.52 764.232ZM255.365 490.775C253.616 492.502 251.169 496.009 250.922 498.493C251.931 500.836 253.428 500.849 255.845 501.01C261.118 497.95 261.303 490.598 255.365 490.775ZM254.85 645.701C261.857 642.201 261.669 635.308 253.926 633.534C247.346 636.53 247.391 643.535 254.85 645.701ZM253.821 562.378C250.803 562.751 248.667 565.511 249.062 568.526C249.457 571.542 252.232 573.658 255.244 573.242C258.227 572.83 260.318 570.088 259.927 567.103C259.536 564.118 256.809 562.007 253.821 562.378ZM281.211 538.821C278.384 539.253 276.441 541.891 276.865 544.719C277.29 547.547 279.924 549.497 282.753 549.079C285.591 548.66 287.55 546.015 287.124 543.177C286.697 540.34 284.048 538.387 281.211 538.821ZM224.304 730.223C221.444 730.945 219.682 733.818 220.337 736.695C220.991 739.571 223.822 741.4 226.713 740.813C228.645 740.421 230.213 739.014 230.81 737.135C231.407 735.257 230.94 733.202 229.589 731.767C228.238 730.332 226.215 729.741 224.304 730.223ZM223.803 514.282C220.942 515.104 219.276 518.077 220.067 520.947C220.858 523.817 223.811 525.517 226.69 524.758C228.581 524.259 230.059 522.783 230.558 520.892C231.058 519.001 230.503 516.988 229.106 515.62C227.708 514.252 225.683 513.741 223.803 514.282ZM223.49 753.872C220.684 754.911 219.24 758.018 220.255 760.833C221.27 763.648 224.364 765.119 227.188 764.129C230.046 763.126 231.539 759.986 230.512 757.136C229.485 754.286 226.331 752.82 223.49 753.872ZM224.356 490.446C222.426 490.869 220.873 492.296 220.289 494.183C219.704 496.069 220.178 498.125 221.53 499.564C222.882 501.004 224.903 501.607 226.823 501.142C229.747 500.434 231.556 497.505 230.88 494.574C230.204 491.642 227.294 489.801 224.356 490.446ZM252.771 729.73C250.872 730.305 249.431 731.86 249.001 733.797C248.571 735.734 249.219 737.753 250.696 739.078C252.174 740.403 254.251 740.828 256.13 740.19C258.969 739.226 260.512 736.163 259.595 733.308C258.678 730.453 255.641 728.861 252.771 729.73ZM225.316 586.373C218.049 589.621 218.44 596.516 225.672 598.409C233.056 595.64 232.169 587.207 225.316 586.373ZM223.38 705.539C217.849 710.758 219.872 717.396 227.921 716.654C233.238 712.287 231.273 704.623 223.38 705.539Z"/><path fill="#FEFEFF" d="M291.703 574.228C327.251 573.826 362.802 573.726 398.352 573.928C399.321 607.081 398.146 644.119 398.153 677.637C398.487 730.442 398.52 783.249 398.252 836.055L291.483 836.028C291.029 817.98 291.327 798.872 291.297 780.793L291.402 649.968C291.372 624.974 291.153 599.987 291.008 574.997C291.239 574.741 291.471 574.484 291.703 574.228Z"/><path fill="#080717" d="M370.265 721.901C371.852 721.108 373.781 721.739 374.594 723.316C375.406 724.893 374.799 726.83 373.232 727.661C372.202 728.208 370.956 728.159 369.972 727.532C368.988 726.905 368.417 725.797 368.478 724.631C368.538 723.466 369.221 722.423 370.265 721.901Z"/><path fill="#080717" d="M370.975 773.93C372.589 773.455 374.297 774.308 374.886 775.885C375.475 777.462 374.746 779.226 373.215 779.926C372.123 780.426 370.843 780.274 369.898 779.532C368.953 778.79 368.502 777.582 368.729 776.403C368.955 775.223 369.822 774.269 370.975 773.93Z"/><path fill="#080717" d="M319.162 595.064C320.767 594.343 322.654 595.051 323.39 596.65C324.126 598.248 323.437 600.142 321.846 600.893C320.232 601.655 318.307 600.955 317.561 599.334C316.814 597.713 317.534 595.795 319.162 595.064Z"/><path fill="#080717" d="M370.61 748.33C371.682 747.881 372.913 748.049 373.826 748.768C374.74 749.488 375.191 750.645 375.007 751.793C374.823 752.94 374.031 753.898 372.938 754.295C371.304 754.888 369.494 754.069 368.862 752.449C368.229 750.829 369.005 749.001 370.61 748.33Z"/><path fill="#080717" d="M371.2 594.777C372.803 594.381 374.444 595.275 374.98 596.837C375.515 598.399 374.769 600.112 373.26 600.783C372.158 601.273 370.874 601.099 369.943 600.334C369.011 599.569 368.59 598.344 368.856 597.168C369.123 595.992 370.029 595.066 371.2 594.777Z"/><path fill="#080717" d="M319.017 620.727C319.993 620.098 321.235 620.053 322.255 620.609C323.275 621.164 323.91 622.233 323.911 623.394C323.912 624.556 323.279 625.625 322.26 626.183C320.76 627.003 318.88 626.489 318.006 625.02C317.132 623.55 317.579 621.652 319.017 620.727Z"/><path fill="#080717" d="M370.389 670.237C371.217 670.367 372.008 670.577 372.827 670.769C375.607 673.274 374.841 674.829 373.11 677.759C370.618 677.217 370.124 677.162 369.021 674.814C369.068 672.562 369.329 672.321 370.389 670.237Z"/><path fill="#080717" d="M345.222 773.778C346.832 773.306 348.528 774.189 349.065 775.778C349.602 777.367 348.79 779.097 347.223 779.699C346.152 780.11 344.941 779.902 344.069 779.156C343.197 778.41 342.804 777.246 343.044 776.124C343.285 775.001 344.121 774.101 345.222 773.778Z"/><path fill="#080717" d="M319.032 696.683C320.503 695.869 322.355 696.363 323.224 697.802C324.093 699.241 323.67 701.11 322.265 702.033C321.307 702.662 320.083 702.718 319.072 702.178C318.062 701.637 317.428 700.588 317.42 699.442C317.411 698.297 318.03 697.238 319.032 696.683Z"/><path fill="#080717" d="M319.713 645.772C321.259 645.177 323 645.897 323.674 647.411C324.348 648.924 323.719 650.7 322.242 651.452C321.217 651.973 319.987 651.887 319.045 651.227C318.103 650.567 317.601 649.441 317.741 648.299C317.881 647.157 318.639 646.185 319.713 645.772Z"/><path fill="#080717" d="M319.346 747.948C320.392 747.466 321.619 747.603 322.534 748.303C323.449 749.003 323.902 750.152 323.711 751.288C323.52 752.423 322.717 753.361 321.623 753.723C320.057 754.242 318.358 753.447 317.753 751.913C317.148 750.378 317.847 748.637 319.346 747.948Z"/><path fill="#080717" d="M370.779 696.325C371.855 695.979 373.033 696.243 373.857 697.017C374.681 697.79 375.02 698.949 374.743 700.044C374.465 701.14 373.614 701.998 372.522 702.285C370.895 702.713 369.223 701.767 368.751 700.153C368.279 698.538 369.178 696.842 370.779 696.325Z"/><path fill="#080717" d="M344.993 595.208C345.987 594.673 347.194 594.719 348.143 595.33C349.093 595.941 349.636 597.019 349.562 598.145C349.488 599.272 348.807 600.269 347.786 600.75C346.264 601.465 344.45 600.839 343.693 599.338C342.936 597.836 343.513 596.005 344.993 595.208Z"/><path fill="#080717" d="M318.829 721.794C321.375 722.051 322.644 721.831 323.87 724.195C323.734 725.986 323.364 726.268 322.322 727.708C319.631 727.911 318.739 727.993 317.535 725.546C317.499 723.591 317.766 723.398 318.829 721.794Z"/><path fill="#080717" d="M345.987 670.767C347.556 670.615 348.987 671.67 349.305 673.214C349.623 674.757 348.727 676.292 347.226 676.773C346.102 677.133 344.87 676.82 344.055 675.967C343.24 675.113 342.983 673.869 343.394 672.762C343.805 671.656 344.812 670.881 345.987 670.767Z"/><path fill="#080717" d="M319.15 774.254C320.135 773.685 321.353 773.705 322.318 774.307C323.283 774.908 323.837 775.993 323.758 777.128C323.68 778.262 322.982 779.261 321.944 779.724C320.45 780.391 318.695 779.771 317.951 778.314C317.208 776.857 317.734 775.073 319.15 774.254Z"/><path fill="#080717" d="M344.536 646.323C345.907 645.412 347.752 645.743 348.722 647.072C349.692 648.402 349.443 650.259 348.158 651.287C347.274 651.994 346.074 652.158 345.033 651.715C343.992 651.272 343.279 650.294 343.175 649.167C343.071 648.041 343.594 646.948 344.536 646.323Z"/><path fill="#080717" d="M319.599 671.131C321.186 670.513 322.973 671.301 323.586 672.889C324.2 674.478 323.407 676.262 321.817 676.871C320.234 677.478 318.457 676.689 317.846 675.107C317.235 673.525 318.019 671.747 319.599 671.131Z"/><path fill="#080717" d="M370.829 620.777C371.828 620.33 372.99 620.454 373.872 621.102C374.754 621.75 375.22 622.822 375.092 623.908C374.964 624.995 374.262 625.93 373.254 626.355C371.718 627.004 369.946 626.295 369.282 624.766C368.617 623.237 369.307 621.458 370.829 620.777Z"/><path fill="#080717" d="M345.085 747.937C346.648 747.341 348.399 748.12 349.001 749.681C349.603 751.241 348.83 752.995 347.272 753.603C345.705 754.214 343.941 753.436 343.335 751.868C342.73 750.299 343.514 748.537 345.085 747.937Z"/><path fill="#080717" d="M370.614 646.22C372.1 645.491 373.896 646.095 374.639 647.574C375.383 649.053 374.796 650.855 373.325 651.613C371.833 652.381 370.001 651.785 369.247 650.285C368.493 648.786 369.107 646.959 370.614 646.22Z"/><path fill="#080717" d="M345.158 620.746C346.652 620.15 348.348 620.853 348.982 622.331C349.616 623.808 348.957 625.522 347.496 626.194C346.517 626.645 345.371 626.528 344.502 625.891C343.633 625.253 343.179 624.194 343.315 623.125C343.452 622.056 344.157 621.145 345.158 620.746Z"/><path fill="#080717" d="M344.683 722.306C346.074 721.484 347.867 721.937 348.701 723.321C349.535 724.705 349.098 726.502 347.721 727.348C346.327 728.205 344.503 727.761 343.658 726.359C342.814 724.958 343.274 723.138 344.683 722.306Z"/><path fill="#080717" d="M344.723 696.767C345.609 696.185 346.742 696.133 347.679 696.63C348.615 697.127 349.206 698.095 349.221 699.155C349.236 700.215 348.672 701.199 347.75 701.722C346.387 702.496 344.655 702.049 343.837 700.711C343.02 699.372 343.412 697.627 344.723 696.767Z"/><path fill="#FEFEFF" d="M463.45 665.802C487.5 665.423 512.959 665.907 537.117 665.934C538.12 704.597 536.909 744.537 537.24 783.318C537.307 791.209 537.619 830.684 536.336 834.926L535.888 835.741C528.768 836.311 517.286 835.976 509.807 835.973L463.455 835.946L463.45 665.802Z"/><defs><linearGradient id="gradient_9" gradientUnits="userSpaceOnUse" x1="396.06494" y1="737.13177" x2="466.14011" y2="731.26733"><stop offset="0" stop-color="#FDFDFD" stop-opacity="0.92941177"/><stop offset="1" stop-color="white"/></linearGradient></defs><path fill="url(#gradient_9)" d="M423.167 633.038C434.608 632.631 447.778 632.903 459.297 633.008L459.209 836.001L402.109 836.019C402.11 828.463 402.163 820.907 402.267 813.351C410.797 813.199 419.329 813.152 427.86 813.212C431.995 813.218 441.475 814.065 444.237 811.567L444.447 810.498C442.644 808.03 432.661 808.993 429.187 808.996L402.267 809.032L402.299 793.149C407.359 793.136 441.773 793.581 444.267 792.589L444.924 791.753C444.601 789.902 444.99 790.708 443.61 789.304C438.088 788.331 409.577 788.869 402.157 788.824C402.185 783.651 402.129 778.143 402.264 772.997L428.282 773.066C431.845 773.073 442.199 773.775 444.702 771.663C445.093 770.167 445.192 770.846 444.48 769.548C442.781 768.74 442.738 768.805 440.95 768.578L440.685 767.812C436.593 768.358 408.37 768.228 405.43 767.249C402.61 763.777 406.057 759.027 404.56 752.564L402.334 752.056C407.037 751.906 425.07 752.992 427.61 750.549L427.311 749.517C425.679 748.177 423.898 747.427 421.777 747.616C416.871 748.053 407.415 747.281 402.914 748.199C403.379 747.982 403.843 747.764 404.308 747.547C405.7 742.439 402.543 736.395 405.062 731.714C410.046 732.031 439.071 732.185 443.149 731.376C444.486 729.995 444.125 730.786 444.377 728.973L443.652 728.175C440.463 727.075 411.659 727.61 406.416 727.674C403.893 725.089 405.089 718.017 404.247 712.561L402.183 711.853C414.331 713.005 429.352 711.395 441.715 711.669C442.527 711.688 443.401 710.869 443.973 710.352C444.53 708.748 444.608 709.468 443.971 708.104C442.304 707.2 407.093 707.609 402.006 707.619L402.006 692.487L428.095 692.343C433.138 692.346 440.742 693.569 444.753 690.323L444.034 688.868C438.785 687.441 410.808 688.41 402.809 688.189L405.712 687.758C402.435 685.83 404.961 679.49 404.55 675.262L404.293 672.689L402.328 672.105C412.192 672.005 422.057 672.004 431.921 672.104C435.272 672.11 442.203 672.564 444.517 670.258L444.437 669.403C444.081 669.081 443.726 668.76 443.371 668.438C432.618 667.634 412.479 667.943 402.227 667.941C402.103 662.804 402.215 657.448 402.248 652.293C406.914 652.212 426.369 653.442 428.536 650.319L428.092 649.066C426.429 647.668 426.747 648.094 424.278 647.657L425.886 647.329L425.972 647.042C420.341 646.671 413.407 646.935 407.764 647.175C405.316 647.279 404.662 647.298 403.065 645.792C402.548 644.163 403.011 635.891 403.025 633.487C407.53 633.539 419.266 633.88 423.167 633.038Z"/><path fill="#FEFEFF" d="M279.949 609.973C287.43 609.932 288.812 616.297 283.675 621.082C275.889 621.095 274.787 614.602 279.949 609.973Z"/><path fill="#FEFEFF" d="M279.604 753.817C281.331 752.989 283.373 753.175 284.923 754.301C286.472 755.427 287.28 757.312 287.026 759.21C286.772 761.109 285.498 762.715 283.707 763.395C281.094 764.387 278.164 763.142 277.064 760.573C275.963 758.004 277.083 755.025 279.604 753.817ZM281.693 762.326C283.636 760.791 283.491 761.352 284.298 759.345C283.437 757.655 283.985 758.438 282.112 757.193C279.74 757.434 279.897 757.013 278.577 758.31C278.935 760.256 279.994 760.995 281.693 762.326Z"/><path fill="#FEFEFF" fill-opacity="0.93333334" d="M282.112 757.193C283.985 758.438 283.437 757.655 284.298 759.345C283.491 761.352 283.636 760.791 281.693 762.326C279.994 760.995 278.935 760.256 278.577 758.31C279.897 757.013 279.74 757.434 282.112 757.193Z"/><path fill="#FEFEFF" fill-opacity="0.3764706" d="M279.781 730.31C281.551 729.552 283.596 729.841 285.087 731.059C286.579 732.278 287.271 734.223 286.882 736.11C286.494 737.996 285.09 739.51 283.239 740.04C280.613 740.792 277.855 739.373 276.94 736.799C276.025 734.225 277.269 731.384 279.781 730.31Z"/><path fill="#FEFEFF" d="M279.85 587.265C281.566 586.575 283.521 586.861 284.967 588.016C286.413 589.17 287.125 591.014 286.831 592.84C286.537 594.667 285.283 596.193 283.548 596.836C280.917 597.811 277.991 596.492 276.979 593.874C275.968 591.257 277.247 588.313 279.85 587.265Z"/><path fill="#F8F7FE" d="M402.334 752.056L404.56 752.564C406.057 759.027 402.61 763.777 405.43 767.249C408.37 768.228 436.593 768.358 440.685 767.812L440.95 768.578C438.188 769.322 406.817 768.924 402.217 768.904C402.143 763.396 402.281 757.589 402.334 752.056Z"/><path fill="#F4F4F4" fill-opacity="0.98823529" d="M406.416 727.674C404.832 727.651 403.636 727.821 402.295 727.042C401.686 723.217 402.057 715.957 402.183 711.853L404.247 712.561C405.089 718.017 403.893 725.089 406.416 727.674Z"/><path fill="#F8F7FE" d="M402.48 632.988C409.375 632.887 416.272 632.903 423.167 633.038C419.266 633.88 407.53 633.539 403.025 633.487C403.011 635.891 402.548 644.163 403.065 645.792C404.662 647.298 405.316 647.279 407.764 647.175C413.407 646.935 420.341 646.671 425.972 647.042L425.886 647.329L424.278 647.657C421.618 648.284 406.307 648.042 402.484 648.023L402.48 632.988Z"/><path fill="#FEFEFF" d="M402.328 672.105L404.293 672.689L404.55 675.262C404.961 679.49 402.435 685.83 405.712 687.758L402.809 688.189C401.782 686.501 402.289 674.811 402.328 672.105Z"/><path fill="#F4F4F4" fill-opacity="0.98823529" d="M402.914 748.199C402.183 745.817 401.758 734.878 402.981 732.352C403.28 731.735 404.088 731.86 405.062 731.714C402.543 736.395 405.7 742.439 404.308 747.547C403.843 747.764 403.379 747.982 402.914 748.199Z"/><path fill="#24aca4" d="M78.086 399.207C98.477 387.269 118.629 374.927 138.529 362.189C146.277 385.502 154.55 408.887 162.099 432.177L170.587 458.462C172.693 465.057 174.869 472.644 177.837 478.841C165.894 474.531 153.892 470.386 141.835 466.406C119.418 512.585 103.714 554.258 106.369 606.304C107.541 629.286 109.946 646.082 117.525 667.892C127.36 696.794 143.331 723.226 164.342 745.375C168.619 749.817 173.069 753.561 177.569 757.739C177.545 765.998 178.305 831.382 176.981 835.239L176.725 834.405C174.553 833.273 172.199 832.685 170.153 831.616C120.212 805.517 83.1192 756.964 62.2482 706.38C26.0171 618.567 30.4727 529.64 66.6698 443.293C54.8757 438.269 39.2683 434.842 27.2093 429.94C30.8179 427.195 37.0351 423.914 41.0882 421.462C49.496 416.276 57.9348 411.14 66.4042 406.056L68.3948 404.95C71.6444 403.133 75.0355 401.325 78.086 399.207Z"/><path fill="#24aca4" d="M694.143 226.071C697.996 206.91 700.882 187.568 702.79 168.118C705.497 170.011 716.374 173.538 720.193 175.023C727.898 178.033 735.461 181.398 742.855 185.106C791.005 209.29 832.178 252.096 844.042 305.84C846.893 318.741 848.077 331.956 847.564 345.159C861.156 346.497 874.737 347.945 888.306 349.5C869.007 365.717 849.842 382.094 830.814 398.628C821.349 406.74 807.999 417.375 799.451 425.664C791.835 414.898 781.418 394.46 774.546 382.119L754.724 346.523C751.67 340.995 747.87 334.705 745.116 329.158C755.725 331.249 770.484 332.512 781.569 333.702C780.114 325.851 778.648 318.109 776.186 310.492C767.012 282.964 749.047 259.215 725.055 242.896C713.699 235.083 706.245 231.624 694.143 226.071Z"/><path fill="#24aca4" fill-opacity="0.98431373" d="M596.577 597.446C644.631 594.538 683.566 584.259 726.897 562.916C737.896 557.499 753.982 546.318 764.205 542.518C761.099 551.724 756.876 565.921 753.503 574.337C747.508 578.185 739.162 582.49 732.691 585.625C696.879 602.975 662.166 614.071 622.47 616.055C623.975 658.802 626.474 693.123 635.841 735.174C648.841 793.534 674.202 846.188 717.413 888.319C733.32 903.745 764.762 927.163 785.579 934.65C787.496 935.441 789.975 936.368 791.751 937.328C791.208 941.191 791.491 952.453 791.509 956.855L791.612 957.306L791.396 963.746C786.971 962.501 774.603 956.46 770.116 954.305C728.839 934.705 693.142 905.057 666.298 868.079C660.391 860.008 655.142 850.93 649.88 842.425C648.109 839.562 645.006 833.477 643.219 831.052L642.802 830.496C635.928 815.671 628.948 801.868 623.63 786.219C603.607 727.288 596.366 659.479 596.577 597.446Z"/><defs><linearGradient id="gradient_10" gradientUnits="userSpaceOnUse" x1="960.7804" y1="806.20929" x2="900.0332" y2="544.64764"><stop offset="0" stop-color="#FFFFFE" stop-opacity="0.56078434"/><stop offset="1" stop-color="white" stop-opacity="0.98431373"/></linearGradient></defs><path fill="url(#gradient_10)" d="M848.583 556.262C877.473 572.543 925.179 591.113 958.582 593.603C948.902 605.759 965.601 600.018 968.227 603.984C971.214 608.497 971.632 609.052 976.417 605.875C978.429 607.238 977.944 612.19 981.182 614.191C982.827 613.846 983.268 612.6 984.556 610.918C984.465 626.769 982.802 642.351 982.402 657.847C979.814 680.328 978.399 697.904 974.559 720.846L972.784 723.3C971.328 722.754 971.08 722.103 970.19 720.815C966.166 722.902 964.968 731.284 965.349 735.379L966.054 735.296L966.794 734.592L967.839 735.234C968.113 736.545 968.226 736.52 968.153 737.807L966.202 736.789C960.187 739.581 960.638 750.164 960.441 755.574L961.225 755.678C962.291 754.094 962.3 753.936 962.948 752.216L963.194 752.443C962.989 756.353 963.124 757.834 961.11 761.197L960.391 761.503C959.542 760.503 959.545 760.025 959.098 758.73C958.699 761.33 959.207 762.409 960.452 764.727C959.342 768.271 961.427 769.27 959.835 774.178C957.674 780.836 955.2 787.235 951.882 793.483C951.298 794.584 949.415 797.969 949.068 798.861C945.329 802.976 944.844 803.965 939.346 803.784L938.745 804.289C939.98 805.828 941.305 807.109 941.592 809.02C940.032 812.068 937.378 811.783 934.513 811.145C931.19 810.404 930.116 811.925 927.664 808.939C926.848 804.977 929.659 803.459 928.885 800.601C926.938 799.523 926.84 799.86 924.651 800.774C929.649 788.593 934.063 777.119 938.034 764.547C940.693 756.13 942.595 747.184 945.241 738.974C948.272 725.095 951.081 712.681 953.168 698.499C957.288 670.496 958.361 643.199 958.354 614.946C955.134 614.693 951.947 614.604 948.733 614.404C911.015 612.061 873.977 601.648 840.512 583.896C841.966 577.813 846.685 568.542 845.732 563.376C845.768 563.133 845.998 562.961 846.157 562.774C847.738 560.911 846.658 558.008 848.583 556.262Z"/><defs><linearGradient id="gradient_11" gradientUnits="userSpaceOnUse" x1="838.46014" y1="905.95148" x2="853.02142" y2="930.18188"><stop offset="0" stop-color="white" stop-opacity="0.70588237"/><stop offset="1" stop-color="white" stop-opacity="0.80784315"/></linearGradient></defs><path fill="url(#gradient_11)" d="M864.914 889.112C864.746 890.719 864.682 891.595 864.668 893.204L864.661 892.236L865.425 892.26C866.395 890.25 866.576 889.737 868.276 888.322L869.343 888.07L869.867 888.495C868.446 891.016 866.065 892.42 865.617 894.292C871.807 892.105 882.762 876.324 892.323 880.703C893.171 881.091 893.118 881.388 893.692 882.306C893.929 885.083 892.41 888.364 891.382 891.041C890.403 891.819 889.487 892.454 888.418 893.099C886.786 894.084 870.735 913.369 870.148 915.555C870.002 916.099 869.953 916.653 869.864 917.207C869.741 917.975 869.387 918.573 869.014 919.241C865.806 921.839 862.661 924.414 859.339 926.873L858.202 927.147C857.552 925.922 857.697 926.214 857.331 924.865C853.567 924.022 849.452 930.665 847.943 933.476C847.962 933.442 841.985 934.361 841.495 934.801C838.699 936.239 835.644 938.009 832.892 939.524C829.405 941.442 824.796 942.984 821.47 944.687C815.238 947.974 809.695 952.519 802.285 952.628C801.563 952.638 798.982 953.649 798.276 953.285C793.401 950.777 799.871 941.503 798.716 937.556C798.258 935.991 797.748 936.223 797.065 934.671C823.482 921.502 843.041 908.773 864.914 889.112Z"/><path fill="#F4F4F4" fill-opacity="0.78823531" d="M576.277 42.2913C587.439 44.7947 599.342 46.5679 610.789 49.0883C631.676 53.8496 652.179 60.1589 672.129 67.9637C676.999 69.9177 686.205 73.3803 690.263 75.9458L691.148 81.9497C668.746 82.9274 624.286 71.8786 603.278 64.5035C604.052 63.5827 604.08 63.5731 604.594 62.4938L604.098 61.3154C601.311 60.3192 600.003 61.1206 597.448 62.372C589.585 59.5573 581.157 55.8459 573.465 52.5776C574.74 51.661 575.512 51.2847 576.243 49.8914C574.505 47.4547 571.222 47.1692 571.94 43.8641C573.518 42.5152 574.114 42.6177 576.277 42.2913Z"/><path fill="#080717" fill-opacity="0.96078432" d="M982.402 657.847C982.505 659.127 982.661 659.578 983.154 660.768L982.452 662.284C983.251 662.721 982.797 662.637 983.836 662.342C983.986 660.968 984.178 659.749 984.398 658.393L985.332 658.124C984.893 676.019 982.067 694.854 979.353 712.452C968.071 786.561 938.273 859.426 882.934 911.561C860.786 932.426 833.542 948.765 805.965 961.415C801.786 963.332 793.532 967.884 789.292 966.514C790.796 964.966 792.241 964.437 794.17 963.484L793.568 963.102L802.651 959.239C805.662 957.965 806.759 957.482 809.565 955.72C812.027 954.924 831.275 945.126 833.498 943.294L836.498 941.689C840.666 939.97 855.263 929.991 859.339 926.873C862.661 924.414 865.806 921.839 869.014 919.241C876.638 913.757 888.848 901.205 895.228 894.415C896.284 893.411 897.545 891.999 898.569 890.911C922.204 866.77 947.346 820.163 957.17 787.933C958.792 784.697 961.303 776.264 962.507 772.527C966.044 761.235 968.933 749.749 971.159 738.127C972.132 733.486 973.548 727.499 974.042 722.893L974.559 720.846C978.399 697.904 979.814 680.328 982.402 657.847Z"/><path fill="#F4F4F4" fill-opacity="0.34901962" d="M619.153 784.159L620.026 786.773C618.005 788.055 618.488 787.365 617.619 789.353L617.819 790.422L619.186 791.31C620.348 791.035 620.492 790.682 621.313 790.434L622.397 793.229C618.246 796.999 618.467 798.634 615.375 802.727C611.198 808.258 607.786 813.559 604.526 819.696C604.394 819.946 606.063 824.383 606.206 824.91C597.399 832.772 577.941 834.294 566.477 834.897C564.573 834.997 561.195 836.075 559.431 836.91L557.662 836.125L558.002 836.03C569.466 832.818 566.019 831.618 574.613 825.429C576.858 823.812 583.319 824.582 587.203 819.695C590.526 815.515 593.127 808.229 596.798 805.434C599.147 806.239 598.231 805.561 599.706 807.465C600.128 809.757 598.824 811.938 597.862 814.19L598.09 814.733C601.074 812.988 605.53 812.721 604.947 808.825L604.015 808.16C606.862 806.997 607.457 803.596 607.823 800.868L607.373 800.255C608.057 799.324 608.734 798.387 609.405 797.446C610.405 796.025 611.493 795.074 611.278 793.798L610.038 793.711L609.786 793.354L610.761 792.28C610.851 790.933 610.931 790.755 611.309 789.441L612.015 789.154C612.053 790.569 611.975 790.846 612.401 792.171C615.641 791.749 614.386 787.001 619.153 784.159Z"/><path fill="#F4F4F4" fill-opacity="0.63529414" d="M567.459 825.704C569.957 819.273 576.665 819.136 581.316 815.143C590.331 807.405 593.213 792.477 606.53 792.197C607.862 792.169 609.487 788.492 609.905 786.964C611.283 781.934 614.645 776.217 612.01 771.105L612.265 770.49C613.9 772.029 613.248 771.828 615.207 772.28C616.761 776.155 617.765 780.82 619.153 784.159C614.386 787.001 615.641 791.749 612.401 792.171C611.975 790.846 612.053 790.569 612.015 789.154L611.309 789.441C610.931 790.755 610.851 790.933 610.761 792.28L609.786 793.354L610.038 793.711L611.278 793.798C611.493 795.074 610.405 796.025 609.405 797.446C608.734 798.387 608.057 799.324 607.373 800.255L607.823 800.868C607.457 803.596 606.862 806.997 604.015 808.16L604.947 808.825C605.53 812.721 601.074 812.988 598.09 814.733L597.862 814.19C598.824 811.938 600.128 809.757 599.706 807.465C598.231 805.561 599.147 806.239 596.798 805.434C593.127 808.229 590.526 815.515 587.203 819.695C583.319 824.582 576.858 823.812 574.613 825.429C566.019 831.618 569.466 832.818 558.002 836.03C561.335 830.088 562.094 833.486 566.691 830.055C569.097 828.259 569.431 822.567 573.67 821.922C574.306 821.825 574.229 821.698 574.499 821.129L573.034 821.039C571.013 821.995 569.126 824.098 567.459 825.704Z"/><path fill="#080717" fill-opacity="0.98823529" d="M642.802 830.496L643.219 831.052C645.006 833.477 648.109 839.562 649.88 842.425C655.142 850.93 660.391 860.008 666.298 868.079C693.142 905.057 728.839 934.705 770.116 954.305C774.603 956.46 786.971 962.501 791.396 963.746C792.131 963.382 792.748 963.304 793.568 963.102L794.17 963.484C792.241 964.437 790.796 964.966 789.292 966.514C741.402 945.456 710 925.903 675.578 885.052L676.001 883.943L676.746 883.783C676.996 884.219 677.315 884.801 677.625 885.168C693.126 903.461 710.757 920.11 730.741 933.439C732.753 934.781 737.569 938.684 739.597 938.951C738.583 937.772 727.91 930.566 725.75 929.004C720.347 925.036 715.04 920.938 709.833 916.715C683.484 895.312 659.506 863.134 643.36 833.3C642.364 831.457 642.349 831.926 642.802 830.496Z"/><path fill="#FEFEFF" fill-opacity="0.56078434" d="M797.065 934.671C797.748 936.223 798.258 935.991 798.716 937.556C799.871 941.503 793.401 950.777 798.276 953.285C798.982 953.649 801.563 952.638 802.285 952.628C809.695 952.519 815.238 947.974 821.47 944.687C824.796 942.984 829.405 941.442 832.892 939.524C835.644 938.009 838.699 936.239 841.495 934.801C841.985 934.361 847.962 933.442 847.943 933.476C849.452 930.665 853.567 924.022 857.331 924.865C857.697 926.214 857.552 925.922 858.202 927.147L859.339 926.873C855.263 929.991 840.666 939.97 836.498 941.689C833.854 939.621 832.456 941.567 829.878 943.333C831.902 943.899 831.543 943.219 833.498 943.294C831.275 945.126 812.027 954.924 809.565 955.72C806.28 956.035 796.212 958.108 793.778 956.051C793.544 955.853 792.584 954.435 792.336 954.055C792.029 955.017 791.773 955.88 791.509 956.855C791.491 952.453 791.208 941.191 791.751 937.328C793.376 936.715 795.138 935.714 796.705 934.904L797.065 934.671Z"/><path fill="#FEFEFF" fill-opacity="0.5529412" d="M871.178 882.833C872.809 883.313 873.405 883.709 875.223 882.604C880.388 879.465 893.299 872.477 897.493 880.057C899.196 883.134 895.336 885.769 896.907 890.98C896.274 892.768 896.256 892.832 895.228 894.415C888.848 901.205 876.638 913.757 869.014 919.241C869.387 918.573 869.741 917.975 869.864 917.207C869.953 916.653 870.002 916.099 870.148 915.555C870.735 913.369 886.786 894.084 888.418 893.099C889.487 892.454 890.403 891.819 891.382 891.041C892.41 888.364 893.929 885.083 893.692 882.306C893.118 881.388 893.171 881.091 892.323 880.703C882.762 876.324 871.807 892.105 865.617 894.292C866.065 892.42 868.446 891.016 869.867 888.495L869.343 888.07L868.276 888.322C866.576 889.737 866.395 890.25 865.425 892.26L864.661 892.236L864.668 893.204C864.682 891.595 864.746 890.719 864.914 889.112C866.936 887.005 869.101 884.9 871.178 882.833Z"/><defs><linearGradient id="gradient_12" gradientUnits="userSpaceOnUse" x1="926.49268" y1="822.81055" x2="932.81329" y2="807.2713"><stop offset="0" stop-color="white" stop-opacity="0.13725491"/><stop offset="1" stop-color="#FFFFFE" stop-opacity="0.35686275"/></linearGradient></defs><path fill="url(#gradient_12)" d="M924.651 800.774C926.84 799.86 926.938 799.523 928.885 800.601C929.659 803.459 926.848 804.977 927.664 808.939C930.116 811.925 931.19 810.404 934.513 811.145C937.378 811.783 940.032 812.068 941.592 809.02C941.305 807.109 939.98 805.828 938.745 804.289L939.346 803.784C944.844 803.965 945.329 802.976 949.068 798.861L948.993 801.159C946.685 806.791 938.302 812.305 939.685 816.944C929.824 832.133 932.095 821.981 923.429 823.283C919.873 815.403 926.066 813.376 921.897 806.946L924.651 800.774Z"/><path fill="#FEFEFF" fill-opacity="0.67058825" d="M965.349 735.379C964.968 731.284 966.166 722.902 970.19 720.815C971.08 722.103 971.328 722.754 972.784 723.3L974.559 720.846L974.042 722.893C971.903 727.248 968.333 733.539 970.526 738.099L970.354 738.614C969.637 740.696 969.609 740.573 968.616 742.447C964.898 749.463 964.688 759.054 962.445 766.79C962.033 768.211 962.474 769.965 961.772 771.75C959.792 777.669 952.723 796.617 948.993 801.159L949.068 798.861C949.415 797.969 951.298 794.584 951.882 793.483C955.2 787.235 957.674 780.836 959.835 774.178C961.427 769.27 959.342 768.271 960.452 764.727C959.207 762.409 958.699 761.33 959.098 758.73C959.545 760.025 959.542 760.503 960.391 761.503L961.11 761.197C963.124 757.834 962.989 756.353 963.194 752.443L962.948 752.216C962.3 753.936 962.291 754.094 961.225 755.678L960.441 755.574C960.638 750.164 960.187 739.581 966.202 736.789L968.153 737.807C968.226 736.52 968.113 736.545 967.839 735.234L966.794 734.592L966.054 735.296L965.349 735.379Z"/><path fill="#F4F4F4" fill-opacity="0.1882353" d="M606.206 824.91C606.063 824.383 604.394 819.946 604.526 819.696C607.786 813.559 611.198 808.258 615.375 802.727C618.467 798.634 618.246 796.999 622.397 793.229L622.572 794.291C621.788 795.545 620.553 797.456 620.622 798.76C620.955 805.156 625.368 815.041 615.669 816.639C611.536 817.32 611.033 821.3 606.206 824.91Z"/><defs><linearGradient id="gradient_13" gradientUnits="userSpaceOnUse" x1="378.84055" y1="64.191353" x2="381.4483" y2="52.736164"><stop offset="0" stop-color="#F6F6F6" stop-opacity="0.10980392"/><stop offset="1" stop-color="#F2F2F2" stop-opacity="0.32156864"/></linearGradient></defs><path fill="url(#gradient_13)" d="M393.077 52.2221C393.648 52.2739 393.251 52.2076 394.195 52.6779C391.503 53.5256 388.976 52.8741 387.144 55.3821L387.64 56.3303C390.913 56.9183 392.334 53.6847 394.927 54.085L395.211 54.8031C392.212 62.4846 385.9 64.977 378.699 67.1756C376.048 66.8454 375.684 66.604 373.168 65.5271L373.195 65.4613C375.127 65.6196 375.573 65.7024 377.455 65.412C375.707 63.0356 371.392 64.2735 370.365 59.5293C372.387 56.5275 389.052 52.9591 393.077 52.2221Z"/><path fill="#F4F4F4" fill-opacity="0.66666669" d="M57.6334 389.179C58.8755 383.754 61.8512 375.271 63.6796 369.789C65.2013 374.377 60.3225 375.937 63.0973 385.406C64.5036 386.103 67.2231 387.359 68.286 388.433C70.5538 390.723 72.4497 396.938 75.752 397.395L77.5972 396.265L78.3154 396.893C80.3577 395.207 81.6984 395.006 83.7363 393.024C81.7698 395.276 81.1246 396.134 78.5813 397.863L78.086 399.207C75.0355 401.325 71.6444 403.133 68.3948 404.95C68.2143 402.785 68.4068 401.418 66.6784 400.045C62.7357 396.913 65.9947 394.883 63.8744 391.896C62.0713 390.668 62.9481 390.824 61.1712 390.725C60.1758 391.495 59.6901 392.016 58.4941 392.364C57.6909 391.395 57.8526 390.659 57.6334 389.179Z"/><path fill="#FEFEFF" fill-opacity="0.68235296" d="M958.582 593.603L961.028 593.898C960.099 596.272 959.743 596.064 960.124 598.173C963.26 601.905 974.695 600.896 979.121 599.934C979.848 602.408 980.291 604.794 981.871 606.759C983.438 607.526 982.611 607.377 984.465 607.037L984.556 610.918C983.268 612.6 982.827 613.846 981.182 614.191C977.944 612.19 978.429 607.238 976.417 605.875C971.632 609.052 971.214 608.497 968.227 603.984C965.601 600.018 948.902 605.759 958.582 593.603Z"/><path fill="#FEFEFF" fill-opacity="0.62352943" d="M541.278 835.989C540.585 821.769 541.103 803.131 541.076 788.551C541.048 772.884 540.492 752.52 541.384 737.247C542.2 759.346 540.881 783.268 541.507 805.489C541.68 811.66 541.099 826.618 541.877 832.059L542.817 832.638L543.621 832.101C544.061 826.217 541.3 825.831 544.124 821.431C543.239 834.735 546.49 829.356 554.943 832.853C558.195 832.404 566.873 829.24 567.459 825.704C569.126 824.098 571.013 821.995 573.034 821.039L574.499 821.129C574.229 821.698 574.306 821.825 573.67 821.922C569.431 822.567 569.097 828.259 566.691 830.055C562.094 833.486 561.335 830.088 558.002 836.03L557.662 836.125C552.444 835.854 546.549 835.986 541.278 835.989Z"/><path fill="#FEFEFF" d="M834.409 548.737C839.297 550.925 844.033 553.439 848.583 556.262C846.658 558.008 847.738 560.911 846.157 562.774C845.998 562.961 845.768 563.133 845.732 563.376C843.408 563.401 833.696 559.573 830.931 558.535L834.409 548.737Z"/><path fill="#F4F4F4" fill-opacity="0.44705883" d="M55.7495 397.034L57.6334 389.179C57.8526 390.659 57.6909 391.395 58.4941 392.364C59.6901 392.016 60.1758 391.495 61.1712 390.725C62.9481 390.824 62.0713 390.668 63.8744 391.896C65.9947 394.883 62.7357 396.913 66.6784 400.045C68.4068 401.418 68.2143 402.785 68.3948 404.95L66.4042 406.056C62.8826 401.688 61.1263 404.478 55.7495 397.034Z"/><path fill="#FEFEFF" fill-opacity="0.24705882" d="M876.046 877.394L877.046 877.262C880.846 876.736 900.507 871.99 900.712 880.278C900.774 882.793 898.717 887.118 898.569 890.911C897.545 891.999 896.284 893.411 895.228 894.415C896.256 892.832 896.274 892.768 896.907 890.98C895.336 885.769 899.196 883.134 897.493 880.057C893.299 872.477 880.388 879.465 875.223 882.604C873.405 883.709 872.809 883.313 871.178 882.833L876.046 877.394Z"/><defs><linearGradient id="gradient_14" gradientUnits="userSpaceOnUse" x1="587.70557" y1="70.823448" x2="589.82361" y2="74.793922"><stop offset="0" stop-color="white" stop-opacity="0.10196079"/><stop offset="1" stop-color="#FFFFFE" stop-opacity="0.18039216"/></linearGradient></defs><path fill="url(#gradient_14)" d="M575.412 72.4394C580.259 70.2047 580.094 71.6029 585.149 71.616L584.247 70.7527L584.648 70.2413C586.53 70.0302 588.417 69.8623 590.308 69.7379C590.972 71.2124 591.583 71.7413 592.699 72.8511C591.948 75.3226 588.525 74.3749 589.306 76.6733L590.789 77.8562C588.927 78.307 577.713 73.5198 575.412 72.4394Z"/><path fill="#FEFEFF" fill-opacity="0.11764706" d="M970.526 738.099L971.159 738.127C968.933 749.749 966.044 761.235 962.507 772.527L961.772 771.75C962.474 769.965 962.033 768.211 962.445 766.79C964.688 759.054 964.898 749.463 968.616 742.447C969.609 740.573 969.637 740.696 970.354 738.614L970.526 738.099Z"/><path fill="#F8F7FE" fill-opacity="0.3764706" d="M564.21 43.8446L563.329 43.4469L563.056 42.5168L563.75 41.9956C568.196 41.4373 571.867 41.6443 576.277 42.2913C574.114 42.6177 573.518 42.5152 571.94 43.8641C571.222 47.1692 574.505 47.4547 576.243 49.8914C575.512 51.2847 574.74 51.661 573.465 52.5776C571.083 51.6655 568.437 50.3798 566.09 49.3086C566.38 47.6959 566.828 46.5595 567.153 44.8727L565.681 44.1443C567.226 44.0955 567.281 44.0904 568.771 43.6852L568.787 43.1184C567.024 42.0244 564.945 41.4153 564.21 43.8446Z"/><path fill="#FEFEFF" fill-opacity="0.27843139" d="M948.993 801.159C952.723 796.617 959.792 777.669 961.772 771.75L962.507 772.527C961.303 776.264 958.792 784.697 957.17 787.933C954.877 790.898 952.376 798.333 950.236 802.082C946.926 807.878 943.392 811.713 939.685 816.944C938.302 812.305 946.685 806.791 948.993 801.159Z"/><defs><linearGradient id="gradient_15" gradientUnits="userSpaceOnUse" x1="466.44611" y1="48.370605" x2="465.55389" y2="46.629395"><stop offset="0" stop-color="black" stop-opacity="0.94117647"/><stop offset="1" stop-color="black" stop-opacity="0.97647059"/></linearGradient></defs><path fill="url(#gradient_15)" d="M454.32 51.2041C459.378 48.5294 467.114 45.2836 472.532 42.7971C473.83 44.1381 473.929 44.2432 475.47 45.2748C470.407 47.9584 463.373 51.2432 457.999 53.378C457.624 51.6853 458.298 53.2843 457.786 51.4558C456.592 51.3946 455.506 51.3083 454.32 51.2041Z"/><path fill="#F8F7FE" d="M771.352 537.797C775.668 535.83 774.33 525.253 779.842 526.319C779.657 527.355 779.615 527.514 780.077 528.465L780.371 529.08L780.146 529.697C778.651 533.884 779.186 536.997 776.298 538.782C774.548 538.897 772.953 538.549 771.352 537.797Z"/><defs><linearGradient id="gradient_16" gradientUnits="userSpaceOnUse" x1="479.33835" y1="41.899021" x2="478.6113" y2="40.479141"><stop offset="0" stop-color="black" stop-opacity="0.94901961"/><stop offset="1" stop-color="black" stop-opacity="0.98431373"/></linearGradient></defs><path fill="url(#gradient_16)" d="M472.532 42.7971L483.887 37.0666C485.765 38.4242 485.052 37.5603 485.924 39.8895C482.775 41.5678 478.655 43.908 475.47 45.2748C473.929 44.2432 473.83 44.1381 472.532 42.7971Z"/><path fill="#FEFEFF" fill-opacity="0.12156863" d="M791.509 956.855C791.773 955.88 792.029 955.017 792.336 954.055C792.584 954.435 793.544 955.853 793.778 956.051C796.212 958.108 806.28 956.035 809.565 955.72C806.759 957.482 805.662 957.965 802.651 959.239C797.834 958.192 796.397 962.132 792.354 957.493L791.612 957.306L791.509 956.855Z"/><path fill="#080717" fill-opacity="0.90588236" d="M785.579 934.65C784.759 933.773 784.274 933.286 783.566 932.307L783.643 932.123C785.145 932.601 784.598 932.41 785.853 933.665C790.066 934.636 792.369 928.953 796.705 934.904C795.138 935.714 793.376 936.715 791.751 937.328C789.975 936.368 787.496 935.441 785.579 934.65Z"/><path fill="#FEFEFF" fill-opacity="0.039215688" d="M921.897 806.946C926.066 813.376 919.873 815.403 923.429 823.283L922.272 823.955C918.623 823.278 921.155 811.232 921.212 808.813L921.897 806.946Z"/><path fill="#080717" fill-opacity="0.98039216" d="M511.59 21.2541C513.17 21.9399 515 22.8927 516.575 23.659C514.826 24.2 514.741 24.0711 512.976 23.8133L511.842 24.376L511.727 24.9579C509.96 26.3193 508.797 26.8767 506.809 27.9385C505.226 27.5876 504.789 27.1364 503.486 26.2071C506.2 24.2492 508.682 22.8976 511.59 21.2541Z"/><defs><linearGradient id="gradient_17" gradientUnits="userSpaceOnUse" x1="489.74542" y1="38.164604" x2="488.4332" y2="33.992836"><stop offset="0" stop-color="black" stop-opacity="0.9254902"/><stop offset="1" stop-color="black"/></linearGradient></defs><path fill="url(#gradient_17)" d="M491.783 33.8107L493.918 33.1464C494.106 34.0914 494.152 34.4875 494.218 35.4501L491.072 37.2265L485.924 39.8895C485.052 37.5603 485.765 38.4242 483.887 37.0666C486.601 35.4168 487.908 34.7844 490.769 33.5148L491.783 33.8107Z"/><path fill="#FEFEFF" fill-opacity="0.0078431377" d="M791.612 957.306L792.354 957.493C796.397 962.132 797.834 958.192 802.651 959.239L793.568 963.102C792.748 963.304 792.131 963.382 791.396 963.746L791.612 957.306Z"/><path fill="#FEFEFF" fill-opacity="0.44313726" d="M970.526 738.099C968.333 733.539 971.903 727.248 974.042 722.893C973.548 727.499 972.132 733.486 971.159 738.127L970.526 738.099Z"/><path fill="#080717" fill-opacity="0.97254902" d="M495.974 30.3624L501.889 27.1166L503.148 27.8682L502.803 29.1763L503.521 29.8591C502.369 30.6161 501.211 31.3635 500.046 32.1012C498.482 31.2602 497.853 31.5815 495.974 30.3624Z"/><path fill="#080717" fill-opacity="0.94901961" d="M495.974 30.3624C497.853 31.5815 498.482 31.2602 500.046 32.1012L494.218 35.4501C494.152 34.4875 494.106 34.0914 493.918 33.1464L491.783 33.8107L490.769 33.5148C491.916 32.6702 494.643 31.1561 495.974 30.3624Z"/><path fill="#F4F4F4" fill-opacity="0.67450982" d="M597.448 62.372C600.003 61.1206 601.311 60.3192 604.098 61.3154L604.594 62.4938C604.08 63.5731 604.052 63.5827 603.278 64.5035L597.448 62.372Z"/><path fill="#F8F7FE" d="M780.077 528.465C782.566 527.893 783.125 528.354 785.658 529.296L786.275 530.014C785.54 531.409 785.611 531.333 784.402 532.339C781.866 531.117 784.365 530.186 780.371 529.08L780.077 528.465Z"/><path fill="#F4F4F4" fill-opacity="0.29019609" d="M620.026 786.773L621.313 790.434C620.492 790.682 620.348 791.035 619.186 791.31L617.819 790.422L617.619 789.353C618.488 787.365 618.005 788.055 620.026 786.773Z"/><defs><linearGradient id="gradient_18" gradientUnits="userSpaceOnUse" x1="833.68109" y1="940.85413" x2="834.27142" y2="941.58691"><stop offset="0" stop-color="white" stop-opacity="0.58431375"/><stop offset="1" stop-color="#FFFEFF" stop-opacity="0.627451"/></linearGradient></defs><path fill="url(#gradient_18)" d="M833.498 943.294C831.543 943.219 831.902 943.899 829.878 943.333C832.456 941.567 833.854 939.621 836.498 941.689L833.498 943.294Z"/><path fill="#080717" fill-opacity="0.95686275" d="M501.889 27.1166L503.486 26.2071C504.789 27.1364 505.226 27.5876 506.809 27.9385C505.782 28.5599 504.58 29.3458 503.521 29.8591L502.803 29.1763L503.148 27.8682L501.889 27.1166Z"/><path fill="#F8F7FE" fill-opacity="0.75686276" d="M564.21 43.8446C564.945 41.4153 567.024 42.0244 568.787 43.1184L568.771 43.6852C567.281 44.0904 567.226 44.0955 565.681 44.1443L564.21 43.8446Z"/></svg>