<?xml version="1.0" encoding="utf-8" ?><svg xmlns="http://www.w3.org/2000/svg" xmlns:xlink="http://www.w3.org/1999/xlink" width="1024" height="1024" viewBox="0 0 1024 1024"><path fill="#F8F7FE" d="M397.465 114.826C402.02 108.88 420.607 86.0586 426.533 85.7145L427.002 86.3848C425.937 88.2136 417.409 95.5062 415.034 97.9263C411.545 101.481 409.336 103.982 406.108 107.974L406.929 108.555C408.422 108.769 413.985 106.614 415.942 106.015C421.195 105.279 422.124 106.803 427.393 104.374C427.519 104.343 427.644 104.312 427.77 104.281L428.392 104.109C436.962 101.819 435.559 98.1067 446.41 97.4746C450.688 97.5786 457.934 98.1736 462.121 97.6845C509.381 92.1633 557.804 96.222 603.886 107.679C607.293 108.526 610.232 108.946 613.369 110.422L614.032 111.109C615.044 112.177 615.494 112.95 616.257 114.19L617.362 114.765C618.759 113.44 618.601 112.081 618.691 110.073C617.979 108.907 616.785 107.499 615.907 106.389C610.678 100.185 605.732 94.7227 599.626 89.3444C598.883 88.6905 598.09 86.9467 597.779 85.9549L598.275 85.729C607.629 91.8439 614.226 102.084 621.284 108.926L621.609 109.211C622.971 110.419 623.302 110.81 624.438 112.225C628.802 114.298 631.545 111.039 637.287 119.018C649.79 120.121 665.517 127.389 677.454 132.028C750.044 160.019 814.232 206.176 863.873 266.081C908.843 320.93 940.582 385.397 956.631 454.485C964.29 486.573 968.286 517.799 966.601 550.75C966.642 556.148 966.374 561.645 966.434 567.033C966.547 577.135 964.723 586.995 963.915 597.006C961.859 622.488 954.62 646.048 952.026 671.69C951.419 674.286 951.77 675.54 950.018 677.594L949.023 678.021C947.698 677.354 947.543 676.922 946.636 675.737L945.323 676.352C943.661 680.974 948.134 683.699 946.834 686.841C947.212 687.757 947.6 688.67 947.998 689.579C966.406 744.305 948.734 797.699 917.892 844.434C916.138 847.091 910.55 854.05 909.583 856.497L908.857 856.297L907.813 857.142C905.985 857.555 900.65 857.628 898.663 857.579C879.894 857.115 858.049 852.467 841.837 842.976C831.176 836.735 819.264 826.852 816.067 814.492C816.593 813.422 827.131 805.858 831.223 798.601L832.502 796.661L833.683 794.545C838.658 784.66 840.894 772.341 836.644 761.859L835.712 760.014L834.366 757.933C831.604 753.321 825.695 747.734 819.79 748.847C815.606 749.635 813.931 752.601 811.672 755.824C808.341 760.832 806.201 765.788 803.262 770.21L801.46 771.415C792.524 764.413 785.765 728.364 771.487 718.413C754.907 706.857 743.455 704.12 723.868 701.788C720.068 713.001 711.322 723.69 712.709 735.28C714.323 748.755 721.097 757.764 709.627 768.476L695.884 780.013C682.949 792.116 704.378 797.143 708.181 812.915L708.013 813.528C706.365 819.312 702.375 823.658 705.201 828.96C708.328 834.827 714.072 837.552 711.948 844.949C710.396 850.355 708.563 852.037 708.543 857.906C708.109 856.563 708.204 855.97 707.292 855.326C707.004 857.189 706.995 857.822 707.008 859.722C707.817 862.42 708.389 863.119 709.859 865.464C706.149 865.612 707.324 863.456 706.193 864.482C707.935 866.923 710.501 867.504 711.536 868.768C715.108 873.13 710.493 878.106 719.078 877.096L719.939 877.531C720.809 882.395 725.228 882.802 729.481 885.043C731.529 889.464 742.447 888.553 745.768 891.398C746.206 891.773 746.219 893.882 746.242 894.511C747.371 895.948 746.666 895.399 748.558 896.03L749.174 895.462C749.024 893.612 748.94 893.422 748.443 891.712C749.892 890.528 751.332 888.856 752.826 888.898C754.291 890.473 754.194 892.248 754.743 894.211C755.813 898.035 761.211 897.713 761.909 901.756L761.67 902.37C760.129 906.443 760.642 909.959 757.885 910.903C755.888 911.588 754.449 911.785 753.299 913.024C753.013 915.878 756.246 917.203 755.061 918.959C750.985 925 744.944 927.69 740.779 934.298L740.761 934.71C739.23 934.554 719.362 934.973 717.407 935.816C714.009 937.281 707.334 936.213 703.523 935.935L705.495 935.684C699.764 934.937 691.883 935.082 685.962 935.059C676.055 935.066 666.148 934.962 656.243 934.746C652.479 934.631 646.977 934.387 643.24 933.83C639.933 933.338 642.09 927.309 640.67 924.644C639.24 925.376 639.893 930.579 638.206 933.015L638.09 931.379L636.579 930.202L637.411 929.938C638.147 926.213 635.867 923.556 635.629 919.809L635.152 919.567C634.736 921.596 635.226 927.65 635.243 930.32C635.514 931.979 635.976 934.318 636.069 935.932L636.851 938.987C630.336 939.207 624.077 939.473 617.557 939.284C617.64 930.564 612.453 904.202 610.786 895.157C611.128 891.96 605.219 856.998 604.255 852.508C602.307 839.697 600.265 825.87 597.857 813.178C596.811 807.475 595.837 801.759 594.938 796.03C594.405 792.095 593.91 788.287 593.163 784.38C592.289 778.163 591.47 772.094 590.301 765.922C591.082 764.047 590.749 761.443 589.553 759.805C590.121 758.758 587.711 745.684 587.171 743.518C586.839 740.12 586.341 736.782 585.799 733.414C581.15 704.531 576.844 675.605 571.716 646.801C571.073 643.187 570.923 639.069 569.88 635.585L574.064 630.899C571.803 628.566 570.346 627.212 568.631 624.443C560.737 615.772 553.48 606.115 545.53 597.492C535.118 586.198 525.448 574.282 515.057 563.003C526.747 549.132 539.019 535.254 550.943 521.567C552.486 519.382 555.103 517.123 557.095 515.238C553.227 509.893 550.675 507.749 547.414 501.549C536.96 487.175 526.217 473.014 515.191 459.075L536.789 430.608C538.341 427.657 541.044 424.499 543.156 421.844C539.174 414.995 534.912 408.983 531.273 401.778C529.41 398.634 526.629 394.246 525.219 391.013C525.246 390.102 525.118 389.845 524.868 388.966L525.487 388.57L526.23 388.664C527.955 387.497 526.291 377.468 527.512 372.92C527.378 371.075 527.073 369.428 526.772 367.602C526.495 364.411 525.654 359.8 524.672 356.778C525.836 354.268 525.817 354.271 524.195 352.032C522.329 356.51 516.225 365.961 513.442 370.829C509.909 364.761 506.156 358.501 502.774 352.364C500.975 354.645 501.23 354.804 502.154 357.549C503.433 359.703 505.342 362.73 506.434 364.879C505.259 364.716 504.532 364.618 503.351 364.575C502.24 365.448 502.074 366.848 501.655 368.289C501.112 370.445 500.954 370.617 499.776 372.556C498.895 375.689 498.042 380.726 497.638 384.033L497.198 386.667C497.768 386.726 498.879 387.65 499.466 388.058C504.475 388.281 502.004 383.563 507.324 381.914C503.909 388.57 499.832 395.408 496.079 401.929C492.418 408.727 488.238 415.782 484.714 422.544C485.622 423.891 489.232 428.941 489.803 430.018C496.112 437.975 506.398 450.454 511.862 458.71C500.583 471.891 487.899 488.252 477.427 501.956C474.694 505.973 471.243 510.154 468.801 514.06L474.1 519.607C485.924 532.549 500.545 549.027 511.403 562.744C497.259 580.36 480.305 596.902 465.695 614.24C463.665 616.649 458.661 622.723 456.536 624.475C452.232 627.371 450.223 631.033 454.773 634.921L452.255 650.011L439.488 729.321C437.779 739.594 436.894 750.847 434.446 760.654C434.085 763.147 433.676 767.746 433.836 770.28C433.028 777.273 431.021 784.397 430.205 791.097C428.741 797.73 428.342 805.362 426.867 811.942C425.298 817.705 423.91 828.474 422.941 834.71C421.163 846.112 419.28 857.499 417.295 868.867L414.755 886.198C414.001 890.905 412.676 897.875 412.44 902.465C410.859 910.719 406.347 931.09 406.389 938.711L405.787 939.02L405.479 940.093C407.297 941.165 434.391 940.333 439.548 940.942C360.637 941.604 281.722 941.799 202.809 941.529L134.587 941.493C123.961 941.478 109.93 941.028 99.5127 941.471C95.0413 940.957 89.074 941.162 84.4633 941.188L85.5318 939.255C91.8422 939.315 104.551 922.919 108.321 917.534C109.371 916.034 104.173 911.278 103.122 909.679C67.2059 855.007 58.4634 786.049 75.3862 723.28C78.8539 710.402 83.6172 699.491 88.9293 687.512C84.123 684.726 81.9504 688.114 78.3079 691.212C78.018 690.869 77.731 690.523 77.447 690.176C71.9611 683.418 69.1004 666.847 67.3243 658.068C58.8465 617.983 55.4921 576.985 57.3416 536.055C68.0342 340.44 190.717 181.593 376.667 121.092C382.381 119.233 392.06 114.25 397.465 114.826ZM278.616 872.449C274.733 871.922 271.212 871.811 267.322 872.4C267.002 873.341 267.253 873.234 266.68 873.555L266.429 874.292C268.184 874.915 270.51 875.134 272.319 874.607L272.745 874.005C272.12 873.255 272.265 873.274 271.479 872.774C273.744 872.7 276.399 872.691 278.616 872.449ZM206.662 813.861C200.278 841.685 224.35 881.691 243.805 901.065C245.838 889.605 246.853 881.681 256.572 873.648C270.877 861.824 304.896 879.621 312.752 861.862C312.178 860.201 312.144 860.365 312.717 858.253C314.478 851.083 307.91 843.916 310.352 836.581C311.26 833.854 316.178 827.485 319.362 828.725C321.885 825.526 316.22 820.541 315.588 814.003C314.479 812.453 314.482 812.081 314.975 810.427L315.038 811.42C317.322 804.398 327.274 799.622 330.376 791.019C334.214 780.376 324.778 781.699 323.644 776.273C314.656 770.435 309.828 767.947 307.11 756.731C304.753 747.007 309.97 739.851 309.455 730.336C308.074 718.396 301.106 706.095 296.766 694.937C292.517 684.013 288.744 671.7 279.807 663.596C278.225 692.042 263.993 706.76 244.649 726.175C238.414 732.433 234.756 735.774 229.895 743.1C224.878 750.662 225.816 765.494 223.35 770.066C222.514 770.266 221.131 770.739 220.525 769.804C216.083 762.938 211.077 750.298 200.684 751.337C185.129 752.892 182.947 777.099 187.936 788.308C193.627 801.093 196.391 805.885 206.662 813.861ZM633.082 382.396L633.297 381.351C631.46 380.289 627.291 381.405 625.862 382.969C629.261 383.872 629.65 383.534 633.082 382.396ZM322.812 817.897C322.956 815.422 323.322 812.871 322.653 810.542L321.406 809.605C320.43 813.179 320.67 814.793 322.812 817.897Z"/><path fill="#ECECEF" fill-opacity="0.90980393" d="M267.322 872.4C271.212 871.811 274.733 871.922 278.616 872.449C276.399 872.691 273.744 872.7 271.479 872.774C272.265 873.274 272.12 873.255 272.745 874.005L272.319 874.607C270.51 875.134 268.184 874.915 266.429 874.292L266.68 873.555C267.253 873.234 267.002 873.341 267.322 872.4Z"/><path fill="#080717" d="M88.9293 687.512C97.1238 672.942 107.378 658.553 119.827 647.66C168.578 605.004 240.303 604.887 294.759 636.56C304.917 642.468 320.886 652.858 329.035 661.2C319.767 673.672 311.387 686.705 302.032 699.211C305.319 707.601 310.87 719.802 312.046 728.479C313.628 740.15 305.29 749.711 311.598 761.913C318.535 775.334 341.641 774.674 334.415 794.006C331.433 801.982 316.107 806.825 318.501 816.811C319.485 819.884 324.765 825.239 321.925 829.762C317.61 835.881 311.434 836.761 314.934 845.846C316.998 851.204 318.842 856.49 316.034 862.169C308.597 877.206 291.888 872.126 278.616 872.449C274.733 871.922 271.212 871.811 267.322 872.4C251.19 874.433 247.459 890.293 246.645 903.869C257.017 914.881 287.962 939.051 303.269 938.874C330.889 938.554 359.641 939.216 387.255 938.635C393.064 939.286 399.894 939.139 405.787 939.02L405.479 940.093C407.297 941.165 434.391 940.333 439.548 940.942C360.637 941.604 281.722 941.799 202.809 941.529L134.587 941.493C123.961 941.478 109.93 941.028 99.5127 941.471C95.0413 940.957 89.074 941.162 84.4633 941.188L85.5318 939.255C91.8422 939.315 104.551 922.919 108.321 917.534C109.371 916.034 104.173 911.278 103.122 909.679C67.2059 855.007 58.4634 786.049 75.3862 723.28C78.8539 710.402 83.6172 699.491 88.9293 687.512ZM206.662 813.861C200.278 841.685 224.35 881.691 243.805 901.065C245.838 889.605 246.853 881.681 256.572 873.648C270.877 861.824 304.896 879.621 312.752 861.862C312.178 860.201 312.144 860.365 312.717 858.253C314.478 851.083 307.91 843.916 310.352 836.581C311.26 833.854 316.178 827.485 319.362 828.725C321.885 825.526 316.22 820.541 315.588 814.003C314.479 812.453 314.482 812.081 314.975 810.427L315.038 811.42C317.322 804.398 327.274 799.622 330.376 791.019C334.214 780.376 324.778 781.699 323.644 776.273C314.656 770.435 309.828 767.947 307.11 756.731C304.753 747.007 309.97 739.851 309.455 730.336C308.074 718.396 301.106 706.095 296.766 694.937C292.517 684.013 288.744 671.7 279.807 663.596C278.225 692.042 263.993 706.76 244.649 726.175C238.414 732.433 234.756 735.774 229.895 743.1C224.878 750.662 225.816 765.494 223.35 770.066C222.514 770.266 221.131 770.739 220.525 769.804C216.083 762.938 211.077 750.298 200.684 751.337C185.129 752.892 182.947 777.099 187.936 788.308C193.627 801.093 196.391 805.885 206.662 813.861Z"/><defs><linearGradient id="gradient_0" gradientUnits="userSpaceOnUse" x1="331.10538" y1="831.13269" x2="203.44446" y2="740.30597"><stop offset="0" stop-color="white" stop-opacity="0.93725491"/><stop offset="1" stop-color="white"/></linearGradient></defs><path fill="url(#gradient_0)" d="M279.807 663.596C288.744 671.7 292.517 684.013 296.766 694.937C301.106 706.095 308.074 718.396 309.455 730.336C309.97 739.851 304.753 747.007 307.11 756.731C309.828 767.947 314.656 770.435 323.644 776.273C324.778 781.699 334.214 780.376 330.376 791.019C327.274 799.622 317.322 804.398 315.038 811.42L314.975 810.427C314.482 812.081 314.479 812.453 315.588 814.003C316.22 820.541 321.885 825.526 319.362 828.725C316.178 827.485 311.26 833.854 310.352 836.581C307.91 843.916 314.478 851.083 312.717 858.253C312.144 860.365 312.178 860.201 312.752 861.862C304.896 879.621 270.877 861.824 256.572 873.648C246.853 881.681 245.838 889.605 243.805 901.065C224.35 881.691 200.278 841.685 206.662 813.861C196.391 805.885 193.627 801.093 187.936 788.308C182.947 777.099 185.129 752.892 200.684 751.337C211.077 750.298 216.083 762.938 220.525 769.804C221.131 770.739 222.514 770.266 223.35 770.066C225.816 765.494 224.878 750.662 229.895 743.1C234.756 735.774 238.414 732.433 244.649 726.175C263.993 706.76 278.225 692.042 279.807 663.596Z"/><path fill="#FEFEFE" d="M323.644 776.273C330.423 779.46 335.764 784.567 331.905 792.478C327.348 801.818 318.169 803.255 315.588 814.003C314.479 812.453 314.482 812.081 314.975 810.427L315.038 811.42C317.322 804.398 327.274 799.622 330.376 791.019C334.214 780.376 324.778 781.699 323.644 776.273Z"/><path fill="#FEFEFE" d="M312.752 861.862C312.178 860.201 312.144 860.365 312.717 858.253C314.478 851.083 307.91 843.916 310.352 836.581C311.26 833.854 316.178 827.485 319.362 828.725C316.113 833.319 310.208 835.368 311.319 842.396C312.488 849.785 316.865 854.382 312.752 861.862Z"/><path fill="#080717" d="M721.435 701.256C705.617 699.704 681.827 695.22 690.847 672.804C698.037 654.937 720.548 638.764 737.766 631.464C780.849 613.199 836.991 606.387 881.381 623.71C910.785 635.119 934.37 657.867 946.834 686.841C947.212 687.757 947.6 688.67 947.998 689.579C966.406 744.305 948.734 797.699 917.892 844.434C916.138 847.091 910.55 854.05 909.583 856.497L908.857 856.297L907.813 857.142C905.985 857.555 900.65 857.628 898.663 857.579C879.894 857.115 858.049 852.467 841.837 842.976C831.176 836.735 819.264 826.852 816.067 814.492C816.593 813.422 827.131 805.858 831.223 798.601L832.502 796.661L833.683 794.545C838.658 784.66 840.894 772.341 836.644 761.859L835.712 760.014L834.366 757.933C831.604 753.321 825.695 747.734 819.79 748.847C815.606 749.635 813.931 752.601 811.672 755.824C808.341 760.832 806.201 765.788 803.262 770.21L801.46 771.415C792.524 764.413 785.765 728.364 771.487 718.413C754.907 706.857 743.455 704.12 723.868 701.788C720.068 713.001 711.322 723.69 712.709 735.28C714.323 748.755 721.097 757.764 709.627 768.476L695.884 780.013C682.949 792.116 704.378 797.143 708.181 812.915L708.013 813.528C706.365 819.312 702.375 823.658 705.201 828.96C708.328 834.827 714.072 837.552 711.948 844.949C710.396 850.355 708.563 852.037 708.543 857.906C708.109 856.563 708.204 855.97 707.292 855.326C707.004 857.189 706.995 857.822 707.008 859.722C704.383 851.279 710.431 847.491 709.625 841.404C709.005 836.721 701.7 831.758 701.695 824.906C701.691 819.299 706.605 815.113 705.137 810.544C702.805 803.289 689.831 795.932 688.826 788.065C687.72 779.401 708.459 768.943 712.994 761.454C713.105 761.306 713.216 761.158 713.327 761.009C714.178 748.126 708.172 734.994 710.322 726.607C711.734 721.098 718.64 709.702 721.435 701.256Z"/><path fill="#63c1c2" d="M507.555 215.196C478.32 202.504 495.028 163.175 520.181 171.26C526.289 173.202 531.31 177.606 534.033 183.409C538.091 192.032 536.042 202.452 529.47 209.234C526.35 212.453 523.38 213.72 519.39 215.437C520 219.546 520.546 223.724 521.037 227.848C524.774 259.239 529.349 290.544 534.195 321.784C550.646 423.948 567.794 525.999 585.636 627.929L635.243 930.32C635.514 931.979 635.976 934.318 636.069 935.932L636.851 938.987C630.336 939.207 624.077 939.473 617.557 939.284C617.64 930.564 612.453 904.202 610.786 895.157C611.128 891.96 605.219 856.998 604.255 852.508C602.307 839.697 600.265 825.87 597.857 813.178C596.811 807.475 595.837 801.759 594.938 796.03C594.405 792.095 593.91 788.287 593.163 784.38C592.289 778.163 591.47 772.094 590.301 765.922C591.082 764.047 590.749 761.443 589.553 759.805C590.121 758.758 587.711 745.684 587.171 743.518C586.839 740.12 586.341 736.782 585.799 733.414C581.15 704.531 576.844 675.605 571.716 646.801C571.073 643.187 570.923 639.069 569.88 635.585L574.064 630.899C571.803 628.566 570.346 627.212 568.631 624.443C560.737 615.772 553.48 606.115 545.53 597.492C535.118 586.198 525.448 574.282 515.057 563.003C526.747 549.132 539.019 535.254 550.943 521.567C552.486 519.382 555.103 517.123 557.095 515.238C553.227 509.893 550.675 507.749 547.414 501.549C536.96 487.175 526.217 473.014 515.191 459.075L536.789 430.608C538.341 427.657 541.044 424.499 543.156 421.844C539.174 414.995 534.912 408.983 531.273 401.778C529.41 398.634 526.629 394.246 525.219 391.013C525.246 390.102 525.118 389.845 524.868 388.966L525.487 388.57L526.23 388.664C527.955 387.497 526.291 377.468 527.512 372.92C527.378 371.075 527.073 369.428 526.772 367.602C526.495 364.411 525.654 359.8 524.672 356.778C525.836 354.268 525.817 354.271 524.195 352.032C522.329 356.51 516.225 365.961 513.442 370.829C509.909 364.761 506.156 358.501 502.774 352.364C500.975 354.645 501.23 354.804 502.154 357.549C503.433 359.703 505.342 362.73 506.434 364.879C505.259 364.716 504.532 364.618 503.351 364.575C502.24 365.448 502.074 366.848 501.655 368.289C501.112 370.445 500.954 370.617 499.776 372.556C498.895 375.689 498.042 380.726 497.638 384.033L497.198 386.667C497.768 386.726 498.879 387.65 499.466 388.058C504.475 388.281 502.004 383.563 507.324 381.914C503.909 388.57 499.832 395.408 496.079 401.929C492.418 408.727 488.238 415.782 484.714 422.544C485.622 423.891 489.232 428.941 489.803 430.018C496.112 437.975 506.398 450.454 511.862 458.71C500.583 471.891 487.899 488.252 477.427 501.956C474.694 505.973 471.243 510.154 468.801 514.06L474.1 519.607C485.924 532.549 500.545 549.027 511.403 562.744C497.259 580.36 480.305 596.902 465.695 614.24C463.665 616.649 458.661 622.723 456.536 624.475C452.232 627.371 450.223 631.033 454.773 634.921L452.255 650.011L439.488 729.321C437.779 739.594 436.894 750.847 434.446 760.654C434.085 763.147 433.676 767.746 433.836 770.28C433.028 777.273 431.021 784.397 430.205 791.097C428.741 797.73 428.342 805.362 426.867 811.942C425.298 817.705 423.91 828.474 422.941 834.71C421.163 846.112 419.28 857.499 417.295 868.867L414.755 886.198C414.001 890.905 412.676 897.875 412.44 902.465C410.859 910.719 406.347 931.09 406.389 938.711L405.787 939.02C399.894 939.139 393.064 939.286 387.255 938.635C389.86 927.508 391.87 913.729 393.819 902.281C397.925 878.215 401.875 854.123 405.667 830.006L438.712 633.9C455.633 540.585 471.873 447.147 487.433 353.595C495.045 306.737 503.635 262.832 507.555 215.196Z"/><path fill="#FEFEFE" d="M474.1 519.607C485.924 532.549 500.545 549.027 511.403 562.744C497.259 580.36 480.305 596.902 465.695 614.24C463.665 616.649 458.661 622.723 456.536 624.475C456.35 621.806 459.772 605.128 460.453 600.938C464.703 573.778 469.253 546.666 474.1 519.607Z"/><path fill="#FEFEFE" d="M550.943 521.567C552.453 525.618 553.98 535.909 554.782 540.683L560.589 576.476C562.123 586.496 563.734 596.504 565.422 606.499C566.315 611.622 568.068 619.631 568.631 624.443C560.737 615.772 553.48 606.115 545.53 597.492C535.118 586.198 525.448 574.282 515.057 563.003C526.747 549.132 539.019 535.254 550.943 521.567Z"/><path fill="#FEFEFE" d="M489.803 430.018C496.112 437.975 506.398 450.454 511.862 458.71C500.583 471.891 487.899 488.252 477.427 501.956C477.454 498.392 481.295 476.174 482.103 472.108C484.649 459.311 486.651 442.361 489.803 430.018Z"/><path fill="#FEFEFE" d="M536.789 430.608L544.723 481.738C545.174 484.771 547.461 499.211 547.414 501.549C536.96 487.175 526.217 473.014 515.191 459.075L536.789 430.608Z"/><path fill="#FEFEFE" d="M502.774 352.364C507.439 328.506 511.159 304.473 513.927 280.321C514.937 288.62 521.981 347.491 524.195 352.032C522.329 356.51 516.225 365.961 513.442 370.829C509.909 364.761 506.156 358.501 502.774 352.364Z"/><path fill="#FEFEFE" d="M527.512 372.92C527.983 376.358 531.759 400.436 531.41 401.625L531.273 401.778C529.41 398.634 526.629 394.246 525.219 391.013C525.246 390.102 525.118 389.845 524.868 388.966L525.487 388.57L526.23 388.664C527.955 387.497 526.291 377.468 527.512 372.92Z"/><path fill="#FEFEFE" d="M497.198 386.667C497.768 386.726 498.879 387.65 499.466 388.058C504.475 388.281 502.004 383.563 507.324 381.914C503.909 388.57 499.832 395.408 496.079 401.929C495.1 399.697 496.819 389.469 497.198 386.667Z"/><path fill="#FEFEFE" d="M502.154 357.549C503.433 359.703 505.342 362.73 506.434 364.879C505.259 364.716 504.532 364.618 503.351 364.575C502.24 365.448 502.074 366.848 501.655 368.289C501.112 370.445 500.954 370.617 499.776 372.556C500.235 369.195 501.166 360.216 502.154 357.549Z"/><path fill="#080717" d="M397.465 114.826C402.02 108.88 420.607 86.0586 426.533 85.7145L427.002 86.3848C425.937 88.2136 417.409 95.5062 415.034 97.9263C411.545 101.481 409.336 103.982 406.108 107.974C402.419 111.319 399.136 116.793 396.433 120.884C362.382 172.436 371.575 241.926 415.616 284.492C417.719 286.525 425.314 292.568 425.71 294.934L425.059 295.356C422.219 294.321 418.621 290.678 416.422 288.586C404.781 277.512 392.651 261.719 385.856 247.02C370.826 214.76 369.347 177.822 381.751 144.463C386.123 132.787 390.835 125.011 397.465 114.826Z"/><path fill="#080717" d="M615.907 106.389C610.678 100.185 605.732 94.7227 599.626 89.3444C598.883 88.6905 598.09 86.9467 597.779 85.9549L598.275 85.729C607.629 91.8439 614.226 102.084 621.284 108.926L621.749 109.798C623.185 112.452 626.053 116.447 627.775 119.139C630.71 123.804 633.411 128.611 635.869 133.544C650.426 163.258 653.425 197.321 644.282 229.121C638.183 250.499 626.972 270.215 610.949 285.686C608.83 287.731 602.404 295.1 599.876 294.6L599.65 293.858C601.172 291.04 607.167 286.559 609.908 283.786C613.783 279.856 617.424 275.701 620.811 271.343C647.382 236.933 654.214 188.07 639.238 147.637C634.878 135.866 627 119.709 618.691 110.073C617.979 108.907 616.785 107.499 615.907 106.389Z"/><path fill="#080717" d="M168.747 368.487C218.185 367.872 268.779 368.471 318.331 368.441L363.446 368.365C379.066 368.33 398.058 365.744 409.596 377.656C418.031 386.366 419.393 392.104 419.471 404.002L419.419 481.511C419.415 487.503 419.523 493.597 419.462 499.532C419.236 509.927 421.006 517.862 414.488 526.943C406.984 537.398 399.21 539.145 387.141 539.287C369.925 539.49 352.092 538.591 334.995 539.346L334.583 540.006C329.544 548.167 307.668 594.383 303.973 596.384C301.587 594.365 297.97 587.824 296.272 584.989C294.354 588.112 291.583 594.536 288.369 595.509C285.796 593.885 261.011 546.367 256.049 539.506L255.644 538.953L202.535 539.056C198.794 539.061 181.95 539.301 179.603 538.666L172.129 538.489C169.328 538.642 166.563 538.59 163.815 538.586C146.406 538.557 131.433 539.793 121.113 522.975C114.605 512.368 116.389 504.647 116.18 492.704C116.054 485.515 116.204 478.207 116.191 471.029L116.198 421.713C116.256 413.599 116.584 405.453 116.593 397.361C116.607 383.852 130.555 367.388 144.846 368.574C152.813 368.492 160.78 368.463 168.747 368.487Z"/><path fill="#63c1c2" d="M172.129 538.489C169.328 538.642 166.563 538.59 163.815 538.586C146.406 538.557 131.433 539.793 121.113 522.975C114.605 512.368 116.389 504.647 116.18 492.704C116.054 485.515 116.204 478.207 116.191 471.029L116.198 421.713C116.256 413.599 116.584 405.453 116.593 397.361C116.607 383.852 130.555 367.388 144.846 368.574C152.813 368.492 160.78 368.463 168.747 368.487C167.809 369.405 167.65 369.868 166.554 370.173C139.064 380.19 140.965 394.768 140.961 420.051L140.967 453.874L140.99 487.284C140.994 494.199 140.249 508.863 142.936 514.938C147.426 525.107 155.925 532.963 166.415 536.641C168.282 537.305 170.234 537.903 172.129 538.489Z"/><path fill="#080717" d="M144.846 368.574C152.813 368.492 160.78 368.463 168.747 368.487C167.809 369.405 167.65 369.868 166.554 370.173C160.296 369.052 149.646 370.596 144.846 368.574Z"/><path fill="#94d4d5" d="M179.603 538.666L269.672 538.563C275.47 546.859 281.365 557.96 286.389 566.922C289.007 571.591 294.208 580.496 296.272 584.989C294.354 588.112 291.583 594.536 288.369 595.509C285.796 593.885 261.011 546.367 256.049 539.506L255.644 538.953L202.535 539.056C198.794 539.061 181.95 539.301 179.603 538.666Z"/><path fill="#94d4d5" d="M270.666 536.351C263.571 535.972 253.671 536.326 246.337 536.341L200.466 536.38C180.221 536.384 161.496 539.272 148.708 520.009C145.981 515.973 144.261 511.342 143.691 506.504C143.133 502.083 143.339 495.151 143.344 490.434L143.281 465.53L143.109 423.334C143.078 414.2 142.614 404.252 144.09 395.275C146.171 382.629 160.528 372.048 172.954 371.392C188.795 370.556 204.95 370.842 220.867 370.836L306.861 370.849L352.929 370.667C360.294 370.619 376.136 370.042 382.392 371.444C388.351 371.386 393.766 371.061 399.402 373.526C408.661 377.575 416.564 387.491 416.902 397.782C417.03 401.694 417.064 405.882 417.06 409.924L417.019 435.562C416.974 459.78 416.79 484.068 417.269 508.278C417.585 524.267 407.861 535.747 391.438 536.734C383.087 537.106 336.95 535.24 332.697 537.802C323.908 553.794 316.156 570.58 307.656 586.74C306.482 588.972 305.413 591.369 304.162 593.544C302.765 591.101 299.235 585.284 298.258 582.957L283.715 557.176C280.072 550.74 275.416 541.822 270.666 536.351Z"/><path fill="#FEFEFE" d="M382.392 371.444C388.351 371.386 393.766 371.061 399.402 373.526C408.661 377.575 416.564 387.491 416.902 397.782C417.03 401.694 417.064 405.882 417.06 409.924L417.019 435.562C416.974 459.78 416.79 484.068 417.269 508.278C417.585 524.267 407.861 535.747 391.438 536.734C390.226 536.578 389.41 536.646 388.464 536.04C392.495 532.278 396.816 527.909 397.41 522.1C398.45 511.929 398.09 501.48 398.064 491.248L398.013 442.403C397.991 432.719 398.028 423.034 398.123 413.349C398.249 405.808 398.954 396.413 397.789 389.104C396.433 380.584 388.545 376.015 382.392 371.444Z"/><path fill="#FEFEFE" d="M325.147 538.13C327.967 537.706 329.869 537.788 332.697 537.802C323.908 553.794 316.156 570.58 307.656 586.74C306.482 588.972 305.413 591.369 304.162 593.544C302.765 591.101 299.235 585.284 298.258 582.957C302.521 575.27 307.46 567.34 311.905 559.693C315.699 553.166 320.349 543.567 325.147 538.13Z"/><path fill="#FEFEFE" d="M184.874 405.716L247.27 405.889C255.086 405.882 274.885 405.253 281.253 406.245C293.368 408.134 299.023 434.002 277.368 435.386L213.398 435.236C203.053 435.195 191.879 435.367 181.578 434.641C179.014 434.46 176.523 433.325 174.484 431.723C171.364 429.293 169.361 425.704 168.932 421.772C167.756 411.031 175.415 406.529 184.874 405.716Z"/><path fill="#080717" d="M211.454 419.166C222.901 418.47 237.463 419.205 249.19 418.953C255.009 418.828 270.425 418.605 275.282 419.201C276.39 420.451 275.998 419.688 275.985 421.796C260.936 422.449 245.194 421.479 230.074 421.924C224.575 422.086 217.799 422.194 212.38 421.822C211.15 420.776 211.666 421.428 211.454 419.166Z"/><path fill="#080717" d="M182.116 419.197C184.82 419.093 192.308 418.334 194.377 419.964C194.942 420.409 194.695 420.961 194.683 421.948C191.498 422.068 183.522 423.181 181.739 420.516L182.116 419.197Z"/><path fill="#FEFEFE" d="M272.018 461.743L319.815 461.644C325.342 461.651 339.857 461.396 344.396 462.276C346.929 462.756 349.283 463.919 351.202 465.64C357.224 471.112 356.758 482.521 351.275 487.509C345.323 492.926 327.117 491.328 319.125 491.298L272.409 491.463C263.635 491.499 245.865 493.224 239.251 487.341C236.192 484.576 234.347 480.717 234.114 476.601C233.071 457.647 259.439 461.765 272.018 461.743Z"/><path fill="#080717" d="M249.363 475.13C271.88 474.728 313.569 475.033 338.253 475.263C338.513 475.512 338.773 475.761 339.034 476.009L338.879 477.744C335.395 478.184 328.296 478.024 324.62 478.024L299.334 478.005L267.436 478.027C262.374 478.031 255.06 478.242 250.205 477.89C249.191 476.94 249.525 476.962 249.363 475.13Z"/><path fill="#080717" d="M193.121 454.245C205.69 452.235 217.525 460.746 219.619 473.302C221.713 485.857 213.28 497.748 200.739 499.925C188.08 502.123 176.051 493.593 173.938 480.92C171.824 468.246 180.434 456.274 193.121 454.245Z"/><path fill="#FEFEFE" d="M192.279 456.853C199.582 455.184 207.217 457.59 212.244 463.145C217.271 468.7 218.906 476.536 216.519 483.637C214.131 490.738 208.095 495.996 200.733 497.386C189.647 499.48 178.925 492.312 176.621 481.267C174.317 470.223 181.279 459.366 192.279 456.853Z"/><path fill="#080717" d="M322.785 400.06C335.316 397.722 347.371 405.978 349.722 418.506C352.073 431.034 343.83 443.098 331.305 445.462C318.76 447.83 306.674 439.572 304.32 427.025C301.966 414.478 310.236 402.401 322.785 400.06Z"/><path fill="#FEFEFE" d="M324.3 402.072C335.656 400.597 346.061 408.596 347.556 419.95C349.051 431.303 341.071 441.723 329.721 443.238C318.341 444.758 307.888 436.753 306.389 425.37C304.891 413.988 312.915 403.55 324.3 402.072Z"/><path fill="#080717" d="M689.222 546.045C688.648 546.074 688.074 546.093 687.5 546.103L653.185 546.315C646.415 546.379 632.231 546.981 626.118 545.595C620.756 544.432 615.832 541.78 611.909 537.945C604.747 530.871 603.5 525.275 603.537 515.62C603.637 489.757 603.639 464.026 603.871 438.146C604.459 424.778 602.541 409.537 604.757 396.4C606.435 386.449 619.438 377.534 629.138 377.09C638.68 376.653 647.887 376.834 657.313 376.882L708.544 377.013C758.73 377.182 809.957 376.289 859.952 377.038C872.952 376.682 887.897 375.038 897.76 384.92C907.351 394.529 907.908 404.247 907.974 416.783L907.96 483.782C907.986 490.756 907.94 497.83 908.006 504.785C908.121 516.918 908.628 527.833 899.38 537.164C889.58 547.05 876.074 546.423 863.233 546.287C861.575 546.271 860.069 546.186 858.447 545.894C851.784 546.363 842.949 546.093 836.152 546.082L800.755 546.121C791.686 546.809 777.395 546.396 767.97 546.367C758.646 561.46 745.632 585.73 737.487 601.812C734.692 596.693 732.084 592.219 728.434 587.629C726.615 590.617 723.147 597.882 720.654 599.732C717.571 596.628 710.438 582.597 707.799 577.958C701.67 567.284 695.478 556.646 689.222 546.045ZM633.082 382.396L633.297 381.351C631.46 380.289 627.291 381.405 625.862 382.969C629.261 383.872 629.65 383.534 633.082 382.396Z"/><path fill="#63c1c2" d="M859.952 377.038C872.952 376.682 887.897 375.038 897.76 384.92C907.351 394.529 907.908 404.247 907.974 416.783L907.96 483.782C907.986 490.756 907.94 497.83 908.006 504.785C908.121 516.918 908.628 527.833 899.38 537.164C889.58 547.05 876.074 546.423 863.233 546.287C861.575 546.271 860.069 546.186 858.447 545.894C860.226 545.423 861.998 544.924 863.762 544.4C875.212 540.909 882.131 531.951 883.574 519.952C884.176 514.944 883.763 508.807 883.755 503.653L883.817 476.322L883.791 431.749C883.729 404.935 887.337 390.283 859.952 377.038Z"/><path fill="#94d4d5" d="M751.653 546.107C767.304 545.805 785.124 545.836 800.755 546.121C791.686 546.809 777.395 546.396 767.97 546.367C758.646 561.46 745.632 585.73 737.487 601.812C734.692 596.693 732.084 592.219 728.434 587.629C736.527 574.189 743.388 559.713 751.653 546.107Z"/><path fill="#94d4d5" d="M624.385 380.136C630.187 378.83 635.138 379.3 641.025 379.544L787.756 379.543L832.38 379.478C839.542 379.469 851.762 378.626 858.503 380.085C875.231 383.705 881.315 398.549 881.357 413.2L881.331 485.293C881.332 493.086 881.885 515.783 880.581 522.333C879.495 527.764 876.777 532.734 872.792 536.58C864.904 544.217 856.967 543.641 846.891 543.632C839.688 543.626 832.441 543.629 825.235 543.624L750.35 543.548C742.015 557.595 734.395 571.624 726.39 585.846C724.523 589.373 722.582 592.861 720.569 596.306C712.378 580.97 701.154 560.214 691.622 545.583C689.055 542.64 675.774 543.648 671.577 543.662C660.432 543.63 649.286 543.736 638.143 543.981C632.366 543.999 627.598 544.041 622.11 541.832C615.538 539.158 610.318 533.953 607.625 527.39C605.168 521.549 606.102 509.757 606.1 502.968C606.057 490.435 606.085 477.902 606.182 465.369L606.371 424.779C606.365 404.38 601.894 389.648 624.385 380.136ZM633.082 382.396L633.297 381.351C631.46 380.289 627.291 381.405 625.862 382.969C629.261 383.872 629.65 383.534 633.082 382.396Z"/><path fill="#FEFEFE" d="M624.385 380.136C630.187 378.83 635.138 379.3 641.025 379.544C639.005 380.723 636.958 381.857 634.887 382.944C626.619 389.868 626.037 397.513 626.231 407.464C626.361 414.087 626.4 420.872 626.449 427.504C626.408 444.188 626.452 460.873 626.582 477.556L626.557 509.735C626.547 513.521 626.298 522.694 626.707 526.037C627.139 529.838 628.685 533.426 631.15 536.351C632.982 538.572 635.201 540.442 637.7 541.872L639.264 542.787L639.372 543.417L638.143 543.981C632.366 543.999 627.598 544.041 622.11 541.832C615.538 539.158 610.318 533.953 607.625 527.39C605.168 521.549 606.102 509.757 606.1 502.968C606.057 490.435 606.085 477.902 606.182 465.369L606.371 424.779C606.365 404.38 601.894 389.648 624.385 380.136ZM633.082 382.396L633.297 381.351C631.46 380.289 627.291 381.405 625.862 382.969C629.261 383.872 629.65 383.534 633.082 382.396Z"/><path fill="#FEFEFE" fill-opacity="0.4509804" d="M625.862 382.969C627.291 381.405 631.46 380.289 633.297 381.351L633.082 382.396C629.65 383.534 629.261 383.872 625.862 382.969Z"/><path fill="#F8F7FE" d="M624.385 380.136C630.187 378.83 635.138 379.3 641.025 379.544C639.005 380.723 636.958 381.857 634.887 382.944L633.082 382.396L633.297 381.351C631.46 380.289 627.291 381.405 625.862 382.969L624.89 382.62L624.385 380.136Z"/><path fill="#FEFEFE" d="M691.622 545.583C694.199 544.799 698.623 545.187 701.376 545.422C707.812 553.26 713.715 565.969 719.202 574.822C721.456 578.459 723.481 582.609 726.39 585.846C724.523 589.373 722.582 592.861 720.569 596.306C712.378 580.97 701.154 560.214 691.622 545.583Z"/><path fill="#FEFEFE" d="M767.193 472.761C771.129 472.737 782.618 471.683 784.84 473.745C789.72 478.273 791.442 502.653 780.857 502.694C770.609 502.735 760.929 502.78 751.054 502.788L687.625 502.849C673.969 502.88 664.45 504.684 665.672 487.272C666.259 478.922 666.481 473.259 676.284 472.992C685.988 472.728 696.453 472.881 706.089 472.881L767.193 472.761Z"/><path fill="#080717" d="M722.724 486.702C729.315 486.589 775.243 486.417 776.95 487.483L777.417 490.018C760.156 489.889 740.13 490.537 723.322 489.866C722.358 488.833 722.725 488.618 722.724 486.702Z"/><path fill="#080717" d="M683.445 486.647C686.963 486.651 698.601 485.575 700.759 487.53L700.825 489.693C696.827 489.753 686.323 490.913 683.615 488.763L683.445 486.647Z"/><path fill="#FEFEFE" d="M737.671 444.09C735.509 438.831 735.782 428.064 738.013 422.76C738.595 421.378 739.718 419.477 741.118 418.781C743.278 417.709 747.018 417.57 749.444 417.448C759.281 416.953 845 415.899 847.897 417.155C849.49 417.845 850.952 419.343 851.508 420.988C852.944 425.235 852.856 440.126 850.672 443.807C849.996 444.947 848.809 446.109 847.503 446.478C846.516 446.757 845.196 446.593 844.173 446.536L846.303 447.099L846.532 447.798C844.121 449.163 753.464 448.813 742.788 448.917C740.068 447.389 738.523 446.944 737.671 444.09Z"/><path fill="#080717" d="M742.788 448.917C740.068 447.389 738.523 446.944 737.671 444.09C738.943 444.925 740.637 446.075 742.167 446.172C753.137 446.867 764.621 446.576 775.589 446.568L844.173 446.536L846.303 447.099L846.532 447.798C844.121 449.163 753.464 448.813 742.788 448.917Z"/><path fill="#080717" d="M751.101 429.586C755.355 429.139 804.024 429.137 805.54 429.996L805.978 432.055C799.991 432.285 753.997 433.093 751.606 431.697L751.101 429.586Z"/><path fill="#080717" d="M826.355 429.605C829.958 429.454 836.277 428.526 838.783 430.518L838.85 432.216C835.485 432.621 830.418 432.914 827.179 432.132C825.996 430.864 826.371 431.632 826.355 429.605Z"/><path fill="#080717" d="M693.538 410.872C705.818 409.131 717.179 417.688 718.897 429.97C720.615 442.253 712.037 453.598 699.751 455.293C687.497 456.984 676.189 448.433 674.475 436.183C672.762 423.932 681.291 412.608 693.538 410.872Z"/><path fill="#FEFEFE" d="M696.042 413.065C707.099 412.708 716.346 421.394 716.68 432.452C717.014 443.509 708.309 452.738 697.251 453.05C686.225 453.36 677.029 444.686 676.696 433.661C676.363 422.635 685.018 413.421 696.042 413.065Z"/><path fill="#080717" d="M821.967 467.251C829.84 465.625 837.98 468.369 843.262 474.43C848.544 480.491 850.15 488.929 847.462 496.506C844.775 504.084 838.212 509.625 830.291 511.004C818.308 513.09 806.867 505.175 804.593 493.225C802.32 481.276 810.054 469.712 821.967 467.251Z"/><path fill="#FEFEFE" d="M822.113 469.664C832.793 467.301 843.372 474.021 845.772 484.692C848.173 495.363 841.491 505.966 830.829 508.404C820.113 510.855 809.445 504.132 807.032 493.407C804.62 482.683 811.38 472.039 822.113 469.664Z"/><path fill="#080717" d="M574.821 112.914C579.201 113.9 590.19 126.456 593.139 130.254C609.707 151.368 617.027 178.287 613.432 204.883C610.553 227.435 597.072 253.701 579.067 267.657L578.004 267.399L577.711 266.574C578.829 264.184 586.827 257.122 589.129 254.282C617.767 218.949 619.62 172.706 594.092 135.621C590.65 130.57 586.689 125.892 582.275 121.663C579.907 119.435 575.039 115.92 574.821 112.914Z"/><path fill="#080717" d="M444.735 114.782C446.136 114.986 445.537 114.66 446.63 115.619C446.415 117.918 442.076 121.049 440.264 122.879C431.875 131.353 424.992 141.517 420.132 152.34C407.132 180.565 409.014 213.406 425.155 239.961C426.099 241.504 429.026 245.656 429.635 246.968C432.003 252.079 446.815 263.959 447.778 267.373L446.254 267.465C442.103 265.216 433.441 255.341 430.344 251.475C414.309 231.376 406.898 205.738 409.737 180.184C412.115 159.309 421.959 139.759 435.775 124.188C438.5 121.118 441.566 117.306 444.735 114.782Z"/><path fill="#080717" d="M469.833 140.333L471.19 140.627C471.452 141.527 471.423 142.069 470.499 142.928C463.689 149.257 458.204 155.249 454.036 163.774C444.253 183.792 446.069 207.537 458.782 225.834C461.227 229.322 468.808 236.563 469.64 239.921C467.177 239.95 464.892 236.975 463.356 235.278C437.049 206.234 439.902 165.607 469.833 140.333Z"/><path fill="#080717" d="M551.188 139.353C553.552 139.508 554.568 140.474 556.209 142.143C585.381 171.83 585.479 210.202 557.325 240.073L556.156 239.857C555.776 238.945 555.689 238.471 556.555 237.579C579.486 213.956 582.35 179.873 562.728 153.194C560.099 149.621 552.557 142.858 551.188 139.353Z"/><path fill="#ECECEF" fill-opacity="0.94509804" d="M321.406 809.605L322.653 810.542C323.322 812.871 322.956 815.422 322.812 817.897C320.67 814.793 320.43 813.179 321.406 809.605Z"/><path fill="#080717" fill-opacity="0.98431373" d="M524.195 352.032C525.817 354.271 525.836 354.268 524.672 356.778C520.915 362.46 517.836 368.342 514.58 374.321C517.486 378.985 522.081 386.835 525.219 391.013C526.629 394.246 529.41 398.634 531.273 401.778C534.912 408.983 539.174 414.995 543.156 421.844C541.044 424.499 538.341 427.657 536.789 430.608L515.191 459.075C526.217 473.014 536.96 487.175 547.414 501.549C550.675 507.749 553.227 509.893 557.095 515.238C555.103 517.123 552.486 519.382 550.943 521.567C539.019 535.254 526.747 549.132 515.057 563.003C525.448 574.282 535.118 586.198 545.53 597.492C553.48 606.115 560.737 615.772 568.631 624.443C570.346 627.212 571.803 628.566 574.064 630.899L569.88 635.585L546.291 659.049C542.591 662.705 536.302 668.532 533.018 672.287C531.583 673.559 530.354 674.681 528.989 676.027C527.198 677.777 522.27 682.324 520.874 683.982C519.014 685.683 515.847 688.139 515.261 690.462C515.72 691.633 515.753 691.553 516.709 692.404L575.706 751.982C577.189 753.493 581.766 758.491 583.328 759.051C584.335 757.946 585.044 757.015 586.814 757.35C586.744 759.341 586.193 761.988 587.024 763.436C587.86 763.791 587.76 763.894 588.563 763.865L588.6 763.02C588.693 761.202 588.483 761.144 589.553 759.805C590.749 761.443 591.082 764.047 590.301 765.922C586.85 768.768 582.854 773.177 579.994 775.424C574.284 780.48 568.424 786.694 562.876 792.034C560.133 794.673 554.244 800.186 552.044 802.913L551.18 803.678C549.806 804.836 548.598 805.75 547.453 807.146C536.458 817.827 525.397 828.44 514.271 838.984C519.95 844.536 530.926 855.815 536.79 860.4L537.361 861.296C540.105 863.987 543.028 866.977 545.817 869.577C562.455 886.203 580.112 902.312 596.474 918.858C600.044 922.936 612.941 937.014 616.997 939.004L617.557 939.284C624.077 939.473 630.336 939.207 636.851 938.987C644.92 938.538 654.369 938.734 662.55 938.723L704.406 938.651C713.451 938.711 734.963 939.623 742.518 937.31L743.181 937.161C748.603 934.896 751.554 933.028 755.825 929.138C759.749 925.495 762.64 921.611 765.29 916.997C767.689 912.689 769.155 907.937 770.208 903.143C770.911 900.779 771.105 899.961 771.381 897.518C772.097 892.078 772.686 886.684 769.743 881.831C766.528 874.898 761.391 871.645 753.82 871.438C749.377 871.181 745.933 871.555 741.567 872.347C737.747 872.846 733.527 873.511 729.714 873.543C720.807 873.524 716.366 871.417 709.859 865.464C708.389 863.119 707.817 862.42 707.008 859.722C706.995 857.822 707.004 857.189 707.292 855.326C708.204 855.97 708.109 856.563 708.543 857.906C720.569 881.904 741.651 864.581 760.998 869.777L762.875 870.722C778.322 879.684 775.254 899.223 769.858 913.272C797.485 914.506 825.847 913.385 853.478 913.569C862.985 913.632 881.615 913.083 890.481 913.961C897.457 914.856 906.948 916.204 913.722 914.856C914.09 914.783 914.704 914.884 915.086 914.933C919.444 923.284 923.09 936.584 934.435 938.057C942.586 940.848 977.504 937.911 980.495 940.298L980.589 940.805C977.757 941.476 967.526 941.249 964.044 941.327C949.025 941.662 933.997 941.267 918.981 941.135L811.859 941.041L565.36 941.051L479.368 941.115L452.625 941.064C449.242 941.056 442.777 941.231 439.548 940.942C434.391 940.333 407.297 941.165 405.479 940.093L405.787 939.02L406.389 938.711C411.767 935.893 429.096 917.126 434.489 911.586C437.467 909.224 442.797 903.926 445.319 901.228L446.482 900.289C447.896 898.533 452.59 894.042 454.385 892.225C456.693 890.811 480.29 867.85 483.769 864.488L487.332 861.223C489.821 858.975 491.869 856.963 494.223 854.569C499.641 849.347 505.006 844.243 510.174 838.77L507.141 835.818L504.466 833.313C481.641 811.694 459.097 789.78 436.84 767.577L433.836 770.28C433.676 767.746 434.085 763.147 434.446 760.654L437.31 763.535C452.699 749.637 467.429 733.301 482.156 718.652C490.758 710.096 499.972 701.537 508.179 692.713L510.653 690.256C503.346 682.889 495.968 675.593 488.52 668.368L484.057 663.943C481.593 661.609 479.082 659.011 476.669 656.599L468.001 647.828C463.645 643.471 459.235 639.168 454.773 634.921C450.223 631.033 452.232 627.371 456.536 624.475C458.661 622.723 463.665 616.649 465.695 614.24C480.305 596.902 497.259 580.36 511.403 562.744C500.545 549.027 485.924 532.549 474.1 519.607L468.801 514.06C471.243 510.154 474.694 505.973 477.427 501.956C487.899 488.252 500.583 471.891 511.862 458.71C506.398 450.454 496.112 437.975 489.803 430.018C489.232 428.941 485.622 423.891 484.714 422.544C488.238 415.782 492.418 408.727 496.079 401.929C499.832 395.408 503.909 388.57 507.324 381.914C507.931 381.238 511.21 375.355 511.882 374.181C510.253 371.263 508.31 367.554 506.434 364.879C505.342 362.73 503.433 359.703 502.154 357.549C501.23 354.804 500.975 354.645 502.774 352.364C506.156 358.501 509.909 364.761 513.442 370.829C516.225 365.961 522.329 356.51 524.195 352.032ZM575.374 755.291C565.721 744.442 550.976 730.56 540.399 719.792L522.35 701.44C519.516 698.593 515.484 694.282 512.474 691.98C503.628 701.218 493.601 710.764 484.444 719.863C474.823 729.86 465.092 739.751 455.253 749.534C450.5 754.294 443.391 760.983 439 765.873C441.435 768.335 443.694 770.68 446.329 772.934C448.007 775.228 464.348 790.942 466.794 793.296C481.663 807.615 496.965 823.251 512.299 836.97C520.818 829.548 529.681 820.793 537.893 812.948C552.344 799.271 566.581 785.368 580.597 771.245C582.039 770.263 585.222 767.047 586.626 765.7C582.931 762.917 578.736 758.592 575.374 755.291ZM512.34 840.924C504.642 847.411 494.587 857.991 486.869 865.257C473.211 877.962 459.665 890.787 446.232 903.729L410.571 939.074C424.336 938.823 438.822 939.176 452.645 939.219L509.972 939.09C543.485 939.14 579.15 939.686 612.512 938.954C599.086 923.143 580.185 906.401 565.195 891.95C547.62 875.007 530.455 857.223 512.34 840.924ZM471.345 614.481C469.475 615.886 469.106 616.005 468.033 617.99C468.009 619.605 467.75 618.938 468.696 620.107L470.139 620.442C471.182 619.296 471.912 618.766 472.113 617.249C471.826 616.136 471.393 615.54 471.345 614.481Z"/><path fill="#FEFEFE" fill-opacity="0.019607844" d="M512.34 840.924C530.455 857.223 547.62 875.007 565.195 891.95C580.185 906.401 599.086 923.143 612.512 938.954C579.15 939.686 543.485 939.14 509.972 939.09L452.645 939.219C438.822 939.176 424.336 938.823 410.571 939.074L446.232 903.729C459.665 890.787 473.211 877.962 486.869 865.257C494.587 857.991 504.642 847.411 512.34 840.924Z"/><defs><linearGradient id="gradient_1" gradientUnits="userSpaceOnUse" x1="498.81885" y1="702.30005" x2="528.23755" y2="827.56927"><stop offset="0" stop-color="#FEFEFE" stop-opacity="0.68235296"/><stop offset="1" stop-color="#FFFFFE" stop-opacity="0.87843138"/></linearGradient></defs><path fill="url(#gradient_1)" d="M512.474 691.98C515.484 694.282 519.516 698.593 522.35 701.44L540.399 719.792C550.976 730.56 565.721 744.442 575.374 755.291C570.91 754.33 574.116 752.775 569.199 751.745C569.109 751.65 569.019 751.556 568.929 751.461C565.374 746.018 558.827 741.385 554.638 736.223C553.179 735.408 552.424 734.231 551.357 732.922C550.052 731.948 549.571 731.451 548.457 730.323C544.169 725.299 523.048 703.131 518.784 700.867L518.456 700.69C521.284 703.597 538.455 720.436 538.66 722.107L538.045 722.504C534.903 720.381 537.263 719.777 530.708 716.804L530.879 715.356C527.764 713.167 526.852 713.127 524.226 710.255L523.151 710.071C523.105 711.446 523.161 711.056 523.703 712.467L523.26 712.869L523.325 714.204C525.923 716.43 528.547 718.24 531.24 720.538C536.102 724.687 540.42 731.685 545.18 735.665C550.618 740.211 556.664 744.411 561.807 749.696C564.095 752.047 566.359 754.53 568.545 756.688L569.231 756.454C568.816 754.418 568.519 753.914 566.85 752.424L567.919 751.917L567.683 751.786L568.906 752.018C569.963 753.016 574.156 757.296 574.453 758.294L573.557 760.467L573.962 760.996L575.213 759.195C576.475 760.179 576.639 760.85 577.313 762.291C576.665 767.079 576.935 769.133 573.774 772.664L573.85 773.19C575.093 772.854 576.164 771.524 578.501 770.859C579.147 770.969 579.982 771.082 580.597 771.245C566.581 785.368 552.344 799.271 537.893 812.948C529.681 820.793 520.818 829.548 512.299 836.97C496.965 823.251 481.663 807.615 466.794 793.296C464.348 790.942 448.007 775.228 446.329 772.934C447.373 770.634 445.793 769.632 444.394 768.116C446.373 765.872 448.048 764.936 450.025 762.933C451.097 761.848 452.792 759.269 453.855 757.929C456.823 754.196 459.981 750.618 463.315 747.208C468.416 742.04 488.312 722.708 491.673 717.002L491.336 716.205L490.422 716.012C486.851 718.139 489.306 719.841 484.444 719.863C493.601 710.764 503.628 701.218 512.474 691.98Z"/><path fill="#FEFEFE" d="M512.921 565.284C516.951 566.736 565.851 625.071 570.318 631.464C563.301 639.208 554.661 647.441 547.164 654.858C535.843 666.165 524.389 677.338 512.804 688.374C500.588 677.717 486.885 663.296 475.192 651.924C469.673 646.557 459.602 636.491 454.823 630.732C457.355 626.603 470.292 612.9 474.12 608.567C486.912 594.087 499.881 579.539 512.921 565.284ZM470.139 620.442C471.182 619.296 471.912 618.766 472.113 617.249C471.826 616.136 471.393 615.54 471.345 614.481C469.475 615.886 469.106 616.005 468.033 617.99C468.009 619.605 467.75 618.938 468.696 620.107L470.139 620.442Z"/><path fill="#FEFEFE" fill-opacity="0.89019608" d="M471.345 614.481C471.393 615.54 471.826 616.136 472.113 617.249C471.912 618.766 471.182 619.296 470.139 620.442L468.696 620.107C467.75 618.938 468.009 619.605 468.033 617.99C469.106 616.005 469.475 615.886 471.345 614.481Z"/><path fill="#FEFEFE" d="M513.312 461.313C516.882 463.776 543.558 500.317 547.885 506.977C548.823 508.419 550.577 514.558 551.162 516.58C548.101 520.69 515.971 559.424 513.129 560.452C508.069 555.069 475.24 517.961 474.653 514.971C474.17 512.518 475.772 509.267 476.939 507.228C480.43 501.131 485.445 495.326 489.805 489.82C497.429 480.19 505.199 470.535 513.312 461.313Z"/><path fill="#FEFEFE" d="M513.211 377C518.542 385.711 530.151 403.961 534.277 413.029C536.393 415.422 538.575 418.853 540.405 421.557C539.053 423.395 538.222 424.579 536.623 426.223C533.5 431.729 517.94 451.064 513.498 456.52C509.008 450.537 504.42 444.629 499.735 438.797C496.977 435.319 492.433 429.945 490.434 426.208L487.42 422.455C488.716 419.841 489.956 417.165 492.238 415.379C493.794 411.011 498.859 402.359 501.225 398.221C505.275 391.178 509.27 384.104 513.211 377Z"/><path fill="#4d9697" d="M534.277 413.029C536.393 415.422 538.575 418.853 540.405 421.557C539.053 423.395 538.222 424.579 536.623 426.223C536.309 422.712 534.987 416.709 534.277 413.029Z"/><path fill="#4d9697" d="M487.42 422.455C488.716 419.841 489.956 417.165 492.238 415.379C491.657 418.678 490.782 422.961 490.434 426.208L487.42 422.455Z"/><path fill="#FEFEFE" fill-opacity="0.21568628" d="M484.444 719.863C489.306 719.841 486.851 718.139 490.422 716.012L491.336 716.205L491.673 717.002C488.312 722.708 468.416 742.04 463.315 747.208C459.981 750.618 456.823 754.196 453.855 757.929C452.792 759.269 451.097 761.848 450.025 762.933C448.048 764.936 446.373 765.872 444.394 768.116C445.793 769.632 447.373 770.634 446.329 772.934C443.694 770.68 441.435 768.335 439 765.873C443.391 760.983 450.5 754.294 455.253 749.534C465.092 739.751 474.823 729.86 484.444 719.863Z"/><path fill="#FEFEFE" fill-opacity="0.54901963" d="M518.456 700.69L518.784 700.867C523.048 703.131 544.169 725.299 548.457 730.323L547.661 730.796C546.607 731.413 546.361 731.484 545.151 731.831C547.069 732.084 546.205 731.753 547.811 732.94C548.286 734.061 548.475 734.407 548.718 735.586C549.765 736.096 549.835 736.088 550.984 736.334C552.151 737.61 552.467 738.003 554.113 738.739L554.918 738.473C555.328 737.232 555.188 737.853 554.638 736.223C558.827 741.385 565.374 746.018 568.929 751.461C569.019 751.556 569.109 751.65 569.199 751.745L568.906 752.018L567.683 751.786L567.919 751.917L566.85 752.424C568.519 753.914 568.816 754.418 569.231 756.454L568.545 756.688C566.359 754.53 564.095 752.047 561.807 749.696C556.664 744.411 550.618 740.211 545.18 735.665C540.42 731.685 536.102 724.687 531.24 720.538C528.547 718.24 525.923 716.43 523.325 714.204L523.26 712.869L523.703 712.467C523.161 711.056 523.105 711.446 523.151 710.071L524.226 710.255C526.852 713.127 527.764 713.167 530.879 715.356L530.708 716.804C537.263 719.777 534.903 720.381 538.045 722.504L538.66 722.107C538.455 720.436 521.284 703.597 518.456 700.69Z"/><path fill="#FEFEFE" fill-opacity="0.79607844" d="M569.199 751.745C574.116 752.775 570.91 754.33 575.374 755.291C578.736 758.592 582.931 762.917 586.626 765.7C585.222 767.047 582.039 770.263 580.597 771.245C579.982 771.082 579.147 770.969 578.501 770.859C576.164 771.524 575.093 772.854 573.85 773.19L573.774 772.664C576.935 769.133 576.665 767.079 577.313 762.291C576.639 760.85 576.475 760.179 575.213 759.195L573.962 760.996L573.557 760.467L574.453 758.294C574.156 757.296 569.963 753.016 568.906 752.018L569.199 751.745Z"/><defs><linearGradient id="gradient_2" gradientUnits="userSpaceOnUse" x1="554.60626" y1="737.22974" x2="551.15656" y2="735.87354"><stop offset="0" stop-color="#FEFEFE" stop-opacity="0.5411765"/><stop offset="1" stop-color="#FEFEFE" stop-opacity="0.57254905"/></linearGradient></defs><path fill="url(#gradient_2)" d="M551.357 732.922C552.424 734.231 553.179 735.408 554.638 736.223C555.188 737.853 555.328 737.232 554.918 738.473L554.113 738.739C552.467 738.003 552.151 737.61 550.984 736.334C549.835 736.088 549.765 736.096 548.718 735.586C551.029 735.019 551.018 735.037 551.357 732.922Z"/><defs><linearGradient id="gradient_3" gradientUnits="userSpaceOnUse" x1="550.65765" y1="732.73846" x2="547.33466" y2="732.32312"><stop offset="0" stop-color="#FEFEFE" stop-opacity="0.52156866"/><stop offset="1" stop-color="#FEFEFE" stop-opacity="0.55686277"/></linearGradient></defs><path fill="url(#gradient_3)" d="M548.457 730.323C549.571 731.451 550.052 731.948 551.357 732.922C551.018 735.037 551.029 735.019 548.718 735.586C548.475 734.407 548.286 734.061 547.811 732.94C546.205 731.753 547.069 732.084 545.151 731.831C546.361 731.484 546.607 731.413 547.661 730.796L548.457 730.323Z"/><defs><linearGradient id="gradient_4" gradientUnits="userSpaceOnUse" x1="888.21619" y1="937.17291" x2="695.71674" y2="727.50867"><stop offset="0" stop-color="white" stop-opacity="0"/><stop offset="1" stop-color="#FFFFFE"/></linearGradient></defs><path fill="url(#gradient_4)" d="M723.868 701.788C743.455 704.12 754.907 706.857 771.487 718.413C785.765 728.364 792.524 764.413 801.46 771.415C800.261 772.319 799.918 775.402 801.3 776.924C803.649 777.521 807.058 776.006 809.495 775.183C811.273 771.469 813.991 771.252 815.137 767.82L816.079 765.034C817.745 764.425 820.632 766.13 822.596 765.891C825.013 765.597 827.632 763.452 830.219 763.713L830.41 765.663L833.3 766.74L833.813 768.214L834.476 768.297C836.034 765.945 836.127 764.576 836.644 761.859C840.894 772.341 838.658 784.66 833.683 794.545C830.22 794.909 830.867 792.12 828.766 792.912C822.673 795.209 825.836 798.774 818.753 798.312C813.522 800.363 813.127 808.632 803.698 811.47L803.517 811.959C802.435 813.664 801.935 813.826 801.859 815.54C804.481 815.951 805.004 813.794 809.509 814.345L809.12 814.62C805.03 817.479 804.503 816.507 801.113 821.473L802.753 820.711C804.872 826.928 798.733 832.126 800.356 834.98L801.378 834.402L801.798 836.719C802.957 838.949 800.677 842.385 801.94 844.536L803.044 844.471C805.697 842.864 806.756 838.404 808.028 835.147L808.543 834.506C808.412 832.235 810.213 831.153 811.791 829.699C813.797 822.871 810.97 814.6 815.62 810.054C815.569 811.859 815.281 814.629 815.856 816.154L816.067 814.492C819.264 826.852 831.176 836.735 841.837 842.976C858.049 852.467 879.894 857.115 898.663 857.579C900.65 857.628 905.985 857.555 907.813 857.142C905.914 873.863 909.453 897.415 914.372 913.741C906.333 914.364 897.804 913.442 890.481 913.961C881.615 913.083 862.985 913.632 853.478 913.569C825.847 913.385 797.485 914.506 769.858 913.272C775.254 899.223 778.322 879.684 762.875 870.722L762.764 869.896C762.81 867.737 762.443 867.929 763.519 866.637C766.596 866.315 769.081 863.521 768.249 860.468C767.036 859.434 767.51 859.477 766.236 859.208C764.667 860.882 764.217 861.507 762.158 862.46C759.514 864.087 759.16 863.756 756.353 865.913C758.032 867.601 759.596 867.71 760.998 869.777C741.651 864.581 720.569 881.904 708.543 857.906C708.563 852.037 710.396 850.355 711.948 844.949C714.072 837.552 708.328 834.827 705.201 828.96C702.375 823.658 706.365 819.312 708.013 813.528L708.181 812.915C704.378 797.143 682.949 792.116 695.884 780.013C696.115 781.821 695.724 782.627 696.054 784.697C700.178 786.134 717.804 770.781 715.538 766.507C712.601 766.448 713.488 768.567 709.627 768.476C721.097 757.764 714.323 748.755 712.709 735.28C711.322 723.69 720.068 713.001 723.868 701.788Z"/><defs><linearGradient id="gradient_5" gradientUnits="userSpaceOnUse" x1="550.95123" y1="873.64313" x2="618.61499" y2="829.84503"><stop offset="0" stop-color="#FEFEFD" stop-opacity="0.627451"/><stop offset="1" stop-color="#FEFEFD" stop-opacity="0.73725492"/></linearGradient></defs><path fill="url(#gradient_5)" d="M558.205 806.296L560.306 804.808C563.68 805.169 572.293 783.766 579.299 785.14C580.795 786.82 579.548 787.413 580.902 789.23C581.615 788.587 581.509 785.432 581.79 783.654L582.68 783.195C584.752 785.623 584.331 787.678 583.093 790.495C585.234 791.837 583.691 789.385 585.298 789.966C586.752 790.491 588.673 790.998 590.171 791.28L591.923 789.296L592.653 789.308C594.006 791.42 592.772 793.16 594.938 796.03C595.837 801.759 596.811 807.475 597.857 813.178C597.436 815.221 597.406 815.3 595.934 816.775L595.007 816.877L593.736 815.661C592.396 815.836 592.032 815.917 590.733 816.294C589.906 818.559 588.692 820.386 588.771 822.558L589.623 823.327L589.106 823.649L588.769 822.532L589.301 823.606L590.74 822.417L591.25 822.747C591.79 827.614 589.244 840.994 593.423 844.555C595.954 846.711 598.152 842.904 598.46 849.756C598.503 850.534 598.537 851.312 598.564 852.09C600.291 854.197 601.94 852.487 604.255 852.508C605.219 856.998 611.128 891.96 610.786 895.157C610.589 902.938 604.31 911.921 599.761 918.104C599.374 918.631 597.116 918.927 596.474 918.858C580.112 902.312 562.455 886.203 545.817 869.577C546.388 867.141 547.571 865.834 547.061 863.343C545.909 861.34 542.883 859.883 540.762 858.587C539.752 856.226 536.633 851.188 535.243 848.769C535.334 847.454 536.118 846.173 537.037 845.324C539.348 843.633 538.204 838.785 539.531 837.075C546.199 828.481 552.686 819.425 559.671 811.151L559.585 810.433L558.505 810.451C557.681 811.677 556.849 812.898 556.01 814.113C555.857 813.984 555.717 813.838 555.552 813.726C553.657 812.453 551.786 819.969 547.479 820.754C546.238 819.933 546.575 820.366 545.878 819.162L549.152 815.94C551.521 814.033 554.087 810.821 556.375 808.725C556.888 808.255 556.708 809.404 558.492 808.587L558.205 806.296Z"/><defs><linearGradient id="gradient_6" gradientUnits="userSpaceOnUse" x1="501.93216" y1="824.76624" x2="397.76489" y2="866.172"><stop offset="0" stop-color="#FEFEFE" stop-opacity="0.44313726"/><stop offset="1" stop-color="#FEFEFC" stop-opacity="0.77254903"/></linearGradient></defs><path fill="url(#gradient_6)" d="M426.867 811.942L427.243 812.09L428.342 811.341C428.296 807.853 428.961 806.336 430.037 803.087L430.018 803.785C431.197 801.231 431.137 797.867 432.815 796.695C439.246 797.875 438.154 793.338 442.599 793.996C443.725 795.157 444.853 798.427 445.806 800.292L446.135 799.982L446.021 801.094C450.78 802.681 463.241 819.012 466.017 824.513C469.626 826.283 479.378 831.285 483.075 831.221C482.813 829.459 477.644 825.429 475.963 823.155C477.997 823.693 484.918 826.27 485.836 825.894C485.253 824.699 484.926 824.395 484.852 823.135C491.81 823.275 494.332 833.98 500.733 835.014C502.356 835.276 503.11 833.961 504.466 833.313L507.141 835.818L504.72 838.141L503.907 836.508C501.868 836.275 496.137 838.662 494.227 839.511L494.665 840.582C493.282 841.27 491.993 842.1 490.491 842.182L489.918 841.782L487.139 841.496L486.729 842.182C487.952 843.936 489.805 845.574 490.573 847.237C490.176 848.309 490.203 848.397 489.619 849.36C488.008 850.086 478.341 861.288 479.066 864.145C480.664 864.201 480.866 864.172 482.452 863.918L483.769 864.488C480.29 867.85 456.693 890.811 454.385 892.225L453.658 890.852C451.662 891.255 451.999 893.475 450.32 893.785C442.309 895.265 435.169 902.489 428.443 906.941C426 908.559 422.881 914.605 419.46 913.201C418.717 912.895 418.261 913.126 417.591 913.345C418.438 905.528 414.179 908.408 412.44 902.465C412.676 897.875 414.001 890.905 414.755 886.198C414.762 887.589 414.771 887.827 415.028 889.188C416.49 887.58 416.494 878.62 417.427 876.085C418.18 876.955 417.927 876.724 418.902 877.425C419.5 875.363 418.589 870.679 417.295 868.867C419.28 857.499 421.163 846.112 422.941 834.71C423.91 828.474 425.298 817.705 426.867 811.942Z"/><defs><linearGradient id="gradient_7" gradientUnits="userSpaceOnUse" x1="520.83173" y1="699.30151" x2="580.69397" y2="692.91962"><stop offset="0" stop-color="white" stop-opacity="0.94901961"/><stop offset="1" stop-color="white"/></linearGradient></defs><path fill="url(#gradient_7)" d="M569.88 635.585C570.923 639.069 571.073 643.187 571.716 646.801C576.844 675.605 581.15 704.531 585.799 733.414C586.341 736.782 586.839 740.12 587.171 743.518L586.185 743.632C584.474 742.376 584.192 742.124 582.31 743.663C581.433 747.307 584.183 747.55 582.565 750.587L581.34 751.048C580.024 750.447 579.69 750.214 578.479 749.4C576.675 749.735 576.572 750.242 575.706 751.982L516.709 692.404C519.082 692.2 522.739 690.306 524.164 688.43C530.095 680.625 537.754 674.382 543.897 666.996C545.013 665.654 545.892 663.99 547.282 662.385L547.263 661.637L547.735 661.446C542.578 662.838 536.839 671.564 533.018 672.287C536.302 668.532 542.591 662.705 546.291 659.049L569.88 635.585Z"/><defs><linearGradient id="gradient_8" gradientUnits="userSpaceOnUse" x1="502.15833" y1="691.9895" x2="432.13458" y2="699.68622"><stop offset="0" stop-color="#FDFDFE" stop-opacity="0.72549021"/><stop offset="1" stop-color="#FFFFFE" stop-opacity="0.89803922"/></linearGradient></defs><path fill="url(#gradient_8)" d="M452.255 650.011C452.827 652.085 452.416 651.976 453.77 652.866C457.124 649.661 454.318 647.086 454.597 644.516C456.065 644.706 457.001 645.381 458.302 646.105C459.238 647.631 461.939 652.152 463.164 653.194C470.347 659.303 475.079 667.951 482.818 673.278C487.278 676.348 489.736 674.834 492.658 680.364L493.64 680.888C494.892 680.414 495.059 680.285 496.203 679.562C494.695 681.81 495.081 681.35 495.58 683.869L496.104 684.442C497 683.089 497.083 682.56 497.545 681.042L498.122 681.045C498.424 682.546 498.18 682.754 497.833 684.333C498.453 684.158 499.073 683.983 499.694 683.808L499.951 683.943L498.829 685.726L499.302 686.756L499.85 686.647L500.697 685.308C501.789 685.94 501.488 685.489 501.892 686.479C501.093 687.595 500.309 688.478 499.951 689.789C500.346 691.501 500.354 691.392 501.396 692.834L501.315 693.881L499.479 695.24C496.448 694.613 494.404 690.588 494.31 687.59L493.77 687.308C491.665 689.807 495.887 694.896 497.834 696.505C501.746 696.542 501.962 692.536 508.179 692.713C499.972 701.537 490.758 710.096 482.156 718.652C467.429 733.301 452.699 749.637 437.31 763.535L434.446 760.654C436.894 750.847 437.779 739.594 439.488 729.321L452.255 650.011Z"/><defs><linearGradient id="gradient_9" gradientUnits="userSpaceOnUse" x1="471.76599" y1="797.67603" x2="459.94037" y2="812.2193"><stop offset="0" stop-color="white" stop-opacity="0"/><stop offset="1" stop-color="white" stop-opacity="0.070588239"/></linearGradient></defs><path fill="url(#gradient_9)" d="M433.836 770.28L436.84 767.577C459.097 789.78 481.641 811.694 504.466 833.313C503.11 833.961 502.356 835.276 500.733 835.014C494.332 833.98 491.81 823.275 484.852 823.135C484.926 824.395 485.253 824.699 485.836 825.894C484.918 826.27 477.997 823.693 475.963 823.155C472.669 820.908 470.49 817.923 467.424 815.119C463.295 811.342 457.213 807.133 453.981 802.715C451.524 799.356 450.071 790.071 445.437 787.952C441.199 786.014 436.073 790.461 430.827 791.988L430.205 791.097C431.021 784.397 433.028 777.273 433.836 770.28Z"/><path fill="#FEFEFE" fill-opacity="0.59607846" d="M454.773 634.921C459.235 639.168 463.645 643.471 468.001 647.828C465.671 647.711 466.012 647.356 464.432 648.388C464.888 651.69 470.872 652.669 473.093 658.47C474.942 658.985 475.856 658.473 476.669 656.599C479.082 659.011 481.593 661.609 484.057 663.943C482.51 663.811 481.555 663.54 480.222 664.286L480.095 665.1C480.267 665.275 486.847 671.73 486.066 671.24C487.358 671.305 486.773 671.455 487.8 670.607C488.261 669.477 488.294 669.546 488.52 668.368C495.968 675.593 503.346 682.889 510.653 690.256L508.179 692.713C501.962 692.536 501.746 696.542 497.834 696.505C495.887 694.896 491.665 689.807 493.77 687.308L494.31 687.59C494.404 690.588 496.448 694.613 499.479 695.24L501.315 693.881L501.396 692.834C500.354 691.392 500.346 691.501 499.951 689.789C500.309 688.478 501.093 687.595 501.892 686.479C501.488 685.489 501.789 685.94 500.697 685.308L499.85 686.647L499.302 686.756L498.829 685.726L499.951 683.943L499.694 683.808C499.073 683.983 498.453 684.158 497.833 684.333C498.18 682.754 498.424 682.546 498.122 681.045L497.545 681.042C497.083 682.56 497 683.089 496.104 684.442L495.58 683.869C495.081 681.35 494.695 681.81 496.203 679.562C495.059 680.285 494.892 680.414 493.64 680.888L492.658 680.364C489.736 674.834 487.278 676.348 482.818 673.278C475.079 667.951 470.347 659.303 463.164 653.194C461.939 652.152 459.238 647.631 458.302 646.105C457.001 645.381 456.065 644.706 454.597 644.516C454.318 647.086 457.124 649.661 453.77 652.866C452.416 651.976 452.827 652.085 452.255 650.011L454.773 634.921Z"/><path fill="#FEFEFE" fill-opacity="0.31764707" d="M551.18 803.678C554.992 803.281 556.604 800.306 558.982 800.722C559.264 803.501 551.169 812.651 548.9 814.732L549.152 815.94L545.878 819.162C546.575 820.366 546.238 819.933 547.479 820.754C551.786 819.969 553.657 812.453 555.552 813.726C555.717 813.838 555.857 813.984 556.01 814.113C556.849 812.898 557.681 811.677 558.505 810.451L559.585 810.433L559.671 811.151C552.686 819.425 546.199 828.481 539.531 837.075C538.204 838.785 539.348 843.633 537.037 845.324C536.118 846.173 535.334 847.454 535.243 848.769C536.633 851.188 539.752 856.226 540.762 858.587C539.763 859.802 540.258 859.662 539.103 860.019C537.719 857.648 533.063 852.069 531.142 849.124C525.189 843.88 531.259 843.255 528.892 835.373C527.126 829.489 548.079 817.139 552.139 807.264C550.142 806.376 550.591 808.284 547.453 807.146C548.598 805.75 549.806 804.836 551.18 803.678Z"/><path fill="#FEFEFE" fill-opacity="0.32941177" d="M430.205 791.097L430.827 791.988C436.073 790.461 441.199 786.014 445.437 787.952C450.071 790.071 451.524 799.356 453.981 802.715C457.213 807.133 463.295 811.342 467.424 815.119C470.49 817.923 472.669 820.908 475.963 823.155C477.644 825.429 482.813 829.459 483.075 831.221C479.378 831.285 469.626 826.283 466.017 824.513C463.241 819.012 450.78 802.681 446.021 801.094L446.135 799.982L445.806 800.292C444.853 798.427 443.725 795.157 442.599 793.996C438.154 793.338 439.246 797.875 432.815 796.695C431.137 797.867 431.197 801.231 430.018 803.785L430.037 803.087C428.961 806.336 428.296 807.853 428.342 811.341L427.243 812.09L426.867 811.942C428.342 805.362 428.741 797.73 430.205 791.097Z"/><defs><linearGradient id="gradient_10" gradientUnits="userSpaceOnUse" x1="516.25464" y1="839.83325" x2="555.27826" y2="827.90717"><stop offset="0" stop-color="white" stop-opacity="0"/><stop offset="1" stop-color="white" stop-opacity="0.050980393"/></linearGradient></defs><path fill="url(#gradient_10)" d="M547.453 807.146C550.591 808.284 550.142 806.376 552.139 807.264C548.079 817.139 527.126 829.489 528.892 835.373C531.259 843.255 525.189 843.88 531.142 849.124C530.717 853.58 536.634 857.69 536.79 860.4C530.926 855.815 519.95 844.536 514.271 838.984C525.397 828.44 536.458 817.827 547.453 807.146Z"/><path fill="#ECECEF" fill-opacity="0.85490197" d="M635.243 930.32C635.226 927.65 634.736 921.596 635.152 919.567L635.629 919.809C635.867 923.556 638.147 926.213 637.411 929.938L636.579 930.202L638.09 931.379L638.206 933.015C639.893 930.579 639.24 925.376 640.67 924.644C642.09 927.309 639.933 933.338 643.24 933.83C646.977 934.387 652.479 934.631 656.243 934.746C666.148 934.962 676.055 935.066 685.962 935.059C691.883 935.082 699.764 934.937 705.495 935.684L703.523 935.935C707.334 936.213 714.009 937.281 717.407 935.816C719.362 934.973 739.23 934.554 740.761 934.71L740.779 934.298C741.368 935.367 741.868 936.273 742.518 937.31C734.963 939.623 713.451 938.711 704.406 938.651C699.865 936.423 660.866 938.64 653.26 937.261C650.69 936.796 639.041 936.004 636.069 935.932C635.976 934.318 635.514 931.979 635.243 930.32Z"/><defs><linearGradient id="gradient_11" gradientUnits="userSpaceOnUse" x1="755.92639" y1="879.83716" x2="746.04388" y2="895.68994"><stop offset="0" stop-color="#F8F7FA" stop-opacity="0.51372552"/><stop offset="1" stop-color="#F7F7FA" stop-opacity="0.73725492"/></linearGradient></defs><path fill="url(#gradient_11)" d="M729.329 882.308C733.956 884.383 744.822 887.115 750.013 884.451C751.639 883.616 751.028 883.563 752.962 883.696C753.961 884.487 754.403 884.79 755.492 885.452L756.179 885.171L756.044 884.432C755.128 883.828 754.405 883.326 753.529 882.667C755.239 882.478 755.497 882.102 757.011 881.295L757.369 881.562C759.667 883.24 766.608 885.976 766.379 888.389C766.135 890.958 769.412 897.359 769.31 898.88C768.067 900.455 767.044 900.55 765.018 900.533L764.314 901.397L761.909 901.756C761.211 897.713 755.813 898.035 754.743 894.211C754.194 892.248 754.291 890.473 752.826 888.898C751.332 888.856 749.892 890.528 748.443 891.712C748.94 893.422 749.024 893.612 749.174 895.462L748.558 896.03C746.666 895.399 747.371 895.948 746.242 894.511C746.219 893.882 746.206 891.773 745.768 891.398C742.447 888.553 731.529 889.464 729.481 885.043C729.976 883.395 729.878 884.267 729.329 882.308Z"/><path fill="#FEFEFE" fill-opacity="0.56862748" d="M604.255 852.508C601.94 852.487 600.291 854.197 598.564 852.09C598.537 851.312 598.503 850.534 598.46 849.756C598.152 842.904 595.954 846.711 593.423 844.555C589.244 840.994 591.79 827.614 591.25 822.747L590.74 822.417L589.301 823.606L588.769 822.532L589.106 823.649L589.623 823.327L588.771 822.558C588.692 820.386 589.906 818.559 590.733 816.294C592.032 815.917 592.396 815.836 593.736 815.661L595.007 816.877L595.934 816.775C597.406 815.3 597.436 815.221 597.857 813.178C600.265 825.87 602.307 839.697 604.255 852.508Z"/><path fill="#ECECEF" fill-opacity="0.48235294" d="M729.714 873.543C733.527 873.511 737.747 872.846 741.567 872.347C743.479 873.365 743.376 873.363 744.741 875.102C746.977 876.256 748.63 875.238 750.886 875.741C763.632 878.581 770.531 884.326 771.381 897.518C771.105 899.961 770.911 900.779 770.208 903.143L769.706 902.986C767.568 905.147 766.264 905.75 765.13 908.504C764.958 909.964 764.899 910.936 764.445 912.356L762.886 913.021L763.218 912.331C760.749 913.825 761.164 914.341 759.342 916.102C760.207 912.175 762.363 911.692 762.65 910.303C763.525 906.071 762.527 906.181 764.314 901.397L765.018 900.533C767.044 900.55 768.067 900.455 769.31 898.88C769.412 897.359 766.135 890.958 766.379 888.389C766.608 885.976 759.667 883.24 757.369 881.562L757.011 881.295C756.566 880.816 756.133 880.325 755.714 879.822C753.082 876.615 747.545 877.18 743.722 877.273C739.771 881.537 737.313 881.918 731.232 881.296C728.503 881.016 723.977 880.453 724.524 876.939C726.573 875.766 727.267 875.445 728.788 873.68L729.714 873.543Z"/><path fill="#FEFEFE" fill-opacity="0.58823532" d="M552.044 802.913C554.244 800.186 560.133 794.673 562.876 792.034C568.424 786.694 574.284 780.48 579.994 775.424C580.025 776.99 579.799 778.531 580.712 779.662C583.774 779.742 584.087 777.344 586.389 777.967C587.094 780.187 586.401 781.421 587.797 783.265C591.435 785.08 590.269 782.864 593.163 784.38C593.91 788.287 594.405 792.095 594.938 796.03C592.772 793.16 594.006 791.42 592.653 789.308L591.923 789.296L590.171 791.28C588.673 790.998 586.752 790.491 585.298 789.966C583.691 789.385 585.234 791.837 583.093 790.495C584.331 787.678 584.752 785.623 582.68 783.195L581.79 783.654C581.509 785.432 581.615 788.587 580.902 789.23C579.548 787.413 580.795 786.82 579.299 785.14C572.293 783.766 563.68 805.169 560.306 804.808L558.205 806.296C559.6 804.273 563.406 799.332 562.997 797.25C559.576 796.991 555.875 801.55 552.044 802.913Z"/><path fill="#FEFEFE" fill-opacity="0.30588236" d="M812.716 808.811C818.5 805.417 821.949 801.117 827.567 797.657C829.972 796.175 830.182 796.076 832.502 796.661L831.223 798.601C829.871 798.307 829.495 798.728 828.024 799.629C824.211 801.98 820.796 804.925 817.909 808.351C817.111 809.293 816.692 809.467 815.62 810.054C810.97 814.6 813.797 822.871 811.791 829.699C810.213 831.153 808.412 832.235 808.543 834.506L808.028 835.147L807.246 834.665C805.663 833.68 805.333 833.346 803.962 832.021C802.849 832.771 802.285 835.196 801.798 836.719L801.378 834.402L800.356 834.98C798.733 832.126 804.872 826.928 802.753 820.711L801.113 821.473C804.503 816.507 805.03 817.479 809.12 814.62L809.509 814.345L810.107 814.723C810.968 812.489 811.656 810.96 812.716 808.811Z"/><path fill="#FEFEFE" fill-opacity="0.098039217" d="M417.591 913.345C418.261 913.126 418.717 912.895 419.46 913.201C422.881 914.605 426 908.559 428.443 906.941C435.169 902.489 442.309 895.265 450.32 893.785C451.999 893.475 451.662 891.255 453.658 890.852L454.385 892.225C452.59 894.042 447.896 898.533 446.482 900.289L444.995 899.757C443.212 900.637 442.185 901.19 441.715 903.277C443.161 902.249 443.682 901.611 445.319 901.228C442.797 903.926 437.467 909.224 434.489 911.586C428.28 912.665 430.056 918.947 422.986 917.542C420.823 918.285 419.072 919.695 417.557 919.483C416.368 917.381 416.775 916.279 417.446 913.854L417.591 913.345Z"/><path fill="#FEFEFE" fill-opacity="0.50980395" d="M812.741 762.073C823.51 751.994 830.742 761.896 834.619 762.006L835.712 760.014L836.644 761.859C836.127 764.576 836.034 765.945 834.476 768.297L833.813 768.214L833.3 766.74L830.41 765.663L830.219 763.713C827.632 763.452 825.013 765.597 822.596 765.891C820.632 766.13 817.745 764.425 816.079 765.034L815.137 767.82C813.991 771.252 811.273 771.469 809.495 775.183C807.058 776.006 803.649 777.521 801.3 776.924C799.918 775.402 800.261 772.319 801.46 771.415L803.262 770.21C804.516 771.902 803.733 771.489 805.471 771.853C807.439 771.158 809.358 768.805 811.506 767.142L812.741 762.073Z"/><path fill="#080717" fill-opacity="0.87843138" d="M907.813 857.142L908.857 856.297L909.583 856.497C908.77 864.392 908.733 874.507 909.97 882.382C912.967 901.463 915.862 927.611 934.435 938.057C923.09 936.584 919.444 923.284 915.086 914.933C914.704 914.884 914.09 914.783 913.722 914.856C906.948 916.204 897.457 914.856 890.481 913.961C897.804 913.442 906.333 914.364 914.372 913.741C909.453 897.415 905.914 873.863 907.813 857.142Z"/><path fill="#ECECEF" fill-opacity="0.56862748" d="M729.329 882.308C726.35 881.453 722.742 880.909 722.799 877.168C724.13 875.205 726.553 874.357 728.788 873.68C727.267 875.445 726.573 875.766 724.524 876.939C723.977 880.453 728.503 881.016 731.232 881.296C737.313 881.918 739.771 881.537 743.722 877.273C747.545 877.18 753.082 876.615 755.714 879.822C756.133 880.325 756.566 880.816 757.011 881.295C755.497 882.102 755.239 882.478 753.529 882.667C754.405 883.326 755.128 883.828 756.044 884.432L756.179 885.171L755.492 885.452C754.403 884.79 753.961 884.487 752.962 883.696C751.028 883.563 751.639 883.616 750.013 884.451C744.822 887.115 733.956 884.383 729.329 882.308Z"/><defs><linearGradient id="gradient_12" gradientUnits="userSpaceOnUse" x1="427.52805" y1="102.73589" x2="429.63098" y2="93.571136"><stop offset="0" stop-color="white" stop-opacity="0.19215687"/><stop offset="1" stop-color="white" stop-opacity="0.27843139"/></linearGradient></defs><path fill="url(#gradient_12)" d="M425.028 94.3549C429.378 92.3913 432.315 91.2162 436.999 92.558C441.386 93.8149 443.336 96.7317 446.41 97.4746C435.559 98.1067 436.962 101.819 428.392 104.109L427.77 104.281C427.644 104.312 427.519 104.343 427.393 104.374C426.053 103.013 425.629 102.628 424.627 100.9C425.309 99.4772 425.487 99.3031 425.717 97.7124C425.019 96.4504 425.105 95.7847 425.028 94.3549Z"/><path fill="#FEFEFE" fill-opacity="0.17647059" d="M811.672 755.824C812.603 756.228 814.405 757.114 815.229 756.366C822.736 749.552 828.477 758.613 834.366 757.933L835.712 760.014L834.619 762.006C830.742 761.896 823.51 751.994 812.741 762.073L811.506 767.142C809.358 768.805 807.439 771.158 805.471 771.853C803.733 771.489 804.516 771.902 803.262 770.21C806.201 765.788 808.341 760.832 811.672 755.824Z"/><path fill="#FEFEFE" fill-opacity="0.51372552" d="M803.517 811.959L803.698 811.47C813.127 808.632 813.522 800.363 818.753 798.312C825.836 798.774 822.673 795.209 828.766 792.912C830.867 792.12 830.22 794.909 833.683 794.545L832.502 796.661C830.182 796.076 829.972 796.175 827.567 797.657C821.949 801.117 818.5 805.417 812.716 808.811C811.656 810.96 810.968 812.489 810.107 814.723L809.509 814.345C805.004 813.794 804.481 815.951 801.859 815.54C801.935 813.826 802.435 813.664 803.517 811.959Z"/><path fill="#FEFEFE" fill-opacity="0.82745099" d="M575.706 751.982C576.572 750.242 576.675 749.735 578.479 749.4C579.69 750.214 580.024 750.447 581.34 751.048L582.565 750.587C584.183 747.55 581.433 747.307 582.31 743.663C584.192 742.124 584.474 742.376 586.185 743.632L587.171 743.518C587.711 745.684 590.121 758.758 589.553 759.805C588.483 761.144 588.693 761.202 588.6 763.02L588.563 763.865C587.76 763.894 587.86 763.791 587.024 763.436C586.193 761.988 586.744 759.341 586.814 757.35C585.044 757.015 584.335 757.946 583.328 759.051C581.766 758.491 577.189 753.493 575.706 751.982Z"/><path fill="#FEFEFE" fill-opacity="0.47843137" d="M709.627 768.476C713.488 768.567 712.601 766.448 715.538 766.507C717.804 770.781 700.178 786.134 696.054 784.697C695.724 782.627 696.115 781.821 695.884 780.013L709.627 768.476Z"/><defs><linearGradient id="gradient_13" gradientUnits="userSpaceOnUse" x1="522.30188" y1="372.71936" x2="516.44489" y2="375.17709"><stop offset="0" stop-color="#FEFEFE" stop-opacity="0.95686275"/><stop offset="1" stop-color="#FCFBFC" stop-opacity="0.98823529"/></linearGradient></defs><path fill="url(#gradient_13)" d="M524.672 356.778C525.654 359.8 526.495 364.411 526.772 367.602L526.178 368.275C524.417 367.018 525.165 365.085 523.089 363.31C521.518 363.592 521.004 364.854 520.786 366.356C523.346 374.138 525.532 373.273 520.75 381.162C522.442 383.633 524.103 385.91 525.487 388.57L524.868 388.966C525.118 389.845 525.246 390.102 525.219 391.013C522.081 386.835 517.486 378.985 514.58 374.321C517.836 368.342 520.915 362.46 524.672 356.778Z"/><path fill="#FEFEFE" fill-opacity="0.87058824" d="M533.018 672.287C536.839 671.564 542.578 662.838 547.735 661.446L547.263 661.637L547.282 662.385C545.892 663.99 545.013 665.654 543.897 666.996C537.754 674.382 530.095 680.625 524.164 688.43C522.739 690.306 519.082 692.2 516.709 692.404C515.753 691.553 515.72 691.633 515.261 690.462C515.847 688.139 519.014 685.683 520.874 683.982C520.904 685.473 520.836 685.655 521.261 687.056L522.047 687.429C525.49 686.261 529.278 680.563 531.249 677.51L530.99 676.801L528.989 676.027C530.354 674.681 531.583 673.559 533.018 672.287Z"/><path fill="#ECECEF" fill-opacity="0.6901961" d="M761.909 901.756L764.314 901.397C762.527 906.181 763.525 906.071 762.65 910.303C762.363 911.692 760.207 912.175 759.342 916.102C756.566 919.331 757.852 921.953 754.672 922.506L754.575 922.893C751.304 924.475 743.052 933.355 743.181 937.161L742.518 937.31C741.868 936.273 741.368 935.367 740.779 934.298C744.944 927.69 750.985 925 755.061 918.959C756.246 917.203 753.013 915.878 753.299 913.024C754.449 911.785 755.888 911.588 757.885 910.903C760.642 909.959 760.129 906.443 761.67 902.37L761.909 901.756Z"/><path fill="#ECECEF" fill-opacity="0.24705882" d="M741.567 872.347C745.933 871.555 749.377 871.181 753.82 871.438C754.281 873.241 754.265 873.775 755.609 875.085C757.726 875.766 759.581 874.389 761.068 875.676C764.376 878.539 765.229 880.453 769.743 881.831C772.686 886.684 772.097 892.078 771.381 897.518C770.531 884.326 763.632 878.581 750.886 875.741C748.63 875.238 746.977 876.256 744.741 875.102C743.376 873.363 743.479 873.365 741.567 872.347Z"/><path fill="#FEFEFE" fill-opacity="0.054901961" d="M507.141 835.818L510.174 838.77C505.006 844.243 499.641 849.347 494.223 854.569L493.671 853.045L491.988 852.723C493.3 850.116 494.761 847.781 494.947 844.92C495.429 843.788 495.123 844.318 496.298 843.488L497.635 843.174C500.473 839.98 503.569 839.598 504.72 838.141L507.141 835.818Z"/><path fill="#ECECEF" fill-opacity="0.68627453" d="M729.481 885.043C725.228 882.802 720.809 882.395 719.939 877.531L719.078 877.096C710.493 878.106 715.108 873.13 711.536 868.768C710.501 867.504 707.935 866.923 706.193 864.482C707.324 863.456 706.149 865.612 709.859 865.464C716.366 871.417 720.807 873.524 729.714 873.543L728.788 873.68C726.553 874.357 724.13 875.205 722.799 877.168C722.742 880.909 726.35 881.453 729.329 882.308C729.878 884.267 729.976 883.395 729.481 885.043Z"/><path fill="#FEFEFE" fill-opacity="0.84705883" d="M520.75 381.162C525.532 373.273 523.346 374.138 520.786 366.356C521.004 364.854 521.518 363.592 523.089 363.31C525.165 365.085 524.417 367.018 526.178 368.275L526.772 367.602C527.073 369.428 527.378 371.075 527.512 372.92C526.291 377.468 527.955 387.497 526.23 388.664L525.487 388.57C524.103 385.91 522.442 383.633 520.75 381.162Z"/><path fill="#ECECEF" fill-opacity="0.082352944" d="M765.13 908.504C765.817 911.353 765.294 912.412 764.573 915.251C764.872 916.299 764.72 916.119 765.29 916.997C762.64 921.611 759.749 925.495 755.825 929.138L753.7 929.767L752.469 929.026C751.35 929.44 751.943 929.368 750.686 929.187C751.663 927.117 753.424 925.216 754.575 922.893L754.672 922.506C757.852 921.953 756.566 919.331 759.342 916.102C761.164 914.341 760.749 913.825 763.218 912.331L762.886 913.021L764.445 912.356C764.899 910.936 764.958 909.964 765.13 908.504Z"/><path fill="#F8F7FE" d="M636.069 935.932C639.041 936.004 650.69 936.796 653.26 937.261C660.866 938.64 699.865 936.423 704.406 938.651L662.55 938.723C654.369 938.734 644.92 938.538 636.851 938.987L636.069 935.932Z"/><path fill="#FEFEFE" fill-opacity="0.87058824" d="M501.655 368.289C502.074 366.848 502.24 365.448 503.351 364.575C504.532 364.618 505.259 364.716 506.434 364.879C508.31 367.554 510.253 371.263 511.882 374.181C511.21 375.355 507.931 381.238 507.324 381.914C502.004 383.563 504.475 388.281 499.466 388.058C498.879 387.65 497.768 386.726 497.198 386.667L497.638 384.033C499.009 384.96 498.765 385.602 500.463 386.853C502.132 386.558 503.044 384.32 504.432 382.417L505.191 381.906C505.654 381.291 506.677 379.303 506.336 378.747C504.824 376.284 506.378 367.8 505.569 366.178L504.444 366.156C503.471 366.953 502.664 367.554 501.655 368.289Z"/><path fill="#FEFEFE" fill-opacity="0.81176472" d="M946.834 686.841C948.134 683.699 943.661 680.974 945.323 676.352L946.636 675.737C947.543 676.922 947.698 677.354 949.023 678.021L950.018 677.594C951.77 675.54 951.419 674.286 952.026 671.69L952.053 672.563C952.133 674.827 952.397 677.681 953.122 679.82C955.159 685.836 950.537 686.591 947.998 689.579C947.6 688.67 947.212 687.757 946.834 686.841Z"/><path fill="#FEFEFE" fill-opacity="0.77254903" d="M501.655 368.289C502.664 367.554 503.471 366.953 504.444 366.156L505.569 366.178C506.378 367.8 504.824 376.284 506.336 378.747C506.677 379.303 505.654 381.291 505.191 381.906C505.545 380.258 505.988 378.349 505.088 376.894C502.981 373.484 505.102 371.032 505.004 368.655C504.143 369.167 503.348 369.575 502.396 369.881C501.229 372.067 500.933 373.083 500.141 375.473C500.947 377.143 504.339 382.134 504.432 382.417C503.044 384.32 502.132 386.558 500.463 386.853C498.765 385.602 499.009 384.96 497.638 384.033C498.042 380.726 498.895 375.689 499.776 372.556C500.954 370.617 501.112 370.445 501.655 368.289Z"/><path fill="#FEFEFE" fill-opacity="0.0078431377" d="M815.62 810.054C816.692 809.467 817.111 809.293 817.909 808.351C820.796 804.925 824.211 801.98 828.024 799.629C829.495 798.728 829.871 798.307 831.223 798.601C827.131 805.858 816.593 813.422 816.067 814.492L815.856 816.154C815.281 814.629 815.569 811.859 815.62 810.054Z"/><path fill="#FEFEFE" fill-opacity="0.40000001" d="M490.719 850.349C491.938 849.049 492.873 847.08 494.947 844.92C494.761 847.781 493.3 850.116 491.988 852.723L493.671 853.045L494.223 854.569C491.869 856.963 489.821 858.975 487.332 861.223C485.849 861.147 484.78 861.857 483.116 862.131C483.006 859.318 488.727 852.698 490.719 850.349Z"/><path fill="#FEFEFE" fill-opacity="0.41960785" d="M762.158 862.46C764.217 861.507 764.667 860.882 766.236 859.208C767.51 859.477 767.036 859.434 768.249 860.468C769.081 863.521 766.596 866.315 763.519 866.637C762.443 867.929 762.81 867.737 762.764 869.896L762.875 870.722L760.998 869.777C759.596 867.71 758.032 867.601 756.353 865.913C759.16 863.756 759.514 864.087 762.158 862.46Z"/><path fill="#080717" fill-opacity="0.047058824" d="M99.5127 941.471C94.41 942.055 43.561 941.943 41.7617 940.684C45.953 939.17 56.427 939.313 61.171 939.544L61.1837 939.915C57.2982 939.981 53.4132 940.072 49.5289 940.186C54.022 940.818 59.1972 939.668 63.7382 940.616C67.452 941.422 80.089 941.197 84.4633 941.188C89.074 941.162 95.0413 940.957 99.5127 941.471Z"/><path fill="#FEFEFE" fill-opacity="0.23921569" d="M425.028 94.3549C425.105 95.7847 425.019 96.4504 425.717 97.7124C425.487 99.3031 425.309 99.4772 424.627 100.9C425.629 102.628 426.053 103.013 427.393 104.374C422.124 106.803 421.195 105.279 415.942 106.015C419.258 101.702 421.381 98.6068 425.028 94.3549Z"/><path fill="#ECECEF" fill-opacity="0.63137257" d="M743.181 937.161C743.052 933.355 751.304 924.475 754.575 922.893C753.424 925.216 751.663 927.117 750.686 929.187C751.943 929.368 751.35 929.44 752.469 929.026L753.7 929.767L755.825 929.138C751.554 933.028 748.603 934.896 743.181 937.161Z"/><path fill="#FEFEFE" fill-opacity="0.4509804" d="M552.044 802.913C555.875 801.55 559.576 796.991 562.997 797.25C563.406 799.332 559.6 804.273 558.205 806.296L558.492 808.587C556.708 809.404 556.888 808.255 556.375 808.725C554.087 810.821 551.521 814.033 549.152 815.94L548.9 814.732C551.169 812.651 559.264 803.501 558.982 800.722C556.604 800.306 554.992 803.281 551.18 803.678L552.044 802.913Z"/><path fill="#FEFEFE" fill-opacity="0.2" d="M540.762 858.587C542.883 859.883 545.909 861.34 547.061 863.343C547.571 865.834 546.388 867.141 545.817 869.577C543.028 866.977 540.105 863.987 537.361 861.296L539.103 860.019C540.258 859.662 539.763 859.802 540.762 858.587Z"/><path fill="#ECECEF" fill-opacity="0.015686275" d="M753.82 871.438C761.391 871.645 766.528 874.898 769.743 881.831C765.229 880.453 764.376 878.539 761.068 875.676C759.581 874.389 757.726 875.766 755.609 875.085C754.265 873.775 754.281 873.241 753.82 871.438Z"/><path fill="#FEFEFE" fill-opacity="0.22745098" d="M801.798 836.719C802.285 835.196 802.849 832.771 803.962 832.021C805.333 833.346 805.663 833.68 807.246 834.665L808.028 835.147C806.756 838.404 805.697 842.864 803.044 844.471L801.94 844.536C800.677 842.385 802.957 838.949 801.798 836.719Z"/><path fill="#FEFEFE" fill-opacity="0.52549022" d="M483.769 864.488L482.452 863.918C480.866 864.172 480.664 864.201 479.066 864.145C478.341 861.288 488.008 850.086 489.619 849.36L490.719 850.349C488.727 852.698 483.006 859.318 483.116 862.131C484.78 861.857 485.849 861.147 487.332 861.223L483.769 864.488Z"/><path fill="#FEFEFE" fill-opacity="0.67843139" d="M528.989 676.027L530.99 676.801L531.249 677.51C529.278 680.563 525.49 686.261 522.047 687.429L521.261 687.056C520.836 685.655 520.904 685.473 520.874 683.982C522.27 682.324 527.198 677.777 528.989 676.027Z"/><defs><linearGradient id="gradient_14" gradientUnits="userSpaceOnUse" x1="468.80115" y1="653.89954" x2="470.95883" y2="652.28058"><stop offset="0" stop-color="white" stop-opacity="0.45882353"/><stop offset="1" stop-color="#FEFEFF" stop-opacity="0.49411765"/></linearGradient></defs><path fill="url(#gradient_14)" d="M476.669 656.599C475.856 658.473 474.942 658.985 473.093 658.47C470.872 652.669 464.888 651.69 464.432 648.388C466.012 647.356 465.671 647.711 468.001 647.828L476.669 656.599Z"/><path fill="#FEFEFE" fill-opacity="0.41568628" d="M494.665 840.582C496.284 841.922 495.402 841.597 496.298 843.488C495.123 844.318 495.429 843.788 494.947 844.92C492.873 847.08 491.938 849.049 490.719 850.349L489.619 849.36C490.203 848.397 490.176 848.309 490.573 847.237C489.805 845.574 487.952 843.936 486.729 842.182L487.139 841.496L489.918 841.782L490.491 842.182C491.993 842.1 493.282 841.27 494.665 840.582Z"/><path fill="#FEFEFE" fill-opacity="0.62352943" d="M500.141 375.473C500.933 373.083 501.229 372.067 502.396 369.881C503.348 369.575 504.143 369.167 505.004 368.655C505.102 371.032 502.981 373.484 505.088 376.894C505.988 378.349 505.545 380.258 505.191 381.906L504.432 382.417C504.339 382.134 500.947 377.143 500.141 375.473Z"/><path fill="#080717" fill-opacity="0.94117647" d="M63.7382 940.616C73.5122 939.63 75.0903 939.243 85.5318 939.255L84.4633 941.188C80.089 941.197 67.452 941.422 63.7382 940.616Z"/><path fill="#FEFEFE" fill-opacity="0.3019608" d="M494.665 840.582L494.227 839.511C496.137 838.662 501.868 836.275 503.907 836.508L504.72 838.141C503.569 839.598 500.473 839.98 497.635 843.174L496.298 843.488C495.402 841.597 496.284 841.922 494.665 840.582Z"/><path fill="#FEFEFE" fill-opacity="0.49411765" d="M488.52 668.368C488.294 669.546 488.261 669.477 487.8 670.607C486.773 671.455 487.358 671.305 486.066 671.24C486.847 671.73 480.267 665.275 480.095 665.1L480.222 664.286C481.555 663.54 482.51 663.811 484.057 663.943L488.52 668.368Z"/><path fill="#ECECEF" fill-opacity="0.18039216" d="M765.13 908.504C766.264 905.75 767.568 905.147 769.706 902.986L770.208 903.143C769.155 907.937 767.689 912.689 765.29 916.997C764.72 916.119 764.872 916.299 764.573 915.251C765.294 912.412 765.817 911.353 765.13 908.504Z"/><path fill="#FEFEFE" fill-opacity="0.66666669" d="M417.295 868.867C418.589 870.679 419.5 875.363 418.902 877.425C417.927 876.724 418.18 876.955 417.427 876.085C416.494 878.62 416.49 887.58 415.028 889.188C414.771 887.827 414.762 887.589 414.755 886.198L417.295 868.867Z"/><path fill="#ECECEF" fill-opacity="0.91764706" d="M615.907 106.389C616.785 107.499 617.979 108.907 618.691 110.073C618.601 112.081 618.759 113.44 617.362 114.765L616.257 114.19C615.494 112.95 615.044 112.177 614.032 111.109L613.369 110.422C615.035 109.241 615.12 108.4 615.907 106.389Z"/><path fill="#FEFEFE" fill-opacity="0.06666667" d="M531.142 849.124C533.063 852.069 537.719 857.648 539.103 860.019L537.361 861.296L536.79 860.4C536.634 857.69 530.717 853.58 531.142 849.124Z"/><path fill="#ECECEF" fill-opacity="0.28627452" d="M445.319 901.228C443.682 901.611 443.161 902.249 441.715 903.277C442.185 901.19 443.212 900.637 444.995 899.757L446.482 900.289L445.319 901.228Z"/></svg>