<?xml version="1.0" encoding="utf-8" ?><svg xmlns="http://www.w3.org/2000/svg" xmlns:xlink="http://www.w3.org/1999/xlink" width="1024" height="1024" viewBox="0 0 1024 1024"><path fill="#080717" d="M278.827 166.666C280.052 164.609 286.452 158.665 288.5 156.66C299.895 145.458 311.561 134.535 323.487 123.901C336.641 112.218 350.547 101.411 365.116 91.5473C378.532 82.297 395.553 71.4172 410.047 64.0044C464.829 35.9718 525.967 22.6912 587.442 25.4704C600.191 26.1742 613.281 27.0059 625.887 28.9714C704.762 41.2691 787.449 80.5002 840.955 140.235C846.534 146.08 850.98 151.121 855.942 157.588C857.874 160.106 861.936 162.364 863.857 165.338L863.625 166.072C856.792 167.826 834.754 167.261 826.522 167.261L767.575 167.254C757.949 167.252 746.509 166.951 736.997 167.307C771.108 166.515 806.512 167.824 840.716 167.262C852.579 167.066 864.779 167.541 876.629 167.123C890.465 167.28 904.302 167.295 918.138 167.166C935.208 167.07 949.897 164.236 962.978 177.689C967.108 181.917 970.058 187.153 971.536 192.875C972.686 197.401 972.568 201.251 972.709 205.864C973.302 225.273 972.55 244.84 973.091 264.228C973.041 268.466 972.898 273.033 973.083 277.241C972.732 344.282 972.747 411.324 973.128 478.365C973.009 486.658 973.006 494.953 973.117 503.246C972.683 515.134 972.881 528.087 972.802 540.057L972.607 622.342C972.589 633.141 972.339 644.165 972.661 654.949C972.998 666.282 970.837 675.909 962.857 684.446C957.819 688.148 951.6 692.998 945.176 693.389C930.672 694.272 914.147 692.73 899.613 691.846C872.459 690.298 845.313 688.593 818.179 686.732L752.318 682.985C742.548 682.348 732.233 681.829 722.524 680.645C714.881 679.714 707.74 675.489 703.164 669.207C700.579 665.583 698.876 661.406 698.191 657.008C697.017 649.698 697.678 630.174 697.586 622.055C697.298 596.616 697.987 570.714 697.343 545.281C688.382 540.486 679.899 535.922 671.716 529.821C637.215 504.104 615.235 461.743 614.418 418.564C586.213 418.351 558.008 418.327 529.803 418.494C526.849 427.501 522.83 431.714 513.492 433.921L513.562 590.564C516.917 591.751 518.808 592.363 521.711 594.554C532.804 602.924 531.02 620.648 517.773 625.897C516.37 626.446 514.941 626.927 513.49 627.336L513.494 642.244C563.376 643.93 604.955 663.51 638.861 699.743C670.532 734.077 687.559 779.412 686.321 826.107C684.853 868.83 673.513 897.514 649.603 932.374C647.876 934.194 646.657 935.957 645.177 937.969C622.437 964.956 595.073 984.435 561.155 995.23C517.816 1008.55 470.955 1004.04 430.95 982.705C398.887 965.943 370.986 937.268 354.296 905.176C348.621 894.265 343.31 879.522 339.695 867.828C338.077 868.216 336.782 868.16 335.946 869.535C334.612 871.728 335.37 875.831 335.887 878.184C310.917 874.446 267.8 858.059 244.617 847.146C198.667 825.426 157.012 795.594 121.653 759.084C81.4631 718.348 53.687 678.736 33.6485 624.549C2.06946 539.154 15.1738 435.339 81.242 369.5C87.6965 363.068 98.1807 352.832 106.858 349.749C107.588 339.672 107.03 321 107.024 310.335L107.071 233.108C107.115 222.727 107.095 212.358 107.226 201.979C107.339 193.05 109.832 186.004 115.544 179.12C128.44 163.578 154.337 167.005 172.763 167.02L241.308 167.025C251.728 167.024 268.31 167.529 278.223 166.72L278.827 166.666ZM394.46 729.315C395.572 727.966 395.693 727.293 397.038 726.966C401.318 729.132 405.06 731.016 410.105 733.137C414.927 735.165 423.255 738.318 428.415 740.362C428.529 740.67 428.642 740.978 428.756 741.285L428.151 743.204C416.856 770.073 413.319 789.093 409.568 817.453L377.194 817.446C373.802 817.448 364.199 817.286 361.441 817.767L361.713 812.366C363.03 806.28 363.426 798.775 364.794 792.271C369.769 769.303 379.915 747.772 394.46 729.315ZM436.045 922.5C440.84 930.688 445.679 938.351 451.873 945.598C452.447 946.272 453.833 947.984 454.393 948.533C460.069 955.248 464.177 959.502 470.896 965.29C471.586 966.015 472.204 966.68 472.937 967.367L476.553 970.353L473.932 970.271L463.513 967.319C438.605 957.223 426.178 948.212 406.255 930.295L403.588 928.106C413.769 923.084 422.131 919.479 432.94 916.105L436.045 922.5ZM337.906 844.183C338.096 845.713 338.306 847.24 338.536 848.765C339.251 853.503 340.163 858.209 341.267 862.872C341.425 863.541 341.588 864.208 341.754 864.875C356.376 923.501 400.398 970.326 458.012 988.533C461.255 989.558 464.528 990.488 467.825 991.321C468.039 991.375 468.254 991.429 468.468 991.482C469.598 991.763 470.73 992.032 471.865 992.29C477.139 993.488 482.466 994.44 487.828 995.142C491.925 995.678 496.04 996.068 500.165 996.311C509.858 996.882 519.582 996.64 529.234 995.587C534.697 994.991 540.128 994.136 545.509 993.025C637.74 973.992 698.031 884.963 681.471 792.256C664.912 699.55 577.527 636.899 484.411 650.972C391.295 665.046 326.329 750.723 337.906 844.183ZM313.247 288.545C242.521 292.898 188.691 353.722 192.967 424.453C197.243 495.184 258.008 549.08 328.743 544.881C399.588 540.676 453.586 479.797 449.303 408.957C445.021 338.117 384.082 284.185 313.247 288.545ZM643.048 350.039C643.861 348.655 644.699 347.285 645.563 345.932C648.142 341.889 650.943 337.992 653.952 334.259C656.416 331.203 659.017 328.26 661.747 325.439C662.195 324.976 662.646 324.517 663.101 324.061C664.247 322.912 665.414 321.785 666.601 320.679C666.856 314.871 684.546 305.36 689.609 301.313C688.7 301.093 688.77 301.192 687.952 300.603L687.746 300.807L691.649 297.985C688.693 299.198 685.09 300.959 682 300.781C673.637 305.217 658.515 319.368 652.345 326.815C628.477 354.36 616.469 388.695 619.203 425.186C622.083 462.463 639.619 497.078 667.97 521.452C725.834 570.75 811.057 559.166 859.153 502.282C869.632 489.889 883.184 467.878 886.321 452.093C890.606 438.986 891.822 423.493 891.446 409.804C892.032 402.206 888.257 382.812 885.449 375.184C883.297 366.724 871.374 341.521 864.989 335.383C863.429 334.727 862.46 333.684 861.185 332.556C860.806 332.008 857.354 328.559 856.672 327.858C855.132 326.013 851.76 321.53 849.397 321.232C849.577 324.024 853.739 327.661 855.658 329.931C856.845 331.172 858.55 332.816 859.452 334.214C871.434 350.397 878.114 363.287 883.625 382.766C883.675 388.302 885.609 388.828 883.489 394.606C884.849 402.809 885.419 411.124 885.192 419.436C883.706 473.768 848.587 521.445 797.139 538.976C745.691 556.507 688.768 540.193 654.416 498.072C620.064 455.952 615.53 396.911 643.048 350.039ZM267.048 678.013L268.496 677.406L268.134 676.874C265.335 676.353 259.667 676.387 256.767 676.701L253.931 677.286L254.142 677.68C257.533 678.295 263.51 678.195 267.048 678.013ZM507.076 976.615C504.995 975.927 502.697 975.008 500.621 974.234C492.751 970.477 485.23 966.028 478.147 960.94C473.999 957.52 471.031 954.773 467.238 951.004C464.866 948.647 460.48 943.904 457.907 942.191C457.876 941.377 447.349 926.331 445.888 924.048L441.731 916.798C440.983 915.481 440.887 915.504 440.684 914.035C442.595 912.608 447.935 911.576 450.468 910.907C464.524 907.194 478.531 904.974 493.042 904.093C497.172 903.842 502.442 903.183 506.495 903.622C507.399 904.652 507.037 905.115 507.032 906.943C506.894 921.7 506.86 936.459 506.928 951.217C506.932 958.132 506.584 969.957 507.076 976.615ZM209.044 198.627C211.911 199.965 214.881 204.399 217.881 205.527C221.85 207.02 233.691 213.081 237.296 213.495C247.57 214.676 263.148 214.73 273.572 213.607C275.995 213.347 282.37 211.061 284.73 210.234C286.302 207.327 290.884 201.762 294.365 201.816C292.143 203.586 287.323 206.874 286.733 209.257C287.848 209.178 292.478 206.003 293.847 205.238C297.973 202.742 299.662 196.348 303.697 193.568C306.667 191.522 316.512 191.429 319.939 192.221C318.12 192.304 317.43 192.498 315.698 192.899C326.852 193.344 338.512 192.225 349.658 193.172C352.428 193.408 355.771 195.993 356.02 198.924C356.748 207.508 356.473 216.427 356.475 225.083L356.365 279.725C364.449 281.896 370.613 283.702 378.406 286.754C378.258 257.375 377.95 227.976 378.08 198.582C378.861 181.899 368.653 170.384 351.38 170.912C323.124 171.776 294.124 170.069 265.817 171.16C245.7 170.37 223.063 170.712 202.643 170.585L176.133 170.53C160.642 170.558 142.191 169.181 137.126 188.394L136.765 190.325C136.504 193.457 136.337 195.072 136.56 198.216L136.66 198.701C138.047 205.8 137.918 215.823 138.905 221.084C139.147 215.302 138.996 210.311 139 204.578C143.004 205.669 144.815 205.865 149.065 205.755L149.614 206.154C157.127 211.722 152.176 218.703 153.831 220.621L153.658 220.126C154.356 218.823 155.271 204.054 156.285 200.027C156.878 213.318 155.772 233.689 156.877 245.754C157.211 237.335 155.875 201.585 157.93 196.511L158.867 195.18L159.138 194.601C163.574 192.277 168.244 193.116 173.558 192.839L175.286 193.07L180.814 192.943C189.256 192.996 197.495 192.914 205.918 193.602C206.799 195.31 207.659 197.369 209.044 198.627ZM111.46 275.867C111.152 281.944 111.15 288.032 111.456 294.109C111.456 309.606 111.077 327.212 111.611 342.568C112.311 343.995 112.631 345.052 113.919 345.948C116.178 345.167 116.236 341.67 117.898 341.551C120.347 341.376 122.705 341.439 125.309 340.972C128.815 342.555 127.055 344.745 129.526 345.5C130.997 344.634 131.145 344.209 132.069 342.807C132.44 339.329 132.398 335.657 132.426 332.151C132.551 316.507 132.53 300.894 132.019 285.26C131.835 279.645 132.319 273.526 132.352 267.833L132.347 224.777C132.3 213.848 131.924 202.547 132.456 191.633C132.876 183.018 138.641 175.429 145.865 170.872C135.623 171.311 127.041 172.404 119.458 180.281C115.683 184.261 113.048 189.182 111.829 194.53C110.544 200.286 111.048 216.765 111.081 223.323L111.46 275.867ZM956.401 271.692C956.757 262.096 956.672 249.264 956.353 239.691C956.351 237.874 956.083 235.785 957.084 234.406C958.598 233.792 959.565 234.337 961.176 234.836C962.069 240.163 961.388 255.562 961.634 261.95C961.488 266.283 963.04 283.113 958.174 283.043C955.825 281.134 956.484 274.773 956.401 271.692ZM948.891 318.861C948.427 325.801 948.209 345.467 949.131 351.872C950.933 353.792 950.322 354.776 952.306 356.841C954.56 356.797 954.897 355.171 955.885 353.274C956.802 343.197 956.334 323.641 955.879 313.11C956.822 311.67 956.858 311.311 958.399 310.558C961.702 311.308 961.179 316.454 961.109 319.146C961.501 319.527 961.26 319.418 961.852 319.426C962.377 317.912 962.845 316.767 963.48 315.293C962.888 321.037 962.222 346.78 963.784 351.318L964.313 351.253C964.123 350.105 963.896 348.756 964.676 347.841L965.317 350.227L965.499 350.133C966.029 349.119 966.242 348.257 966.486 347.146C967.625 341.95 968.129 316.232 965.716 312.469L968.534 311.855C968.744 297.772 968.976 282.317 968.456 268.27C968.747 253.989 969.942 201.139 966.88 191.341L966.181 189.336C964.95 187.099 964.562 186.326 962.976 184.381L961.439 182.368C955.713 175.812 950.069 172.485 941.017 171.14C940.369 171.043 939.805 171.278 939.242 171.546C939.007 172.813 939.116 173.338 940.031 174.597C944.22 180.362 945.921 181.614 948.156 188.587L948.461 189.879L948.648 221.205C948.662 225.879 948.45 235.072 948.98 239.285C948.292 248.801 948.505 261.753 948.686 271.388C948.525 281.46 948.484 291.533 948.562 301.606C948.57 305.894 948.377 314.805 948.891 318.861ZM366.787 861.385L365.883 857.473C364.74 851.752 363.569 846.037 362.369 840.328C362.179 838.351 362.062 836.636 361.62 834.682L361.288 829.018C361.19 826.674 360.773 826.722 361.876 825.369C367.014 825.093 406.098 824.916 409.218 825.763C409.644 827.641 409.595 827.705 409.534 829.542C409.881 858.091 417.574 883.206 428.72 909.038C419.022 912.843 410.751 915.804 401.316 920.405C400.114 920.798 399.174 921.241 397.932 921.119C395.477 918.89 393.105 915.004 391.073 912.18C379.361 895.895 372.101 880.804 366.787 861.385ZM127.934 686.332C133.278 689.752 138.26 690.008 144.393 690.625C142.438 689.02 140.721 687.501 138.853 685.814L137.99 684.464C132.535 684.012 132.717 675.161 129.444 671.327C127.109 673.569 128.707 676.161 125.981 679.32C122.527 679.505 125.606 678.398 122.495 678.079L122.216 678.969C122.597 680.511 122.477 680.513 123.573 681.615C125.857 683.36 126.829 683.726 127.934 686.332ZM117.922 297.223C120.545 296.201 120.447 296.158 122.473 298.147C122.374 309.25 122.375 320.346 122.339 331.449C122.331 334.098 122.609 339.113 120.683 340.847C118.78 341.091 119.632 341.269 118.017 340.409C116.885 338.519 117.121 300.979 117.922 297.223ZM834.643 305.658C831.044 302.056 818.235 295.184 813.397 293.085L813.357 293.574C808.918 293.24 803.333 289.36 799.928 290.3C800.171 292.588 802.508 292.241 804.087 292.828C808.513 294.472 814.184 297.237 817.929 299.989C822.349 302.085 826.081 303.99 830.183 306.69C831.753 307.723 836.7 311.727 838.027 311.774L838.556 311.051C837.029 308.53 835.104 307.738 834.643 305.658ZM902.066 171.567L901.368 171.638C896.092 172.149 878.352 171.122 874.8 173.299C876.874 173.7 882.349 173.711 884.734 173.769C881.681 174.837 878.977 174.336 875.673 174.677C888.927 177.005 908.158 175.314 921.964 175.971C924.938 176.112 928.027 174.624 930.653 173.413C924.403 170.375 909.356 171.198 902.066 171.567Z"/><path fill="#F8F7FE" d="M278.827 166.666C280.052 164.609 286.452 158.665 288.5 156.66C299.895 145.458 311.561 134.535 323.487 123.901C336.641 112.218 350.547 101.411 365.116 91.5473C378.532 82.297 395.553 71.4172 410.047 64.0044C464.829 35.9718 525.967 22.6912 587.442 25.4704C600.191 26.1742 613.281 27.0059 625.887 28.9714C704.762 41.2691 787.449 80.5002 840.955 140.235C846.534 146.08 850.98 151.121 855.942 157.588C857.874 160.106 861.936 162.364 863.857 165.338L863.625 166.072C856.792 167.826 834.754 167.261 826.522 167.261L767.575 167.254C757.949 167.252 746.509 166.951 736.997 167.307C726.484 168.252 718.559 165.275 708.76 172.443C697.393 180.758 697.072 191.59 697.461 204.481C697.627 209.98 697.488 215.994 697.504 221.493L697.571 287.553C655.716 305.172 622.708 348.747 616.062 393.385C615.01 400.448 614.538 407.016 614.169 414.12C586.038 413.863 557.905 413.82 529.773 413.99C529.281 410.128 528.737 407.685 526.429 404.44C523.44 400.24 518.835 397.475 513.722 396.81C503.054 395.469 494.059 403.187 493.338 413.89L461.534 413.929C461.59 403.589 458.942 385.561 455.736 375.334C442.606 333.456 419.248 309.616 382.402 289.056C382.585 267.027 382.618 244.996 382.501 222.966C382.485 213.567 382.591 204.142 382.38 194.757C382.213 187.34 379.904 181.991 375.296 176.368C365.822 164.807 352.188 166.833 338.889 166.814L300.434 166.842C294.206 166.85 285.425 167.109 279.372 166.706L278.827 166.666Z"/><path fill="#F8F7FE" d="M106.858 349.749C107.456 362.12 107.205 376.017 107.194 388.494L106.99 449.527L107.035 582.646L107.074 636.425C107.119 653.729 104.287 673.078 118.7 685.505C128.221 693.715 137.179 695.407 149.498 694.306C159.156 693.625 168.649 692.705 178.228 691.931L226.5 688.183L293.754 683.141L335.423 679.794C349.743 678.678 363.19 679.886 373.193 667.601C378.798 660.718 381.296 654.931 381.468 645.786C381.65 636.116 381.542 626.407 381.531 616.719L381.474 544.986C414.771 529.76 440.456 501.663 452.639 467.137C458.687 450.467 460.935 436.02 461.411 418.525C472.143 418.39 482.875 418.359 493.607 418.432C496.446 427.989 499.81 430.625 509.025 433.788L508.967 590.869C498.169 593.728 490.699 602.093 493.845 613.695C495.203 618.64 498.503 622.826 502.994 625.302C504.995 626.388 506.929 626.867 509.102 627.434L509.233 642.298C462.287 643.22 417.671 662.926 385.371 697.006C344.132 740.19 325.332 799.319 337.685 857.966C338.341 861.08 339.221 864.719 339.695 867.828C338.077 868.216 336.782 868.16 335.946 869.535C334.612 871.728 335.37 875.831 335.887 878.184C310.917 874.446 267.8 858.059 244.617 847.146C198.667 825.426 157.012 795.594 121.653 759.084C81.4631 718.348 53.687 678.736 33.6485 624.549C2.06946 539.154 15.1738 435.339 81.242 369.5C87.6965 363.068 98.1807 352.832 106.858 349.749Z"/><defs><linearGradient id="gradient_0" gradientUnits="userSpaceOnUse" x1="441.71762" y1="969.63275" x2="583.31903" y2="664.27094"><stop offset="0" stop-color="#FFFFFE" stop-opacity="0.87843138"/><stop offset="1" stop-color="white"/></linearGradient></defs><path fill="url(#gradient_0)" d="M337.906 844.183C326.329 750.723 391.295 665.046 484.411 650.972C577.527 636.899 664.912 699.55 681.471 792.256C698.031 884.963 637.74 973.992 545.509 993.025L544.978 992.905C539.352 991.591 533.462 987.226 528.119 992.964L527.922 993.756L529.47 994.436C529.364 995.447 529.534 995.094 529.234 995.587C519.582 996.64 509.858 996.882 500.165 996.311C498.938 995.725 498.873 995.339 497.571 995.27C498.872 995.537 498.923 995.374 500.225 994.948C499.455 994.645 498.808 994.4 498.019 994.136L497.345 993.914L497.691 993.414L497.496 994.276L497.337 994.079C498.194 993.541 498.947 993.251 499.901 992.921L499.884 992.154C498.828 991.22 498.53 991.063 497.769 989.857L498.001 988.962C499.748 987.509 501.132 987.243 503.319 987.424L503.869 989.188L504.58 989.404C505.838 988.541 507.528 987.589 508.327 986.42C507.374 985.402 506.404 984.411 505.597 983.274L505.143 982.623C505.911 981.634 505.853 981.717 506.906 981.126C507.863 979.203 507.42 979.224 507.076 976.615C506.584 969.957 506.932 958.132 506.928 951.217C506.86 936.459 506.894 921.7 507.032 906.943C507.037 905.115 507.399 904.652 506.495 903.622C502.442 903.183 497.172 903.842 493.042 904.093C478.531 904.974 464.524 907.194 450.468 910.907C447.935 911.576 442.595 912.608 440.684 914.035C440.887 915.504 440.983 915.481 441.731 916.798L445.888 924.048C440.056 922.653 441.197 917.829 437.715 919.88C436.946 921.334 437.015 920.609 437.37 922.109C440.28 923.597 441.995 928.297 443.626 931.153C445.361 934.192 451.925 942.473 451.873 945.598C445.679 938.351 440.84 930.688 436.045 922.5L432.94 916.105C422.131 919.479 413.769 923.084 403.588 928.106C401.726 924.395 403.02 923.82 401.316 920.405C410.751 915.804 419.022 912.843 428.72 909.038C417.574 883.206 409.881 858.091 409.534 829.542C409.595 827.705 409.644 827.641 409.218 825.763C406.098 824.916 367.014 825.093 361.876 825.369C360.773 826.722 361.19 826.674 361.288 829.018L361.62 834.682L360.947 835.209C357.569 822.547 362.265 826.082 363.408 820.628L361.95 818.838C363.487 817.921 363.742 818.07 365.521 818.026L365.963 818.439L366.91 818.329L365.411 817.836L365.062 818.174L361.441 817.767C364.199 817.286 373.802 817.448 377.194 817.446L409.568 817.453C413.319 789.093 416.856 770.073 428.151 743.204L428.756 741.285C428.642 740.978 428.529 740.67 428.415 740.362C423.255 738.318 414.927 735.165 410.105 733.137C405.06 731.016 401.318 729.132 397.038 726.966C395.693 727.293 395.572 727.966 394.46 729.315C379.915 747.772 369.769 769.303 364.794 792.271C363.426 798.775 363.03 806.28 361.713 812.366L361.313 811.904C361.161 813.177 361.164 814.812 360.537 815.754C360.041 814.315 359.784 813.665 359.634 812.15L359.185 816.082L358.713 816.409C357.808 815.484 357.907 815.322 356.715 814.88C354.711 819.125 359.553 823.465 356.664 829.364L357.5 829.753C353.433 831.051 353.563 835.335 348.874 835.697C344.406 833.647 345.993 828.334 343.233 825.938L342.623 826.269C341.891 821.682 340.962 817.356 340.035 812.809C339.642 818.65 339.635 840.742 337.906 844.183Z"/><path fill="#8169ab" d="M417.275 829.513C417.096 827.955 416.829 827.132 417.509 825.731C419.502 825.374 426.474 825.471 428.965 825.457L451.882 825.379L487.634 825.405C492.579 825.415 501.81 825.19 506.385 825.656C507.27 827.028 506.947 827.488 506.996 829.42C506.446 851.226 507.004 873.617 506.933 895.461C482.939 896.123 458.731 898.763 436.03 907.013C424.784 879.373 419.134 859.359 417.275 829.513Z"/><path fill="#080717" d="M417.275 829.513C417.096 827.955 416.829 827.132 417.509 825.731C419.502 825.374 426.474 825.471 428.965 825.457L451.882 825.379L487.634 825.405C492.579 825.415 501.81 825.19 506.385 825.656C507.27 827.028 506.947 827.488 506.996 829.42C477.372 829.351 446.774 829.961 417.275 829.513Z"/><path fill="#8169ab" d="M513.879 829.509C514.002 827.464 513.672 827.021 514.662 825.645C527.512 824.837 546.741 825.428 560 825.411C571.73 825.397 591.068 824.862 602.287 825.65C603.266 826.97 602.998 827.773 603.015 829.718C601.089 857.786 596.169 880.899 584.272 906.455C560.513 898.639 538.419 895.755 513.534 895.47C513.436 873.483 513.55 851.495 513.879 829.509Z"/><path fill="#080717" d="M513.879 829.509C514.002 827.464 513.672 827.021 514.662 825.645C527.512 824.837 546.741 825.428 560 825.411C571.73 825.397 591.068 824.862 602.287 825.65C603.266 826.97 602.998 827.773 603.015 829.718L513.879 829.509Z"/><path fill="#8169ab" d="M513.446 757.546C513.436 755.855 513.398 755.847 513.838 754.235C515.704 753.657 524.501 753.304 526.949 753.131C531.991 752.759 537.02 752.213 542.025 751.496C552.163 750.048 562.208 748.009 572.109 745.39C574.693 744.706 582.791 742.18 584.713 742.54L585.548 744.627C595.235 768.479 602.012 791.494 603.17 817.432L513.555 817.411C513.53 798.484 514.011 776.235 513.446 757.546Z"/><path fill="#080717" d="M513.446 757.546C513.436 755.855 513.398 755.847 513.838 754.235C515.704 753.657 524.501 753.304 526.949 753.131C531.991 752.759 537.02 752.213 542.025 751.496C552.163 750.048 562.208 748.009 572.109 745.39C574.693 744.706 582.791 742.18 584.713 742.54L585.548 744.627C567.597 751.501 533.226 757.561 513.446 757.546Z"/><path fill="#8169ab" d="M435.479 744.339L436.893 742.846C454.182 745.02 473.406 753.7 491.976 753.204C494.107 753.147 505.891 753.529 506.826 754.491L507.035 757.398C506.616 760.712 506.884 772.8 506.885 776.918L506.906 817.493L417.398 817.486C418.9 808.922 419.56 799.576 421.205 790.403C424.445 772.337 429.523 760.971 435.479 744.339Z"/><path fill="#080717" d="M435.479 744.339L436.893 742.846C454.182 745.02 473.406 753.7 491.976 753.204C494.107 753.147 505.891 753.529 506.826 754.491L507.035 757.398C490.3 757.051 449.698 752.392 435.479 744.339Z"/><path fill="#8169ab" d="M610.428 829.502C610.474 827.677 610.222 827.063 611.056 825.639C620.059 825.217 630.311 825.545 639.412 825.518C644.398 825.504 654.21 825.316 658.834 825.777C659.821 827.316 659.48 827.469 659.57 829.621C654.507 870.024 648.538 889.586 622.845 921.975C612.248 917.942 602.583 912.577 591.826 909.002C604.032 880.513 608.507 860.078 610.428 829.502Z"/><path fill="#080717" d="M610.428 829.502C610.474 827.677 610.222 827.063 611.056 825.639C620.059 825.217 630.311 825.545 639.412 825.518C644.398 825.504 654.21 825.316 658.834 825.777C659.821 827.316 659.48 827.469 659.57 829.621C643.189 829.665 626.808 829.625 610.428 829.502Z"/><path fill="#8169ab" d="M592.939 742.5L592.277 740.252C593.562 737.829 609.651 733.21 613.389 731.153C616.025 729.702 621.292 726.304 623.681 725.178L625.353 726.4C629.073 731.243 634.269 738.033 637.445 743.124C650.421 763.926 658.827 792.708 659.602 817.322L610.046 817.441C608.595 794.559 605.172 776.135 597.5 754.31C596.776 752.252 593.854 744.012 592.939 742.5Z"/><path fill="#080717" d="M592.939 742.5L592.277 740.252C593.562 737.829 609.651 733.21 613.389 731.153C616.025 729.702 621.292 726.304 623.681 725.178L625.353 726.4C615.721 735.284 604.034 737.52 592.939 742.5Z"/><path fill="#8169ab" d="M513.218 672.377L513.768 670.559L514.713 670.22C538.811 682.129 553.382 693.881 569.22 716.004C571.476 719.219 580.162 731.884 580.529 735.077C556.577 742.53 538.735 744.835 513.502 745.8L513.486 696.592C513.487 690.974 513.845 677.237 513.218 672.377Z"/><path fill="#080717" d="M513.218 672.377L513.768 670.559L514.713 670.22C538.811 682.129 553.382 693.881 569.22 716.004L567.937 715.978C565.678 712.503 562.312 708.79 559.598 705.584C545.994 689.517 531.924 680.973 513.218 672.377Z"/><path fill="#1D1852" d="M569.22 716.004C571.476 719.219 580.162 731.884 580.529 735.077C577.94 732.485 570.683 720.032 567.937 715.978L569.22 716.004Z"/><path fill="#8169ab" d="M443.688 728.913C451.63 712.242 468.887 693.857 483.615 682.872C486.581 680.66 503.795 670.065 506.74 670.241L507.354 671.551C506.624 675.77 506.94 690.167 506.943 695.32L506.951 745.64C486.004 745.384 460.156 742.228 440.223 735.278C440.821 734.005 442.735 729.561 443.688 728.913Z"/><path fill="#080717" d="M443.688 728.913C451.63 712.242 468.887 693.857 483.615 682.872C486.581 680.66 503.795 670.065 506.74 670.241L507.354 671.551C501.615 674.931 495.504 677.774 489.876 681.144C472.794 691.375 458.75 706.511 447.929 723.104C446.919 724.652 444.958 727.844 443.688 728.913Z"/><path fill="#8169ab" d="M513.469 907.064C513.543 905.227 513.216 904.684 514.134 903.548C529.867 901.551 554.72 907.259 570.326 910.715C572.366 911.167 579.368 913.043 580.733 914.499C580.45 915.551 580.46 915.602 580.021 916.602C561.21 946.913 547.096 961.647 513.843 976.7L513.469 907.064Z"/><path fill="#080717" d="M513.469 907.064C513.543 905.227 513.216 904.684 514.134 903.548C529.867 901.551 554.72 907.259 570.326 910.715C572.366 911.167 579.368 913.043 580.733 914.499C580.45 915.551 580.46 915.602 580.021 916.602C555.494 910.264 539.057 907.813 513.469 907.064Z"/><path fill="#8169ab" d="M536.331 673.012C542.678 673.943 548.299 675.993 554.343 677.849C579.5 685.572 601.549 700.429 619.367 719.838L610.877 723.287C603.586 726.309 594.936 729.109 588.051 732.704C578.834 710.47 556.424 686.087 536.331 673.012Z"/><path fill="#8169ab" d="M479.707 674.046L480.06 674.15C480.072 674.115 463.52 688.772 461.917 690.428C449.472 703.291 440.605 717.453 432.313 733.157C425.673 731.071 418.768 728.018 412.375 725.25C408.803 723.656 405.153 721.876 401.602 720.206C428.539 692.687 444.055 685.704 479.707 674.046Z"/><path fill="#8169ab" d="M543.411 965.114C549.509 961.668 557.623 955.082 562.779 950.128C563.485 949.45 565.679 944.487 567.509 942.352L567.814 942.636C567.252 944.464 564.653 948.528 564.84 949.305C570.872 945.037 583.297 922.347 587.846 915.984C591.736 915.775 615.252 925.854 617.358 928.532C617.787 930.334 617.908 929.522 617.147 931.071C615.307 931.98 616.232 931.872 614.29 931.505L614.058 931.559C598.646 945.984 580.821 958.763 560.937 966.004C556.921 967.467 550.763 969.713 546.51 969.816C544.791 970.611 544.441 970.889 542.506 970.941L541.994 970.08C541.767 968.177 542.605 966.91 543.411 965.114Z"/><path fill="#F8F7FE" d="M543.411 965.114C549.509 961.668 557.623 955.082 562.779 950.128C563.485 949.45 565.679 944.487 567.509 942.352L567.814 942.636C567.252 944.464 564.653 948.528 564.84 949.305C570.872 945.037 583.297 922.347 587.846 915.984C591.736 915.775 615.252 925.854 617.358 928.532C617.787 930.334 617.908 929.522 617.147 931.071C615.307 931.98 616.232 931.872 614.29 931.505L614.058 931.559C609.053 928.95 590.69 919.413 586.093 920.234L585.801 921.013C585.706 928.465 565.111 952.612 559.601 957.983C555.36 962.061 550.994 966.007 546.51 969.816C544.791 970.611 544.441 970.889 542.506 970.941L541.994 970.08C541.767 968.177 542.605 966.91 543.411 965.114Z"/><path fill="#080717" d="M586.093 920.234C586.777 918.896 587.308 917.313 588.546 916.692C593.749 917.938 612.413 925.594 616.238 928.754C615.874 930.311 615.587 930.167 614.29 931.505L614.058 931.559C609.053 928.95 590.69 919.413 586.093 920.234Z"/><path fill="#080717" d="M585.801 921.013C585.706 928.465 565.111 952.612 559.601 957.983C555.36 962.061 550.994 966.007 546.51 969.816C544.791 970.611 544.441 970.889 542.506 970.941C560.996 958.316 574.666 940.1 585.801 921.013Z"/><path fill="#8169ab" d="M311.341 280.473C386.904 275.032 452.487 332.067 457.582 407.654C462.677 483.242 405.342 548.563 329.733 553.312C254.611 558.03 189.803 501.145 184.74 426.046C179.678 350.946 236.266 285.879 311.341 280.473ZM328.743 544.881C399.588 540.676 453.586 479.797 449.303 408.957C445.021 338.117 384.082 284.185 313.247 288.545C242.521 292.898 188.691 353.722 192.967 424.453C197.243 495.184 258.008 549.08 328.743 544.881Z"/><path fill="#080717" d="M313.247 288.545C384.082 284.185 445.021 338.117 449.303 408.957C453.586 479.797 399.588 540.676 328.743 544.881C258.008 549.08 197.243 495.184 192.967 424.453C188.691 353.722 242.521 292.898 313.247 288.545ZM376.771 467.3C378.978 466.225 381.547 462.672 382.418 460.483C382.033 459.407 382.336 459.776 381.708 459.237C380.539 460.748 376.321 465.549 376.243 466.828L376.771 467.3ZM323.063 341.627C323.306 341.245 323.521 340.846 323.707 340.433C325.79 335.798 323.831 330.346 319.275 328.098C314.719 325.849 309.2 327.61 306.789 332.083C304.377 336.555 305.939 342.134 310.322 344.704C314.705 347.275 320.336 345.915 323.063 341.627ZM295.044 358.174C298.367 354.147 301.789 351.247 305.653 347.783L305.413 346.54C303.994 344.706 303.856 344.293 301.814 345.092C299.578 349.266 289.701 355.759 289.994 359.716C291.973 360.079 292.922 358.307 295.044 358.174ZM383.243 462.376C384.65 460.415 385.561 459.118 386.736 457.019C386.587 452.678 388.498 450.47 390.573 446.519C386.529 449.564 385.397 453.804 381.721 455.917L380.746 456.724C381.462 457.495 381.798 457.804 382.718 458.314C383.582 459.741 383.334 460.689 383.243 462.376ZM242.951 394.846C244.183 394.675 245.206 394.453 246.412 394.193C248.434 391.823 248.748 392.305 251.48 391.166C248.129 389.804 246.123 390.849 243.432 392.908L242.951 394.846ZM232.557 404.053C229.321 405.693 226.78 407.374 225.613 411.071C224.897 413.294 225.158 415.716 226.33 417.735C228.462 421.423 232.567 422.721 236.578 423.125C249.799 417.766 245.739 403.602 232.557 404.053ZM234.224 430.926L236.746 431.629L237.508 430.753C237.565 428.348 237.486 427.165 238.324 424.882C237.248 423.832 237.332 423.767 235.928 423.326C232.615 424.626 233.356 428.168 234.224 430.926ZM248.422 457.031C249.235 461.059 256.363 470.044 260.641 471.303C258.738 468.43 251.282 457.951 248.422 457.031ZM347.715 376.601L348.388 378.738C350.096 379.269 349.341 379.392 350.756 378.786C351.866 375.559 344.182 358.559 340.301 357.259L339.826 357.943C342.51 362.916 346.505 367.867 348.57 373.334C349.148 374.866 348.511 375.289 347.715 376.601Z"/><path fill="#FEFEFF" d="M387.915 388.463C377.525 366.037 365.173 352.736 341.579 344.147C338.061 342.866 328.576 341.331 328.386 337.501C329.344 336.642 330.095 336.302 331.48 336.492C364.972 341.085 393.212 370.61 395.869 403.808C405.535 407.45 408.531 416.277 399.163 422.15L397.626 423.122C396.456 433.097 393.185 449.022 386.736 457.019C386.587 452.678 388.498 450.47 390.573 446.519C386.529 449.564 385.397 453.804 381.721 455.917C384.636 450.725 386.676 446.968 388.577 441.336C378.012 441.578 366.731 442.441 355.996 442.819C353.036 457.656 345.971 479.971 331.084 487.199C329.93 487.76 329.095 487.441 328.05 486.994C327.81 486.551 327.57 486.108 327.329 485.666C329.018 482.224 336.25 477.576 338.384 474.241C344.609 464.512 348.001 453.814 350.888 443.007C328.845 443.258 306.8 443.28 284.757 443.072C287.441 453.916 290.862 465.49 297.171 475.043C299.096 477.957 303.279 481.551 305.753 485.322C305.659 486.835 305.956 486.214 304.808 487.233C303.418 487.399 302.559 487.54 301.192 486.592C288.487 477.778 282.748 456.543 279.212 442.944C265.776 442.451 255.735 441.788 242.532 439.436C242.816 440.264 243.116 441.086 243.432 441.901C250.226 459.37 265.237 475.431 281.96 483.566C287.938 486.474 293.686 488.597 299.797 491.113C301.791 491.934 302.719 492.579 303.435 494.481C302.846 495.761 303.331 495.337 302.099 495.927C294.426 495.492 280.903 489.236 274.359 485.27C254.223 473.283 239.758 453.697 234.224 430.926L236.746 431.629L237.508 430.753C237.565 428.348 237.486 427.165 238.324 424.882C239.442 427.509 240.295 431.85 240.966 434.76C253.871 436.363 265.083 437.605 278.088 438.071C274.863 418.005 275.332 410.626 276.639 390.909C267.886 390.891 255.441 393.008 246.412 394.193C248.434 391.823 248.748 392.305 251.48 391.166C248.129 389.804 246.123 390.849 243.432 392.908L242.951 394.846C240.623 396.84 240.651 400.195 238.746 401.351C236.926 401.11 237.734 401.441 236.262 400.249C235.673 398.808 235.396 398.475 235.856 396.879C242.697 373.099 259.228 352.14 282.057 341.991C286.173 340.161 296.594 335.938 301.018 336.988C302.071 338.413 301.878 337.661 301.863 339.238C300.446 341.756 291.384 343.99 287.827 345.36C266.315 353.645 253.034 369.015 244.014 389.842C256.157 387.11 265.469 386.37 277.749 385.619C278.093 384.137 278.452 382.658 278.827 381.183C282.332 367.458 289.164 352.6 301.814 345.092C299.578 349.266 289.701 355.759 289.994 359.716C291.973 360.079 292.922 358.307 295.044 358.174C288.856 367.244 286.113 374.993 283.046 385.46C305.516 385.058 327.991 384.968 350.463 385.188C349.928 383.497 349.016 380.261 348.388 378.738C350.096 379.269 349.341 379.392 350.756 378.786C351.866 375.559 344.182 358.559 340.301 357.259L339.826 357.943C342.51 362.916 346.505 367.867 348.57 373.334C349.148 374.866 348.511 375.289 347.715 376.601C343.23 365.913 338.966 358.487 329.918 351.266C327.784 349.563 326.414 348.53 326.134 345.75L326.577 344.848C329.45 344.008 336.191 349.349 338.219 351.415C347.004 360.364 352.548 373.503 355.467 385.519C366.919 386.191 376.601 386.861 387.915 388.463ZM260.641 471.303C258.738 468.43 251.282 457.951 248.422 457.031C249.235 461.059 256.363 470.044 260.641 471.303Z"/><path fill="#080717" d="M286.648 390.75C306.371 389.894 331.644 390.158 351.201 390.63C354.727 402.551 353.583 420.54 352.301 433.13C351.944 436.635 351.709 437.612 348.582 437.92C327.42 438.327 304.7 438.594 283.556 437.978C281.077 427.917 279.22 401.056 282.377 391.434C283.898 390.58 284.74 390.822 286.648 390.75Z"/><path fill="#080717" d="M356.695 390.732C368.576 391.096 377.861 392.184 389.6 393.805L391.615 404.057C382.016 409.64 383.933 417.679 392.373 423.15L391.38 431.207C391.174 432.95 391.195 433.335 390.467 434.99C387.929 436.547 361.171 437.583 356.911 437.74C359.735 419.735 359.052 408.417 356.695 390.732Z"/><path fill="#FEFEFE" fill-opacity="0.62352943" d="M248.422 457.031C251.282 457.951 258.738 468.43 260.641 471.303C256.363 470.044 249.235 461.059 248.422 457.031Z"/><path fill="#FEFEFF" d="M380.746 456.724C381.462 457.495 381.798 457.804 382.718 458.314C383.582 459.741 383.334 460.689 383.243 462.376C382.854 462.893 382.456 463.403 382.05 463.906C371.998 476.376 357.75 487.041 342.669 492.614C340.33 493.479 333.112 496.268 331.18 494.571C331.123 493.964 331.081 491.424 331.679 491.187C349.721 484.063 369.481 474.406 380.45 457.198L380.746 456.724ZM376.771 467.3C378.978 466.225 381.547 462.672 382.418 460.483C382.033 459.407 382.336 459.776 381.708 459.237C380.539 460.748 376.321 465.549 376.243 466.828L376.771 467.3Z"/><path fill="#FEFEFE" fill-opacity="0.6901961" d="M381.708 459.237C382.336 459.776 382.033 459.407 382.418 460.483C381.547 462.672 378.978 466.225 376.771 467.3L376.243 466.828C376.321 465.549 380.539 460.748 381.708 459.237Z"/><path fill="#FEFEFF" d="M313.88 486.711C318.959 484.904 324.539 487.576 326.317 492.666C328.095 497.756 325.391 503.32 320.291 505.069C315.232 506.803 309.723 504.126 307.96 499.077C306.196 494.029 308.841 488.504 313.88 486.711Z"/><path fill="#FEFEFE" fill-opacity="0.78431374" d="M232.557 404.053C245.739 403.602 249.799 417.766 236.578 423.125C232.567 422.721 228.462 421.423 226.33 417.735C225.158 415.716 224.897 413.294 225.613 411.071C226.78 407.374 229.321 405.693 232.557 404.053Z"/><path fill="#FEFEFE" fill-opacity="0.65882355" d="M323.063 341.627C320.336 345.915 314.705 347.275 310.322 344.704C305.939 342.134 304.377 336.555 306.789 332.083C309.2 327.61 314.719 325.849 319.275 328.098C323.831 330.346 325.79 335.798 323.707 340.433C323.277 338.592 322.863 336.764 322.369 334.938L321.665 334.586C320.926 337.628 321.172 338.306 319.178 340.445L319.324 341.21C320.048 341.284 322.494 341.483 323.063 341.627Z"/><path fill="#FEFEFE" fill-opacity="0.90588236" d="M301.814 345.092C303.856 344.293 303.994 344.706 305.413 346.54L305.653 347.783C301.789 351.247 298.367 354.147 295.044 358.174C292.922 358.307 291.973 360.079 289.994 359.716C289.701 355.759 299.578 349.266 301.814 345.092Z"/><path fill="#FEFEFE" fill-opacity="0.9137255" d="M347.715 376.601C348.511 375.289 349.148 374.866 348.57 373.334C346.505 367.867 342.51 362.916 339.826 357.943L340.301 357.259C344.182 358.559 351.866 375.559 350.756 378.786C349.341 379.392 350.096 379.269 348.388 378.738L347.715 376.601Z"/><defs><linearGradient id="gradient_1" gradientUnits="userSpaceOnUse" x1="387.70361" y1="448.84689" x2="382.78323" y2="458.37143"><stop offset="0" stop-color="white" stop-opacity="0.92156863"/><stop offset="1" stop-color="white"/></linearGradient></defs><path fill="url(#gradient_1)" d="M381.721 455.917C385.397 453.804 386.529 449.564 390.573 446.519C388.498 450.47 386.587 452.678 386.736 457.019C385.561 459.118 384.65 460.415 383.243 462.376C383.334 460.689 383.582 459.741 382.718 458.314C381.798 457.804 381.462 457.495 380.746 456.724L381.721 455.917Z"/><path fill="#FEFEFE" fill-opacity="0.81568629" d="M234.224 430.926C233.356 428.168 232.615 424.626 235.928 423.326C237.332 423.767 237.248 423.832 238.324 424.882C237.486 427.165 237.565 428.348 237.508 430.753L236.746 431.629L234.224 430.926Z"/><path fill="#FEFEFE" fill-opacity="0.94509804" d="M242.951 394.846L243.432 392.908C246.123 390.849 248.129 389.804 251.48 391.166C248.748 392.305 248.434 391.823 246.412 394.193C245.206 394.453 244.183 394.675 242.951 394.846Z"/><path fill="#FEFEFE" fill-opacity="0.55686277" d="M323.063 341.627C322.494 341.483 320.048 341.284 319.324 341.21L319.178 340.445C321.172 338.306 320.926 337.628 321.665 334.586L322.369 334.938C322.863 336.764 323.277 338.592 323.707 340.433C323.521 340.846 323.306 341.245 323.063 341.627Z"/><path fill="#080717" d="M682 300.781C689.342 296.07 697.176 292.171 705.361 289.155C740.441 275.909 779.373 277.325 813.397 293.085L813.357 293.574C808.918 293.24 803.333 289.36 799.928 290.3C800.171 292.588 802.508 292.241 804.087 292.828C808.513 294.472 814.184 297.237 817.929 299.989C822.349 302.085 826.081 303.99 830.183 306.69C831.753 307.723 836.7 311.727 838.027 311.774L838.556 311.051C837.029 308.53 835.104 307.738 834.643 305.658C844.493 312.613 858.601 325.373 864.989 335.383C863.429 334.727 862.46 333.684 861.185 332.556C860.806 332.008 857.354 328.559 856.672 327.858C855.132 326.013 851.76 321.53 849.397 321.232C849.577 324.024 853.739 327.661 855.658 329.931C856.845 331.172 858.55 332.816 859.452 334.214C871.434 350.397 878.114 363.287 883.625 382.766C883.675 388.302 885.609 388.828 883.489 394.606C884.849 402.809 885.419 411.124 885.192 419.436L885.831 415.904L886.398 415.88L887.639 418.72C887.998 420.625 887.572 419.852 888.853 421.177C889.015 423.252 888.757 423.884 888.287 425.963L887.802 426.512C885.765 430.69 886.443 434.756 885.38 438.551C884.494 440.811 881.943 450.854 882.319 453.166L882.961 453.555C884.549 452.178 885.253 450.309 885.268 448.247C885.74 449.875 885.344 450.778 886.321 452.093C883.184 467.878 869.632 489.889 859.153 502.282C811.057 559.166 725.834 570.75 667.97 521.452C639.619 497.078 622.083 462.463 619.203 425.186C616.469 388.695 628.477 354.36 652.345 326.815L652.979 328.076L651.982 329.875C646.443 336.982 641.968 343.355 637.787 351.404C635.482 353.588 627.422 370.938 628.538 374.004C630.609 374.12 636.129 353.152 643.048 350.039C643.861 348.655 644.699 347.285 645.563 345.932C648.142 341.889 650.943 337.992 653.952 334.259C656.416 331.203 659.017 328.26 661.747 325.439C662.195 324.976 662.646 324.517 663.101 324.061C664.247 322.912 665.414 321.785 666.601 320.679C666.856 314.871 684.546 305.36 689.609 301.313C688.7 301.093 688.77 301.192 687.952 300.603L687.746 300.807L691.649 297.985C688.693 299.198 685.09 300.959 682 300.781ZM885.38 438.551C886.443 434.756 885.765 430.69 887.802 426.512L888.287 425.963C888.757 423.884 889.015 423.252 888.853 421.177C887.572 419.852 887.998 420.625 887.639 418.72L886.398 415.88L885.831 415.904L885.192 419.436C883.706 473.768 848.587 521.445 797.139 538.976C745.691 556.507 688.768 540.193 654.416 498.072C620.064 455.952 615.53 396.911 643.048 350.039C636.129 353.152 630.609 374.12 628.538 374.004C627.422 370.938 635.482 353.588 637.787 351.404C641.968 343.355 646.443 336.982 651.982 329.875L652.979 328.076L652.345 326.815C628.477 354.36 616.469 388.695 619.203 425.186C622.083 462.463 639.619 497.078 667.97 521.452C725.834 570.75 811.057 559.166 859.153 502.282C869.632 489.889 883.184 467.878 886.321 452.093C885.344 450.778 885.74 449.875 885.268 448.247C885.253 450.309 884.549 452.178 882.961 453.555L882.319 453.166C881.943 450.854 884.494 440.811 885.38 438.551Z"/><path fill="#FEFEFF" d="M886.321 452.093C883.184 467.878 869.632 489.889 859.153 502.282C811.057 559.166 725.834 570.75 667.97 521.452C639.619 497.078 622.083 462.463 619.203 425.186C616.469 388.695 628.477 354.36 652.345 326.815L652.979 328.076L651.982 329.875C646.443 336.982 641.968 343.355 637.787 351.404C635.482 353.588 627.422 370.938 628.538 374.004C630.609 374.12 636.129 353.152 643.048 350.039C615.53 396.911 620.064 455.952 654.416 498.072C688.768 540.193 745.691 556.507 797.139 538.976C848.587 521.445 883.706 473.768 885.192 419.436L885.831 415.904L886.398 415.88L887.639 418.72C887.998 420.625 887.572 419.852 888.853 421.177C889.015 423.252 888.757 423.884 888.287 425.963L887.802 426.512C885.765 430.69 886.443 434.756 885.38 438.551C884.494 440.811 881.943 450.854 882.319 453.166L882.961 453.555C884.549 452.178 885.253 450.309 885.268 448.247C885.74 449.875 885.344 450.778 886.321 452.093ZM624.595 383.828L623.69 389.08C622.511 392.249 621.265 399.927 622.785 402.937L622.552 402.317L623.512 401.795C623.839 396.825 629.206 377.591 628.113 375.207L627.439 375.026C625.618 376.7 625.024 381.358 624.595 383.828ZM626.912 451.92C627.39 449.505 624.385 431.209 623.388 428.847C622.43 427.926 622.834 428.158 621.654 427.636C621.163 431.114 624.801 449.527 626.912 451.92Z"/><path fill="#FEFEFE" fill-opacity="0.91764706" d="M624.595 383.828C625.024 381.358 625.618 376.7 627.439 375.026L628.113 375.207C629.206 377.591 623.839 396.825 623.512 401.795L622.552 402.317L622.785 402.937C621.265 399.927 622.511 392.249 623.69 389.08L624.777 389.576L625.463 388.841C625.974 386.675 625.947 386.59 625.535 384.363L624.595 383.828Z"/><path fill="#FEFEFE" fill-opacity="0.89411765" d="M621.654 427.636C622.834 428.158 622.43 427.926 623.388 428.847C624.385 431.209 627.39 449.505 626.912 451.92C624.801 449.527 621.163 431.114 621.654 427.636Z"/><path fill="#FEFEFE" fill-opacity="0.72549021" d="M624.595 383.828L625.535 384.363C625.947 386.59 625.974 386.675 625.463 388.841L624.777 389.576L623.69 389.08L624.595 383.828Z"/><path fill="#FEFEFF" d="M682 300.781C689.342 296.07 697.176 292.171 705.361 289.155C740.441 275.909 779.373 277.325 813.397 293.085L813.357 293.574C808.918 293.24 803.333 289.36 799.928 290.3C800.171 292.588 802.508 292.241 804.087 292.828C808.513 294.472 814.184 297.237 817.929 299.989C822.349 302.085 826.081 303.99 830.183 306.69C831.753 307.723 836.7 311.727 838.027 311.774L838.556 311.051C837.029 308.53 835.104 307.738 834.643 305.658C844.493 312.613 858.601 325.373 864.989 335.383C863.429 334.727 862.46 333.684 861.185 332.556C860.806 332.008 857.354 328.559 856.672 327.858C855.132 326.013 851.76 321.53 849.397 321.232C849.577 324.024 853.739 327.661 855.658 329.931C856.845 331.172 858.55 332.816 859.452 334.214C871.434 350.397 878.114 363.287 883.625 382.766C883.675 388.302 885.609 388.828 883.489 394.606C875.654 347.358 842.483 308.24 797.151 292.788C751.819 277.336 701.662 288.052 666.601 320.679C666.856 314.871 684.546 305.36 689.609 301.313C688.7 301.093 688.77 301.192 687.952 300.603L687.746 300.807L691.649 297.985C688.693 299.198 685.09 300.959 682 300.781Z"/><path fill="#FEFEFF" d="M723.534 341.314C726.698 343.008 741.608 358.17 744.101 361.248C737.581 367.252 729.234 372.689 723.243 378.731C713.522 388.535 722.707 405.644 736.132 406.785C739.039 407.046 741.96 406.469 744.55 405.124C749.52 402.57 763.432 388.462 768.915 383.771C782.31 397.22 794.94 413.001 808.111 426.805C813.468 433.236 820.846 438.958 825.355 445.972C828.561 450.958 822.654 454.538 819.315 456.236C818.602 465.26 816.416 467.818 807.817 467.379C801.112 467.036 801.711 473.679 801.893 478.55C800.047 481.808 799.155 482.656 796.128 484.864C792.717 485.235 788.964 485.393 785.512 485.605C785.49 487.958 785.669 490.511 785.786 492.878C786.111 505.456 773.116 505.903 764.397 500.571C767.382 496.996 769.251 494.517 769.314 490.249C769.467 479.953 761.124 475.036 751.859 474.852C751.685 474.212 751.438 470.916 751.356 470.492C749.816 462.562 743.244 457.109 735.137 456.881L734.456 456.868C732.784 454.173 733.132 450.931 731.766 447.916C729.644 443.237 724.162 441.322 719.768 439.538C718.819 439.713 717.375 440.288 717.243 439.083C716.67 433.828 715.652 429.95 711.292 426.48C708.279 424.094 704.394 423.1 700.605 423.744C694.938 424.692 692.225 428.073 689.27 432.367C679.218 423.497 670.265 413.928 661.1 404.181C672.992 391.236 685.457 379.536 697.883 367.232C706.446 358.753 714.938 349.882 723.534 341.314Z"/><path fill="#FEFEFF" d="M775.89 344.657C781.296 344.561 785.78 345.181 790.081 348.866C805.927 362.443 820.926 377.087 836.363 391.141C841.714 396.012 849.242 402.632 853.035 408.574C845.359 416.947 831.881 430.192 823.55 437.402C816.177 429.613 808.682 421.153 801.42 413.203C798.777 410.307 770.752 379.144 770.257 379.187C758.588 380.203 744.733 411.607 728.737 399.372C725.992 397.233 724.23 394.073 723.856 390.612C722.931 381.959 731.133 377.819 736.821 373.054C747.234 364.33 757.388 354.697 768.552 346.943C770.917 345.3 773.091 344.989 775.89 344.657Z"/><path fill="#FEFEFF" d="M700.511 428.064C722.882 429.373 709.104 452.6 697.771 456.729C681.057 456.295 682.278 443.121 692.349 434.236C695.424 431.523 696.26 429.549 700.511 428.064Z"/><path fill="#FEFEFF" d="M717.225 445.137C738.72 445.138 727.889 470.075 714.622 473.524C706.219 473.74 703.909 471.815 701.75 463.589C703.641 456.431 711.278 449.133 717.225 445.137Z"/><path fill="#FEFEFF" d="M751.257 479.573C770.392 477.21 766.786 500.132 750.491 507.495C735.752 508.19 733.889 495.898 743.613 487.182C746.364 484.716 748.05 481.845 751.257 479.573Z"/><path fill="#FEFEFF" d="M734.275 462.048C739.346 461.351 744.667 462.873 746.548 468.1C747.705 471.355 747.481 474.941 745.928 478.027C743.887 482.176 738.331 488.047 733.811 489.624C732.937 489.724 732.061 489.8 731.183 489.853C727.894 490.022 725.471 488.573 723.101 486.349C714.899 478.652 728.437 467.404 734.275 462.048Z"/><path fill="#F8F7FE" d="M702.074 285.526C702.295 263.969 701.839 242.307 701.998 220.729C702.341 210.009 701.184 198.78 702.939 188.199C704.163 180.815 712.7 172.901 720.062 171.987C726.94 171.132 734.303 171.538 741.247 171.557L774.711 171.541L902.066 171.567L901.368 171.638C896.092 172.149 878.352 171.122 874.8 173.299C876.874 173.7 882.349 173.711 884.734 173.769C881.681 174.837 878.977 174.336 875.673 174.677C888.927 177.005 908.158 175.314 921.964 175.971C924.938 176.112 928.027 174.624 930.653 173.413C940.414 178.792 944.171 185.294 944.184 196.378C944.219 226.174 944.225 255.972 944.266 285.768L944.031 500.786L944.356 617.232L944.248 651.035C944.197 661.154 946.02 673.644 938.06 681.034C931.989 686.67 925.02 688.897 916.843 688.549C901.718 687.904 886.613 686.722 871.511 685.719L797.291 681.168L748.509 678.155C735.058 677.362 718.631 678.918 708.791 668.891C700.644 660.59 701.749 652.336 701.807 641.792C701.84 635.917 701.886 630.126 701.876 624.318C701.742 598.631 701.743 572.943 701.877 547.256C708.811 549.981 715.927 552.219 723.172 553.953C723.286 573.029 723.288 592.104 723.178 611.18C723.119 621.883 722.913 632.653 723.226 643.307C723.411 649.593 728.613 653.542 734.403 654.411C741.471 655.472 749.074 655.672 756.221 656.092C769.216 656.84 782.206 657.673 795.191 658.592L868.776 663.743C882.697 664.722 896.867 665.766 910.813 666.372C913.224 666.477 919.407 665.963 921.023 664.445C923.192 662.407 924.453 660.092 924.505 657.062C924.602 651.348 924.565 645.539 924.558 639.853L924.484 605.94L924.319 500.568L924.022 317.122C924.015 281.027 924.232 244.896 923.96 208.807C923.687 205.455 924.166 199.707 921.734 197.272C916.812 192.347 907.333 193.88 900.128 193.898C890.476 193.893 880.823 193.949 871.172 194.065C859.958 218.386 840.323 214.573 817.371 214.922C798.309 215.212 783.879 213.095 775.152 194.176C762.922 193.407 749.678 194.521 737.359 193.926C732.321 193.683 723.105 194.38 722.675 201.193C722.141 209.642 722.481 218.56 722.524 227.06L722.573 279.099C716.654 280.31 707.816 283.513 702.074 285.526Z"/><path fill="#080717" d="M796.156 193.038C802.946 192.842 848.199 192.322 850.822 194.104C851.528 195.786 851.307 195.255 850.794 197.414C844.349 197.663 798.377 197.996 796.013 196.569C795.332 194.932 795.645 195.187 796.156 193.038Z"/><path fill="#FEFEFF" d="M136.56 198.216L136.66 198.701C138.047 205.8 137.918 215.823 138.905 221.084C139.147 215.302 138.996 210.311 139 204.578C143.004 205.669 144.815 205.865 149.065 205.755L149.614 206.154C157.127 211.722 152.176 218.703 153.831 220.621L153.658 220.126C154.356 218.823 155.271 204.054 156.285 200.027C156.878 213.318 155.772 233.689 156.877 245.754L156.987 518.477L156.965 607.635C156.961 623.335 156.829 639.031 157.18 654.739C157.318 660.937 161.404 666.941 168.106 666.845C175.377 666.742 183.201 665.727 190.505 665.102L233.274 661.587C259.499 659.589 285.71 657.398 311.903 655.014C323.146 654.065 334.433 653.568 345.671 652.416C356.703 651.284 357.74 644.407 357.487 634.896C357.297 627.748 357.373 620.127 357.357 612.92L357.423 552.936C364.039 551.481 370.971 548.811 377.36 546.474L377.367 617.03C377.366 621.239 377.45 625.476 377.427 629.657C377.356 642.611 379.421 655.923 369.006 665.847C365.335 669.346 360.308 673.053 355.166 673.71C345.509 674.943 335.598 675.499 325.884 676.261C302.265 678.105 278.636 679.821 254.998 681.406C222.428 683.777 189.754 687.465 157.124 689.164C151.24 689.47 147.061 686.602 142.885 682.674C134.885 675.151 136.507 663.446 136.495 653.475L136.475 620.85L136.582 514.52L136.56 198.216ZM267.048 678.013L268.496 677.406L268.134 676.874C265.335 676.353 259.667 676.387 256.767 676.701L253.931 677.286L254.142 677.68C257.533 678.295 263.51 678.195 267.048 678.013Z"/><path fill="#FEFEFE" fill-opacity="0.74901962" d="M256.767 676.701C259.667 676.387 265.335 676.353 268.134 676.874L268.496 677.406L267.048 678.013C263.51 678.195 257.533 678.295 254.142 677.68L253.931 677.286L256.767 676.701Z"/><defs><linearGradient id="gradient_2" gradientUnits="userSpaceOnUse" x1="218.44986" y1="253.34293" x2="381.03589" y2="205.67732"><stop offset="0" stop-color="#FDFCFC" stop-opacity="0.82745099"/><stop offset="1" stop-color="#FBFBFE"/></linearGradient></defs><path fill="url(#gradient_2)" d="M265.817 171.16C294.124 170.069 323.124 171.776 351.38 170.912C368.653 170.384 378.861 181.899 378.08 198.582C377.95 227.976 378.258 257.375 378.406 286.754C370.613 283.702 364.449 281.896 356.365 279.725L356.475 225.083C356.473 216.427 356.748 207.508 356.02 198.924C355.771 195.993 352.428 193.408 349.658 193.172C338.512 192.225 326.852 193.344 315.698 192.899C317.43 192.498 318.12 192.304 319.939 192.221C316.512 191.429 306.667 191.522 303.697 193.568C299.662 196.348 297.973 202.742 293.847 205.238C292.478 206.003 287.848 209.178 286.733 209.257C287.323 206.874 292.143 203.586 294.365 201.816C290.884 201.762 286.302 207.327 284.73 210.234C282.37 211.061 275.995 213.347 273.572 213.607C263.148 214.73 247.57 214.676 237.296 213.495C233.691 213.081 221.85 207.02 217.881 205.527C214.881 204.399 211.911 199.965 209.044 198.627C207.659 197.369 206.799 195.31 205.918 193.602C197.495 192.914 189.256 192.996 180.814 192.943C185.667 191.994 192.72 191.832 197.066 189.999C198.361 188.307 196.267 189.115 196.256 185.866C199.3 181.558 202.431 183.459 205.169 181.214L204.381 179.106L204.718 178.541C208.674 177.5 229.917 176.802 235.461 176.099L236.026 176.023C241.132 175.934 266.111 176.57 268.828 173.107C268.158 171.751 267.644 171.947 265.817 171.16Z"/><path fill="#080717" d="M231.807 192.706C246.731 191.855 263.002 192.729 278.012 192.627C279.044 192.62 279.536 193.544 280.01 194.258C279.977 195.905 279.938 195.788 278.96 197.144C268.37 196.709 257.054 197.191 246.423 197.038C242.569 196.982 234.964 197.593 231.617 197.001L230.978 195.996C230.99 194.179 230.946 194.301 231.807 192.706Z"/><path fill="#FEFEFF" d="M955.879 313.11C956.822 311.67 956.858 311.311 958.399 310.558C961.702 311.308 961.179 316.454 961.109 319.146C961.501 319.527 961.26 319.418 961.852 319.426C962.377 317.912 962.845 316.767 963.48 315.293C962.888 321.037 962.222 346.78 963.784 351.318L964.313 351.253C964.123 350.105 963.896 348.756 964.676 347.841L965.317 350.227L965.499 350.133C966.029 349.119 966.242 348.257 966.486 347.146C967.625 341.95 968.129 316.232 965.716 312.469L968.534 311.855L968.773 549.417L968.789 626.06C968.771 632.631 968.847 639.23 968.73 645.811C968.505 658.466 970.468 670.345 960.371 679.901C953.283 686.611 946.977 689.215 937.166 689.17C936.372 689.166 935.578 689.157 934.784 689.143C951.639 677.101 948.646 667.715 948.626 649.065L948.749 608.663L948.621 436.825C948.534 417.552 948.547 398.279 948.661 379.006C948.697 372.7 948.439 357.078 949.131 351.872C950.933 353.792 950.322 354.776 952.306 356.841C954.56 356.797 954.897 355.171 955.885 353.274C956.802 343.197 956.334 323.641 955.879 313.11Z"/><path fill="#080717" d="M955.879 313.11C956.822 311.67 956.858 311.311 958.399 310.558C961.702 311.308 961.179 316.454 961.109 319.146C961.182 326.336 962.394 353.342 960.003 358.666L959.013 359.502C955.642 358.69 955.991 356.306 955.885 353.274C956.802 343.197 956.334 323.641 955.879 313.11Z"/><path fill="#FEFEFF" d="M111.611 342.568C112.311 343.995 112.631 345.052 113.919 345.948C116.178 345.167 116.236 341.67 117.898 341.551C120.347 341.376 122.705 341.439 125.309 340.972C128.815 342.555 127.055 344.745 129.526 345.5C130.997 344.634 131.145 344.209 132.069 342.807C132.728 349.94 132.349 363.902 132.329 371.394L132.311 421.62L132.387 601.325C132.392 616.096 132.317 630.867 132.162 645.638C132.024 659.059 129.667 673.157 137.99 684.464C132.535 684.012 132.717 675.161 129.444 671.327C127.109 673.569 128.707 676.161 125.981 679.32C122.527 679.505 125.606 678.398 122.495 678.079L122.216 678.969C122.597 680.511 122.477 680.513 123.573 681.615C125.857 683.36 126.829 683.726 127.934 686.332C125.168 684.875 122.652 682.987 120.482 680.738C110.332 670.299 111.334 660.17 111.567 646.641C111.685 639.776 111.666 632.682 111.707 625.802L111.871 553.186L111.834 423.745C111.718 397.347 111.045 368.851 111.611 342.568Z"/><path fill="#8169ab" d="M361.288 829.018C361.19 826.674 360.773 826.722 361.876 825.369C367.014 825.093 406.098 824.916 409.218 825.763C409.644 827.641 409.595 827.705 409.534 829.542C409.881 858.091 417.574 883.206 428.72 909.038C419.022 912.843 410.751 915.804 401.316 920.405C400.114 920.798 399.174 921.241 397.932 921.119C395.477 918.89 393.105 915.004 391.073 912.18C379.361 895.895 372.101 880.804 366.787 861.385L365.883 857.473C364.74 851.752 363.569 846.037 362.369 840.328C362.179 838.351 362.062 836.636 361.62 834.682L361.288 829.018Z"/><path fill="#080717" d="M361.288 829.018C361.19 826.674 360.773 826.722 361.876 825.369C367.014 825.093 406.098 824.916 409.218 825.763C409.644 827.641 409.595 827.705 409.534 829.542C393.963 829.552 376.74 829.828 361.288 829.018Z"/><path fill="#8169ab" d="M394.46 729.315C395.572 727.966 395.693 727.293 397.038 726.966C401.318 729.132 405.06 731.016 410.105 733.137C414.927 735.165 423.255 738.318 428.415 740.362C428.529 740.67 428.642 740.978 428.756 741.285L428.151 743.204C416.856 770.073 413.319 789.093 409.568 817.453L377.194 817.446C373.802 817.448 364.199 817.286 361.441 817.767L361.713 812.366C363.03 806.28 363.426 798.775 364.794 792.271C369.769 769.303 379.915 747.772 394.46 729.315Z"/><path fill="#080717" d="M394.46 729.315C395.572 727.966 395.693 727.293 397.038 726.966C401.318 729.132 405.06 731.016 410.105 733.137C414.927 735.165 423.255 738.318 428.415 740.362C428.529 740.67 428.642 740.978 428.756 741.285L428.151 743.204C414.817 738.822 406.181 733.783 394.46 729.315Z"/><defs><linearGradient id="gradient_3" gradientUnits="userSpaceOnUse" x1="380.23822" y1="937.7196" x2="421.43222" y2="910.88983"><stop offset="0" stop-color="white" stop-opacity="0"/><stop offset="1" stop-color="#FFFFFE" stop-opacity="0.12156863"/></linearGradient></defs><path fill="url(#gradient_3)" d="M366.787 861.385C372.101 880.804 379.361 895.895 391.073 912.18C393.105 915.004 395.477 918.89 397.932 921.119C399.174 921.241 400.114 920.798 401.316 920.405C403.02 923.82 401.726 924.395 403.588 928.106L406.255 930.295C426.178 948.212 438.605 957.223 463.513 967.319L462.541 967.857C458.295 966.1 454.22 970.528 450.298 967.649C447.465 965.57 445.941 965.134 442.452 965.072C443.618 966.174 446.516 966.596 448.122 966.781C449.282 968.012 449.512 968.374 450.438 969.731C455.941 972.829 455.303 967.247 461.72 972.545C456.466 975.696 460.633 974.62 458.085 978.419C455.93 979.607 455.229 979.42 454.253 981.139L454.534 982.043C456.084 982.693 456.404 982.71 458.014 983.029L458.536 983.648C458.392 984.437 458.287 985.174 458.255 985.977C461.818 986.698 466.411 985.828 468.933 988.185C469.286 989.491 469.416 990.253 468.468 991.482C468.254 991.429 468.039 991.375 467.825 991.321C467.298 990.178 468.08 988.913 466.085 988.029C464.024 987.116 460.189 988.145 458.012 988.533C400.398 970.326 356.376 923.501 341.754 864.875C342.565 863.424 343.064 863.371 344.529 863.409C346.22 864.564 347.284 868.795 348.197 871.17C349.507 872.107 350.148 872.851 351.68 873.06C352.429 871.269 352.813 869.73 354.73 869.17C358.944 871.749 358.033 886.714 368.09 873.782L368.86 874.002C369.051 869.296 365.251 866.157 366.787 861.385Z"/><path fill="#8169ab" d="M441.731 916.798C440.983 915.481 440.887 915.504 440.684 914.035C442.595 912.608 447.935 911.576 450.468 910.907C464.524 907.194 478.531 904.974 493.042 904.093C497.172 903.842 502.442 903.183 506.495 903.622C507.399 904.652 507.037 905.115 507.032 906.943C506.894 921.7 506.86 936.459 506.928 951.217C506.932 958.132 506.584 969.957 507.076 976.615C504.995 975.927 502.697 975.008 500.621 974.234C492.751 970.477 485.23 966.028 478.147 960.94C473.999 957.52 471.031 954.773 467.238 951.004C464.866 948.647 460.48 943.904 457.907 942.191C457.876 941.377 447.349 926.331 445.888 924.048L441.731 916.798Z"/><path fill="#080717" d="M441.731 916.798C440.983 915.481 440.887 915.504 440.684 914.035C442.595 912.608 447.935 911.576 450.468 910.907C464.524 907.194 478.531 904.974 493.042 904.093C497.172 903.842 502.442 903.183 506.495 903.622C507.399 904.652 507.037 905.115 507.032 906.943C484.413 907.425 463.542 911.135 441.731 916.798Z"/><path fill="#080717" fill-opacity="0.98823529" d="M118.962 230.427L120.832 231.177C121.292 231.835 121.654 232.08 121.677 232.729C122.088 244.571 122.228 256.784 121.923 268.625C121.902 269.433 121.219 270.266 120.762 270.833C119.727 270.522 117.672 269.906 117.702 268.576C117.846 262.118 116.052 234.565 118.962 230.427Z"/><path fill="#8169ab" d="M403.588 928.106C413.769 923.084 422.131 919.479 432.94 916.105L436.045 922.5C440.84 930.688 445.679 938.351 451.873 945.598C452.447 946.272 453.833 947.984 454.393 948.533C460.069 955.248 464.177 959.502 470.896 965.29C471.586 966.015 472.204 966.68 472.937 967.367L476.553 970.353L473.932 970.271L463.513 967.319C438.605 957.223 426.178 948.212 406.255 930.295L403.588 928.106Z"/><path fill="#080717" d="M403.588 928.106C413.769 923.084 422.131 919.479 432.94 916.105L436.045 922.5L435.087 922.499C434.115 920.613 434.409 920.41 432.889 919.552C428.048 920.688 412.577 928.033 406.255 930.295L403.588 928.106Z"/><path fill="#080717" d="M435.087 922.499L436.045 922.5C440.84 930.688 445.679 938.351 451.873 945.598C452.447 946.272 453.833 947.984 454.393 948.533C460.069 955.248 464.177 959.502 470.896 965.29C471.586 966.015 472.204 966.68 472.937 967.367L472.093 967.618C460.94 961.644 440.476 934.342 435.087 922.499Z"/><defs><linearGradient id="gradient_4" gradientUnits="userSpaceOnUse" x1="200.29988" y1="169.7738" x2="201.06827" y2="186.37709"><stop offset="0" stop-color="#FFFEFF" stop-opacity="0"/><stop offset="1" stop-color="white" stop-opacity="0.054901961"/></linearGradient></defs><path fill="url(#gradient_4)" d="M137.126 188.394C142.191 169.181 160.642 170.558 176.133 170.53L202.643 170.585C223.063 170.712 245.7 170.37 265.817 171.16C267.644 171.947 268.158 171.751 268.828 173.107C266.111 176.57 241.132 175.934 236.026 176.023C225.926 175.574 186.356 175.513 178.164 178.634C177.39 180.086 177.643 179.497 177.628 181.327C175.928 183.753 174.01 184.554 173.349 186.73C173.697 188.388 174.817 189.182 176.053 190.424C176.229 191.742 176.282 191.28 176.007 192.541L175.286 193.07L173.558 192.839L173.941 192.363C170.218 191.629 166.398 189.776 162.275 188.884C160.591 190.902 158.962 192.146 159.138 194.601L158.867 195.18C156.505 191.647 161.25 189.041 160.588 185.288C159.058 183.082 155.093 180.453 152.606 180.198C147.08 179.632 146.62 187.508 142.156 190.356L137.126 188.394Z"/><path fill="#FEFEFE" fill-opacity="0.5411765" d="M461.72 972.545C463.671 972.749 463.36 973.011 464.873 972.295C466.521 966.697 469.327 971.275 474.053 970.839L473.932 970.271L476.553 970.353C483.047 973.565 475.455 978.619 482.255 981.235L482.55 980.795C480.678 978.648 479.099 975.006 481 972.417C482.95 974.662 482.778 974.997 485.559 975.975C488.822 975.409 486.187 974.694 490.016 974.203C490.67 975.58 488.957 977.348 492.752 979.371C496.743 979.954 497.904 976.142 500.388 976.388L499.464 978.315C500.756 980.859 503.96 979.313 505.143 982.623L505.597 983.274C506.404 984.411 507.374 985.402 508.327 986.42C507.528 987.589 505.838 988.541 504.58 989.404L503.869 989.188L503.319 987.424C501.132 987.243 499.748 987.509 498.001 988.962L497.769 989.857C498.53 991.063 498.828 991.22 499.884 992.154L499.901 992.921C498.947 993.251 498.194 993.541 497.337 994.079L497.496 994.276L497.691 993.414L497.345 993.914L498.019 994.136C498.808 994.4 499.455 994.645 500.225 994.948C498.923 995.374 498.872 995.537 497.571 995.27C498.873 995.339 498.938 995.725 500.165 996.311C496.04 996.068 491.925 995.678 487.828 995.142C489.099 994.985 488.669 995.074 489.858 994.507C489.634 993.914 487.971 993.196 487.217 992.773C481.403 993.263 479.914 992.699 474.183 991.916L474.57 991.668L471.865 992.29C470.73 992.032 469.598 991.763 468.468 991.482C469.416 990.253 469.286 989.491 468.933 988.185C466.411 985.828 461.818 986.698 458.255 985.977C458.287 985.174 458.392 984.437 458.536 983.648L458.014 983.029C456.404 982.71 456.084 982.693 454.534 982.043L454.253 981.139C455.229 979.42 455.93 979.607 458.085 978.419C460.633 974.62 456.466 975.696 461.72 972.545Z"/><defs><linearGradient id="gradient_5" gradientUnits="userSpaceOnUse" x1="952.9303" y1="281.74188" x2="967.19794" y2="308.6601"><stop offset="0" stop-color="white" stop-opacity="0.81568629"/><stop offset="1" stop-color="white" stop-opacity="0.98431373"/></linearGradient></defs><path fill="url(#gradient_5)" d="M961.634 261.95C962.067 264.59 963.143 271.778 966.812 271.208C968.103 269.96 967.992 270.027 968.456 268.27C968.976 282.317 968.744 297.772 968.534 311.855L965.716 312.469C964.301 313.438 963.924 313.315 963.48 315.293C962.845 316.767 962.377 317.912 961.852 319.426C961.26 319.418 961.501 319.527 961.109 319.146C961.179 316.454 961.702 311.308 958.399 310.558C956.858 311.311 956.822 311.67 955.879 313.11C953.55 312.532 954.08 312.317 952.051 312.881C950.058 315.727 951.525 317.186 948.891 318.861C948.377 314.805 948.57 305.894 948.562 301.606C948.484 291.533 948.525 281.46 948.686 271.388C949.312 273.444 950.31 275.899 952.211 277.003C954.026 277.083 953.21 277.305 954.74 276.286C955.863 274.409 955.883 273.875 956.401 271.692C956.484 274.773 955.825 281.134 958.174 283.043C963.04 283.113 961.488 266.283 961.634 261.95Z"/><path fill="#F8F7FE" d="M949.21 276.895L949.638 277.596C949.811 285.149 951.502 294.139 951.39 301.766C951.381 302.409 949.919 307.992 949.666 309.065C949.571 310.092 949.418 310.885 949.233 311.901L949.294 311.863C948.589 303.348 949.127 285.945 949.21 276.895Z"/><path fill="#FEFEFE" fill-opacity="0.69411767" d="M948.461 189.879C950.608 190.637 950.666 190.596 952.429 189.404C953.946 186.736 952.511 185.328 953.812 183.113C957.642 182.896 958.603 187.357 962.976 184.381C964.562 186.326 964.95 187.099 966.181 189.336C964.48 191.038 964.014 191.614 962.658 193.604C962.631 193.827 962.602 194.05 962.577 194.273C961.947 200.078 963.281 224.977 959.694 227.823C956.65 230.239 951.589 230.025 950.79 234.844C950.669 235.575 950.674 236.331 950.64 237.07C950.14 238.77 950.57 237.988 948.98 239.285C948.45 235.072 948.662 225.879 948.648 221.205L948.461 189.879Z"/><path fill="#FEFEFE" fill-opacity="0.53333336" d="M342.623 826.269L343.233 825.938C345.993 828.334 344.406 833.647 348.874 835.697C353.563 835.335 353.433 831.051 357.5 829.753C359.879 832.551 356.436 841.435 360.166 843.37L361.186 842.791L361.382 840.862L362.369 840.328C363.569 846.037 364.74 851.752 365.883 857.473C365.115 866.527 358.063 861.682 354.666 861.963L353.372 863.492C350.572 863.622 347.86 859.057 345.992 856.916C343.401 857.566 342.058 860.459 341.267 862.872C340.163 858.209 339.251 853.503 338.536 848.765C340.763 839.619 342.458 835.663 342.623 826.269Z"/><path fill="#8169ab" d="M509.696 401.116C512.599 401.134 514.709 401.272 517.381 402.58C520.877 404.265 523.51 407.333 524.644 411.045C525.732 414.771 525.278 418.779 523.385 422.167C520.922 426.613 517.664 428.034 513.172 429.425C510.714 429.524 509.456 429.441 507.171 428.4C503.275 426.637 500.306 423.311 498.992 419.242C496.15 410.598 501.375 403.479 509.696 401.116Z"/><path fill="#8169ab" d="M509.213 595.911C516.434 594.823 523.197 599.713 524.427 606.91C525.657 614.108 520.901 620.966 513.729 622.338C508.962 623.249 504.075 621.513 500.951 617.8C497.827 614.086 496.953 608.974 498.667 604.434C500.381 599.894 504.414 596.634 509.213 595.911Z"/><defs><linearGradient id="gradient_6" gradientUnits="userSpaceOnUse" x1="963.03375" y1="229.68585" x2="969.93597" y2="230.26933"><stop offset="0" stop-color="white" stop-opacity="0"/><stop offset="1" stop-color="white" stop-opacity="0.082352944"/></linearGradient></defs><path fill="url(#gradient_6)" d="M961.176 234.836C968.004 226.296 961.988 199.074 966.88 191.341C969.942 201.139 968.747 253.989 968.456 268.27C967.992 270.027 968.103 269.96 966.812 271.208C963.143 271.778 962.067 264.59 961.634 261.95C961.388 255.562 962.069 240.163 961.176 234.836Z"/><path fill="#FEFEFE" fill-opacity="0.56078434" d="M152.398 189.34C154.394 189.347 153.56 189.036 155.055 190.084C156.071 192.862 156.313 194.038 157.93 196.511C155.875 201.585 157.211 237.335 156.877 245.754C155.772 233.689 156.878 213.318 156.285 200.027C155.271 204.054 154.356 218.823 153.658 220.126L153.831 220.621C152.176 218.703 157.127 211.722 149.614 206.154L149.065 205.755C144.815 205.865 143.004 205.669 139 204.578C138.996 210.311 139.147 215.302 138.905 221.084C137.918 215.823 138.047 205.8 136.66 198.701L136.56 198.216C136.337 195.072 136.504 193.457 136.765 190.325C137.589 193.636 137.277 199.126 141.946 199.874C145.835 198.48 147.847 192.408 152.398 189.34Z"/><path fill="#FEFEFE" fill-opacity="0.1882353" d="M341.267 862.872C342.058 860.459 343.401 857.566 345.992 856.916C347.86 859.057 350.572 863.622 353.372 863.492L354.666 861.963C358.063 861.682 365.115 866.527 365.883 857.473L366.787 861.385C365.251 866.157 369.051 869.296 368.86 874.002L368.09 873.782C358.033 886.714 358.944 871.749 354.73 869.17C352.813 869.73 352.429 871.269 351.68 873.06C350.148 872.851 349.507 872.107 348.197 871.17C347.284 868.795 346.22 864.564 344.529 863.409C343.064 863.371 342.565 863.424 341.754 864.875C341.588 864.208 341.425 863.541 341.267 862.872Z"/><path fill="#080717" d="M956.353 239.691C956.351 237.874 956.083 235.785 957.084 234.406C958.598 233.792 959.565 234.337 961.176 234.836C962.069 240.163 961.388 255.562 961.634 261.95C961.488 266.283 963.04 283.113 958.174 283.043C955.825 281.134 956.484 274.773 956.401 271.692C956.757 262.096 956.672 249.264 956.353 239.691Z"/><path fill="#FEFEFE" fill-opacity="0.50588238" d="M178.164 178.634C186.356 175.513 225.926 175.574 236.026 176.023L235.461 176.099C229.917 176.802 208.674 177.5 204.718 178.541L204.381 179.106L205.169 181.214C202.431 183.459 199.3 181.558 196.256 185.866C196.267 189.115 198.361 188.307 197.066 189.999C193.092 187.472 195.307 186.019 190.055 185.435L189.662 184.886C190.426 184.185 192.029 182.993 192.205 182.212C188.317 180.935 184 183.705 179.711 181.469C178.478 180.826 178.762 180.485 178.164 178.634Z"/><path fill="#080717" d="M117.922 297.223C120.545 296.201 120.447 296.158 122.473 298.147C122.374 309.25 122.375 320.346 122.339 331.449C122.331 334.098 122.609 339.113 120.683 340.847C118.78 341.091 119.632 341.269 118.017 340.409C116.885 338.519 117.121 300.979 117.922 297.223Z"/><path fill="#FEFEFE" fill-opacity="0.60000002" d="M902.066 171.567C909.356 171.198 924.403 170.375 930.653 173.413C928.027 174.624 924.938 176.112 921.964 175.971C908.158 175.314 888.927 177.005 875.673 174.677C878.977 174.336 881.681 174.837 884.734 173.769C882.349 173.711 876.874 173.7 874.8 173.299C878.352 171.122 896.092 172.149 901.368 171.638L902.066 171.567Z"/><path fill="#FEFEFE" fill-opacity="0.38431373" d="M861.185 332.556C862.46 333.684 863.429 334.727 864.989 335.383C871.374 341.521 883.297 366.724 885.449 375.184L884.435 375.859C884.259 377.921 884.272 380.994 883.625 382.766C878.114 363.287 871.434 350.397 859.452 334.214L861.185 332.556Z"/><defs><linearGradient id="gradient_7" gradientUnits="userSpaceOnUse" x1="120.25271" y1="278.92163" x2="124.3153" y2="292.02243"><stop offset="0" stop-color="white" stop-opacity="0.69803923"/><stop offset="1" stop-color="white" stop-opacity="0.82352942"/></linearGradient></defs><path fill="url(#gradient_7)" d="M115.49 288.404C117.124 279.607 119.06 273.184 128.136 281.922C129.745 283.134 129.224 282.362 129.729 284.337C128.69 288.372 127.162 295.348 124.177 298.034C119.697 292.091 117.455 295.82 115.49 288.404Z"/><path fill="#FEFEFE" fill-opacity="0.49411765" d="M178.164 178.634C178.762 180.485 178.478 180.826 179.711 181.469C184 183.705 188.317 180.935 192.205 182.212C192.029 182.993 190.426 184.185 189.662 184.886L190.055 185.435C195.307 186.019 193.092 187.472 197.066 189.999C192.72 191.832 185.667 191.994 180.814 192.943L175.286 193.07L176.007 192.541C176.282 191.28 176.229 191.742 176.053 190.424C174.817 189.182 173.697 188.388 173.349 186.73C174.01 184.554 175.928 183.753 177.628 181.327C177.643 179.497 177.39 180.086 178.164 178.634Z"/><path fill="#FEFEFE" fill-opacity="0.59215689" d="M966.181 189.336L966.88 191.341C961.988 199.074 968.004 226.296 961.176 234.836C959.565 234.337 958.598 233.792 957.084 234.406C956.083 235.785 956.351 237.874 956.353 239.691C956.238 237.872 956.252 237.091 955.734 235.306C954.203 234.954 952.382 236.241 950.64 237.07C950.674 236.331 950.669 235.575 950.79 234.844C951.589 230.025 956.65 230.239 959.694 227.823C963.281 224.977 961.947 200.078 962.577 194.273C962.602 194.05 962.631 193.827 962.658 193.604C964.014 191.614 964.48 191.038 966.181 189.336Z"/><path fill="#F8F7FE" d="M284.73 210.234C286.302 207.327 290.884 201.762 294.365 201.816C292.143 203.586 287.323 206.874 286.733 209.257C287.848 209.178 292.478 206.003 293.847 205.238C297.973 202.742 299.662 196.348 303.697 193.568C306.667 191.522 316.512 191.429 319.939 192.221C318.12 192.304 317.43 192.498 315.698 192.899C311.993 192.919 308.289 192.971 304.585 193.054C287.085 221.448 262.547 215.387 232.791 214.386C225.384 214.137 212.982 204.898 209.044 198.627C211.911 199.965 214.881 204.399 217.881 205.527C221.85 207.02 233.691 213.081 237.296 213.495C247.57 214.676 263.148 214.73 273.572 213.607C275.995 213.347 282.37 211.061 284.73 210.234Z"/><path fill="#FEFEFE" fill-opacity="0.43921569" d="M883.625 382.766C884.272 380.994 884.259 377.921 884.435 375.859L885.449 375.184C888.257 382.812 892.032 402.206 891.446 409.804L890.905 409.97C890.729 406.363 891.296 407.464 889.162 405.468L888.183 405.319C886.209 407.781 887.958 415.089 887.639 418.72L886.398 415.88L885.831 415.904L885.192 419.436C885.419 411.124 884.849 402.809 883.489 394.606C885.609 388.828 883.675 388.302 883.625 382.766Z"/><defs><linearGradient id="gradient_8" gradientUnits="userSpaceOnUse" x1="444.5419" y1="932.0462" x2="447.80609" y2="929.89496"><stop offset="0" stop-color="white" stop-opacity="0.83137256"/><stop offset="1" stop-color="white" stop-opacity="0.86274511"/></linearGradient></defs><path fill="url(#gradient_8)" d="M451.873 945.598C451.925 942.473 445.361 934.192 443.626 931.153C441.995 928.297 440.28 923.597 437.37 922.109C437.015 920.609 436.946 921.334 437.715 919.88C441.197 917.829 440.056 922.653 445.888 924.048C447.349 926.331 457.876 941.377 457.907 942.191C454.777 944.757 453.718 944.428 454.393 948.533C453.833 947.984 452.447 946.272 451.873 945.598Z"/><path fill="#FEFEFE" fill-opacity="0.89803922" d="M691.649 297.985L687.746 300.807L687.952 300.603C688.77 301.192 688.7 301.093 689.609 301.313C684.546 305.36 666.856 314.871 666.601 320.679C665.414 321.785 664.247 322.912 663.101 324.061C663.051 322.601 662.845 321.865 663.705 320.716C665.776 318.389 668.929 315.561 670.032 312.85L669.938 312.82L669.303 314.028L668.576 313.497C666.47 314.817 665.398 316.067 663.661 317.818C660.349 320.53 657.651 322.454 655.152 325.939L652.979 328.076L652.345 326.815C658.515 319.368 673.637 305.217 682 300.781C685.09 300.959 688.693 299.198 691.649 297.985ZM677.525 308.696C679.856 307.095 684.326 304.569 685.073 302.061C684.253 301.356 684.723 301.585 683.662 301.373C681.739 302.828 677.91 305.636 676.783 307.665C677.111 308.61 676.811 308.31 677.525 308.696Z"/><path fill="#FEFEFE" fill-opacity="0.63921571" d="M683.662 301.373C684.723 301.585 684.253 301.356 685.073 302.061C684.326 304.569 679.856 307.095 677.525 308.696C676.811 308.31 677.111 308.61 676.783 307.665C677.91 305.636 681.739 302.828 683.662 301.373Z"/><path fill="#FEFEFE" fill-opacity="0.47450981" d="M478.147 960.94C485.23 966.028 492.751 970.477 500.621 974.234C497.958 974.304 496.82 975.027 493.838 975.219L493.074 974.156C493.954 973.113 493.767 973.695 493.979 972.489C490.31 969.279 489.003 972.683 484.77 972.265C483.89 972.178 483.639 970.645 481.529 969.721C480.765 970.567 481.046 970.918 481 972.417C479.099 975.006 480.678 978.648 482.55 980.795L482.255 981.235C475.455 978.619 483.047 973.565 476.553 970.353L472.937 967.367C472.204 966.68 471.586 966.015 470.896 965.29L471.502 965.268C474.146 962.177 474.607 963.7 478.147 960.94Z"/><path fill="#FEFEFE" fill-opacity="0.627451" d="M111.46 275.867C112.696 276.956 112.585 276.962 114.154 277.39C115.593 277.135 116.492 275.736 117.552 274.557C119.843 274.501 120.958 275.884 123.153 275.264C124.258 274.113 124.628 273.674 125.58 272.394C126.623 273.786 127.673 279.802 128.136 281.922C119.06 273.184 117.124 279.607 115.49 288.404C117.455 295.82 119.697 292.091 124.177 298.034L122.683 297.869L122.473 298.147C120.447 296.158 120.545 296.201 117.922 297.223C116.985 295.862 117.193 294.442 115.594 292.983C113.855 292.822 113.052 293.384 111.456 294.109C111.15 288.032 111.152 281.944 111.46 275.867Z"/><defs><linearGradient id="gradient_9" gradientUnits="userSpaceOnUse" x1="966.87671" y1="330.83203" x2="962.73602" y2="331.25961"><stop offset="0" stop-color="white" stop-opacity="0.58823532"/><stop offset="1" stop-color="white" stop-opacity="0.70980394"/></linearGradient></defs><path fill="url(#gradient_9)" d="M965.716 312.469C968.129 316.232 967.625 341.95 966.486 347.146C966.242 348.257 966.029 349.119 965.499 350.133L965.317 350.227L964.676 347.841C963.896 348.756 964.123 350.105 964.313 351.253L963.784 351.318C962.222 346.78 962.888 321.037 963.48 315.293C963.924 313.315 964.301 313.438 965.716 312.469Z"/><path fill="#FEFEFE" fill-opacity="0.086274512" d="M142.156 190.356C146.62 187.508 147.08 179.632 152.606 180.198C155.093 180.453 159.058 183.082 160.588 185.288C161.25 189.041 156.505 191.647 158.867 195.18L157.93 196.511C156.313 194.038 156.071 192.862 155.055 190.084C153.56 189.036 154.394 189.347 152.398 189.34C151.77 186.849 152.348 187.597 150.432 186.413C146.098 185.989 145.573 191.282 142.156 190.356Z"/><path fill="#FEFEFE" fill-opacity="0.94117647" d="M890.905 409.97L891.446 409.804C891.822 423.493 890.606 438.986 886.321 452.093C885.344 450.778 885.74 449.875 885.268 448.247C885.253 450.309 884.549 452.178 882.961 453.555L882.319 453.166C881.943 450.854 884.494 440.811 885.38 438.551C885.86 438.904 885.528 438.709 886.468 438.935C889.285 436.656 888.75 429.761 887.802 426.512L888.287 425.963C888.757 423.884 889.015 423.252 888.853 421.177C890.033 418.193 890.579 413.208 890.905 409.97Z"/><path fill="#FEFEFE" fill-opacity="0.58823532" d="M481 972.417C481.046 970.918 480.765 970.567 481.529 969.721C483.639 970.645 483.89 972.178 484.77 972.265C489.003 972.683 490.31 969.279 493.979 972.489C493.767 973.695 493.954 973.113 493.074 974.156L493.838 975.219C496.82 975.027 497.958 974.304 500.621 974.234C502.697 975.008 504.995 975.927 507.076 976.615C507.42 979.224 507.863 979.203 506.906 981.126C505.853 981.717 505.911 981.634 505.143 982.623C503.96 979.313 500.756 980.859 499.464 978.315L500.388 976.388C497.904 976.142 496.743 979.954 492.752 979.371C488.957 977.348 490.67 975.58 490.016 974.203C486.187 974.694 488.822 975.409 485.559 975.975C482.778 974.997 482.95 974.662 481 972.417Z"/><path fill="#FEFEFE" fill-opacity="0.35294119" d="M142.156 190.356C145.573 191.282 146.098 185.989 150.432 186.413C152.348 187.597 151.77 186.849 152.398 189.34C147.847 192.408 145.835 198.48 141.946 199.874C137.277 199.126 137.589 193.636 136.765 190.325L137.126 188.394L142.156 190.356Z"/><path fill="#FEFEFE" fill-opacity="0.89803922" d="M357.5 829.753L356.664 829.364C359.553 823.465 354.711 819.125 356.715 814.88C357.907 815.322 357.808 815.484 358.713 816.409L359.185 816.082L359.634 812.15C359.784 813.665 360.041 814.315 360.537 815.754C361.164 814.812 361.161 813.177 361.313 811.904L361.713 812.366L361.441 817.767L365.062 818.174L365.411 817.836L366.91 818.329L365.963 818.439L365.521 818.026C363.742 818.07 363.487 817.921 361.95 818.838L363.408 820.628C362.265 826.082 357.569 822.547 360.947 835.209L361.62 834.682C362.062 836.636 362.179 838.351 362.369 840.328L361.382 840.862L361.186 842.791L360.166 843.37C356.436 841.435 359.879 832.551 357.5 829.753Z"/><path fill="#FEFEFE" fill-opacity="0.56078434" d="M813.397 293.085C818.235 295.184 831.044 302.056 834.643 305.658C835.104 307.738 837.029 308.53 838.556 311.051L838.027 311.774C836.7 311.727 831.753 307.723 830.183 306.69C826.081 303.99 822.349 302.085 817.929 299.989C819.141 299.36 819.18 299.575 819.874 298.622C818.647 296.391 815.455 295.691 813.357 293.574L813.397 293.085Z"/><path fill="#FEFEFE" fill-opacity="0.39215687" d="M637.787 351.404C641.968 343.355 646.443 336.982 651.982 329.875C652.635 330.551 653.177 331.091 653.87 331.726L653.952 334.259C650.943 337.992 648.142 341.889 645.563 345.932L644.589 345.306C641.972 346.023 641.665 349.498 638.861 351.603C637.92 351.551 638.244 351.717 637.787 351.404Z"/><path fill="#FEFEFE" fill-opacity="0.078431375" d="M948.156 188.587C949.097 187.59 949.648 187.205 950.089 185.924C948.722 183.873 946.781 181.279 949.263 179.513C955.14 178.711 956.466 182.045 961.439 182.368L962.976 184.381C958.603 187.357 957.642 182.896 953.812 183.113C952.511 185.328 953.946 186.736 952.429 189.404C950.666 190.596 950.608 190.637 948.461 189.879L948.156 188.587Z"/><path fill="#FEFEFE" fill-opacity="0.76862746" d="M123.573 681.615C125.509 679.689 126.264 681.18 129.264 679.667C132.313 680.741 133.581 689.118 138.213 686.976L138.853 685.814C140.721 687.501 142.438 689.02 144.393 690.625C138.26 690.008 133.278 689.752 127.934 686.332C126.829 683.726 125.857 683.36 123.573 681.615Z"/><path fill="#FEFEFE" fill-opacity="0.89411765" d="M123.573 681.615C122.477 680.513 122.597 680.511 122.216 678.969L122.495 678.079C125.606 678.398 122.527 679.505 125.981 679.32C128.707 676.161 127.109 673.569 129.444 671.327C132.717 675.161 132.535 684.012 137.99 684.464L138.853 685.814L138.213 686.976C133.581 689.118 132.313 680.741 129.264 679.667C126.264 681.18 125.509 679.689 123.573 681.615Z"/><path fill="#FEFEFE" fill-opacity="0.87843138" d="M637.787 351.404C638.244 351.717 637.92 351.551 638.861 351.603C641.665 349.498 641.972 346.023 644.589 345.306L645.563 345.932C644.699 347.285 643.861 348.655 643.048 350.039C636.129 353.152 630.609 374.12 628.538 374.004C627.422 370.938 635.482 353.588 637.787 351.404Z"/><path fill="#FEFEFE" fill-opacity="0.20392157" d="M461.72 972.545C455.303 967.247 455.941 972.829 450.438 969.731C449.512 968.374 449.282 968.012 448.122 966.781C446.516 966.596 443.618 966.174 442.452 965.072C445.941 965.134 447.465 965.57 450.298 967.649C454.22 970.528 458.295 966.1 462.541 967.857L463.513 967.319L473.932 970.271L474.053 970.839C469.327 971.275 466.521 966.697 464.873 972.295C463.36 973.011 463.671 972.749 461.72 972.545Z"/><path fill="#FEFEFE" fill-opacity="0.50196081" d="M529.234 995.587C529.534 995.094 529.364 995.447 529.47 994.436L527.922 993.756L528.119 992.964C533.462 987.226 539.352 991.591 544.978 992.905L545.509 993.025C540.128 994.136 534.697 994.991 529.234 995.587Z"/><path fill="#FEFEFE" fill-opacity="0.63529414" d="M337.906 844.183C339.635 840.742 339.642 818.65 340.035 812.809C340.962 817.356 341.891 821.682 342.623 826.269C342.458 835.663 340.763 839.619 338.536 848.765C338.306 847.24 338.096 845.713 337.906 844.183Z"/><path fill="#FEFEFE" fill-opacity="0.57254905" d="M817.929 299.989C814.184 297.237 808.513 294.472 804.087 292.828C802.508 292.241 800.171 292.588 799.928 290.3C803.333 289.36 808.918 293.24 813.357 293.574C815.455 295.691 818.647 296.391 819.874 298.622C819.18 299.575 819.141 299.36 817.929 299.989Z"/><path fill="#FEFEFE" fill-opacity="0.42352942" d="M471.865 992.29L474.57 991.668L474.183 991.916C479.914 992.699 481.403 993.263 487.217 992.773C487.971 993.196 489.634 993.914 489.858 994.507C488.669 995.074 489.099 994.985 487.828 995.142C482.466 994.44 477.139 993.488 471.865 992.29Z"/><path fill="#FEFEFE" fill-opacity="0.34117648" d="M887.639 418.72C887.958 415.089 886.209 407.781 888.183 405.319L889.162 405.468C891.296 407.464 890.729 406.363 890.905 409.97C890.579 413.208 890.033 418.193 888.853 421.177C887.572 419.852 887.998 420.625 887.639 418.72Z"/><path fill="#FEFEFE" fill-opacity="0.24705882" d="M655.152 325.939C657.119 326.228 659.769 325.737 661.747 325.439C659.017 328.26 656.416 331.203 653.952 334.259L653.87 331.726C653.177 331.091 652.635 330.551 651.982 329.875L652.979 328.076L655.152 325.939Z"/><path fill="#FEFEFE" fill-opacity="0.011764706" d="M162.275 188.884C166.398 189.776 170.218 191.629 173.941 192.363L173.558 192.839C168.244 193.116 163.574 192.277 159.138 194.601C158.962 192.146 160.591 190.902 162.275 188.884Z"/><path fill="#FEFEFE" fill-opacity="0.40392157" d="M663.661 317.818L663.705 320.716C662.845 321.865 663.051 322.601 663.101 324.061C662.646 324.517 662.195 324.976 661.747 325.439C659.769 325.737 657.119 326.228 655.152 325.939C657.651 322.454 660.349 320.53 663.661 317.818Z"/><path fill="#FEFEFE" fill-opacity="0.74509805" d="M855.658 329.931C853.739 327.661 849.577 324.024 849.397 321.232C851.76 321.53 855.132 326.013 856.672 327.858L855.658 329.931Z"/><path fill="#FEFEFE" fill-opacity="0.66274512" d="M887.802 426.512C888.75 429.761 889.285 436.656 886.468 438.935C885.528 438.709 885.86 438.904 885.38 438.551C886.443 434.756 885.765 430.69 887.802 426.512Z"/><path fill="#FEFEFF" fill-opacity="0.015686275" d="M458.012 988.533C460.189 988.145 464.024 987.116 466.085 988.029C468.08 988.913 467.298 990.178 467.825 991.321C464.528 990.488 461.255 989.558 458.012 988.533Z"/><path fill="#FEFEFE" fill-opacity="0.65490198" d="M663.661 317.818C665.398 316.067 666.47 314.817 668.576 313.497L669.303 314.028L669.938 312.82L670.032 312.85C668.929 315.561 665.776 318.389 663.705 320.716L663.661 317.818Z"/><path fill="#FEFEFE" fill-opacity="0.54901963" d="M856.672 327.858C857.354 328.559 860.806 332.008 861.185 332.556L859.452 334.214C858.55 332.816 856.845 331.172 855.658 329.931L856.672 327.858Z"/><defs><linearGradient id="gradient_10" gradientUnits="userSpaceOnUse" x1="914.5304" y1="560.7182" x2="538.37286" y2="703.77283"><stop offset="0" stop-color="#FAFBFC" stop-opacity="0.96862745"/><stop offset="1" stop-color="#F8F8FB"/></linearGradient></defs><path fill="url(#gradient_10)" d="M529.803 418.494C558.008 418.327 586.213 418.351 614.418 418.564C615.235 461.743 637.215 504.104 671.716 529.821C679.899 535.922 688.382 540.486 697.343 545.281C697.987 570.714 697.298 596.616 697.586 622.055C697.678 630.174 697.017 649.698 698.191 657.008C698.876 661.406 700.579 665.583 703.164 669.207C707.74 675.489 714.881 679.714 722.524 680.645C732.233 681.829 742.548 682.348 752.318 682.985L818.179 686.732C845.313 688.593 872.459 690.298 899.613 691.846C914.147 692.73 930.672 694.272 945.176 693.389C951.6 692.998 957.819 688.148 962.857 684.446C963.303 689.788 968.255 690.341 972.18 694.487C972.875 706.923 966.344 715.667 960.85 726.38C948.038 751.362 932.446 775.449 914.729 797.241C906.369 807.134 890.969 823.646 882.002 832.088C838.076 872.835 785.03 902.471 727.303 918.514C714.327 922.015 690.615 926.314 676.723 928.547C674.688 928.52 671.868 928.313 669.986 928.403C665.147 928.636 657.303 926.012 653.514 929.316C651.836 930.779 652.3 931.373 649.603 932.374C673.513 897.514 684.853 868.83 686.321 826.107C687.559 779.412 670.532 734.077 638.861 699.743C604.955 663.51 563.376 643.93 513.494 642.244L513.49 627.336C514.941 626.927 516.37 626.446 517.773 625.897C531.02 620.648 532.804 602.924 521.711 594.554C518.808 592.363 516.917 591.751 513.562 590.564L513.492 433.921C522.83 431.714 526.849 427.501 529.803 418.494Z"/><defs><linearGradient id="gradient_11" gradientUnits="userSpaceOnUse" x1="1048.9408" y1="302.08374" x2="931.79535" y2="443.43781"><stop offset="0" stop-color="white" stop-opacity="0.46666667"/><stop offset="1" stop-color="#F8F8F9" stop-opacity="0.84705883"/></linearGradient></defs><path fill="url(#gradient_11)" d="M973.091 264.228C973.564 267.052 973.571 269.647 973.575 272.489C973.576 273.571 975.092 271.895 973.972 274.085C974.418 273.326 974.831 272.583 975.259 271.814L976.175 271.833C980.984 277.391 976.82 287.743 979.942 288.8C982.086 287.775 983.901 286.643 986.034 287.752C991.554 290.623 998.315 288.955 1005.14 290.464C1009.56 291.441 1018.32 294.712 1021.81 294.653C1022.45 292.4 1023.27 284.521 1021.96 282.34C1021.87 282.187 1020.98 281.418 1020.87 281.321L1021.29 280.561C1022.7 281.077 1022.19 280.873 1023.36 282.048L1024 281.693L1024 317.857L1024 462.693C1021.4 459.541 1020.51 451.881 1018.31 450.086C1015.14 451.764 1015.78 459.074 1012.92 461.352C1010.33 461.901 1008.46 459.451 1005.01 458.358C1003.08 459.123 1000.47 460.256 998.539 460.822C991.659 456.089 990.919 454.639 984.15 460.123C982.188 458.146 980.284 456.334 978.563 454.139C977.022 459.962 975.989 465.715 974.763 471.596C974.386 473.406 974.022 476.854 973.601 478.273L973.128 478.365C972.747 411.324 972.732 344.282 973.083 277.241C972.898 273.033 973.041 268.466 973.091 264.228Z"/><path fill="#FEFEFE" fill-opacity="0.4509804" d="M1005.01 458.358C1008.46 459.451 1010.33 461.901 1012.92 461.352C1015.78 459.074 1015.14 451.764 1018.31 450.086C1020.51 451.881 1021.4 459.541 1024 462.693L1024 536.704C1020.68 528.515 1023.52 522.034 1021.57 517.234C1020.04 515.988 1020.85 516.163 1019.22 516.121C1015.83 518.417 1017.65 523.527 1013.52 525.138C1013.04 525.648 1011.19 524.163 1011.07 523.801C1008.24 515.349 1007.83 518.019 1000.56 515.13C998.349 514.251 997.032 506.962 995.563 505.801C991.389 502.505 983.636 500.094 982.113 494.278C981.607 492.334 980.835 489.279 978.688 488.311C977.057 492.013 976.613 496.388 974.462 500.098L974.297 499.922C973.133 501.292 973.479 501.173 973.117 503.246C973.006 494.953 973.009 486.658 973.128 478.365L973.601 478.273C974.022 476.854 974.386 473.406 974.763 471.596C975.989 465.715 977.022 459.962 978.563 454.139C980.284 456.334 982.188 458.146 984.15 460.123C990.919 454.639 991.659 456.089 998.539 460.822C1000.47 460.256 1003.08 459.123 1005.01 458.358Z"/><path fill="#FEFEFE" fill-opacity="0.13333334" d="M840.955 140.235C844.734 138.14 848.569 138.247 852.693 139.063C854.63 138.38 854.891 138.355 856.481 137.128L854.201 136.873C860.137 134.524 872.583 152.852 874.58 157.579C873.915 160.226 872.729 163.854 873.287 166.403C874.551 166.976 875.227 166.932 876.629 167.123C864.779 167.541 852.579 167.066 840.716 167.262C806.512 167.824 771.108 166.515 736.997 167.307C746.509 166.951 757.949 167.252 767.575 167.254L826.522 167.261C834.754 167.261 856.792 167.826 863.625 166.072L863.857 165.338C861.936 162.364 857.874 160.106 855.942 157.588C850.98 151.121 846.534 146.08 840.955 140.235Z"/><path fill="#FEFEFE" fill-opacity="0.65098041" d="M649.603 932.374C652.3 931.373 651.836 930.779 653.514 929.316C657.303 926.012 665.147 928.636 669.986 928.403C671.868 928.313 674.688 928.52 676.723 928.547L673.082 929.155L673.721 929.116C668.342 943.138 664.995 941.342 651.851 938.886C649.458 938.439 647.857 938.833 645.177 937.969C646.657 935.957 647.876 934.194 649.603 932.374Z"/></svg>