<?xml version="1.0" encoding="utf-8" ?><svg xmlns="http://www.w3.org/2000/svg" xmlns:xlink="http://www.w3.org/1999/xlink" width="1024" height="1024" viewBox="0 0 1024 1024"><path fill="#301305" d="M440.63 310.012C441.974 309.762 443.994 310.923 444.448 312.093C447.958 321.135 452.726 329.614 456.441 338.548C458.282 342.977 459.641 347.762 461.325 352.274C463.389 357.801 466.649 363.326 468.179 368.974C484.258 364.899 493.806 362.133 510.286 361.71C531.717 361.161 546.086 363.279 566.072 370.51C575.097 351.554 583.302 329.24 594.559 311.719C597.155 312.76 598.123 313.086 600.848 313.68C591.071 333.013 585.164 352.757 572.221 371.938C587.478 378.504 601.6 384.642 614.008 395.756C626.403 406.858 637.854 417.31 646.939 431.514C652.535 441.338 661.344 456.352 664.09 467.328C669.966 490.81 671.807 517.803 667.506 541.242C675.794 544.192 694.537 543.178 703.712 544.011C709.779 544.561 717.742 542.557 722.929 546.698L722.97 547.539C720.684 550.655 718.806 550.307 715.244 550.261C699.493 550.055 681.638 550.975 665.977 548.93C653.725 591.924 631.406 623.641 592.568 647.027C599.785 661.443 607.276 677.47 614.054 692.163C615.231 694.715 613.357 703.803 609.272 704.466C608.029 703.949 607.562 703.84 606.965 702.472C600.015 686.552 593.26 666.974 583.909 652.428L583.537 651.856C573.081 657.635 558.037 662.372 546.378 664.673C524.501 669.11 492.917 666.845 471.904 659.639C461.173 655.958 453.797 652.11 443.882 647.249C439.1 660.771 426.048 677.865 418.762 690.373C414.11 698.359 405.39 714.955 398.884 720.182C397.427 718.665 393.238 714.072 393.67 712.076C395 705.925 403.145 697.898 406.241 692.81C415.607 677.418 423.989 662.022 436.097 648.606C437.766 646.757 439.789 647.132 442.439 647.091L442.722 646.684C439.898 644.11 436.614 642.527 433.57 640.304C429.144 637.071 424.625 633.495 420.444 629.949C411.401 622.39 403.223 613.852 396.06 604.492C393.29 600.923 389.803 595.601 387.308 592.567C372.732 605.038 323.81 627.349 303.909 631.436C302.603 631.704 301.401 631.842 300.29 630.953C298.991 629.913 298.529 628.5 298.42 626.879C299.914 625.99 306.043 624.286 308.178 623.551C313.792 621.618 319.35 619.726 324.854 617.459C345.559 608.947 365.654 599.02 384.996 587.747C379.07 577.206 375.415 569.441 371.238 558.311C361.962 533.594 361.978 504.273 367.58 478.694C370.18 466.826 371.105 460.013 376.998 448.521C395.659 412.132 423.013 385.27 462.087 371.95C458.065 361.672 452.493 351.466 448.685 340.726C445.501 331.749 438.448 323.141 437.471 312.827C438.653 311.842 439.512 311.071 440.63 310.012ZM374.78 488.421C375.959 490.62 377.104 492.835 378.216 495.068C377.536 501.417 380.341 505.073 384.017 510.169C385.557 507.701 385.716 507.16 387.923 505.406L387.688 504.702L387.219 504.609C380.405 503.303 382.538 488.189 386.363 485.694L387.022 486.091C387.899 490.139 388.474 494.246 388.742 498.38L388.533 498.245L392.48 501.221C393.631 501.792 395.222 503.075 395.613 504.235C396.744 507.587 397.863 517.622 396.523 520.484C395.754 522.159 394.278 523.404 392.497 523.881C387.831 525.117 382.185 521.041 380.301 516.928C379.78 515.641 380.578 511.51 379.902 510.612C376.465 506.047 376.217 506.049 375.087 500.678L373.528 500.624C371.658 502.522 371.965 506.685 372.002 509.223C373.077 582.193 428.538 646.731 500.864 657.882C508.006 658.983 517.144 658.116 524.441 658.378C559.144 657.442 595.187 640.427 618.964 615.373C626.266 607.68 642.796 587.798 645.604 578.344C648.654 568.073 650.846 542.48 651.331 531.999C648.433 534.515 644.348 537.629 640.516 538.301C643.674 557.074 609.418 554.992 604.702 565.462C604.927 566.322 605.282 566.828 604.822 567.298C602.659 569.511 596.142 574.405 593.621 575.693C590.424 575.089 589.481 571.486 588.03 568.769C582.785 573.961 575.93 582.24 570.087 585.409C568.789 584.994 566.996 584.383 565.842 583.616C553.257 575.262 540.978 566.447 528.364 558.13C525.521 556.255 521.524 553.921 518.947 551.833C513.651 548.72 512.709 548.279 506.655 547.544C497.352 551.208 497.956 554.73 485.021 557.007L484.269 556.76C481.497 555.828 478.77 555.155 477.271 552.253C475.903 549.604 478.119 546.56 478.033 545.151C467.386 543.823 467.847 542.641 459.454 535.37C458.113 534.715 456.712 533.773 455.332 533.946C451.293 538.219 436.762 557.076 434.189 561.852C434.621 563.681 435.54 564.004 437.396 565.166C441.278 567.795 458.3 578.986 457.884 583.485C454.554 584.991 437.139 570.93 433.794 568.085L430.671 565.533C428.257 568.212 425.162 574.97 421.712 575.125C414.216 571.525 393.788 552.647 386.887 546.248C385.737 545.181 385.797 544.772 385.802 543.533C386.668 542.098 386.071 542.515 387.531 542.086C390.563 542.88 407.289 556.801 410.469 559.751C413.55 555.023 417.761 550.163 421.31 545.689C427.37 537.964 433.5 530.293 439.7 522.679L439.54 521.406C432.08 516.83 422.312 508.456 414.208 505.708C406.59 507.617 404.011 509.696 399.201 502.852C399.305 501.488 399.418 500.124 399.539 498.761C400.811 497.078 401.31 496.672 401.591 494.59L402.225 494.312C403.168 495.324 403.314 495.561 404.448 496.316C403.834 490.672 391.698 480.63 394.5 474.883C397.328 474.003 400.382 479.157 403.656 480.076C405.559 480.61 408.042 480.562 410.006 480.612C410.917 481.528 410.438 481.146 411.418 481.787C414.799 480.156 427.567 464.355 428.142 460.626C428.888 455.782 429.292 438.037 428.043 433.194C426.243 426.212 421.215 425.558 422.647 415.77L422.746 415.133C425.438 411.036 427.832 407.742 430.835 403.866C432.235 400.528 436.14 398.389 436.792 394.572C412.127 410.085 393.874 432.879 382.466 459.705C378.321 469.451 376.725 478.123 374.78 488.421ZM511.214 393.023L511.009 392.352L511.406 391.4C511.252 389.899 508.635 386.464 507.53 384.495C509.486 383.256 509.768 383.199 510.997 381.325C511.136 380.102 511.003 380.307 511.583 379.136C509.428 378.203 508.537 377.655 506.515 376.412L505.551 376.649L504.401 376.103C503.644 374.502 503.467 373.394 504.631 371.953L503.653 370.897L503.167 370.926C498.641 371.166 480.06 370.826 476.592 372.495C474.879 375.138 476.374 375.372 475.591 376.971C475.671 378.555 475.874 379.896 475.58 381.418L475.696 382.797L476.526 383.205C477.894 382.447 477.435 382.977 478.058 381.663C478.809 383.414 476.423 390.587 476.605 394.554C478.687 398.353 479.871 394.849 478.746 398.741C478.028 401.223 476.807 403.942 475.064 405.872L474.09 406.162C473.038 404.924 473.413 405.646 473.225 403.798C469.954 404.683 470.346 404.08 467.107 403.386L466.122 405.061L465.213 405.079L464.093 403.887C462.838 404.798 460.403 410.515 459.761 412.23C460.231 413.606 460.378 413.892 461.076 415.176C460.924 416.773 461.233 416.118 460.216 417.25C457.739 416.076 456.35 410.475 454.648 408.167C453.071 410.327 455.403 410.51 453.794 412.742C451.188 416.356 445.863 418.803 444.529 422.848C443.798 425.064 442.711 428.956 440.715 430.035C439.92 428.91 440.423 429.181 439.358 428.774C438 429.383 438.131 429.511 436.677 429.537C434.25 428.671 433.235 429.107 430.68 430.038C431.938 439.784 432.68 454.412 429.746 463.916C428.914 466.611 423.936 473.47 421.953 475.776C417.701 480.722 416.333 484.748 409.344 483.464C408.096 485.165 408.115 485.415 407.569 487.514C408.42 488.39 408.917 488.785 409.874 489.553C411.289 493.501 411.382 497.656 411.52 501.829C421.201 504.495 434.985 512.911 442.49 519.619C449.096 523.996 454.667 527.726 460.994 532.464C468.945 538.688 469.621 540.221 479.611 541.716C493.337 532.484 512.648 526.717 528.879 530.208C544.97 533.669 539.287 538.048 558.483 532.778L564.937 528.954C563.198 526.281 561.665 524.672 561.972 521.518C563.304 518.878 565.122 518.512 567.902 517.565C578.906 512.367 583.175 513.789 593.526 503.864C596.787 500.359 601.311 493.581 603.809 489.42C606.308 479.285 610.12 473.613 605.69 464.113C604.232 463.009 602.628 461.938 601.119 460.89C599.906 458.212 596.208 452.447 595.688 450.765C593.711 444.371 596.941 443.673 592.617 437.007C588.992 435.111 587.872 435.257 583.81 434.995C581.488 432.448 573.387 425.627 573.121 423.563C571.924 414.253 580.374 407.514 576.805 397.226C574.96 397.969 574.271 400.579 572.295 401.874C566.436 405.715 555.426 404.101 551.478 398.094C551.137 395.458 553.199 395.601 553.754 393.06C553.758 393.039 553.921 390.047 553.936 389.77C549.76 388.065 549.051 387.519 545.62 384.791C542.898 376.088 547.555 376.392 554.283 375.572C548.16 371.919 514.767 367.228 509.373 370.512C510.055 371.878 510.445 372.705 511.324 373.986C514.996 378.785 515.36 379.014 514.989 385.6C519.504 391.013 523.875 384.291 525.797 393.394C529.284 392.605 534.708 391.005 536.145 395.197C535.567 400.383 524.83 411.92 521.487 408.063C521.593 406.054 522.712 405.658 524.266 404.42C524.028 401.24 522.208 399.986 522.099 395.795C521.419 393.625 521.864 391.965 520.578 390.023C518.185 389.714 516.977 391.861 514.652 392.238C513.441 392.435 512.399 392.727 511.214 393.023ZM599.471 504.459C594.541 508.128 584.707 514.207 581.098 517.23C585.269 522.171 586.454 523.884 589.268 529.652C596.897 539.419 598.463 547.936 603.177 559.525C609.566 557.05 615.835 554.673 622.412 552.722C627.334 550.647 631.602 548.327 635.436 544.592L636.958 538.601C630.836 539.801 626.263 539.613 620.065 539.459C613.557 535.169 611.792 529.854 608.448 523.012C603.889 515.442 602.416 512.681 599.471 504.459ZM600.449 403.548C601.245 407.001 601.41 408.325 601.666 411.847L601.219 412.338C597.527 416.328 596.266 417.183 591.191 417.393C590.575 419.252 590.621 419.82 590.506 421.815C591.738 423.985 594.593 423.723 597.009 424.289C599.376 436.124 598.634 437.445 598.403 449.559C603.095 453.734 600.899 454.324 602.682 456.793C605.696 460.969 609.501 460.666 610.593 467.083C611.218 466.791 611.025 466.984 611.286 466.649C611.671 460.324 614.2 457.816 617.941 453.974C617.941 452.49 618.227 453.066 617.368 452.081C614.553 454.062 611.763 454.149 609.674 451.922C603.227 444.885 604.431 426.717 617.451 427.787C626.256 428.511 629.144 429.94 635.515 435.742C633.098 429.004 626.364 421.538 621.448 416.09C610.149 403.535 596.741 393.053 581.83 385.12C578.36 383.306 573.969 380.909 570.04 380.716C570.556 383.085 570.876 385.166 570.661 387.621C570.391 390.699 564.454 395.161 567.084 397.296C571.884 397.516 570.723 385.866 576.139 385.863C582.545 385.86 589.833 392.385 594.796 396.061C595.75 396.821 596.742 400.138 600.449 403.548ZM560.156 535.343C546.113 542.383 528.613 533.825 514.364 532.937C506.298 532.434 482.494 540.108 479.653 548.219C479.713 550.253 480.052 550.52 481.167 552.335C487.95 556.764 500.877 544.158 507.579 543.46C514.019 543.71 518.992 543.216 523.06 549.066C526.692 552.183 533.693 556.6 537.871 559.343C548.981 566.636 558.642 572.679 568.697 581.448C572.55 577.666 582.987 569.009 587.344 566.264C581.291 549.725 576.305 546.263 567.227 531.392C564.455 533.464 563.415 534.226 560.156 535.343ZM403.316 503.134L406.28 505.276C407.3 503.708 408.364 502.296 408.904 500.508C408.3 498.5 408.893 499.145 407.428 498.214C406.889 500.321 406.887 500.754 405.702 502.507L404.833 502.694C404.105 501.971 403.436 501.296 402.738 500.545L402.02 500.944C402.092 502.451 401.85 501.772 402.894 502.999L403.316 503.134ZM567.511 380.526C566.063 377.924 562.392 376.404 559.599 377.205C562.457 378.779 564.285 380.011 567.511 380.526ZM442.065 422.716C443.06 419.429 444.437 416.137 443.367 412.863C440.463 410.544 435.47 414.653 431.082 412.986C426.364 411.676 428.567 413.199 425.55 416.064C425.313 421.453 425.322 422.387 428.689 426.998C428.29 427.942 428.624 427.581 427.639 428.035C430.526 428.82 433.643 424.567 438.499 426.263L442.065 422.716ZM617.555 447.71C618.849 445.408 619.877 439.185 617.595 437.309L617.575 437.842C617.318 443.326 615.267 441.01 617.555 447.71ZM610.461 521.08C613.603 530.466 618.295 537.822 629.1 536.225C632.412 535.735 637.725 535.666 640.722 534.775C640.843 534.561 640.965 534.348 641.087 534.134C657.712 512.722 655.418 539.521 653.977 550.355C653.411 554.607 653.042 560.148 652.962 563.766C654.127 560.399 657.657 551.25 658.126 548.514C659.681 539.436 661.35 527.578 662.082 518.734C662.981 507.863 657.684 460.262 649.156 455.279C648.088 457.496 648.215 457.932 645.761 458.247C643.174 457.351 641.31 454.461 639.624 452.266L638.809 454.604C637.01 459.882 634.084 458.969 629.182 459.048C626.768 456.62 625 454.992 623.351 451.966C621.607 455.422 617.827 457.772 616.311 460.842C611.637 470.308 611.06 481.057 606.656 490.599C604.586 494.145 601.302 498.79 599.912 502.282C603.458 507.098 608.513 515.442 610.461 521.08ZM443.724 403.607C440.982 404.254 438.553 405.086 438.567 408.393C441.337 410.415 446.633 406.816 446.808 410.279C446.933 412.768 446.476 412.439 447.273 415.545C449.035 413.811 449.621 413.384 450.827 411.292C450.794 408.753 450.561 409.794 449.6 407.976C449.363 407.527 450.705 406.517 450.078 404.284C447.866 403.064 446.051 404.364 443.724 403.607Z"/><path fill="#130F0A" d="M494.978 620.809C493.778 620.502 481.029 613.186 478.861 612.066C478.434 611.846 476.055 607.64 475.224 607.561C472.206 607.275 471.699 607.963 469.216 606.012C467.388 604.577 466.507 599.137 466.207 599.103C463.08 598.75 458.383 599.528 455.36 597.223C454.072 596.241 453.63 594.443 453.509 592.886C453.331 590.596 454.697 587.68 456.331 586.306C462.627 581.015 464.129 582.323 471.181 583.27C471.604 583.326 475.51 581.217 477.259 581.509C479.929 581.955 481.221 583.659 482.789 585.709L483.17 586.215C491.167 586.447 492.325 586.881 497.09 593.324L500.889 594.911C502.185 597.635 502.754 599.034 503.529 601.963C504.118 604.188 503.793 606.52 504.68 608.131C504.701 609.572 504.847 610.296 504.189 611.582C501.932 612.468 499.243 617.66 501.562 620.59C497.817 621.116 500.181 621.882 494.978 620.809ZM460.033 594.466C461.785 594.481 463.334 594.938 464.609 593.632C466.123 592.082 466.928 589.211 466.621 587.111L466.143 586.967C463.809 587.863 460.45 588.768 459.006 590.549C458.706 592.387 458.859 592.572 460.033 594.466ZM496.798 612.878C496.712 608.843 499.732 597.298 497.043 595.259C497.175 600.067 495.333 610.874 495.699 612.995C496.507 613.182 496.145 613.249 496.798 612.878Z"/><path fill="#B6AFAD" fill-opacity="0.94509804" d="M497.043 595.259C499.732 597.298 496.712 608.843 496.798 612.878C496.145 613.249 496.507 613.182 495.699 612.995C495.333 610.874 497.175 600.067 497.043 595.259Z"/><path fill="#040402" d="M547.449 619.335C550.615 618.717 554.404 617.902 555.047 614.188C554.937 613.753 554.828 613.318 554.718 612.883C546.238 605.973 524.296 594.085 517.057 587.528C516.4 585.838 516.344 586.602 516.87 585.16C522.865 582.88 551.824 609.25 560.485 609.039C564.348 608.945 564.958 605.105 564.368 602.263C563.813 599.591 555.479 595.596 552.948 594.161C555.393 593.604 555.742 593.611 556.855 591.336C561.129 593.647 569.507 599.989 573.48 598.98C576.584 595.75 571.782 592.649 571.28 589.321C574.989 588.919 582.937 595.661 578.556 599.683C575.28 602.691 574.163 603.419 569.808 603.134C568.231 604.592 567.989 608.509 567.645 610.795C565.332 612.138 562.641 614.053 559.845 613.12C558.743 615.607 557.587 618.257 556.286 620.631C552.993 622.625 551.668 623.188 547.827 624.288C545.854 623.312 543.522 622.232 541.645 621.143C532.581 634.046 521.839 620.81 515.888 621.89C516.118 628.838 508.008 627.322 503.226 626.781C503.078 628.589 504.264 630.51 503.798 633.624C502.65 641.288 505.759 644.697 509.844 650.502C509.752 651.803 509.795 652.89 509.242 654.059C501.448 647.067 499.181 636.323 501.797 626.456C499.08 623.812 498.091 622.949 494.978 620.809C500.181 621.882 497.817 621.116 501.562 620.59C504.906 623.471 510.382 625.344 513.597 621.384C512.761 617.007 505.72 615.265 504.189 611.582C504.847 610.296 504.701 609.572 504.68 608.131C509.977 610.908 514.1 614.725 519.174 617.562C522.493 619.418 527.971 620.75 531.915 622.111C534.377 621.432 536.555 620.418 538.904 619.418C533.866 614.747 527.24 610.6 521.6 606.628C518.787 604.647 512.977 602.971 512.808 598.851L513.686 598.174C520.804 598.416 539.29 615.082 547.449 619.335Z"/><path fill="#040402" d="M543.492 588.277C539.547 586.007 521.036 575.08 520.085 571.656L520.796 571.154C525.317 571.156 540.208 580.818 545.129 583.752C543.257 584.8 543.238 584.391 542.656 585.925L543.492 588.277Z"/><path fill="#040402" d="M526.593 644.75C531.39 637.647 537.831 635.089 545.797 633.274C547.709 632.839 551.317 630.79 552.984 631.879C549.797 639.788 534.401 636.85 528.876 647.429C528.011 646.217 527.601 645.812 526.593 644.75Z"/><defs><linearGradient id="gradient_0" gradientUnits="userSpaceOnUse" x1="518.27637" y1="649.85614" x2="520.06262" y2="654.99921"><stop offset="0" stop-color="#170E0B" stop-opacity="0.97647059"/><stop offset="1" stop-color="#331A0D"/></linearGradient></defs><path fill="url(#gradient_0)" d="M526.593 644.75C527.601 645.812 528.011 646.217 528.876 647.429C526.731 651.916 525.222 654.617 520.168 656.263C516.469 657.467 512.141 656.492 509.242 654.059C509.795 652.89 509.752 651.803 509.844 650.502C516.594 655.259 522.833 650.703 526.593 644.75Z"/><path fill="#210F06" d="M545.129 583.752C548.973 586.202 553.132 588.747 556.855 591.336C555.742 593.611 555.393 593.604 552.948 594.161C549.669 592.226 546.611 590.461 543.492 588.277L542.656 585.925C543.238 584.391 543.257 584.8 545.129 583.752Z"/><path fill="#040402" d="M464.514 412.697C466.487 414.726 466.858 414.678 466.666 417.86C467.07 418.817 468.617 423.032 469.082 423.477C474.691 428.847 477.644 431.343 476.072 440.385L475.669 447.551C477.532 449.125 479.821 446.635 480.376 449.511C479.707 451.139 479.797 451.236 478.342 452.318C475.796 452.913 474.499 451.572 471.878 451.526C470.307 451.499 463.873 456.133 463.003 456.331C458.481 457.359 445.787 461.4 441.712 458.973C440.862 458.466 440.964 458.171 440.57 457.23C440.933 453.121 444.718 450.154 444.962 447.999C445.877 439.895 448.05 439.659 455.404 435.381C458.182 438.713 462.008 440.636 460.502 445.263C467.065 440.064 462.169 436.833 473.048 433.637C473.267 429.341 456.838 418.436 464.514 412.697ZM460.793 451.877C460.93 451.093 460.275 446.886 460.192 445.427C457.498 447.905 455.036 449.975 453.779 453.501L453.985 454.56C456.755 455.515 459.182 454.175 460.793 451.877ZM448.329 455.43L449.059 454.816C450.174 453.897 450.567 453.767 451.872 453.173C451.415 452.259 451.196 451.85 450.633 451.001L451.014 448.985C450.268 448.535 450.594 448.602 450.115 448.548C447.902 449.862 447.322 449.963 446.264 452.154C446.398 453.575 446.83 454.843 448.329 455.43Z"/><path fill="#130F0A" d="M464.514 412.697C466.487 414.726 466.858 414.678 466.666 417.86C467.07 418.817 468.617 423.032 469.082 423.477C474.691 428.847 477.644 431.343 476.072 440.385L474.615 440.69C473.361 443.132 471.345 448.016 469.737 449.71L469.133 449.731L468.818 448.236L466.797 450.129L465.306 448.835L464.745 449.034L464.613 449.642C464.204 451.446 464.239 452.06 462.87 453.291L461.969 453.311C461.412 452.72 461.16 452.57 460.793 451.877C460.93 451.093 460.275 446.886 460.192 445.427L460.502 445.263C467.065 440.064 462.169 436.833 473.048 433.637C473.267 429.341 456.838 418.436 464.514 412.697Z"/><path fill="#040402" d="M464.514 412.697C462.888 409.037 466.191 404.795 469.953 406.564C470.824 408.167 470.662 407.326 470.384 409.188C467.598 412.764 467.618 411.702 467.889 415.97C467.297 417.216 467.574 416.886 466.666 417.86C466.858 414.678 466.487 414.726 464.514 412.697Z"/><path fill="#130F0A" d="M593.526 503.864C594.845 503.945 598.482 504.02 599.471 504.459C594.541 508.128 584.707 514.207 581.098 517.23C585.269 522.171 586.454 523.884 589.268 529.652C596.897 539.419 598.463 547.936 603.177 559.525C609.566 557.05 615.835 554.673 622.412 552.722L622.716 553.769C618.745 555.278 610.22 557.146 607.274 559.389C607.498 560.551 607.26 560.019 608.24 560.878C612.842 557.053 617.202 557.565 621.742 555.513C629.971 551.793 635.798 552.043 638.293 542.246C638.455 541.611 639.456 538.33 639.735 537.818L640.516 538.301C643.674 557.074 609.418 554.992 604.702 565.462C604.927 566.322 605.282 566.828 604.822 567.298C602.659 569.511 596.142 574.405 593.621 575.693C590.424 575.089 589.481 571.486 588.03 568.769C582.785 573.961 575.93 582.24 570.087 585.409C568.789 584.994 566.996 584.383 565.842 583.616C553.257 575.262 540.978 566.447 528.364 558.13C525.521 556.255 521.524 553.921 518.947 551.833C521.923 551.886 521.616 551.392 523.06 549.066C526.692 552.183 533.693 556.6 537.871 559.343C548.981 566.636 558.642 572.679 568.697 581.448C572.55 577.666 582.987 569.009 587.344 566.264C581.291 549.725 576.305 546.263 567.227 531.392C564.455 533.464 563.415 534.226 560.156 535.343C558.459 534.087 555.113 537.669 551.991 536.055L552.377 535.327C554.554 534.822 556.076 534.313 558.204 533.599L558.483 532.778L564.937 528.954C563.198 526.281 561.665 524.672 561.972 521.518C563.304 518.878 565.122 518.512 567.902 517.565C578.906 512.367 583.175 513.789 593.526 503.864Z"/><path fill="#040402" d="M593.526 503.864C594.845 503.945 598.482 504.02 599.471 504.459C594.541 508.128 584.707 514.207 581.098 517.23C585.269 522.171 586.454 523.884 589.268 529.652C586.099 528.541 585.767 526.72 584.502 523.765C582.618 519.363 577.59 520.682 573.771 520.075C570.28 519.52 569.531 520.921 567.902 517.565C578.906 512.367 583.175 513.789 593.526 503.864Z"/><path fill="#130F0A" d="M545.62 384.791C542.898 376.088 547.555 376.392 554.283 375.572L554.783 376.38C556.707 376.435 557.733 377.257 559.599 377.205C562.457 378.779 564.285 380.011 567.511 380.526L568.503 381.209L570.04 380.716C570.556 383.085 570.876 385.166 570.661 387.621C570.391 390.699 564.454 395.161 567.084 397.296C571.884 397.516 570.723 385.866 576.139 385.863C582.545 385.86 589.833 392.385 594.796 396.061C595.75 396.821 596.742 400.138 600.449 403.548C601.245 407.001 601.41 408.325 601.666 411.847L601.219 412.338C597.527 416.328 596.266 417.183 591.191 417.393C590.575 419.252 590.621 419.82 590.506 421.815C591.738 423.985 594.593 423.723 597.009 424.289C599.376 436.124 598.634 437.445 598.403 449.559C603.095 453.734 600.899 454.324 602.682 456.793C605.696 460.969 609.501 460.666 610.593 467.083C611.218 466.791 611.025 466.984 611.286 466.649C611.383 467.477 611.285 467.375 611.039 468.252L610.378 468.154C608.503 463.943 604.567 460.462 602.026 456.629C600.077 453.689 600.358 452.364 597.5 449.75C597.387 445.772 599.093 437.305 596.339 434.727L594.994 434.788L593.777 436.319L592.617 437.007C588.992 435.111 587.872 435.257 583.81 434.995C581.488 432.448 573.387 425.627 573.121 423.563C571.924 414.253 580.374 407.514 576.805 397.226C574.96 397.969 574.271 400.579 572.295 401.874C566.436 405.715 555.426 404.101 551.478 398.094C551.137 395.458 553.199 395.601 553.754 393.06C553.758 393.039 553.921 390.047 553.936 389.77C549.76 388.065 549.051 387.519 545.62 384.791Z"/><path fill="#130F0A" d="M439.54 521.406L440.079 520.224L442.49 519.619C449.096 523.996 454.667 527.726 460.994 532.464C460.598 533.742 460.514 534.603 459.454 535.37C458.113 534.715 456.712 533.773 455.332 533.946C451.293 538.219 436.762 557.076 434.189 561.852C434.621 563.681 435.54 564.004 437.396 565.166C437.029 567.416 437.463 566.942 436.086 568.103C435.226 568.122 434.652 568.159 433.794 568.085L430.671 565.533C428.257 568.212 425.162 574.97 421.712 575.125C414.216 571.525 393.788 552.647 386.887 546.248C385.737 545.181 385.797 544.772 385.802 543.533C386.668 542.098 386.071 542.515 387.531 542.086C390.563 542.88 407.289 556.801 410.469 559.751C413.55 555.023 417.761 550.163 421.31 545.689C427.37 537.964 433.5 530.293 439.7 522.679L439.54 521.406Z"/><path fill="#211B15" d="M432.475 540.422C434.979 540.538 436.196 539.975 436.418 542.505C435.048 544.999 434.297 546.103 433.969 549.025C432.858 548.824 432.929 548.956 431.983 548.452C430.656 545.888 431.964 544.026 432.339 541.407L432.475 540.422Z"/><defs><linearGradient id="gradient_1" gradientUnits="userSpaceOnUse" x1="450.73605" y1="428.27301" x2="449.85556" y2="378.86792"><stop offset="0" stop-color="#050505"/><stop offset="1" stop-color="#291005"/></linearGradient></defs><path fill="url(#gradient_1)" d="M442.218 390.515C442.962 390.262 442.804 390.007 443.328 389.583C450.622 383.676 462.299 378.215 471.519 378.894C472.042 379.903 471.701 379.482 472.511 380.181L473.381 379.661C474.044 378.374 474.232 377.672 475.591 376.971C475.671 378.555 475.874 379.896 475.58 381.418L475.696 382.797L476.526 383.205C477.894 382.447 477.435 382.977 478.058 381.663C478.809 383.414 476.423 390.587 476.605 394.554C478.687 398.353 479.871 394.849 478.746 398.741C478.028 401.223 476.807 403.942 475.064 405.872L474.09 406.162C473.038 404.924 473.413 405.646 473.225 403.798C469.954 404.683 470.346 404.08 467.107 403.386L466.122 405.061L465.213 405.079L464.093 403.887C462.838 404.798 460.403 410.515 459.761 412.23C460.231 413.606 460.378 413.892 461.076 415.176C460.924 416.773 461.233 416.118 460.216 417.25C457.739 416.076 456.35 410.475 454.648 408.167C453.071 410.327 455.403 410.51 453.794 412.742C451.188 416.356 445.863 418.803 444.529 422.848C443.798 425.064 442.711 428.956 440.715 430.035C439.92 428.91 440.423 429.181 439.358 428.774C438 429.383 438.131 429.511 436.677 429.537L436.969 427.991C437.668 427.13 437.874 427.041 438.917 426.672L438.499 426.263L442.065 422.716C443.06 419.429 444.437 416.137 443.367 412.863C440.463 410.544 435.47 414.653 431.082 412.986C426.364 411.676 428.567 413.199 425.55 416.064L422.746 415.133C425.438 411.036 427.832 407.742 430.835 403.866C432.235 400.528 436.14 398.389 436.792 394.572C438.256 393.598 439.967 392.586 440.739 390.942L442.218 390.515ZM447.273 415.545C449.035 413.811 449.621 413.384 450.827 411.292C450.794 408.753 450.561 409.794 449.6 407.976C449.363 407.527 450.705 406.517 450.078 404.284C447.866 403.064 446.051 404.364 443.724 403.607C440.982 404.254 438.553 405.086 438.567 408.393C441.337 410.415 446.633 406.816 446.808 410.279C446.933 412.768 446.476 412.439 447.273 415.545Z"/><path fill="#211B15" d="M436.792 394.572C438.256 393.598 439.967 392.586 440.739 390.942L442.218 390.515C442.099 394.57 440.668 401.527 436.825 403.541C436.379 403.139 435.933 402.738 435.486 402.337C433.681 402.978 432.46 404.056 431.094 404.528L430.835 403.866C432.235 400.528 436.14 398.389 436.792 394.572Z"/><path fill="#040402" d="M475.312 394.751L476.605 394.554C478.687 398.353 479.871 394.849 478.746 398.741C478.028 401.223 476.807 403.942 475.064 405.872L474.09 406.162C473.038 404.924 473.413 405.646 473.225 403.798C473.769 402.18 473.749 398.307 474.134 397.062C474.393 396.223 474.831 397.24 475.312 394.751Z"/><path fill="#211B15" d="M478.058 381.663C478.809 383.414 476.423 390.587 476.605 394.554L475.312 394.751C473.17 392.639 473.158 383.215 475.58 381.418L475.696 382.797L476.526 383.205C477.894 382.447 477.435 382.977 478.058 381.663Z"/><path fill="#130F0A" d="M422.746 415.133C425.438 411.036 427.832 407.742 430.835 403.866L431.094 404.528C430.107 407.092 429.778 407.709 427.919 409.728C428.577 411.378 429.76 410.809 431.082 412.986C426.364 411.676 428.567 413.199 425.55 416.064L422.746 415.133Z"/><path fill="#FEFEFE" fill-opacity="0.0078431377" d="M570.04 380.716C573.969 380.909 578.36 383.306 581.83 385.12C596.741 393.053 610.149 403.535 621.448 416.09C626.364 421.538 633.098 429.004 635.515 435.742C629.144 429.94 626.256 428.511 617.451 427.787C604.431 426.717 603.227 444.885 609.674 451.922C611.763 454.149 614.553 454.062 617.368 452.081C618.227 453.066 617.941 452.49 617.941 453.974C614.2 457.816 611.671 460.324 611.286 466.649C611.025 466.984 611.218 466.791 610.593 467.083C609.501 460.666 605.696 460.969 602.682 456.793C600.899 454.324 603.095 453.734 598.403 449.559C598.634 437.445 599.376 436.124 597.009 424.289C594.593 423.723 591.738 423.985 590.506 421.815C590.621 419.82 590.575 419.252 591.191 417.393C596.266 417.183 597.527 416.328 601.219 412.338L601.666 411.847C601.41 408.325 601.245 407.001 600.449 403.548C596.742 400.138 595.75 396.821 594.796 396.061C589.833 392.385 582.545 385.86 576.139 385.863C570.723 385.866 571.884 397.516 567.084 397.296C564.454 395.161 570.391 390.699 570.661 387.621C570.876 385.166 570.556 383.085 570.04 380.716Z"/><defs><linearGradient id="gradient_2" gradientUnits="userSpaceOnUse" x1="502.08139" y1="423.86923" x2="488.82336" y2="369.61096"><stop offset="0" stop-color="black" stop-opacity="0.98823529"/><stop offset="1" stop-color="#291106"/></linearGradient></defs><path fill="url(#gradient_2)" d="M475.591 376.971C476.374 375.372 474.879 375.138 476.592 372.495C480.06 370.826 498.641 371.166 503.167 370.926L503.653 370.897L504.631 371.953C503.467 373.394 503.644 374.502 504.401 376.103L505.551 376.649C505.631 379.162 505.905 380.07 504.749 382.165C502.161 383.812 500.416 381.429 498.118 379.737C495.533 381.56 499.518 386.974 494.097 389.033C493.349 390.974 493.446 393.514 493.365 395.663L487.675 398.398C487.206 401.401 485.667 408.341 488.135 410.51C490.975 413.005 495.786 417.05 499.674 415.422C500.775 409.679 499.912 405.77 504.172 401.457C506.661 398.938 508.762 394.846 511.009 392.352L511.214 393.023C511.038 394.125 510.928 393.631 511.465 394.52L513.206 393.753L513.535 394.202C511.202 398.192 507.73 402.754 504.315 405.895C502.662 410.536 503.574 424.537 499.52 425.847C496.675 424.968 486.015 412.202 483.511 409.154C483.812 405.495 483.748 401.388 483.247 397.757C482.412 391.699 480.877 390.881 483.793 385.275C482.26 383.022 481.232 379.89 479.065 378.803C478.013 379.755 478.331 379.859 478.058 381.663C477.435 382.977 477.894 382.447 476.526 383.205L475.696 382.797L475.58 381.418C475.874 379.896 475.671 378.555 475.591 376.971Z"/><path fill="#040402" d="M422.746 415.133L425.55 416.064C425.313 421.453 425.322 422.387 428.689 426.998C428.29 427.942 428.624 427.581 427.639 428.035C430.526 428.82 433.643 424.567 438.499 426.263L438.917 426.672C437.874 427.041 437.668 427.13 436.969 427.991L436.677 429.537C434.25 428.671 433.235 429.107 430.68 430.038C431.938 439.784 432.68 454.412 429.746 463.916C428.914 466.611 423.936 473.47 421.953 475.776C417.701 480.722 416.333 484.748 409.344 483.464C408.096 485.165 408.115 485.415 407.569 487.514C408.42 488.39 408.917 488.785 409.874 489.553C411.289 493.501 411.382 497.656 411.52 501.829C421.201 504.495 434.985 512.911 442.49 519.619L440.079 520.224L439.54 521.406C432.08 516.83 422.312 508.456 414.208 505.708C406.59 507.617 404.011 509.696 399.201 502.852C399.305 501.488 399.418 500.124 399.539 498.761C400.811 497.078 401.31 496.672 401.591 494.59L402.225 494.312C403.168 495.324 403.314 495.561 404.448 496.316C403.834 490.672 391.698 480.63 394.5 474.883C397.328 474.003 400.382 479.157 403.656 480.076C405.559 480.61 408.042 480.562 410.006 480.612C410.917 481.528 410.438 481.146 411.418 481.787C414.799 480.156 427.567 464.355 428.142 460.626C428.888 455.782 429.292 438.037 428.043 433.194C426.243 426.212 421.215 425.558 422.647 415.77L422.746 415.133ZM403.316 503.134L406.28 505.276C407.3 503.708 408.364 502.296 408.904 500.508C408.3 498.5 408.893 499.145 407.428 498.214C406.889 500.321 406.887 500.754 405.702 502.507L404.833 502.694C404.105 501.971 403.436 501.296 402.738 500.545L402.02 500.944C402.092 502.451 401.85 501.772 402.894 502.999L403.316 503.134Z"/><path fill="#FEFEFE" fill-opacity="0.035294119" d="M407.428 498.214C408.893 499.145 408.3 498.5 408.904 500.508C408.364 502.296 407.3 503.708 406.28 505.276L403.316 503.134L402.894 502.999C401.85 501.772 402.092 502.451 402.02 500.944L402.738 500.545C403.436 501.296 404.105 501.971 404.833 502.694L405.702 502.507C406.887 500.754 406.889 500.321 407.428 498.214Z"/><path fill="#040402" d="M479.611 541.716C493.337 532.484 512.648 526.717 528.879 530.208C544.97 533.669 539.287 538.048 558.483 532.778L558.204 533.599C556.076 534.313 554.554 534.822 552.377 535.327L551.991 536.055C555.113 537.669 558.459 534.087 560.156 535.343C546.113 542.383 528.613 533.825 514.364 532.937C506.298 532.434 482.494 540.108 479.653 548.219C479.713 550.253 480.052 550.52 481.167 552.335C487.95 556.764 500.877 544.158 507.579 543.46C506.071 544.407 505.97 544.41 504.697 545.764L505.005 546.865C505.786 547.139 505.367 547.02 506.268 547.204L506.655 547.544C497.352 551.208 497.956 554.73 485.021 557.007L484.269 556.76C481.497 555.828 478.77 555.155 477.271 552.253C475.903 549.604 478.119 546.56 478.033 545.151C467.386 543.823 467.847 542.641 459.454 535.37C460.514 534.603 460.598 533.742 460.994 532.464C468.945 538.688 469.621 540.221 479.611 541.716Z"/><path fill="#130F0A" d="M375.087 500.678C378.302 502.766 374.819 501.895 377.294 503.324L377.895 502.791C377.01 500.025 376.353 500.814 375.98 497.385C376.717 495.417 376.099 496.246 378.216 495.068C377.536 501.417 380.341 505.073 384.017 510.169C385.557 507.701 385.716 507.16 387.923 505.406L387.688 504.702L387.219 504.609C387.544 502.971 387.616 502.457 388.281 500.87L389.151 500.601C390.627 501.242 390.87 501.267 392.48 501.221C393.631 501.792 395.222 503.075 395.613 504.235C396.744 507.587 397.863 517.622 396.523 520.484C395.754 522.159 394.278 523.404 392.497 523.881C387.831 525.117 382.185 521.041 380.301 516.928C379.78 515.641 380.578 511.51 379.902 510.612C376.465 506.047 376.217 506.049 375.087 500.678Z"/><path fill="#130F0A" d="M525.797 393.394C529.284 392.605 534.708 391.005 536.145 395.197C535.567 400.383 524.83 411.92 521.487 408.063C521.593 406.054 522.712 405.658 524.266 404.42C524.028 401.24 522.208 399.986 522.099 395.795C523.453 394.823 524.51 394.578 525.797 393.394Z"/><path fill="#040402" d="M610.461 521.08C613.603 530.466 618.295 537.822 629.1 536.225C632.412 535.735 637.725 535.666 640.722 534.775C639.754 536.508 639.663 536.404 637.939 537.254C637.522 538.394 637.488 538.507 637.498 539.718C637.565 547.627 629.167 551.372 622.716 553.769L622.412 552.722C627.334 550.647 631.602 548.327 635.436 544.592L636.958 538.601C630.836 539.801 626.263 539.613 620.065 539.459C613.557 535.169 611.792 529.854 608.448 523.012C609.659 522.171 609.456 522.238 610.461 521.08Z"/><path fill="#040402" d="M592.617 437.007L593.777 436.319C594.922 440.867 596.738 443.734 596.148 449.125C595.993 450.548 597.418 452.534 598.1 453.654C603.173 462.719 613.116 465.949 608.256 477.883L609.449 477.904C611.237 475.048 609.13 472.253 611.77 468.895C613.844 466.258 614.742 459.698 617.569 457.635C619.517 456.212 621.278 452.61 622.523 451.547C623.265 451.786 623.034 451.581 623.351 451.966C621.607 455.422 617.827 457.772 616.311 460.842C611.637 470.308 611.06 481.057 606.656 490.599C605.051 489.571 605.687 489.865 603.809 489.42C606.308 479.285 610.12 473.613 605.69 464.113C604.232 463.009 602.628 461.938 601.119 460.89C599.906 458.212 596.208 452.447 595.688 450.765C593.711 444.371 596.941 443.673 592.617 437.007Z"/><path fill="#040402" d="M437.396 565.166C441.278 567.795 458.3 578.986 457.884 583.485C454.554 584.991 437.139 570.93 433.794 568.085C434.652 568.159 435.226 568.122 436.086 568.103C437.463 566.942 437.029 567.416 437.396 565.166Z"/><path fill="#040402" d="M511.324 373.986C514.996 378.785 515.36 379.014 514.989 385.6C519.504 391.013 523.875 384.291 525.797 393.394C524.51 394.578 523.453 394.823 522.099 395.795C521.419 393.625 521.864 391.965 520.578 390.023C518.185 389.714 516.977 391.861 514.652 392.238C513.441 392.435 512.399 392.727 511.214 393.023L511.009 392.352L511.406 391.4C511.252 389.899 508.635 386.464 507.53 384.495C509.486 383.256 509.768 383.199 510.997 381.325C511.136 380.102 511.003 380.307 511.583 379.136C511.713 377.841 511.37 375.47 511.324 373.986Z"/><path fill="#130F0A" d="M603.809 489.42C605.687 489.865 605.051 489.571 606.656 490.599C604.586 494.145 601.302 498.79 599.912 502.282C603.458 507.098 608.513 515.442 610.461 521.08C609.456 522.238 609.659 522.171 608.448 523.012C603.889 515.442 602.416 512.681 599.471 504.459C598.482 504.02 594.845 503.945 593.526 503.864C596.787 500.359 601.311 493.581 603.809 489.42Z"/><path fill="#210F06" d="M507.579 543.46C514.019 543.71 518.992 543.216 523.06 549.066C521.616 551.392 521.923 551.886 518.947 551.833C513.651 548.72 512.709 548.279 506.655 547.544L506.268 547.204C505.367 547.02 505.786 547.139 505.005 546.865L504.697 545.764C505.97 544.41 506.071 544.407 507.579 543.46Z"/><path fill="#040402" d="M387.219 504.609C380.405 503.303 382.538 488.189 386.363 485.694L387.022 486.091C387.899 490.139 388.474 494.246 388.742 498.38L388.533 498.245L392.48 501.221C390.87 501.267 390.627 501.242 389.151 500.601L388.281 500.87C387.616 502.457 387.544 502.971 387.219 504.609Z"/><path fill="#130F0A" d="M509.373 370.512C510.055 371.878 510.445 372.705 511.324 373.986C511.37 375.47 511.713 377.841 511.583 379.136C509.428 378.203 508.537 377.655 506.515 376.412L505.551 376.649L504.401 376.103C503.644 374.502 503.467 373.394 504.631 371.953C506.963 372.037 507.547 371.709 509.373 370.512Z"/><path fill="#FEFEFE" fill-opacity="0.019607844" d="M617.595 437.309C619.877 439.185 618.849 445.408 617.555 447.71C615.267 441.01 617.318 443.326 617.575 437.842L617.595 437.309Z"/><path fill="#FEFEFE" fill-opacity="0.023529412" d="M559.599 377.205C562.392 376.404 566.063 377.924 567.511 380.526C564.285 380.011 562.457 378.779 559.599 377.205Z"/><path fill="#716560" d="M404.268 701.856C404.75 704.188 402.057 707.891 400.745 710.116C400.506 707.712 402.974 704.098 404.268 701.856Z"/><path fill="#301305" d="M373.361 107.696C382.265 106.935 386.782 107.777 395.48 108.476C399.081 108.765 406.289 107.19 410.291 108.022C426.6 111.413 443.151 119.34 453.166 132.803C464.198 147.634 464.123 163.294 461.625 180.443C485.12 182.546 510.427 186.453 533.92 189.396C548.511 191.224 564.61 192.78 578.861 195.251C576.931 180.497 579.763 164.282 588.438 152.051C596.198 141.111 607.88 132.259 621.245 129.914C631.585 128.1 638.76 129.627 648.761 131.199C650.174 131.421 654.402 130.32 656.701 130.43C669.056 131.018 683.585 134.716 693.805 141.785C706.569 150.614 715.825 165.7 718.629 180.841C722.047 199.288 714.817 215.143 704.304 229.943L793.446 271.889C797.956 263.157 804.349 255.534 812.162 249.572C821.517 242.473 834.268 239.036 845.966 239.187C850.193 238.932 857.367 241.026 861.27 240.59C881.352 238.351 903.057 244.398 915.787 261.306C926.241 275.19 929.714 294.571 927.298 312.404C923.703 338.951 904.318 354.382 880.898 364.216C866.985 369.876 847.256 367.968 833.317 362.877C815.505 356.372 808.922 347.32 798.501 332.902C787.868 342.749 777.905 353.482 767.217 363.611C761.685 368.853 752.281 380.682 744.168 382.247C742.47 382.574 740.608 380.67 739.351 379.523C742.073 375.941 746.148 372.846 749.663 369.963C755.224 365.274 760.33 359.699 765.688 354.736C775.53 345.62 784.81 335.914 794.547 326.695C793.839 323.102 791.831 317.893 790.753 314.163C786.779 300.405 787.677 291.014 791.821 277.672C761.135 266.781 730.987 247.04 700.402 235.387C696.673 240.404 692.133 244.457 686.956 247.926C666.334 261.747 648.711 260.886 625.643 256.482C623.981 258.678 622.461 264.772 621.07 267.524C615.176 279.184 609.941 297.534 602.611 307.788L595.697 304.169C600.751 293.823 605.611 283.384 610.274 272.857C612.979 266.784 615.932 259.135 619.226 253.625C616.469 252.209 613.785 250.657 611.182 248.976C592.003 236.836 585.058 222.986 580.148 200.855C553.217 197.679 525.979 193.648 499.052 190.159C487.615 188.677 470.689 187.786 460.144 185.462C452.913 208.784 439.98 222.016 416.559 230.073C418.804 237.718 421.873 245.197 424.297 252.789C427.848 263.908 430.954 274.807 434.917 285.86C437.081 291.898 439.729 298.637 442.094 304.674C442.369 305.375 442.041 305.589 441.777 306.169C441.005 307.871 437.563 308.075 435.605 308.366C429.284 295.952 423.994 275.29 419.648 261.999C417.062 254.089 411.85 240.653 410.211 233.037C405.293 234.007 400.444 235.152 395.475 235.915C377.313 238.705 359.226 232.319 344.804 221.109C330.061 209.411 320.574 192.331 318.434 173.632C316.887 160.305 322.216 141.204 330.717 130.811C341.934 117.098 355.885 109.625 373.361 107.696ZM396.053 110.145C390.372 109.025 385.631 108.084 379.807 108.616C362.406 111.907 349.57 119.574 339.405 134.453C330.404 147.676 326.992 163.919 329.911 179.647C336.034 212.135 366.888 233.765 399.538 227.275C401.158 226.944 402.771 226.579 404.375 226.181C434.757 217.81 452.831 199.261 455.005 167.705C456.168 150.838 449.734 134.91 434.841 125.871C424.742 119.806 403.747 117.884 396.053 110.145ZM665.396 248.577C686.02 241.427 695.856 230.114 705.664 211.203C718.387 186.67 707.085 156.536 682.84 144.541C672.687 139.518 656.018 140.104 649.083 132.915C641.723 131.616 639.896 131.091 632.265 131.626C617.194 133.789 606.17 142.076 597.123 154.117C579.42 177.676 588.14 221.809 611.302 238.936C625.971 249.783 647.883 253.264 665.396 248.577ZM871.909 358.346C882.422 356.593 905.693 340.048 911.518 331.323C929.349 304.612 918.752 258.307 884.734 250.528C877.088 248.78 866.335 248.945 861.701 242.274C857.61 241.726 849.715 240.352 845.998 241.179C816.988 245.001 793.038 276.346 798.165 305.575C800.848 320.875 807.871 337.831 821.046 347.155C838.642 359.204 851.89 360.723 871.909 358.346Z"/><path fill="#210F06" d="M354.348 201.309C359.951 193.916 370.452 187.247 376.609 180.035C377.431 179.309 375.157 176.007 374.521 175.155C362.879 159.57 373.908 136.011 393.046 133.93C410.463 132.037 423.254 148.654 415.645 165.449C413.044 171.189 411.714 172.903 407.428 177.6C412.311 182.181 420.699 190.396 424.952 195.92C425.598 196.76 425.037 197.688 424.665 198.489C423.209 199.646 422.551 199.622 420.637 200.032L419.973 200.17C419.594 201.366 419.643 200.747 419.858 202.028C415.83 205.716 405.996 212.29 400.619 214.764C400.532 214.804 400.083 213.295 398.756 213.012C398.466 214.626 398.205 215.851 397.817 217.446C395.034 219.797 389.15 219.85 385.592 219.714C385.326 219.489 385.061 219.264 384.795 219.039C384.947 217.22 386.334 210.588 386.582 209.246C387.139 206.224 387.706 204.602 387.225 201.998L386.454 202.008C385.399 205.851 383.361 217.75 381.187 219.726L380.048 219.895C380.043 218.403 380.089 218.703 380.508 217.199L379.916 216.939C378.72 217.659 378.073 218.139 376.967 218.961C374.233 219.083 374.923 219.056 372.541 217.726C361.394 211.275 363.005 210.406 354.348 201.309ZM380.764 186.541C378.817 189.609 376.837 198.967 377.241 202.583C380.33 196.286 382.92 193.4 380.764 186.541ZM389.827 190.509C390.491 188.789 391.298 187.406 390.953 185.671C389.429 184.857 386.936 185.306 384.539 185.138C389.638 188.578 387.476 191.326 387.267 196.7L389.827 190.509ZM374.253 211.578L375.39 210.978C376.645 208.066 377.071 206.221 377.049 203.077C375.145 205.972 374.747 208.158 374.253 211.578ZM385.678 177.812C384.841 180.188 384.614 181.322 385.74 183.731C385.987 181.646 386.396 179.79 385.678 177.812ZM392.543 150.89C392.76 150.021 394.379 143.924 394.258 143.5C392.934 146.291 391.039 151.874 389.913 153.607C390.046 151.65 390.648 147.339 389.832 145.862C389.588 146.886 389.359 147.913 389.144 148.943C388.641 151.428 388.69 151.744 389.913 153.607C389.865 155.017 389.767 155.356 390.022 156.751C390.915 155.672 391.992 152.364 392.543 150.89ZM401.767 200.857C400.976 202.782 399.469 206.117 399.775 208.102C400.946 205.756 402.393 203.479 401.767 200.857ZM403.955 181.123C400.488 182.529 396.101 183.816 393.068 185.63C398.268 189.983 396.943 191.553 396.061 197.948L396.146 199.095C397.702 197.952 402.717 184.588 404.291 181.426L403.955 181.123ZM394.065 151.211C394.713 153.365 393.131 157.095 392.67 160.121L393.134 160.507C394.314 159.669 398.524 146.032 399.307 143.716L398.864 143.385L399.537 142.4C398.681 143.405 396.543 147.975 394.545 150.589L394.065 151.211Z"/><path fill="#FEFEFE" fill-opacity="0.0078431377" d="M377.241 202.583C376.837 198.967 378.817 189.609 380.764 186.541C382.92 193.4 380.33 196.286 377.241 202.583Z"/><path fill="#FEFEFE" fill-opacity="0.062745102" d="M377.049 203.077C377.071 206.221 376.645 208.066 375.39 210.978L374.253 211.578C374.747 208.158 375.145 205.972 377.049 203.077Z"/><path fill="#130F0A" d="M380.764 186.541L381.043 186.235C380.075 184.983 379.535 184.245 379.568 182.644L381.155 183.765L382.114 183.178L383.369 183.519L383.48 184.974L384.539 185.138C389.638 188.578 387.476 191.326 387.267 196.7L389.827 190.509C389.982 192.037 387.942 200.978 387.225 201.998L386.454 202.008C385.399 205.851 383.361 217.75 381.187 219.726L380.048 219.895C380.043 218.403 380.089 218.703 380.508 217.199L379.916 216.939C378.72 217.659 378.073 218.139 376.967 218.961C374.233 219.083 374.923 219.056 372.541 217.726C372.712 216.062 373.714 213.271 374.253 211.578L375.39 210.978C376.645 208.066 377.071 206.221 377.049 203.077L377.241 202.583C380.33 196.286 382.92 193.4 380.764 186.541Z"/><path fill="#211B15" d="M375.39 210.978C378.606 216.058 374.937 214.415 376.967 218.961C374.233 219.083 374.923 219.056 372.541 217.726C372.712 216.062 373.714 213.271 374.253 211.578L375.39 210.978Z"/><path fill="#FEFEFE" fill-opacity="0.023529412" d="M394.065 151.211L394.545 150.589C396.543 147.975 398.681 143.405 399.537 142.4L398.864 143.385L399.307 143.716C398.524 146.032 394.314 159.669 393.134 160.507L392.67 160.121C393.131 157.095 394.713 153.365 394.065 151.211Z"/><path fill="#130F0A" d="M392.543 150.89L394.065 151.211C394.713 153.365 393.131 157.095 392.67 160.121C390.618 158.336 390.859 159.029 390.022 156.751C390.915 155.672 391.992 152.364 392.543 150.89Z"/><path fill="#4A4641" fill-opacity="0.98823529" d="M389.913 153.607C391.039 151.874 392.934 146.291 394.258 143.5C394.379 143.924 392.76 150.021 392.543 150.89C391.992 152.364 390.915 155.672 390.022 156.751C389.767 155.356 389.865 155.017 389.913 153.607Z"/><path fill="#210F06" d="M410.193 155.24L410.631 155.387C411.462 160.083 411.685 161.827 409.872 166.23L409.143 165.935C410.399 161.116 409.968 160.774 409.544 155.787L410.193 155.24Z"/><path fill="#211B15" d="M382.704 158.839C383.027 160.551 378.828 167.914 377.575 170.784C377.221 170.131 377.278 170.032 377.115 169.282C378.396 165.644 380.523 162.012 382.704 158.839Z"/><path fill="#4A4641" d="M367.899 196.383L368.292 197.173C366.795 199.539 365.476 201.458 363.853 203.722C363.079 202.991 363.332 203.445 363.151 202.328C364.7 200.32 366.282 198.338 367.899 196.383Z"/><path fill="#4A4641" fill-opacity="0.98823529" d="M389.832 145.862C390.648 147.339 390.046 151.65 389.913 153.607C388.69 151.744 388.641 151.428 389.144 148.943C389.359 147.913 389.588 146.886 389.832 145.862Z"/><path fill="#9E958F" fill-opacity="0.97254902" d="M401.767 200.857C402.393 203.479 400.946 205.756 399.775 208.102C399.469 206.117 400.976 202.782 401.767 200.857Z"/><path fill="#301305" fill-opacity="0.98431373" d="M385.678 177.812C386.396 179.79 385.987 181.646 385.74 183.731C384.614 181.322 384.841 180.188 385.678 177.812Z"/><path fill="#210F06" d="M638.148 201.387C633.847 196.839 630.904 193.541 629.366 187.191C624.469 166.97 646.751 150.793 664.391 162.397C669.398 165.68 672.874 170.841 674.033 176.715C675.592 184.924 672.861 190.839 667.379 196.522C665.936 198.018 663.561 200.385 662.604 202.133C661.83 202.982 661.82 203.221 660.884 203.679C658.814 204.656 652.853 207.444 651.672 209.183L650.813 209.243C647.624 207.656 645.162 206.962 641.706 205.076C643.082 227.02 642.012 223.698 635.056 243.02C631.579 239.645 626.299 237.294 622.855 234.032C611.711 223.478 609.61 219.009 624.495 211.27C627.916 209.492 635.188 204.139 638.148 201.387Z"/><path fill="#301305" d="M646.498 165.778C646.868 165.993 647.408 166.48 647.761 166.771C647.988 169.449 640.284 177.382 638.597 182.863L637.837 182.58C637.29 180.948 645.221 167.491 646.498 165.778Z"/><path fill="#210F06" d="M662.604 202.133C665.194 204.317 679.152 214.708 679.486 216.22C681.22 224.075 662.701 240.642 656.187 243.175L655.14 243.028C654.418 241.373 654.957 239.437 655.662 237.799C656.719 235.254 657.061 233.883 657.722 231.27L657.379 230.438L657.699 230.055C656.437 231.708 655.681 234.904 655.038 237.009C654.427 238.379 654.496 238.5 653.429 239.504C652.067 237.881 652.999 236.545 651.8 234.199L651.253 234.279C650.628 239.773 646.56 250.386 640.443 242.444C638.377 235.458 644.711 213.421 650.813 209.243L651.672 209.183C653.26 213.42 651.682 212.983 651.82 216.287L653.043 215.939C654.203 217.194 654.879 219.724 655.525 221.482C656.847 215.126 658.698 209.789 660.884 203.679C661.82 203.221 661.83 202.982 662.604 202.133Z"/><path fill="#301305" d="M671.18 215.318C672.037 218.032 667.035 224.837 665.467 227.167C664.892 225.651 670.022 217.624 671.18 215.318Z"/><path fill="#716560" d="M666.079 207.774C666.677 209.899 662.905 216.401 661.628 219.087C661.883 215.194 664.273 211.24 666.079 207.774Z"/><path fill="#716560" fill-opacity="0.98431373" d="M655.038 237.009C655.681 234.904 656.437 231.708 657.699 230.055L657.379 230.438L657.722 231.27C657.061 233.883 656.719 235.254 655.662 237.799L655.038 237.009Z"/><path fill="#210F06" d="M847.56 312.021C843.092 305.772 838.145 301.146 837.93 293.074C837.788 286.204 840.371 279.556 845.114 274.584C860.654 258.032 884.938 268.623 885.989 290.469C886.341 297.778 879.795 306.74 874.086 310.54C871.317 312.384 866.491 314.713 864.156 317.167L863.037 316.148C858.119 315.006 857.883 317.036 854.587 313.628L853.771 313.701C853.473 314.779 853.352 314.758 853.778 315.287C856.347 318.482 852.128 325.297 853.845 328.139L855.267 327.072L856.143 327.471C855.901 328.851 855.911 329.999 855.159 331.023C851.497 335.459 849.785 352.374 842.331 349.32C840.806 347.461 841.114 345.988 839.501 344.642L837.012 345.511C834.625 345.209 825.746 337.656 823.723 335.511C824.715 330.536 843.089 315.74 847.56 312.021ZM860.521 308.037C862.881 305.19 864.809 301.196 866.104 297.74C865.816 296.904 866.067 297.172 865.52 296.805C863.61 298.791 861.446 304.438 860.149 307.298L860.521 308.037Z"/><path fill="#FEFEFE" fill-opacity="0.035294119" d="M865.52 296.805C866.067 297.172 865.816 296.904 866.104 297.74C864.809 301.196 862.881 305.19 860.521 308.037L860.149 307.298C861.446 304.438 863.61 298.791 865.52 296.805Z"/><path fill="#130F0A" d="M874.752 311.213C881.271 315.159 888.18 322 892.64 328.144C889.462 330.179 887.827 331.082 885.228 333.826C884.066 333.695 884.144 333.727 883.18 333.066C883.498 335.468 883.455 337.33 880.77 338.701L879.008 338.104C877.232 340.737 878.901 340.391 876.728 342.445C875.697 341.797 876.037 342.067 875.264 341.099C873.346 343.124 873.894 345.937 871.987 347.553C867.922 346.508 865.462 351.656 862.916 350.422C861.593 347.117 866.255 332.755 867.399 328.388C862.367 337.085 863.08 344.122 859.662 351.673C857.443 352.213 854.536 352.869 852.414 351.798C850.429 347.822 854.061 335.463 855.159 331.023C855.911 329.999 855.901 328.851 856.143 327.471C856.642 327.307 856.284 327.454 857.04 326.736L856.721 325.528C858.134 320.965 859.012 318.57 863.037 316.148L864.156 317.167C864.484 320.716 864.456 322.451 865.907 325.672L866.549 325.854C868.326 323.127 868.987 319.873 870.459 317.024C871.341 315.315 873.468 312.772 874.752 311.213Z"/><path fill="#301305" d="M194.107 439.056C152.053 423.083 131.26 368.069 161.201 331.946C176.375 313.639 197.457 311.431 219.761 313.437C222.923 313.721 227.471 312.575 230.734 312.657C244.832 312.694 261.809 322.298 271.724 331.484C295.403 353.421 292.706 394.898 271.815 417.022C280.275 424.021 311.008 435.247 322.392 440.34C331.498 444.353 340.666 448.404 349.759 452.42C354.236 454.397 364.145 457.753 367.265 460.999C367.718 462.875 367.808 461.988 366.946 463.747C366.526 464.06 365.114 465.11 364.676 465.003C350.179 461.453 330.764 450.983 317.988 445.48C306.509 440.535 297.983 437.602 288.024 432.823C280.77 429.272 273.671 425.415 266.744 421.262C264.534 423.395 262.195 425.392 259.742 427.241C241.628 440.774 222.566 444.002 200.591 440.865C199.164 454.772 195.46 469.641 192.787 483.55C187.289 512.158 182.018 541.049 175.589 569.46C173.314 579.513 171.239 589.281 169.49 599.401C184.701 603.38 198.802 609.15 208.174 622.462C214.506 631.456 215.664 640.468 217.164 651.057C227.233 646.994 239.017 645.481 249.355 641.706C258.255 638.638 266.795 634.576 275.605 631.263C278.509 630.171 291.254 624.543 293.189 627.816C296.282 633.048 284.609 635.571 281.236 636.972C261.517 645.162 238.382 652.586 217.68 656.414C217.712 656.961 217.737 657.509 217.755 658.056C218.397 679.029 213.033 689.542 198.366 704.978C216.584 728.155 235.965 748.112 256.365 769.276C266.7 779.998 275.073 789.743 286.104 800.243C298.548 792.212 300.26 790.044 314.96 788.734L317.855 789.743C286.899 795.025 266.327 831.59 272.755 861.424C278.783 893.522 309.965 916.916 342.612 910.901C358.915 907.898 376.787 895.172 386.292 881.458C400.805 860.521 397.402 824.056 375.195 809.416C365.62 803.103 353.548 799.97 342.893 795.949C338.41 794.296 334.043 791.935 329.985 790.397L332.596 789.067C359.614 792.115 390.065 801.5 399.406 828.877C422.149 895.538 342.625 944.492 289.026 904.955C257.626 881.792 252.489 830.229 279.559 804.243C277.382 801.337 273.921 798.404 271.243 795.743C267.222 791.711 263.265 787.616 259.372 783.461L228.776 750.435C213.351 733.878 206.86 728.052 193.448 709.387C189.915 712.582 186.068 715.412 181.966 717.832C166.122 727.363 148.484 730.424 130.479 725.471C109.074 719.582 88.7843 703.159 82.2957 681.421C73.143 650.757 79.0287 621.419 108.133 604.487C117.588 598.964 128.091 597.129 138.93 596.766C142.742 596.638 145.558 596.051 149.442 597.155C148.759 597.547 142.162 597.179 140.231 597.519C88.3054 606.668 74.8542 660.397 103.514 700.454C112.135 712.503 129.055 717.632 143.208 719.517C173.487 723.55 207.115 695.037 209.686 665.084C212.883 633.152 198.475 612.602 166.277 606.623C162.328 605.889 150.61 605.579 152.286 599.465C154.796 597.025 156.74 597.567 160.327 597.603C162.545 591.421 165.935 568.947 167.616 560.685C171.404 542.903 175.056 525.092 178.572 507.254C182.543 486.834 187.786 459.039 194.107 439.056ZM159.687 355.359C159.417 356.378 159.166 357.402 158.932 358.43C151.979 389.194 172.436 426.702 204.343 433.532C236.911 440.504 282.991 410.252 280.305 374.534C279.514 364.01 280.472 354.263 273.92 345.111C262.64 327.912 244.728 322.632 225.527 319.62C222.275 319.11 219.365 315.057 216.205 314.526C202.254 312.199 186.569 319.136 176.286 328.279C172.491 331.652 169.685 336.203 166.351 339.57C163.829 344.701 161.604 349.972 159.687 355.359Z"/><path fill="#210F06" d="M205.236 385.562C196.851 374.964 194.138 360.973 203.374 349.865C207.744 344.616 214.071 341.381 220.885 340.912C237.34 339.89 248.33 357.018 242.558 371.926C240.952 376.074 239.056 378.416 236.209 381.652C241.715 389.515 246.556 395.462 252.268 402.999C249.969 405.306 236.43 416.129 233.514 417.902L232.647 416.634C230.1 418.439 229.316 424.973 224.374 423.299C224.046 422.138 224.151 422.205 223.574 421.183L221.351 422.078C220.263 421.131 220.119 419.252 219.7 417.586C217.563 420.59 218.845 424.59 215.19 425.423C212.218 426.1 211.983 425.215 211.043 422.834L210.353 422.957C209.743 424.937 210.073 425.076 208.753 426.078C206.889 426.169 206.056 425.694 204.32 425.04C190.397 421.752 190.478 413.098 182.433 404.486L182.959 403.847C185.749 400.403 201.279 387.896 205.236 385.562ZM221.394 408.16C223.085 406.032 224.642 400.33 226.451 397.137C229.035 392.575 231.708 388.381 234.439 383.92C229.752 386.315 222.878 389.332 218.789 392.161C220.203 392.547 221.566 392.609 222.222 393.931C223.816 397.142 221.986 404.708 221.394 408.16ZM205.644 419.939C208.012 416.388 209.536 403.083 213.642 398.797C215.224 397.145 215.455 396.364 215.319 394.291C214.165 393.083 212.156 392.79 210.454 392.34C210.361 402.214 205.577 412.259 205.644 419.939Z"/><path fill="#130F0A" d="M210.454 392.34C208.919 391.785 209.011 391.856 208.074 390.52L207.793 388.856C209.826 388.267 216.589 392.361 218.789 392.161C220.203 392.547 221.566 392.609 222.222 393.931C223.816 397.142 221.986 404.708 221.394 408.16C220.38 409.234 219.338 416.037 219.7 417.586C217.563 420.59 218.845 424.59 215.19 425.423C212.218 426.1 211.983 425.215 211.043 422.834L210.353 422.957C209.743 424.937 210.073 425.076 208.753 426.078C206.889 426.169 206.056 425.694 204.32 425.04C205.703 423.134 205.78 422.168 205.644 419.939C208.012 416.388 209.536 403.083 213.642 398.797C215.224 397.145 215.455 396.364 215.319 394.291C214.165 393.083 212.156 392.79 210.454 392.34Z"/><path fill="#301305" d="M235.095 393.699C236.088 394.524 235.946 394.852 236.282 396.228C237.107 399.61 234.501 401.912 232.533 404.52C230.817 406.793 230.582 407.885 229.577 410.642L229.198 410.277C229.014 409.661 228.273 407.254 228.443 406.836C230.162 402.603 233.069 398.289 234.902 394.147L235.095 393.699Z"/><path fill="#B6AFAD" d="M216.177 363.372L216.82 364.063C217.296 367.995 218.592 372.353 215.469 375.019C216.267 372.544 215.778 366.762 216.177 363.372Z"/><path fill="#4A4641" d="M234.744 404.87C235.039 406.812 233.616 411.132 233.045 413.228C231.855 410.428 233.491 407.388 234.744 404.87Z"/><path fill="#4A4641" d="M159.687 355.359C158.145 356.857 158.745 357.555 156.906 358.753L156.552 358.407C157.202 351.856 163.122 339.337 167.994 334.655L168.488 334.813C167.227 336.836 166.388 337.438 166.351 339.57C163.829 344.701 161.604 349.972 159.687 355.359Z"/><path fill="#301305" d="M642.6 767.794C641.685 766.94 617.394 720.339 613.995 714.995C612.801 713.117 611.273 709.197 612.635 706.875C614.097 704.382 616.099 703.87 618.648 702.747C624.384 708.691 646.391 754.454 650.484 763.604C658.031 763.938 665.369 764.416 672.968 764.677C696.275 763.256 707.78 762.273 727.257 778.488C738.851 788.463 745.37 803.874 746.116 819.079C746.752 837.477 740.606 852.86 728.58 866.547C686.898 913.984 606.83 890.216 603.614 825.3C602.316 799.083 616.78 775.198 642.6 767.794ZM671.71 765.292C663.932 764.991 660.268 765.01 652.759 767.669C651.056 768.272 646.354 769.828 644.61 770.025C644.255 770.203 643.904 770.388 643.557 770.579C631.374 777.335 619.154 795.045 615.431 808.945C610.736 826.472 616.344 841.916 624.362 857.523C630.812 870.08 645.1 878.357 658.51 881.81C674.225 885.935 690.937 883.589 704.909 875.297C734.058 857.874 747.78 825.589 730.57 794.319C725.807 785.665 713.102 776.577 703.566 774.115C699.381 773.034 693.464 773.398 689.13 771.926C682.746 769.801 678.41 766.944 671.71 765.292ZM623.691 719.648C622.489 716.886 621.086 713.222 618.696 711.355C619.87 713.909 621.626 717.821 623.691 719.648Z"/><path fill="#210F06" d="M662.943 835.42C660.788 832.74 659.061 830.756 657.529 827.695C647.836 808.327 666.181 784.121 687.546 793.359C694.021 796.159 698.047 799.342 700.819 806.158C704.251 814.599 702.211 821.542 697.058 828.569C695.637 830.473 693.909 833.008 693.011 835.283C691.458 836.324 690.234 837.19 688.761 838.34C688.783 838.335 678.28 843.513 677.203 844.075C682.009 852.775 683.081 863.615 679.701 873.301L678.778 873.73C676.532 873.106 677.419 873.676 675.885 872.178C674.509 867.649 678.862 863.652 676.313 860.115C674.506 862.962 674.916 873.892 670.998 876.179C670.066 876.723 666.142 876.504 665.042 875.633C664.378 872.717 667.689 864.99 668.686 860.659C666.477 865.985 663.48 870.416 661.967 875.971C660.11 874.759 658.906 873.608 657.263 872.145C657.839 870.451 659.088 867.943 657.502 866.665C655.943 867.312 655.059 868.897 654.021 870.311C647.548 866.325 645.325 862.787 640.651 857.342C645.05 850.464 655.808 839.67 662.943 835.42ZM671.007 848.419L676.072 844.383C672.452 842.403 670.423 841.713 666.482 840.327C667.789 844.012 666.315 850.195 668.525 851.586C669.725 850.82 670.245 849.659 671.007 848.419ZM677.492 807.659C679.379 804.921 681.931 801.355 681.331 797.87C679.485 800.431 676.548 804.342 677.492 807.659ZM668.463 815.927C673.205 810.392 671.472 809.108 673.859 802.529C672.842 804.011 668.844 814.29 668.463 815.927Z"/><path fill="#716560" fill-opacity="0.98823529" d="M673.859 802.529C671.472 809.108 673.205 810.392 668.463 815.927C668.844 814.29 672.842 804.011 673.859 802.529Z"/><path fill="#130F0A" d="M693.011 835.283C695.296 836.785 697.603 838.255 699.93 839.692C705.049 845.404 708.624 848.364 704.84 856.102C701.78 859.768 700.913 859.804 697.545 862.532C694.846 864.719 699.317 861.746 696.364 863.634C695.14 862.219 694.901 860.677 694.37 858.85C693.823 862.027 692.866 865.032 691.961 868.126L692.482 867.656C691.028 868.73 691.59 868.623 690 868.912L688.892 867.786C687.646 868.268 687.175 870.027 685.941 871.734L684.988 871.874C680.973 869.575 682.136 866.006 682.036 861.992C681.801 852.524 684.592 846.529 688.761 838.34C690.234 837.19 691.458 836.324 693.011 835.283Z"/><path fill="#716560" fill-opacity="0.98823529" d="M618.696 711.355C621.086 713.222 622.489 716.886 623.691 719.648C621.626 717.821 619.87 713.909 618.696 711.355Z"/><path fill="#301305" d="M857.677 485.25C865.837 484.205 873.17 486.523 881.092 487.79C884.791 488.382 886.04 487.965 888.842 485.797C897.921 486.782 905.655 489.451 913.994 493.42C952.44 511.635 956.391 567.145 925.953 594.382C898.208 619.209 860.279 622.951 830.008 600.14C813.689 587.52 808.727 571.956 805.456 552.792C795.061 554.272 730.874 557.956 726.816 553.932C726.467 552.118 727.448 550.53 728.22 548.778C752.582 549.958 780.261 546.373 804.618 546.551C806.391 531.781 807.604 517.926 816.92 505.705C826.245 493.471 842.832 487.12 857.677 485.25ZM890.125 604.791C905.158 600.311 923.716 587.81 931.525 573.442C944.939 548.252 937.197 515.705 912.027 501.224C903.679 496.421 894.932 496.611 886.918 493.641C874.761 489.135 873.762 485.503 859.526 486.661C845.604 489.036 841.947 493.607 831.465 502.508C822.162 510.407 817.909 518.364 816.02 530.484C811.656 555.857 818.083 580.611 840.192 595.604C854.938 605.604 872.536 611.651 890.125 604.791Z"/><path fill="#210F06" d="M865.874 559.936C834.435 538.426 872.277 495.849 896.702 524.088C898.141 525.652 901.781 528.365 902.026 530.544C902.426 534.096 900.754 537.877 899.785 541.323C898.586 545.592 897.524 550.134 894.843 553.764C890.844 559.179 882.197 562.836 875.952 563.806L875.183 563.322C872.732 562.207 870.419 561.333 867.92 560.349L867.155 560.695C867.973 566.804 870.1 565.123 869.328 573.137C869.783 574.525 869.25 578.705 868.703 579.891C867.326 584.559 865.343 599.326 859.305 597.274C857.94 596.083 857.785 595.224 857.123 593.529L856.871 592.872L856.031 592.673C851.271 595.599 849.72 593.809 848.317 588.771L848.19 588.303L846.218 589.223C844.008 587.707 841.527 582.139 840.366 579.59C849.531 569.718 854.234 566.105 865.874 559.936ZM880.324 532.535C882.821 529.61 884.319 526.866 885.774 523.307L885.582 522.375C883.321 525.384 880.201 528.751 880.324 532.535Z"/><path fill="#130F0A" d="M888.026 528.17C889.774 531.54 888.778 527.816 890.696 530.726C890.647 533.223 890.85 537.398 889.22 539.17L888.83 539.132L887.81 536.866C887.19 538.077 887.124 538.537 885.989 539.253L885.564 538.922C885.976 537.69 886.529 536.035 886.949 534.78C886.956 534.757 886.158 532.326 886.148 532.349C886.709 531.1 887.474 529.397 888.026 528.17Z"/><path fill="#FEFEFE" fill-opacity="0.0078431377" d="M885.582 522.375L885.774 523.307C884.319 526.866 882.821 529.61 880.324 532.535C880.201 528.751 883.321 525.384 885.582 522.375Z"/><defs><linearGradient id="gradient_3" gradientUnits="userSpaceOnUse" x1="902.61041" y1="581.24567" x2="883.92023" y2="572.42932"><stop offset="0" stop-color="#020100" stop-opacity="0.98039216"/><stop offset="1" stop-color="#1A0B04"/></linearGradient></defs><path fill="url(#gradient_3)" d="M893.1 558.648C896.265 560.762 907.217 570.666 908.513 573.91C908.096 575.619 907.178 577.217 905.507 577.942L904.984 577.362C904.199 576.509 904.519 576.834 903.598 576.031L903.238 576.472C903.646 578.24 903.838 578.483 903.133 580.256C901.56 581.993 900.569 582.103 898.196 582.347C898.496 584.967 898.752 584.899 896.303 586.693C894.887 586.468 895.528 586.749 894.49 585.544C892.879 587.784 893.348 588.911 891.229 591.039L890.271 591.353C889.378 589.935 889.69 589.798 889.617 587.83L889.35 587.933L889.391 588.773L888.523 589.047L888.094 590.144C885.294 589.211 883.45 589.278 880.663 588.66C879.519 587.383 879.867 587.875 879.959 585.58C880.587 575.119 885.854 566.06 893.1 558.648Z"/><path fill="#130F0A" fill-opacity="0.97647059" d="M875.183 563.322L875.952 563.806L876.815 564.077C879.224 564.813 879.819 564.215 881.468 565.503C881.664 567.977 880.836 568.393 879.16 570.105L879.267 570.787L881.039 571.47L881.49 572.532C880.535 572.882 880.858 572.791 879.823 572.835C878.649 576.139 880.677 577.7 877.762 579.876C877.124 580.661 876.34 581.455 875.987 582.346C875.844 583.032 875.312 585.833 875.075 586.291C873.493 588.31 873.954 587.194 873.686 589.783L871.493 589.152C870.866 590.567 870.886 591.541 870.673 593.11C871.485 595.021 872.559 595.299 873.585 597.231L872.691 598.985C870.977 599.524 870.681 599.747 868.939 599.223C864.955 595.406 870.455 583.481 868.703 579.891C869.25 578.705 869.783 574.525 869.328 573.137C872.126 569.086 872.027 569.712 875.53 566.309C874.911 564.944 874.951 564.802 875.183 563.322Z"/><path fill="#040402" d="M888.094 590.144C887.523 592.082 886.235 595.805 884.267 596.486C883.413 595.285 883.766 594.275 883.762 592.441C882.298 594.172 880.987 596.054 878.932 596.801L878.003 596.311C875.731 590.454 879.114 589.8 879.959 585.58C879.867 587.875 879.519 587.383 880.663 588.66C883.45 589.278 885.294 589.211 888.094 590.144Z"/><path fill="#130F0A" fill-opacity="0.95294118" d="M873.585 597.231C872.559 595.299 871.485 595.021 870.673 593.11C870.886 591.541 870.866 590.567 871.493 589.152L873.686 589.783C873.954 587.194 873.493 588.31 875.075 586.291C875.089 589.462 874.28 594.088 873.585 597.231Z"/><path fill="#040402" fill-opacity="0.75294119" d="M875.987 582.346C876.34 581.455 877.124 580.661 877.762 579.876C879.374 582.72 878.288 587.384 877.789 590.737C877.38 588.469 876.736 584.3 875.987 582.346Z"/><path fill="#130F0A" d="M319.104 861.021C314.88 855.928 311.281 848.461 311.182 841.356C310.994 827.877 326.744 818.183 339.045 818.526C343.423 818.649 352.863 823.174 355.367 826.822C356.917 829.082 358.171 831.725 358.647 834.463C361.574 844.253 353.656 851.782 352.329 861.087C352.036 863.143 352.01 863.405 351.367 865.422C355.659 868.255 360.015 873.421 362.944 875.047C364.937 876.265 364.908 875.804 365.622 877.54C365.112 880.877 364.252 881.422 362.061 884.08L361.18 884.388L360.723 883.47C358.497 885.547 358.653 890.191 355.393 890.691C353.202 888.756 354.629 885.166 353.354 884.603C350.686 890.863 353.854 894.298 343.844 897.542C341.079 902.787 341.695 902.569 335.353 901.677C333.576 902.745 334.242 902.831 332.861 902.553C331.417 899.904 331.974 891.945 331.116 887.366C330.85 889.658 330.521 892.098 330.339 894.385C329.698 897.949 329.832 899.058 327.311 901.609C324.817 902.149 323.826 899.775 323.459 897.646C320.586 904.995 316.06 900.783 312.383 897.181C311.726 897.934 312.117 897.677 311.24 897.993C304.351 892.522 299.064 888.472 296.296 880.145C304.35 873.518 313.93 871.47 319.104 861.021ZM335.64 880.998L336.117 882.969C336.666 882.419 336.838 882.09 336.966 881.198C337.577 876.969 345.26 868.851 344.283 865.167L343.611 865.092L334.696 867.207L334.73 867.954L336.6 868.482C335.839 869.658 335.66 869.339 333.829 869.805C334.836 873.774 335.473 876.853 335.64 880.998ZM326.621 879.384C327.13 877.017 327.569 874.646 328.723 872.489C329.238 871.526 329.989 870.727 330.348 869.815L329.797 869.541C325.16 867.193 324.312 866.192 320.992 862.44C320.481 865.268 324.131 879.004 326.345 881.281L326.621 879.384ZM339.714 845.14C341.288 842.255 343.644 837.169 343.955 833.935C342.638 836.37 339.168 842.521 339.714 845.14Z"/><path fill="#040402" d="M323.459 897.646C323.84 895.105 322.958 894.944 324.233 891.731L324.588 891.862L324.827 893.192C326.172 894.433 326.514 892.77 329.571 893.094L330.339 894.385C329.698 897.949 329.832 899.058 327.311 901.609C324.817 902.149 323.826 899.775 323.459 897.646Z"/><path fill="#040402" d="M362.944 875.047C364.937 876.265 364.908 875.804 365.622 877.54C365.112 880.877 364.252 881.422 362.061 884.08L361.18 884.388L360.723 883.47C361.895 881.78 362.552 877.267 362.944 875.047Z"/><path fill="#9E958F" d="M348.774 835.895C349.072 839.619 344.749 848.963 342.995 852.521C342.45 850.298 347.48 839.077 348.774 835.895Z"/><path fill="#211B15" d="M318.418 882.612C319.992 883.777 317.267 890.913 316.691 893.188L316.089 892.985C315.902 891.32 317.892 884.596 318.418 882.612Z"/><path fill="#B6AFAD" fill-opacity="0.98039216" d="M343.955 833.935C343.644 837.169 341.288 842.255 339.714 845.14C339.168 842.521 342.638 836.37 343.955 833.935Z"/><path fill="#716560" d="M341.503 830.324L341.714 830.54C340.777 833.371 340.284 834.725 339.864 837.741L339.107 836.934C338.883 834.033 339.892 832.679 341.503 830.324Z"/><defs><linearGradient id="gradient_4" gradientUnits="userSpaceOnUse" x1="162.50963" y1="708.0271" x2="146.51768" y2="626.89069"><stop offset="0" stop-color="#120903"/><stop offset="1" stop-color="#2C1409"/></linearGradient></defs><path fill="url(#gradient_4)" d="M134.234 670.002C129.899 662.954 126.026 657.634 128.334 648.895C130.354 640.982 134.694 633.011 141.83 628.71C146.49 625.902 153.994 624.222 159.105 625.881C170.838 629.691 179.535 639.305 175.141 652.185C172.428 660.139 169.809 664.663 164.575 670.912C171.263 675.128 177.33 681.658 183.807 686.889C181.561 689.102 179.018 691.83 176.446 693.516L175.673 693.36C174.78 691.753 175.273 691.863 174.141 691.508C174.12 694.315 174.135 696.562 172.358 698.888L171.512 698.675C170.878 697.178 170.936 696.038 170.839 694.42L168.748 701.73L166.748 703.031C165.635 702.237 165.975 702.571 165.207 701.471C164.833 703.687 164.715 705.744 163.548 707.606C160.2 708.286 159.497 703.323 158.96 700.953C159.014 702.4 158.912 704.247 159.506 705.489C157.678 706.564 157.451 706.841 155.417 706.978L154.885 707.766L154.638 707.173C154.132 709.599 154.483 710.278 153.012 711.397C149.228 711.247 148.857 704.814 147.672 701.662C146.912 704.072 145.698 708.79 144.871 710.807C142.313 711.117 139.854 711.7 137.493 710.903C136.241 709.663 136.633 710.409 136.456 708.501C133.05 709.59 134.717 710.695 131.007 708.286C133.442 706.156 134.963 692.732 135.064 688.867C134.95 689.047 134.836 689.226 134.722 689.406C133.702 697.206 131.81 701.508 130.536 708.188C129.297 707.751 128.007 707.647 127.174 707.435C122.121 706.144 113.993 694.848 111.211 690.526C115.602 685.129 128.762 674.498 134.234 670.002ZM140.44 684.889C142.476 688.654 139.707 688.294 142.769 692.835L142.55 692.244L143.245 691.056L143.279 691.51C143.222 690.208 143.23 688.437 143.112 687.197C142.84 684.35 146.304 682.208 146.408 679.284C144.167 678.852 143.639 679.073 142.485 677.228L142.688 676.521L144.65 676.514L144.875 676.056C141.617 674.768 138.895 673.571 135.704 672.089C137.156 676.26 139.141 680.943 140.44 684.889ZM153.631 684.577C153.392 687.523 153.293 688.241 153.83 691.115C153.553 692.585 152.902 694.88 153.401 696.131C154.517 694.762 154.695 692.863 155.06 691.078C156.399 684.511 159.311 678.931 160.275 673.24C158.794 673.645 154.376 674.703 153.443 675.538L154.338 676.787C153.834 678.191 154.294 677.67 153.142 678.529L150.571 678.149C150.357 679.462 152.752 683.001 153.631 684.577ZM136.186 702.064C137.268 699.286 139.295 688.893 137.85 686.445C137.447 689.368 135.563 700.079 136.186 702.064ZM143.787 655.632C143.822 653.922 144.692 649.616 145.795 647.737C145.819 647.695 145.133 646.782 145.121 646.771C144.193 648.602 142.591 652.188 143.034 654.271C143.146 654.789 143.408 655.262 143.787 655.632Z"/><path fill="#211B15" fill-opacity="0.98039216" d="M137.85 686.445C139.295 688.893 137.268 699.286 136.186 702.064C135.563 700.079 137.447 689.368 137.85 686.445Z"/><path fill="#130F0A" d="M134.234 670.002C134.551 670.492 135.316 671.807 135.704 672.089C137.156 676.26 139.141 680.943 140.44 684.889C138.26 685.602 138.962 684.95 137.85 686.445C137.447 689.368 135.563 700.079 136.186 702.064C136.307 703.902 136.718 706.856 136.456 708.501C133.05 709.59 134.717 710.695 131.007 708.286C133.442 706.156 134.963 692.732 135.064 688.867C134.95 689.047 134.836 689.226 134.722 689.406C133.702 697.206 131.81 701.508 130.536 708.188C129.297 707.751 128.007 707.647 127.174 707.435C122.121 706.144 113.993 694.848 111.211 690.526C115.602 685.129 128.762 674.498 134.234 670.002Z"/><path fill="#130F0A" d="M156.575 698.088L157.894 697.042L158.327 697.394C158.353 699.387 157.989 699.709 158.96 700.953C159.014 702.4 158.912 704.247 159.506 705.489C157.678 706.564 157.451 706.841 155.417 706.978L155.522 705.004C156.243 701.614 156.829 701.788 156.575 698.088Z"/><path fill="#130F0A" d="M174.141 691.508C174.12 694.315 174.135 696.562 172.358 698.888L171.512 698.675C170.878 697.178 170.936 696.038 170.839 694.42C171.411 692.663 172.601 692.194 174.141 691.508Z"/><path fill="#211B15" d="M155.522 705.004C154.93 703.411 155.206 699.454 156.575 698.088C156.829 701.788 156.243 701.614 155.522 705.004Z"/><path fill="#130F0A" d="M154.962 636.804C156.151 636.691 156.449 636.627 157.622 636.756C160.672 639.718 159.701 642.453 155.588 643.184C154.131 643.306 155.121 643.921 153.22 643.75C152.193 641.045 154.452 639.94 154.962 636.804Z"/><path fill="#210F06" d="M157.469 655.247C158.277 656.514 159.207 657.776 159.913 659.054C160.09 660.701 159.491 661.364 158.666 662.824C157.942 661.179 157.87 661.106 156.45 660.109C156.057 658.203 156.752 657.31 157.469 655.247Z"/><path fill="#4A4641" fill-opacity="0.98823529" d="M145.121 646.771C145.133 646.782 145.819 647.695 145.795 647.737C144.692 649.616 143.822 653.922 143.787 655.632C143.408 655.262 143.146 654.789 143.034 654.271C142.591 652.188 144.193 648.602 145.121 646.771Z"/><path fill="#716560" d="M148.73 648.38C148.903 650.304 147.366 655.575 146.603 657.446C145.367 655.211 147.709 650.473 148.73 648.38Z"/><path fill="#FEFEFE" fill-opacity="0.031372551" d="M153.83 691.115L155.06 691.078C154.695 692.863 154.517 694.762 153.401 696.131C152.902 694.88 153.553 692.585 153.83 691.115Z"/><path fill="#301305" d="M730.9 380.429L732.486 380.447C734.506 381.421 735.416 383.063 736.801 384.903C717.726 394.852 699.275 409.341 682.214 422.37C674.584 428.197 669.045 433.13 660.8 438.611C660.132 438.877 659.417 439.049 658.718 439.248C657.129 438.649 656.372 436.842 655.448 435.292C658.221 432.388 666.54 425.738 670.134 422.895C689.157 407.846 709.413 391.722 730.9 380.429Z"/><path fill="#301305" d="M391.771 719.283C394.09 721.488 394.733 722.324 396.599 724.827C394.226 730.627 385.668 743.66 382.112 750.065C375.652 761.701 369.113 773.926 362.231 785.295C360.882 787.525 359.114 788.859 357.279 790.766C355.9 791.257 356.63 791.12 354.779 790.404C354.216 789.628 353.905 789.376 353.752 788.396C352.547 780.679 377.775 739.689 383.167 731.351C385.846 727.207 388.838 723.25 391.771 719.283Z"/><path fill="#4A4641" d="M387.227 732.4C387.441 734.663 382.385 742.185 380.915 744.618C380.659 741.94 385.494 735.086 387.227 732.4Z"/><path fill="#4A4641" fill-opacity="0.98431373" d="M130.536 708.188C131.81 701.508 133.702 697.206 134.722 689.406C134.836 689.226 134.95 689.047 135.064 688.867C134.963 692.732 133.442 706.156 131.007 708.286L130.536 708.188Z"/><path fill="#040402" fill-opacity="0.94901961" d="M314.96 788.734C321.166 788.317 326.399 788.678 332.596 789.067L329.985 790.397C324.783 789.603 323.087 789.515 317.855 789.743L314.96 788.734Z"/><path fill="#040402" d="M155.417 706.978C157.451 706.841 157.678 706.564 159.506 705.489C159.442 707.879 159.258 711.273 156.123 711.364C154.832 710.106 155.129 710.221 154.885 707.766L155.417 706.978Z"/></svg>